<svg xmlns="http://www.w3.org/2000/svg" width="16" height="16" viewBox="0 0 16 16">
  <g fill="none" fill-rule="evenodd">
    <circle cx="8" cy="8" r="8" fill="#FFEA00"/>
    <path fill="#FFFF00" d="M8,8 C8,8 5.16257285,0.393614917 3.98176859,1.08083597 C2.63920413,1.8622005 1.54477326,3.0231243 0.845473422,4.41660991 C0.304507826,5.49458496 8,8 8,8 Z M8,8 C8,8 10.8374271,15.6063851 12.0182314,14.919164 C13.3607959,14.1377995 14.4552267,12.9768757 15.1545266,11.5833901 C15.6954922,10.505415 8,8 8,8 Z"/>
    <path fill="#FFB338" d="M8,16 C12.418278,16 16,12.418278 16,8 C16,3.581722 12.418278,0 8,0 C3.581722,0 0,3.581722 0,8 C0,12.418278 3.581722,16 8,16 Z M8,15 C11.8659932,15 15,11.8659932 15,8 C15,4.13400675 11.8659932,1 8,1 C4.13400675,1 1,4.13400675 1,8 C1,11.8659932 4.13400675,15 8,15 Z"/>
  </g>
</svg>
