<svg xmlns="http://www.w3.org/2000/svg" width="14" height="14" viewBox="0 0 14 14">
  <g fill="none" fill-rule="evenodd">
    <path fill="#0044BB" d="M8.47623194,1.45345636 C7.62527669,0.728497111 7,0.250344361 7,0.250344361 C7,0.250344361 6.36675334,0.734591811 5.50752249,1.46730317 C4.38286806,1.25904459 3.57948331,1.15462675 3.57948331,1.15462675 C3.57948331,1.15462675 3.27513162,1.8859775 2.89901757,2.94470642 C1.84028865,3.32082046 1.1089379,3.62517219 1.1089379,3.62517219 C1.1089379,3.62517219 1.21376115,4.43167617 1.4228272,5.55975859 C0.715059574,6.39229548 0.250344361,7 0.250344361,7 C0.250344361,7 0.715059574,7.60770452 1.4228272,8.44024141 C1.21376115,9.56832383 1.1089379,10.3748278 1.1089379,10.3748278 C1.1089379,10.3748278 1.84028865,10.6791795 2.89901757,11.0552936 C3.27513162,12.1140225 3.57948331,12.8453733 3.57948331,12.8453733 C3.57948331,12.8453733 4.38286806,12.7409554 5.50752249,12.5326968 C6.36675334,13.2654082 7,13.7496556 7,13.7496556 C7,13.7496556 7.62527669,13.2715029 8.47623194,12.5465436 C9.5613637,12.7455837 10.329139,12.8453733 10.329139,12.8453733 C10.329139,12.8453733 10.6334907,12.1140225 11.0096047,11.0552936 C12.0683336,10.6791795 12.7996844,10.3748278 12.7996844,10.3748278 C12.7996844,10.3748278 12.7002912,9.61010228 12.5020407,8.52838897 C13.2518708,7.65094935 13.7496556,7 13.7496556,7 C13.7496556,7 13.2518708,6.34905065 12.5020407,5.47161103 C12.7002912,4.38989772 12.7996844,3.62517219 12.7996844,3.62517219 C12.7996844,3.62517219 12.0683336,3.32082046 11.0096047,2.94470642 C10.6334907,1.8859775 10.329139,1.15462675 10.329139,1.15462675 C10.329139,1.15462675 9.5613637,1.25441634 8.47623194,1.45345636 Z"/>
    <polygon fill="#FFFFFF" points="6.074 7.73 4.573 6.101 3.384 7.197 6.052 10.094 10.514 5.427 9.345 4.309"/>
  </g>
</svg>
