<svg xmlns="http://www.w3.org/2000/svg" width="64" height="48"><path fill="#007A3E" d="M0 0h64v48h-64z"/><path fill="#fff" d="M0 35h64v6h-64zM0 21h64v6h-64zM0 7h64v6h-64z"/><path fill="#E40520" d="M0 0h30v21h-30z"/><g fill="#fff"><path d="M17.228 17.243c.021-.665.49-1.15.921-1.578.432-.428.568-.819.725-1.5.157-.682.059-1.734.039-2.299-.02-.564.078-.856.451-1.519.373-.663-.393-.702-.94-.41-.549.292-1.059 1.324-1.176 1.831-.118.506-.412.156-.393-.194.028-.507-.048-2.796-.157-3.371-.117-.623-.294-.974-.627-.838-.333.137-.215.662-.196 1.072.02.41-.157 1.89-.294 2.805-.078.526-.353.253-.372-.039-.02-.292.039-1.383.098-1.656.059-.273.118-.857.099-1.149-.021-.292-.04-.585-.021-1.13.021-.545-.176-.624-.548-.643-.372-.019-.412.507-.353.799.059.292.078 1.715-.02 2.241s-.079 1.247-.098 1.655c-.02.41-.373.39-.373.079 0-.312 0-1.267.079-1.578.078-.311.059-.507.04-.721-.019-.214 0-.663-.04-1.344-.039-.683-.274-.78-.489-.702-.216.078-.432.448-.471.818-.039.37.098.526.157.896.06.371 0 1.364.098 2.689.033.448-.431.253-.47 0-.039-.254-.117-1.189-.098-1.676.035-.876-.196-1.306-.392-1.169-.257.179-.49.37-.49.838 0 .584-.015 1.403-.138 2.24-.254 1.753.549 2.98.785 4.812.071.549.036 1.111.548 1.578.471.428 1.02.687 1.784.662 1.214-.039 1.136-.331 1.705-.448.498-.102.607-.428.627-1.051zM15.463 1.191l-.42 1.301h-1.384l1.123.809-.432 1.299 1.113-.807 1.114.807-.426-1.31 1.119-.793h-1.38zM15.463 3.073"/><path d="M11.401 2.115l-.421 1.3h-1.384l1.125.81-.432 1.298 1.112-.807 1.114.807-.427-1.31 1.12-.793h-1.38zM11.401 3.996"/><path d="M7.589 3.744l-.422 1.301h-1.384l1.125.809-.432 1.298 1.113-.807 1.113.807-.427-1.309 1.12-.793h-1.38zM7.589 5.625"/><path d="M3.733 6.246l-.421 1.301h-1.384l1.124.808-.432 1.299 1.113-.806 1.113.806-.426-1.309 1.119-.793h-1.379zM3.733 8.127"/><path d="M19.526 2.115l.421 1.3h1.385l-1.125.81.432 1.298-1.113-.807-1.113.807.425-1.31-1.117-.793h1.379zM19.526 3.996"/><path d="M23.339 3.744l.421 1.301h1.384l-1.124.809.432 1.298-1.113-.807-1.113.807.425-1.309-1.118-.793h1.379zM23.339 5.625"/><path d="M27.194 6.246l.421 1.301h1.385l-1.125.808.433 1.299-1.114-.806-1.113.806.426-1.309-1.119-.793h1.38zM27.194 8.127"/></g></svg>