<svg xmlns="http://www.w3.org/2000/svg" width="64" height="48" viewBox="-31.5 24.5 64 48" enable-background="new -31.5 24.5 64 48"><path fill="#262D62" d="M-31.5 24.5h64v48h-64z"/><path fill="#fff" d="M.5 24.52h-3.9l-8.1 5.98v-6h-8v6l-8.133-5.98h-3.867v2.914l6.759 5.07h-6.759v7.99h6.759l-6.759 5.07v2.915h3.867l8.133-5.979v6h8v-6l8.1 5.979h3.9v-2.915l-6.792-5.07h6.792v-7.99h-6.792l6.792-5.07z"/><path fill="#DC2F34" d="M-2.015 24.52l-10.68 7.989h2.556l10.639-7.989zM.5 48.479l-10.65-7.985h2.567l8.083 6.081zM-20.798 32.509l-10.702-7.989v1.908l8.123 6.081zM-20.82 40.494l-10.68 7.985h2.556l10.681-7.985zM.5 34.5h-14v-10h-4v10l-14 .056v3.944h14v10h4v-10h14z"/><path fill="#95C1E8" d="M24.153 49.476c-.017 6.117-.904 12.713-8.145 15.851-7.241-3.138-8.133-9.734-8.145-15.851h16.291z"/><path fill="#3E6AB2" d="M16.004 65.327c3.291-1.417 5.266-3.563 6.441-6.034-.175.013-.546 0-.704-.013-.175-.013-6.945-.767-7.754-1.083-.696-.271-3.354.246-4.591.729 1.158 2.629 3.162 4.917 6.608 6.4z"/><path fill="#5B3411" d="M10.942 61.531c.112-.038.325-.025.404-.013.1.025.117.033.154-.083.033-.117.112-.079.175-.033.062.058.225.033.292-.071.062-.092.079-.083.146-.013.062.067.083.046.15.038.058-.025.171-.108.217-.217.058-.104.137-.15.175-.079.046.058.096.079.154.067.062-.013.079.063.071.154-.004.083.033.104.187-.033.129.142.175.083.175-.071s-.033-.729-.087-.813c-.058-.071-.104-.296-.121-.471-.017-.329-.017-.358-.383-.554 0-.117-.025-.167-.279-.142.008-.046-.033-.167-.087-.213-.054-.046-.062-.071-.037-.2.112.013.221-.017.287-.108.058-.092.267-.083.392-.021.129.058.287.071.525.033.092-.083.233-.175.392-.267.162-.092.212-.129.217-.275.025-.35-.092-.75-.175-.929l-.237-.704c-.137-.321-.129-.413-.292-.604-.037-.046-.087-.092-.096-.213-.008-.092-.046-.246-.15-.35-.275-.267-.375-1.142-.483-1.779-.062-.367-.017-1.242-.158-1.379-.237-.213-.35-.175-.508-.238-.121-.175-.179-.529-.283-.85-.171.038-.287.225-.4.296-.112.071-.129.071-.129.246s-.096.425-.254.683c-.158.283-.425.2-.646.617-.487-.646-.5-.838-.533-1.025-.033-.192-.112-.225-.392-.483 0-.083-.033-.4-.008-.563-.208-.192-.358-.167-.446-.025-.108.142-.175.342-.329.413-.087.142-.362.45-.583.825.183 3.392.887 6.759 2.987 9.446z"/><path fill="#F3E600" d="M24.153 49.476c.008-2.308-.112-4.546-.058-6.517-2.712-1.317-6.275-1.596-8.087-1.596s-5.375.275-8.087 1.596c.054 1.967-.062 4.209-.058 6.517h16.291z"/><path fill="#CF6315" d="M8.308 52.143c.083.154.25.425.267.579l.121-.296c.017-.1.112-.263.071-.358-.033-.092-.054-.167.042-.092.096.071.079.175.058.35-.058.488-.242.579-.267.9.267.683.062.917.346 1.588l.196-.021c.154-.117.267-.071.483-.025.217.046.337.225.337.367s0 .183.042.267c.046.083.125.225.112.321-.017.104.017.154.046.213.021.046-.008.154-.042.213-.025.075-.017.167.087.321.112.142.362.75.362 1.108 0 .363.017.529.15.6.137.075.175.117.158.283-.017.15.067.967.083 1.083.017.133.062.108.117.179.046.058.087.142.267.142l.462-.013c.162.25.258.575.296.788.033.2.033.483.096.483.062 0 .121 0 .104-.25-.017-.258-.029-.296-.112-.425-.079-.129-.129-.175-.079-.258.037-.083.046-.2.029-.304-.017-.096-.046-.238.112-.05l.233.308c.046.071.062.2.054.317-.008.121.008.167.071.108.062-.063.146.046.104.167-.033.129.008.213.121.25.104.033.154.067.175.15.033.083.112.129.112-.046s-.054-.542-.1-.658c-.042-.117-.079-.363-.092-.517-.008-.142-.033-.188-.096-.213-.062-.038-.121-.083-.129-.154-.008-.067-.062-.079-.104-.079l-.096-.096-.092-.046c-.037-.008-.112.025-.133-.058l-.096-.246c-.046-.075-.092-.096-.096-.308 0-.225-.008-.25-.062-.329-.062-.083-.179-.283-.217-.367-.046-.092-.087-.175-.087.013 0 .179 0 .271.104.346.108.067.137.067.087.175-.037.092 0 .15.021.221.021.071.054.142 0 .213-.05.058-.108.046-.1-.058.008-.108-.021-.238-.071-.329-.042-.083-.079-.142-.125-.096-.058.046-.104-.013-.062-.05v-.096c-.033-.033-.042-.058.004-.117.042-.058.042-.092.017-.221-.021-.138-.221-.821-.312-.975-.087-.154-.079-.271.033-.121.121.154.217.296.229.425.017.117.037.2.071.25.042.046.062.033.079-.071.017-.117.096-.067-.033-.267-.129-.213-.362-.554-.442-1.167-.096-.613-.129-1.025-.212-1.192-.092-.167-.121-.2-.129-.35-.008-.167 0-.321-.062-.438-.062-.117-.104-.129-.112.046-.004.167.008.554.05.625.046.071.025.25.008.342-.008.108-.142.2.142.392.121.079.104.188.079.258-.017.067-.033.058-.096-.063l-.183-.246c-.062-.058-.071-.092-.062-.233.008-.129.029-.225 0-.283-.037-.046-.054-.013-.071.071-.017.083-.033.296-.075.35-.033.063-.054.013-.079-.104-.021-.129.008-.329.075-.554.062-.225.096-.446.046-.742-.058-.292-.033-.375-.242-.625-.2-.246-.429-.479-.525-.775-.096-.308-.121-.567-.225-.708-.104-.142-.258-.304-.358-.367v-.446c0-.108-.042-.167-.158-.154-.112.025-.187.129-.258.271-.071.154-.117.083-.212.329-.121.242-.254.371-.254.646zm.634 2.85c.071.046.142.083.246.021.104-.058.242-.225.375-.058.142.167.221.438.221.658 0 .213 0 .604.229.825.221.221.333.471.342.754.008.292.117.742.137.858.025.117.092.258.158.329.075.083.129.304.137.529.004.233-.033.4 0 .517.021.121 0 .225-.079.154-.079-.05-.096-.083-.142-.179-.046-.096-.096-.083-.058.063.046.15.187.292.296.292.121 0 .154.013.225.096.075.083.079.117.208.117.121 0 .137 0 .258.038.112.046.112.021.175 0 .062-.025.117.046.167.167.046.129.154.479.154.575s0 .188.062.296c.062.092.042.192-.025.129l-.129-.021-.158-.075-.096-.154c-.071-.117-.117-.163-.117-.071 0 .083-.012.204-.062.154-.058-.058-.083-.058-.121 0-.046.05-.058.083-.112-.021-.058-.092-.121-.092-.175-.108l-.079-.113c-.025-.083-.104-.108-.179-.108-.071 0-.1-.033-.117-.092l-.087-.129-.021-.154-.096-.071c-.042-.013-.062 0-.062-.104l-.067-.192c-.021-.067 0-.142.017-.213.017-.083.008-.129-.037-.196-.058-.075-.008-.142-.154-.275-.133-.142-.208-.021-.254-.342-.046-.317-.137-.975-.217-1.096-.079-.104-.133-.175-.212-.213-.079-.021-.137-.013-.146-.188-.008-.192-.054-.425-.167-.542l-.208-.2c-.046-.05-.062-.142 0-.308.071-.167.05-.392.037-.496-.008-.108-.037-.238-.017-.367.017-.117.008-.258-.021-.342-.037-.063-.067-.088-.029-.146zm2.154-2.766c-.117.175-.25.317-.417.45-.171.129-.387.233-.267.446.121.225.217.25.237.425.025.167.058.304.175.342.121.046.171.013.171.296 0 .275 0 .367.112.471.104.108.087.213.137.458.046.246.046.779.192 1.142.137.367.462 1.05.425 1.192-.033.15-.079.246.062.425.137.163.233.413.25.554.004.142.033.2.175.142.146-.046.217-.104.254-.167.046-.067.142-.058.283.025.125.083.329.154.446.083.121-.083.179-.2.292-.2.158-.129.225-.4.254-.483.037-.071.017-.071-.058-.154-.071-.071-.037-.213-.05-.329-.017-.142-.054-.329-.196-.613-.146-.283-.225-.633-.321-.733-.096-.096-.142-.317-.158-.413-.004-.108-.112-.2-.183-.283-.071-.071-.146-.188-.229-.65-.079-.446-.142-.779-.142-.846 0-.083-.008-.096-.075-.117-.071-.038-.112-.167-.087-.225.025-.067-.025-.129-.046-.213-.025-.071 0-.213.046-.296.046-.083.042-.296-.008-.483-.046-.175-.096-.342-.287-.367-.196-.021-.225-.071-.296-.238-.075-.175-.142-.471-.171-.538-.021-.071-.054-.071-.208.046-.137.129-.183.175-.183.425 0 .15.025.2.075.296.046.092.054.117.096.363.033.25.233.638-.025.863-.254.225-.225.271-.212.425.017.154-.075.258-.121.033-.046-.213 0-.342.142-.45.142-.104.275-.233.175-.375-.083-.142-.125-.483-.133-.638-.021-.154-.046-.213-.125-.092z"/><path fill="#3AAA35" d="M8.971 55.535l.021.321c.012.104.033.329-.037.496-.062.167-.046.258 0 .308l.008.008c.154-.058.171-.233.125-.317-.037-.096-.033-.2.025-.296.037-.096.037-.142 0-.213-.042-.063-.042-.063.004-.246.046-.158-.054-.158-.146-.063zm1.525 2.521c-.021-.117-.129-.563-.137-.858-.004-.283-.117-.533-.342-.754-.179-.167-.212-.45-.217-.671-.137-.083-.192-.05-.175.117.008.175.167.258.146.508-.025.258-.025.2.096.317.112.129.154.238.096.296-.062.046-.071.142.017.179.079.033.092.129.075.213-.008.092.062.117.112.175.046.071.054.221.004.317-.046.096-.054.238.033.154.079-.083.112-.013.175.117.067.104.108.067.171.033l-.054-.142zm1.162 2.263c-.058.121-.121.083-.175.021-.05-.058-.117-.058-.092-.163.033-.108.017-.121-.046-.192l-.033-.013h-.075c-.125 0-.133-.038-.208-.117l-.046-.046v.071c0 .104 0 .092-.096.113-.096.038-.079-.104-.096-.183l-.017-.058c-.112-.025-.221-.142-.267-.283-.037-.142.008-.154.058-.063.046.096.062.129.142.179.079.067.104-.038.079-.154l-.008-.129-.079-.083c-.142-.071-.1-.083-.087-.213 0-.129-.025-.129-.112-.058-.087.067-.096-.017-.096-.217 0-.188-.121-.188-.146-.046-.021.129-.071.046-.125-.15-.046-.192-.117-.25-.129-.063-.004.167-.046.2-.137.108l.042.304c.046.321.121.2.254.342.142.129.096.2.154.275.046.067.054.113.037.196-.017.071-.037.142-.017.213l.067.192c0 .104.025.092.062.104l.071.025.075-.108c.104-.117.262.013.317.154.05.154.112.192.192.071.079-.117.058-.096.142.013.087.108.121.083.121.083s.092-.038.154.025c.062.058.104.046.212-.146.125-.179-.037-.113-.092-.004zm.313-5.338c.033-.283.008-.575.112-.671.112-.104.242-.317.233.129-.017.438-.025.413-.112.521-.079.096-.154.129-.075.296.092.167.096.188.092.446-.017.25-.017.367.079.496.096.117.117.129.142.283.025.142.104.342.208.433.112.108.233.404.237.617.017.213.179.258.337.4.15.142-.042.246-.158.188-.112-.071-.062 0-.137.083-.075.092-.096.104-.158-.05-.058-.15-.254-.258-.354-.304-.096-.038-.175-.2-.262-.363-.075-.154-.208-.263-.337-.275l.042.238c-.033.15-.079.246.062.425.137.163.233.413.25.554.004.142.033.2.175.142.146-.046.217-.104.254-.167.046-.067.142-.058.283.025.125.083.329.154.446.083.121-.083.179-.2.292-.2.158-.129.225-.4.254-.483.037-.071.017-.071-.058-.154-.071-.071-.037-.213-.05-.329-.017-.142-.054-.329-.196-.613-.146-.283-.225-.633-.321-.733-.096-.096-.142-.317-.158-.413-.004-.108-.112-.2-.183-.283-.071-.071-.146-.188-.229-.65l-.129-.767c-.092.142-.146.192-.179.083-.033-.117-.079-.188-.129-.104-.046.083-.062-.063-.062-.129 0-.063-.004-.083-.071-.083-.058 0-.012-.096-.033-.296-.025-.2-.058-.213-.079.013l-.1.433c.05.046.025.154-.021.308-.05.15-.025.242.004.35.042.108-.021.296-.046.458-.021.179.104.346.137.063zm-2.167-2.334c-.096 0-.15.083-.1.388.033.175-.096.142-.146.046-.046-.096-.079-.279-.175-.458-.1-.167-.05.117-.058.283-.017.154.079.154.158.283.087.129.017.175-.079.175s-.05.213-.021.35c.021.142-.025.167-.1.046-.071-.117-.025-.292-.008-.517.008-.213.017-.167-.112-.213-.129-.058-.104-.083-.058-.213.046-.129.092-.2.033-.258-.054-.075-.046-.108.05-.121l.142-.121c.083-.021.121.017.129-.15.017-.142.054-.225.15-.192.071.221.142.563.196.671zm1.196 1.53c0 .275 0 .367.112.471.104.108.087.213.137.458.046.246.046.779.192 1.142l.158.392c.079-.071.146-.175.171-.25.037-.092-.071-.275-.154-.425-.079-.154.008-.213.096-.4.079-.2-.017-.213-.146-.271-.125-.046-.125-.175-.2-.375-.071-.213-.062-.304-.017-.425.05-.117.017-.2-.079-.238-.096-.021-.071-.092-.033-.233.033-.129.058-.154-.087-.108l-.171.083.021.179z"/><path fill="#5B3411" d="M12.367 54.723l-.046.283c-.042.046-.017.129.021.213.033.071.058.175.025.317-.042.142.021.263.096.308.067.038.108 0 .075.179-.017.175.071.375.158.458.079.067.146.213.129.283-.008.079.062.15.142.188.092.046.075.058.075.104 0 .063.033.063.125.083.096.025.167.083.279.238.104.142.258.225.233.058-.021-.15 0-.258-.133-.325-.146-.083-.258-.458-.312-.717-.062-.263-.25-.613-.358-.688-.008-.175.017-.258-.096-.35-.104-.092-.142-.213-.142-.304 0-.083-.058-.2-.104-.225-.05-.021-.067-.092-.067-.175-.004-.083-.092-.071-.1.071z"/><path fill="#52B15B" d="M11.737 61.685c.217-.021.792-.2.85-.258.142.108.4.258.504.258-.212.046-.337.013-.392-.021.021.067.096.175.146.175-.2 0-.421-.058-.487-.129-.183.071-.467.092-.621-.025zm.384.292c.075.025.45.096.496.096-.121.117-.017.233.192.213-.104.013-.208.046-.137.071.187.038.679-.104.775-.167-.167.238-.992.458-1.325-.213zm.333.604c.104-.071.35-.05.471.021-.125.046-.392.046-.471-.021z"/><path fill="#010202" d="M12.842 62.569c.183-.038.696.096.879-.021-.062.175-.387.213-.496.163-.112-.038-.225-.096-.296-.083l-.087-.058z"/><path fill="#52B15B" d="M13.025 62.84c.133.021.633-.033.783-.108.158.063.483.154.55.142-.15.104-.446.046-.533 0-.262.108-.492.133-.8-.033zm.241.095c.2.046.367.013.558-.058.058.033.2.058.337.058.087.058.208.129.329.142-.121.063-.571 0-.658-.05-.217 0-.6.063-.696.129-.008-.058.037-.15.129-.221z"/><path fill="#010202" d="M13.025 61.84c.15.046.712.025 1-.117.112-.058.187.033.058.079-.467.175-.833.25-1.096.096-.117-.071-.125-.117.037-.058z"/><path fill="#52B15B" d="M15.754 61.014c-.687.346-1.137.446-2.096.129-.087-.033-.15 0-.046.075.096.071.617.221.742.238.129.008.079.071.012.092-.079.025-.104.083 0 .038.1-.046.671-.063.912.071.104.058.129.058.117.013-.008-.046.042-.075.121-.083.075-.013.121-.046.062-.071l-.021-.058-.017-.063c-.075-.021-.112-.033-.046-.067.054-.038.15-.063.225-.071.017-.067-.021-.192.033-.242z"/><path fill="#010202" d="M14.625 61.094c.387.038 1.112-.167 1.492-.575.133.096.317.188.425.2.096.025.183.121.033.121-.154 0-.371-.071-.467-.121-.504.346-1.104.463-1.471.425-.117-.013-.142-.063-.012-.05z"/><path fill="#52B15B" d="M13.466 58.764c.133.092.367.267.671.25.154.129.392.233.5.258-.2.092-.425.175-.487.246-.087-.092-.212-.083-.242-.129-.087.071-.079.129-.025.167.062.038.512.117.625.079.112-.025.142.071.046.104-.242.092-.717 0-.875-.279-.15-.271-.296-.392-.729-.133-.046-.129-.046-.163-.137-.163-.087 0-.237-.133-.117-.117.121 0 .479-.063.771-.283zm.1.625l-.358.15c-.079.017-.208.133-.071.133.133 0 .321-.154.417-.179.092-.013.104-.129.012-.104zm.438.496l-.346.058c-.058 0-.121.013-.121.058.008.063.025.083-.062.075-.096-.013-.175.025-.2.058-.025.033-.037.063.058.071.087.013.146.013.25-.033.104-.058.208-.129.321-.142.112-.017.225-.171.1-.146z"/><path fill="#010202" d="M13.675 60.177c.096.067.579.246.754.233.175-.013.142.071.004.108-.271.071-.6-.063-.825-.258-.104-.096 0-.133.067-.083z"/><path fill="#52B15B" d="M15.958 60.439c-.367.129-.742.079-.896.038-.154-.038-.287-.05-.187.058.096.104.433.175.621.129-.667.167-.842.154-1 .121-.171-.038-.479-.025-.608-.013-.096.013-.229 0-.287-.05-.054-.033-.071-.104.096-.079.175.013.2-.021.046-.05-.15-.021-.358.05-.15.179.2.15.646 0 .937.083.287.096.887.15 1.467-.354.021-.029.071-.1-.037-.063zm-1.808-.591v.129l.042.038c.062-.05.096-.117.15-.075.062.025.212.025.283.013.062-.013.087-.021-.017-.071-.096-.038-.192-.05-.25-.05l-.167-.033-.042.05zm.946.187c-.071 0-.208-.046-.271-.079-.075-.038-.175-.05-.104.071.079.104.408.175.521.117.121-.046.075-.108.187-.033.121.083.237.142.321.142.087 0 .121 0 .025-.058-.096-.063-.137-.083-.142-.129l.054-.046c.087.033.183.083.254.046.062-.046.187-.129.296-.129l.033-.071c-.167-.013-.267.038-.304.058-.046.025-.129.025-.217.013l-.225-.046.046-.063c.075-.008.096-.067-.004-.046-.1.013-.358.013-.5-.033-.137-.058-.2-.058-.25-.038-.062.025-.054.096.033.096.079.013.275.033.346.096l-.021.046c-.079-.054-.217-.033-.079.088zm1.166-.175l-.033.071c.171 0 .567.033.696.129.129-.108.104-.142.196-.121l.246.025.137-.025c.058.013.175-.008.237-.058.062-.038.208-.096.287-.096.083 0 .179-.021.033-.046-.154-.021-.375.025-.45.046-.079.033-.304.063-.442.063-.129 0-.312.067-.462.021-.146-.038-.358-.008-.446-.008z"/><path fill="#010202" d="M18.325 59.764c-.271.225-.592.271-.975.296-.112.013-.079.046.017.058.404.046.862-.117 1.017-.296.037-.046.037-.142-.058-.058z"/><path fill="#52B15B" d="M16.504 60.273c.117 0 .521.117.65.167.096-.017.117-.038.104-.071-.017-.046-.033-.083.142-.083.179.013.596.013.667.013.062-.033.2-.154.262-.154l-.912.038c-.087-.013-.129 0-.183.033-.058.038-.079.05-.154.025-.062-.038-.183-.071-.25-.025l-.325.058zm1.562.021c.062-.033.2-.154.262-.154.112-.013.25.046.312.046.062.008.129 0 .079-.063-.037-.046 0-.142.183-.117.187.021.271.058.458.046.175-.025.254.121.592-.025-.021.146.033.154.096.129.067-.033.137-.021.242.063.112.092.758.092.912.071.15-.021.229.063.112.096-.112.046-.137.104-.112.142.021.038.054.083-.092.071-.142-.025-.175.021-.25.083-.071.058-.087.083-.283.033-.192-.033-.229 0-.333.017-.104.021-.133.021-.242-.017-.112-.046-.346-.079-.483-.033-.142.046-.246.096-.375.058s-.137-.025-.058-.108c.079-.096.104-.079.254-.096.142-.021.267-.067.158-.142-.112-.071-.142-.063-.287.021-.142.083-.217.117-.375.025s-.237-.083-.346-.046c-.104.046-.275-.029-.425-.1zm.538.295l-.471-.083c-.075 0-.196.108-.025.083l.5.071c.162-.013.087-.096-.004-.071zm-.246.163c.112-.046.337.033.425.013.096-.013.183.046.087.083l-.45-.025c-.096.038-.204-.008-.062-.071zm-2.129.625c.154.013.679-.013.892-.508h.096c.071.046.308.213.775.25.129.013.267.079.008.071-.254-.025-.671-.108-.808-.2-.233.4-.646.446-.962.446-.179-.013-.146-.058 0-.058zm1.15-.658c-.075.108-.312.296-.425.308-.112.013-.45-.033-.529-.063-.087-.033-.192-.021-.071.075.117.083.425.154.542.117.121-.025.258-.075.354-.017.087.075.262.192.367.167.104-.021.312-.021.375.017.075.038.187.138.008.067-.167-.058-.308 0-.392-.033.087.129.287.35.462.35.042 0 .062.071-.017.117.079.038.279.083.375-.025l.033.083c.046.025.096.058.017.071-.079.008-.254.033-.312.008.175.117.625.321 1.083.213.087-.013.133-.046-.008-.046-.296.008-.312 0-.367-.025-.046-.046-.042-.067.037-.092.092-.038.308-.075.392-.075.092 0 .175-.033-.004-.033-.175 0-.404 0-.487-.038-.096-.033-.158-.083-.062-.142l.229-.117c-.292 0-.646-.179-.454-.329l-.037-.046c-.079-.017-.296-.083-.392-.146-.096-.058-.033-.104.046-.113-.179.042-.529-.067-.762-.254zm2.616-.013c-.158.129-.467.192-.592.192-.129 0-.146.046-.037.058l.254.008.137.025c.062.033.208.05.333 0 .121-.033.329-.063.417-.046.079 0 .179 0 .008-.046-.171-.063-.45-.017-.512 0-.071.021-.254.008-.15-.025.096-.033.183-.092.229-.129l-.087-.038zm-.096.375c-.133.117-.333.225-.533.238.183.067.337.279.454.267l-.2.108c.112.033.308 0 .471-.108.262.096.617.038.729-.071-.171 0-.387-.071-.471-.154.079 0 .158-.063.2-.117-.196.042-.542-.067-.65-.163zm-.27.617l.2-.108c-.142.063-.783-.058-.975-.233-.192-.192-.192-.05-.054.079.129.133.362.329.829.263zm.47.446c-.083.05-.467.083-.587.05-.129-.021-.183-.013-.15.046.033.05.046.096-.058.083-.1-.013-.287.013-.358.033-.079.038-.167.108-.004.083.158-.038.304-.071.425-.038.117.038.542.05.633.017l-.017-.046v-.063c.058-.025.092-.104.117-.167zm-3.712-.563c-.158.083-.696.233-.842.246-.175.083-.317.129-.408.129.062.058.304.117.404.092-.046.058-.179.129-.225.154.142-.025.312.021.387.033-.183.117-.45.154-.579.133.042.071.104.142.187.142-.171.046-.375.046-.483 0 .046.104.087.167.154.175-.142.013-.321.046-.471-.046.121.167.375.225.758.167.387-.05.704-.225.796-.308-.162.013-.375.033-.483.013.208-.058.675-.271.754-.367-.087 0-.175-.021-.237-.079.125.025.558-.038.696-.096-.158-.033-.254-.142-.308-.213.571.2 1.187.129 1.492.046.075-.021.079-.117-.062-.104-.25.021-.725-.063-.854-.129.117.096.262.163.358.175-.233.071-.558.121-1.033-.163zm-1.071.625c.05-.025.179-.096.225-.154-.1.025-.337-.033-.404-.092.092 0 .233-.046.408-.129-.317-.013-.542-.013-.658-.083-.112-.063-.325-.046-.408-.025-.083.008-.058.163.279.117-.133.117-.521.154-.662.117.029.117.062.25.025.317.192.117.679.258.921.238-.217-.083-.329-.175-.154-.2.183-.025.279-.058.429-.104z"/><path fill="#010202" d="M14.766 62.84c.433-.033 1-.046 1.458-.471.112-.108.192-.071.079.046-.242.221-.842.542-1.408.563-.233.004-.337-.113-.129-.138z"/><path fill="#52B15B" d="M17.962 62.06c-.104.046-.4.108-.487.096-.096-.025-.225-.025-.296.021-.062.046-.071.083.025.083l.287.025-.154.142c.142-.033.408.038.483.083-.058.021-.129 0-.175-.033.237.283.95.283 1.071.221l-.162.108c.2.033.433.033.667-.121-.079.025-.308 0-.362-.013.037-.046.112-.092.167-.108-.083-.021-.367-.013-.429.025.025-.063.075-.129.129-.154-.35 0-.775 0-.937-.096.246.025.525-.129.637-.129-.196-.004-.412-.054-.462-.15zm-.892.225c-.179.033-.442.117-.512.154-.075.046-.142.071.008.071.158 0 .583.021.671.038-.233-.038-.55-.046-.617-.046-.062 0-.137-.017-.017-.046.117-.038.271-.121.467-.171zm-.35.446c.058 0 .337 0 .442-.092.104.083.317.225.454.225.142 0 .125.033.008.046-.121.017-.358-.067-.471-.15-.162.054-.3-.004-.433-.029zm-2.066 1.309c.271.117.642.213.908.117.15.142.462.154.633.117.167-.046.321-.071.508 0s.567.071.675.175l-.354.013c-.046.013-.021.046.067.096-.308-.013-.825.129-.987.279.058-.15.237-.35.521-.35-.158-.071-.675-.071-.842.033l-.112-.192c-.275.171-.808-.058-1.017-.288zm-.713-.542c.329-.046.562-.167.658-.271.054.058.296.121.558.025-.054.046-.062.129-.037.179-.179 0-.496.092-.608.163-.112.058-.437.096-.546.033-.117-.058-.117-.117-.025-.129zm1.18-.067c-.179 0-.496.092-.608.163l.033.175c.321-.129 1.058-.213 1.346-.154l-.537.175c.354-.033.687.05.779.075.087.025.1.092.037.167-.071.071-.096.079.046.079.137 0 .433-.008.567-.154-.054-.067-.192-.05-.229-.083.096-.033.196-.104.237-.167l-.408-.021c-.079-.025-.142-.05-.042-.108l.171-.142c-.171.05-.442.096-.662-.108.079.025.279.017.35-.021-.079-.046-.133-.071-.2-.071.183-.104.546-.188.992.013.217-.025.454-.013.625.033.075-.079.225-.258.304-.304-.525.046-1.467-.075-1.45-.367-.167.25-.558.375-.729.346-.021.083.046.188.112.246-.175.05-.479.071-.621.05.079.079.229.163.317.154l-.429.025zm1.095.679c.137 0 .433-.008.567-.154-.054-.067-.192-.05-.229-.083.096-.033.196-.104.237-.167.375-.033.7-.013.867-.058.167-.058.575-.025.654-.058-.358.071-.429.096-.446.167-.017.067.117.117.2.117-.162-.008-.358.179-.375.25-.217-.142-.321.025-.346.083-.087-.046-.375-.038-.529.108-.196-.063-.329-.096-.521-.063.117-.038.092-.117-.079-.142zm1.7-1.129l.483-.013-.158.129c.296-.038.712-.075.842-.046-.154-.025-.304.083-.375.129-.079.058-.033.083.075.104.096.017.237.108.046.075-.187-.025-.55-.025-.642-.013-.087.013-.133-.038-.004-.063.129-.021.212-.058.271-.104-.108.033-.304.033-.367.008-.067-.008-.104-.058-.033-.083.071-.008.021-.046-.058-.033-.075.013-.267.108-.375.213l.296-.304z"/><path fill="#010202" d="M16.57 63.194c.142.175.321.283.592.296.058 0 .167.079.029.092-.375.013-.558-.083-.729-.354-.029-.046.025-.129.108-.033zm2.221-3.409c.2.108.6.188.904.179.046 0 .158.058.025.067-.346.038-.658-.021-.946-.188-.079-.058-.054-.088.017-.058z"/><path fill="#52B15B" d="M19.004 59.785c.296-.013.525-.013.617.096.175-.071.487-.096.562-.083.071.013.15-.025-.017-.063-.162-.046-.546-.067-.667-.038-.117.025-.496.038-.621.025l.125.063zm1.162.129c.146-.083.562-.013.679-.058-.083.108.283.117.608.025-.121.092-.392.104-.512.163-.112.05-.175.013-.254-.033-.092-.046-.317-.125-.521-.096zm1.287-.029c-.329.092-.696.083-.608-.025-.117.046-.533-.025-.679.058.154-.104.267-.021.367-.221.075.025.229.025.275-.046.096.025.262.071.312.117.046.05.125-.008.054-.092.154-.063.058.067.4-.025.075-.025.25-.058.304-.058-.112.088-.246.208-.425.292z"/><path fill="#F3E600" d="M15.133 58.256c-.008-.742-.075-6.905-.075-8.33 0-.342-.158-.283-.158 0v8.284l.233.046zm2.483-8.78l.271 8.792-.046.071h-.158l-.175-8.863h.108zm2.346 7.426c-.025-.896-.125-5.046-.171-7.092-.008-.263-.15-.225-.15.013.017 1.65.1 6.254.117 7.084l.204-.004z"/><path fill="#fff" d="M16.25 50.926l-2.367-.033c-.137.533.462.521.692.375.254.213.446.2.592.025.208.188.467.142.579.021.271.238.567 0 .504-.388zm.175 1.309l-2.421-.008c-.408.45.125.663.592.35.062.154.346.238.567.117.208.175.467.046.6-.092.242.129.542.167.662-.367zm-.075 1.662l-2.329-.025c-.046.463.425.404.617.283.175.304.567.233.721.058.221.167.425.129.542-.021.262.233.475-.071.45-.296zm.12 1.651l-2.608-.046c-.142.492.254.575.442.458.062.283.412.188.504-.021.129.154.304.071.383-.025.033.263.337.271.567.046.471.363.925-.063.712-.413zm2.317-.671l-2.167-.025c.096.488.308.613.654.329.254.296.687.192.796.038.467.421.721-.075.717-.342zm-.225-1.63l-2.096-.071c.033.575.542.563.8.304.192.267.542.2.662 0 .267.3.704.121.633-.233zm.279-1.837h-2.267c.029.408.529.646.912.246.104.475.512.329.696.146.258.363.85-.05.658-.392zm-.142-1.25l-2.017.038c-.037.354.437.504.617.225.104.175.437.163.537-.013.158.271.358.083.425 0 .221.188.479.092.437-.25zm2.375.812l-2.471-.021c-.012.271.254.388.412.271 0 .283.35.367.567.154.154.233.6.296.775-.025.371.329.767.092.717-.379zm-.033 2.221l-2.421-.013c.017.371.404.508.633.304.054.317.35.329.533.175.217.258.567.283.767-.013.283.117.512-.154.487-.454zm-.129 2l-1.912-.038c0 .379.4.425.575.238.183.238.471.238.633.046.267.238.646.175.704-.246z"/><path fill="#010202" d="M17.841 58.339c-1.033.025-2.079.025-2.791-.092-.712-.117-.937-.225-1.425-.554l-1.946-1.25c-.158-.108-.329.025-.1.175 1.037.754 1.433 1.038 1.937 1.388.508.367.846.696 1.158 1.083.408.517.712.517.908.446.183-.079.471-.188.767-.104.296.075.687.083.896.038.187.188.608.15.858.092.237-.058.417-.092.583-.046.167.038.425.013.6-.025.167-.021.604-.067.917-.021.312.046.633.013.842-.046.208-.071.579-.063.704-.013.175-.154.267-.329.304-.529.217-.025.283-.063.329-.192.092-.246.171-.483.192-.588h.087l.025-.225-.171-.213.054-.421.196-.046c.008-.129-.046-.321-.079-.404-1.121.046-2.225.096-3.016.117-.092.075-.187.275-.2.404l-.892.15c-.121.038-.196.046-.292.192l-.446.683zm3.608-1.5c.058-.196.2-.75.467-1.813.037-.167-.112-.233-.171-.008l-.471 1.838.175-.017z"/><path fill="#fff" d="M23.183 54.793c-.375.213-.562.296-.737.225-.158-.075-.392-.104-.529-.038l-.008.046-.358 1.417c.279.104.758.129.871 0 .121-.142.442-.121.6-.108.096-.142.137-.317.112-.413-.033-.083-.021-.246.025-.367.042-.117.096-.517.025-.763z"/><path d="M14.566 51.268c-.425 1.333-1.875 4.3-2.75 5.254m.671.438c1-.838 3.508-3.567 3.933-4.725m-2.395 1.637c-.121 1.004-.383 2.792-.525 3.746m.912-1.508c-.346.367-.825.992-1.179 1.333m4.367-3.333c-.287.304-.608.658-.896.742m1.054-.696c.254.296.608.625.908.704m-1.096-2.321c-.267.238-.642.529-.992.638m1.134-.575c.225.2.467.508.746.638m-1.825-1.83c.279-.083.687-.321.904-.567m.121-.046c.237.304.7.542.933.613m-1.904-1.213c.279-.071.633-.238.825-.533m.104-.079c.237.225.662.554.933.592m1.1.279c-.154.175-.525.496-.775.496m.934-.505c.112.196.392.492.554.517m-1.646 2.217c.308-.108.75-.392.967-.671m.171.008c.092.188.433.592.633.671m-1.396 1.979c.133-.033.529-.25.633-.496m.175-.137c.15.196.512.563.737.658m-6.453.317c.442-.154 1.321-.746 1.75-1.296m-.833.709c.358.283.792.563 1.108.625m-2.108-1.676c.237-.108.55-.296.8-.579m.191-.033c.096.142.825.625 1.125.638m-1.312-2.192c-.183.163-.642.454-.854.517m1.021-.517c.254.196.742.529 1.079.529m-1.246-2.063c-.2.258-.533.638-.817.733m.979-.67c.158.271.579.646.85.692m2.754.954c.625 1.263 1.783 2.792 2.954 3.604m-4.824-5.004c.946 1.496 2.8 4.754 4.579 5.963m.324-1.276c-.292.433-.8 1.117-1.65 1.733m1.55-1.32c-.6-1.038-.904-2.354-1.354-4.1m-4.841 4.642l.737 2.217m-.874-2.276l.646 2.267m-.788-2.358l.608 2.342m-.666-2.309l.462 2.296m-.012-.079h.579m-.08-.25h-.55m.496-.188h-.533m.471-.187h-.512m.441-.2h-.483m-.034-.18h.454m-.487-.166h.442m-.475-.175h.408m-.442-.167h.383m-.412-.162h.367m-.4-.155h.346m-.388-.141h.346m-.362-.117h.317m-.884 0l-.417 1.85m.538-1.883l-.358 1.954m.454-2.029l-.292 2.088m.4-2.122l-.2 2.171m.25-.121h-.658m.658-.2h-.758m.758-.212h-.721m.721-.188h-.671m.671-.2h-.633m.633-.22h-.579m.579-.192h-.533m.533-.188h-.487m.487-.2h-.45m.45-.158h-.417m.417-.137h-.383m.383 2.062v-2.204m2.216-.729l-1.383 3.038m1.471-3.088l-1.175 3.1m1.254-3.121l-.929 3.133m.992-3.087l-.729 3.088m.037-.142h-.862m.929-.271h-.812m.849-.225h-.742m.821-.246h-.712m.746-.188h-.658m.72-.225h-.617m.671-.27h-.554m.6-.2h-.512m.57-.225h-.462m.5-.155h-.433m.466-.154h-.392m.426-.141h-.358m.387-.125h-.337m.37-.134h-.304m.342-.137h-.275m.295-.121h-.242m1.147-.046l.6 2.083m-.488-2.045l.733 2.013m-.629-2.005l.858 1.967m.209-.175l-.946-1.825m.946 1.825h-.754m.625-.25h-.696m.566-.242h-.642m.517-.25h-.587m.454-.25h-.525m.4-.258h-.471m.338-.246h-.408m.279-.25h-.346m1.125.058l-.592 1.942m.763-2.025l-.546 1.996m.254-.05l.4-1.871m.108.071l-.337 1.779m-.579-.121h.592m-.517-.233h.567m-.488-.25h.537m-.462-.234h.504m-.433-.25h.479m-.409-.233h.458m-.378-.246h.425m-.35-.237h.346m.316.037l.287 1.333m-.179-1.391l.404 1.388m-.27-1.405l.442 1.392m-.263-1.309l.433 1.296m-.041-.104h-.562m.499-.2h-.529m.467-.192h-.517m.454-.195h-.5m.433-.192h-.467m.392-.2h-.442m.38-.188h-.417" fill="none"/><path fill="#3AAA35" d="M14.8 59.031c.275-.196.746-.158.983.038.287-.179.8-.129 1.046.108.358-.271.675-.304 1.033-.046.271-.213.696-.238 1.029.008.321-.154.671-.296.987.075-.187-.154-.583-.283-.987.058-.308-.342-.854-.213-1.029.025-.233-.308-.729-.358-1.017.021-.317-.296-.808-.304-1.062-.083-.2-.179-.5-.317-.983-.204z"/><path fill="#CF6315" d="M19.666 58.606c-1.417.275-4.504.083-5.175-.104-.233-.063-.167-.154.021-.108.783.192 2.45.192 3.362.142.187-.258.467-.696.546-.817.087-.129.117-.129.296-.158.321-.063.504-.1.775-.142l.008.117-.062.058c0 .2.033.688.062.863l.104-.025c.062-.021.125.154.062.175zm2.317.075h.183c.058 0 .137-.046.175-.142l.183-.613-.142-.238.079-.504.187-.075c.004-.046-.008-.167-.05-.2-.608.025-2.433.083-2.766.096-.079 0-.121-.013-.154.129-.158.683.062 1.654.712 2.217.042.038.096.013.025-.071-.104-.104-.271-.325-.383-.542l.454-.008c.033.163.154.504.171.567.025.058.079.067.058-.025-.062-.2-.096-.438-.121-.542l.462-.013.033.508c0 .058.058.071.058-.008v-.496l.417-.025-.033.508c-.008.071.025.117.046.017l.058-.521.287-.008c-.008.108-.096.425-.117.508-.033.083.017.083.046.008.029-.096.117-.413.129-.529z"/><path fill="#010202" d="M19.962 58.606c-.046-.117-.2-.492-.217-.763l.617-.021c.025.213.079.671.112.767l-.512.017zm.5-.783l.104.775.487-.013-.021-.779-.571.017zm-.683-.675c-.033.142-.033.438-.033.563l.6-.013-.046-.579c-.133.017-.446.029-.521.029zm.629-.025l.042.579.575-.025-.021-.563-.596.008zm.7-.021c.012.129.025.483.017.575.142 0 .412 0 .504-.013.012-.129.025-.496.017-.579l-.537.017zm.65-.025l-.025.588.546-.025c.021-.117.071-.446.079-.592-.129.017-.504.029-.6.029zm.537.696l-.567.013-.054.775.55-.021c.05-.117.167-.483.192-.592l-.121-.175zm-1.158.033c0 .083.008.708.017.767l.417-.013.054-.775-.487.021zm-2.358-.15l-.242.046c-.104.188-.496.767-.542.838.271 0 .704-.013.808-.025-.012-.15-.025-.775-.025-.858zm.095-.025l.029.875.487-.038c-.017-.25-.062-.85-.075-.921l-.442.083zm-2.387-2.108v.038l-2.633-.038v-.033l2.633.033zm2.067-2.296v.033l-2.087-.067.008-.025 2.079.058zm-2.204.658v.025l-2.337-.013v-.033l2.337.021zm.075-1.658v.033l-2.437-.013v-.033l2.437.013zm-.167-1.309v.033l-2.379-.046v-.025l2.379.038z"/><path fill="#fff" d="M18.716 50.151v.033l-2.042.021v-.033l2.042-.021z"/><path fill="#010202" d="M18.833 51.397v.025h-2.246v-.025h2.246zm2.208 1.784v.021h-2.421v-.021h2.421zm.033-2.23v.033l-2.471-.025v-.038l2.471.029zm-2.287 3.901v.025l-2.175-.013v-.033l2.175.021zm2.125.316v.038l-1.912-.025v-.038l1.912.025z"/><path fill="#E51C33" d="M22.637 55.568c.058-.129.062-.425.033-.542-.079.025-.154.013-.225-.008l-.112-.038c-.008.142-.062.533-.129.683-.104.025-.312-.013-.442-.046l-.092.354c.154.038.333.021.5-.013-.017.225-.042.438-.154.575.175 0 .346-.021.4-.092l.025-.025c.079-.15.079-.354.104-.483.062 0 .146-.025.183-.058.033-.038.087-.063.142-.05.058 0 .137-.008.237-.058l.042-.213.033-.167c-.117.075-.417.192-.546.179z"/><path fill="#010202" d="M14.146 42.88c-.275.013-.867.025-.983.096-.129.071-.175.104.042.154.212.046.583.154.783.296.196.129.367.379.308.717-.167 1.025.329 2.017 1.042 2.379.062.038.079.071.075.213-.017.129-.062.367-.108.425-.037.058-.054.167.067.117-.087.175-.271.521-.337.6-.567-.071-1.029.013-1.071.671-.008.058.017.167.104 0s.192-.317.429-.354c-.142.238-.183.458-.171.588.025.142.062.225.121.05.062-.179.187-.342.304-.438.046-.046.075-.046.042.058-.033.104.017.354.087.425.062.083.104.046.079-.083-.017-.129.008-.4.162-.496.212-.117.392-.058.479.108.087.163.158.013.062-.179-.087-.175-.183-.304-.346-.317l.337-.65c.033-.058.087-.083.133-.046.042.038.075.025.121-.071.046-.104.129-.425.237-.554l.183-.071.329.567c.029.058.071.083.037.2l-.175.6c-.425.025-.617.025-.754.283-.054.121.033.167.137.104.096-.058.237-.117.312-.104.079.013.112.058.037.096-.254.142-.425.317-.408.567 0 .092.033.129.104.013.079-.167.237-.342.442-.388-.008.213.029.517.154.575.112.071.117 0 .079-.117-.075-.2 0-.392.087-.496.183-.225.592.083.671.154.079.083.142.121.1-.079-.054-.263-.4-.413-.687-.458.079-.425.296-1.296.417-1.592.171.108.304-.167.583-.046.487.2 1.2.683 1.329.8.117.104.167.083.229.021.062-.058.167 0 .25.013.087.013.167.046.058-.188-.104-.246-.371-.663-.812-.979.267.025.625.025.625-.058 0-.071-.417-.213-.583-.238.158-.033.408-.142.529-.283.062-.083-.017-.104-.254-.121-.754-.013-1.112 0-1.504-.246-.617-.392-.979-.8-1.283-.979-.158-.092-.262-.304-.321-.492-.2-.588-.192-.863-.662-1.05-.458-.2-1.004.038-1.25.283z"/><path fill="#fff" d="M14.175 43.022c-.121 0-.358-.038-.55-.013l.008.033c.104.013.392.096.496.129.104.05.054.108-.033.083-.092-.025-.121.013-.046.058.383.296.421.413.321 1.413l.192.129c.062.038.046.083-.017.058-.075-.021-.137.025-.021.046.104.025.15.083.054.071-.104 0-.233.092-.033.071.208-.025.283.083.046.083s-.142.092-.017.092c.217 0 .154.058.096.058-.062 0-.087.083.062.071l.25-.013c.058.013.079.058 0 .071-.079 0-.079.071.042.071.129 0 .175.033.062.058-.042.013-.104.033.021.046.221.033.233.092.158.104-.071.013-.079.058.025.058.104.013.192.046.104.071-.079.025-.129.083-.017.096.104 0 .196.05.112.083-.083.025-.1.083.004.071.096 0 .137.058.075.104-.075.046-.129.071-.171 0-.046-.083-.075-.104-.092-.05-.004.058-.037.013-.079-.071-.029-.083-.096-.104-.079-.046.025.071-.062.083-.133.046.279.308.696.6 1.35.308.058-.025.071 0 .112.092l.217.413c.042.083.079.013.104-.071l.183-.646c.025-.083.146-.179.104.129.096-.071.537-.142.871 0 .371.154.737.379.929.542.042.025.079.058.171.05.096-.013.112-.025-.058-.188-.167-.179-.096-.258.008-.179.112.083.171.038.087-.071-.083-.096-.275-.296-.337-.342-.062-.058-.071-.071-.217-.083l-.525-.013c-.096 0-.121.013.079.096.192.071.592.354.679.425.087.071.154.225-.037.083-.2-.129-.817-.554-1.225-.708-.937.071-1.671.2-2.225-.458-.267-.317-.279-1.038.167-1.342-.087-.083-.071-.129-.037-.154l.017-.079c-.042-.05-.033-.096 0-.121-.104-.058-.142-.117-.142-.2-.112-.021-.171-.175-.329-.129-.158.05-.237.013-.287-.033-.046-.05-.092-.058-.175-.058-.1.013-.171-.025-.171-.071-.008-.046.071-.071.2-.025.246.133.446.188.604-.046.154-.221-.046-.438-.346-.508-.283-.05-.504.188-.612.304zm1.5-.083c-.092-.108-.25-.213-.337-.233-.079-.038-.083.058-.037.104-.042.046-.046.2.017.233.054.038.062.096 0 .129-.092.05-.058.308.079.225.037-.025.079-.013.071.038-.017.033.008.083.05.096l.021.096.046.033c.05.013.05.129-.033.167.104 0 .129-.025.154.071.033.083.133.104.133.213 0 .104-.017.129-.133.104-.112-.025-.158.025-.192.071-.042.046-.05.092.037.092.092.013.112.058.025.096-.1.046-.242.025-.267.104-.025.092 0 .142.071.104l.258-.129c.054-.038.104-.038.142.033.046.083.008.167-.062.104-.079-.071-.112-.013-.158.025-.042.046-.117.071-.179.071-.071 0-.129.013-.112.175.025.529.404.921 1.083.908.687 0 1.025-.013 1.125 0-.221-.129-.367-.213-.446-.2-.079.013-.142.025-.112-.046.037-.071 0-.071-.042-.096-.033-.025-.079-.071-.15.013-.075.083-.242.175-.329.2-.079.025-.187.013-.104-.071.079-.096.258-.121.312-.167l.058-.083c0-.038-.017-.117.087-.058.208.129.529.317.608.317.087-.013.146-.046.062-.092-.075-.058-.096-.142-.075-.167.025-.038.033-.058.171.021.137.083.35.188.429.225.079.046.196.038.025-.104-.171-.129-.679-.496-.817-.613-.146-.121-.079.021-.071.071.017.038-.1.096-.154.038-.058-.046-.096-.104-.017-.154s.096-.058-.025-.179c-.117-.117-.158-.104-.129-.013.025.104.033.213-.087.154-.125-.046-.196-.117-.112-.167.079-.058.183-.083.046-.213-.129-.117-.087 0-.121.071-.033.071-.137.071-.192.013-.062-.046-.092-.104-.046-.142l.096-.038c.054.038.142.013.037-.096-.112-.092-.15-.058-.125 0 .025.058-.062.167-.192.025-.062-.058-.062-.142 0-.167.075-.013.075-.046.025-.117-.254-.425-.146-.779-.412-1.096z"/><path fill="#CF6315" d="M15.708 42.997l-.071.058c-.058.046-.062.154.021.142l.121-.079-.071-.121zm-.275-.246c-.062.071-.079.104-.037.104l-.008.058c-.033.046.062.083.096.038h.067c.004.046.071 0 .104-.038-.058-.071-.15-.129-.221-.163zm-.121.421c-.092.05-.058.308.079.225.037-.025.079-.013.071.038l.008.058.142-.117c.087-.104.008-.096-.117-.096-.121 0-.162-.033-.042-.108.104-.071.042-.117-.112-.092l-.029.092zm.508.567c-.062-.071-.021-.104.046-.154l.042-.038-.058-.25-.096.142c-.017.071-.037.104-.096.096-.046-.025-.1.046-.117.117h.037l.033.083c.158-.013.183.117.217.2.033.092.062.083.087.021.025-.038-.033-.133-.096-.217z"/><path fill="#F3E600" d="M15.87 44.764l-.117.071c-.096.013-.221.025-.275.083-.033.038-.192.046-.192.117 0 .083 0 .154.075.154.071 0 .079.013.046.071-.025.058-.042.167.087.167.117.013.208-.038.237.046l.021.246c.025.046.112.083.237.121.092.033.417.046.517.033.104-.013.062-.083-.033-.083-.104-.008-.175-.021-.2-.104-.021-.079-.05-.129.008-.2.054-.058.112-.121.079-.225-.033-.117-.087-.246-.2-.296l-.2-.225-.092.025z"/><path fill="#CF6315" d="M15.291 45.814c.104.013.192.046.104.071-.079.025-.129.083-.017.096.104 0 .196.05.112.083-.083.025-.1.083.004.071.096 0 .137.058.075.104-.075.046-.129.071-.171 0-.046-.083-.075-.104-.092-.05-.004.058-.037.013-.079-.071-.029-.083-.096-.104-.079-.046.025.071-.062.083-.133.046.071.083.158.167.254.233.112-.046.233-.013.271 0 .042 0 .187.038.254.071.079.046.125-.025.096-.117-.033-.083-.037-.058-.079-.013-.037.058-.046-.013-.037-.117 0-.083-.046-.058-.075-.013-.017.058-.054-.033-.033-.083.025-.058-.008-.071-.046-.058l-.05-.096c0-.104-.037-.083-.054-.046l-.104-.096c-.046-.071-.096-.021-.192.013l.071.017z"/><path fill="#F3E600" d="M16.375 46.426c-.479.213-.829.117-1.104-.071.112-.046.242-.013.279 0 .042 0 .187.038.254.071.079.046.125-.025.096-.117.062.096.112.154.196.154l.279-.038zm-1.042-2.45c-.033-.117-.054-.142-.112-.129l-.133-.033c-.062-.025-.137 0-.154.117-.008.121-.075.179-.158.25-.092.071-.142.129-.142.25 0 .117-.025.154-.092.233l-.096.129.112.071c.062.038.046.083-.017.058-.075-.021-.137.025-.021.046.104.025.15.083.054.071-.104 0-.233.092-.033.071.208-.025.283.083.046.083s-.142.092-.017.092c.217 0 .154.058.096.058-.062 0-.087.083.062.071l.046-.096c.025-.071.046-.304.129-.363.092-.071.129-.154.129-.225 0-.058.125-.354.208-.425.087-.071.121-.225.092-.329z"/><path fill="#CF6315" d="M15.166 43.976c-.087-.058-.167-.025-.167.096 0 .117-.058.154-.129.188-.062.033-.137.129-.142.225-.008.096.008.154-.046.225-.058.071-.062.129-.025.167l.062.104c.017.058.112-.013.112-.071l.087-.104c.062-.038.175-.225.154-.283-.025-.046-.087-.092-.008-.167.079-.071.158-.071.158-.142l.046-.129-.104-.108z"/><path fill="#010202" d="M15.166 43.88c-.058-.025-.096.104-.017.117.079.025.087-.079.017-.117zm-.012.167c-.062.013-.129.092-.033.083.096-.025.133-.096.033-.083zm-.121.167c-.062.033-.046.117.042.058.087-.071.112-.142-.042-.058zm-.096.129c-.058.033-.046.117.037.058.092-.058.117-.142-.037-.058zm-.121.054c-.062.038-.021.129.062.058.092-.058.092-.138-.062-.058zm.067.083c-.058.038-.025.133.071.058.096-.058.083-.142-.071-.058zm-.1.038c-.054.038-.021.129.062.058.092-.058.092-.142-.062-.058zm.067.096c-.054.033-.017.117.071.058.083-.058.079-.142-.071-.058zm-.096.054c-.062.038-.021.121.062.058.087-.058.079-.138-.062-.058zm.004.083c-.062.038-.025.129.062.058.092-.058.083-.142-.062-.058z"/><path fill="#CF6315" d="M14.712 45.576c-.062 0-.104.104-.025.117.075.025.096.038.096.092 0 .058.025.154.104.167.079 0 .154-.108.079-.129-.075-.038-.137-.058-.142-.129-.004-.067-.067-.125-.112-.117z"/><path fill="#F3E600" d="M16.895 45.014l.042.046c.054.058.171 0 .154-.038-.012-.046-.075-.188.071-.071.137.117.646.483.817.613.171.142.054.154-.025.104l-.429-.225c-.137-.083-.142-.058-.171-.021-.017.021-.008.083.046.129-.079.013-.208 0-.246-.092-.042-.121-.154-.25-.225-.354l-.033-.092z"/><path fill="#52B15B" d="M21.316 60.981c-.112.083-.267.221-.158.433l.033-.025c.437-.575.808-1.179 1.125-1.817l.012-.058c-.129.117-.325.238-.404.258.046.167-.192.367-.329.425.058.096.042.238-.079.275.025.083-.062.083-.167.142-.112.046-.167.083-.2.142.058-.038.142-.058.183-.046.037.013.054.083-.025.108-.079.021-.133.067-.158.104.108-.05.279-.025.167.058z"/><path fill="#010202" d="M16.033 44.835c-.129-.117-.171-.046-.117.038.058.071.017.117-.104.129l-.358.046c-.071 0-.158.104.017.096.171 0 .454-.071.525-.104.071-.038.137-.096.037-.204zm.254.225c-.112-.104-.142-.083-.121 0 .025.083-.021.092-.096.117-.062.025-.35.133-.471.142-.121.013-.142.108.033.108.183-.013.521-.167.562-.2l.1-.058c.037.033.079-.025-.008-.108zm.083.304c-.079.058-.279.154-.358.179-.075.021-.142.117.025.104.167-.013.367-.188.421-.225l.129-.046c.046 0 .117-.058-.025-.154-.142-.083-.237-.05-.171.025.075.071.021.096-.021.117zm-1.391-2.45c-.217-.154-.462.175-.225.354.217.167.437-.2.225-.354z"/><path fill="#fff" d="M14.712 43.055l.062.008c-.017.071.046.179.15.154-.075.075-.237-.008-.212-.163zm.838 3.559l.375.046-.096.213c-.025.058-.042.071-.042-.038 0-.096-.054-.154-.104-.058l-.087.188c-.021.05-.054.058-.05-.046.017-.104.017-.221.004-.304z"/><path d="M24.153 49.476c-.017 6.117-.904 12.713-8.145 15.851-7.241-3.138-8.133-9.734-8.145-15.851h16.291zm0 0c.008-2.308-.112-4.546-.058-6.517-2.712-1.317-6.275-1.596-8.087-1.596s-5.375.275-8.087 1.596c.054 1.967-.062 4.209-.058 6.517h16.291z" fill="none"/></svg>