<svg xmlns="http://www.w3.org/2000/svg" width="64" height="48"><path fill="#134395" d="M0 0h20.417v48h-20.417z"/><path fill="#E50040" d="M43.806 0h20.194v48h-20.194z"/><path fill="#FFE000" d="M20.027 0h23.944v48h-23.944z"/><path fill="#E48F00" stroke="#000" stroke-width=".125" stroke-linecap="round" stroke-linejoin="round" d="M32 13.082c.873 0 3.231-1.683 3.449.081.076.619-.909 1.769-.333 2.193.588.432 1.734.086 2.21-.363-.449-.111-.435-.619-.1-.857.226-.161.354-.146.572-.324.171-.141.42-.165.609-.044.187.119.902.227 1.112.149.412-.154.889.158.889.604.23-.1.479.161.509.366.176-.071.369-.025.476.137.27.409-.098.938-.35 1.25-.343.425-1.678 1.437-1.208 2.088.258-.539 1.021-.385.782.249 2.73-1.124 3.535 3.946.665 4.208 1.343.178.132 1.748-.196.928-.497.448-.612 1.129-.344 1.733.115.26.291.493.501.685.162-.189.517-.303.668-.029.154.277.537.603.599.96.093.532-.479.771-.915.742 1.709 1.713.076 4.019-1.779 4.664-1.689.587-4.268-.086-5.646 1.204 1.054.077.946 1.464-.085 1.477-.234.395-.927.431-1.289.224-.402-.231-.437.533-.797.533-.227 0-.437-.596-.665-.64-.29.335-.984.282-1.3.021-.313-.259-.818-.192-.954-.701-.132-.495.28-.88.749-.914-1.314-1.229-3.755-.647-5.374-1.118-1.945-.564-3.873-2.924-2.051-4.75-.436.029-1.008-.21-.916-.742.062-.357.445-.683.599-.96.092-.165.307-.201.468-.128.376.171.522-.124.702-.527.269-.604.152-1.285-.344-1.733-.328.819-1.539-.75-.195-.928-2.871-.262-2.067-5.332.664-4.208-.24-.633.525-.788.782-.249.47-.652-.865-1.664-1.208-2.088-.252-.313-.619-.842-.35-1.25.107-.162.299-.208.476-.137.031-.205.278-.465.509-.366 0-.445.477-.757.889-.604.209.078.925-.03 1.112-.149.189-.12.438-.096.609.044.218.179.346.163.572.324.335.239.35.746-.1.857.476.449 1.622.794 2.21.363.577-.424-.409-1.574-.333-2.193.219-1.765 2.577-.082 3.45-.082z"/><path d="M26.674 14.993c-.254.062-.632-.304-.306-.591m-.007-.389c-.507-.016-.646.621-.474.991.312.665 1.122.903 1.791.973.686.072 1.539.06 2.144-.321.238-.149.679-.469.993-.363.222.074.212.431-.067.337m-5.306-1.712c-.209.32-.346 1.104.29 1.604m-1.072-1.499c-.189.206-.189 1.019.378 1.411m-1.447-.914c-.053.458.3.993.612 1.15m-1.121-.785c-.265 1.143 1.35 1.804 1.678 2.778.334.994-.915 2.149-1.378.947m.782-.249c-.104.121-.251.16-.378.121m-.482 1.095c.365-.326-.222-.627-.495-.627-.579 0-1.081.346-1.313.872-.478 1.084.218 2.693 1.547 2.604m-1.068-2.418c-.691.719.286 2.483 1.303 1.96m-.015-2.879c-.544-.336-.746.604-.311.893.623.414 1.106-.389.85-.932m16.894.527c-.365-.326.222-.627.495-.627.579 0 1.081.346 1.313.872.478 1.084-.218 2.693-1.548 2.604m-.219-3.337c.544-.336.746.604.311.893-.622.414-1.106-.39-.85-.932m-15.356-.244c0 .549-.293 1.843-1.555 1.627m1.555-.441c0 .843-1.818 1.853-2.396.48m2.071.19c.492.443.219 1.314-.329 1.575.804.043.905 1.531.088 1.548m-1.558-.967c.613.154 1.307-.417.966-1.062-.251-.474-1.028-.253-.809.307m-.327 1.369c.914-.831 1.326 1.719 1.304 2.091-.041.696-.894 2.333-1.864 1.815.666.086.389-1.006-.222-.64m.293-.424c.561-.104.679.581.346.777m.352-.888c.091.102.071.538-.177.602m.772-.687c-.055.274-.499.618-.771.687m1.492-3.581c-.258.389.553 1.027.674 1.407.233.732-.005 1.526-.479 2.108m-1.864 1.137c2.41-.037 2.531-5.269.209-5.005m.939 4.404c.352.025.749.251.841.538m.214.776c-1.039-1.069-2.364.541-2.19 1.616.178 1.097 1.165 1.724 2.151 2.032 1.687.528 3.566.088 5.188.803.467.206.99.562 1.077 1.106.073.455-.385 1.169-.92 1.074m-.084-1.476c.958.821-.398 1.112-.264.538m1.77 1.056c.567-.496.411-1.712-.958-2.369m1.258 1.833c1.23-.994-.637-2.05-1.455-2.327-.79-.267-1.627-.409-2.46-.432-.821-.023-1.625.137-2.444-.006-1.052-.184-2.276-.84-2.316-2.046-.018-.549.229-1.148.825-1.249.354-.06 1.079.368.536.688m-.349-.695c-.952.585 1.101 1.805 1.103.235.001-1.358-1.394-1.438-2.266-.755m14.517-13.182c.254.062.632-.304.307-.591m-4.003.052c.564-.377-.178-.435-.442-.341-.372.132-.795.17-1.188.17s-.816-.038-1.187-.17c-.265-.094-1.007-.037-.443.341m3.207.967c-.024.612-.878.855-1.051.198-.313-1.192 1.373-.782 1.859-.46-.393-.744.998-1.449.369-2.141-.39-.43-2.168.547-2.755.546-.434 0-.876-.123-1.284-.259-.366-.123-.906-.539-1.302-.401-.959.335.515 1.658.2 2.255.525-.348 1.822-.751 1.876.293.037.733-1.037.722-1.067-.032m7.217-1.407c.507-.016.647.621.474.991-.311.665-1.122.903-1.791.973-.686.072-1.539.06-2.144-.321-.238-.149-.68-.469-.993-.363-.222.074-.212.431.067.337m5.306-1.712c.209.32.346 1.104-.29 1.604m1.072-1.499c.189.206.189 1.019-.378 1.411m1.447-.914c.053.458-.3.993-.612 1.15m1.121-.785c.265 1.143-1.35 1.804-1.678 2.778-.335.994.915 2.149 1.378.947m-.782-.249c.104.121.251.16.378.121m1.812 1.526c.69.719-.287 2.483-1.304 1.96m-1.564-3.162c0 .549.293 1.843 1.555 1.627m-1.555-.441c0 .843 1.818 1.853 2.396.48m-2.071.19c-.492.443-.219 1.314.33 1.575-.804.043-.907 1.531-.089 1.548m1.559-.967c-.613.154-1.309-.417-.967-1.062.251-.474 1.027-.253.809.307m.327 1.369c-.913-.831-1.325 1.719-1.304 2.091.041.697.895 2.333 1.865 1.815-.666.086-.389-1.005.221-.64m-.293-.424c-.561-.104-.678.581-.346.777m-.351-.888c-.092.102-.072.538.176.602m-.772-.687c.055.274.499.618.771.687m-1.492-3.581c.258.389-.553 1.027-.674 1.407-.232.732.005 1.526.479 2.108m1.864 1.137c-2.41-.037-2.53-5.269-.209-5.005m-.939 4.404c-.352.025-.749.251-.841.538m-.214.776c1.038-1.068 2.366.541 2.191 1.616-.179 1.097-1.166 1.724-2.152 2.032-1.687.528-3.566.088-5.189.803-.467.206-.99.562-1.076 1.106-.072.455.385 1.169.92 1.074m.084-1.476c-.957.821.398 1.112.264.538m-1.77 1.056c-.567-.496-.411-1.712.958-2.369m-1.258 1.833c-1.23-.994.637-2.05 1.455-2.327.79-.267 1.627-.409 2.46-.432.821-.023 1.625.137 2.444-.006 1.051-.184 2.275-.84 2.315-2.046.019-.549-.229-1.148-.824-1.249-.354-.06-1.078.368-.536.688m.349-.695c.952.585-1.101 1.805-1.103.235-.001-1.358 1.395-1.438 2.266-.755" stroke="#000" stroke-width=".125" stroke-linecap="round" stroke-linejoin="round" fill="none"/><path fill="#E48F00" stroke="#000" stroke-width=".125" stroke-linecap="round" stroke-linejoin="round" d="M39.158 16.022v8.746c0 1.356.382 3.504-.716 4.519-.841.778-2 .691-3.059.691-.919 0-2.835-.11-3.384.863-.458-.812-1.907-.819-2.696-.851-1.137-.045-2.399.185-3.419-.454-1.341-.841-1.043-2.654-1.043-4.014v-9.242c0-.484.648-.259 1.061-.259h12.504l.752.001z"/><path fill="#FFE000" stroke="#000" stroke-width=".125" d="M31.63 29.782v-5.532c0-.581.235-.98-.382-.98h-5.734c-.018 0-.009 2.76-.009 2.977 0 1.047-.188 2.373.99 2.868.834.351 1.824.187 2.703.183.717-.004 1.881-.096 2.432.484z"/><path fill="#E50040" stroke="#000" stroke-width=".125" d="M25.504 16.719v4.912c0 .146-.109.937 0 1.045.094.093.755 0 .88 0h4.195c.147 0 .919.109 1.03 0 .094-.093 0-.769 0-.894v-4.018c0-.146.109-.937 0-1.045-.094-.093-.755 0-.88 0h-5.225z"/><path fill="#FFE000" stroke="#000" stroke-width=".125" d="M32.375 16.719v4.912c0 .147-.11.937 0 1.045.094.093.757 0 .883 0h4.206c.147 0 .922.109 1.032 0 .094-.093 0-.769 0-.894v-4.018c0-.147.109-.937 0-1.045-.094-.093-.757 0-.883 0h-5.238zm-.005 13.063v-5.532c0-.581-.235-.98.382-.98h5.735c.018 0 .009 2.76.009 2.977 0 1.047.188 2.373-.99 2.868-.834.351-1.824.187-2.702.183-.719-.004-1.883-.096-2.434.484z"/><path d="M36.77 16.719v5.668c0 .067-.043.29.04.29.136 0 .827.09.902 0 .134-.16 0-1.005 0-1.204v-4.464c0-.514-.489-.29-.942-.29zm-1.786 0v5.668c0 .067-.043.29.04.29.136 0 .826.09.901 0 .134-.16 0-1.005 0-1.204v-4.464c.001-.514-.487-.29-.941-.29zm-1.804 0v5.668c0 .067-.043.29.04.29.136 0 .826.09.901 0 .134-.16 0-1.005 0-1.204v-4.464c0-.514-.488-.29-.941-.29z" fill="#E50040" stroke="#000" stroke-width=".125"/><path d="M26.716 21.191c-.451-.989-1.436-.079-.647.708.32-.195.136-.221.048-.445-.127-.324.37-.485.48-.134l.119-.129zm3.148-3.451c-1.304 1.417-2.596 2.847-3.895 4.27-.195.212.127.329.287.164l.4-.427 1.603-1.726c.554-.596 1.108-1.191 1.667-1.782.259-.275.105-.699.362-.906.224-.181.778-.081.674.294-.056.203-.515.078-.393.334.132.276.568.019.649-.157.491-1.073-1.233-.575-1.544-.556.139.166.292.253-.059.358.07.069.153.113.249.134-1.02 1.109-.098-.015 0 0zm-.667 3.632c.116-.311 1.003-2.104.841-2.301l-1.705-2.077c-.521.635-1.877 1.661-1.571 2.482l.701 1.877c.049.128 1.524.019 1.734.019zm-.971-3.721v2.057c0 .29.253 1.729-.48 1.291-.318-.19-.574-1.476-.717-1.844-.077-.195 1.029-1.297 1.197-1.504zm.215 0v2.057c0 .29-.253 1.729.48 1.291.318-.19.575-1.476.718-1.844.077-.195-1.03-1.297-1.198-1.504zm.211 3.721c.677 0 .226.187.666.507.614.448.642-.506.906-.83.329-.402 1.026-.248 1.101.278.065.466-.553 1.016-.838.438.361-.114.407-.674 0-.541-.414.134-.326.727-.553 1.018-.572.731-1.264-.31-1.282-.87zm-1.948.323c.44 1.115 1.396.705 1.581-.324-.397 0-.435-.102-.565.262-.197.545-.693.328-.863-.103l-.153.165z" fill="#FFE000" stroke="#000" stroke-width=".125"/><path d="M34.252 25.118c.012.168-.216 1.151.438.784.311-.175-.271-.258-.279-.265-.043-.077-.036-.149.021-.218.073-.209-.066-.157-.18-.301zm2.854.186c.245.322-.094 1.36.425.735.121-.146.046-.748-.056-.901-.271-.405.1-.608.067-.946-.069-.715-1.668-.209-2.108-.274-.369-.055-.692.064-1.034.017-.633-.087-.077-.431-.203-.542.006.005-.432.301-.56.323-.146.024-.456-.437-.58-.283-.041.05.279.279.335.374.052.089-.126.436-.189.51-.317.38.634.118.596.119.37-.005.342 1.01 1.033.966.375-.024.786.103 1.152-.01.38-.12.437-.012.789.011-.107.427-.861.781-.164.823.072.003.46-.8.497-.922.127.167-.059.194 0 0zm-2.544-.495c.049.349.361.567.395.969.017.201-.126.667.233.529-.021.008.187-1.473.182-1.532" fill="#E50040" stroke="#000" stroke-width=".075" stroke-linecap="round" stroke-linejoin="round"/><path d="M33.721 23.972l-.135.101c-.027.114.27-.098.135-.101z"/><path d="M34.166 27.908c-.054.198-.262.325-.254.535.013.262.351.652.623.331.233-.275-.301-.191-.309-.193-.11-.027.163-.477-.06-.673zm2.398.362c-.269-.006-.267-.204-.541-.12-.355.108-.729.164-1.099.101-.531-.092-.966-.316-1.226-.842-.08-.159-.8.199-.656-.22.04-.117.315-.47.239-.602-.026-.046-.499-.33-.481-.386.062-.192.639.283.705.279.268-.021.499-.496.69-.455.149.032-.263.479-.271.508-.08.257 4.024-.292 3.452.72-.149.264-.145.428-.024.772.136.391-.011.499-.028.787-.012.209-.319.361-.319.161 0-.325.424-.586.019-.84-.072.246-.354.668-.469.85-.03.047-.314.064-.305-.024l.314-.689c-.126-.003-.004.063 0 0zm-2.026-.563c.359.402.143 1.298.529 1.348-.101-.011.147-1.336.14-1.45" fill="#E50040" stroke="#000" stroke-width=".075" stroke-linecap="round" stroke-linejoin="round"/><path d="M33.602 26.821c-.059.011-.104.041-.136.091-.057.125.298-.091.136-.091z"/><path d="M26.911 29.243v-5.352c0-.459.146-.621-.338-.621-.491 0-.338.181-.338.646v4.282c-.001.682-.117.874.676 1.045zm.912.078c.613-.012.442-.173.442-.741v-4.439c0-.282.16-.872-.176-.872-.562 0-.502-.041-.502.485v4.544c.001.364-.192 1.028.236 1.023zm1.796-.021v-5.299c0-.479.173-.731-.338-.731-.48 0-.338.147-.338.602v5.428h.676zm1.354.142v-5.454c0-.477.17-.719-.338-.719-.48 0-.338.149-.338.605v4.584c-.001.853-.166.766.676.984z" fill="#E50040" stroke="#000" stroke-width=".125"/><path d="M24.83 29.87l-.053-.145c.132.043.277.099.4.162-.229.072-.146.374-.145.63.164-.171.468-.364.326-.557.08.016.189.061.258.104-.283.123-.514.552-.783.698l-.003-.892zm.841 1.074c-.023.062.055.152.072.171-.144-.039-.305-.1-.439-.165.255-.076.472-.655.329-.881.144.039.305.1.439.165-.256.075-.305.454-.401.71zm1.194.552c.238-.137.272-.546.354-.824-.099.058-.229.039-.337.131.008-.081.042-.187.077-.26.309.092.883.073.675.482-.04-.133-.16-.191-.211-.293-.083.278-.275.64-.153.885l-.405-.121zm.93-.588l-.071-.136c.137.023.287.059.418.104-.217.104-.091.391-.054.645.138-.192.412-.428.244-.598.081.004.195.033.27.066-.246.155-.45.549-.637.812-.114-.227-.128-.608-.17-.893zm1.007.161c-.217-.024.617 1.249-.441.827.012-.107.049-.247.089-.305-.034.523.679.3.225-.014-.537-.372.135-.537.42-.493-.007.085-.021.207-.058.283-.012-.07-.097-.284-.235-.298zm.721.208l-.087-.127c.139.009.292.027.428.058-.204.127-.048.398.017.646.116-.207.361-.471.178-.621.082-.005.198.012.275.037-.228.179-.388.596-.545.877-.138-.213-.193-.59-.266-.87zm.888.043c-.056-.093.15-.073.244-.025.158.08.322.476.425.627.042-.229.062-.451-.068-.602l.252.018c-.204.181-.144.646-.164.932-.229-.177-.406-.535-.58-.791-.019.269-.104.567.059.754l-.265-.019c.204-.159.212-.652.097-.894zm1.244.829c-.001.065.104.125.124.136-.148.012-.321.009-.469-.008.216-.157.229-.775.017-.941.149-.011.321-.009.47.009-.217.156-.137.53-.142.804zm.413.136c.184-.204.091-.604.084-.895-.077.086-.204.105-.279.229-.017-.079-.017-.189-.007-.271.323-.008.863-.203.79.251-.079-.115-.212-.134-.291-.214.007.29-.066.693.127.889l-.424.011zm.815-.365c-.001-.005-.062-.188.029-.337.037.043.163.345.153.324l-.182.013c.187.01.337.146.163.326.139.009.304-.008.441-.028-.237-.184-.354-.619-.493-.911-.208.222-.206.71-.415.969.08.011.189 0 .268-.017-.131-.134-.086-.256.036-.339zm.977.261c.192-.188.114-.802-.121-.933.298-.039.893-.299.818.188-.177-.36-.622-.244-.419.206.144-.019.177-.12.222-.226.036.145.048.367.026.463-.031-.147-.104-.208-.241-.189-.015.185.041.344.162.433l-.447.058zm1.306-.223c.32-.059.164-.926-.156-.865-.413.075-.055.816.161.896-.58.104-.746-.82-.166-.927.638-.116.685.954.161.896zm.719-.603c-.38-.756.62-.165 0 0 .184.151.36.491.667.337-.124-.101-.278-.255-.408-.382.646-.337-.459-.396-.699-.326.241.108.377.696.231.912.135-.017.292-.054.42-.098-.129-.076-.214-.257-.211-.443zm.878.279c.128-.242-.06-.607-.138-.888-.054.103-.172.154-.215.29-.201-.411.714-.668.755-.211-.106-.093-.235-.077-.335-.137.078.279.106.689.34.831l-.407.115zm.99-.435c.02.062.138.085.162.09-.137.059-.302.111-.447.143.154-.219-.033-.809-.286-.896.138-.059.302-.111.447-.143-.154.216.041.545.124.806zm.641-.108c.308-.11.012-.939-.295-.829-.394.141.076.814.306.857-.556.199-.871-.689-.315-.886.608-.218.834.825.304.858zm.623-.714c.471-.208-.295-.734-.034-.086.08.2.122.419.31.492-.12.063-.27.124-.4.161.111-.235-.113-.797-.367-.866.108-.055.286-.153.406-.164.288-.114.662.139.335.379.147.105.323.235.461.315-.281.2-.506-.106-.711-.231zm-12.819.049c.021-.061-.061-.151-.076-.169.119.03.315.071.414.142.295.1.412.537.008.506.043.177.093.389.146.54-.342-.03-.315-.41-.389-.64.529.162.237-.698.056-.164-.078.23-.209.451-.11.652-.132-.03-.285-.082-.408-.139.23-.104.273-.474.359-.728z"/><path d="M37.201 26.966c.131.684-1.242-.359-1.274.469.058-.09.138-.15.239-.182.056-.021-.49.285-.219.355-.013-.003.365-.255.478-.255.225 0 .584.17.791.054m-.193.727c-.162-.101-.613-.337-.623-.616m-.205.577c.085-.03.357-.142.449-.21m-.08.385c.136-.002.277-.073.361-.194m.423-3.921c.086.687-1.378-.287-1.319.592.372-.396.921.041 1.343-.227m-.756.126c.032.399.324.382.49.657-.098.076-.209.109-.333.1m-.352-.133c.131-.022.283-.157.337-.26m-.73-.263l.125-.193" stroke="#000" stroke-width=".075" stroke-linecap="round" stroke-linejoin="round" fill="none"/><path d="M33.726 25.118c-.008-.223.684-1.387.754-1.186.06.168-.419.683-.408.959.011.291-.336.476-.346.227zm.862.783c.09.016.242-.11.15-.198-.149-.141-.139.2-.15.198zm2.083.227c.012.163-.242.133-.361.112-.2-.035.347-.312.361-.112zm.785.048c-.028.104-.307.117-.321.027-.036-.215.335-.076.321-.027zm-2.273.023c.043.145-.165.188-.235.1-.135-.168.235-.099.235-.1zm-1.148-2.476l.162-.33c-.507-.441-.176.695-.162.33zm-.471.002c-.092-.002-.372-.459-.507-.292-.209.26.458.297.507.292zM34.219 26.721c-.045.116-.803 1.273-.581 1.273.314 0 .254-.04.247-.315-.005-.164.72-.838.54-.993-.04-.036-.183-.023-.206.035zm-.288-.2c.03-.032.403-.467.266-.496-.428-.09-.546.797-.266.496zm.507 2.281c.134-.011.149-.184.055-.261l-.108.021.053.24zm2.899.155c.017.138-.332.144-.332.017 0-.128.324-.08.332-.017zm-.77-.043c.005.12-.312.144-.317.061-.012-.163.314-.102.317-.061zm-1.475.057c.059.132-.25.156-.258.062-.011-.128.234-.117.258-.062zm-1.626-2.488c-.04.004-.597-.492-.665-.282-.042.129.517.251.491.437.038-.075.097-.125.174-.155z" fill="#134395" stroke="#000" stroke-width=".075"/></svg>