<svg xmlns="http://www.w3.org/2000/svg" width="64" height="48"><path fill="#0C9A39" d="M42.667 0h21.333v48h-21.333z"/><path fill="#010202" d="M0 0h21.333v48h-21.333z"/><path fill="#BF1818" d="M21 0h22v48h-22z"/><path d="M25.226 27.295c.109.176.381.534.554.655.252.176.942.261 1.805-.21.461-.253 1.015-.681 1.544-.379-.259-.621-.974-.872-1.83-.527-.856.344-1.435.653-2.073.461zm.68.839c.218.102.493.274.663.371.263.146.441-.149.049-.232l-.712-.139zm.436.504c.239.075.524.101.748.033.369-.107.366.137.176.182-.16.037-.634-.038-.924-.215zm.432.318c.319.075.718.145.924.067.206-.075.092-.234-.122-.145-.214.088-.612.1-.802.078zm.605-.809l.218.528c.105.24.344.094.202-.084-.111-.135-.32-.302-.42-.444zm.319.008l.298.654c.207.318.402.13.214-.069-.145-.155-.394-.446-.512-.585zm-.563 1.015c.176.037.604.002.773-.088.206-.107.366.073.168.168-.177.086-.743-.013-.941-.08zm.858-1.008c.151.19.435.656.56.84.224.33.481.095.179-.141-.302-.234-.616-.571-.739-.699zm.375.191c.173.083.476.123.677.112s.319.229.062.235-.515-.195-.739-.347zm-.24-.325c.212.134.498.296.699.29.202-.005.202-.205-.044-.228-.248-.023-.415-.011-.655-.062zm.867-.655c.056.208.044.471-.006.632-.05.163.089.316.174.118.095-.225-.056-.576-.168-.75zm-2.115.611l.276.494c.101.134.357.059.155-.117s-.306-.297-.431-.377zm1.07-.411c.252.216.486.069.634.171.104.071.139.229-.135.189-.222-.035-.411-.181-.499-.36zm-.298-1.593c.017.123-.09.285-.162.408-.073.123.011.273.157.128.145-.145.056-.408.005-.536zm.235.242l-.106.256c-.006.106.096.167.156.062.039-.067-.017-.24-.05-.318zm-.431-.673c0 .129-.05.359-.157.486-.089.109.016.299.168.096.134-.179.04-.414-.011-.582zm-.784.498c.129.213.364.526.56.583.196.055.223-.146.045-.23-.179-.084-.375-.129-.605-.353zm-.509-1.399c.045.24.14.492.302.56.162.066.185-.102.023-.18-.125-.059-.213-.173-.325-.38zm-.141.302c.191.163.604.635.723.763.274.29.367-.033.135-.169-.23-.136-.593-.364-.858-.594zm-.033.962c.033.235.073.678.033.867-.061.304.157.348.258.118.101-.229-.179-.508-.291-.985zm-.245-.414c-.089.319-.163.666-.073.862.09.195.303.167.219-.161-.085-.33-.163-.443-.146-.701zm-.18-.313c.006.203-.078.442-.196.583-.117.141.033.417.163.18.067-.125.073-.545.033-.763zm.365.124c.374.525.117.979.503 1.203-.207-.246-.061-.963-.503-1.203zm.371.341c.017.302.244.604.261.806.016.201.025.419.251.444-.108-.243-.097-.6-.209-.722-.177-.192-.269-.402-.303-.528zm-.016-.218c.193.293.596.705.705.771.109.067.21.019.135-.134-.076-.151-.335-.192-.445-.302l-.395-.335zm-1.146 1.484l.462.278c.092.008.143-.009.025-.092-.118-.084-.345-.181-.487-.186zm-.117-.39c.151.182.604.571.869.605.264.033.231-.205.029-.253-.202-.044-.777-.213-.898-.352zm-.357-.503c.189.188.646.537.814.599.168.063.319-.117.025-.208-.294-.094-.617-.24-.839-.391zm-.294-.453c.164.126.483.416.634.566.151.151.411.005.117-.155l-.751-.411zm-.021-.294c.164.126.474.397.6.546.126.146.361-.03.072-.188l-.672-.358zm-.03-.301c.172.139.637.537.798.579.176.045.251-.029.037-.182-.231-.162-.432-.109-.835-.397zm-.121-.353c.113.097.463.376.57.486.189.193.361-.007.097-.133s-.475-.232-.667-.353zm-.26-.651c.164.277.474.672.638.748.164.076.26-.084.067-.189-.194-.106-.525-.366-.705-.559zm1.422.638c.017.159-.051.444-.08.571-.042.186.084.318.164.155s-.025-.545-.084-.726zm-.243-.226c-.051.163-.067.511-.042.613.025.099.193.121.143-.059-.051-.181-.109-.403-.101-.554zm-.278-.286c-.088.24-.1.395-.075.483.025.088.202.071.16-.118l-.085-.365zm2.41 1.15c-.069.159-.159.357-.143.454.017.096.066.149.147.062.118-.126.143-.377.055-.616s-.134-.361-.202-.609c-.067-.248-.192-.693-.957-.768-.764-.076-1.528-.109-2.208-.789-.067-.067-.066.021-.033.118.167.486.21.99.957 1.226.746.235 1.645.377 1.989.537.344.159.445.268.395.385zm-.562-.491c-.016.172.013.494.176.609.164.112.281-.025.143-.169-.139-.141-.282-.285-.319-.44zm.091 4.444c.353.285.94.621 1.259.638.319.019.302-.108-.025-.243s-.772-.101-1.234-.395zm1.757.303c-.3-.101-.533-.057-.732-.127.361.009.683-.324 1.008-.123l-.276.25zm.779-.707c-.243-.011-.419.031-.587-.04.113.086.249.184.388.241l.199-.201zm.25-.185l.001-.091c0-.143-.126-.504-.201-.646-.076-.144-.042-.017-.034.083.009.102-.016.319-.049.445-.032.117-.014.28.151.3l.132-.091zm.16.018c.053-.089.053-.282.017-.369-.042-.1-.066-.074-.108-.024l-.143.117.033.118c.033-.067.101-.084.134-.043.032.039.011.115-.039.173l.106.028zm-1.536-1.478c.026.16.076.345.186.43.108.082.151-.017.134-.186-.016-.166-.193-.209-.32-.244zm.513.043c-.008.167-.042.462-.017.555.025.092.084.168.16.017.075-.153-.051-.388-.143-.572zm-4.625-4.734c.067.159.336.654.395.814.059.159.444.134.201-.118-.244-.251-.462-.469-.596-.696zm1.007.193c-.067.143-.185.336-.269.436-.083.101-.059.278.126.16.185-.117.102-.412.143-.596zm.076.436c.101.134.167.286.227.42.059.134.226.167.218.025-.009-.142-.227-.327-.445-.445zm.856.009c0 .135-.185.26-.269.352-.083.092-.076.294.109.21.185-.084.167-.427.16-.562zm.571.101c-.08.179-.293.21-.336.462-.033.203.043.184.168.084.126-.101.193-.437.218-.512.025-.076-.017-.109-.05-.034zm-.655-.554c-.075.109-.226.252-.26.37-.033.118.034.219.143.134.109-.085.109-.412.117-.504zm-.034-.546c-.108.118-.26.319-.269.496-.007.176.144.167.168 0 .025-.169.051-.362.101-.496zm-.713.571c.058.21.167.445.269.503.1.06.125.025.084-.109-.043-.134-.227-.268-.353-.394zm.042-.587c-.008.201.051.537.16.655s.16.083.134-.076c-.026-.16-.194-.378-.294-.579zm.319-.639c-.084.277-.126.554-.092.697.033.143.092.21.168.033.075-.175-.043-.512-.076-.73zm-.605-.259c-.025.167-.161.334-.227.436-.117.185.047.292.177.151.084-.092.067-.445.05-.587zm.068.553c-.152.193-.294.394-.303.487-.008.092.042.159.143.059s.143-.403.16-.546zm-1.142.63c.019.098.167.445.209.512.042.067.071.059.034-.021l-.21-.496-.033.005zm.085-.491c.096.193.31.776.486.915s.268.034.122-.138c-.147-.173-.412-.421-.608-.777zm1.073.289c-.046.139-.155.336-.24.424-.083.088-.054.286.076.189.131-.096.168-.424.164-.613zm-1.07-.801c.085.155.282.518.353.747.142.462.49.299.164-.088-.114-.134-.298-.315-.492-.667l-.025.008zm.071-.47c.048.312.168.474.277.751.104.265.423.352.214-.05-.16-.307-.315-.248-.462-.718l-.029.017zm.114-.403c.07.223.11.42.134.533.046.21.198.395.265.361.067-.033.008-.281-.084-.386s-.193-.231-.26-.479c-.017-.062-.081-.109-.055-.029zm.415-.332l-.071.445c-.025.104-.004.319.105.319s.122-.21.076-.323c-.046-.114-.059-.323-.063-.42-.004-.097-.03-.151-.047-.021zm.37.659c-.068.092-.265.302-.269.428-.005.126.129.143.155-.004.025-.147.064-.323.114-.424zm1.494 2.472c.26-.559.319-.94.118-1.394-.202-.453-.613-1.233-.831-1.578-.103-.162-.109-.034-.118.076-.009.108-.075.361-.118.47-.134.008-.395-.025-.503-.067-.11-.042-.108.009-.017.126.68.872 1.361 1.763 1.393 2.309.009.142.017.184.076.058zm.697-3.118c-.228.144-.183.691-.491.948-.051.042-.088.113-.08.185.008.072.059.034.168-.075.109-.109.193-.185.235-.45.042-.264.1-.503.188-.562.089-.059.059-.097-.02-.046zm-.219.079c-.452.481-.369.811-.461.907-.093.097-.194.096-.076-.151.143-.298.011-.458.474-.789.059-.042.131-.038.063.033zm-.78.873c.059-.386.177-.662.52-.89.278-.185.489-.354.517-.508.021-.117-.017-.117-.055-.038s-.251.252-.331.285c-.08.034-.114.025-.072-.042.042-.067.083-.26.075-.365-.008-.105-.058-.068-.125-.005s-.176.181-.185.386c-.008.206-.087.128-.113.067-.059-.139-.117-.277-.176-.336-.059-.059-.085-.049-.046.059.101.281.092.743-.096 1.255l.087.132zm-1.394-1.98v.748c.021.05.074.062.042-.076-.05-.214.105-.391.009-.684-.028-.083-.071-.051-.051.012zm.361 1.41c-.002.05.081.104.084.017.008-.227-.05-.537-.167-.738.126-.487.151-.932.042-1.2.033.343.017.873-.143 1.191.067.193.192.503.184.73zm.344-.546c.012-.117.101-.336.176-.403.076-.067.143-.075.134.051-.009.126-.083.293-.176.369-.092.075-.142.067-.134-.017zm-.075-1.846c.042.159.026.495-.042.705.042.159.062.484.009.63-.025.066-.042.159.059.042.1-.118.033-.537.008-.663.067-.236.041-.556-.034-.714zm.201-.294c0 .327.068.873.025 1.032-.042.16-.014.551.168.521.151-.025.059-.311-.017-.571-.075-.259-.108-.604-.125-.789-.017-.185-.051-.294-.051-.193zm.244-.294c.032.244.024.739.008.898s.008.478.135.47c.125-.008.083-.344.042-.521-.042-.176-.118-.638-.135-.797-.016-.159-.067-.176-.05-.05zm.629 1.444c-.075.101-.42.075-.512.219-.093.143-.093.251.101.184.193-.068.344-.269.411-.403zm.269-.471l-.52.21c-.093.126-.051.244.142.176.193-.066.319-.293.378-.386zm.109.051c-.144.293-.185.663-.067.763.118.101.243-.017.168-.193-.076-.175-.127-.377-.101-.57zm.756.302c-.092.109-.377.285-.503.336-.126.05-.235.302.05.218.284-.084.377-.386.453-.554zm.26-.445c-.144.143-.386.243-.529.286-.143.042-.152.234.05.184.201-.05.403-.335.479-.47zm-.739-.327c-.134.244-.185.521-.159.688.025.168.235.109.209-.042-.025-.151-.1-.454-.05-.646zm-.185-.042c-.118.126-.378.109-.503.26-.126.151.008.201.185.109.175-.092.234-.227.318-.369zm-.797-.831c.041.149.034.454-.017.663-.049.21-.016.621.109.621.126 0 .135-.219.076-.419-.059-.202-.101-.764-.117-.856-.018-.094-.076-.102-.051-.009zm.336-.529c0 .252-.05.672-.083.823-.034.151-.059.42.049.429.109.008.151-.244.109-.446-.042-.201-.042-.679-.033-.78l-.042-.026zm.545.184c-.075.235-.335.361-.335.571s.185.193.251.017c.068-.176.092-.336.084-.588zm.319.387c-.066.167-.327.369-.612.52-.194.103-.159.344.101.209.259-.133.469-.545.511-.729zm.109.319c-.168.235-.226.554-.185.713.042.16.16.176.21-.05.051-.227.009-.504-.025-.663zm.63-.159c-.235.126-.386.302-.394.436-.009.134.042.126.167.033.126-.092.176-.268.227-.469zm.159.402c-.151.151-.403.285-.545.327-.143.042-.279.21-.202.294.102.11.513-.16.747-.621z" fill="#fff"/><path d="M28.416 21.713c-.109.335-.646.674-.772.965-.227.521-.067.974-.193 1.242l.209.185c.168-.344.009-.696.277-1.259.137-.286.545-.503.655-.839l-.176-.294zm.176.294c-.11.336-.519.554-.655.839-.269.562-.109.915-.277 1.259l.194.227c.075-.167.235-.696.276-.99.042-.293.21-.495.327-.604.118-.109.252-.193.354-.378l-.219-.353zm.219.352c-.102.185-.236.269-.354.378-.117.109-.285.311-.327.604-.042.294-.202.823-.276.99.083.099.151.182.201.277.143-.277.276-.89.311-1.142.033-.252.185-.445.277-.495.092-.051.251-.152.319-.286l-.151-.326zm6.773-.646c.109.335.646.674.771.965.228.521.067.974.195 1.242l-.212.185c-.167-.344-.007-.696-.276-1.259-.136-.286-.546-.503-.655-.839l.177-.294zm-.177.294c.109.336.52.554.655.839.27.562.109.915.276 1.259l-.192.227c-.076-.167-.234-.696-.276-.99-.043-.293-.211-.495-.328-.604-.118-.109-.252-.193-.354-.378l.219-.353zm-.219.352c.102.185.235.269.354.378.117.109.285.311.328.604.042.294.2.823.276.99-.084.099-.15.182-.202.277-.142-.277-.276-.89-.31-1.142-.035-.252-.185-.445-.277-.495-.092-.051-.252-.152-.318-.286l.149-.326z" fill="#fff" stroke="#fff" stroke-width=".125"/><g fill="#fff"><path d="M31.947 23.341l.105.126.092.032h.286l.052.042v.229l.021.08.155.071.042.069v.183l.035.078.233.096.049.065v.239l.029.078.14.111.031.076v.176l.021.092.148.179-.012.046h-.425l-.049.043.039.07.226.249.02.08h-.501l-.078-.033-.204-.352-.1-.057h-.24l-.046.057.101.312-.023.073h-.382l-.046-.039-.049-.331-.079-.068h-.306l-.057.065v.305l-.047.068h-1.767l-.004-.062c.219-.146.311-.445.34-.621.014-.083.059-.075.118-.075h.503l.072.05.024.147.093.065h.555l.074-.087v-.181c0-.058-.023-.078-.084-.078l-.377-.002-.055-.055v-1.854c0-.822.644-1.258 1.103-1.359h-1.937l-.038-.046.038-.038h4.422l.038.038-.038.046h-1.937c.458.101 1.103.537 1.103 1.359v.398l-.054.024-.061-.024v-.382c0-.787-.614-1.278-1.263-1.278-.631 0-1.251.465-1.261 1.217l.065.034h1.057l.067.059v.122l.023.073zm-1.605-2.421l.037-.038v-1.099l-.037-.038h-.521l-.038.038v1.099l.038.038h.521zm0-1.301l.037-.038v-.066l-.037-.038h-.521l-.038.038v.066l.038.038h.521zm.033-.29l.038-.037c0-.11-.055-.248-.143-.307l-.134-.126-.055-.076-.055.076-.135.126c-.088.059-.142.197-.142.307l.037.037h.589zm.039 2.577l-.038-.043h-.587l-.037.043v.865l.037.038h.587l.038-.038v-.865zm-.523 1.304l-.086-.052-.079-.162.049-.059h.713l.04.063-.115.185-.073.024-.449.001zm.665-.755v-.523l.038-.038h.365l.013.054c-.138.124-.298.313-.383.524l-.033-.017zm-.772.912l.038-.038h.554l.038.038v.125l-.038.038h-.554l-.038-.038v-.125zm-.021.343l.038-.038h.575l.038.038v.689l-.038.038h-.576l-.038-.038v-.689zm-.042.865l.038-.038h.65l.038.038v.37l-.038.038h-.65l-.038-.038v-.37zm-1.447-3.129c-.173.117.01.388.183.271.173-.117-.008-.389-.183-.271zM29.8 24.206l-1.41-2.501.085-.051 1.325 2.351"/><path d="M33.658 20.92l-.037-.038v-1.099l.037-.038h.521l.038.038v1.099l-.038.038h-.521zm0-1.301l-.037-.038v-.066l.037-.038h.521l.038.038v.066l-.038.038h-.521zm-.034-.29l-.037-.037c0-.11.053-.248.144-.307l.133-.126.055-.076.055.076.135.126c.087.059.142.197.142.307l-.038.037h-.589zm.525 2.225c.084 0 .15.009.2-.042l.336-.344c.066-.068.042-.092-.025-.092h-.999c-.2 0-.187-.004-.491-.252-.23-.189-.356-.177-.591-.177h-1.157c-.235 0-.361-.013-.593.177-.302.248-.289.252-.491.252h-.999c-.068 0-.091.024-.025.092l.335.344c.05.051.118.042.201.042h4.299zm-1.419-1.067c.143 0 .371-.311.371-.73 0-.42-.205-.873-.833-.982-.124-.021-.184-.029-.184-.184 0-.109-.018-.261-.084-.261s-.084.151-.084.261c0 .155-.06.163-.185.184-.627.109-.831.562-.831.982 0 .419.227.73.369.73h1.461zm.857 1.419l.037-.043h.587l.038.043v.865l-.038.038h-.587l-.037-.038v-.865zm-.034 3.236c0 .295-.132.497-.229.614-.049.058-.05.095.019.095h1.294l.003-.062c-.218-.146-.31-.445-.339-.621-.014-.083-.06-.075-.118-.075h-.558l-.072.049zm.555-1.932l.086-.052.08-.162-.049-.059h-.713l-.038.063.113.185.073.024.448.001zm-.664-.755v-.523l-.039-.038h-.364l-.013.054c.139.124.298.313.381.524l.035-.017zm.773.912l-.038-.038h-.555l-.037.038v.125l.037.038h.555l.038-.038v-.125zm.02.343l-.037-.038h-.576l-.037.038v.689l.037.038h.576l.037-.038v-.689zm-.684.865l.038-.038h.649l.038.038v.37l-.038.038h-.838c-.057 0-.079-.014-.114-.076l-.185-.323.049-.031h.201l.081.067.069.157.049.005.001-.207zm1.793 1.998c.146 0 .118-.101.023-.163s-.286-.188-.376-.291c-.09-.101-.182-.116-.299-.116h-5.389c-.118 0-.21.016-.299.116-.09.103-.28.229-.375.291-.096.062-.124.163.021.163h6.694zm-2.083-2.193l.061.025.054-.025v-.607l-.054-.024-.061.024v.607zm2.463-2.934c.173.117-.011.388-.184.271-.173-.117.008-.389.184-.271zM34.2 24.206l1.408-2.501-.083-.051-1.325 2.351"/></g><path d="M30.126 22.126l.038.042v.503l.039.038h.048l.038-.038v-.558s-.048-.145-.206-.145c-.157 0-.206.061-.206.145v.558l.037.038h.048l.038-.038v-.503l.038-.042h.088zm1.272 2.489h-.22l-.036.033v.238l.061.057h.229c.052 0 .096.004.082-.053l-.064-.247-.052-.028zm.403.392h-.172l-.033.044.056.283.053.028h.18l.039-.066-.069-.246-.054-.043zm.067-.383h-.072l-.015.05.08.248.053.039h.126l.008-.082-.145-.233-.035-.022zm.577.391h-.216l-.025.066.158.249.071.042h.299l-.003-.067-.217-.247-.067-.043zm-.07-1.182l.04-.04v-.158l-.042-.042h-.266l-.042.042v.158l.04.04h.27zm.223.392l.04-.041v-.157l-.042-.042h-.166l-.043.042v.157l.04.041h.171zm.311.453l.04-.04v-.145l-.042-.042h-.195l-.042.042v.145l.04.04h.199zm.2.461l.041-.038v-.164l-.043-.043h-.216l-.041.043v.164l.04.038h.219zm-1.147-1.144l.031-.031v-.096l-.033-.033h-.08l-.033.033v.096l.031.031h.084zm0 .239l.031-.031v-.096l-.033-.032h-.08l-.033.032v.096l.031.031h.084zm0 .218l.031-.03v-.097l-.033-.033h-.08l-.033.033v.097l.031.03h.084zm0 .117l.031-.031v-.005l-.033-.033h-.08l-.033.033v.005l.031.031h.084zm.031-1.007v.161l-.031.031h-.083l-.031-.031v-.293s.033-.059.089.013l.056.119zm.519-4.417c.213.183.332.512.243.831-.023.085.073.12.097.03.125-.491.001-.777-.227-.957-.118-.093-.23-.005-.113.096zm-.117.058c.218.156.361.55.202.912-.037.082-.163.101-.122-.051.071-.264.032-.604-.16-.738-.072-.052-.008-.186.08-.123zm1.479 2.923l-.037.042v.503l-.038.038h-.049l-.038-.038v-.558s.049-.145.206-.145c.158 0 .206.061.206.145v.558l-.039.038h-.047l-.039-.038v-.503l-.038-.042h-.087zm-4.044 1.669l.038-.038h.126l.038.038v.18l-.038.038h-.126l-.038-.038v-.18zm.504 0l-.039-.038h-.125l-.038.038v.18l.038.038h.126l.039-.038v-.18zm-.504.52l.038.038h.126l.038-.038v-.18l-.038-.038h-.126l-.038.038v.18zm.504 0l-.039.038h-.125l-.038-.038v-.18l.038-.038h.126l.039.038v.18zm3.837-.52l-.04-.038h-.125l-.037.038v.18l.037.038h.125l.04-.038v-.18zm-.504 0l.037-.038h.125l.037.038v.18l-.037.038h-.125l-.037-.038v-.18zm.504.52l-.04.038h-.125l-.037-.038v-.18l.037-.038h.125l.04.038v.18zm-.504 0l.037.038h.125l.037-.038v-.18l-.037-.038h-.125l-.037.038v.18zm-1.914-.918l.046.053v1.069l-.035.034h-.234l-.047-.045v-.457c0-.038 0-.115-.054-.168l-.12-.131-.039-.04-.04.04-.12.131c-.054.054-.054.13-.054.168v.457l-.047.045h-.238l-.034-.034v-1.069l.046-.053h.97zm-.398 1.156l.046-.042v-.476c0-.059-.053-.16-.131-.16-.079 0-.131.102-.131.16v.476l.047.042h.169zm.92-.571l-.149-.068-.071.025v.577l.054.101.609.478.069-.022v-.161l-.042-.099-.123-.094-.023-.057v-.172l-.036-.069-.233-.151-.021-.07v-.163l-.034-.055zm-.787-4.837c-.213.183-.331.512-.243.831.023.085-.073.12-.097.03-.125-.491-.002-.777.227-.957.117-.093.23-.005.113.096zm.117.058c-.218.156-.361.55-.202.912.037.082.163.101.122-.051-.071-.264-.032-.604.16-.738.071-.052.008-.186-.08-.123zm-1.762 8.175c.331.442.21.94.713 1.335.098.077.137.088.025-.075-.361-.521-.217-.874-.605-1.242-.176-.167-.159-.05-.133-.018zm1.04 1.386c-.422-.348-.31-.925-.705-1.309-.171-.166-.081-.206.084-.06.528.471.498 1.059.657 1.259.16.202.091.214-.036.11zm.188-.293c.084.068.247.19.296.258.05.066.034.15-.101.061-.134-.089-.174-.213-.223-.279-.05-.069-.033-.092.028-.04zm.319.043c.145.035.364.108.458.164.096.055.231.164.067.184-.279.035-.447-.207-.548-.27-.1-.06-.072-.099.023-.078zm-.46-.586c.12-.118.276-.135.359-.118.083.018.112.051.106.117v.164c0 .05-.004.071-.088.087l-.195.067c-.034.027-.086-.021-.103-.064l-.076-.181-.003-.072zm.96.325l-.302-.064c-.056-.006-.067-.058-.071-.105l-.021-.185c-.004-.04.008-.069.088-.066l.26.043c.055.023.071.032.067.109l-.013.188-.008.08zm2.267-.875c-.331.442-.21.94-.713 1.335-.099.077-.137.088-.026-.075.361-.521.218-.874.605-1.242.177-.167.159-.05.134-.018zm-1.041 1.386c.423-.348.311-.925.706-1.309.17-.166.081-.206-.084-.06-.528.471-.499 1.059-.657 1.259-.161.202-.09.214.035.11zm-.187-.293c-.083.068-.246.19-.297.258-.05.066-.033.15.101.061l.223-.279c.051-.069.035-.092-.027-.04zm-.319.043c-.145.035-.364.108-.459.164-.095.055-.231.164-.066.184.279.035.447-.207.548-.27.1-.06.072-.099-.023-.078zm.46-.586c-.12-.118-.276-.135-.36-.118-.084.018-.112.051-.106.117v.164c0 .05.004.071.087.087l.194.067c.036.027.089-.021.105-.064l.075-.181.005-.072zm-.961.325l.302-.064c.056-.006.068-.058.072-.105l.021-.185c.003-.04-.009-.069-.089-.066l-.26.043c-.054.023-.071.032-.067.109l.014.188.007.08zm-1.01-.745l-.1-.448c-.028-.095.084-.15.117-.027.034.122.062.403.056.464-.005.062-.056.095-.073.011zm.392.027c-.003-.09-.067-.274-.118-.393-.049-.116-.02-.182.027-.158l.151.025.113-.021.135.005h.054c-.021.066-.054.139-.16.146l-.134.038-.009.172.009.193c-.013.055-.065.088-.068-.007zm1.021-.517l-.122.19c-.025.037-.05.087-.083.007l-.097-.185c-.012-.046-.055-.101-.097-.042-.042.059-.044.054.018.117.092.097.138.252.151.388.007.074.071.126.096.017s.109-.273.176-.361c.035-.046.062-.085.042-.139-.021-.054-.059-.03-.084.008zm.353.503c-.005-.066-.047-.359-.081-.453-.034-.093.067-.168.101-.054.033.112.042.427.03.495-.012.067-.047.08-.05.012zm-1.751-9.724l.008.03.109-.063c.072.059.088.05.269.05.181 0 .319-.008.319-.08 0-.056-.001-.092-.071-.062l-.179.006-.014-.09-.022-.028-.042.087.033.064.129.014v.025s-.196.019-.235-.005l-.07-.011h-.089l-.042-.087-.02.02c.003.047.003.095-.083.13zm.958-.035l.012-.294-.026-.081-.033.04.02.05.005.271.022.014zm.28-.187l-.073.095-.011.07.076.019.044-.002c.05.062.125.078.177.033.052.028.137.048.17-.017.034-.064.02-.258.031-.303h-.02l-.039.216-.056.047-.062-.089c0-.065.006-.202.033-.232l.014-.081c-.031-.037-.067-.079-.067-.003l-.011.331s-.031.101-.095.072c-.065-.027-.073-.089-.076-.125l-.035-.031zm.543-.03l.001.136.028.004-.005-.143-.024.003zm-5.453-.717c.049-.062.037-.08-.03-.122-.068-.042-.076-.033-.101.017-.025.051-.038.097.009.127l.079.083.025-.008.018-.097zm.097.348c.072.072.125.109.18.072.055-.038.055-.096.025-.189s-.063-.327-.046-.466c.016-.138.021-.209.112-.033.093.176.189.335.341.327.151-.008.188-.129.197-.214.008-.084-.029-.156-.114-.244-.083-.088-.201-.18-.184-.255.017-.076.017-.097.079-.013l.201.235c.051.08.118.167.194.184.075.018.139-.088.147-.151s-.008-.113-.118-.201l-.193-.164-.021-.134c-.004-.063.005-.096.059-.042l.143.081.051.055v.071c.151.168.255.474.159.558-.067.059-.134.068-.206.046-.071-.021-.116-.007-.13.08-.03.185-.097.333-.29.251-.1-.042-.192-.138-.256-.251-.063-.113-.096-.017-.092.076l.046.361c.013.075-.033.222-.164.143-.129-.08-.143-.13-.151-.16l.031-.023zm.109-1.196c.01.052.055.105.113.125.059.021.123.008.138-.096l.072-.038c.096 0 .117-.121.08-.206-.039-.084-.109-.104-.147-.117l-.059.029.063.055c.055.021.131.063.096.151-.017.042-.118.055-.155.004l-.042-.008.03.097-.013.076s-.117-.004-.147-.076l-.029.004zm-.013-.365l.05.126.029-.021-.05-.118-.029.013zm-.227.634l-.075.004.025-.051.05.047.055-.021c-.009-.059-.034-.109-.088-.118l-.122-.025-.042.017.038.084-.052.065.048.027.054.004-.029.059-.025-.063-.048-.027c-.025.061-.011.134.031.145l.01.05c-.043.034-.034.097.016.068l.164-.139c.038-.025.055-.088.046-.146l-.056.02zm.655-.853c.013-.049.122-.269.179-.335.029-.035.078-.017.027.05-.051.068-.132.174-.172.271l-.034.014zm1.121.726c-.029-.061-.147-.26-.243-.377-.096-.117-.277-.39-.323-.47l-.168-.231c-.037-.059-.063-.092.034-.084.097.009.143.017.147.092.004.076.004.102.063.177.23.293.438.676.52.811.045.074.012.171-.03.082zm-.179-1.311c-.027-.033-.01-.097.019-.114l.03.03-.049.084-.068.015.011.101-.071.136.025.038.14-.231c.042-.042.074-.126.059-.195l-.117-.006c-.042.036-.063.106-.047.157l.068-.015zm-.09 1.182c-.03.517.366.487.537.419.172-.067.554-.369.398-.76-.154-.391-.289-.688-.331-.768-.042-.08-.088-.155-.059-.192l.012-.076-.079-.084-.072.017c-.034.05-.056.105-.012.185.205.377.398.734.453.911.055.176.083.41-.193.579-.302.185-.612.08-.612-.201.001-.055-.038-.102-.042-.03zm1.076-1.286l-.155.004-.061-.093.065-.043c.023.011.122.056.151.132l.072-.026c-.033-.1-.185-.216-.22-.246-.042-.034-.08-.021-.118.017-.039.038-.05.114-.039.227.013.114.026.167.329.143.016.185-.11.402-.685.738l.013.046c.319-.171.747-.416.751-.797.08-.046.244-.176.265-.227.055.084.277.134.377-.038.189.155.328-.104.202-.357l-.029.034c.017.054 0 .164-.038.201s-.092.059-.131-.008c-.038-.067-.059-.08-.075.013-.018.092-.114.151-.194.071l-.075-.164c-.009-.063-.042-.045-.051.017-.008.067-.144.262-.283.329l-.071.027zm.24.455l.323-.323c.048-.044.103-.004.048.044l-.343.309-.028-.03zm-.044.336c-.05-.013-.071.071-.017.083l.017-.083zm.05.515c.31-.231.613-.495.643-.781.007-.072-.013-.129-.059-.193-.045-.063-.067-.092-.029-.142l.088-.03.13.122c.038.025.034.062-.051.062.021.168-.046.399-.155.538-.11.138-.362.352-.546.47-.087.056-.088.005-.021-.046zm2.044-1.682c.059.176-.051.264-.206.281-.156.017-.286.109-.365.201-.08.092-.025.105.055.109l.311.054c.113.017.335.009.407-.017l.063.038c-.004.05-.004.075-.084.096-.08.021-.395.017-.512.071-.314.146-.293.428-.092.642.076.081.092.13-.042.08s-.282-.293-.341-.415c-.059-.122-.1-.021-.138.046-.21.374-.621.332-.734.23-.114-.101-.093-.402-.068-.554l.034.017c0 .483.188.529.441.449.251-.08.377-.293.369-.458-.008-.164-.172-.524-.222-.6-.05-.076-.059-.072-.017-.155.042-.084.066-.051.118.067.05.118.168.609.319.924.041.084.092.092.088.045-.016-.171.131-.323.214-.357.083-.033.017-.05-.05-.054l-.219-.038c-.1-.025-.105-.096-.045-.176.058-.08.28-.258.376-.332l.177-.046c.055-.004.111-.05.105-.098-.006-.049-.078-.042-.118.002l-.067.109-.038.009.042-.206c.008-.051.068-.103.127-.072l.112.108zm-.969 1.452c-.035-.035-.076.059-.038.076.038.016.088-.026.038-.076zm.08-1.501l.222-.166c.025-.034.081-.046.059.009l-.239.17-.042-.013zm.409-.014l.172-.26c.027-.061.084-.111.122-.088.038.023.015.1-.04.149-.055.048-.168.129-.203.206l-.051-.007zm-.35.253h.071l.058-.026.058-.014.04-.01-.03.094h-.064l-.055.009-.085.012.007-.065zm1.298-.155c.057.021.073-.042.047-.052l-.047.052-.015.041-.091.141h-.034l.11-.221c.058-.13.15-.038.118.04l-.103.041.015-.042zm.302.269l.046.106.076-.073.044-.008.065.092.06-.071.016-.115.031.017-.022.204c-.029.029-.107.05-.139-.011l-.062.02c-.032.035-.084.035-.115-.015l-.028-.13.028-.016zm.178-.422l-.018.136c-.009.057.046.065.045 0l.003-.134-.03-.002zm-1.053.999c-.161.322-.104.487-.045.6.059.113.134.206.218.104.084-.101.193-.264.239-.361.046-.096.091-.164.08-.055-.026.235.008.433.125.483.118.05.189.012.272-.046.085-.059.088-.104.145-.029.053.076.199.143.305.076.106-.068.168-.206.155-.332-.012-.125.01-.248.055-.294l.021-.097-.139-.134c-.043-.042-.075-.071-.059.017s.054.487.009.592c-.046.105-.094.118-.148.122-.053.004-.146-.03-.133-.134.012-.105.012-.529.009-.63-.006-.101 0-.142-.057-.071l-.049.134c.017.055.024.411-.021.516-.047.105-.177.202-.256.197-.081-.004-.188-.092-.16-.311l.076-.398c.013-.067-.03-.11-.093.004-.062.113-.23.453-.323.559-.093.104-.151.088-.198.038-.046-.051-.147-.186-.021-.53l-.007-.02zm2.241-.626c-.146.62-.411 1.551-.441 1.616h-.044c.023-.071.309-1.414.343-1.565.033-.151.075-.143.112-.151.039-.008.051.013.03.1zm.265 1.427c.078-.112.159-.306.285-.81.028-.108.055-.105.089-.1l.037-.059-.054-.273c-.034-.084-.102-.067-.093-.008.007.059-.009.159-.043.251-.032.092-.161.691-.293.923-.178.311-.472.309-.675.219-.039-.018-.109-.035-.026.033.086.067.495.219.773-.176zm-.834-1.565c-.054-.132-.203-.164-.197.008.003.172.037.18.092.184.055.005.083.021.144.097.188.243.4.642.636 1.36.022.067.063.009.043-.055-.222-.705-.354-.949-.482-1.159-.132-.208-.221-.393-.236-.435zm.672.348l.231-.05.12-.002-.046.046-.283.03-.022-.024zm.028.237l-.004.084.056-.048.025-.008.035.065.04-.101.023-.01-.003.138-.099.017-.064-.006c-.027.021-.071.015-.08-.051l.056-.117.015.037zm.377 1.161c.173-.483.39-1.037.425-1.125.034-.088.021-.126.13-.168.109-.042.126-.033.07.093-.054.126-.554 1.154-.591 1.221l-.034-.021zm.588-.575c-.046.039-.067.105-.046.16.021.055.072.055.104.025l-.009-.071c-.05.004-.087-.038-.043-.084l-.006-.03zm-.298.495c.079-.016.398-.05.486-.038.088.013.121.095.008.072-.162-.034-.411-.009-.469 0l-.025-.034zm-.55.122c.021.147.121.264.414.155.294-.109.328-.076.305.076-.026.151 0 .311.142.285.143-.025.21-.176.318-.378.109-.201.37-.729.412-.822l.108-.164.039.055-.019.155c0 .047-.016.084-.079.135-.062.05-.088.105-.188.307-.101.201-.276.562-.386.701-.109.138-.407.306-.434-.021-.023-.328-.032-.313-.2-.231-.294.143-.479.131-.487-.172-.004-.186.047-.14.055-.081zm1.314-1.083c.147.185.412 1.297.337 1.717-.04.209-.043.017-.034-.134.008-.151-.168-.932-.219-1.1l-.15-.185c-.051-.042-.06-.125-.048-.21.013-.084.036-.186.114-.088zm.008 1.801c.145-.407.352-.772.428-.915l.159-.303c.043-.108.135-.206.132-.122v.223l-.043.079c-.051.009-.115.096-.169.16-.091.114-.283.481-.482.877l-.025.001zm-.272.103c.2.157.405.153.641-.07.235-.222.449-.764.497-.894.046-.13.08-.201.121-.214l.043.059-.021.184c.004.049-.002.122-.074.143-.069.021-.129.157-.155.235-.045.134-.288.483-.376.567-.089.084-.368.285-.697.038-.102-.076-.017-.078.021-.048zm.032.272l.252-.028c.081-.006.093.042.021.047l-.275.017.002-.036zm.644 15.968c.054.193.117.445.209.55.093.104.202.222.487.222.286 0 1.158.009 1.276.018.117.008.235-.059.302-.152s.201-.125.311-.093c.109.035.209.043.344-.133.135-.177.177-.311.109-.437l-.109-.276-.234.143c.126.067.184.159.184.252s.048.296-.435.235c-.136-.017-.195.034-.235.083-.043.05-.102.093-.235.093h-1.091c-.152 0-.345-.066-.404-.185l-.144-.379-.335.059zm-1.13-1.224c.331.008.661.009.985.008.069-.011.093-.077.026-.137-.066-.059-.084-.066.051-.185.134-.117.168-.101.294-.05.126.05.176.118.142.194-.034.074-.042.134.085.117.126-.018.193-.034.294.008.1.041.185.075.284 0 .101-.076.187-.066.312-.018.126.051.184.01.31-.049l.252.016c.085.017.245.025.387-.041.142-.068.302-.084.462.034.158.116.36.374.427.478l-.302.062c-.058-.149-.256-.322-.395-.317-.139.004-.205.023-.265.054-.058.029-.1.047-.037.117l.21.306-.302.076c-.052-.063-.151-.276-.269-.356-.094-.063-.123-.145-.24-.058-.096.071-.089.08-.037.146l.213.324-.294-.046-.216-.342c-.043-.062-.109-.121-.211-.066s-.117.096-.102.167c.021.087.079.181.134.256l-.236.038c-.039-.037-.212-.344-.241-.427l-.166.007c-.052.025-.094.105-.081.169l-.013.305-.312-.018c.005-.203.003-.549-.075-.675l-.105.009c0 .026-.009.391.003.673l-.216.008-.146-.155c-.014-.084-.043-.093-.173-.088-.618-.013-1.192-.03-1.73-.062l.469-.157c.488.014.945.014 1.342.014l.125-.043.071-.089c.038-.053-.008-.096-.121-.099l-.796-.022.203-.086zm-4.861-.083l-.55-.195c.211.068.442.132.671.188l-.121.007zm1.6-.184c-2.759-.427-5.382-1.442-7.051-3.62-2.417-3.157-2.014-8.16-.067-10.745-2.015 2.384-3.164 6.977-.47 11.147.97 1.503 2.458 2.681 4.317 3.485l.677-.021c-2.048-.794-3.846-2.063-4.91-3.7-1.849-2.841-1.941-6.223-.641-9.194-1.026 2.523-1.106 6.32.936 9.027 1.625 2.153 4.064 3.194 6.927 3.661l.282-.04zm.707 1.083c1.088.15 2.168.179 3.229.081.063-.005.114-.005.08-.109l.216-.008.006.117.169-.008.003-.116.312.018c-.005.069-.016.102.117.102.23 0 .309-.009.362-.046.056-.037.058-.076.021-.109l.236-.038.099.118c.051.054.146.062.227.021.078-.042.138-.067.069-.154l.294.046c.043.079.098.13.137.138.037.009.112.003.171-.034s.101-.017.025-.16l.302-.076.118.207c.029.061.117.063.213-.003.098-.068.215-.16.155-.363l.302-.062c.103.209.126.268-.109.494-.233.228-.49.308-.616.257s-.217-.066-.305-.017c-.089.051-.249.059-.35.008-.102-.05-.152-.046-.256 0-.104.046-.319.072-.415-.003-.098-.077-.117-.093-.189-.031-.071.063-.146.106-.319.114l-.612.052c-1.562.056-3.038-.042-4.399-.287l.707-.149zm-5.097.408c-.055.193-.118.445-.211.55-.092.104-.201.222-.486.222-.286 0-1.159.009-1.276.018-.118.008-.235-.059-.302-.152s-.201-.125-.311-.093c-.109.035-.21.043-.344-.133-.134-.177-.176-.311-.109-.437l.109-.276.235.143c-.125.067-.184.159-.184.252s-.049.296.436.235c.134-.017.193.034.235.083.042.05.101.093.235.093h1.092c.151 0 .344-.066.402-.185l.143-.379.336.059zm-2.879-.786c.059-.149.256-.322.395-.317.138.004.205.023.264.054.059.029.101.047.038.117l-.21.306.302.076c.052-.063.151-.276.27-.356.091-.063.121-.145.239-.058.096.071.088.08.038.146l-.214.324.294-.046.218-.342c.042-.062.109-.121.209-.066.101.055.118.096.101.167-.02.087-.078.181-.133.256l.236.038c.04-.037.211-.344.241-.427l.168.007c.051.025.093.105.08.169l.013.305.311-.018c-.004-.203-.003-.549.075-.675l.105.009c0 .026.01.391-.001.673l.215.008.147-.155c.013-.084.042-.093.172-.088 2.489-.05 4.285-.202 5.847-.822-1.797.588-4.332.62-5.927.617l-.125-.043-.071-.089c-.039-.053.008-.096.121-.099 4.608-.085 8.695-.862 11.061-3.996 2.043-2.707 1.963-6.503.937-9.027 1.3 2.971 1.208 6.353-.641 9.194-2.134 3.28-7.118 5.021-11.441 4.617-.063-.005-.113-.005-.08-.109l-.215-.008-.006.117-.168-.008-.004-.116-.311.018c.003.069.017.102-.118.102-.231 0-.309-.009-.363-.046-.054-.037-.055-.076-.021-.109l-.236-.038-.098.118c-.051.054-.147.062-.227.021-.08-.042-.138-.067-.071-.154l-.294.046c-.042.079-.097.13-.134.138-.038.009-.114.003-.172-.034-.059-.037-.101-.017-.025-.16l-.302-.076-.118.207c-.029.061-.117.063-.214-.003-.098-.07-.216-.162-.157-.365l-.303-.062c-.101.209-.126.268.109.494.235.228.491.308.617.257s.218-.066.306-.017c.088.051.249.059.349.008.101-.05.151-.046.256 0 .104.046.319.072.416-.003.096-.077.118-.093.189-.031.071.063.146.106.318.114l.613.052c5.473.199 9.905-1.512 11.986-4.735 2.694-4.171 1.547-8.764-.469-11.147 1.947 2.585 2.35 7.588-.068 10.745-2.524 3.296-7.234 3.928-11.298 3.896-.067-.011-.092-.077-.024-.137.067-.059.083-.066-.051-.185-.135-.117-.168-.101-.293-.05-.126.05-.176.118-.143.194.034.074.042.134-.084.117-.125-.018-.192-.034-.293.008-.101.041-.185.075-.286 0-.101-.076-.185-.066-.311-.018-.126.051-.185.01-.311-.049l-.251.016c-.083.017-.244.025-.386-.041-.143-.068-.302-.084-.462.034-.159.116-.361.374-.428.478l.302.062zm7.278-15.726l.007.078.044.041.036-.04.026.002.042.04.036-.026.011-.093.019-.001.004.097.043.027.041-.038.022.004.037.041.044-.019.015-.095.018.001-.002.092.042.032.042-.035.025.003.036.043.04-.021.026-.1.015.003-.013.098.042.034.047-.029.026.007.027.039.042-.005.031-.103.021.006-.023.162-.022.02c-.244-.05-.61-.079-.856-.079-.245 0-.611.029-.855.079l-.022-.02-.023-.162.022-.006.03.103.041.005.028-.039.027-.007.047.029.042-.034-.013-.098.015-.003.026.1.04.021.036-.043.024-.003.043.035.042-.032-.002-.092.016-.001.016.095.044.019.038-.041.023-.004.041.038.043-.027.004-.097.019.001.011.093.036.026.042-.04.026-.002.036.04.044-.041.007-.078h.015zm6.765 10.51c-.109.176-.381.534-.555.655-.251.176-.943.261-1.805-.21-.462-.253-1.016-.681-1.544-.379.26-.621.973-.872 1.829-.527.859.344 1.437.653 2.075.461zm-.679.839c-.219.102-.494.274-.663.371-.263.146-.44-.149-.049-.232l.712-.139zm-.438.504c-.238.075-.522.101-.746.033-.371-.107-.368.137-.177.182.159.037.634-.038.923-.215zm-.43.318c-.321.075-.719.145-.925.067-.205-.075-.093-.234.121-.145.215.088.614.1.804.078zm-.607-.809l-.217.528c-.105.24-.344.094-.202-.084.109-.135.32-.302.419-.444zm-.318.008l-.299.654c-.205.318-.403.13-.214-.069.145-.155.397-.446.513-.585zm.562 1.015c-.178.037-.604.002-.772-.088-.205-.107-.368.073-.168.168.176.086.744-.013.94-.08zm-.857-1.008c-.151.19-.436.656-.56.84-.224.33-.482.095-.181-.141.302-.234.616-.571.741-.699zm-.376.191c-.173.083-.475.123-.678.112-.199-.011-.317.229-.06.235.257.006.514-.195.738-.347zm.242-.325c-.214.134-.5.296-.7.29-.2-.005-.2-.205.044-.228.247-.023.414-.011.656-.062zm-.868-.655c-.056.208-.044.471.006.632.049.163-.09.316-.174.118-.095-.225.057-.576.168-.75zm2.115.611l-.276.494c-.103.134-.356.059-.157-.117.203-.175.307-.297.433-.377zm-1.069-.411c-.253.216-.486.069-.635.171-.104.071-.139.229.134.189.222-.035.411-.181.501-.36zm.297-1.593c-.016.123.09.285.163.408.072.123-.011.273-.156.128-.148-.145-.057-.408-.007-.536zm-.235.242l.105.256c.007.106-.096.167-.156.062-.04-.067.018-.24.051-.318zm.43-.673c0 .129.052.359.157.486.09.109-.015.299-.168.096-.134-.179-.039-.414.011-.582zm.784.498c-.129.213-.364.526-.561.583-.195.055-.224-.146-.043-.23.179-.084.375-.129.604-.353zm.509-1.399c-.043.24-.141.492-.302.56-.161.066-.185-.102-.022-.18.126-.059.213-.173.324-.38zm.141.302c-.191.163-.603.635-.722.763-.273.29-.367-.033-.135-.169.23-.136.594-.364.857-.594zm.032.962c-.032.235-.071.678-.032.867.062.304-.157.348-.258.118-.102-.229.179-.508.29-.985zm.247-.414c.09.319.163.666.073.862-.09.195-.303.167-.219-.161.085-.33.163-.443.146-.701zm.179-.313c-.004.203.079.442.196.583s-.032.417-.162.18c-.067-.125-.073-.545-.034-.763zm-.719.247c-.193.293-.596.705-.705.771-.108.067-.209.019-.135-.134.075-.151.337-.192.446-.302l.394-.335zm1.146 1.484l-.462.278c-.093.008-.144-.009-.026-.092.118-.084.345-.181.488-.186zm.118-.39c-.152.182-.606.571-.87.605-.265.033-.23-.205-.029-.253.203-.044.776-.213.899-.352zm.357-.503c-.19.188-.647.537-.815.599-.168.063-.317-.117-.024-.208.293-.094.615-.24.839-.391zm.293-.453c-.163.126-.483.416-.633.566-.152.151-.411.005-.117-.155l.75-.411zm.02-.294c-.163.126-.475.397-.601.546-.125.146-.36-.03-.069-.188l.67-.358zm.03-.301c-.173.139-.636.537-.797.579-.176.045-.252-.029-.038-.182.231-.162.432-.109.835-.397zm.121-.353c-.112.097-.461.376-.569.486-.188.193-.36-.007-.096-.133s.472-.232.665-.353zm.261-.651c-.163.277-.476.672-.639.748-.162.076-.26-.084-.066-.189.193-.106.524-.366.705-.559zm-1.423.638c-.016.159.051.444.08.571.043.186-.083.318-.163.155-.079-.163.025-.545.083-.726zm.244-.226c.05.163.068.511.042.613-.024.099-.192.121-.143-.059.052-.181.11-.403.101-.554zm.276-.286c.089.24.103.395.075.483-.023.088-.2.071-.158-.118l.083-.365zm-2.409 1.15c.069.159.161.357.143.454-.017.096-.065.149-.146.062-.117-.126-.143-.377-.054-.616.088-.239.134-.361.2-.609.069-.248.194-.693.958-.768.765-.076 1.527-.109 2.207-.789.067-.067.067.021.034.118-.168.486-.211.99-.956 1.226-.748.235-1.646.377-1.989.537-.345.159-.447.268-.397.385zm.563-.491c.017.172-.013.494-.176.609-.164.112-.282-.025-.144-.169.14-.141.282-.285.32-.44zm-.092 4.444c-.353.285-.939.621-1.26.638-.318.019-.302-.108.026-.243s.772-.101 1.234-.395zm-1.757.303c.3-.101.535-.057.733-.127-.362.009-.684-.324-1.009-.123l.276.25zm-.778-.707c.242-.011.419.031.589-.04-.114.086-.25.184-.391.241l-.198-.201zm-.25-.185l-.003-.091c0-.143.126-.504.203-.646.075-.144.041-.017.032.083-.008.102.018.319.052.445.032.117.014.28-.15.3l-.134-.091zm-.162.018c-.052-.089-.052-.282-.016-.369.041-.1.064-.074.107-.024l.144.117-.034.118c-.034-.067-.101-.084-.133-.043-.031.039-.012.115.038.173l-.106.028zm1.537-1.478c-.026.16-.075.345-.185.43-.109.082-.15-.017-.135-.186.018-.166.195-.209.32-.244zm-.513.043c.009.167.043.462.017.555-.024.092-.083.168-.158.017-.078-.153.049-.388.141-.572zm4.626-4.734c-.066.159-.337.654-.395.814-.06.159-.444.134-.201-.118.242-.251.462-.469.596-.696zm-1.007.193c.066.143.185.336.268.436.084.101.059.278-.126.16l-.142-.596zm-.075.436c-.102.134-.169.286-.227.42-.06.134-.228.167-.219.025.008-.142.227-.327.446-.445zm-.857.009c0 .135.184.26.269.352.083.092.075.294-.109.21-.185-.084-.168-.427-.16-.562zm-.571.101c.08.179.293.21.336.462.034.203-.043.184-.169.084-.125-.101-.192-.437-.219-.512-.023-.076.019-.109.052-.034zm.654-.554c.076.109.227.252.261.37s-.034.219-.145.134c-.106-.085-.106-.412-.116-.504zm.035-.546c.109.118.261.319.269.496.009.176-.144.167-.167 0-.027-.169-.053-.362-.102-.496zm.712.571c-.059.21-.168.445-.267.503-.103.06-.126.025-.086-.109.044-.134.227-.268.353-.394zm-.041-.587c.008.201-.05.537-.159.655s-.16.083-.135-.076c.026-.16.193-.378.294-.579zm-.319-.639c.085.277.126.554.094.697-.035.143-.094.21-.169.033-.075-.175.043-.512.075-.73zm.604-.259c.026.167.161.334.227.436.118.185-.047.292-.176.151-.084-.092-.067-.445-.051-.587zm-.067.553c.151.193.293.394.302.487.008.092-.041.159-.142.059-.102-.101-.142-.403-.16-.546zm1.142.63c-.02.098-.168.445-.21.512-.043.067-.072.059-.034-.021l.21-.496.034.005zm-.084-.491c-.097.193-.311.776-.486.915-.177.139-.27.034-.123-.138.146-.173.411-.421.609-.777zm-1.074.289c.046.139.154.336.238.424.085.088.055.286-.075.189-.129-.096-.168-.424-.163-.613zm1.071-.801c-.086.155-.283.518-.354.747-.144.462-.491.299-.164-.088.113-.134.299-.315.491-.667l.027.008zm-.072-.47c-.049.312-.169.474-.278.751-.104.265-.422.352-.213-.05.159-.307.314-.248.461-.718l.03.017zm-.115-.403c-.07.223-.109.42-.135.533-.046.21-.196.395-.265.361-.066-.033-.007-.281.086-.386.092-.105.192-.231.259-.479.017-.062.081-.109.055-.029zm-.415-.332l.072.445c.024.104.003.319-.106.319s-.12-.21-.074-.323c.045-.114.058-.323.063-.42.003-.097.029-.151.045-.021zm-.369.659c.067.092.265.302.269.428s-.131.143-.155-.004c-.026-.147-.063-.323-.114-.424zm-1.495 2.472c-.259-.559-.317-.94-.116-1.394.202-.453.613-1.233.83-1.578.103-.162.109-.034.117.076.011.108.077.361.117.47.136.008.396-.025.505-.067.109-.042.107.009.016.126-.679.872-1.36 1.763-1.393 2.309-.009.142-.016.184-.076.058zm-.696-3.118c.229.144.184.691.491.948.051.042.089.113.08.185-.008.072-.06.034-.168-.075-.109-.109-.193-.185-.234-.45-.043-.264-.103-.503-.189-.562-.09-.059-.06-.097.02-.046zm.219.079c.451.481.368.811.462.907.092.097.193.096.075-.151-.143-.298-.012-.458-.474-.789-.059-.042-.13-.038-.063.033zm.779.873c-.058-.386-.176-.662-.521-.89-.275-.185-.487-.354-.515-.508-.021-.117.017-.117.055-.038.037.08.252.252.332.285.079.034.112.025.07-.042-.041-.067-.084-.26-.075-.365.008-.105.059-.068.126-.005.066.063.176.181.185.386s.087.128.113.067c.059-.139.117-.277.177-.336.059-.059.084-.049.046.059-.103.281-.092.743.096 1.255l-.089.132zm1.394-1.98v.748c-.021.05-.075.062-.043-.076.051-.214-.104-.391-.007-.684.027-.083.072-.051.05.012zm-.36 1.41c.001.05-.08.104-.083.017-.011-.227.049-.537.166-.738-.126-.487-.149-.932-.04-1.2-.035.343-.02.873.142 1.191-.068.193-.194.503-.185.73zm-.345-.546c-.012-.117-.101-.336-.176-.403-.075-.067-.143-.075-.135.051.009.126.084.293.177.369.091.075.143.067.134-.017zm.075-1.846c-.041.159-.024.495.042.705-.042.159-.062.484-.008.63.025.066.043.159-.059.042s-.034-.537-.008-.663c-.065-.236-.042-.556.033-.714zm-.201-.294c0 .327-.066.873-.023 1.032.04.16.012.551-.169.521-.151-.025-.059-.311.017-.571.075-.259.109-.604.126-.789.015-.185.049-.294.049-.193zm-.242-.294c-.033.244-.026.739-.009.898.017.16-.011.478-.135.47-.126-.008-.084-.344-.041-.521.041-.176.116-.638.133-.797.017-.159.068-.176.052-.05zm-.63 1.444c.074.101.418.075.512.219.092.143.092.251-.101.184-.192-.068-.344-.269-.411-.403zm-.269-.471l.521.21c.092.126.051.244-.142.176-.194-.066-.322-.293-.379-.386zm-.109.051c.143.293.185.663.067.763-.117.101-.243-.017-.169-.193.076-.175.127-.377.102-.57zm-.755.302c.091.109.377.285.502.336.126.05.235.302-.051.218-.284-.084-.375-.386-.451-.554zm-.261-.445c.144.143.387.243.529.286.144.042.151.234-.051.184-.201-.05-.402-.335-.478-.47zm.739-.327c.135.244.185.521.16.688-.025.168-.235.109-.211-.042s.102-.454.051-.646zm.185-.042c.117.126.377.109.505.26.125.151-.011.201-.187.109-.177-.092-.235-.227-.318-.369zm.797-.831c-.04.149-.034.454.016.663.052.21.018.621-.108.621-.125 0-.134-.219-.075-.419.06-.202.1-.764.117-.856.016-.094.075-.102.05-.009zm-.336-.529c0 .252.05.672.083.823.035.151.059.42-.051.429-.107.008-.149-.244-.107-.446.041-.201.041-.679.032-.78-.007-.102.043-.127.043-.026zm-.544.184c.074.235.335.361.335.571s-.186.193-.252.017c-.067-.176-.093-.336-.083-.588zm-.321.387c.066.167.328.369.613.52.192.103.158.344-.101.209-.261-.133-.469-.545-.512-.729zm-.109.319c.168.235.228.554.185.713-.041.16-.158.176-.209-.05-.05-.227-.009-.504.024-.663zm-.63-.159c.236.126.387.302.395.436.009.134-.04.126-.167.033-.127-.092-.177-.268-.228-.469zm-.158.402c.15.151.403.285.545.327.144.042.279.21.203.294-.103.11-.514-.16-.748-.621zm1.343 8.88c-.018-.254.083-.679.368-.93.178-.158.286-.371.328-.454.04-.085.1-.117.024.024-.074.144-.126.27-.143.479-.018.21-.058.445-.127.529-.066.084-.149.058-.066-.06.084-.118.109-.302.117-.411.009-.107-.059-.101-.134.018-.075.117-.227.345-.251.746-.007.119-.108.203-.116.059zm-3.731 4.283c-.029.008-.395-.049-.167-.259.135-.124.33-.156.51-.151l.832-.016.023.061.038.162c.034.073 0 .083-.116.045-.362-.121-.75.061-1.12.158l-.039.091c.647-.185.999-.294 1.344-.051.078.056.159.034.092-.066-.066-.103-.117-.261-.135-.411.923-.135 1.503-.454 1.126-.815-.379-.36-1.117-1.023-1.226-1.116-.109-.091-.177-.132-.396-.051-.47.177-1.175.462-2.182.462s-1.712-.285-2.182-.462c-.218-.081-.286-.04-.394.051-.109.093-.849.756-1.226 1.116-.377.361.201.681 1.125.815-.017.15-.067.309-.135.411-.067.101.016.122.093.066.344-.243.764-.134 1.342.051l-.039-.091c-.302-.098-.755-.279-1.119-.158-.118.038-.151.028-.118-.045l.039-.162.022-.061.834.016c.18-.005.375.027.509.151.135.123.201.354-.168.259l.039.091c.319.079.345-.067.378-.185.034-.117.076-.151.135-.251.202.032.705.058.864.058v-.092c-1.511 0-2.543-.328-3.466-.756-.198-.092-.216-.133-.067-.26.285-.244.721-.646.915-.831.193-.186.206-.175.395-.101.562.219 1.502.461 2.224.461.723 0 1.662-.242 2.225-.461.189-.074.201-.085.394.101.193.185.63.587.915.831.15.127.13.168-.066.26-.925.428-1.955.756-3.467.756v.092c.16 0 .664-.025.866-.058l.134.251c.034.117.127.264.377.185l.038-.091zm-3.455-2.011l-.072.033-.042-.062-.093-.013-.042.062c.009.06.017.098.08.086l.125.021.101.017c.045-.017.05-.08.017-.112l-.074-.032zm-.575.137c.206.169.249.227.592.206l.131.013.096.092.084-.007c.042-.04.092-.174.096-.216l-.016-.083.016-.075.076-.021-.008.105-.035.13c-.012.126-.038.213-.088.256-.05.041-.108.029-.155 0l-.113-.093c-.31 0-.575-.071-.692-.256l.016-.051zm-.398.546c.056.053.206.143.348.118.143-.026.158-.096.181-.152l-.017-.047-.042.009-.005.066.04.031-.031.037c-.067-.028-.128-.109-.076-.163l.069-.078.083.004c.059.079.062.103.053.152l-.082.14-.031.023c-.024.031-.111.048-.186.043-.074-.003-.186-.029-.308-.158l.004-.025zm.589.184c.066.043.187.096.296.069.109-.023.113-.089.044-.207l-.021-.124.069.015.051.162c.009.04.024.181-.123.211-.147.029-.243-.038-.327-.102l.011-.024zm.667.017c-.039.059-.106.157.006.255.112.099.227.133.316.109.089-.022.117-.056.054-.129-.065-.071-.074-.134.01-.181l.126-.087.04-.062-.079-.022-.009-.021.07-.069.061.018.096.146-.039.072c-.067.006-.151.01-.177.05l.014.112c.053.057.062.138.008.201-.053.065-.209.098-.357.037-.149-.062-.356-.201-.163-.44l.023.011zm1.15-.489l-.022.521c-.003.066-.016.119-.066.023-.107-.203-.319-.547-.431-.67-.038-.04-.121-.069-.118.036.002.105.03.113.112.151.081.04.151.075.198.16.047.083.227.354.239.443.01.094-.069.17-.247.23l.003.024c.09-.017.224-.074.274-.156.02-.03.051-.067.073 0l.076.105.087.015h.078l.142.006c.096.022.204.014.257.003.054-.012.082-.075.068-.173l-.029-.021c0 .083.015.095-.061.112-.076.018-.149.022-.198-.003l-.109-.018c-.042.023-.126.046-.171.003-.044-.042-.089-.12-.095-.273l-.025-.515-.035-.003zm.892.84c-.044-.308-.05-.538-.042-.672l-.036-.129s-.086-.062-.072.031l.114.75.036.02zm.081-.769c.021.097.088.537.121.621.033.083.081.1.118.103l.066-.023.09-.02.096-.003.083-.021.079.012.098-.02.062-.012.08-.012c.034.009.081-.031.069-.081l-.035-.117.03-.017c.051.094.07.172.051.227l-.089.078-.099.004-.114.016-.077.028-.095.006-.095.017c-.031.016-.135.047-.229.023-.096-.026-.138-.058-.16-.191l-.095-.576c-.008-.066.023-.146.045-.042zm.252-.192l-.111.031-.028.051.042.017.102-.017.039-.043-.044-.039zm.191.093c-.054.021-.014.109.048.087.06-.024.027-.114-.048-.087zm-.16.29c-.018.145.118.234.307.208.191-.024.193-.201.125-.316l.011-.041c.069.075.185.316-.117.408-.121.035-.37-.02-.357-.255l.031-.004zm.636-.012c-.035-.017-.066.055-.021.072.045.018.053-.056.021-.072zm.411-.289c-.048-.01-.083.076-.015.089.047.009.082-.074.015-.089zm-.467-.058c.057.084.109.29.144.382.033.093.16.349.235.39.075.043.135.051.198-.029.061-.078.091-.1.167-.062.075.037.23.037.268-.055.038-.092.03-.188-.05-.286-.078-.097-.105-.088-.126-.017l-.032.132.08.029c.049.008.082.071.029.112-.057.042-.198.034-.187-.041.014-.077-.003-.131-.059-.135l-.134.055c-.055.054-.072.101-.043.121.03.021.034.084.005.109-.028.025-.088.047-.134-.052-.047-.096-.261-.55-.29-.649-.029-.101-.116-.077-.071-.004zm.769-.046c-.049-.028-.06.054-.017.066.042.014.063-.043.017-.066zm.515.251c-.054-.204-.213-.44-.264-.507l-.084-.022.022.097c.053.051.217.274.275.43.022.052.068.065.051.002zm.147-.16l-.038.093.068.029c.047 0 .202.054.193.138-.01.084-.083.125-.256.16-.086.018-.08.046-.069.089.014.041.026.062.127.032s.287-.126.287-.248c0-.12-.087-.2-.219-.275l-.093-.018z" fill="#fff"/></svg>