<svg xmlns="http://www.w3.org/2000/svg" width="64" height="48"><path fill="#fff" d="M32.008 23.991"/><path d="M0 0h64v18.78h-64z"/><path fill="#fff" d="M0 29.213h64v18.787h-64z"/><path fill="#0072BB" d="M0 18.567h64v10.433h-64z"/><path fill="#DC2F34" d="M32.007 48l-32.007-48v48h64v-48z"/><path fill="#FFD500" d="M15.552 18.78l7.386-1.84-6.114-4.52 7.532 1.108-3.899-6.512 6.514 3.898-1.108-7.532 4.519 6.115 1.861-7.387 1.861 7.387 4.519-6.115-1.107 7.532 6.512-3.898-3.899 6.512 7.532-1.108-6.114 4.52 7.387 1.84z"/></svg>