<svg xmlns="http://www.w3.org/2000/svg" width="64" height="48"><path fill="#262D62" d="M0 0h64v48h-64z"/><path fill="#fff" d="M49 15.573c-3.633 2.133-7.548 2.064-10 .348v13.263c0 4.592 2.735 9.739 10 12.429 7.265-2.689 10-7.837 10-12.429v-13.263c-2.452 1.716-6.367 1.785-10-.348z"/><path fill="#116FB7" d="M39.871 33.596c1.303 3.18 4.153 6.175 9.129 8.017 4.976-1.842 7.826-4.837 9.129-8.017h-18.258z"/><path fill="#E56D19" d="M55.572 21.683c-1.17-1.101-2.543-.603-3.633-1.565-.938-.829-2.315-1.16-3.359-1.067l.227-.44c-4.949 1.206-5.493 7.883-.977 8.649.057-.708-.499-1.137-.521-1.832.216.046.466.139.636.255-.068-.788-.749-.95-.727-1.924.045-1.971 1.025-3.193 2.792-3.339.841-.069 1.983.271 2.339.998.136.278.408.661.613.869.192.197.197.128.227-.151.06-.588 1.086-.85 2.293-.278.317.149.328.048.09-.175zm-4.337 3.698c-.362.221-.828 1.056-1.566 1.137.012-.278 0-.73-.045-.904-.419.661-.521 1.507-1.589 2.249-1.197.833-3.323 1.1-4.404-.093-.568-.626-.931-1.461-.613-2.644.213-.788.874-.83 1.237-1.159.103-.093.011-.108-.146-.127-.671-.081-.865-1.03-.296-2.458.125-.313-.045-.301-.408.359-.518.941-.512 1.828-.795 2.62-.682 1.902-.324 4.562 1.402 5.513-.085.127-.188.295-.296.423 3.911.95 7.815-.719 7.519-4.916zm-1.089-3.014c.227.464.886.789 1.089 1.415-.181 0-.521.093-.702.209.487.232.748.267 1.202.638l.113.058c1.453 1.577 2.085 3.138 1.544 4.544-.272.707-.839 1.498-1.759 1.797-1.249.406-1.59-.638-2.713-.452-.08.013-.019.079.091.128.703.312.459 1.11-.874 1.716-.103.046-.109.055.115.081.804.093 1.82-.176 2.348-.464.658-.359 1.467-.602 2.168-.939 1.373-.66 2.123-1.831 2.339-3.455.261.197.34.371.465.592.568-2.622-1.226-5.984-5.426-5.868z"/><circle fill="#fff" cx="46.174" cy="25.312" r=".237"/><path fill="#fff" d="M50.51 26.79c-.128 0-.231.106-.231.237s.104.237.231.237.231-.106.231-.237-.103-.237-.231-.237zm1.816-3.882c-.129 0-.232.106-.232.237s.104.237.232.237.231-.106.231-.237-.103-.237-.231-.237zM31.979.02h-3.895l-8.084 5.98v-6h-8v6l-8.11-5.98h-3.861v2.915l6.748 5.075h-6.748l-.029 7.99h7l-6.971 5.081v2.915h3.861l8.11-5.996v6h8v-6l8.084 5.996h3.895v-2.915l-6.979-5.081h7l-.021-7.99h-6.782l6.782-5.075z"/><path fill="#DC2F34" d="M29.467.02l-10.663 7.995h2.552l10.623-7.995zM31.979 23.996l-10.634-7.99h2.564l8.07 6.085zM10.713 8.015l-10.684-7.995v1.91l8.109 6.085zM10.692 16.006l-10.663 7.99h2.551l10.665-7.99zM32 10h-14v-10h-4v10h-14v4h14v10h4v-10h14z"/></svg>