<svg xmlns="http://www.w3.org/2000/svg" width="64" height="48"><path fill="#E40520" d="M0 0h64v48h-64z"/><path fill="#fff" d="M32 24"/><path d="M32 14.205c-.419-.07-.431-.197-.219-.489.088-.124.016-.197-.276-.112-.215.063-.46-.237-.569-.375-.1-.128-.09-.151.029-.151.121 0 .346-.105.406-.18.059-.075.045-.165-.119-.135-.166.031-.655-.218-.84-.466-.09-.12-.106-.18.045-.225.15-.045.3-.135.405-.21.104-.075.045-.165-.15-.195s-.62-.259-.809-.496c-.061-.076-.12-.165.06-.21.18-.045.614-.346.734-.51.12-.166.135-.347-.209-.196-.345.15-1.035.196-1.438.105-.854-.406-2.099-.932-2.579-.166-.81-.045-1.783-.09-1.603.917.16-.015.249-.106.3-.21.07-.146.312-.172.539-.09.198.072.36.177.214.354-.076.09-.368.135-.547.09-.181-.045-.514-.098-.709-.12-.131-.015-.39-.18-.508-.413-.121-.233-.427-.511-.622-.346s.037.443.231.616.591.391.801.391c.279 0 .548.067.69.097.067.531.764.771 1.35.756.583-.015 1.355.27 2.066.859.922.763 1.575 3.287.015 3.287-.973 0-.824-.977-.794-1.533.031-.556-.27-1.156-.929-1.397s-2.008-.707-2.384-.917c-.148-.105-.308.267-.328.481-.015.15-.185.163-.66.015-1.35-.421-2.578-1.142-3.163-2.254-.584-1.112-1.686-.019-1.139.917.659 1.126 2.863 2.043 4.256 2.223.648.083.642.86.03.946-1.275.181-2.521.156-3.298-.856-.601-.781-1.189-.079-.929.542.553 1.321 2.437 1.88 4.27.992.435-.21.901-.176.526.345-.945 1.307-2.202 1.509-3.778.541-.464-.286-.823-.241-.929-.06-.184.316-.266.603.27.991 1.185.856 2.556.796 3.657.226.436-.226 1.229-.406.524.526-.704.932-2.502 1.412-3.237.887-.735-.526-1.649-.046-1.063.766.584.811 1.798.601 2.354.3.553-.3 1.408-.706 1.768-.871.358-.166.527.117.119.586-.914 1.051-1.855 1.935-3.131 1.518-.734-.241-1.409-.271-1.215.63.194.901 1.709.962 2.459.511.748-.451 1.422-.962 1.873-1.397.449-.436.903-.419.404.315-1.124 1.653-2.085 2.863-3.687 2.554-1.484-.285-1.115.607-.794.887.914.795 2.517.585 4.436-1.773.149-.185.401-.131.27.21-.854 2.208-2.278 3.635-3.657 3.29-.717-.179-1.417.22-.689.857.824.722 2.324.449 3.402-.752 1.078-1.202 1.737-2.058 1.978-2.508.24-.452.599-.467.554.119-.045.586-.479 1.728-1.245 2.104-.394.192-.748.629 0 .961.75.33 1.634-1.008 2.354-2.959.084-.229.581-.287.571.15-.015.615-.316 1.126-.645 1.427-.331.301-.074.804.374.601.629-.285 1.027-.704 1.273-1.337.136-.345.439-.465.27.076-.51 1.622-1.648 2.404-3.147 3.154l.629.677c-.921.473-1.889.788-2.652 1.104-.607-.406-1.147-.632-1.417-1.016-.09-.518-.721-.742-1.124-.518-.697-.27-1.192-.203-1.237.45.405-.066.741-.136 1.034.137.135.314.561.472.967.336.45.271.832.542 1.101.722-.854-.023-1.483-.066-1.933-.111-.428-.43-.832-.43-1.147-.137-.516-.111-.921.128-1.057.58.391-.046.75-.181 1.005-.046.21.391.794.406 1.168.119.571-.015 1.68-.029 1.934-.029l-1.05.632c-.884-.182-1.363.164-1.304.811-.209.33-.195.796.06 1.007.06-.27.21-.617.419-.811.54.105.93-.076 1.094-.677l.975-.631c.18-.12.323-.259.734-.075.405.18.779.331 1.019.466.135.526.644.557.974.315.21.12.39.33.51.556.195-.345.09-.811-.285-.932-.136-.405-.615-.54-.959-.345l-.869-.392c.583-.21 2.068-.767 2.592-.992.494.377 1.049.737 1.453.632.06-.36.246-.657.495-1.172.397-.819.892-1.586 1.297-2.058.404-.475.814-.202.787.45-.068 1.578-1.229 3.937-2.938 4.027-.583.03-.816.15-.495.585.301.405 1.23.459 1.746.075.517-.384.696-.36.593.151-.105.511-.69.704-1.124.735-.629.045-1.35.27-.765.812.585.54 1.543.24 2.249-.571.245-.281.437-.361.418.089-.029.783-.493 1.278-.973 1.385-.479.104-.959.231-.825.509.225.466.975.541 1.393.316.421-.226.869-.646.96-.901.09-.256.273-.109.225.239-.105.752-.629.737-.629 1.353s.51 1.217 1.109 1.894c.599-.677 1.11-1.277 1.11-1.894 0-.615-.525-.601-.631-1.353-.048-.349.135-.495.225-.239.091.255.541.676.96.901.419.225 1.169.149 1.394-.316.134-.277-.346-.405-.824-.509-.48-.106-.944-.602-.974-1.385-.018-.45.174-.37.42-.089.704.812 1.662 1.111 2.247.571.585-.542-.135-.767-.764-.812-.435-.031-1.02-.225-1.125-.735-.104-.512.076-.535.592-.151.517.384 1.445.33 1.746-.075.322-.435.089-.555-.494-.585-1.708-.091-2.87-2.449-2.938-4.027-.027-.652.382-.925.788-.45.405.472.898 1.238 1.297 2.058.248.515.434.812.494 1.172.404.105.959-.255 1.453-.632.524.226 2.009.782 2.593.992l-.869.392c-.344-.195-.823-.061-.959.345-.375.121-.479.587-.285.932.12-.226.3-.436.51-.556.329.241.84.211.974-.315.24-.135.614-.286 1.021-.466.41-.184.553-.045.732.075l.976.631c.163.601.555.782 1.094.677.21.193.359.541.421.811.253-.211.27-.677.059-1.007.06-.646-.42-.992-1.304-.811l-1.049-.632c.254 0 1.363.015 1.933.029.376.287.959.271 1.169-.119.255-.135.615 0 1.005.046-.136-.452-.54-.691-1.057-.58-.314-.293-.72-.293-1.146.137-.45.045-1.079.088-1.934.111.27-.18.651-.45 1.103-.722.404.136.831-.021.966-.336.292-.272.629-.203 1.033-.137-.043-.653-.538-.72-1.236-.45-.403-.225-1.033 0-1.124.518-.27.384-.808.609-1.416 1.016-.764-.316-1.73-.632-2.652-1.104l.629-.677c-1.498-.75-2.637-1.532-3.146-3.154-.169-.541.134-.421.27-.076.247.633.645 1.052 1.275 1.337.446.203.703-.3.373-.601-.329-.301-.629-.812-.645-1.427-.011-.437.485-.379.569-.15.72 1.952 1.604 3.29 2.354 2.959.749-.332.395-.769 0-.961-.766-.377-1.2-1.518-1.245-2.104-.045-.586.314-.571.555-.119.24.45.899 1.306 1.978 2.508 1.079 1.201 2.578 1.474 3.402.752.728-.638.028-1.036-.688-.857-1.381.346-2.803-1.081-3.658-3.29-.131-.341.121-.395.27-.21 1.92 2.358 3.522 2.568 4.437 1.773.32-.28.69-1.172-.794-.887-1.603.309-2.563-.901-3.688-2.554-.499-.734-.043-.751.405-.315.45.436 1.125.947 1.874 1.397s2.264.39 2.458-.511-.48-.872-1.215-.63c-1.275.417-2.218-.466-3.132-1.518-.407-.469-.239-.751.119-.586.359.165 1.215.571 1.77.871.554.301 1.768.511 2.353-.3.585-.812-.329-1.292-1.064-.766-.734.525-2.532.045-3.236-.887-.705-.932.09-.751.524-.526 1.101.571 2.473.631 3.657-.226.536-.389.454-.675.27-.991-.105-.181-.464-.226-.929.06-1.577.968-2.833.766-3.778-.541-.376-.521.091-.556.525-.345 1.835.888 3.718.33 4.271-.992.261-.62-.328-1.322-.929-.542-.777 1.013-2.022 1.037-3.297.856-.611-.086-.617-.863.029-.946 1.394-.18 3.597-1.097 4.257-2.223.548-.936-.555-2.029-1.14-.917-.583 1.113-1.812 1.833-3.161 2.254-.476.148-.646.135-.659-.015-.022-.214-.181-.586-.33-.481-.375.21-1.724.676-2.383.917-.66.241-.961.841-.93 1.397.03.556.18 1.533-.794 1.533-1.56 0-.907-2.524.015-3.287.712-.59 1.483-.875 2.068-.859.584.015 1.281-.226 1.349-.756.143-.03.411-.097.69-.097.209 0 .605-.218.801-.391.194-.173.428-.451.232-.616s-.502.113-.622.346-.378.398-.51.413c-.194.022-.527.075-.709.12-.18.045-.471 0-.546-.09-.146-.176.015-.282.213-.354.229-.082.47-.056.54.09.051.104.14.195.3.21.18-1.007-.793-.961-1.604-.917-.479-.766-1.725-.24-2.578.166-.403.091-1.094.045-1.438-.105-.346-.151-.331.03-.21.196.119.165.554.465.733.51.18.045.121.135.06.21-.188.237-.614.466-.809.496-.195.03-.254.12-.15.195.106.076.255.166.404.21.151.045.137.105.045.225-.186.248-.674.497-.839.466-.164-.03-.179.061-.12.135.06.075.285.18.406.18.118 0 .129.023.028.151-.109.138-.353.438-.569.375-.292-.084-.364-.012-.276.112.214.292.202.419-.217.489z"/><path d="M28.028 10.839c-.246-.124-.523-.165-.734-.075-.21.09-.253.3-.014.376.238.075.553.075.719.03.165-.045.239-.225.029-.331zm7.944 0c.247-.124.524-.165.734-.075s.255.3.015.376c-.239.075-.554.075-.719.03s-.24-.225-.03-.331z" fill="#E40520"/></svg>