<svg xmlns="http://www.w3.org/2000/svg" width="64" height="48"><path fill="#E40520" d="M0 0h64v24h-64z"/><path d="M0 24h64v24h-64z"/><g fill="#FFE247"><path d="M37.256 33.116c.262-.252.5-.507.664-.726l-.738-.647c.566-.633.961-1.273 1.326-1.897l.855.494c.338-.572.852-1.622 1.027-2.294l-.936-.315c.283-.8.404-1.543.504-2.261l.98.129c.094-.658.168-1.824.07-2.513l-.98.067c-.045-.848-.219-1.58-.398-2.282l.951-.257c-.16-.645-.541-1.751-.891-2.349l-.881.438c-.367-.767-.807-1.376-1.238-1.956l.781-.604c-.398-.53-1.17-1.407-1.723-1.826l-.645.743c-.631-.567-1.27-.961-1.893-1.331l.49-.857c-.568-.339-1.615-.853-2.287-1.028l-.312.934c-.799-.282-1.541-.403-2.254-.505l-.251 2.311c4.653.599 8.252 4.586 8.252 9.416 0 2.835-1.238 5.379-3.203 7.116l2.73 2zm-3.801 2.607c-.593.261-1.332.505-1.816.63l-.256-.955c-.701.18-1.431.354-2.275.398l.066.981c-.688.097-1.851.025-2.506-.068l.128-.981c-.716-.104-1.459-.223-2.258-.505l-.312.934c-.672-.177-1.72-.688-2.289-1.026l.492-.857c-.316-.188-.639-.384-.961-.604l1.335-1.909c1.544 1.092 3.427 1.734 5.459 1.734 1.156 0 2.264-.206 3.287-.588 0 0 .576.355 1.318.825.107.07.292.127.318.286l.27 1.705zm-9.072-13.299c-1.774 2.719-.267 5.603 2.077 6.945 3.404 1.952 7.027 4.027 11.078 6.711l1.004-1.31c-6.09-4.496-13.389-9.493-14.159-12.346zm14.158 12.347c-.316.421-.576.782-.936 1.225-.309.381.143.362.316.389 1.189.168 2.393 1.44 2.861 2.347.469.905 1.016.93 1.373.739.285-.152.723-.792-.1-1.761-.869-1.025-2.057-1.897-3.264-2.877-.145-.123-.197-.112-.25-.062zM29.062 15.614l-.948 2.952h-3.115l2.532 1.836-.975 2.95 2.506-1.832 2.507 1.832-.961-2.974 2.519-1.8h-3.105z"/></g><path d="M39.143 35.896c.066 0 .121-.052.121-.118 0-.065-.055-.117-.121-.117-.062 0-.115.052-.115.117-.001.066.052.118.115.118z"/><circle cx="40.35" cy="36.784" r=".118"/><circle cx="41.455" cy="37.824" r=".119"/><path d="M38.207 35.24c-4.016-2.919-8.248-5.797-11.08-8.319" fill="none"/></svg>