<svg xmlns="http://www.w3.org/2000/svg" width="64" height="48"><path fill="#fff" d="M0 16h64v16h-64z"/><path fill-rule="evenodd" clip-rule="evenodd" fill="#63B9E9" d="M.001 48h63.999v-48h-64l.001 48z"/><path fill-rule="evenodd" clip-rule="evenodd" fill="#fff" d="M.001 33h63.999v-18h-64l.001 18z"/><path stroke="#000" stroke-width=".104" stroke-miterlimit="2.613" d="M27.361 23.976c0-2.517 2.077-4.593 4.593-4.593 2.582 0 4.658 2.076 4.658 4.593 0 2.579-2.076 4.655-4.658 4.655-2.516 0-4.593-2.075-4.593-4.655z" fill="none"/><path fill-rule="evenodd" clip-rule="evenodd" fill="#fc0" d="M31.515 19.382l.441-3.397.501 3.334c.315-.188.378-.376.378-.881v-.818c0-.629.631-.817.692-1.383.062.188 0 .251 0 .315 0 .439-.314.628-.314 1.132 0 .377.126.503.126.943 0 .251.062.63-.062.881l1.762-2.896-.882 3.272c.38 0 .568-.188.757-.628l.313-.819c.253-.566.882-.503 1.133-1.007 0 .188-.062.188-.125.314l-.692.881c-.127.377-.062.566-.251.944-.064.188-.253.755-.378.819l2.705-2.078-2.076 2.769c.315.064.628 0 .943-.377.253-.251.378-.377.631-.566.439-.44.941-.188 1.445-.503-.126.126-.188.126-.251.252-.315.251-.628.189-1.008.566-.251.251-.251.44-.564.692-.19.188-.568.629-.692.629l3.271-.818-2.893 1.699c.251.251.501.251.943.063l.817-.314c.566-.253.943.189 1.51.062-.127.126-.188.126-.315.126-.377.188-.69 0-1.13.125-.315.188-.442.314-.819.503-.189.062-.691.377-.817.315l3.333.439-3.397.503c.19.315.441.44.943.44h.819c.629 0 .817.566 1.384.63-.188.063-.188 0-.315 0-.439 0-.628-.314-1.13-.314-.378-.001-.504.126-.946.126-.251 0-.628.125-.879-.063l2.893 1.762-3.271-.881c0 .377.251.565.692.755l.753.315c.566.25.504.881 1.009 1.132-.189 0-.189-.062-.315-.126l-.882-.691c-.378-.126-.564-.064-.943-.252-.189-.062-.756-.252-.817-.378l2.076 2.706-2.705-2.077c-.126.314 0 .63.313.945.253.251.377.377.566.628.504.441.188 1.008.504 1.447-.127-.126-.127-.188-.251-.251-.253-.315-.188-.63-.504-1.007-.315-.252-.504-.251-.755-.566-.189-.189-.631-.504-.631-.692l.882 3.272-1.762-2.896c-.188.252-.253.504-.063 1.008.126.314.253.439.314.755.251.565-.188.943-.062 1.509-.127-.125-.064-.188-.127-.312l-.126-1.134c-.189-.314-.313-.439-.502-.817-.064-.189-.315-.629-.254-.819l-.501 3.337-.441-3.399c-.315.189-.44.44-.44.944v.818c0 .628-.566.817-.692 1.383v-.312c0-.442.314-.63.314-1.134 0-.378-.125-.503-.125-.943 0-.252-.063-.629.062-.944l-1.697 2.958.817-3.272c-.314 0-.566.188-.691.63-.189.313-.253.503-.378.817-.188.566-.818.504-1.134 1.007l.127-.314c.188-.377.504-.44.692-.881.188-.378.125-.566.251-.944.127-.188.252-.755.441-.817l-2.706 2.076 2.014-2.769c-.315-.062-.566 0-.943.378l-.566.565c-.442.44-1.009.189-1.448.505l.188-.253c.315-.252.693-.189 1.007-.567.314-.25.314-.439.565-.69.189-.188.566-.692.693-.629l-3.273.818 2.958-1.7c-.251-.252-.566-.251-1.006-.062-.315.126-.504.189-.755.314-.631.251-1.007-.188-1.573-.063.125-.125.188-.125.313-.125l1.133-.189c.378-.126.439-.252.819-.44.251-.063.69-.377.817-.315l-3.273-.439 3.336-.504c-.125-.314-.44-.44-.88-.44h-.882c-.63 0-.817-.566-1.384-.628.188-.064.252 0 .376 0 .378 0 .566.251 1.07.251l.944-.062c.253 0 .63-.126.943.062l-2.958-1.763 3.273.881c0-.377-.188-.566-.629-.754-.315-.127-.504-.189-.755-.315-.631-.251-.566-.881-1.07-1.132.188-.001.251.062.313.126.377.125.441.504.945.693.313.125.502.062.88.25.253.062.756.251.819.378l-2.014-2.707 2.706 2.077c.125-.314 0-.629-.378-.944-.188-.252-.314-.377-.567-.629-.439-.44-.125-1.006-.502-1.447l.251.251c.315.314.188.63.566 1.007.252.251.44.251.755.566.127.189.63.504.63.692l-.881-3.272 1.697 2.896c.253-.251.253-.504.063-1.007l-.314-.755c-.252-.566.251-1.006.063-1.509.126.125.126.188.188.315.127.377-.062.628.127 1.132.126.315.314.44.439.817.129.186.38.689.318.878z"/><path stroke="#000" stroke-width=".104" stroke-miterlimit="2.613" d="M31.515 19.382l.441-3.397.501 3.334c.315-.188.378-.376.378-.881v-.818c0-.629.631-.817.692-1.383.062.188 0 .315 0 .315 0 .439-.314.628-.314 1.132 0 .377.126.503.126.943 0 .251.062.63-.062.881l1.762-2.896-.882 3.272c.38 0 .568-.188.757-.628l.313-.819c.253-.566.882-.503 1.133-1.007l-.125.314-.692.881c-.127.377-.062.566-.251.944-.064.188-.253.755-.378.819l2.705-2.078-2.076 2.769c.315.064.628 0 .943-.377.253-.251.378-.377.631-.566.439-.44.941-.188 1.445-.503-.126.126-.188.126-.251.252-.315.251-.628.189-1.008.566-.251.251-.251.44-.564.692-.19.188-.692.629-.692.629l3.271-.818-2.893 1.699c.251.251.501.251.943.063l.817-.314c.566-.253.943.189 1.51.062-.127.126-.315.126-.315.126-.377.188-.69 0-1.13.125-.315.188-.442.314-.819.503-.189.062-.691.377-.817.315l3.333.439-3.397.503c.19.315.441.44.943.44h.819c.629 0 .817.566 1.384.63-.188.063-.315 0-.315 0-.439 0-.628-.314-1.13-.314-.378-.001-.504.126-.946.126-.251 0-.628.125-.879-.063l2.893 1.762-3.271-.881c0 .377.251.565.692.755l.753.315c.566.25.504.881 1.009 1.132l-.315-.126-.882-.691c-.378-.126-.564-.064-.943-.252-.189-.062-.756-.252-.817-.378l2.076 2.706-2.705-2.077c-.126.314 0 .63.313.945.253.251.377.377.566.628.504.441.188 1.008.504 1.447-.127-.126-.127-.188-.251-.251-.253-.315-.188-.63-.504-1.007-.315-.252-.504-.251-.755-.566-.189-.189-.631-.692-.631-.692l.882 3.272-1.762-2.896c-.188.252-.253.504-.063 1.008.126.314.253.439.314.755.251.565-.188.943-.062 1.509-.127-.125-.064-.188-.127-.312l-.126-1.134c-.189-.314-.313-.439-.502-.817-.064-.189-.315-.629-.254-.819l-.501 3.337-.441-3.399c-.315.189-.44.44-.44.944v.818c0 .628-.566.817-.692 1.383v-.312c0-.442.314-.63.314-1.134 0-.378-.125-.503-.125-.943 0-.252-.063-.629.062-.944l-1.697 2.958.817-3.272c-.314 0-.566.188-.691.63-.189.313-.253.503-.378.817-.188.566-.818.504-1.134 1.007l.127-.314c.188-.377.504-.44.692-.881.188-.378.125-.566.251-.944.127-.188.252-.755.441-.817l-2.706 2.076 2.014-2.769c-.315-.062-.566 0-.943.378l-.566.565c-.442.44-1.009.189-1.448.505l.188-.253c.315-.252.693-.189 1.007-.567.314-.25.314-.439.565-.69.189-.188.566-.692.693-.629l-3.273.818 2.958-1.7c-.251-.252-.566-.251-1.006-.062-.315.126-.504.189-.755.314-.631.251-1.007-.188-1.573-.063.125-.125.313-.125.313-.125l1.133-.189c.378-.126.439-.252.819-.44.251-.063.69-.377.817-.315l-3.273-.439 3.336-.504c-.125-.314-.44-.44-.88-.44h-.882c-.63 0-.817-.566-1.384-.628.188-.064.376 0 .376 0 .378 0 .566.251 1.07.251l.944-.062c.253 0 .63-.126.943.062l-2.958-1.763 3.273.881c0-.377-.188-.566-.629-.754-.315-.127-.504-.189-.755-.315-.631-.251-.566-.881-1.07-1.132 0 0 .251.062.313.126.377.125.441.504.945.693.313.125.502.062.88.25.253.062.756.251.819.378l-2.014-2.707 2.706 2.077c.125-.314 0-.629-.378-.944-.188-.252-.314-.377-.567-.629-.439-.44-.125-1.006-.502-1.447l.251.251c.315.314.188.63.566 1.007.252.251.44.251.755.566.127.189.63.692.63.692l-.881-3.272 1.697 2.896c.253-.251.253-.504.063-1.007l-.314-.755c-.252-.566.251-1.006.063-1.509.126.125.126.188.188.315.127.377-.062.628.127 1.132.126.315.314.44.439.817.129.186.38.689.318.878z" fill="none"/><path stroke="#000" stroke-width=".11" stroke-miterlimit="2.613" d="M32.457 22.716c-.062.127-.062.442-.062.442 0 .313.062.817.188 1.068m.063.253s.188.189.126.252c-.377.252-.439.44-.755.504-.314-.063-.377-.252-.755-.504-.063-.063.127-.251.127-.251m.691 1.447l.188-.126c.378-.001 1.133.314 1.133.314h-2.705c.314-.127.755-.252 1.133-.314l.251.126zm-.062.565c.439 0 .882-.126 1.259-.313l-2.517-.001c.439.188.63.314 1.258.314z" fill="none"/><path fill-rule="evenodd" clip-rule="evenodd" d="M32.52 26.619c-.124 0-.187.188-.502.188-.252 0-.314-.126-.44-.188.378.063.691.063.942 0z"/><path stroke="#000" stroke-width=".02" stroke-miterlimit="2.613" d="M32.52 26.619s-.187.188-.502.188c-.252 0-.314-.126-.44-.188.378.063.691.063.942 0z" fill="none"/><path stroke="#000" stroke-width=".11" stroke-miterlimit="2.613" d="M30.445 22.403c-.378 0-.629.189-.944.314.44-.001.692.314 1.07.314l.252-.062.439-.189-.188-.188c-.126-.126-.629-.189-.629-.189z" fill="none"/><path fill-rule="evenodd" clip-rule="evenodd" d="M30.382 22.716c0 .127.063.253.251.253.127 0 .253-.126.253-.252 0-.125-.062-.189-.189-.189-.125 0-.125.189-.188.315l-.062-.126c0-.125.062-.125.062-.125-.064 0-.127.062-.127.124z"/><path stroke="#000" stroke-width=".02" stroke-miterlimit="2.613" d="M30.382 22.716l.251.253.253-.252-.189-.189-.188.315-.062-.126.062-.125-.127.124z" fill="none"/><path fill-rule="evenodd" clip-rule="evenodd" d="M31.39 22.654c0-.126-.19-.188-.252-.188-.252-.062-.505-.126-.818-.126-.503 0-.629.064-1.006.253h.062c.189-.253.692-.504 1.321-.441.378 0 .755.126.755.503l-.062-.001z"/><path stroke="#000" stroke-width=".02" stroke-miterlimit="2.613" d="M31.39 22.654l-.252-.188c-.252-.062-.505-.126-.818-.126-.503 0-.629.064-1.006.253h.062c.189-.253.692-.504 1.321-.441.378 0 .755.126.755.503h-.062v-.001z" fill="none"/><path stroke="#000" stroke-width=".11" stroke-miterlimit="2.613" d="M33.401 22.466c.441 0 .692.188.943.315-.439 0-.69.313-1.068.313l-.253-.062-.439-.188.251-.189c.064-.127.566-.189.566-.189z" fill="none"/><path fill-rule="evenodd" clip-rule="evenodd" d="M32.962 22.781c0 .125.062.251.314.251.125 0 .251-.126.251-.251 0-.126-.126-.188-.188-.188-.188 0-.188.188-.188.313-.062 0-.062-.062-.062-.125 0-.126 0-.126.062-.126-.128-.001-.189.062-.189.126z"/><path stroke="#000" stroke-width=".02" stroke-miterlimit="2.613" d="M32.962 22.781s.062.251.314.251l.251-.251-.188-.188-.188.313-.062-.125.062-.126-.189.126z" fill="none"/><path fill-rule="evenodd" clip-rule="evenodd" d="M32.457 22.716c0-.125.254-.188.315-.188.251-.062.44-.125.817-.125.504 0 .631.062.946.251-.191-.251-.758-.503-1.323-.441-.377 0-.755.126-.755.503z"/><path stroke="#000" stroke-width=".02" stroke-miterlimit="2.613" d="M32.457 22.716l.315-.188c.251-.062.44-.125.817-.125.504 0 .631.062.946.251-.191-.251-.758-.503-1.323-.441-.377 0-.755.126-.755.503z" fill="none"/><path stroke="#000" stroke-width=".11" stroke-miterlimit="2.613" d="M31.138 24.605c-.189.251-.441.503-.944.565m2.705-.628c.188.44.566.44.943.629m-.125-3.272h-.378c-.315 0-.819.126-1.133.251m-2.579-.251c.944 0 1.447 0 2.014.314" fill="none"/></svg>