<svg xmlns="http://www.w3.org/2000/svg" width="64" height="48"><path fill-rule="evenodd" clip-rule="evenodd" fill="#1F2D75" d="M0 0h64v48h-64z"/><path fill-rule="evenodd" clip-rule="evenodd" fill="#E30B13" d="M64 48l-64-24 64-24z"/><path fill-rule="evenodd" clip-rule="evenodd" fill="#fff" d="M64 45.375l-56.812-21.375 56.812-21.375"/><g fill-rule="evenodd" clip-rule="evenodd"><path fill="#3E271E" d="M57.259 12.287c.548-.149 2.994-1.341 3.06-.584-.07.286-.036.53-.095.811-.096.453-.362.88-.39 1.346-.099.289-.21.649-.354.916-.284.065.034-.253-.029-.373-.054-.102-1.964.521-2.131.633-.289.194.396.217.428.209l1.608-.452c-.256.401-.648.728-.722 1.212-.214.108-.312.535-.414.723-.188.349-.542.423-.833.67-.397.182-.764.46-1.121.696l-1.177.69c.107.225 2.102.48 2.369.5-.126.202-.142.389-.079.622l.288-.056c-.015.574-2.9.081-3.376.031.366-.453 2.056.035 2.571.04.371.004.438-.486.068-.563l-1.539-.325c-.588-.123-1.271.229-1.731.66-.127.12-.521-.103-.363-.235.211-.178.491-.216.603-.504-.381-.082-.901.606-1.308.678.04-.306.705-.477.885-.729-.3-.116-.396.226-.678.173-.006.047.484-.654.184-.513-.394.184-.914.729-1.39.669.104-.111 1.757-1.023 1.098-1.203-.515-.141-1.22.853-1.767.903.08-.192 1.762-1.162 1.316-1.237-.616-.105-1.667 1.427-2.231 1.038.287-.182 2.342-1.17 1.77-1.437-.201-.094-2.197 1.314-2.279 1.114-.183-.452 2.676-.956 1.919-1.635-.271-.243-2.131 1.165-2.554 1.305-.021-.375.861-.664 1.126-.812.283-.156.577-.292.85-.467.231-.148.188-.566-.141-.522-.304.041-.977.586-1.271.731-.259.126-1.179.811-1.471.625.197-.461 1.386-.775 1.816-.983.338-.164 1.33-1.163.271-.925-.785.176-2.916 2.065-3.629 1.214.797.296 1.797-.544 2.466-.887.823-.421 1.756-.613 2.145-1.544.079-.187.225-.607.088-.804.008.011-.87.56-1.006.605-1.146.389-2.339.552-3.474 1.01-.657.266-1.299.855-1.044 1.629.241.731 1.018 1.874 1.558 2.424.387.395 2.145.249 1.895 1.158-.153.554-.102.736.586.843.156.024 1.163-.191 1.18-.155.134.291-.968.227-.549.547.694.531 1.415-.527 1.746-.32-.073.223-.317.328-.444.514.745.139 1.195-.392 1.657-.877-.079.494-.522.727-.872 1.015.188.041 1.328-.165 1.329-.163.178.477-1.595.254-1.728.23-.82-.146-1.281-.006-2.012-.426-.292-.169-.737-.233-.986-.444-.442-.376-.104-.427-.035-.842.1-.6-1.62-.606-1.924-.975-.062.309.023.653-.162.934.306-.194 1.346-.083.7.208-.089-.043-.1-.105-.031-.188-.051-.083-.937.211-1.069.208.211-.206.382-.448.362-.758-.104.056-.191.129-.264.221-.168-.154.114-.194.104-.381-.603-.167-1.059.277-1.557.534-.157.036-1.558.372-1.474-.177.216-.088.718.182 1.007.133.502-.084.859-.397 1.303-.611.152-.073.772-.003.831-.121.133-.266-.274-.881-.401-1.092-.084-.139-.478-.855-.69-.795-.322.091-.75.593-1.06.776-.701.414-1.179.824-1 1.699-.381.23-.12-.874-.057-.979.402-.667 1.136-.843 1.698-1.334.638-.558.006-1.043.288-1.8.229-.408.803-.697 1.23-.853.41-.107 1.618-.319 1.884-.614.313-.055.679-.103.969-.224.711.079 1.104-.521 1.529-.941.301.082.006.603.451.431.236-.091.484-.198.731-.257.352.06 1.402-.497 1.667-.681.081-.05.346-.326.403-.305.39.14-.244.451.364.361.375.057.996-.302 1.328-.444.19-.074.344-.125.549-.185.042.004.619.05.634.043zm.136 4.499c.315-.098.613-.231.863-.453-.542-.031-.581.347-.96.465.021.053.054.049.097-.012zm-.421.621c.413-.115.721-.423 1.06-.666-.33.132-1.103.393-1.227.725-.024.059.151.081.167-.059.418-.117-.008.07 0 0zm.138-2.782c-.315.027-2.74.833-2.665.987.281.564 2.706-.339 2.665-.987.393.326 2.672-.177 2.498-.908-.463.14-2.346.397-2.498.908-.046.003.09-.304 0 0zm0-1.669c.665-.06 1.354-.347 1.983-.57.29-.103.616-.202.877-.372.289-.189.177-.631-.195-.478-.718.296-1.408.627-2.164.824-.313.081-.643.681-.501.596zm-2.828-.117c-.74.433-1.558.702-2.369.965-.466.151-.527.181-.69.62.001-.002-.285.533-.021.464 1.091-.287 3.265-.486 3.08-2.049-.855.501.093.784 0 0zm-3.825 2.733l.341.244c.308.073.899-.284 1.191-.381.36-.12 2.093-.393 1.963-.928-.134-.552-3.164.701-3.495 1.065.201.031.617-.677 0 0zm.234.503c.586.314.659.359 1.335.16.634-.187 1.513-.301 2.049-.708.157-.12.122-.329-.03-.44-.261-.191-.759.106-1.006.19l-2.348.798c.171.092 1.038-.352 0 0zm3.849-2.401c.558.057 1.303-.222 1.807-.452.511-.233 1.025-.838.184-.798-.502.024-1.082.443-1.586.556-.329.074-.83.822-.405.694.338.034-.187.056 0 0zm-.486 1.118c.272.464.305.543.812.389.644-.197 1.26-.432 1.888-.674.171-.066.36-.483.048-.509-.26-.021-.623.2-.867.272-.624.186-1.256.345-1.881.522.105.18.535-.152 0 0zm-2.212 2.241c.625-.135 1.234-.389 1.84-.593.209-.07.505-.131.67-.289.161-.154.039-.594-.221-.466-.637.312-1.318.513-2.007.694-.059.016-.462.07-.542.177-.071.093.146.469.26.477.101-.022-.189-.012 0 0zm8.233-4.482c.097-.617-1.305.106-1.586.196-.228.073-1.753.411-1.604.669.191.332 3.213-.394 3.19-.865.045-.287.016.325 0 0zm-5.705 1.961c.622-.146 1.239-.315 1.847-.515.212-.023.388-.11.527-.262.1-.25-.156-.45-.379-.357-.55.225-1.09.365-1.673.477-.159.031-.709.056-.623.381.039.153.086.335.301.276.749-.176-.24.066 0 0zm-2.375 2.66c.272.534.566.369 1.051.183.305-.117 1.707-.461 1.748-.812.073-.622-.707-.07-.876-.013l-1.923.642c.217.424.761-.254 0 0zm4.99-3.363c.262.493.352.426.87.273.506-.149 1.638-.269 1.975-.715.402-.54-.714-.152-.822-.125-.679.172-1.349.375-2.023.567.231.434.678-.193 0 0zm-4.477 3.954c.352.147.45.347.833.188.547-.224 1.087-.466 1.631-.697.162-.049.223-.155.183-.316-.131-.301-.518-.05-.691.022l-1.956.803c.136.056.796-.327 0 0zm2.222-1.729c.324.816 1.881-.148 2.375-.433.132-.058.166-.152.104-.28-.153-.228-.417-.026-.594.049-.612.262-1.246.473-1.885.664.152.381.751-.224 0 0zm.315 1.367c-.477.167-.938.381-1.4.584-.095.042-.971.494-.285.556.37.034 1.033-.489 1.4-.613.215-.072.88-.53.285-.527zm.12-.795c.251.444 1.997-.248 2.209-.616.223-.387-.718.025-.735.032l-1.474.584c.126.223.501-.198 0 0zm2.139-.168c.022-.229-2.097.568-1.938.802.254.365 1.804-.397 1.938-.802zm-2.041 1.56c-.649.082-1.195.399-1.731.741.677-.013 1.239-.293 1.731-.741zm1.412-.347l-.05-.116c-.272.137-1.987.816-1.898 1.175.027.11 1.764-.947 1.948-1.059-.017-.038-.605.367 0 0zm2.223-2.569c-.188.056-1.541.325-1.495.551.07.342 1.56-.182 1.495-.551-.431.127.023.129 0 0zm-1.83 1.937c-.262.059-1.825.485-1.651.824.126.234 1.477-.684 1.651-.824-.555.125-.459.369 0 0zm.317-.767c.479.077 1.141-.286 1.154-.623-.393.174-.838.22-1.154.623zm-3.37 2.935c.675.247.574-1.024 0 0 .21.077.065-.117 0 0zm-.427.348c-.037-.075-.065.044 0 0z"/><path fill="#473A29" d="M47.923 30.342c-.035-.327.851-.265.945-.578.159-.522-.82-.313-1.056-.265-.565.118-.743.655-.966-.07-.029-.765-.223-.49-.859-.733-.23-.026-1.222-.434-1.227-.029-.004.287-.183.384-.446.365-.36-.026-.181.162-.366.361-.141.151-.532-.019-.673-.074-.619-.121-.188-.894-.099-1.323-.584.153-1.137.41-1.597.807-.267-.137-.263-.451-.522-.638-.033-.323-1.397-1.1-1.595-1.176-.013-.015-.655-.324-.496-.454.223-.182 1.048-.066 1.369-.102.464-.049 1.222-.149 1.618-.401.428-.267 1.1.897 1.435 1.147.185-.685.099-.983.778-1.054.695.123.141.405.444.683.15.138.312.037.496.198-.037.09-.099.396-.105.509-.014.245.765.285.983.321.152.104.901.313 1.075.234.475-.218.162-1.111.855-.385.711.746 2.028 1.503 2.786.411.157.196-.174.263-.064.438.148.242.384-.041.517.125l.787.274c.097.124.249-.575.293-.625.147.171-.022.605.089.863.087.202.514.244.713.278.553.194 1.146.27 1.704.433.672.194 1.371.312 2.057.468.195.231.693-.026.757.406-.047.439-.252.479-.666.5.056.253.103.209.08.468-.436.31-1.199.067-1.718.04-.522-.028-1.097-.106-1.613-.087-.759-.032-1.699-.299-2.432-.171-.237.041-.334.262-.549.302-.153.028-.335-.097-.507-.094l-.444-.172c-.206.044-.424.056-.633.019-.248-.043-.431-.289-.663-.307l-1.187-.075c-.216-.013-.729-.142-.93-.031-.027.015-.163.454-.24.533.83.061 1.663.045 2.496.048.456.002 1.327-.252 1.094.408.865-.02 1.782.067 2.527-.466.021.28-.101.459-.214.714.459-.049 1.235-.232 1.677-.099-.204.437-.517.524-1 .583.23.134 1.685.628 1.276.76-.194-.032-.479.064-.695.068-.28-.002-.776-.13-1.041-.057.235.318.566.537.904.732-.123.668-1.521-.235-1.709-.346-.05.502-.065.75-.492.27-.201-.327-.868-.806-1.262-.747.166.422-.102.77-.224.301.328-.313-.459-.433-.323-.654.279-.427 1.95 1.007 2.135 1.204 0-.125-.186-.871.069-.704.487.319.844.812 1.508.689-.146-.13-.949-.632-.808-.907.04-.08 1.354.042 1.547.02-.455-.262-.954-.441-1.363-.78.429-.03.878.048 1.223-.273l-1.637.092.212-.52c-.86.272-1.765.289-2.656.21.028-.156.233-.178.197-.359-.421 0-3.586.262-3.712-.163-.011-.037.31-.458.339-.535.104-.272.213-.529.021-.788-.133-.179-.347-.439-.598-.435-.281.006-.329.33-.521.388-.096.029-.386-.257-.526-.278-.304-.044-.589.148-.877.111-.255-.033-.282-.314-.59-.155-.222.114-.634.491-.394.769.431.495.974 1.184 1.611 1.37.638.192 1.292.524 1.942.624.641.1 1.308.244 1.805.69.188.169.316.482.605.28.284-.198.579-.2.785.102-.504-.137-.697-.017-1.085.302-.272-.575-.737-.894-1.352-1.077-.377-.113-.769-.16-1.157-.206-.287-.034-.518-.382-.782-.373-.436-.173-.936-.132-1.321-.463-.354-.304-1.369-1.025-1.218-1.561.086-.303.3-.484.581-.602.332-.139.42.198.654.152.305-.061.574-.093.887-.105.468.165.395.144.841-.116.563-.029.788.567 1.387.593.175.008 1.143.047 1.106-.05zm4.261-.204c-.176-.188.255-.671.008-.959-.246-.289-.543.98-.646 1.196.272.066.374-.281.633-.233-.182.315-.515.418-.855.444 1.045.514 2.554-.071 3.634.359.122.049.391-.068.189-.162-.178-.082-.546-.104-.716-.145-.746-.178-1.489-.381-2.247-.5-.112-.119.886.138 0 0zm-8.73-2.716c-.434-.305-.89-1.224-1.446-1.225-.361-.001-.714.223-1.065.295-.543.112-1.1.121-1.648.185l1.063.706c.182.127 1.18 1.194 1.295 1.162.52-.146.99-.757 1.589-.706.213.018-.159 1.058-.079 1.246.065.154.64.271.704.104.224-.578.288-1.275.425-1.881.118-.521.38-.842-.138-1.023-.54-.188-.59.77-.7 1.137-.328-.231.107-.355 0 0zm12.496 4.257c0-.088.864.213.881-.091.029-.549-.828-.445-1.148-.47-1.262-.099-2.557-.126-3.809-.31-.201-.029-.914-.129-.875.248.048.484.734.347 1.08.368 1.291.082 2.581.17 3.871.255zm-7.182-2.39c.274 0 .729.092.977-.066.165-.105.282-.471-.022-.416-.617.112-1.383-.516-1.779-.906-.729-.715-.741.455-.91 1.092-.034.128-.133.753.181.586.475-.254 1.02-.308 1.553-.29.306 0-.497-.017 0 0zm8.259 1.803c.197.03.533-.118.342-.385-.18-.251-1.019-.296-1.302-.363-1.121-.269-2.241-.54-3.36-.812-.247-.061-.364.112-.334.354.039.308 1.097.378 1.335.435 1.104.263 2.212.518 3.319.771.24.037-.693-.158 0 0zm-12.152-2.951c-.097.305 1.024.382 1.21.42.499.105.734.303.976-.137.151-.271-.698-.326-.827-.354-.403-.091-1.281-.56-1.359.071-.044.138.029-.237 0 0zm2.318 2.401c-.119 0-.826-.115-.743.127.049.144-.137.333.138.35l1.06.058c.009.001 1.48-.02.943-.417-.262-.195-1.078-.096-1.398-.118zm-2.843-1.658c.347.066.768-1.83.465-1.885-.572-.102-.828 1.943-.465 1.885.173.033-.222.036 0 0zm6.234.054c.032-.347-.215-.384-.437-.169-.074.122-.129.252-.166.391l-.524.361c-.077.262.22.486.455.439.409-.08.687-.646.672-1.022.029-.316.014.352 0 0zm1.187.325c-.235-.969-.669.584-.876.846-.239.312.178.403.419.246.308-.202.432-.756.457-1.092-.027-.113-.027.364 0 0zm-1.397.966c.612-.06 1.125-1.61.503-1.446-.24.063-.267.743-.44.957-.171.211-.526.419-.063.489zm-.957.236c.109-.021.268-.235.392-.15.107.074.155.385.298.1.12-.237-.849-.509-.986-.519-.144-.011-1.105.362-.969.529.4.49 1.143-.578 1.265.04.18-.035-.065-.332 0 0zm-.196-.074c-.25.154-.875.768-.364.98.432.18.415-.786.364-.98-.273.168.082.309 0 0zm1.027.118c-.15.149-.616.906-.249 1.066.474.214.344-.897.249-1.066-.208.207.186.329 0 0zm-.415.314c-.197-.438-.4-.296-.488.218-.141.827.408.215.488-.218-.041-.091-.049.263 0 0zm1.035.324c-.024-.506-.262-.619-.357-.047-.115.676.357.678.357.047zm-1.557-1.558c-.006-.202-.326-.193-.31.019.014.174.337.169.31-.019z"/><path fill="#3E271E" d="M50.772 28.184c-.13-.17-.116-.639-.119-.864l.121-1.022c.007-.351-.073-.529-.035-.891.034-.333-.046-.863-.327-1.087-.227-.18-.162-.452-.417-.617-.311-.202-.676-.251-1.008-.488-.479-.331-1.214.07-1.75-.167.387-.117.714-.363 1.067-.549-.481-.308-1.004.078-1.504-.103.635-.007 1.107-.417 1.567-.802-.578-.046-1.111.225-1.684.228.49-.213.971-.443 1.324-.859-.549-.04-1.017.276-1.552.309.215-.083.984-.739 1.071-.652-.052.076-.089.158-.11.248.7-.003.757-.003.35.576.22 0 .694-.107.806.172.046.115-.596.501-.672.575.938.275.229.317.039.752.446.049.895.013 1.339-.038.588-.068.535-.016.784-.36-.045.063.702.197.715.2.544.119.985.439 1.22.951.02.042.752.707.31.557-.614-.203-.32.62-.374.86l-.301.219c-.163.231.052.361.013.592-.081.475-.314.887.386 1.023.186.035.527-.206.547-.145.18.565.114.822.617 1.261-.103-.324.102-.503-.065-.883-.154-.35-.351-.924-.036-1.244.055.236.164 2.047.907 1.608.345-.204-.665-1.598-.547-1.976.268.761.837 1.212 1.646 1.269-.475-.46-.532-1.182-1.009-1.637.397.42 1.009.467 1.459.805.103-.846-.77-.534-1.22-1.03.271-.134.645.216.938.226.339.011.792-.183.981-.478.12-.188-2.227.142-2.075-.278.063-.182 1.347.319 1.633-.328-.544-.059-1.695.057-1.953-.575.846.529 1.677.19 2.465-.259-.259-.058-.375-.241-.52-.437-.257-.348-.651-.249-1.019-.349.363-.191 2.325-.048 2.365-.149.219-.555-1.742-.794-1.996-.98.44-.271 1.436.627 1.758.178.433-.602-1.021-.25-1.178-.549.104-.038 1.678-.107 1.249-.345-.422-.233-1.744.071-1.951-.324.509.029 1.023-.064 1.528.029.633.117.304.093.609-.226.22.647 2.524.048 3.073.002 0 .418-2.585.146-2.943.515-.125.129-.357.604-.051.645.713.095-.182.295-.155.259.315.096 1.967.219 1.967.43-.644-.094-1.497-.32-2.132-.173l.029-.057c-.048.093.515.638.693.68.809.191 1.638.317 2.453.475-.198.298-1.682-.214-1.93-.222-.736-.289-1.771-.174-2.558-.228.256.148.306.404.512.586.146.13.308.043.41.196-.289.365-.752.494-1.158.678.237.08.733-.138.89-.017-.032.009-.429.468-.46.501.261.099.488-.088.748-.04 0 .676-1.133.693-.846 1.312.446.964-.719.116-1.032.144.031.212.677.956.611 1.088-.14.289-1.012-.063-1.171-.179-.062.304.376 1.063-.025.999-.601-.098-.888-.027-.639.663-.604.335-.456-1.105-1.148.006-.18-.225.323-.596.222-.948-.089-.309-.484-.469-.789-.408-.287.057-.424.599-.54.806-.086.155-.278.203-.423.34zm.623-2.156c-.079-.829.909-1.849.283-2.557-.283-.32-.697-.554-1.121-.617-.259-.038-1.169.143-1.354.312.406.404.963.385 1.492.35-.042.301-.698.361-.204.688.217.144.849-.017.875.028.088.15-.446.33-.508.411-.29.388.475.503.394.751-.053.155-.309-.107-.404.207-.128.408.419.488.346.716-.041.126-.399-.07-.325.207.054.198.325.327.332.506-.689.08-.233.874-.066.611.374-.591.077-1.014.26-1.613-.058-.603-.08.26 0 0z"/><path fill="#423F3D" d="M57.457 21.562l.001-.252c.342.155 1.098-.115 1.452-.148.636-.058 1.28-.107 1.902-.254.176-.042 1.009-.28.594-.656-.223-.201-.899-.02-1.166-.001-.006-.229.619-.18.822-.2.292-.028.353-.443.02-.504-.986-.184-2.421.288-3.416.42 0-.366 2.787-.418 3.207-.541.387-.113-.558-.565-.825-.495-.691.18-1.393.333-2.104.411-.028-.187 2.106-.621 2.444-.562.864.15 1.026 1.043 1.202 1.73.169.655-.04.982-.272 1.57-.123.311-.224.64-.439.903-.254.312-.646.082-.989-.012.336-.087 1.089.213 1.041-.404-.057-.724-1.884-.291-1.873-.702.498.063 1.017.033 1.494.215.13.049.428.311.583.147.084-.09.281-.49.068-.578-.342-.141-1.022-.017-1.396-.027l-2.35-.06c.001-.085 1.176.029 0 0zm.734-.15c.489.045 3.215.437 3.356-.14.159-.649-.759-.23-1.032-.175-.767.156-1.551.193-2.324.315.958.089.774-.122 0 0zm-10.954 1.636l.148.065c-.825.253-1.708.358-2.463.804-.559.33-1.34.857-1.781 1.298-.369.085-.741-.05-1.086.021-.252.051-.046.664-.411.457-.693-.393-.653-1.038-.305-1.668.282-.352.759-.593.717-1.104-.052-.646.856-.852 1.304-1.068 1.031-.499 2.003-.92 2.901-1.602.33.337-2.15 1.409-2.423 1.538-.453.216-1.137.396-1.503.747-.18.172-.402 1.146-.307 1.367.13.301.205.515.562.524.402.011 1.205.135 1.537-.138.882-.738 2.001-1.045 3.11-1.241.05.022-1.121.198 0 0zm-4.764 1.541c-.465-.017-.34-.352-.56-.654-.284-.391-.653.542-.691.704-.076.323.101.804.459.893-.087-.021.746-.881.792-.943-.191-.006-.245.33 0 0zm-.229.488c.633.167 1.312-.064 1.515-.525-.564.021-1.169-.112-1.515.525zm15.143-5.681c.109-.168.338-.213.538-.163-.152.133-.331.187-.538.163z"/><path fill="#3E271E" d="M46.266 20.194c.092-.184.179-.215.262-.093-.085.1-.262.366-.262.093zm11.473-.843c.107-.009.17-.05.188-.125.06.143-.002.184-.188.125z"/><path fill="#9C3717" d="M57.098 20.202c.099.419-.333.192-.541.154-.505-.093-1.02 0-1.528-.029.207.395 1.529.091 1.951.324.429.237-1.145.307-1.249.345.19.361 1.329-.094 1.238.395-.123.697-1.407-.276-1.818-.024.254.186 2.215.425 1.996.98-.04.101-2.002-.042-2.365.149.283.077.63.005.878.198.252.196.309.509.66.588-.788.449-1.619.788-2.465.259.258.632 1.409.516 1.953.575-.286.647-1.569.146-1.633.328-.161.446 2.036.097 2.079.182.39.774-1.95.363-1.923.349.45.496 1.322.185 1.22 1.03-.45-.338-1.062-.385-1.459-.805.477.455.534 1.177 1.009 1.637-.81-.057-1.379-.508-1.646-1.269-.093.298-.046.451.17.685.296.323.26.756.402 1.142.136.368-.536-.038-.594-.093-.368-.344-.235-.923-.339-1.366-.271.276-.146.675-.053.995.045.175.119.336.223.483.168.225-.143.416-.068.648-.354-.31-.681-.667-.613-1.175.055-.388-.299.105-.312.103-.413-.09-1.04-.304-.713-.869.15-.257-.017-.351.008-.606.024-.257.331-.232.368-.402.027-.122-.231-.935.191-.906.566.038.25-.005.014-.279-.386-.448-.48-.893-1.101-1.109-.016-.005-1.005-.231-.975-.273-.247.341.169.246-.458.321-.553.066-1.108.138-1.665.077.189-.435.898-.477-.039-.752.076-.074.718-.46.672-.575-.111-.279-.586-.172-.806-.172.407-.58.351-.579-.35-.576-.063-.252.401-.287.322-.515-.078-.223-.794-.015-.911.059.186-.28.101-.625.162-.934.458.556 1.438.195 1.875.791.251.342-.469.535-.048.905.259.224.547.267.851.419.307.154.59.386.908.513.263.104.757-.036 1.06.008.145.021 2.235.347 2.039-.179-.001-.002-1.141.204-1.329.163.35-.288.793-.521.872-1.015-.462.485-.912 1.016-1.657.877.127-.186.371-.291.444-.514-.139-.087-.407.214-.48.263-.343.227-.719.332-1.108.145-.791-.377.526-.342.392-.635.041.089-2.406.379-1.889-.428.679-1.055-1.119-.978-1.583-1.265-.316-.196-.487-.57-.673-.875-.305-.5-.702-.965-.978-1.479-.444-.833.189-1.545.948-1.852 1.023-.414 2.089-.718 3.172-.931.535-.104 1.581-1.244 1.306-.138-.252 1.012-1.087 1.234-1.917 1.643-.729.359-1.919 1.365-2.779 1.045.713.851 2.844-1.038 3.629-1.214 1.059-.238.066.761-.271.925-.431.208-1.619.522-1.816.983.255.162.929-.357 1.134-.458.336-.167.674-.332 1.015-.491.179-.083.408-.382.594-.407.202.008.302.115.298.322-.067.261-.519.409-.721.515-.305.158-1.435.561-1.412.963.423-.14 2.283-1.548 2.554-1.305.757.68-2.102 1.184-1.919 1.635.082.201 2.078-1.208 2.279-1.114.572.267-1.482 1.254-1.77 1.437.564.39 1.615-1.143 2.231-1.038.445.076-1.236 1.045-1.316 1.237.601-.055 1.07-.676 1.617-.887.383-.147.308.358.088.511-.343.237-.744.365-1.036.676.417.052.979-.419 1.31-.612.449-.263-.102.438-.104.457-.095.014-.714.279-.675.401l.468.156c.406-.072.927-.76 1.308-.678-.111.288-.392.326-.603.504-.157.133.236.355.363.235.461-.431 1.144-.783 1.731-.66l1.539.325c.369.077.303.567-.068.563-.516-.005-2.205-.493-2.571-.04.93.098 1.907.061 2.806.321.051.22-.167-.048 0 0z"/><path fill="#FBFAFA" d="M46.334 20.327c.083-.095.298-.417.457-.446.02.311-.151.552-.362.758.133.003 1.019-.291 1.069-.208.129.206-.902.787-1.041.84.535-.033 1.003-.348 1.552-.309-.354.416-.834.646-1.324.859.572-.003 1.105-.273 1.684-.228-.46.385-.933.794-1.567.802.5.181 1.022-.205 1.504.103-1.018.535-2.09.659-3.128 1.134-.445.204-.942.772-1.436.777-.373.003-1.11.172-1.441-.044-.216-.141-.427-.656-.247-.874.203-.245.069-.503.163-.771.095-.269.427-.366.653-.472.978-.459 2.884-.951 3.464-1.921.065-.076-.205.342 0 0zm-2.446 2.215c.129.089-.032.292.113.45l.269-.929c-.281.274-.631.453-.981.62-.179.065-.338.162-.479.289-.012.014-.316.598-.099.538.058-.076.103-.159.134-.25.205.266.617.424.788.002.236-.585-.566-.331.255-.72z"/><path fill="#9C3717" d="M43.59 20.066c-.179-.875.299-1.286 1-1.699.331-.196.661-.402.934-.678.293-.3.689.487.816.697.175.29.362.64.411.979.039.274-.654.144-.841.234-.858.414-1.354.779-2.32.467zm10.694-7.227c.185 1.563-1.989 1.762-3.08 2.049-.21.055.098-.884.364-.971.925-.305 1.87-.583 2.716-1.078.093.784-.855.501 0 0zm-3.825 2.733c.331-.364 3.361-1.618 3.495-1.065.126.519-1.299.712-1.628.818-.447.145-.892.295-1.329.466-.313.122-.291-.182-.538-.219.617-.677.201.031 0 0zm.234.503l2.019-.686c.133-.045 1.73-.708 1.462.018-.168.453-1.46.626-1.862.744l-.851.248c-.273.077-.526-.194-.768-.324 1.038-.352.171.092 0 0z"/><path fill="#F7F6F6" d="M57.666 19.966c.916-.122 1.832-.243 2.748-.362.169-.022.724-.191.842.07.116.258.03.355-.193.376-.687.067-3.669.751-3.896.081.146-.114.313-.169.499-.165 1.047-.139-.168.052 0 0zm.073-.615c.366-.016 3.336-.834 3.222-.036-.04.275-3.163.493-3.582.59-.112-.418-.058-.5.36-.554z"/><path fill="#9C3717" d="M54.542 13.674c-.414.125-.02-.554.207-.638.48-.177 1.285-.588 1.783-.612.617-.029.574.316.071.656-.497.337-1.462.654-2.061.594-.187.056.338.034 0 0z"/><path fill="#9A3717" d="M57.111 12.954c0-.622.714-.641 1.167-.798.416-.144 1.271-.738 1.704-.658.776.143-.836.87-.887.887-.593.211-1.351.574-1.984.569zm-3.055 1.838c.515-.146 1.024-.311 1.546-.433.146-.034 1.67-.657 1.343-.007-.198.396-1.369.612-1.765.733-.658.202-.763.324-1.124-.293.535-.152.105.18 0 0zm-2.212 2.241c-.274-.018-.348-.5-.045-.571.662-.159 1.623-.298 2.192-.686.476-.327.521.365-.048.574-.68.249-1.391.529-2.099.683-.189-.012.101-.022 0 0zm8.233-4.482c.022.471-2.999 1.197-3.189.866-.149-.259 1.376-.596 1.604-.669.28-.091 1.682-.814 1.585-.197.016.325.045-.287 0 0zm-5.705 1.961c-.356.098-.405-.506-.021-.588.569-.122 1.153-.195 1.697-.413.165-.103.343-.155.533-.159.242.077.227.441-.001.521-.723.255-1.461.464-2.208.639-.24.066.749-.176 0 0zm-2.375 2.66l1.923-.643c.169-.057.949-.609.876.013-.041.351-1.443.695-1.748.812-.485.187-.778.352-1.051-.182.761-.254.217.424 0 0zm4.99-3.363c.263-.075 2.805-.943 2.892-.701.19.517-1.374.783-1.653.866-.613.18-.912.452-1.239-.165.678-.193.231.434 0 0zm-4.477 3.954l1.638-.672c.048-.02 1.397-.536.997.041-.231.332-1.109.529-1.475.683-.607.255-.608.178-1.16-.052.796-.327.136.056 0 0zm4.601-3.139c.042.649-2.384 1.553-2.664.988-.069-.143 2.349-.979 2.664-.988zm-2.379 1.41c.532-.159 1.062-.332 1.578-.537.036-.015 1.184-.533.922-.011-.254.51-2.222 1.245-2.5.548.751-.224.152.381 0 0zm2.38-1.409c.151-.51 2.035-.767 2.498-.908.168.705-2.154 1.286-2.498.908zm-2.065 2.776c.373-.001.259.329-.029.446-.377.153-1.279.729-1.656.694-.366-.033-.226-.327-.017-.422.559-.252 1.123-.515 1.702-.718zm4.308-2.609c-.392.11-1.838.771-2.062.331-.034-.066 2.08-.865 2.157-.72.029.055-.071.348-.095.389zm-4.188 1.814l1.474-.584c.018-.007.958-.419.735-.032-.212.368-1.958 1.06-2.209.616.501-.198.126.223 0 0z"/><path fill="#953618" d="M57.306 16.438c-.134.405-1.684 1.167-1.938.802-.159-.234 1.96-1.031 1.938-.802zm-2.041 1.56c-.491.448-1.054.728-1.731.741.535-.342 1.081-.659 1.731-.741zm1.412-.347c-.184.111-1.921 1.169-1.948 1.06-.089-.359 1.626-1.039 1.898-1.175l.05.115c-.605.367-.017-.038 0 0zm2.223-2.569c.057.329-1.104.763-1.37.695-.352-.09.024-.301.111-.325l1.259-.37c.023.129-.431.127 0 0zm-1.83 1.937c-.174.14-1.525 1.058-1.651.824-.174-.339 1.39-.765 1.651-.824-.459.369-.555.125 0 0zm.317-.767c.316-.403.762-.449 1.154-.623-.014.337-.675.7-1.154.623zm-4.795 3.379c-.053-.073-.124-.12-.212-.14.104-.19.405-.157.42-.417.251-.008.414-.273.677-.172-.18.252-.845.423-.885.729-.073-.041.025-.194 0 0zm4.38-2.226c.224-.401.667-.507 1.062-.664-.344.246-.648.543-1.062.664zm.41-.635c.132-.35.54-.457.876-.438-.244.217-.573.386-.876.438zm-3.365 2.417c.574-1.024.675.247 0 0 .065-.117.21.077 0 0zm2.957-1.78c-.016.14-.19.119-.167.059.046-.123.094-.012.167-.059zm.421-.621z"/><path fill="#9A3717" d="M57.112 12.956z"/><path fill="#423F3D" d="M57.379 19.905l.148-.036c-.04.048-.092.049-.148.036z"/><path fill="#9C3717" d="M53.59 19.535c-.065.044-.037-.075 0 0z"/><path fill="#F3BE10" d="M49.387 33.849c-.129-.189-.316-.301-.548-.226-.512.167-.418.226-.843-.156-.497-.446-1.164-.591-1.805-.69-.65-.1-1.305-.432-1.942-.624-.638-.187-1.181-.875-1.611-1.37-.198-.229.047-.48.201-.628.369-.354.429-.031.782.015.202.025.444-.098.646-.115.229-.021.646.315.757.282.051-.016.327-.328.316-.322.324-.198.624.131.802.369.126.17.133.329.072.527-.033.107-.439.773-.433.796.126.425 3.291.163 3.712.163.036.182-.169.203-.197.359.892.079 1.796.062 2.656-.21l-.212.52 1.637-.092c-.345.321-.794.243-1.223.273.409.339.908.519 1.363.78-.494.057-.951.046-1.432-.072-.377-.093.642.915.692.96-.498.092-1.062-.205-1.385-.571-.411-.466-.192.388-.192.586-.565-.604-1.19-.972-1.974-1.218-.359-.115.287.455.161.664zm-5.21-2.133c.034-.259.349-.032.461-.157-.319-.26-.831-.392-1.232-.429.28.425.791.994 1.368.884-.184-.129-.431-.142-.597-.298.019-.147.158.148 0 0zm6.997.858l-1.325.137c.582.343 1.244.51 1.835.833-.335-.405-.895-.494-1.333-.74.239-.022.679.025.823-.23-.443.047-.1.177 0 0zm-6.257-1.486c-.221-.242-.567-.268-.827-.448.211-.054.444.045.621-.131-.437.025-.857-.109-1.287-.153.386.442.962.558 1.493.732-.223-.244-.529-.173 0 0zm2.893 1.165c.253.058 1.291.76 1.392.588l-.788-.509c.229-.069.517-.026.684-.238-.43.057-.862.086-1.288.159.502.114.439-.075 0 0zm-.872.486c-.289-.185-.59-.352-.869-.552.305-.107.601.025.893-.164-.466-.04-.936.022-1.399-.04.427.305.84.663 1.375.756-.284-.181-.545-.094 0 0z"/><path fill="#F7C106" d="M43.454 27.422c.065-.217.209-1.246.54-1.187.539.098.492.208.376.726-.138.608-.141 2.723-1.122 2.216-.367-.19.163-.991.077-1.276-.089-.294-1.396.468-1.541.562-.167.107-2.11-1.523-2.49-1.786.877-.101 1.65-.245 2.502-.452.705-.172 1.152.841 1.658 1.197.107-.355-.328-.231 0 0z"/><path fill="#F3BE10" d="M55.95 31.679c-1.29-.085-2.58-.173-3.871-.254-.346-.021-1.032.116-1.08-.368-.039-.377.674-.277.875-.248 1.252.184 2.547.211 3.809.31.32.024 1.178-.079 1.148.47-.017.303-.881.002-.881.09z"/><path fill="#F7C106" d="M48.768 29.289c-.42-.014-.847.014-1.246.154-.351.123-.556.297-.527-.214.016-.29.335-1.972.735-1.547.273.291.568.569.912.776.276.166.713.171.951.339.136.094.481-.083.274.294-.181.331-.8.198-1.099.198-.497-.017.306 0 0 0z"/><path fill="#F3BE10" d="M57.027 31.092c-.985-.225-1.972-.447-2.955-.685-.486-.118-.973-.235-1.463-.337-.259-.054-.36-.531-.055-.558.382-.033.901.201 1.272.291l1.866.45 1.495.355c.401.093.192.538-.16.484-.693-.158.24.037 0 0z"/><path fill="#F7C106" d="M50.772 28.184c.325-.307.453-.546.772-1.001.329-.468 1.313.145.953.687-.186.275-.415.572-.401.922.013.311-.408.008-.552.004-.197-.006-.4-.23-.582-.167-.444.153-.268-.253-.19-.445z"/><path fill="#F3BE10" d="M44.875 28.141c.071-.571.649-.235 1.029-.146.204.047 1.075.103 1.18.299.379.713-2.318.192-2.209-.153.029-.237-.044.138 0 0z"/><path fill="#EFBC1B" d="M47.193 30.542c.43.03.861.072 1.292.09.178.008.143.162.107.288-.074.27-.389.184-.592.174-.26-.012-1.633.082-1.559-.286.086-.418.283-.266.752-.266zm-2.843-1.658c-.452.073.033-1.871.305-1.897.663-.063-.021 1.951-.305 1.897-.222.036.173.033 0 0z"/><path fill="#F3BE10" d="M50.584 28.938c.015.372-.193.7-.474.928-.249.204-.766.035-.653-.345.069-.236.531-.214.611-.603.066-.307.559-.439.516.02.014.352.029-.316 0 0z"/><path fill="#EFBC1B" d="M51.771 29.263c-.025.337-.142.652-.312.942-.154.262-.818.231-.656.001.213-.302.739-1.886.968-.943-.027.364-.027-.113 0 0zm-1.397.966c-.243-.037-.32-.108-.124-.291.355-.333.26-.78.513-1.088.342-.415.438.281.379.493-.103.373-.343.845-.768.886zm-.957.236c-.056-.284-.251-.308-.419-.098-.236.291-.506.08-.8.091-.297.011.744-.517.815-.551.242-.116.927.209 1.072.407.092.124-.144.279-.17.192-.119-.399-.272-.085-.498-.041-.065-.332.18-.035 0 0zm2.762-.323c-.259-.048-.36.3-.633.233.103-.216.399-1.485.646-1.196.229.267-.012.677-.013.963zm-2.958.249c.052.194.068 1.16-.364.98-.511-.213.114-.826.364-.98.082.309-.273.168 0 0zm1.027.118c.156.277.239.883-.119 1.066-.465.238-.004-.944.119-1.066.186.329-.208.207 0 0zm-.415.314c-.031.17-.008.392-.135.531-.061.066-.408.255-.391-.005.035-.455.234-1.171.526-.526-.049.263-.041-.091 0 0zm1.035.324c0 .467-.507.711-.399.19.096-.489.361-.99.399-.19zm-1.558-1.558c.028.188-.295.193-.309.019-.017-.212.305-.221.309-.019z"/><path fill="#9C3717" d="M51.129 26.17c-.805-.328.091-.883.11-.854-.127-.176-.615-.36-.382-.672.062-.081.596-.261.508-.411-.026-.045-.658.116-.875-.028-.494-.327.162-.387.204-.688-.529.035-1.086.054-1.492-.35.119-.108.952-.318 1.111-.325.507-.021 1.035.257 1.364.63.387.437.146.941-.032 1.437-.093.261-.177 1.294-.516 1.261-.261-.107.121.012 0 0z"/><path fill="#F7F6F6" d="M60.24 20.25c.136-.009 1.891-.112 1.11.471-.756.564-2.319.403-3.216.525-.405.054-1.58.167-.839-.598.226-.232.821-.168 1.107-.198l1.838-.2c.287-.02-.857.093 0 0zm-1.183 1.732c.554.069 1.312.028 1.767.396.602.495-.486.564-.723.529l-2.264-.437c-.505-.097-.497-.509-.912-.662.654-.124 1.471.078 2.132.174z"/><path fill="#F0EFEF" d="M57.457 21.562l2.742.07c.303.009 1.617-.135.936.594-.104.11-1.502-.312-1.775-.333-.258-.02-2.129-.103-2.175-.312l.272-.019c1.176.029-.091.006 0 0z"/><path fill="#953618" d="M51.129 26.17l.266-.142c-.183.599.114 1.021-.262 1.613-.167.263-.623-.531.066-.611-.008-.197-.229-.171-.275-.335-.136-.48.186-.121.269-.378l-.064-.147c.121.012.004.062 0 0z"/><path fill="#423F3D" d="M59.885 20.184l.217-.039c-.064.063-.141.052-.217.039zm-2.7 1.398c-.141-.043-.093-.073 0 0zm1.732.38l-.148-.032c.055-.012.106-.013.148.032z"/><path fill="#F7F6F6" d="M56.925 21.808z"/><path fill="#F0EFEF" d="M58.191 21.412c.416-.066 3.311-.617 3.358-.341.139.811-2.846.389-3.358.341.774-.122.958.089 0 0z"/><path fill="#F3BE10" d="M42.473 24.589c-.225.303-.66.457-.717.871-.037.271-.539-.425-.552-.577-.023-.267.206-1.014.552-1.033.345-.021.226.722.717.739-.245.33-.191-.006 0 0z"/><path fill="#EFBC1B" d="M42.244 25.077c.346-.637.951-.504 1.515-.525-.203.461-.882.692-1.515.525z"/><path fill="#FBFAFA" d="M46.538 23.344l-.089.034.089-.034z"/><path fill="#3E271E" d="M52.8 19.074c-.009.158-.608.616-.676.401-.033-.105.572-.41.676-.401-.015.265-.221-.019 0 0z"/><path fill="#423F3D" d="M43.888 22.542c-.553.262-.369.102-.246.517.162.548-.562.506-.797.201-.031.09-.075.173-.133.249-.207.058.19-.64.316-.702.434-.213.89-.402 1.241-.745l-.269.929c-.114-.124-.016-.507-.112-.449zm-.555.717c-.758-.735.073.476 0 0-.079-.077.014.089 0 0z"/><path fill="#503B1B" d="M51.174 32.574c-.144.255-.584.208-.823.229.438.246.998.335 1.333.74-.591-.323-1.253-.49-1.835-.833l1.325-.136c-.1.177-.443.047 0 0zm-6.997-.858c.166.156.413.169.597.298-.577.11-1.088-.459-1.368-.884.401.037.913.169 1.232.429-.135.15-.664-.144-.829-.162.1.131.223.238.368.319.158.148-.144-.058 0 0zm.74-.628c-.531-.174-1.107-.29-1.493-.732.43.044.851.179 1.287.153-.177.176-.41.077-.621.131.26.18.606.206.827.448-.529-.173-.223-.244 0 0zm2.893 1.165c.427-.073.858-.102 1.287-.159-.167.212-.455.169-.684.238l.788.509c-.1.172-1.139-.53-1.391-.588.439-.075.502.114 0 0zm-.872.486c-.535-.093-.948-.451-1.376-.756.464.062.934 0 1.399.04-.292.189-.588.057-.893.164.281.201.581.368.87.552-.545-.094-.284-.181 0 0z"/><path fill="#EFBC1B" d="M44.177 31.716c-.145-.081-.268-.188-.368-.319.212.023.413.083.6.188-.115-.022-.192.022-.232.131-.144-.058.019-.147 0 0z"/><path fill="#F0EFEF" d="M43.333 23.259c.073.476-.758-.735 0 0 .014.089-.079-.077 0 0z"/><path fill="#FBFAFA" d="M43.888 22.542c.1-.061.102.07 0 0z"/></g></svg>