<svg xmlns="http://www.w3.org/2000/svg" width="64" height="48"><g fill="#003671"><path d="M0 0h64v48h-64zM31.998 23.996"/></g><path fill="#fff" d="M0 7.997h7.604l-7.604-5.08v-2.917h4.351l10.636 7.06v-7.06h5.989v7.06l10.637-7.06h4.387v2.917l-7.641 5.08h7.641v8.004h-7.641l7.641 5.082v2.917h-4.387l-10.637-7.062v7.062h-5.989v-7.062l-10.636 7.062h-4.351v-2.917l7.604-5.082h-7.604z"/><g fill="#DC2F34"><path d="M33.171 0l-12.017 8.003h2.877l11.969-8.003zM36 24l-11.982-7.999h2.889l9.093 6.092zM12.04 8.003l-12.04-8.003v1.911l9.138 6.092zM12.014 16.001l-12.014 7.999h2.875l12.017-7.999zM0 9.659h16.262v-9.659h3.52v9.659h16.218v4.686h-16.218v9.655h-3.52v-9.655h-16.262z"/></g><g fill="#fff"><path d="M18.664 32.631l2.958-1.067-1.738 2.489 2.69 1.521-3.129.265.434 2.957-2.185-2.168-2.172 2.168.42-2.957-3.114-.265 2.676-1.521-1.724-2.489 2.945 1.067.969-2.847zM51.617 7.414l1.404-.506-.827 1.18 1.277.722-1.484.124.206 1.403-1.036-1.028-1.029 1.028.198-1.403-1.477-.124 1.271-.722-.818-1.18 1.394.506.461-1.351zM51.617 35.641l1.404-.508-.827 1.182 1.277.72-1.484.126.206 1.403-1.036-1.029-1.029 1.029.198-1.403-1.477-.126 1.271-.72-.818-1.182 1.394.508.461-1.351zM59.054 17.065l1.404-.506-.825 1.18 1.275.722-1.482.124.205 1.403-1.034-1.028-1.031 1.028.2-1.403-1.478-.124 1.27-.722-.82-1.18 1.397.506.462-1.351zM44.417 19.189l1.401-.505-.824 1.18 1.275.721-1.482.125.206 1.402-1.036-1.028-1.03 1.028.199-1.402-1.478-.125 1.271-.721-.818-1.18 1.396.505.46-1.351zM54.503 23.287l-.322.959-1.067.002.869.595-.33.957.855-.597.859.592-.331-.964.861-.587-1.062.004z"/></g></svg>