<svg xmlns="http://www.w3.org/2000/svg" width="64" height="48"><path fill="#0089BD" d="M0 0h64v16h-64z"/><path fill="#31AA47" d="M0 32.001h64v15.999h-64z"/><path fill="#E50040" d="M0 16h64v16h-64z"/><path fill="#fff" d="M37.598 20.01l.751 2.151 2.067-.986-.972 2.058 2.135.766-2.127.741.964 2.082-2.044-.994-.774 2.159-.768-2.159-2.051.994.971-2.082-2.134-.741 2.142-.766-.979-2.058 2.075.986zM22.429 24c0 3.969 3.212 7.188 7.175 7.188 2.323 0 4.388-1.105 5.699-2.818-1.067 1-2.5 1.611-4.076 1.611-3.297 0-5.971-2.678-5.971-5.981s2.673-5.981 5.971-5.981c1.577 0 3.009.612 4.076 1.611-1.312-1.713-3.376-2.818-5.699-2.818-3.963-.001-7.175 3.218-7.175 7.188z"/></svg>