<svg xmlns="http://www.w3.org/2000/svg" width="64" height="48"><path fill="#fff" d="M0 .125h64v47.75h-64z"/><path fill="#0058A2" d="M44.928 8.121v12.588c0 9.821-5.927 16.805-12.966 19.226-7.039-2.42-12.962-9.405-12.962-19.226v-12.588h25.928z"/><path fill="#fff" d="M41 30l-19-21h-2v3l18.698 21.175c.878-.944 1.816-2.298 2.302-3.175z"/><path d="M31.757 14.728l.56-.444c-.18-.142-.279-.384-.279-.646 0-1.198 1.932-.848 1.262.092.67.067 1.057-.449.895-1.029-.201-.716-1.273-1.12-2.247-.235.851-1.287.57-2.339-.189-3.022-.76.683-1.041 1.735-.188 3.022-.973-.884-2.046-.481-2.248.235-.163.58.224 1.097.895 1.029-.671-.94 1.262-1.29 1.262-.092 0 .262-.1.504-.278.646l.555.444zm8.71 0l.559-.444c-.18-.142-.279-.384-.279-.646 0-1.198 1.932-.848 1.262.092.67.067 1.057-.449.895-1.029-.201-.716-1.275-1.12-2.246-.235.85-1.287.57-2.339-.189-3.022-.76.683-1.041 1.735-.189 3.022-.975-.884-2.047-.481-2.248.235-.162.58.225 1.097.895 1.029-.67-.94 1.262-1.29 1.262-.092 0 .262-.1.504-.279.646l.557.444zm0 9.751l.559-.444c-.18-.142-.279-.384-.279-.646 0-1.197 1.932-.847 1.262.093.67.067 1.057-.449.895-1.03-.201-.716-1.275-1.119-2.246-.235.85-1.287.57-2.339-.189-3.022-.76.683-1.041 1.735-.189 3.022-.975-.884-2.047-.481-2.248.235-.162.581.225 1.097.895 1.03-.67-.94 1.262-1.29 1.262-.093 0 .263-.1.505-.279.646l.557.444zm-17.83-.693l.558-.444c-.178-.142-.279-.384-.279-.646 0-1.197 1.932-.847 1.262.093.669.067 1.057-.449.893-1.03-.201-.716-1.273-1.119-2.246-.235.851-1.287.571-2.339-.188-3.022-.76.683-1.041 1.735-.189 3.022-.973-.884-2.046-.481-2.247.235-.164.581.224 1.097.894 1.03-.67-.94 1.262-1.29 1.262-.093 0 .263-.099.505-.278.646l.558.444zm5.049 5.719l.559-.444c-.179-.142-.279-.384-.279-.646 0-1.199 1.932-.848 1.262.092.669.066 1.057-.45.893-1.029-.201-.717-1.273-1.119-2.246-.235.851-1.287.57-2.34-.189-3.022-.76.682-1.04 1.735-.188 3.022-.973-.884-2.046-.481-2.248.235-.163.579.224 1.096.895 1.029-.671-.939 1.261-1.291 1.261-.092 0 .262-.099.504-.277.646l.557.444zm5.049 5.719l.56-.444c-.18-.142-.279-.383-.279-.646 0-1.198 1.932-.848 1.262.092.67.067 1.057-.449.895-1.03-.201-.716-1.273-1.119-2.247-.234.851-1.287.57-2.34-.189-3.022-.76.683-1.041 1.735-.188 3.022-.973-.885-2.046-.481-2.248.234-.163.581.224 1.098.895 1.03-.671-.939 1.262-1.29 1.262-.092 0 .263-.1.504-.279.646l.556.444z" fill="#FFD500"/></svg>