<svg xmlns="http://www.w3.org/2000/svg" width="64" height="48"><path fill="#004996" d="M0 0h64v48h-64z"/><path fill="#FBB907" d="M20 0h24v48h-24z"/><path d="M32 24.011"/><path d="M33.188 34.793v-5.372c1.162.076 2.673.344 3.819.593.229-4.703 1.529-9.903 5.22-13.67-2.524.096-4.493 1.186-6.042 2.963.488-.076 1.08-.096 1.587-.048-1.376 2.294-2.218 5.592-2.523 8.46-.555-.134-1.497-.239-2.061-.268v-8.814c.545.048 1.2.21 1.759.459-1.056-1.74-2.107-3.709-2.948-5.87-.841 2.161-1.893 4.13-2.948 5.87.559-.249 1.214-.411 1.759-.459v8.814c-.564.028-1.507.134-2.061.268-.307-2.868-1.147-6.166-2.523-8.46.506-.048 1.099-.028 1.586.048-1.548-1.778-3.518-2.868-6.041-2.963 3.689 3.767 4.99 8.967 5.219 13.67 1.147-.249 2.658-.517 3.82-.593v5.372h2.378z"/></svg>