<svg xmlns="http://www.w3.org/2000/svg" width="64" height="48"><path fill="#fff" d="M0 0h64v48h-64z"/><desc/><path fill="#EBBE4E" d="M39.781 13.942c.002 1.198-15.796 1.191-15.792 0-.005-.902 7.291-.795 7.892-.795 1.861 0 3.73.045 5.584.232.546.056 1.976.023 2.316.563z"/><desc/><path fill="#C8B067" d="M31.985 12.54c-1.991 0-4 .083-5.97.391-.436.068-2.654.273-2.654 1.012 0 .693 1.985.903 2.401.975 2.049.349 4.149.433 6.223.433 1.991 0 3.999-.084 5.97-.392.438-.068 2.654-.277 2.654-1.016 0-.69-1.988-.899-2.402-.971-2.049-.348-4.147-.432-6.222-.432m0 .609c.606 0 7.894-.115 7.894.792 0 .94-7.643.799-8.276.796-.58-.002-7.514.088-7.514-.796-.001-.906 7.291-.792 7.896-.792"/><desc/><path fill="#F9F19A" d="M27.823 13.22c-.695.032-.61.096-.597.751l.013.638.812.055-.228-1.444z"/><desc/><path fill="#F9F19A" d="M31.155 13.14c-.694 0-.871-.086-1.229.467l-.704 1.085c.623.017 5.196.207 5.208-.165.006-.229.178-1.143.039-1.307-1.104-.052-2.209-.08-3.314-.08z"/><desc/><path fill="#F9F19A" d="M35.105 13.26l.139.933c.084.572.299.395.859.347l-.295-.708c-.203-.491-.152-.538-.703-.572z"/><desc/><path d="M39.781 13.942c.002 1.198-15.796 1.191-15.792 0-.005-.902 7.291-.795 7.892-.795 1.861 0 3.73.045 5.584.232.546.056 1.976.023 2.316.563z" fill="none"/><desc/><path fill="#E9CB52" d="M31.865 10.078c-2.634 0-5.383.237-7.887 1.124-.302.106-.703.102-.607.461l.284 1.059c.026.099.094.631.185.686.186.113.837-.211 1.034-.256 2.546-.604 5.27-.641 7.872-.604 2.312.033 4.994.006 7.189.857l.385-1.428c.023-.086.168-.411.135-.5-.455-.197-.922-.361-1.398-.5-2.321-.685-4.784-.899-7.192-.899z"/><desc/><path fill="#E9CB52" d="M31.865 7.093c-2.634 0-5.384.236-7.887 1.123-.302.107-.703.102-.607.461l.284 1.059c.026.1.094.631.185.687.186.112.837-.211 1.034-.257 2.546-.604 5.27-.641 7.872-.604 2.311.032 4.996.004 7.189.855l.385-1.428c.023-.086.168-.412.135-.5-.455-.198-.922-.359-1.399-.5-2.32-.682-4.783-.896-7.191-.896z"/><desc/><path fill="#C8B067" d="M31.875 9.554c-2.359 0-4.783.102-7.093.63-.811.186-3.232.943-1.333 1.772-.18-.674.136-.627.765-.834.709-.236 1.437-.414 2.171-.555 1.803-.349 3.646-.486 5.48-.486 1.844 0 3.699.139 5.512.492.736.143 1.467.322 2.178.561.605.202.947.16.77.812 1.885-.83-.596-1.586-1.359-1.762-2.308-.529-4.732-.63-7.091-.63z"/><desc/><path d="M24.049 11.173l.102.378" fill="none"/><desc/><path d="M24.274 11.966l.127.479" fill="none"/><desc/><path d="M24.542 12.95l.07.263" fill="none"/><desc/><path d="M24.736 11.413l.1.373" fill="none"/><desc/><path d="M24.99 12.323l.125.47" fill="none"/><desc/><path d="M25.558 10.86l.074.273" fill="none"/><desc/><path d="M25.723 11.562l.136.508" fill="none"/><desc/><path d="M25.976 12.607l.063.231" fill="none"/><desc/><path d="M26.454 11.009l.075.373" fill="none"/><desc/><path d="M26.648 11.922l.089.508" fill="none"/><desc/><path d="M27.229 10.441l.059.388" fill="none"/><desc/><path d="M27.379 11.248l.075.522" fill="none"/><desc/><path d="M27.56 12.323l.03.299" fill="none"/><desc/><path d="M28.724 10.263l.029.389" fill="none"/><desc/><path d="M28.783 11.069l.06.553" fill="none"/><desc/><path d="M28.888 12.173l.03.344" fill="none"/><desc/><path d="M28.066 10.726l.059.434" fill="none"/><desc/><path d="M28.186 11.726l.059.478" fill="none"/><desc/><path d="M30.32 10.188v.343" fill="none"/><desc/><path d="M30.292 10.978v.553" fill="none"/><desc/><path d="M30.336 12.069v.418" fill="none"/><desc/><path d="M29.753 11.562v.521" fill="none"/><desc/><path d="M29.753 10.591v.419" fill="none"/><desc/><path d="M39.55 11.173l-.102.378" fill="none"/><desc/><path d="M39.328 11.966l-.129.479" fill="none"/><desc/><path d="M39.058 12.95l-.07.263" fill="none"/><desc/><path d="M38.865 11.413l-.102.373" fill="none"/><desc/><path d="M38.611 12.323l-.125.47" fill="none"/><desc/><path d="M38.042 10.86l-.072.273" fill="none"/><desc/><path d="M37.878 11.562l-.135.508" fill="none"/><desc/><path d="M37.625 12.607l-.061.231" fill="none"/><desc/><path d="M37.146 11.009l-.076.373" fill="none"/><desc/><path d="M36.953 11.922l-.09.508" fill="none"/><desc/><path d="M36.369 10.441l-.059.388" fill="none"/><desc/><path d="M36.22 11.248l-.074.522" fill="none"/><desc/><path d="M36.041 12.323l-.031.299" fill="none"/><desc/><path d="M34.876 10.263l-.031.389" fill="none"/><desc/><path d="M34.818 11.069l-.061.553" fill="none"/><desc/><path d="M34.712 12.173l-.029.344" fill="none"/><desc/><path d="M35.533 10.726l-.057.434" fill="none"/><desc/><path d="M35.414 11.726l-.059.478" fill="none"/><desc/><path d="M33.277 10.188v.343" fill="none"/><desc/><path d="M33.308 10.978v.553" fill="none"/><desc/><path d="M33.265 12.069v.418" fill="none"/><desc/><path d="M33.847 11.562v.521" fill="none"/><desc/><path d="M33.847 10.591v.419" fill="none"/><desc/><path d="M31.74 10.143v.358" fill="none"/><desc/><path d="M31.755 10.95v.567" fill="none"/><desc/><path d="M31.755 12.054v.418" fill="none"/><desc/><path d="M31.128 11.517v.522" fill="none"/><desc/><path d="M31.143 10.517v.461" fill="none"/><desc/><path d="M32.279 10.517v.402" fill="none"/><desc/><path d="M32.279 11.532v.508" fill="none"/><desc/><path d="M40.384 11.914c-2.646-1.158-5.74-1.396-8.589-1.396-2.837 0-5.907.241-8.547 1.383" fill="none"/><desc/><path d="M40.205 12.282c-2.615-1.083-5.613-1.326-8.409-1.326-2.759 0-5.691.246-8.284 1.279" fill="none"/><desc/><path d="M40.074 12.772c-2.59-1.032-5.52-1.275-8.277-1.275-2.721 0-5.589.244-8.153 1.229" fill="none"/><desc/><path d="M39.945 13.265c-2.449-.937-5.176-1.193-7.771-1.223-2.799-.032-5.75.197-8.401 1.176" fill="none"/><desc/><path d="M24.049 8.202l.102.377" fill="none"/><desc/><path d="M24.274 8.993l.127.479" fill="none"/><desc/><path d="M24.542 9.979l.07.262" fill="none"/><desc/><path d="M24.736 8.44l.1.375" fill="none"/><desc/><path d="M24.99 9.352l.125.469" fill="none"/><desc/><path d="M25.558 7.888l.074.271" fill="none"/><desc/><path d="M25.723 8.589l.136.508" fill="none"/><desc/><path d="M25.976 9.636l.063.232" fill="none"/><desc/><path d="M26.454 8.037l.075.374" fill="none"/><desc/><path d="M26.648 8.948l.089.508" fill="none"/><desc/><path d="M27.229 7.469l.059.39" fill="none"/><desc/><path d="M27.379 8.275l.075.522" fill="none"/><desc/><path d="M27.56 9.352l.03.298" fill="none"/><desc/><path d="M28.724 7.29l.029.387" fill="none"/><desc/><path d="M28.783 8.097l.06.553" fill="none"/><desc/><path d="M28.888 9.202l.03.344" fill="none"/><desc/><path d="M28.066 7.755l.059.432" fill="none"/><desc/><path d="M28.186 8.755l.059.477" fill="none"/><desc/><path d="M30.32 7.216v.346" fill="none"/><desc/><path d="M30.292 8.007v.553" fill="none"/><desc/><path d="M30.336 9.097v.418" fill="none"/><desc/><path d="M29.753 8.589v.523" fill="none"/><desc/><path d="M29.753 7.618v.419" fill="none"/><desc/><path d="M39.55 8.202l-.102.377" fill="none"/><desc/><path d="M39.328 8.993l-.129.479" fill="none"/><desc/><path d="M39.058 9.979l-.07.262" fill="none"/><desc/><path d="M38.865 8.44l-.102.375" fill="none"/><desc/><path d="M38.611 9.352l-.125.468" fill="none"/><desc/><path d="M38.042 7.888l-.072.271" fill="none"/><desc/><path d="M37.878 8.589l-.135.508" fill="none"/><desc/><path d="M37.625 9.636l-.061.232" fill="none"/><desc/><path d="M37.146 8.037l-.076.374" fill="none"/><desc/><path d="M36.953 8.948l-.09.508" fill="none"/><desc/><path d="M36.369 7.469l-.059.39" fill="none"/><desc/><path d="M36.22 8.275l-.074.522" fill="none"/><desc/><path d="M36.041 9.352l-.031.298" fill="none"/><desc/><path d="M34.876 7.29l-.031.387" fill="none"/><desc/><path d="M34.818 8.097l-.061.553" fill="none"/><desc/><path d="M34.712 9.202l-.029.344" fill="none"/><desc/><path d="M35.533 7.755l-.057.432" fill="none"/><desc/><path d="M35.414 8.755l-.059.477" fill="none"/><desc/><path d="M33.277 7.216v.346" fill="none"/><desc/><path d="M33.308 8.007v.553" fill="none"/><desc/><path d="M33.265 9.097v.418" fill="none"/><desc/><path d="M33.847 8.589v.523" fill="none"/><desc/><path d="M33.847 7.618v.419" fill="none"/><desc/><path d="M31.74 7.17v.358" fill="none"/><desc/><path d="M31.755 7.977v.568" fill="none"/><desc/><path d="M31.755 9.083v.418" fill="none"/><desc/><path d="M31.128 8.545v.522" fill="none"/><desc/><path d="M31.143 7.544v.463" fill="none"/><desc/><path d="M32.279 7.544v.402" fill="none"/><desc/><path d="M32.279 8.56v.508" fill="none"/><desc/><path d="M40.384 8.927c-2.646-1.156-5.74-1.395-8.589-1.395-2.837 0-5.907.24-8.547 1.38" fill="none"/><desc/><path d="M40.205 9.296c-2.615-1.082-5.613-1.327-8.409-1.327-2.759 0-5.691.247-8.284 1.279" fill="none"/><desc/><path d="M40.074 9.786c-2.59-1.031-5.52-1.276-8.277-1.276-2.721 0-5.589.245-8.153 1.229" fill="none"/><desc/><path d="M39.945 10.278c-2.449-.938-5.176-1.193-7.771-1.225-2.799-.031-5.75.198-8.401 1.178" fill="none"/><desc/><path fill="#E9CB52" d="M31.802 10.554c-.512 0-.717.424-.717.864 0 .148-.102.939.001 1.031.345.31.251-.636.251-.729 0-.315.023-.794.465-.794.432 0 .461.479.461.794 0 .091-.088 1.061.264.729.105-.099 0-.879 0-1.031 0-.44-.205-.864-.725-.864z"/><desc/><path fill="#1A2015" d="M31.8 10.927c-.441 0-.463.482-.463.797 0 .514-.171.743.365.743.605 0 .561.052.561-.562 0-.345.053-.978-.463-.978z"/><desc/><path fill="#E9CB52" d="M31.099 11.376h.253"/><desc/><path fill="#E9CB52" d="M32.257 11.376h.277"/><desc/><path fill="#E9CB52" d="M31.099 11.839h.253"/><desc/><path fill="#E9CB52" d="M32.257 11.839h.277"/><desc/><path fill="#E9CB52" d="M31.515 11.06l-.258-.255"/><desc/><path fill="#E9CB52" d="M32.093 11.058l.259-.258"/><desc/><path fill="#E9CB52" d="M30.826 4.876l-.271.471h.152c-.002 1.342.297 2.997-.512 4.15h3.268c-.447-.612-.508-1.254-.508-1.979 0-.339-.162-2.159.146-2.167l-.271-.475-.27.471c.268 0 .236.377-.062.377-.297 0-.33-.371-.066-.373l-.271-.475-.271.471c.267 0 .237.377-.063.377-.299 0-.328-.375-.062-.373l-.274-.475-.273.471c.266.001.236.377-.062.377-.303 0-.33-.38-.056-.373l-.274-.475z"/><desc/><path fill="#1A2015" d="M31.848 6.379c-.217 0-.262.722-.08.722.421 0 .304-.722.08-.722z"/><desc/><path fill="#1A2015" d="M31.28 6.379c-.228 0-.262.722-.085.722.424 0 .306-.722.085-.722z"/><desc/><path fill="#1A2015" d="M32.417 6.379c-.225 0-.258.722-.081.722.423 0 .304-.722.081-.722z"/><desc/><path d="M30.716 6.138h2.25" fill="none"/><desc/><path d="M30.708 6.587h2.246" fill="none"/><desc/><path d="M30.708 7.065h2.246" fill="none"/><desc/><path d="M30.726 7.524h2.213" fill="none"/><desc/><path d="M30.699 7.983h2.24" fill="none"/><desc/><path d="M30.632 8.554h2.383" fill="none"/><desc/><path d="M30.514 8.901h2.63" fill="none"/><desc/><path d="M30.368 9.243h2.938" fill="none"/><desc/><path fill="#E9CB52" d="M31.828 7.558c-.513 0-.719.424-.719.864 0 .149-.102.938.001 1.032.347.312.253-.635.253-.729 0-.354.168-1.053.672-.729.273.174.253.456.253.729 0 .091-.089 1.057.263.729.104-.098 0-.879 0-1.032-.001-.441-.203-.864-.723-.864z"/><desc/><path fill="#1A2015" d="M31.826 7.931c-.442 0-.462.479-.462.795 0 .516-.171.744.364.744.607 0 .562.051.562-.563-.001-.344.051-.976-.464-.976z"/><desc/><path fill="#E9CB52" d="M31.125 8.379h.252"/><desc/><path fill="#E9CB52" d="M32.283 8.379h.275"/><desc/><path fill="#E9CB52" d="M31.125 8.843h.252"/><desc/><path fill="#E9CB52" d="M32.283 8.843h.275"/><desc/><path fill="#E9CB52" d="M31.541 8.063l-.258-.256"/><desc/><path fill="#E9CB52" d="M32.118 8.062l.258-.258"/><desc/><path d="M31.263 6.146v.451" fill="none"/><desc/><path d="M32.183 7.099v.416" fill="none"/><desc/><path d="M31.373 7.099v.427" fill="none"/><desc/><path d="M32.625 7.532v.469" fill="none"/><desc/><path d="M32.794 8.562v.35" fill="none"/><desc/><path d="M30.905 8.545v.366" fill="none"/><desc/><path d="M30.693 9.243v.229" fill="none"/><desc/><path d="M33.007 9.261v.229" fill="none"/><desc/><path d="M31.951 6.146v.383" fill="none"/><desc/><path d="M31.705 5.737v.4" fill="none"/><desc/><path d="M32.531 5.754v.356" fill="none"/><desc/><path d="M30.973 5.737v.383" fill="none"/><desc/><path d="M30.699 5.737h2.256" fill="none"/><desc/><path fill="#E9CB52" d="M24.65 7.405c.054.261.078.954.505.861.429-.093.172-.737.118-.998l-.623.137z"/><desc/><path fill="#AF2024" d="M24.649 7.397c.051-.134.167-.264.245-.385.119.059.284.157.378.251l-.623.134z"/><desc/><path fill="#0A080A" d="M25.105 7.711c.037.099.034.193-.008.282-.091.021-.204-.52-.11-.537.074.065.113.15.118.255z"/><desc/><path fill="#E9CB52" d="M24.692 11.236c-.936.247-.572 1.356-.491 2.03.512-.026-.078-1.158.333-1.551.737-.706.802.948.838 1.244.479.003.314-1.981-.68-1.723z"/><desc/><path fill="#1A2015" d="M24.734 11.6c-.641.167-.33 1.193-.279 1.618.292-.076.943-.074.901-.42-.041-.345-.011-1.357-.622-1.198z"/><desc/><path fill="#E9CB52" d="M24.088 12.22l.252-.066"/><desc/><path fill="#E9CB52" d="M25.244 11.915l.275-.07"/><desc/><path fill="#E9CB52" d="M24.144 12.671l.254-.066"/><desc/><path fill="#E9CB52" d="M25.299 12.368l.274-.072"/><desc/><path fill="#E9CB52" d="M24.466 11.804l-.287-.182"/><desc/><path fill="#E9CB52" d="M25.041 11.651l.228-.319"/><desc/><path fill="#E9CB52" d="M26.382 5.413l-.228.492.157-.021c.145 1.312.612 2.865-.078 4.072l3.338-.465c-.48-.482-.645-1.067-.717-1.723-.04-.354-.416-2.167-.095-2.22l-.329-.421-.228.493.155-.021c.15.355-.067.456-.396.422-.083-.195-.085-.357.112-.381l-.328-.418-.228.494.156-.023c.149.357-.068.457-.397.426-.083-.199-.084-.361.116-.382l-.333-.419-.228.494.152-.021c.15.357-.067.457-.396.424-.084-.203-.084-.364.123-.381l-.328-.421z"/><desc/><path fill="#1A2015" d="M27.587 6.716c-.253.033-.111.58-.096.719.627.099.277-.746.096-.719z"/><desc/><path fill="#1A2015" d="M27.004 6.798c-.255.035-.109.59-.095.72.627.095.275-.747.095-.72z"/><desc/><path fill="#1A2015" d="M28.169 6.634c-.251.032-.11.582-.095.721.623.095.279-.746.095-.721z"/><desc/><path d="M26.404 6.644l2.296-.318" fill="none"/><desc/><path d="M26.445 7.081l2.296-.32" fill="none"/><desc/><path d="M26.497 7.54l2.297-.32" fill="none"/><desc/><path d="M26.562 7.979l2.26-.314" fill="none"/><desc/><path d="M26.586 8.425l2.288-.318" fill="none"/><desc/><path d="M26.577 8.985l2.436-.339" fill="none"/><desc/><path d="M26.493 9.339l2.688-.374" fill="none"/><desc/><path d="M26.382 9.687l3.002-.418" fill="none"/><desc/><path fill="#E9CB52" d="M27.691 7.855c-.964.136-.6 1.29-.528 1.928.537.036-.084-1.126.36-1.477.77-.608.809.992.844 1.31.466.055.211-.559.178-.858-.056-.491-.206-.992-.854-.903z"/><desc/><path fill="#1A2015" d="M27.73 8.214c-.659.095-.352 1.156-.308 1.551.292-.04.966.039.927-.308-.042-.376.002-1.329-.619-1.243z"/><desc/><path fill="#E9CB52" d="M27.061 8.747l.26-.037"/><desc/><path fill="#E9CB52" d="M28.246 8.582l.281-.039"/><desc/><path fill="#E9CB52" d="M27.111 9.194l.26-.036"/><desc/><path fill="#E9CB52" d="M28.296 9.029l.282-.039"/><desc/><path fill="#E9CB52" d="M27.452 8.384l-.291-.21"/><desc/><path fill="#E9CB52" d="M28.042 8.298l.237-.285"/><desc/><path d="M26.962 6.573l.05.436" fill="none"/><desc/><path d="M28.004 7.362l.046.402" fill="none"/><desc/><path d="M27.178 7.478l.044.41" fill="none"/><desc/><path d="M28.503 7.719l.051.451" fill="none"/><desc/><path d="M28.789 8.688l.037.335" fill="none"/><desc/><path d="M26.854 8.938l.04.353" fill="none"/><desc/><path d="M26.712 9.642l.025.221" fill="none"/><desc/><path d="M29.081 9.327l.023.223" fill="none"/><desc/><path d="M27.667 6.478l.041.369" fill="none"/><desc/><path d="M27.372 6.118l.043.387" fill="none"/><desc/><path d="M28.218 6.017l.037.346" fill="none"/><desc/><path d="M26.623 6.222l.042.368" fill="none"/><desc/><path d="M26.345 6.261l2.305-.321" fill="none"/><desc/><path fill="#E9CB52" d="M29.294 6.616c0 .164-.041.383 0 .541.081.307.624.717.624.123.313-.621-.2-.664-.624-.664z"/><desc/><path fill="#AF2024" d="M29.294 6.609c.076-.122.215-.229.312-.333.103.086.242.221.312.334l-.624-.001z"/><desc/><path fill="#0A080A" d="M29.667 7.061c.018.105-.004.198-.062.282-.095 0-.095-.563 0-.563.058.082.078.176.062.281z"/><desc/><path fill="#E9CB52" d="M21.233 6.763l-.003.496c.313-.089.969 1.573 1.13 1.883.321.615.573 1.186.505 1.904l2.667-.949c-1.188-.783-1.7-2.307-2.34-3.533l.12-.041-.444-.342-.004.496c.171-.047.262.092.302.291-.261.189-.458.111-.524-.207l.121-.043-.443-.343-.003.496c.17-.048.261.093.3.29-.261.189-.458.111-.522-.205l.124-.045-.445-.342-.001.496c.169-.044.258.096.296.293-.261.189-.458.11-.524-.208l.13-.046-.442-.341z"/><desc/><path fill="#1A2015" d="M22.765 7.798c-.12.043.031.913.472.591-.062-.118-.259-.666-.472-.591z"/><desc/><path fill="#1A2015" d="M22.3 7.964c-.121.043.033.91.475.59-.065-.119-.263-.665-.475-.59z"/><desc/><path fill="#1A2015" d="M23.229 7.632c-.12.043.026.918.474.591-.062-.12-.261-.665-.474-.591z"/><desc/><path d="M21.729 7.913l1.835-.654" fill="none"/><desc/><path d="M21.932 8.315l1.835-.653" fill="none"/><desc/><path d="M22.153 8.737l1.834-.652" fill="none"/><desc/><path d="M22.382 9.14l1.807-.643" fill="none"/><desc/><path d="M22.574 9.556l1.828-.651" fill="none"/><desc/><path d="M22.783 10.081l1.945-.692" fill="none"/><desc/><path d="M22.849 10.426l2.146-.765" fill="none"/><desc/><path d="M22.888 10.769l2.396-.852" fill="none"/><desc/><path fill="#E9CB52" d="M23.295 8.851c-.815.288.162 2.025.502 1.816-.095-.182-1.005-1.71-.129-1.491.505.124.691 1.372 1.099 1.146-.269-.516-.651-1.764-1.472-1.471z"/><desc/><path fill="#1A2015" d="M23.468 9.182c-.492.174.045.94.167 1.176.251.479.447.225.925.056-.17-.325-.55-1.431-1.092-1.232z"/><desc/><path fill="#E9CB52" d="M23.103 9.782l.207-.073"/><desc/><path fill="#E9CB52" d="M24.049 9.446l.225-.08"/><desc/><path fill="#E9CB52" d="M23.319 10.194l.207-.074"/><desc/><path fill="#E9CB52" d="M24.266 9.856l.225-.08"/><desc/><path fill="#E9CB52" d="M23.296 9.383l-.329-.154"/><desc/><path fill="#E9CB52" d="M23.767 9.214l.09-.307"/><desc/><path d="M22.178 7.761l.21.401" fill="none"/><desc/><path d="M23.371 8.34l.195.37" fill="none"/><desc/><path d="M22.71 8.575l.198.377" fill="none"/><desc/><path d="M23.935 8.597l.217.414" fill="none"/><desc/><path d="M24.553 9.46l.162.311" fill="none"/><desc/><path d="M23.001 9.995l.171.325" fill="none"/><desc/><path d="M23.153 10.677l.106.203" fill="none"/><desc/><path d="M25.05 10.019l.106.203" fill="none"/><desc/><path d="M22.741 7.562l.179.34" fill="none"/><desc/><path d="M22.35 7.271l.186.354" fill="none"/><desc/><path d="M23.032 7.046l.166.317" fill="none"/><desc/><path d="M21.751 7.483l.179.34" fill="none"/><desc/><path d="M21.529 7.562l1.841-.654" fill="none"/><desc/><path fill="#E9CB52" d="M27.981 10.696c-.959.098-.609 1.33-.556 1.951.516.048.043-.937.236-1.315.305-.6.754-.088.864.295.079.272.054.618.078.903.456.065.216-.576.191-.873-.042-.484-.162-1.027-.813-.961z"/><desc/><path fill="#1A2015" d="M28.01 11.065c-.651.066-.364 1.195-.332 1.574.296-.031.941.072.911-.278-.032-.36.042-1.358-.579-1.296z"/><desc/><path fill="#E9CB52" d="M38.685 7.235c-.053.262-.311.906.119.998.428.094.451-.6.506-.86l-.625-.138z"/><desc/><path fill="#AF2024" d="M38.689 7.231c.094-.094.258-.193.377-.252.078.121.193.252.244.385l-.621-.133z"/><desc/><path fill="#0A080A" d="M38.855 7.679c.004-.104.045-.189.117-.256.094.019-.02.559-.109.538-.043-.089-.045-.185-.008-.282z"/><desc/><path fill="#1A2015" d="M39.226 11.567c-.611-.158-.582.854-.623 1.198-.043.346.609.343.9.419.053-.423.364-1.451-.277-1.617z"/><desc/><path fill="#E9CB52" d="M37.248 5.802c.207.018.207.179.123.381-.33.033-.547-.066-.396-.423l.152.021-.229-.493-.332.419c.199.021.199.183.115.381-.328.031-.545-.068-.396-.425l.156.022-.229-.494-.326.419c.197.022.193.185.111.38-.33.035-.547-.065-.396-.422l.156.021-.229-.494-.328.422c.32.053-.057 1.865-.096 2.219-.072.656-.236 1.24-.717 1.723 1.111.157 2.225.31 3.338.465-.689-1.207-.223-2.76-.078-4.071l.158.021-.229-.492-.328.42z"/><desc/><path fill="#1A2015" d="M36.468 7.401c.016-.138.156-.686-.096-.719-.179-.025-.531.82.096.719z"/><desc/><path fill="#1A2015" d="M37.05 7.485c.014-.131.16-.686-.096-.721-.177-.027-.531.817.096.721z"/><desc/><path fill="#1A2015" d="M35.886 7.321c.016-.139.156-.688-.096-.72-.183-.024-.527.816.096.72z"/><desc/><path d="M35.259 6.292l2.297.318" fill="none"/><desc/><path d="M35.218 6.728l2.297.32" fill="none"/><desc/><path fill="#1A2015" d="M35.611 9.425c-.039.346.635.268.928.308.043-.396.35-1.456-.309-1.551-.621-.087-.578.866-.619 1.243z"/><desc/><path d="M36.947 6.976l.051-.435" fill="none"/><desc/><path d="M36.251 6.813l.041-.368" fill="none"/><desc/><path d="M36.544 6.472l.043-.386" fill="none"/><desc/><path d="M35.705 6.329l.037-.345" fill="none"/><desc/><path d="M37.294 6.558l.043-.369" fill="none"/><desc/><path d="M35.31 5.907l2.305.32" fill="none"/><desc/><path fill="#E9CB52" d="M34.042 7.248c0 .593.543.183.623-.124.041-.158 0-.377 0-.541-.423 0-.937.044-.623.665z"/><desc/><path fill="#AF2024" d="M34.042 6.578c.068-.113.209-.249.311-.335.098.104.236.211.312.334l-.623.001z"/><desc/><path fill="#0A080A" d="M34.353 6.747c.096 0 .096.562 0 .562-.057-.083-.078-.176-.061-.281-.015-.105.004-.199.061-.281z"/><desc/><path fill="#E9CB52" d="M42.283 7.071l.131.047c-.066.318-.264.396-.523.207.037-.197.127-.336.297-.292l-.002-.496-.445.341.123.045c-.064.316-.262.395-.521.205.039-.197.131-.337.301-.289l-.004-.496-.443.342.121.043c-.066.318-.264.396-.523.207.039-.199.131-.338.301-.291l-.004-.496-.443.342.121.041c-.641 1.227-1.152 2.75-2.34 3.533l2.666.949c-.066-.719.186-1.289.506-1.904.162-.309.816-1.971 1.131-1.882l-.004-.497-.446.341z"/><desc/><path fill="#1A2015" d="M41.195 7.765c-.213-.074-.41.473-.473.592.442.322.594-.548.473-.592z"/><desc/><path fill="#1A2015" d="M41.66 7.931c-.211-.074-.41.471-.475.591.441.319.596-.548.475-.591z"/><desc/><path fill="#1A2015" d="M40.73 7.599c-.213-.073-.412.472-.473.592.448.327.594-.548.473-.592z"/><desc/><path d="M40.396 7.227l1.834.654" fill="none"/><desc/><path d="M40.193 7.63l1.836.652" fill="none"/><desc/><path d="M39.972 8.052l1.834.652" fill="none"/><desc/><path fill="#1A2015" d="M39.398 10.38c.479.17.674.424.926-.055.123-.235.66-1.002.168-1.176-.541-.199-.922.907-1.094 1.231z"/><desc/><path d="M41.572 8.13l.211-.402" fill="none"/><desc/><path d="M41.041 7.869l.178-.34" fill="none"/><desc/><path d="M41.423 7.591l.186-.354" fill="none"/><desc/><path d="M40.763 7.331l.164-.317" fill="none"/><desc/><path d="M42.029 7.79l.18-.34" fill="none"/><desc/><path d="M40.589 6.874l1.842.655" fill="none"/><desc/><path fill="#1A2015" d="M35.371 12.329c-.029.351.615.246.91.277.033-.378.32-1.507-.33-1.574-.621-.061-.549.936-.58 1.297z"/><desc/><path fill="#E9CB52" d="M27.348 11.582l.253-.024"/><desc/><path fill="#E9CB52" d="M28.506 11.466l.276-.029"/><desc/><path fill="#E9CB52" d="M27.387 12.04l.254-.025"/><desc/><path fill="#E9CB52" d="M28.545 11.925l.276-.027"/><desc/><path fill="#E9CB52" d="M27.737 11.226l-.279-.228"/><desc/><path fill="#E9CB52" d="M28.315 11.167l.237-.283"/><desc/><path fill="#E21113" d="M22.625 42.44c.394-.23.562-.68.066-.771-.601-.11-1.469-.298-2.03.047-.376.231-.216.487.151.519.341.027.679-.025 1.02-.018.227.004.627.322.793.223z"/><desc/><path fill="#E21113" d="M25.936 41.763c.124-.334.396-1.252-.113-1.236-.649.02-1.733-.082-2.297.322-.576.412.368.596.609.586.403-.016.82-.113 1.223-.047.174.028.514.549.408.594.079-.054.136-.128.17-.219z"/><desc/><path fill="#E21113" d="M41.515 42.388c.436-.331 1.068-.109 1.57-.154.602-.055.279-.473-.143-.548-.572-.103-1.141-.028-1.709.073-.634.112-.028.866.282.629z"/><desc/><path fill="#E21113" d="M38.068 41.837c0-.808 1.121-.572 1.596-.522.154.017.57.13.713.005.256-.223-.303-.574-.434-.617-.639-.21-1.361-.311-2.031-.275-.414.019.156 1.445.156 1.409z"/><desc/><path fill="#F9EB45" d="M20.353 42.979c.568 0 .982.186 1.527-.086.389-.193.879-.351.263-.613-.239-.103-2.428.353-2.428.834 0-.042.581-.135.638-.135z"/><desc/><path fill="#F9EB45" d="M44.166 43.124c0-.609-2.803-1.031-2.803-.629 0 .227 1.039.568 1.188.585.152.018 1.615-.227 1.615.044z"/><desc/><path fill="#F9EB45" d="M19.76 41.447c.576-.226.81.177.982-.51-.186.028-.387.058-.566.114-.151.047-.55.471-.618.471l.202-.075z"/><desc/><path fill="#F9EB45" d="M44.248 41.415c-.281-.381-1.527-.555-1-.025.041.04.523-.016.59-.012.117.009.546.23.41.037z"/><desc/><path fill="#F9EB45" d="M25.581 42.089c.46-.195.03-.664-.308-.707-.542-.068-1.092.131-1.63.043-.708-.115.593-1.948.081-2.413-.209-.199-1.189-.12-1.467-.141-.392-.028-1.165-.185-1.532.042-.06.037.105 1.225.102 1.363l-.316 1.528c-.001-.807 4.489.525 5.07.285z"/><desc/><path fill="#F9EB45" d="M39.263 42.169c1.219-.238 2.9-.92 4.096-.342-.195-.094-.285-1.127-.303-1.343-.021-.302.238-1.565-.027-1.611-.365-.063-2.969-.101-2.998.243-.047.537-.031 1.216.223 1.701.291.553.117.602-.412.543-.555-.059-1.539-.303-1.766.385-.159.484.92.47 1.187.424z"/><desc/><path fill="#F9EB45" d="M33.675 40.847c1.365-.139 2.725-.383 4.098-.438.443-.018.893-.011 1.334.06.35.058.777.311 1.119.311-.299 0-.166-2.029-.137-2.226.027-.181.213-.563-.004-.673-.566-.025-1.137.023-1.701.089-2.314.267-4.609.397-6.939.364-2.052-.029-4.127-.126-6.162-.421-.401-.058-.818-.14-1.224-.088-.463.058-.352.21-.326.601.047.721.173 1.857-.294 2.482.336-.462 1.661-.4 2.171-.395.871.01 1.75.018 2.62.074 1.838.117 3.599.439 5.445.26z"/><desc/><path fill="#010202" d="M25.304 38.445c-.953 0-.953 1.533-.017 1.533.921.001.961-1.533.017-1.533m-.02.081c.655 0 .667 1.375.002 1.375-.64 0-.649-1.375-.002-1.375"/><desc/><path fill="#010202" d="M27.467 38.765c.108-.051.344-.041.518-.041-.591.192.245 1.501-.774 1.501-1.046 0-.183-1.345-.788-1.501h.633c-.303.084-.357 1.197-.021 1.369.762.379.867-1.231.432-1.328z"/><desc/><path fill="#010202" d="M29.095 38.754c-.187.438-.38 1.243-.755 1.497h.461c-.196-.055-.191-.49.025-.49.094 0 .439-.059.509 0 .117.096.22.442-.019.449.124.052.389.041.579.041-.441-.245-.496-1.117-.8-1.497m-.039.333l.249.594h-.504l.255-.594"/><desc/><path fill="#010202" d="M30.232 38.909c.584-.153.98.713 1.295 1.098 0-.34.123-.982-.209-1.098h.51c-.377.124-.206 1.119-.206 1.491-.379-.272-.697-.806-1.005-1.183 0 .343-.131 1.044.207 1.157h-.51c.356-.12.37-1.377-.082-1.465z"/><desc/><path fill="#010202" d="M32.921 38.876c-.188.438-.381 1.244-.756 1.499h.463c-.199-.054-.189-.491.025-.491.094 0 .439-.059.51 0 .117.098.219.441-.018.448.121.054.385.043.576.043-.436-.253-.497-1.113-.8-1.499m-.039.336l.25.592h-.504l.254-.592"/><desc/><path fill="#010202" d="M35.451 39.846c.098.63-.783.405-1.223.405.346-.117.344-1.351 0-1.465.211 0 .518-.022.662.039-.396 0-.244.746-.244 1.023 0 .493.643.387.805-.002z"/><desc/><path fill="#010202" d="M36.748 38.568c-.188.441-.379 1.243-.756 1.501h.463c-.195-.057-.193-.491.025-.491.094 0 .439-.058.51 0 .123.101.215.438-.02.45.121.053.387.041.578.041-.441-.256-.49-1.119-.8-1.501m-.038.337l.246.592h-.502l.256-.592"/><desc/><path fill="#010202" d="M38.699 38.445c-.955 0-.957 1.533-.018 1.533.918.001.959-1.533.018-1.533m-.024.081c.658 0 .668 1.375.002 1.375-.636 0-.646-1.375-.002-1.375"/><desc/><path fill="#F9EB45" fill-opacity=".941" d="M15.113 30.486c-.01 1.138.01 2.281-.056 3.417-.014.246.807.881.993 1.098.379.439.681.949 1.075 1.373.218-.315.547-.521.928-.549.078-.006.458.09.506.061.137-.592.641-1.087 1.11-1.435-.772-.062-1.541-.245-2.286-.458-.416-.117-1.304-.249-1.512-.702-.45-.983.003-2.457.292-3.439l-1.05.634z"/><desc/><path fill="#F9EB45" fill-opacity=".941" d="M18.323 35.722l-1.443-1.109 1.715 1.026"/><desc/><path fill="#F9EB45" fill-opacity=".941" d="M16.181 28.901c.889-.326 1.924-.264 2.795.089.748.302 1.054.788 1.658.091.319-.369.886-1.103 1.454-.971.076-1.584-.018-3.186-.062-4.77-.561-.021-.369 4.748-1.619 5.277-.397.169-.79-.132-1.053-.406-.291-.303-.524-.661-.737-1.022-.103-.055-.464.048-.576.06-.239.025-1.181-.024-1.278.214l-.582 1.438z"/><desc/><path fill="#F9EB45" d="M15.192 13.613c.586.212 1.146.463 1.629.866.639.533 1.154 1.186 1.909 1.54.607.286 3.034 1.251 2.632 2.154.443.275.418-.586.325-.778-.225-.464-.551-.879-.872-1.279-.76-.945-1.606-1.824-2.463-2.68-.275-.275-.842-1.113-1.265-1.023l-1.552.327c-.334.07-.283.566-.343.873z"/><desc/><path d="M17.717 14.668c.488.858 1.389 1.169 1.389 1.169" fill="none"/><desc/><path fill="#9A9999" d="M15.751 11.866c-.013-.987.687-1.787 1.389-2.385.08-.068.494-.314.494-.439-.048-.293-.299-.314-.537-.23-.724.258-1.365.913-1.897 1.449-.579.584-.887 1.039-.413 1.878"/><desc/><path fill="#9A9999" d="M16.275 9.753c-.564.461-1.026 1.967-1.026 1.967"/><desc/><path fill="#9A9999" d="M14.873 11.845c-.15-1.014.287-1.936.79-2.775.143-.239-.119-.233-.306-.16-.384.148-.659.567-.873.899-.345.535-.717 1.048-.61 1.687l.288 1.73"/><desc/><path fill="#9A9999" d="M14.496 10.569c-.293.752.021 1.777.021 1.777"/><desc/><path fill="#9A9999" d="M14.267 12.659c-.426-.424-.163-1.775-.134-2.307.013-.221.083-.535.019-.754-.066-.223-.606.531-.626.576-.675 1.42-.645 3.465.554 4.618"/><desc/><path fill="#9A9999" d="M13.556 11.74c-.063.795.564 1.777.564 1.777"/><desc/><path fill="#9A9999" d="M14.078 14.647c-.768-.721-.977-1.975-1.159-2.968-.033-.182-.036-.825-.285-.718-.361.156-.469.612-.512.967-.065.543-.104 1.413.131 1.93.306.671.938 1.273 1.407 1.835"/><desc/><path fill="#9A9999" d="M12.634 12.597c-.355.712 1.255 2.824 1.255 2.824"/><desc/><path fill="#9A9999" d="M15.333 20.629c-.085-1.203-.196-2.49.014-3.685.105-.598.162-.517-.209-1.064l-.977-1.441-.96 1.91c-.152.301-.917 1.363-.743 1.684l1.334 2.439c.145.264.118.379.41.335l1.131-.178z"/><desc/><path d="M14.182 16.926c-.167.479.293.964.293.964" fill="none"/><desc/><path d="M13.827 17.198c-.167.48.607 1.275.607 1.275" fill="none"/><desc/><path d="M13.68 18.013c-.167.482.691.879.691.879" fill="none"/><desc/><path d="M14.056 19.227c.041.356.669.272.669.272" fill="none"/><desc/><path fill="#9A9999" d="M14.052 28.56c.528.676.738 1.652.887 2.484l.179-.562c.114.073.088.489.251.489.083 0 .021-.444.163-.473.053-.011.004.622.133.622.073 0 .143-.422.133-.429l.117.392c-.005 0 .163-.934.197-1.026.165-.444.425-.848.713-1.22.679-.878 1.514-1.621 2.298-2.398 1.55-1.537 2.985-3.332 2.151-5.654-.869-2.421-3.584-3.734-5.197-5.584-.236-.271-.872-1.294-.396-1.636.125-.091.309.003.42.067.264.149.508.064.734-.152.216-.207.309-.522.294-.819h.462c.164 0 .043-.681.001-.811-.145-.456-.542-.7-.994-.759-.853-.108-1.884.119-2.384.869-1.339 2.008.468 4.57 1.808 6.033.183.2.372.396.57.582.398.371.223 1.564.16 2.035-.111.822-.285.941-.867 1.49l-3.834 3.612"/><desc/><path fill="#9A9999" d="M12.104 25.681c-.506.611-1.018 1.217-1.496 1.852-.275.365-.803 1.059.062.863-.518.544-1.05 1.091-1.639 1.557-.381.303-.111.462.292.354.307-.084.599-.246.866-.422-.338.21-.922.473-1.121.832-.116.211.703-.032.753-.057.231-.111.452-.248.66-.398-.247.286-.108.562.25.401.316-.144.606-.354.88-.567-.105.18-.107.54.149.352.292-.219.575-.451.858-.679.496-.403.989-.812 1.481-1.221"/><desc/><path d="M10.804 28.349c-.143.23.538.204.66.02 0 .433.596.235.757.318.176.092.408-.043.529-.162.043.121.325.321.456.271.568-.209.754-1.12 1.275-1.41" fill="none"/><desc/><path d="M9.924 30.056s.994-.969 1.646-1.487" fill="none"/><desc/><path d="M10.263 30.409s1.309-1.21 1.961-1.727" fill="none"/><desc/><path d="M11.521 30.173s.869-.896 1.521-1.412" fill="none"/><desc/><path fill="#9A9999" d="M10.655 28.37s.972-1.158 1.623-1.676"/><desc/><path d="M11.414 28.403s.817-.938 1.75-1.604" fill="none"/><desc/><path d="M12.159 28.541s.385-.737 1.56-1.644" fill="none"/><desc/><path d="M12.754 28.53s.446-.773 1.254-1.354" fill="none"/><desc/><path d="M12.704 28.635c-.665.681-1.198 1.14-1.198 1.14" fill="none"/><desc/><path fill="#010202" d="M11.742 28.695c-.664.679-1.345 1.227-1.345 1.227"/><desc/><path d="M11.091 28.503c-.665.68-.841.738-.841.738" fill="none"/><desc/><path d="M11.745 26.174c-.303.491.586.551.827.436-.205.546.222.342.526.199-.127.491.497.089.626-.04.326.857.555-.203.919-.398" fill="none"/><desc/><path d="M12.551 26.618l1.188-1.09" fill="none"/><desc/><path d="M11.917 26.676l.579-.882" fill="none"/><desc/><path d="M13.085 26.8l.714-.783" fill="none"/><desc/><path d="M13.702 26.784l.377-.413" fill="none"/><desc/><path d="M14.538 25.38c-.946 1.184.414.238.414.238" fill="none"/><desc/><path d="M13.318 25.944s-.554.103.081-.666" fill="none"/><desc/><path d="M12.925 24.774s-.636.842-.207.708" fill="none"/><desc/><path d="M14.391 24.716l-.179.281" fill="none"/><desc/><path d="M12.555 26.903c-.148.163-.489.414-.489.414" fill="none"/><desc/><path d="M13.191 27.068c-.326.249-.606.517-.606.517" fill="none"/><desc/><path d="M14.228 27.317c-.667.682-.518.506-.518.506" fill="none"/><desc/><path d="M13.873 27.038c-.326.251-.518.443-.518.443" fill="none"/><desc/><path fill="#9A9999" d="M12.836 22.587c-.404.785-.844 1.735-.769 2.645.008.101.202.932.388.714.161-.19.244-.476.336-.704.224-.561.405-1.254.804-1.72.323-.38.399-.989.544-1.481"/><desc/><path fill="#9A9999" d="M13.638 22.47c.273 0-.542.544-.835 1.297"/><desc/><path fill="#9A9999" d="M13.857 22.661c-.078.367-.509 2.061.1 2.285.225.082.718-1.836 1.157-1.932"/><desc/><path fill="#9A9999" d="M11.831 13.965c-.988-.927-1.433-2.021-1.968-3.224-.104-.233-.303-.062-.348.123-.101.414.016.903.099 1.309.093.443.16 1.388.537 1.688l1.871 1.495"/><desc/><path fill="#fff" d="M11.568 14.354s-.795-.607-1.213-1.423"/><desc/><path fill="#9A9999" d="M11.831 15.089c-1.117-.619-1.991-1.565-2.546-2.723-.114-.236-.195-.511-.339-.731-.198-.302-.365.535-.358.634.105 1.725 1.394 2.898 2.578 3.975"/><desc/><path fill="#9A9999" d="M11.359 15.735s-1.046-.773-1.883-2.051"/><desc/><path fill="#9A9999" d="M11.076 16.078c-1.012-.56-1.951-1.297-2.602-2.272-.109-.164-.466-1.094-.694-1.105-.258-.012-.103 1.109-.061 1.25.157.521.482.979.837 1.381.827.938 1.864 1.662 2.858 2.404"/><desc/><path fill="#9A9999" d="M11.233 16.885s-1.339-.48-2.176-1.757"/><desc/><path fill="#9A9999" d="M11.357 17.691c-1.272-.405-2.323-1.251-3.217-2.229-.204-.222-1.382-1.487-1.056-.273.523 1.957 2.614 3.011 4.304 3.729"/><desc/><path fill="#9A9999" d="M11.422 18.056s-1.779-.334-2.74-1.316"/><desc/><path fill="#9A9999" d="M11.372 18.771c-1.395-.449-2.861-1.012-3.978-2.004-.169-.15-.334-.381-.541-.48-.376-.185-.206.555-.134.686 1.013 1.844 3.046 2.439 4.905 2.953"/><desc/><path fill="#9A9999" d="M11.693 18.978s-2.072.041-2.949-.67"/><desc/><path fill="#9A9999" d="M11.563 19.91c-1.33-.281-2.689-.657-3.871-1.358-.162-.096-1.128-.927-.993-.254.157.783 1.304 1.426 1.923 1.811 1.002.621 2.297.883 3.459.969"/><desc/><path fill="#9A9999" d="M12.007 20.378s-1.379.041-2.26-.439"/><desc/><path fill="#9A9999" d="M11.447 22.483c-.649.596-1.216 1.504-1.348 2.393-.106.715.276.645.587.174.427-.649.834-1.38 1.486-1.828.452-.311.858-.545 1.287-.918"/><desc/><path fill="#9A9999" d="M13.011 22.197c.271 0-1.421.523-1.715 1.276"/><desc/><path fill="#9A9999" d="M10.87 21.566c-.75.563-1.506 1.325-1.848 2.226-.271.713.305.385.658.125.542-.4 1.036-.906 1.676-1.129.58-.201 1.131-.533 1.673-.823"/><desc/><path fill="#9A9999" d="M11.839 21.717c.271 0-1.108.48-1.402 1.235"/><desc/><path fill="#9A9999" d="M12.008 21.049c-1.342.157-2.781-.585-3.966-1.133-.055-.026-.873-.435-.9-.36-.345.404.176.883.47 1.115 1.622 1.276 3.418 1.232 5.355 1.354"/><desc/><path fill="#9A9999" d="M12.698 21.55s-2.112.02-3.075-.419"/><desc/><path fill="#9A9999" d="M17.487 21.255c-.014-1.228-.874-1.08-1.838-1.012-.444.033-.833.205-1.215-.059-.346-.239-.667-.532-.883-.898-.293-.494-.332-1.063-.22-1.617.175-.854.619-1.478.24-2.34-.393-.893-1.134-1.66-1.838-2.312-.214.189-.042.803-.055 1.053-.008.154-.286.148-.274.537.016.512-.339.322-.331.814.009.492-.171.759-.074 1.318-.516-.284.071.876-.021.858-.724-.104-.091.625.125.835-.453.171-.27.562.084.712-.276.198-.207.786.167.837-.406.215.104.57.272.732-.368.347.405.523.606.606-.221.349.027.475.313.606-.177.332.336.275.502.25-.241.258.054.426.294.445.25.018.251.422.606.267-.115.368 1.515.529 1.757.503"/><desc/><path d="M13.162 15.324c.052.327.14.649.251.961-.207.206-.325.497-.368.784" fill="none"/><desc/><path d="M12.089 15.577s.229.605.502.605" fill="none"/><desc/><path d="M11.672 14.146s.293 1.023.564 1.023" fill="none"/><desc/><path d="M11.422 14.94s.083.669.355.669" fill="none"/><desc/><path d="M11.128 15.797s.231.607.502.607" fill="none"/><desc/><path d="M10.982 16.676s.251.544.523.544" fill="none"/><desc/><path d="M11.004 17.554s.418.67.691.67" fill="none"/><desc/><path d="M11.086 18.454s.439.377.711.377" fill="none"/><desc/><path d="M11.191 19.165s.44.376.711.376" fill="none"/><desc/><path d="M11.295 19.938s.649.315.92.315" fill="none"/><desc/><path d="M11.588 20.671s.731.063 1.004.063" fill="none"/><desc/><path d="M12.186 21.271s.615-.025.886-.025" fill="none"/><desc/><path d="M12.541 21.864s.525-.145.855-.026" fill="none"/><desc/><path d="M13.028 22.204s.525-.146.857-.025" fill="none"/><desc/><path d="M13.413 22.603s.511-.07.87-.219" fill="none"/><desc/><path d="M13.931 22.868s.215.062.574-.086" fill="none"/><desc/><path d="M14.552 23.135s.185-.011.545-.16" fill="none"/><desc/><path d="M12.089 15.576s.229.606.502.606" fill="none"/><desc/><path d="M11.956 16.329s.229.606.502.606" fill="none"/><desc/><path d="M11.705 16.966s.289.399.561.399" fill="none"/><desc/><path d="M11.809 17.765s.289.4.561.4" fill="none"/><desc/><path d="M12.017 18.607s.319.073.59.073" fill="none"/><desc/><path d="M12.208 19.199l.339.015" fill="none"/><desc/><path d="M12.533 15.028s-.036.34.235.34" fill="none"/><desc/><path d="M12.851 20.452s.341-.038.28-.304" fill="none"/><desc/><path d="M12.349 19.979s.591-.172.531-.438" fill="none"/><desc/><path d="M13.589 21.132s.104-.689.043-.955" fill="none"/><desc/><path d="M14.403 21.681s-.102-.914-.312-1.03" fill="none"/><desc/><path d="M15.306 21.903c-.222-.771-.518-1.12-.726-1.192" fill="none"/><desc/><path d="M16.178 21.858c-.222-.771-.814-1.061-1.021-1.135" fill="none"/><desc/><path d="M17.213 21.887c-.221-.769-.813-1.06-1.021-1.132" fill="none"/><desc/><path d="M16.489 22.911c-.799.297-1.17 1.021-1.17 1.021" fill="none"/><desc/><path d="M17.153 12.671c-.156-.298-.459-.753-.852-.727-.235.015-.905.372-.804-.176" fill="none"/><desc/><path fill="#010202" d="M16.458 11.96c-.036.157-.736.796-.073.843.615.11.546-.693.073-.843z"/><desc/><path fill="#fff" d="M16.727 12.405c.037.121-.334.246-.373.124-.034-.124.337-.247.373-.124z"/><desc/><path d="M15.416 13.162c-.209 0-.271.126-.271.126" fill="none"/><desc/><path d="M14.725 14.396c-.088.252.19.598.147.523" fill="none"/><desc/><path d="M14.739 12.368c-.206 0-.222.4-.222.4" fill="none"/><desc/><path d="M15.863 15.829l.294.385" fill="none"/><desc/><path d="M16.01 16.952l.312.355" fill="none"/><desc/><path d="M17.312 18.151l.369.4" fill="none"/><desc/><path fill="#010202" d="M19.214 19.562c.295.85.904.361 0 0z"/><desc/><path fill="#010202" d="M18.465 19.805c-.062.899.69.686 0 0z"/><desc/><path fill="#010202" d="M18.978 21.624c-.064.9.692.686 0 0z"/><desc/><path fill="#010202" d="M20.048 21.278c.343.27.336.471.157.847.067 0-.123-.867-.157-.847z"/><desc/><path fill="#010202" d="M17.448 23.654c-.222 0-.16.517.066.552.197.037.203-.552-.066-.552z"/><desc/><path fill="#010202" d="M18.369 24.688c-.377.819.405.886 0 0z"/><desc/><path fill="#010202" d="M17.762 25.907c-.24.08-.562.627-.227.803.214.109.425-.649.227-.803-.311.104.219.168 0 0z"/><desc/><path fill="#010202" d="M16.837 27.288c.065.269.076.545-.209.67-.009-.006.179-.672.209-.67z"/><desc/><path fill="#010202" d="M15.456 27.562c.021.085.029.856-.095.629-.071-.055.012-.639.095-.629z"/><desc/><path fill="#010202" d="M16.627 25.71c.223 1.105-.509-.057 0 0z"/><desc/><path fill="#010202" d="M16.088 24.084c-.157.106-.384.689.004.63.499-.074.003-.328-.004-.63z"/><desc/><path fill="#010202" d="M18.326 22.065c-.296.201-.101.789.029.684.175-.144.243-.603-.029-.684-.208.141.177.054 0 0z"/><desc/><path fill="#010202" d="M19.864 23.184c-.224 0-.156.514.066.554.197.033.202-.554-.066-.554z"/><desc/><path fill="#010202" d="M19.216 23.989c-.111.357-.452.658.035.741.259.043-.032-.688-.035-.741-.134.434.032.47 0 0z"/><desc/><path fill="#010202" d="M15.556 29.05c-.227 0-.154.512.066.556.196.036.2-.556-.066-.556z"/><desc/><path fill="#F9EB45" fill-opacity=".941" d="M47.837 29.852c.289.982.742 2.456.293 3.439-.209.453-1.098.585-1.512.702-.746.213-1.514.396-2.287.458.471.348.973.843 1.111 1.435.049.029.428-.066.506-.061.381.027.709.233.928.549.393-.424.695-.934 1.074-1.373.186-.217 1.008-.852.992-1.098-.066-1.136-.045-2.279-.055-3.417l-1.05-.634z"/><desc/><path fill="#F9EB45" fill-opacity=".941" d="M45.404 35.639l1.717-1.026-1.443 1.109"/><desc/><path fill="#F9EB45" fill-opacity=".941" d="M47.238 27.463c-.098-.238-1.039-.188-1.277-.214-.111-.012-.475-.114-.576-.06-.213.361-.447.72-.738 1.022-.262.274-.654.575-1.053.406-1.25-.529-1.059-5.299-1.619-5.277-.045 1.584-.139 3.186-.062 4.77.568-.132 1.135.602 1.455.971.604.697.91.211 1.658-.091.869-.353 1.904-.415 2.795-.089l-.583-1.438z"/><desc/><path fill="#F9EB45" d="M48.466 12.74l-1.553-.327c-.422-.09-.99.748-1.266 1.023-.855.855-1.701 1.734-2.463 2.68-.32.4-.646.815-.871 1.279-.094.192-.117 1.054.324.778-.402-.903 2.025-1.868 2.633-2.154.754-.354 1.27-1.007 1.908-1.54.484-.403 1.043-.654 1.629-.866-.059-.307-.007-.803-.341-.873z"/><desc/><path d="M44.894 15.837s.902-.311 1.389-1.169" fill="none"/><desc/><path fill="#9A9999" d="M49.212 12.139c.475-.839.166-1.294-.412-1.878-.533-.536-1.174-1.191-1.896-1.449-.238-.084-.49-.062-.537.23 0 .125.414.371.492.439.703.598 1.402 1.397 1.391 2.385"/><desc/><path fill="#9A9999" d="M48.751 11.72s-.463-1.506-1.025-1.967"/><desc/><path fill="#9A9999" d="M49.839 13.226l.287-1.73c.107-.639-.264-1.151-.609-1.687-.213-.332-.488-.751-.873-.899-.188-.073-.449-.079-.307.16.504.84.939 1.762.791 2.775"/><desc/><path fill="#9A9999" d="M49.484 12.347s.312-1.025.02-1.777"/><desc/><path fill="#9A9999" d="M49.921 14.793c1.199-1.153 1.229-3.198.553-4.618-.02-.045-.559-.799-.625-.576-.064.219.006.533.018.754.029.531.293 1.883-.133 2.307"/><desc/><path fill="#9A9999" d="M49.88 13.518s.627-.982.564-1.777"/><desc/><path fill="#9A9999" d="M50.341 15.693c.469-.562 1.1-1.164 1.406-1.835.234-.517.195-1.387.131-1.93-.043-.354-.15-.811-.512-.967-.25-.107-.252.536-.285.718-.182.993-.391 2.247-1.158 2.968"/><desc/><path fill="#9A9999" d="M50.111 15.421s1.611-2.112 1.256-2.824"/><desc/><path fill="#9A9999" d="M49.798 20.807c.291.044.266-.071.41-.335l1.334-2.439c.174-.32-.592-1.383-.742-1.684l-.961-1.91-.977 1.441c-.371.548-.314.467-.209 1.064.209 1.194.1 2.481.014 3.685l1.131.178z"/><desc/><path d="M49.525 17.89s.461-.484.293-.964" fill="none"/><desc/><path d="M49.566 18.474s.775-.795.607-1.275" fill="none"/><desc/><path d="M49.63 18.892s.857-.396.689-.879" fill="none"/><desc/><path d="M49.275 19.499s.629.084.67-.272" fill="none"/><desc/><path fill="#9A9999" d="M51.949 25.713l-3.834-3.612c-.582-.549-.756-.668-.867-1.49-.064-.471-.238-1.664.16-2.035.197-.186.387-.382.568-.582 1.342-1.463 3.148-4.025 1.809-6.033-.5-.75-1.531-.978-2.385-.869-.451.059-.848.303-.992.759-.043.13-.164.811 0 .811h.463c-.014.297.078.612.295.819.225.217.471.302.734.152.111-.064.295-.158.42-.067.475.342-.16 1.364-.396 1.636-1.613 1.85-4.328 3.163-5.197 5.584-.834 2.322.602 4.117 2.15 5.654.785.777 1.621 1.521 2.299 2.398.287.372.549.775.713 1.22.035.093.203 1.026.197 1.026l.117-.392c-.01.007.061.429.133.429.129 0 .08-.633.133-.622.143.028.08.473.162.473.164 0 .137-.416.252-.489l.178.562c.15-.832.359-1.809.889-2.484"/><desc/><path fill="#9A9999" d="M49.902 28.547c.492.409.986.817 1.482 1.221.283.228.566.46.857.679.256.188.254-.172.15-.352.273.214.562.424.879.567.357.161.496-.115.25-.401.207.15.428.287.66.398.049.024.867.268.752.057-.199-.359-.783-.622-1.121-.832.268.176.559.338.865.422.404.108.674-.051.293-.354-.59-.466-1.121-1.013-1.639-1.557.865.195.336-.498.061-.863-.477-.635-.988-1.24-1.496-1.852"/><desc/><path d="M49.519 27.386c.521.29.707 1.201 1.275 1.41.131.05.412-.15.455-.271.121.119.354.254.529.162.162-.083.758.114.758-.318.121.185.803.211.66-.02" fill="none"/><desc/><path d="M52.431 28.568c.65.519 1.645 1.487 1.645 1.487" fill="none"/><desc/><path d="M51.777 28.683c.652.517 1.961 1.727 1.961 1.727" fill="none"/><desc/><path d="M50.958 28.761c.652.516 1.521 1.412 1.521 1.412" fill="none"/><desc/><path fill="#9A9999" d="M51.722 26.694c.65.518 1.623 1.676 1.623 1.676"/><desc/><path d="M50.835 26.8c.934.665 1.75 1.604 1.75 1.604" fill="none"/><desc/><path d="M50.283 26.897c1.174.906 1.559 1.644 1.559 1.644" fill="none"/><desc/><path d="M49.992 27.177c.809.58 1.254 1.354 1.254 1.354" fill="none"/><desc/><path d="M52.494 29.774s-.533-.459-1.197-1.14" fill="none"/><desc/><path fill="#010202" d="M53.603 29.922s-.682-.548-1.344-1.227"/><desc/><path d="M53.75 29.241s-.176-.059-.84-.738" fill="none"/><desc/><path d="M49.357 26.37c.363.195.594 1.256.92.398.129.129.752.531.625.04.305.143.732.347.527-.199.24.115 1.129.056.826-.436" fill="none"/><desc/><path d="M50.261 25.528l1.188 1.09" fill="none"/><desc/><path d="M51.503 25.794l.58.882" fill="none"/><desc/><path d="M50.201 26.017l.715.783" fill="none"/><desc/><path d="M49.921 26.371l.377.413" fill="none"/><desc/><path d="M49.048 25.618s1.361.945.414-.238" fill="none"/><desc/><path d="M50.601 25.278c.635.769.08.666.08.666" fill="none"/><desc/><path d="M51.283 25.482c.43.134-.207-.708-.207-.708" fill="none"/><desc/><path d="M49.789 24.997l-.18-.281" fill="none"/><desc/><path d="M51.933 27.317s-.34-.251-.488-.414" fill="none"/><desc/><path d="M51.416 27.585s-.281-.268-.607-.517" fill="none"/><desc/><path d="M50.291 27.823s.148.176-.518-.506" fill="none"/><desc/><path d="M50.646 27.481s-.191-.192-.518-.443" fill="none"/><desc/><path fill="#9A9999" d="M49.861 22.04c.145.492.221 1.102.545 1.481.398.466.58 1.159.803 1.72.092.229.176.514.336.704.188.218.381-.613.389-.714.074-.909-.365-1.859-.77-2.645"/><desc/><path fill="#9A9999" d="M51.197 23.767c-.293-.753-1.107-1.297-.834-1.297"/><desc/><path fill="#9A9999" d="M48.886 23.015c.439.096.932 2.014 1.158 1.932.607-.225.176-1.918.1-2.285"/><desc/><path fill="#9A9999" d="M51.978 15.355l1.871-1.495c.377-.3.443-1.244.537-1.688.084-.405.199-.895.1-1.309-.045-.185-.244-.356-.348-.123-.535 1.203-.98 2.297-1.969 3.224"/><desc/><path fill="#fff" d="M53.646 12.932c-.418.815-1.213 1.423-1.213 1.423"/><desc/><path fill="#9A9999" d="M52.835 16.243c1.184-1.076 2.473-2.25 2.578-3.975.006-.099-.16-.936-.359-.634-.143.221-.225.495-.338.731-.557 1.157-1.43 2.104-2.547 2.723"/><desc/><path fill="#9A9999" d="M54.525 13.685c-.838 1.277-1.883 2.051-1.883 2.051"/><desc/><path fill="#9A9999" d="M52.585 17.735c.994-.742 2.031-1.467 2.857-2.404.355-.402.68-.859.838-1.381.041-.141.197-1.262-.061-1.25-.229.012-.586.941-.695 1.105-.65.976-1.59 1.713-2.602 2.272"/><desc/><path fill="#9A9999" d="M54.943 15.128c-.838 1.276-2.176 1.757-2.176 1.757"/><desc/><path fill="#9A9999" d="M52.613 18.917c1.689-.718 3.779-1.771 4.303-3.729.326-1.214-.852.052-1.055.273-.895.979-1.945 1.824-3.219 2.229"/><desc/><path fill="#9A9999" d="M55.318 16.739c-.961.982-2.74 1.316-2.74 1.316"/><desc/><path fill="#9A9999" d="M52.376 19.925c1.859-.514 3.893-1.109 4.904-2.953.072-.131.242-.87-.133-.686-.207.1-.373.33-.541.48-1.117.992-2.584 1.555-3.979 2.004"/><desc/><path fill="#9A9999" d="M55.255 18.308c-.877.711-2.949.67-2.949.67"/><desc/><path fill="#9A9999" d="M51.917 21.077c1.162-.086 2.457-.348 3.459-.969.619-.385 1.766-1.027 1.924-1.811.135-.673-.832.158-.992.254-1.182.701-2.541 1.077-3.871 1.358"/><desc/><path fill="#9A9999" d="M54.253 19.938c-.881.48-2.26.439-2.26.439"/><desc/><path fill="#9A9999" d="M50.541 22.304c.43.373.836.607 1.287.918.652.448 1.059 1.179 1.486 1.828.311.471.693.541.588-.174-.133-.889-.699-1.797-1.348-2.393"/><desc/><path fill="#9A9999" d="M52.705 23.474c-.295-.753-1.986-1.276-1.715-1.276"/><desc/><path fill="#9A9999" d="M50.97 21.965c.543.29 1.094.622 1.674.823.641.223 1.135.729 1.676 1.129.354.26.93.588.658-.125-.342-.9-1.098-1.662-1.848-2.226"/><desc/><path fill="#9A9999" d="M53.564 22.952c-.295-.755-1.674-1.235-1.402-1.235"/><desc/><path fill="#9A9999" d="M51.033 22.025c1.938-.122 3.734-.078 5.355-1.354.295-.232.814-.711.471-1.115-.027-.074-.846.334-.9.36-1.186.548-2.625 1.29-3.967 1.133"/><desc/><path fill="#9A9999" d="M54.376 21.131c-.961.438-3.074.419-3.074.419"/><desc/><path fill="#9A9999" d="M48.294 23.392c.242.026 1.871-.135 1.756-.503.355.155.357-.249.607-.267.24-.02.535-.188.293-.445.166.025.68.082.502-.25.287-.132.535-.258.314-.606.199-.083.973-.26.605-.606.168-.162.678-.518.271-.732.375-.051.443-.639.168-.837.354-.149.537-.541.084-.712.217-.21.85-.938.125-.835-.092.018.496-1.143-.021-.858.098-.56-.082-.826-.072-1.318.008-.492-.348-.303-.332-.814.012-.389-.266-.383-.273-.537-.014-.25.158-.863-.055-1.053-.705.652-1.445 1.42-1.838 2.312-.379.862.064 1.485.24 2.34.111.554.072 1.123-.221 1.617-.217.366-.537.659-.883.898-.383.264-.77.092-1.215.059-.963-.068-1.824-.216-1.838 1.012"/><desc/><path d="M50.957 17.069c-.045-.287-.162-.578-.369-.784.111-.312.199-.634.252-.961" fill="none"/><desc/><path d="M51.408 16.183c.273 0 .504-.605.504-.605" fill="none"/><desc/><path d="M51.765 15.169c.27 0 .562-1.023.562-1.023" fill="none"/><desc/><path d="M52.222 15.609c.271 0 .355-.669.355-.669" fill="none"/><desc/><path d="M52.371 16.404c.271 0 .502-.607.502-.607" fill="none"/><desc/><path d="M52.494 17.22c.273 0 .523-.544.523-.544" fill="none"/><desc/><path d="M52.306 18.224c.271 0 .689-.67.689-.67" fill="none"/><desc/><path d="M52.203 18.831c.273 0 .711-.377.711-.377" fill="none"/><desc/><path d="M52.097 19.541c.271 0 .711-.376.711-.376" fill="none"/><desc/><path d="M51.785 20.254c.271 0 .92-.315.92-.315" fill="none"/><desc/><path d="M51.408 20.734c.273 0 1.004-.063 1.004-.063" fill="none"/><desc/><path d="M50.929 21.245c.271 0 .885.025.885.025" fill="none"/><desc/><path d="M50.605 21.838c.33-.118.855.026.855.026" fill="none"/><desc/><path d="M50.115 22.179c.332-.12.857.025.857.025" fill="none"/><desc/><path d="M49.716 22.384c.359.148.871.219.871.219" fill="none"/><desc/><path d="M49.496 22.782c.357.148.574.086.574.086" fill="none"/><desc/><path d="M48.904 22.975c.359.149.545.16.545.16" fill="none"/><desc/><path d="M51.41 16.183c.271 0 .502-.606.502-.606" fill="none"/><desc/><path d="M51.542 16.936c.271 0 .502-.606.502-.606" fill="none"/><desc/><path d="M51.734 17.365c.273 0 .561-.399.561-.399" fill="none"/><desc/><path d="M51.63 18.165c.271 0 .561-.4.561-.4" fill="none"/><desc/><path d="M51.394 18.681c.271 0 .59-.073.59-.073" fill="none"/><desc/><path d="M51.453 19.214l.34-.015" fill="none"/><desc/><path d="M51.232 15.368c.271 0 .234-.34.234-.34" fill="none"/><desc/><path d="M50.871 20.148c-.062.266.279.304.279.304" fill="none"/><desc/><path d="M51.121 19.541c-.061.267.531.438.531.438" fill="none"/><desc/><path d="M50.367 20.177c-.061.266.045.955.045.955" fill="none"/><desc/><path d="M49.91 20.65c-.211.116-.312 1.03-.312 1.03" fill="none"/><desc/><path d="M49.419 20.711c-.207.072-.504.421-.725 1.192" fill="none"/><desc/><path d="M48.843 20.724c-.207.074-.799.363-1.021 1.135" fill="none"/><desc/><path d="M47.808 20.755c-.207.072-.801.363-1.021 1.132" fill="none"/><desc/><path d="M48.681 23.933s-.371-.725-1.17-1.021" fill="none"/><desc/><path d="M48.503 11.769c.102.548-.568.19-.805.176-.393-.026-.695.429-.852.727" fill="none"/><desc/><path fill="#010202" d="M47.615 12.803c.664-.047-.037-.686-.072-.843-.473.15-.542.953.072.843z"/><desc/><path fill="#fff" d="M47.273 12.405c.035-.123.406 0 .373.124-.039.122-.41-.003-.373-.124z"/><desc/><path d="M48.855 13.288s-.061-.126-.27-.126" fill="none"/><desc/><path d="M49.128 14.919c-.043.074.234-.271.146-.523" fill="none"/><desc/><path d="M49.484 12.769s-.016-.4-.223-.4" fill="none"/><desc/><path d="M47.843 16.214l.295-.385" fill="none"/><desc/><path d="M47.679 17.308l.311-.355" fill="none"/><desc/><path d="M46.32 18.552l.369-.4" fill="none"/><desc/><path fill="#010202" d="M44.787 19.562c-.905.361-.295.85 0 0z"/><desc/><path fill="#010202" d="M45.535 19.805c-.69.686.062.899 0 0z"/><desc/><path fill="#010202" d="M45.023 21.624c-.693.686.062.9 0 0z"/><desc/><path fill="#010202" d="M46.486 24.206c.227-.035.289-.552.066-.552-.269 0-.263.589-.066.552z"/><desc/><path fill="#010202" d="M45.63 24.688c-.404.886.377.819 0 0z"/><desc/><path fill="#010202" d="M46.238 25.907c-.197.153.014.912.227.803.335-.176.013-.723-.227-.803-.219.168.31.104 0 0z"/><desc/><path fill="#010202" d="M47.373 27.958c-.285-.125-.273-.401-.209-.67.029-.002.218.664.209.67z"/><desc/><path fill="#010202" d="M48.64 28.19c-.125.228-.117-.544-.096-.629.084-.009.166.575.096.629z"/><desc/><path fill="#010202" d="M47.373 25.71c.509-.057-.223 1.105 0 0z"/><desc/><path fill="#010202" d="M47.908 24.714c.389.06.162-.523.004-.63-.006.302-.502.556-.004.63z"/><desc/><path fill="#010202" d="M45.675 22.065c-.273.081-.205.54-.029.684.129.105.324-.482.029-.684-.177.054.207.141 0 0z"/><desc/><path fill="#010202" d="M44.785 23.989c-.004.053-.295.784-.035.741.486-.083.146-.383.035-.741-.032.47.134.434 0 0z"/><desc/><path fill="#010202" d="M48.378 29.605c.221-.044.293-.556.066-.556-.267.001-.263.593-.066.556z"/><desc/><path fill="#3C5CA7" d="M31.955 37.64c5.049-1.981 9.453-6.637 9.801-12.283.158-2.596.023-5.234.023-7.834 0-.297.209-1.482-.164-1.482h-18.853c-.571 0-.631-.136-.631.457v4.195c0 2.947-.209 5.922.967 8.699 1.595 3.763 5.115 6.779 8.857 8.248z"/><desc/><path fill="#E21113" d="M22.131 22.962c0 .686-.091 4.443.386 4.443h18.918c.27 0 .344-2.683.344-2.975 0-.137.012-1.469-.01-1.469h-.547c-6.363.001-12.727.001-19.091.001z"/><desc/><path fill="#F9EB45" d="M25.473 20.241c.017-.742.494-1.949 1.433-1.768 1.047.202.189 1.6-.553 1.67.27-.928-.317-.473-.556.1"/><desc/><path fill="#F9EB45" d="M24.88 20.269c-.016-.744-.493-1.951-1.433-1.77-1.049.203-.188 1.6.552 1.672-.27-.932.306-.469.556.099"/><desc/><path fill="#F9EB45" d="M25.149 16.532c-.56.603-.863 1.328-.6 2.146.131.405.356.786.407 1.216.056.47-.039.375.364.375.001 0 .591-1.922.596-2.188.011-.519-.358-1.35-.767-1.549z"/><desc/><path fill="#F9EB45" d="M24.762 20.561c-.105.294-.372.642-.63.815.077-.053.723-.051.736-.196 0 .347.074.736.309 1.001.231-.271.308-.65.309-1.001.013.146.66.144.736.196-.174-.116-.558-.815-.675-.815h-.785z"/><desc/><path fill="#F9EB45" d="M24.189 20.255h1.282c.066 0 1.098-.078.696.32-.139.139-1.084 0-1.282 0-.31 0-.842.168-.696-.32z"/><desc/><path fill="#F9EB45" d="M32.251 20.241c.015-.743.494-1.948 1.434-1.768 1.047.202.189 1.6-.553 1.67.27-.93-.311-.468-.557.1"/><desc/><path fill="#F9EB45" d="M31.66 20.269c-.016-.744-.495-1.95-1.434-1.77-1.049.203-.189 1.6.552 1.672-.269-.928.328-.482.556.099"/><desc/><path fill="#F9EB45" d="M31.927 16.532c-.559.603-.863 1.328-.6 2.146.131.405.357.786.407 1.216.056.47-.04.375.363.375.001 0 .591-1.922.597-2.188.011-.519-.357-1.35-.767-1.549z"/><desc/><path fill="#F9EB45" d="M31.539 20.561c-.104.294-.37.642-.629.815.076-.053.726-.053.736-.196 0 .347.074.735.309 1.001.231-.272.309-.65.309-1.001.012.144.662.144.736.196-.174-.116-.557-.815-.674-.815h-.787z"/><desc/><path fill="#F9EB45" d="M30.968 20.255h1.281c.066 0 1.098-.078.697.32-.139.139-1.085 0-1.282 0-.311 0-.842.168-.696-.32z"/><desc/><path fill="#F9EB45" d="M39.029 20.241c.018-.742.494-1.949 1.434-1.768 1.047.202.191 1.6-.551 1.67.262-.928-.318-.477-.557.1"/><desc/><path fill="#F9EB45" d="M38.437 20.269c-.014-.744-.492-1.95-1.432-1.77-1.049.201-.191 1.6.551 1.672-.254-.932.303-.474.557.099"/><desc/><path fill="#F9EB45" d="M38.707 16.532c-.561.603-.863 1.326-.6 2.146.129.405.357.786.406 1.216.055.47-.039.375.363.375 0 0 .59-1.922.596-2.188.012-.523-.359-1.343-.765-1.549z"/><desc/><path fill="#F9EB45" d="M38.318 20.561c-.104.295-.371.642-.629.815.078-.053.723-.051.736-.197-.002.346.07.74.309 1.002.23-.271.307-.651.309-1.002.014.147.658.145.736.197-.174-.116-.559-.815-.676-.815h-.785z"/><desc/><path fill="#F9EB45" d="M37.746 20.255c.264 0 2.342-.148 1.98.32-.088.112-1.029 0-1.176 0-.312 0-.961.192-.804-.32z"/><desc/><path fill="#9A9999" d="M30.097 25.979l1.792-.73-.729 1.793c.175-.117.595-.531.795-.531.201 0 .621.414.797.531l-.73-1.793 1.793.73c-.107-.159-.543-.616-.531-.796.014-.218.406-.61.531-.798l-1.793.73.73-1.791c-.176.117-.596.531-.797.531-.2 0-.62-.414-.795-.531l.729 1.791-1.792-.73c.125.188.517.58.531.798.012.18-.425.637-.531.796z"/><desc/><path fill="#F9EB45" d="M28.019 29.282c.417.031.251-.326.434-.473-.168.182.188.529.344.545.408.043.265-.31.449-.459-.165.168.14.531.3.553.401.078.284-.293.464-.439-.179.168.133.541.292.571.342.071.35-.22.493-.412-.087.319-.037.769-.399.681-.893-.216-1.82-.33-2.738-.33-.934 0-1.874.12-2.782.334-.375.088-.32-.357-.401-.689.2.117.093.496.493.409.139-.025.488-.431.292-.57.125.201.115.507.464.44.182-.025.439-.362.299-.553.056 0 .135.49.448.459.146-.016.524-.377.345-.547.128.207.066.5.434.475.163-.002.547-.307.404-.514.169.137-.047.502.364.518l.001.001z"/><desc/><path fill="#F9EB45" d="M24.795 30.51c.913-.241 1.869-.369 2.812-.369.213 0 2.85.342 2.854.33.062-.173-2.655-.418-2.858-.418-.75 0-1.5.086-2.234.231-.059.012-.747.094-.574.226z"/><desc/><path fill="#F9EB45" d="M24.687 29.981c1.066-.284 2.19-.417 3.292-.378.686.023 1.371.11 2.044.249.08.018.604.226.57.033.027-.221-3.128-.38-3.341-.372-.691.024-1.379.112-2.057.251-.055.012-.69.085-.508.217z"/><desc/><path fill="#F9EB45" d="M27.576 29.597c-.436 0-2.947.004-2.854.604.052.34.175.182.488.115.785-.166 1.589-.263 2.392-.263.724 0 1.448.078 2.159.212.34.064.656.312.746-.069.141-.592-2.504-.599-2.931-.599z"/><desc/><path fill="#F9EB45" d="M27.618 29.597c-.232 0-.762-.123-.733.254.03.375.477.202.717.202.255 0 .696.177.711-.216.013-.362-.474-.24-.695-.24z"/><desc/><path fill="#F9EB45" d="M27.615 29.646c-.813 0-.796.356-.015.356.762.001.797-.356.015-.356z"/><desc/><path fill="#F9EB45" d="M25.227 29.853c-.135.029-.938.208-.472.565.007.005.562-.14.567-.147.051-.087.096-.413-.095-.418z"/><desc/><path fill="#F9EB45" d="M25.169 29.909c-.327 0-.59.099-.422.459.029-.008.486-.107.5-.132.039-.068.096-.339-.078-.327z"/><desc/><path fill="#F9EB45" d="M30.009 29.853c-.14.004-.178.297-.136.379.073.139.458.145.583.181.224-.476-.021-.476-.447-.56z"/><desc/><path fill="#F9EB45" d="M30.061 29.909c-.116 0-.153.224-.108.295.072.119.4.127.516.16.197-.36-.066-.455-.408-.455z"/><desc/><path fill="#F9EB45" d="M26.269 29.933c0 .185-.288.185-.288 0-.001-.184.288-.184.288 0z"/><desc/><path fill="#F9EB45" d="M36.625 29.256c.428.032.248-.376.441-.472-.15.2.168.527.346.545.422.043.262-.329.455-.458-.168.167.141.529.303.552.391.074.301-.272.469-.439-.197.139.154.544.295.57.346.071.354-.219.498-.411-.088.318-.037.768-.404.68-.902-.216-1.84-.33-2.768-.33-.943 0-1.893.12-2.811.334-.379.088-.324-.358-.406-.688.197.132.102.493.498.408.141-.025.494-.436.295-.569.105.212.133.502.469.44.178-.024.451-.367.303-.552.055 0 .137.489.453.458.166-.018.51-.356.348-.547.17.171.031.503.439.474.152-.002.564-.317.41-.512.105.208.002.502.365.516l.002.001z"/><desc/><path fill="#F9EB45" d="M33.365 30.481c1.045-.273 2.143-.401 3.221-.361.252.01 2.502.263 2.504.27 0-.28-3.037-.365-3.266-.357-.631.023-1.26.102-1.881.223-.059.012-.752.095-.578.225z"/><desc/><path fill="#F9EB45" d="M33.257 29.954c1.078-.283 2.215-.416 3.328-.377.693.023 1.385.11 2.064.249.082.017.611.225.578.032.037-.153-3.168-.379-3.377-.371-.699.024-1.395.112-2.08.251-.056.011-.696.083-.513.216z"/><desc/><path fill="#F9EB45" d="M36.177 29.57c-.439 0-2.982.004-2.887.602.055.34.176.182.494.115.793-.165 1.605-.262 2.418-.262.732 0 1.465.078 2.186.212.342.063.662.312.754-.069.141-.591-2.531-.598-2.965-.598z"/><desc/><path fill="#F9EB45" d="M36.22 29.57c-.234 0-.771-.123-.742.254.031.373.48.201.725.201.258 0 .705.177.721-.215.013-.362-.481-.24-.704-.24z"/><desc/><path fill="#F9EB45" d="M36.216 29.62c-.82 0-.807.355-.016.355.77.001.807-.355.016-.355z"/><desc/><path fill="#F9EB45" d="M33.802 29.826c-.137.028-.951.207-.477.563.006.005.568-.14.572-.147.052-.086.097-.41-.095-.416z"/><desc/><path fill="#F9EB45" d="M33.744 29.883c-.332 0-.596.098-.426.457.029-.008.49-.106.506-.131.037-.069.099-.338-.08-.326z"/><desc/><path fill="#F9EB45" d="M38.634 29.826c-.139.004-.178.297-.135.377.072.139.463.145.59.181.225-.474-.021-.477-.455-.558z"/><desc/><path fill="#F9EB45" d="M38.687 29.883c-.115 0-.152.225-.109.294.072.119.404.127.521.159.201-.359-.066-.453-.412-.453z"/><desc/><path fill="#F9EB45" d="M34.853 29.906c0 .184-.289.183-.289 0s.289-.183.289 0z"/><desc/><path fill="#F9EB45" d="M32.269 33.767c.307.021.402-.472.439-.472-.148.199.174.524.35.542.398.042.281-.288.451-.458-.176.156.152.533.305.555.414.075.277-.312.469-.439-.201.134.156.543.295.567.348.073.354-.216.5-.408-.049.174-.096.757-.295.706-.594-.153-1.203-.25-1.814-.308-.921-.087-1.844-.055-2.758.075-.179.025-1.188.355-1.329.261l-.194-.74c.196.131.101.492.498.406.166-.029.468-.392.294-.565.183.146.064.513.469.439.168-.023.466-.382.303-.555.187.148.042.5.455.459.157-.016.518-.363.348-.545.185.147.019.501.438.472.146-.001.574-.321.41-.51.16.161-.041.499.367.516v.002z"/><desc/><path fill="#F9EB45" d="M29.01 34.99c1.044-.271 2.143-.399 3.221-.359.626.023 1.251.101 1.866.221.078.016.67.23.637.048.039-.151-3.062-.364-3.265-.357-.631.024-1.261.103-1.881.224-.057.01-.751.093-.578.223z"/><desc/><path fill="#F9EB45" d="M28.902 34.465c1.078-.283 2.213-.416 3.326-.377.266.009 2.643.268 2.645.28 0-.286-3.142-.381-3.379-.372-.697.024-1.395.112-2.079.251-.058.011-.697.082-.513.218z"/><desc/><path fill="#F9EB45" d="M31.822 34.081c-.438 0-2.979.005-2.886.6.054.34.178.182.495.116.793-.166 1.606-.262 2.418-.262.731 0 1.464.078 2.185.212.346.064.66.313.754-.07.139-.586-2.535-.596-2.966-.596z"/><desc/><path fill="#F9EB45" d="M31.865 34.081c-.236 0-.77-.123-.74.253.028.371.482.201.724.201.255 0 .704.176.72-.215.013-.363-.482-.239-.704-.239z"/><desc/><path fill="#F9EB45" d="M31.861 34.129c-.821 0-.805.354-.014.354.77 0 .805-.354.014-.354z"/><desc/><path fill="#F9EB45" d="M29.175 33.112c-.148.031-1.02.221-.514.605.006.004.613-.146.618-.154.058-.096.103-.439-.104-.451z"/><desc/><path fill="#F9EB45" d="M29.39 34.392c-.314.058-.613.065-.427.458.027-.008.492-.107.504-.13.043-.075.098-.328-.077-.328z"/><desc/><path fill="#F9EB45" d="M34.384 33.112c-.152.01-.195.315-.146.406.08.15.496.155.635.193.236-.49-.014-.534-.489-.599z"/><desc/><path fill="#F9EB45" d="M34.441 33.173c-.635.04.477.496.445.487.215-.385-.074-.487-.445-.487z"/><desc/><path fill="#F9EB45" d="M30.5 34.416c0 .183-.291.183-.291 0 0-.185.291-.184.291 0z"/><desc/><radialGradient id="a" cx="416.669" cy="-197.932" r="27.021" fx="420.917" fy="-193.551" gradientTransform="matrix(1 0 0 -1 -389 -175.5)" gradientUnits="userSpaceOnUse"><stop offset="0" stop-color="#fff" stop-opacity=".314"/><stop offset=".19" stop-color="#fff" stop-opacity=".251"/><stop offset=".6" stop-color="#6D6D6C" stop-opacity=".126"/><stop offset="1" stop-color="#010202" stop-opacity=".126"/></radialGradient><path fill="url(#a)" d="M31.894 37.598c5.104-1.978 9.555-6.624 9.906-12.26.16-2.591.025-5.224.025-7.819 0-.295.211-1.479-.168-1.479h-19.056c-.577 0-.638-.135-.638.456v4.188c0 2.941-.211 5.909.978 8.683 1.612 3.755 5.17 6.765 8.953 8.231z"/></svg>