<svg xmlns="http://www.w3.org/2000/svg" width="64" height="48"><path fill="#DC2F34" d="M0 0h64v48h-64z"/><path fill="#262D62" d="M.029 0h31.95v23.996h-31.95z"/><path fill="#fff" d="M31.979.02h-3.895l-7.994 5.974v-5.994h-8.172v6.019l-8.028-5.999h-3.861v2.915l6.748 5.075h-6.748v7.996h6.748l-6.748 5.075v2.915h3.861l8.028-5.999v6.019h8.172v-5.994l7.994 5.974h3.895v-2.915l-6.782-5.075h6.782v-7.996h-6.782l6.782-5.075z"/><path fill="#DC2F34" d="M29.467.02l-10.663 7.995h2.552l10.623-7.995zM31.979 23.996l-10.634-7.99h2.564l8.07 6.085zM10.713 8.015l-10.684-7.995v1.91l8.109 6.085zM10.692 16.006l-10.663 7.99h2.551l10.665-7.99zM31.979 9.668h-13.634v-9.666h-4.683v9.666h-13.633v4.683h13.633v9.667h4.683v-9.667h13.634z"/><path fill="#fff" stroke="#000" stroke-width=".283" stroke-miterlimit="10" d="M56.579 17.087v15.731c0 2.378-.245 3.269-2.018 4.539-1.597 1.144-4.538 2.525-7.27 3.223-2.731-.697-5.673-2.079-7.27-3.223-1.773-1.271-2.018-2.161-2.018-4.539v-15.731h18.576z"/><path fill="#74B95B" d="M41.646 33.412c-.058-.241-.169-.419-.327-.469.114.171.08.353.06.557.006-.062-.031-.242-.089-.35l-.14.462c-.092-.087-.213-.351-.159-.581-.381.309-.298.936.001 1.2-.535-.376-.557-1.026-.483-1.597-.115.125-.292.492-.281.714-.017-.274.008-.564.079-.849-.183.097-.329.348-.338.598l.01-.48c-.27.288-.443.974-.424 1.253-.173-.271-.154-.927-.067-1.157-.252.222-.488.616-.488 1.348.107 1.37.507 2.079 1.817 3.009 1.466 1.041 4.164 2.295 6.67 2.931 2.507-.636 5.205-1.89 6.671-2.931 1.098-.779 1.557-1.402 1.739-2.389.032-.27-.062-.734-.12-.956-.055.26-.206.504-.376.7.115-.204.154-.633.029-.834-.035.192-.172.443-.355.683.009-.163.008-.568-.108-.817-.04.521-.365.941-.674 1.126.212-.184.386-.577.443-.837-.077.118-.207.262-.356.399.02-.146.102-.391.193-.516-.216.018-.322.121-.429.262.058-.164.196-.329.293-.445-.443.049-.567.721-1.176.857.314-.243.459-.678.752-.916-.175.006-.366.144-.584.323.02-.125.121-.303.236-.429-.218 0-.415.188-.65.403.115-.125.207-.49.256-.701-.049.076-.203.164-.328.231-.26-.05-.578.076-1.079.309-.502.23-8.772-.667-9.052-.53-.279.134-.375.269-.448.399l-.062-.198c.048.116-.299.232-.163.627-.271-.26-.116-.598.115-.825-.272.025-.497.194-.608.416z"/><path d="M51.777 34.352c.561-.049.932-.383 1.238-.667m-.65.743c.418-.148.766-.472 1.064-.718m-.399.718c.088-.03.164-.072.231-.125m.145.251c.44-.206.591-.471.738-.663m-.439.729c.186-.074.451-.269.675-.476m-.251.516l.164-.078m-.019.397c.268-.124.57-.405.801-.705m-.069.512c.118-.086.263-.209.396-.361m-15.144.032c-.249-.269-.29-.891-.289-1.359m1.023 1.133c.16.113.369.202.635.255m-1.399-1.137c.031.547.228 1.028.561 1.271m.636-.432c-.255-.234-.299-.418-.274-.576m.341.513c-.137-.229-.132-.437-.113-.625m.267-.088c-.145.291-.09.667.338.891m.38-.91c.012.074-.081.194.008.345m-.233.083c.081.087.197.184.29.216" fill="none"/><path d="M50.36 24.963c.087-1.05-.622-1.089-.655-1.841.252-.364.215-.803-.153-1.158 0-.212-.089-.296-.358-.529-.309-.267.005-.723-.27-.949.101-.02.217-.097.279-.198.091-.146-.067-.463-.019-.655-.202.086-.424-.039-.637.212-.038-.188-.183-.159-.154-.337l-.179.12c.02-.077.059-.178-.009-.246-.015.072-.178.087-.178.246.009-.077.004-.164-.073-.231.005.082-.148.082-.164.217.021-.13-.077-.145-.11-.231-.029.077-.145.193-.227.251.01-.102-.015-.232-.101-.285l-.136.319c-.015-.13-.086-.193-.14-.319l-.164.28c-.014-.072-.028-.149-.082-.197l-.096.231c-.011-.078-.063-.145-.121-.169l-.12.328c-.106-.337-.366-.154-.569-.304.059.169-.192.694.357.814-.463.265-.193.979-.53 1.181s-.55.285-.588.588c.068-.082.163-.147.264-.205-.231.352.016.639-.178.957-.192.319-.245.419-.245.564.144-.231.421-.273.54-.548l-.082.292c-.146.598-1.601 1.07-.328 2.208.542.423 4.696 1.339 5.226-.406zm-.65 9.967c.163.063.244.028.292.049 0 .074.03.142.085.178.01.116.089.207.195.207l.117.088c.125-.396.521-.242.299.038-.097.121-.059.309.066.414.298.251.78.029.617-.26s-.084-.36.154-.154c.212.184-.029.443.404.617.244.097.612-.165.55-.416.344.122.655-.08.646-.332.335-.395.028-.794-.338-.823s-.501.144-.878.154c-.115-.146-.347-.329-.636-.425-.048-.144-.135-.28-.288-.386-.606-.058-1.165.271-1.285 1.051zm-6.618-6.227c-.288-.212-.578-.096-.809.059-.656-.291-1.56-.019-1.735.423-.231.578.241.745.038 1.195-.462 1.021.231 1.389.174 1.852-.058.462.135.636.289.752.02-.203-.174-.483.048-.676.048.204.174.386.29.473-.029-.135-.011-.481.066-.645.059.221.213.52.376.653l-.019-.674c.076.309.135.473.308.665-.028-.163-.009-.405.068-.56 1.021-1.492 1.967-2.881.906-3.517zm8.81.193c.366-.067.983-.078 1.243.172.675-.144 1.167.291 1.195.83.029.54-.326.854-.019 1.706.125.348.096.867-.021 1.155-.019-.172-.125-.364-.211-.481-.02.202-.192.426-.192.705l-.222-1.09c-.088.271-.318.741-.059 1.062-.328-.029-.607-.753-.627-.985-.028.251-.163.387-.019.781-.126-.029-.28-.317-.328-.53-.431-.433-2.59-2.727-.74-3.325zm-6.636 6.034c-.163.063-.244.028-.292.049 0 .074-.03.142-.084.178-.011.116-.09.207-.196.207l-.117.088c-.125-.396-.521-.242-.299.038.098.121.059.309-.067.414-.297.251-.654.02-.491-.27.164-.29-.061-.389-.299-.183-.213.183-.117.562-.448.612-.26.038-.548-.122-.486-.373-.345.122-.656-.08-.646-.332-.335-.395-.028-.794.338-.823s.501.144.877.154c.115-.146.348-.329.636-.425.049-.144.136-.28.289-.386.605-.057 1.165.272 1.285 1.052zm4.554-10.276c.512-.241.713.212 1.369-.183.355.154 1.176-.367 1.687-.279-.559 2.236-3.346 1.59-3.056.462zm-4.665 0c-.511-.241-.713.212-1.369-.183-.357.154-1.176-.367-1.687-.279.56 2.236 2.979 1.513 3.056.462z" fill="#DC2F34"/><g fill="none"><path d="M45.546 22.868c.072-.126.072-.493.062-.623m-.058.612c.18-.391.425-.521.492-.95m-.212.704c-.087 1.03-.309 1.349-.491 1.591-.184.24-.435.578.077.915m.37-2.121c-.015.111.006.31.024.372.179-.164.327-.607.352-.925m-.583 2.462c-.24-.395.27-.945.299-1.427m.801-.983c.153.55-.417 1.065-.328 1.6.038.232.106.666-.01.936m0-2.825c.192.453-.279.81-.164 1.156.115.348.169.676.183.796m-.284-1.297c-.024.079.038.188.101.265m.684-.371c.271.579.105 1.022.028 1.253-.077.23-.366.694-.173 1.205m.262-1.523c-.067.299.278 1.128.211 1.822m.193-.076c.087-.26.144-.716.048-.983-.23-.646.068-1.146-.076-1.456.385.454.211 1.187.337 1.485.125.299.145.598.106.713.202-.279.347-.646.26-.906s-.174-.424-.164-.655.01-.511-.086-.656c.289.395.269.772.375 1.012.106.241.115.723 0 1.003.53-.425.241-1.079.347-1.397.106-.318-.023-.631-.058-.714M47.999 21.233l.646-.55M48.075 21.291l.695-.386M48.144 21.396l.694-.279M47.208 21.435l-.675-.539M47.194 21.464l-.94-.386M47.17 21.488l-.945-.053M46.147 21.271c-.051.34-.418.472-.719.624m4.124.069c-.081-.078-.177-.152-.29-.221-.435-.26-.306-.487-.43-.824-.082-.222-.062-.417-.104-.646m.143.752c.085.683-.448.916-.337 1.258.131.407.419.675.399.964s-.01.53.01.675c-.067-.087-.183-.356-.193-.55-.183.676.203 1.021.077 1.34.126-.096.203-.375.203-.5.145.201.251.462.231.712m-.5-2.843c0 .81.297.693.308 1.561.01.781.589.637.637 1.147.125-.703-.463-.915-.435-1.475.029-.559-.163-.944-.327-1.157.356.309.569.762.559 1.186-.01.425.454.685.502 1.003.019-.261 0-.512-.116-.694m-1.009-2.448c.006.29.188.598.382.858.192.26.424.8.443 1.061m-2.43-3.129c.271.241.029.371.092.622.029.117.072.222-.024.323m.057-.685c-.206-.27-.577.082-.746-.068.12.169.037.273.188.376.226.155.518.075.558-.308zm.426-.237c-.098.252.008.339-.04.508-.034.122.002.242.034.332m-.038-.593c.125-.121.356-.056.438-.02.043.02.159.039.274-.043-.087.096-.133.16-.145.255-.019.149-.228.259-.386.188-.085-.038-.187-.129-.181-.38zm.968.135l.174.087m-2.496.313c.019.212-.039.492-.125.733m2.042-.159c.054.048.111.134.121.217m.082-.135c-.005-.053-.053-.121-.097-.149m.126-.093l.087.121m-2.131-.015l-.038.607c.115.636.578.462.559.752.116-.145.376-.246.463.14.13-.13.149-.352.26-.347.078.003.188.14.208.511.091-.058.091-.429.053-.54.184.058.41.361.458.501-.029-.251-.039-.439-.13-.583m-1.769-.621c-.188.28-.029.467.197.525.227.058.317-.101.53.063.105.082.289.053.429-.005.14-.058.698-.159.834.087m1.639 12.742c.005.094.025.163.057.212m-.281-.384l.021-.102m.064.279l.018-.134m2.385.668c-.145-.446-.486-.245-.756-.577m1.403.245c-.029-.534-.604-.348-.959-.447m-1.365-.005l-.072-.229c.055.025.253.189.304.234l-.114-.226c.098.027.21.2.398.226l-.188-.243.318.063-.146-.18.225.034-.17-.173m-.578.499l-.207-.211.029.24-.127-.19-.011.15-.183-.144m-9.657-4.588c.005-.318.179-.53.193-.698.125.236-.063.675.193 1.027m.077 1.811c-.062-.198-.052-.547-.153-.784-.126-.295.077-.555-.029-.816m-.155 1.591c.048-.338-.038-.906.043-.988m.65.825c-.081-.242-.072-.724-.188-.912m-.188-1.2c.029.473.184.837.464 1.079l.009-.358m-.14-.91c-.188.517.25 1.018.261 1.205.038-.033.071-.154.062-.231m-.173-.539c-.024.289.295.616.299.849.212-.189.164-.729.101-.927m.033.13c.092.279.16.496.121.646.27-.198.222-.834.125-.965.067.097.202.236.217.327.049-.178 0-.472-.11-.61m-.535 2.395c-.059-.213-.184-.429-.169-.819m.641-2.534c.352.154 1.16.091 1.204.568m-.294.24c-.197-.202-.545-.322-.785-.318.135.073.665.344.766.65m-.573.093c.101.169.251.447.274.659.136-.336.054-.896-.361-1.094m2.236 5.591c-.005.094-.025.163-.057.212m.281-.384l-.021-.102m-.063.279l-.019-.134m-2.386.668c.145-.446.486-.245.757-.577m-1.403.245c.029-.534.603-.348.959-.447m.819-.469l-.159.184.222-.047-.091.201.27-.096-.131.25.343-.245-.101.23m.086-.095l.203-.154-.105.241m.1-.015l.163-.212m-.014.242l.116-.198.019.149.174-.154m8.965-2.829c-.073-.16-.193-.525-.174-.781m.588 1.165c.033-.169-.222-.723-.149-1.026m-.951.718c-.019-.144-.004-.292.01-.342m.141-.216c.197.283-.097.974.134 1.271m.612-3.122c.165.208.289.584.049.922.014-.207-.082-.542-.217-.714.092.212.145.399.034.702-.044-.062-.092-.152-.103-.221-.033.207-.077.419-.211.53-.015-.149-.188-.31-.098-.66m-.013.31c.014.148-.154.549-.279.636-.01-.348-.478-.568-.502-.805m.598-1.193c.145.116.165.222.203.3-.184-.106-.563-.236-.491-.072.033.078.14.163.222.236-.073-.05-.271-.111-.348-.12.159.105.279.429.337.458-.158-.044-.51-.289-.598-.458-.042.211.382.476.42.654-.266-.097-.55-.298-.627-.438.005.28.376.583.55.671-.164.023-.685-.169-.814-.371"/></g><path fill="#3E98D4" d="M47.485 25.666c1.08 0 .653-1.204 2.619-.279 1.497.704 2.141.116 2.632-.684.491.077.443.598.646.694-.077.269-.24.501-.395.674.134.135.144.347.087.492.375-.078.511.327.732.405-.029.153-.109.52-.097.693.01.135-.193.473-.521.356.174-.414.231-1.032-.656-.665-.886.366-1.252 2.834.136 3.721.54 1.522-1.003 2.988-2.371 2.776-.174.925-1.234 1.233-1.678 1.388s-.337.825-.048.737c-.024.082-.154.198-.284.154-.13-.043-.437-.131-.803-.131s-.673.088-.803.131c-.13.044-.261-.072-.284-.154.29.088.396-.583-.048-.737s-1.505-.463-1.677-1.388c-1.37.212-2.911-1.254-2.372-2.776 1.388-.887 1.022-3.354.136-3.721-.888-.367-.83.251-.656.665-.328.116-.53-.222-.521-.356.013-.174-.067-.54-.096-.693.222-.078.355-.483.731-.405-.057-.146-.048-.357.088-.492-.155-.173-.318-.405-.396-.674.201-.097.153-.617.646-.694.492.8 1.135 1.388 2.632.684 1.968-.925 1.542.279 2.621.279z"/><path d="M46.91 21.57c.134.159.5.227.669-.015.169.13.517.222.694.005-.039.096-.077.241 0 .333-.328-.106-1.008-.082-1.287-.024l-.076-.299zm1.191-.086c-.045 0-.045.067 0 .067v-.067zm-.194.005c-.045 0-.045.067 0 .067v-.067zm-.005-.155c-.045 0-.045.067 0 .067v-.067zm-.737-.147c.125-.099.277-.072.315.034.039.106-.017.166-.056.128-.038-.039-.127-.022-.163.019.012-.027.071-.102.12-.104-.038-.057-.137-.106-.216-.077zm.48.099c.021-.106.11-.145.186-.137l.002.046c-.056.002-.118.039-.142.091h-.046zm-.215.183c-.045 0-.045.067 0 .067v-.067zm1.615-1.673c-.154.039-.149.163-.266.222-.151.077-.056.174-.045.294l.262-.28.049-.236zm-2.719.063c-.034-.169-.222-.106-.265-.169-.039.173.047.356.168.482l.044-.149-.116-.193.169.029zm.809.291c.133.072.104.309-.086.309-.151 0-.2-.156-.143-.254l.229-.055zm.985.062c.102.086.063.292-.112.292-.184 0-.215-.229-.093-.306l.205.014z"/><path fill="#F3E8CD" d="M42.659 27.315c.019-.078.145-.232.201-.279v-.348l.309-.02.005.058c.116-.004.338-.023.435 0 0-.148.081-.245.14-.284l.009-.13.159-.078.072.122.232-.054.115-.136c.077-.009.198-.014.27.015l.029.126c.163.015.257-.196.391-.115.515.312.447.378.718.969.414.906 1.146 2.698 1.629 3.392-1.176.889-3.471 2.064-4.955 1.697-.27-.829-.134-1.214.579-1.986.712-.77-.001-2.544-.338-2.949z"/><path d="M43.295 27.835h.101l.039-.105.077.01c.038.102.159.207.361.207.149.338.111.053.322.641m-.095-.242c-.034-.086.096-.192.13-.24l.062.164m-.939.751c.049.723.665.289.877 1.368m-.622-3.662l.226.531c.049.201.059.157.18.196.119.039.298.104.408.53.136.516.453.469.656.921m-.857-2.602c-.029.048-.021.154.071.275l.116.327c.105.125.188.313.227.482.039.168.115.356.169.462" fill="none"/><path fill="#fff" d="M51.768 28.818c-.279-.473-.771-.443-1.003-.289-.202-.511-1.021-.656-1.397-.356-.327-.174-.925-.049-1.041.309-.308-.271-.973-.232-1.176.211-.366.242-.309 1.09.26 1.273.569.184 4.094 4.223 4.858 3.074.231-.347.685-1.138.4-1.966-.535-.423-1.056-1.215-.901-2.256z"/><g fill="#fff"><path d="M44.9 27.397l.39 3.966M44.924 27.385l.694 3.94M44.958 27.365l1.017 3.969M44.989 27.347l1.26 3.814M45.236 27.199l1.857 2.323M45.213 27.212l1.591 2.445M45.188 27.229l1.432 2.659M45.251 30.998l.955-.184M45.203 30.506l.993-.116M45.174 30.12l.868-.116M45.126 29.687l.771-.079M45.753 29.223l-.647.078M45.067 29.001l.579-.058M45.039 28.692l.492-.029M45.002 28.39l.423-.034M45.656 28.27l.299-.173M45.792 28.549l.346-.212M45.936 28.858l.395-.28M46.081 29.138l.433-.329M46.215 29.444l.464-.433M46.408 29.832l.492-.542M44.963 28.067l.332-.043M45.508 27.966l.23-.135M46.466 30.092v-2.893M46.492 27.181l.166 2.651M47.054 29.532l-.521-2.39M47.295 29.427l-.762-2.325M46.51 27.127l.361 2.492M46.697 27.036l1.166 2.114M46.812 26.978l1.417 2M46.755 27.007l1.297 2.055M46.476 29.532l.906-.394M46.466 29.146l.8-.299M46.476 28.818l.665-.259M46.476 28.471l.54-.211M46.466 28.097l.434-.136M47.536 28.762l.483-.087M47.4 28.481l.386-.125M47.247 28.193l.375-.078M47.093 27.894l.328-.05M46.948 27.604l.289-.029M46.774 27.651l-.308.117M47.661 29.001l.462-.163"/></g><path fill="#D8B47E" d="M46.251 31.23l-.074-.754.598-.811 2.892-1.367.084.634.118-.051.037.272-.065.038.053.397.188-.102.01.294c.115.116.521.405.694.453l-.077 2.67c-2.969.598-5.494 1.368-4.974-1.464l.516-.209z"/><g fill="#D8B47E"><path d="M47.469 29.339l-.99-2.413-.126-.014-.027-.412.302.275-.052.108 1.192 2.316zM46.328 27.061l.419-.236.114.153-.442.276zM46.211 30.435l-1.287-3.39-.15-.02-.019-.486.348.333-.064.125 1.466 3.034zM44.741 27.199l.5-.265.131.183-.53.313z"/></g><g fill="none"><path d="M47.176 29.474v-.199l2.485-1.174v.198M49.403 29.091l.035-.506-2.528 1.197-.557.754c.739-.339 2.992-1.42 3.396-1.604M49.136 28.912l-1.988.942M45.733 31.441c1.301-.513 3.644-1.554 4.347-1.953l-.038 2.502m-4.338-.303c1.301-.511 3.673-1.566 4.376-1.966m-3.672.997c1.118-.492 2.844-1.273 3.497-1.563M49.377 29.392l-.029.467M49.098 29.522l-.03.467M48.803 29.663l-.029.467M48.534 29.782l-.029.468M48.273 29.894l-.029.466M46.562 31.978c.598-.26 2.092-.896 2.719-1.205m-2.655 1.364c.574-.25 1.976-.847 2.641-1.166m-2.67 1.685c.574-.248 1.976-.846 2.64-1.166m-2.602 1.388c.574-.248 1.976-.847 2.641-1.166m-2.516 1.399c.574-.251 1.976-.847 2.641-1.169m-2.603 1.39c.575-.25 1.977-.846 2.641-1.168M49.329 30.101l-.126 1.793M47.527 31.389l.403-.177.02-.247-.403.177-.02.247zm.784-.349l.401-.18.021-.247-.403.182-.019.245zm-.833 1.056l.404-.179.016-.184-.406.179-.014.184zm.781-.342l.406-.182.013-.182-.405.18-.014.184zm1.051-1.374c.227-.066.611-.265.766-.399.146.169.454.371.704.429m-1.47.187c.227-.067.611-.266.766-.399m-.786.573c.227-.066.612-.265.767-.399m-.767.592c.227-.067.574-.228.767-.4m-.801.645c.257-.082.612-.245.806-.42m-.82.632c.256-.081.611-.245.806-.419m-.806.621c.256-.082.611-.245.806-.418m.027-.83c.111.154.381.329.694.329M49.425 28.409v-.196M49.214 28.513v-.199M49.019 28.607v-.198M48.823 28.7v-.196M48.628 28.787v-.198M48.433 28.88v-.198M48.237 28.976v-.198M48.042 29.065v-.198M47.847 29.157v-.195M47.651 29.25v-.197M47.456 29.341v-.196M47.262 29.434v-.199M50.057 30.563c.11.154.391.318.704.318m-.695-.067c.111.154.39.318.703.318m-.694-.93c.13.14.362.298.689.327"/></g><path fill="#fff" d="M42.196 31.576c-.095 1.326 1.26 2.463 2.478 2.274.172.925 1.233 1.233 1.677 1.388s.338.825.048.737c.023.082.154.198.284.154.13-.043.437-.131.803-.131s.673.088.803.131c.13.044.26-.072.284-.154-.289.088-.396-.583.048-.737s1.504-.463 1.678-1.388c1.241.192 2.625-.996 2.469-2.354-.064-.133-.556-.2-.72-.095-.058-.298-.443-.452-.724-.298-.636-.367-1.243-.059-1.281.665-.491-.464-1.003-.186-1.089.327-.135.801-1.774 1.36-2.236.443.317-.019.492-.513.184-.78-.29-.25-.743.01-.733.337-.347-.27-.424-.531-.404-.751.029-.357-.568-.588-.878-.116-.135.029-.327.126-.376.28-.183-.464-.675-.627-.963-.551-.289.078-.56.425-.473.743-.222-.251-.607-.271-.878-.146"/><path d="M44.702 32.462c-.222-.347-.607-.396-.849-.317-.241.076-.058.309-.289.443-.231.134-.145.665.261.741m.299-.607c.183-.018.375.126.462.318m.088-.097c-.068-.269-.271-.481-.53-.472m.616.193c.067.396.473.3.521.655m-.329-.857c.011.193.242.376.376.405m-.25-.646c.087.125.24.318.405.376m-.357-.858c.02.279.213.549.56.598m-.569-1.012c.433.02.192.703.529.771m.019-.327c.029.134.28.414.482.51m-2.284-.569c-.019-.26-.125-.53-.338-.636.252.021.53.222.646.511m.338-.076c-.039.096-.024.317.053.429m1.504 1.102c.033.241.255.188.279.501m-.057-.554c.01.131.173.188.173.367m-.11-.55c.004.093.091.198.188.232m-.126-.387c.067.034.13.131.159.213m-.198-.409c.228.086.442.399.568.602.246.391 1.047.42 1.326.169s.414-.386.607-.367m-2.303.618c.472.481 1.252.134 1.456.347m-.231.221c.342-.23.737.131.973-.164.214-.265.53-.463.781-.414m-2.179.781c.309.135.574-.067.857.01.435.116.819-.493 1.312-.405m-4.27.422c.501-.027.82.692 1.63.454 1.012-.3 1.966.222 2.293.076m-1.861.079c.338-.058.868.029 1.1.222m-.897.009c.192.009.482.106.587.25m-.433.03c.13-.009.338.097.433.163m-.433.096c.13-.009.338.097.433.165m1.727-3.943c-.184-.144-.54-.202-.675.02.145-.029.355.038.453.184m-.184 1.175c.174-.146.202-.415.116-.598m.752.598c.115-.28.077-.829-.25-.994m.568-.558c.125.067.164.269.125.395m.039-.53c.135.057.197.289.178.438m-.255-.67c.327.034.487.294.458.671m-.275.437c.236.093.27.443.105.646m.295-.538c.062.172 0 .438-.092.562m.141.184c.27-.26.323-.881.014-1.061m.144-.545c.203.049.343.279.333.53.211.029.405.241.443.513m-.41-1.254c.092.038.184.14.208.236.101-.025.328-.049.496.053" fill="none"/><path d="M47.485 25.879c.135 0 .364-.01.605.087l-.02-.511c-.136-.087-.384-.135-.586-.135-.203 0-.451.048-.585.135l-.02.511c.243-.097.472-.087.606-.087zm-5.318-1.186c.222.838.723 1.137 1.445 1.176.456.023 1.052-.151 1.427-.414.597-.42 1.354-.326 1.681.073-.167-.073-.34.091-.34.254s.125.279.356.279c.183 0 .347-.183.347-.434 0-.713-1.178-1.066-1.986-.588-.46.273-1.018.493-1.484.459-.598-.044-.982-.323-1.118-1.018l-.328.213zm10.638 0c-.223.838-.724 1.137-1.447 1.176-.455.023-1.051-.151-1.426-.414-.598-.42-1.354-.326-1.681.073.167-.073.341.091.341.254s-.126.279-.357.279c-.183 0-.347-.183-.347-.434 0-.713 1.177-1.066 1.985-.588.462.273 1.02.493 1.484.459.599-.044.983-.323 1.118-1.018l.33.213zm-5.827 10.959c0 .405-.246.492-.415.492-.355 0-.373-.503-.054-.554-.11-.439-1.682-.285-1.971-1.548-1.812.087-2.642-1.408-2.487-3.064 1.351-.762 1.061-2.257.676-3.065-.274-.576-.762-.579-.954-.445.375.139.167.688-.204.551-.144-.053-.23-.175-.23-.309 0-.366.269-.751.849-.655.761.126 1.215.935 1.215 2.11 0 1.022-.366 1.601-.984 2.006-.019 1.484.598 2.391 2.017 2.558-.308-.06-.285-.553.065-.553.217 0 .309.183.278.337.062-.048.146-.067.247-.038.364.104.206.638-.153.535.301 1.065 2.105.776 2.105 1.642zm1.015 0c0 .405.247.492.415.492.354 0 .373-.503.054-.554.11-.439 1.681-.285 1.971-1.548 1.812.087 2.642-1.408 2.487-3.064-1.35-.762-1.062-2.257-.675-3.065.273-.576.761-.579.953-.445-.375.139-.167.688.203.551.145-.053.231-.175.231-.309 0-.366-.268-.751-.849-.655-.761.126-1.214.935-1.214 2.11 0 1.022.365 1.601.982 2.006.02 1.484-.597 2.391-2.016 2.558.308-.06.285-.553-.066-.553-.215 0-.308.183-.278.337-.061-.048-.146-.067-.246-.038-.365.104-.206.638.154.535-.302 1.065-2.106.776-2.106 1.642z" fill="#FFD851"/><path d="M52.905 23.97c.491 0 .751.781-.068.781-.462 0-.577-.781.068-.781zm-.993-.337c.502 0 .627.849-.019.849-.57-.001-.52-.849.019-.849zm.598.617c-.491 0-.501-.753-.058-.753.53 0 .598.753.058.753zm-.685 1.156c-.604.06-.713-.858-.086-.954.569-.086.761.887.086.954zm-9.755-1.436c-.491 0-.751.781.068.781.463 0 .578-.781-.068-.781zm.993-.337c-.502 0-.626.849.019.849.569-.001.522-.849-.019-.849zm-.597.617c.492 0 .501-.753.058-.753-.531 0-.598.753-.058.753zm.714 1.137c.604.062.713-.858.086-.954-.569-.086-.761.887-.086.954z" fill="#DC2F34"/><path d="M52.562 24.032c.231.068.118.354-.036.414-.155.061-.213.123-.228.188-.065-.158.031-.264.01-.357-.039-.176.059-.301.254-.245zm.391.459c.17.133-.005.524-.443.289.105-.044.174-.116.183-.207.009-.092.125-.188.26-.082zm-1.123.534c.02.172.318.13.377.068.057-.063.134-.198.23-.213-.13-.067-.352-.092-.481-.058-.131.035-.136.116-.126.203zm.256-.473l.115-.037c-.169-.072-.009-.332-.245-.342-.237-.01-.228.255-.146.274.099 0 .203.041.276.105zm-9.658-.49c-.191.061-.132.323.021.384.155.061.212.123.227.188.066-.158-.029-.264-.009-.357.03-.139-.045-.276-.239-.215zm-.406.429c-.17.133.004.524.443.289-.105-.044-.174-.116-.183-.207-.01-.092-.125-.188-.26-.082zm1.152.516c-.019.171-.317.13-.376.066-.058-.062-.135-.197-.23-.212.13-.067.352-.091.481-.058.131.035.135.117.125.204zm-.009-.579c.081-.019.092-.265-.146-.255-.236.01-.076.27-.245.342l.13.032c.058-.049.143-.114.261-.119zm9.851 10.635c.28-.269.535.069.478.475-.13-.044-.174-.285-.356-.222-.017-.087-.05-.194-.122-.253zm-.171.38c.118-.112.345-.009.362.226.017.234-.121.423-.314.425.136-.32-.347-.368-.048-.651zm-.638.302c.308.019.38.473.018.659-.053-.338-.185-.276-.206-.385-.03-.145.023-.285.188-.274zm-1.186.11c-.178.093-.175.455.279.479-.133-.204-.013-.291-.052-.388-.026-.063-.136-.139-.227-.091zm-9.062-.792c-.279-.269-.534.069-.477.475.13-.044.174-.285.357-.222.015-.087.048-.194.12-.253zm.141.412c-.105-.124-.343-.048-.386.184-.043.23.072.434.265.457-.101-.333.385-.327.121-.641zm.592.251c-.309.018-.381.472-.019.661.053-.338.185-.278.207-.388.029-.144-.024-.283-.188-.273zm1.33.119c.187.075.222.435-.227.507.111-.218-.019-.29.01-.391.02-.066.121-.154.217-.116z" fill="#003671"/></svg>