<svg xmlns="http://www.w3.org/2000/svg" width="64" height="48"><path fill="#FFED00" d="M0 0h64v48h-64z"/><path fill="#fff" d="M64 34.452l-64-19.447v-11.614l64 19.294z"/><path d="M64 34.452l-64-19.447v10.194l64 19.431z"/><g stroke="#000" stroke-width=".125"><path fill="#E73137" d="M32.492 24.275l-.087-4.654-.061-3.214c-.007-.362.186-1.242-.246-1.242-.659 0-.417.502-.427 1.104l-.05 3.153-.077 4.852.948.001zm-.494-2.452c.418.38.686 1.077.633 1.639.086-.579.583-1.262 1.231-1.225-.603.8-.542 1.688-.482 2.631.074 1.186-.367 2.032-1.381 2.679-.918-.587-1.43-1.371-1.391-2.469.036-1.016.185-1.969-.472-2.842.647-.037 1.145.646 1.23 1.225-.054-.561.214-1.257.632-1.638.376.343-.376.343 0 0zm0 9.475c1.077-.653 1.651-1.524 1.583-2.79-.058-1.07-.17-2.064.544-2.965-.713-.039-1.302.671-1.404 1.326.061-.616-.256-1.372-.722-1.775-.466.403-.783 1.159-.722 1.775-.102-.655-.691-1.365-1.404-1.326.714.9.602 1.895.543 2.965-.069 1.265.505 2.137 1.582 2.79 3.023-1.834-3.024-1.834 0 0zm0 2.613c.888-.133 1.805-.385 1.888-1.405.082-1.004.059-1.89.608-2.788-.771.275-1.337-.141-1.619.936.153-.797-.694-1.076-.878-1.735-.183.659-1.031.938-.877 1.735-.282-1.076-.849-.66-1.619-.936.55.898.526 1.784.608 2.788.084 1.02 1.001 1.272 1.889 1.405 3.121-.468-3.121-.468 0 0zm0-17.234c.387-.227.615-.634.615-1.083 0 .452.229.812.584 1.073.327-.326.449-.677.449-1.141 0 .544.208 1.029.731 1.249.279-.631.108-1.496-.185-2.091-.419-.855-1.352-.825-2.196-.825-.713 0-1.654-.055-2.085.626-.387.611-.599 1.604-.294 2.29.524-.22.731-.704.731-1.249 0 .375.07.725.324 1.011.345.388.709-.67.709-.942.002.447.23.855.617 1.082.332-.195-.332-.195 0 0zm0-2.156c.192 0 1.793.03 1.793-.332 0-.361-1.602-.331-1.793-.331s-1.793-.03-1.793.331c0 .362 1.601.332 1.793.332zm-8.349 19.859c-.401-.156-.933-.323-1.112-.762-.269.376-.165 1.017.019 1.405-.837-.06-1.574.402-1.873 1.189.683-.184 1.423-.337 2.127-.185.567.123.969.511 1.438.819 1.144.755 2.443.954 3.79.751-.523-.721-1.402-1.268-2.114-1.778-.712-.508-1.464-1.094-2.275-1.439-.351-.137.78.331 0 0zm16.698 0c.401-.156.933-.323 1.112-.762.268.376.164 1.017-.02 1.405.837-.06 1.574.402 1.872 1.189-.683-.184-1.423-.337-2.127-.185-.566.123-.969.511-1.438.819-1.145.755-2.443.954-3.79.751.523-.721 1.402-1.268 2.114-1.778.713-.508 1.465-1.094 2.277-1.439.351-.137-.781.331 0 0zm-8.349 4.193c1.865 0 3.995-.427 5.388-1.763.753-.722 2.048-1.01 2.912-1.644.776-.57-.152-1.028-.266-1.697-.071-.417-.092-1.11-.666-1.161-.784-.068-1.498 1.147-2.087 1.561-1.469 1.029-3.478 1.72-5.282 1.72-1.728 0-3.619-.642-5.061-1.571-1.087-.702-2.573-2.888-2.973-.548-.083.487-.901 1.07-.462 1.529.703.735 2.045 1.301 2.975 1.678 1.369 1.448 3.614 1.896 5.522 1.896zm-5.226-19.094c-3.469 3.703-1.948 9.93 2.811 11.635 4.479 1.604 9.384-1.709 9.567-6.46.048-1.216-.216-2.437-.768-3.522-.269-.528-.603-1.022-.992-1.468-.095-.107-1.017-.917-.328-.956 2.021 1.31 3.487 3.394 4.025 5.742 1.036 4.528-1.528 9.257-5.892 10.851-4.31 1.573-9.255-.323-11.421-4.36-1.112-2.073-1.394-4.543-.787-6.814.328-1.23.913-2.387 1.705-3.383.361-.454.764-.875 1.203-1.255.469-.407.445-.374.877-.01zm5.226 1.051c.309.627 1.252 1.006 1.913.761.478.2 1.021.356 1.543.266.486-.084.622-.301 1.135-.247.365.039.799.082 1.144-.075.111-.046.195-.122.252-.227.133-.269.209-.15.521-.168.319-.018.766-.082.939-.396.188-.339.648-.161.968-.442.078-.071.138-.156.178-.254.112-.26.346-.286.53-.498.297-.34-.061-.495-.382-.457-.986.116-1.969.085-2.931-.171-.906-.241-1.801-.571-2.675-.905-1.011-.387-2.194-.822-3.135-.036-1.483-1.24-4.02.418-5.569.874-.917.27-1.851.355-2.803.275-1.371-.115-.59.409-.145 1.055.216.314.668.356 1.014.378.047.369.446.504.76.552.159.023.319.033.479.029.407-.007.134.076.382.296.265.234.715.211 1.041.19.539-.034.659-.014 1.144.162.463.167.983.077 1.438-.072.78-.255 1.781.081 2.259-.89.339.688-.339.688 0 0z"/><path d="M23.35 19.592c.357.196 1.313.284 2.728-.106m-1.584.778c1.096.07 2.393.012 3.369-.349m-1.896.918c1.115-.011 2.071-.167 2.93-.499m-1.011.913c.717-.093 1.819-.415 2.434-.981m-.234 1.025c.4-.146.937-.537 1.2-.917m9.36-.782c-.357.196-1.312.284-2.728-.106m1.584.778c-1.096.07-2.393.012-3.369-.349m1.896.918c-1.115-.011-2.072-.167-2.93-.499m1.01.913c-.717-.093-1.819-.415-2.434-.981m.235 1.025c-.4-.146-.937-.537-1.2-.917" fill="#DC2F34"/><path fill="#E73137" d="M32.232 10.464l.042 2.227.023 1.242c.007.36-.591.297-.591.204-.233-.246.03-1.885.035-2.227l.02-1.242c.004-.309.165-.219.471-.204zm-.234.402c.935 0 .935-1.448 0-1.448-.934 0-.934 1.448 0 1.448zm0 .176c1.173-.086 1.845 1.107 3.029 1.109-.247.266-.529.643-.927.672.377.31.188.967.709 1.145-1.062-.001-1.757-.901-2.811-.823v-2.103zm14.273 10.249c-.289-.736-.708.669-.721.843-.022.298-.605 1.068-.35 1.312.769.73 1.323-1.71 1.071-2.155-.101-.257.126.224 0 0zm.663-.059c-.159-.306-.645-.125-.751.126-.206.489-.12.923-.379 1.39-.109.198-.675 1.145-.557 1.407.208.458 1.168-.7 1.266-.889.242-.464.761-1.514.421-2.034-.127-.244.332.507 0 0zm.634-.244c-.41-.47-.846.132-.901.515-.045.312-.057.635-.025.948-.283.214-.481.566-.634.879-.153.316-.135.463-.423.676-.302.223-.604.472-.827.777-.15.208-.336.812.118.771.73-.066 1.46-.89 1.872-1.421.686-.886 1.104-2.026.82-3.145-.263-.302.663 2.623 0 0zm-3.332 12.669c.396.004 1.08.022 1.403-.266.144-.128.042-.62.036-.788l-.085-2.652c-.026-.841-.052-1.682-.065-2.523-.006-.31-.011-.619-.006-.929.401-.315.776-.672 1.136-1.033.692-.696.921-1.374 1.187-2.303.104-.362.563-2.4-.011-2.37-.35.019-.479.466-.54.74-.055.248-.079.503-.089.757-.014.332-.182.382-.338.667-.139.251-.228.527-.293.804-.092.387-.288.392-.617.597-.385.239-.71.718-1.086.914.369-.192.565-1.364.826-1.735.519-.737-.243-1.205-.722-.489s-1.084 1.016-1.683 1.601c-.569.557-.426 1.38-.391 2.095.061 1.221-.044 2.463-.076 3.684-.02.756-.04 1.512-.05 2.269-.01.94.558.953 1.464.96zm-.011-.538c-.357 0-2.657-.532-1.546-1.115.082-.043.376.226.54.268.324.083.672.116 1.006.116.271 0 .545-.026.811-.075l.732-.31c1.107.566-1.199 1.116-1.543 1.116zm0-.715c-.354 0-2.631-.527-1.53-1.104.081-.043.372.224.534.265.321.082.665.115.996.115.268 0 .539-.026.803-.074l.725-.307c1.096.56-1.188 1.105-1.528 1.105zm0-.725c-.347 0-2.579-.517-1.5-1.082.035-.019 1.209.373 1.5.373.296 0 1.455-.396 1.498-.374 1.075.55-1.164 1.083-1.498 1.083z"/><path fill="#DC2F34" d="M31.998 24"/><path fill="#E73137" d="M17.725 21.291c.289-.736.708.669.721.843.022.298.604 1.068.349 1.312-.768.73-1.322-1.71-1.07-2.155.101-.257-.127.224 0 0zm-.663-.059c.159-.306.645-.125.751.126.207.488.121.923.379 1.39.11.199.675 1.144.556 1.407-.207.458-1.168-.7-1.266-.889-.241-.464-.76-1.514-.42-2.034.126-.244-.332.507 0 0zm-.634-.244c.409-.47.846.133.901.515.045.312.057.635.025.948.283.214.482.566.634.879.153.316.134.463.423.676.302.223.604.472.827.777.151.208.336.812-.118.771-.731-.065-1.46-.89-1.872-1.421-.686-.886-1.103-2.026-.82-3.145.263-.302-.664 2.623 0 0zm3.332 12.669c-.396.004-1.081.022-1.404-.266-.144-.128-.042-.62-.036-.788l.085-2.652c.026-.841.051-1.682.066-2.523.005-.31.01-.619.005-.929-.402-.315-.776-.672-1.136-1.033-.692-.696-.919-1.374-1.186-2.303-.103-.361-.563-2.4.01-2.37.35.019.479.466.54.74.055.248.08.503.089.757.013.332.181.382.338.667.138.251.227.527.293.804.092.387.288.392.618.597.385.239.71.718 1.085.914-.369-.193-.564-1.364-.826-1.735-.519-.737.243-1.205.722-.489.479.715 1.084 1.016 1.683 1.601.569.557.426 1.38.391 2.095-.06 1.221.044 2.463.077 3.684.02.756.04 1.512.049 2.269.011.939-.557.953-1.463.96zm.011-.538c.358 0 2.657-.533 1.545-1.115-.082-.043-.375.226-.539.268-.324.083-.672.116-1.006.116-.271 0-.545-.026-.811-.075l-.733-.31c-1.106.566 1.2 1.116 1.544 1.116zm0-.715c.354 0 2.63-.527 1.53-1.104-.082-.043-.372.224-.534.265-.321.082-.665.115-.996.115-.268 0-.54-.026-.803-.074l-.726-.307c-1.095.56 1.189 1.105 1.529 1.105zm0-.725c.347 0 2.579-.517 1.5-1.082-.079-.041-.365.22-.523.261-.314.08-.652.112-.976.112-.295 0-1.457-.396-1.499-.374-1.075.55 1.165 1.083 1.498 1.083z"/><path d="M23.6 35.092c-.665-.451.424-.416.746-.231.804.459 1.5 1.147 2.131 1.816m13.919-1.585c.665-.45-.424-.416-.746-.231-.804.459-1.499 1.147-2.131 1.816" fill="none"/></g><path d="M25.778 30.978c-.144 0 .32-.86-.038-1.113-.599-.425-.596.624-.755.84-1.038-.705-.683-1.982-.58-3.025.01-.111.151-.151.221-.066.099.12-.02.495-.038.629-.088.659-.232 1.461.253 2.01.047-.481.507-.893.987-.624.36.197.541 1.349-.05 1.349zm.298 2.296c-.245 0-.551-.477-.331-.668.216-.188.217.372.312.413.055.024-.41-1.054-.391-1.211.097-.811.38-.877.252-.002.419-.5.813.147.511.554-.23.31-.212-.053-.067.381.07.207.001.533-.286.533zm-.059-1.047c.216.181.385-.277.252-.344-.147-.07-.263.29-.252.344zm.781.758c-.14 0-.532-.104-.567-.28-.062-.309.526.069.643.015.611-.287.117-1.542.521-1.875.313-.258.059 1.133.029 1.267-.07.323-.195.873-.626.873zm1.118 1.083c-.958 0-.3-1.841-.203-2.281.023-.104.08-.706.214-.79.272-.171.143.339.129.4-.079.353-.764 2.251-.177 2.416.313.069.254-.534.513-.456.335.11-.245.711-.476.711zm1.38.324c-.428 0-.625-.427-.569-.8.096-.635.247-.2.24.127-.017.867.648.088.857.018.299-.101-.128.655-.528.655zm2.565.594c-.321 0-.457-.325-.426-.601-.514.281-1.327.645-1.939.557-.11-.016-.143-.159-.058-.227.139-.11.662-.051.865-.126.356-.134.444-.131.417-.477-.025-.322.098-.7.347-.914.633-.541.61.577.334.918.506-.318.193.283.312.521.199.397.429-.353.444-.433.216-1.142.322.671.523.261.079-.16.058-.844.38-.571-.031.317.173.955.433.359.555-1.272.058 1.403-.581.306-.11.244-.471.347-.623.071-.078.174-.213.356-.428.356zm-.507-1.666c-.305 0-.442.658-.368.866.083-.072.634-.866.368-.866zm3.739 1.521c-.243 0-.403-.166-.396-.413-.153.18-.339.388-.598.395-.088-.354.449-1.431.638-1.816-.01.004-1.084.313-.77-.033.167-.184.997-.39 1.264-.527.165.204-.488 1.306-.616 1.692.152-.175.364-.381.624-.331-.047.021.232.153.274.13.42-.172.293-1.551.22-1.879-.034-.158.209-.212.244-.055.083.372.066.769.035 1.146-.037.457-.329 1.691-.919 1.691zm.094-.789c-.242 0-.392.683.005.52.311-.128.224-.482.032-.667l-.037.147zm.912.191c-.23 0 .049-.797.058-.943.023-.408-.344-1.67-.157-1.945.235-.347.391 1.189.399 1.328.012.204.085 1.56-.3 1.56zm.935-.577c-.266 0-.839-.632-.472-.706.19-.026.451.896.743.258.118-.258-.245-1.224-.011-1.168.561.135.422 1.616-.26 1.616zm.782-.715c-.332 0 .188-.517.218-.563-.332-.006-.385-.418-.255-.649.127-.225.558-.216.581-.279.074-.192.364-.798.662-.665.263.117-.23.381-.281.454.554-.087.386.821-.074.891-.339.052-.109-.214-.307.18-.081.159-.32.631-.544.631zm.373-1.242c-.141 0-.334.318-.197.417.196.115.317-.417.197-.417zm.351.021c-.034.216.17.183.258.048.216-.335-.136-.307-.258-.048-.019.123.077-.164 0 0zm.442-.629c-.259 0 .001-.296.004-.397.02-.631-.204-1.35-.528-1.883-.072-.119.11-.295.213-.131.227.371.375.787.466 1.211.047.213.301 1.2-.155 1.2zm-.2-.737c-.222 0-.779-.69-.771-.908.024-.678.613-.326.395-.243-.437.175.79 1.151.376 1.151zm.689.639c-.08 0-.269-1.329.295-.838.478.416-.15-1.1-.22-1.24-.09-.18-.498-.705-.451-.897.097-.397.52.483.536.517.116.221 1.097 2.498.074 1.885-.005.106-.029.573-.234.573zm.842-1.384c-.204-.208-.176-.594-.289-.896-.091-.245-.634-.971-.569-1.211.103-.379 1.487 2.107.858 2.107zm-14.811 5.442c-.179-.005-.306-.083-.382-.235-.154-.348.252-.196-.296-.313-.38-.082-.694-.498-.16-.304.4.146.727-.014 1.104.051.564.095.159.801-.266.801zm-.036-.519c-.386.199.222.402.307.142.084-.268-.173-.163-.307-.142zm.534.743c-.232 0 .318-.86.45-.915.297-.123-.105.915-.45.915zm2.527 2.032c-.219 0-.42-.139-.49-.345-.172.11-.414.108-.542-.066-.256-.347-.066.066-.444-.256-.19-.161-.025-.333-.269-.339-.424 0-.356-.441-.269-.69-.207.098-.449.055-.625-.088-.151-.122-.269-.71-.004-.495.187.152.208.566.581.324.32-.206.349-.736.716-.481-.176.308-.506.718-.495 1.097.005.188.356-.056.449.017l.077.465c.147.122.195-.222.4-.084l.127.422c.166.089.196-.219.409-.141.167.062.229.648.574.325.303-.283.232-1.046.501-1.23.364-.248-.004.879-.047.976-.116.261-.322.589-.649.589zm1.813.016c-.186 0 .076-1.297.194-1.396.252-.211.181 1.396-.194 1.396zm-.544.451c-.362 0-.509-.355-.277-.285.294.092 1.322-.353 1.394-.285.324.308-.991.57-1.117.57zm1.868.237c-.118 0-.396-.04-.431-.189-.067-.282.389-.061.432-.061.251-.003.375-.345.08-.38-.174-.016-.328.275-.501.058-.097-.121.286-1.111.298-1.322.009-.163.259-.146.25.016-.021.341-.123.684-.21 1.012.711-.169.77.866.082.866zm1.905.019c-.58 0-.752-.555-.62-1.041.125-.457.293.664.285.651.287.423 1.117-.069 1.244-.424.089-.248-.578-.971.311-.902.183.015.414.212.599.091.196-.131.035-.379.167-.521.248-.267.194.498.062.648-.138.157-1.413-.037-1 .327.593.524-.635 1.171-1.048 1.171zm1.345-1.79c-.158 0-.151-.237-.036-.296.205-.103.245.296.036.296zm.039 1.454c-.159 0-.151-.237-.037-.296.203-.105.249.296.037.296zm-.459.312c-.159 0-.15-.237-.036-.296.203-.105.247.296.036.296zm1.247-.638c-.5 0-.315-.343-.184-.285.395.164.815-.223 1.018-.515-1.142.143.218-2.069.476-.812.144.702-.603 1.612-1.31 1.612zm.954-1.707c-.635 0-.145.992.058.57.029-.058.159-.57-.058-.57zm.472 1.058c-.296 0 .464-.869.536-1.033.142-.32.067-.653.069-.99.002-.452 1.762-2.076 1.87-1.077.06.553-.189.336-.252.004-.067-.36-1.071.744-1.257.824-.256.107-.071.8-.111 1.038-.051.311-.504 1.234-.855 1.234zm1.971-2.205c-.159 0-.15-.237-.036-.296.203-.104.247.296.036.296z" fill="#FFED00"/></svg>