<svg xmlns="http://www.w3.org/2000/svg" width="64" height="48" viewBox="-11.5 9.5 64 48" enable-background="new -11.5 9.5 64 48"><path fill="#fff" d="M-11.5 9.5h64v48h-64z"/><path fill="#283177" d="M52.5 57.5h-64l64-48v48z"/><path fill="#FBDA00" d="M-11.5 9.5v20l27-20h-27z"/><path fill="#13110C" d="M8.88 19.282l1.219 2.11h-2.437l1.218-2.11zm-338.741-337.163l2.111-1.218v2.438l-2.111-1.22zm347.471 346.001l-2.11 1.218v-2.438l2.11 1.22zm-346.731.709l-1.218-2.111h2.437l-1.219 2.111z"/><path fill="#D71016" d="M11.272 28.12l1.196-2.071h-2.392l-1.196-2.071-1.196 2.071h-2.392l1.196 2.071-1.196 2.071h2.392l1.196 2.071 1.196-2.071h2.392z"/><path fill="#13110C" d="M8.88 35.064c-3.83 0-6.945-3.115-6.945-6.945 0-3.829 3.115-6.945 6.945-6.945s6.945 3.116 6.945 6.945c0 3.83-3.116 6.945-6.945 6.945zm0-12.996c-3.336 0-6.051 2.715-6.051 6.051 0 3.337 2.715 6.052 6.051 6.052 3.337 0 6.052-2.715 6.052-6.052 0-3.336-2.715-6.051-6.052-6.051z"/></svg>