<svg xmlns="http://www.w3.org/2000/svg" width="64" height="48"><path fill="#009640" d="M0 0h64v48h-64z"/><path fill="#fc0" d="M32.001 6.829l-26.892 17.171 26.892 17.172 26.89-17.172-26.89-17.171z"/><circle fill="#312783" cx="31.977" cy="24" r="11.316"/><path fill="#fff" d="M35.466 19.435l.163.408.439.028-.339.281.108.426-.371-.235-.371.235.11-.426-.34-.281.439-.028.162-.408zM34.658 22.874l.117.294.315.02-.244.202.08.306-.268-.169-.268.169.08-.306-.244-.202.316-.02.116-.294zM22.777 21.535l.163.408.438.029-.338.28.109.427-.372-.236-.371.236.109-.427-.339-.28.439-.029.162-.408zM27.576 23.948l.136.345.371.023-.286.238.093.359-.314-.198-.314.198.092-.359-.286-.238.37-.023.138-.345zM24.749 25.787l.087.22.236.014-.182.152.059.229-.2-.127-.2.127.058-.229-.182-.152.236-.014.088-.22zM23.709 26.243l.163.408.439.029-.339.28.109.427-.372-.236-.371.236.109-.427-.339-.28.439-.029.162-.408zM22.522 27.318l.137.346.37.024-.285.236.091.36-.313-.199-.314.199.092-.36-.285-.236.37-.024.137-.346zM26.002 27.407l.137.345.371.023-.286.238.092.359-.314-.198-.313.198.092-.359-.286-.238.37-.023.137-.345zM25.592 28.679l.117.294.316.019-.244.202.078.307-.267-.169-.267.169.079-.307-.244-.202.316-.019.116-.294zM27.245 29.664l.162.408.439.029-.338.28.109.427-.372-.236-.372.236.109-.427-.338-.28.439-.029.162-.408zM32.057 32.774l.062.158.169.01-.13.108.042.164-.143-.091-.143.091.042-.164-.13-.108.169-.01.062-.158zM32.086 25.471l.136.345.371.024-.286.236.092.361-.313-.199-.314.199.092-.361-.286-.236.371-.024.137-.345zM33.123 26.441l.136.345.371.024-.286.237.092.359-.313-.198-.314.198.093-.359-.286-.237.37-.024.137-.345zM31.342 27.364l.088.22.236.016-.183.15.059.23-.2-.126-.199.126.058-.23-.182-.15.236-.016.087-.22zM30.515 26.65l.116.293.317.021-.244.202.078.307-.267-.17-.267.17.078-.307-.243-.202.316-.021.116-.293zM32.021 28.682l.161.408.439.028-.339.28.109.427-.37-.235-.373.235.109-.427-.339-.28.44-.028.163-.408zM34.357 30.011l.118.294.317.02-.245.201.078.307-.268-.169-.266.169.078-.307-.244-.201.316-.02.116-.294zM35.288 31.332l.136.345.371.023-.286.238.092.359-.313-.199-.314.199.092-.359-.286-.238.371-.023.137-.345zM36.323 30.296l.116.294.315.019-.243.203.079.307-.267-.17-.268.17.079-.307-.243-.203.316-.019.116-.294zM37.676 32.325l.116.293.316.021-.244.202.078.306-.266-.168-.267.168.077-.306-.244-.202.316-.021.118-.293zM37.689 31.057l.137.345.371.023-.286.237.091.359-.313-.198-.314.198.092-.359-.286-.237.371-.023.137-.345zM37.658 30.032l.116.295.315.021-.244.201.08.305-.267-.168-.268.168.079-.305-.244-.201.317-.021.116-.295zM38.778 30.045l.116.293.315.02-.243.203.079.306-.267-.17-.268.17.077-.306-.243-.203.316-.02.118-.293zM39.837 29.486l.137.345.368.024-.284.237.091.359-.312-.198-.314.198.093-.359-.286-.237.369-.024.138-.345zM40.373 28.587l.136.345.37.024-.285.236.092.36-.313-.198-.315.198.093-.36-.286-.236.371-.024.137-.345zM39.923 27.374l.163.408.44.029-.34.28.108.426-.371-.235-.37.235.109-.426-.34-.28.439-.029.162-.408zM41.583 27.649l.118.294.316.021-.244.202.078.306-.268-.17-.268.17.08-.306-.244-.202.315-.021.117-.294zM25.221 20.505c6.731 0 12.901 2.476 17.648 6.562.156-.55.273-1.118.345-1.699-4.922-3.992-11.187-6.39-17.993-6.39-1.181 0-2.344.074-3.488.214-.244.521-.451 1.063-.614 1.624 1.338-.205 2.708-.311 4.102-.311z"/><path fill="#009640" d="M22.309 19.917c.01.111.042.195.096.252.055.057.126.082.215.074.089-.008.156-.044.201-.11.044-.065.062-.154.052-.265-.01-.11-.042-.194-.097-.251-.055-.057-.127-.081-.216-.074-.088.007-.155.044-.199.109-.044.066-.062.154-.052.265zm-.211.018c-.014-.163.019-.295.1-.399.081-.103.196-.161.346-.174.15-.013.274.025.371.113s.153.213.167.375c.014.163-.02.295-.101.398-.081.104-.196.161-.347.174-.15.013-.273-.024-.371-.113-.096-.086-.151-.212-.165-.374zm1.644-.188l.245-.008.115-.036.033-.103-.039-.098-.11-.031-.254.009.01.267zm-.189.575l-.034-1.01.489-.016c.11-.003.193.017.248.062.054.045.083.117.086.213l-.034.156-.108.087.096.068.037.148.008.119v.004l.042.108.001.031-.228.007-.018-.052-.009-.074-.006-.106-.04-.125-.115-.03-.221.007.013.393-.207.01zm1.49-.227l.167.003c.096.002.167-.021.21-.071.044-.049.067-.131.07-.245.002-.113-.017-.196-.056-.25-.039-.054-.102-.081-.187-.083l-.192-.004-.012.65zm-.207.178l.02-1.01.395.007c.155.003.271.047.344.132.075.085.111.213.107.383l-.046.243-.126.167-.139.066-.215.017-.34-.005zm1.282.023l.054-1.009.732.04-.009.176-.528-.029-.011.215.483.026-.009.172-.484-.026-.014.259.553.03-.01.187-.757-.041zm1.189.07l.107-1.004.306.032.118.786.278-.744.307.033-.107 1.004-.194-.021.086-.81-.291.789-.21-.023-.121-.832-.086.81-.193-.02zm2.676.345l.211-.987.717.154-.037.171-.517-.111-.045.21.474.101-.037.169-.472-.101-.055.254.542.116-.04.182-.741-.158zm2.673.062l.194.052.123-.002.064-.098-.006-.115-.095-.064-.205-.055-.075.282zm-.049.177l-.094.347-.2-.054.263-.976.435.117c.102.028.172.075.21.143.039.067.045.152.017.255-.027.101-.073.171-.14.212-.066.041-.148.048-.244.022l-.247-.066zm1.215.158l.232.072.122.004.064-.087-.005-.105-.093-.064-.242-.075-.078.255zm-.367.482l.298-.965.469.144c.104.033.175.079.212.14.037.061.042.137.013.23l-.083.136-.131.048.07.096-.015.153-.03.115-.002.004.006.116-.009.029-.218-.067-.002-.055.017-.073.027-.103.004-.131-.1-.065-.211-.064-.116.375-.199-.063zm1.539-.003c-.038.104-.044.194-.02.269.025.075.079.127.164.158.083.031.158.026.227-.015s.122-.113.159-.218c.039-.104.046-.194.021-.269-.026-.075-.081-.128-.166-.159-.083-.031-.159-.025-.226.016-.069.041-.12.113-.159.218zm-.2-.072c.056-.153.143-.26.259-.319.116-.06.245-.063.388-.012.142.052.238.138.288.259.052.121.05.258-.008.411-.056.153-.142.259-.258.318-.117.06-.246.063-.388.012-.143-.052-.238-.138-.288-.258-.051-.122-.047-.259.007-.411zm1.869 1.185l-.16.053-.17-.033c-.13-.056-.216-.146-.257-.27-.042-.125-.033-.26.029-.407.062-.148.155-.25.273-.304.118-.055.243-.053.376.004.117.049.2.118.25.205.05.087.061.182.033.286l-.194-.083-.025-.142-.126-.099c-.077-.033-.151-.03-.22.007-.068.039-.125.107-.168.208-.042.101-.053.19-.031.267.022.077.074.132.153.167.061.026.12.029.176.011.055-.018.102-.057.138-.115l-.21-.089.068-.159.384.164-.214.502-.128-.053.023-.12zm.962-.026l.218.107.119.022.078-.075.013-.106-.083-.078-.229-.112-.116.242zm-.438.419l.444-.907.439.216c.1.048.162.105.188.171.027.066.021.142-.022.229l-.104.122-.137.026.052.105-.036.148-.049.109-.002.004-.013.115-.015.028-.205-.1.01-.055.025-.07.045-.097.023-.129-.089-.08-.197-.097-.173.353-.184-.091zm1.129.579l.491-.883.641.357-.085.154-.463-.257-.104.188.423.235-.085.151-.423-.235-.126.227.483.269-.09.163-.662-.369zm1.139.313l.176.106-.006.14.118.118.135.043.089-.058c.031-.053-.019-.141-.147-.267l-.006-.005-.015-.015-.137-.163-.022-.121.047-.131c.05-.084.118-.131.203-.142.083-.01.179.017.287.082.102.061.166.132.194.214.027.083.017.167-.031.257l-.172-.104.009-.125-.103-.107-.126-.038-.085.055c-.025.045.002.109.087.191l.054.052.11.118.052.072.031.125-.042.132c-.056.09-.128.142-.218.154-.091.013-.19-.014-.301-.08-.109-.066-.18-.143-.211-.23-.031-.085-.021-.176.03-.273zm1.065.665l.17.116-.013.14.112.124.131.05.091-.053c.035-.051-.01-.143-.133-.274l-.004-.004-.015-.017-.13-.17-.015-.123.052-.129c.056-.081.126-.125.211-.131s.179.026.284.097c.098.066.158.141.181.224.023.084.009.168-.044.255l-.167-.112.017-.125-.098-.112-.121-.044-.089.051c-.029.044-.004.109.075.195l.05.055.105.125.048.074.026.127-.05.129c-.06.088-.135.135-.226.144-.091.008-.19-.024-.297-.096-.105-.071-.172-.151-.197-.241-.026-.09-.012-.18.046-.275zm1.282.683c-.066.088-.1.172-.096.251.002.079.039.145.109.198.071.055.146.071.223.053.076-.019.148-.073.215-.162.068-.088.1-.172.098-.251-.004-.079-.041-.146-.113-.2-.069-.054-.144-.07-.219-.052-.078.019-.15.073-.217.163zm-.168-.129c.099-.13.211-.207.34-.229.13-.023.253.011.375.103.12.09.187.201.199.331.013.131-.027.261-.127.391-.099.13-.211.206-.34.229-.129.022-.255-.012-.375-.104-.12-.09-.188-.201-.201-.331s.03-.26.129-.39z"/></svg>