<svg xmlns="http://www.w3.org/2000/svg" width="64" height="48"><path fill="#FCC146" d="M0 0h64v48h-64z"/><path fill="#E40520" d="M0 48h64v-48z"/><path fill="#fff" d="M54.727 11.142c-.435.089-.795.37-1.223.477-.521.13-1.036.049-1.53.314.107-.235.539-.198.793-.363.392-.255.698-.612 1.113-.838.593-.322 1.592-.25 1.729-1.096-.451.343-1.036.222-1.557.192-.746-.042-1.151.38-1.666.865.204-.856.732-1.488.837-2.391.055-.471.177-.875.511-1.228.29-.306.673-.654.484-1.123-.103.814-1.242.919-1.42 1.737-.106.491-.159.869-.519 1.249-.421.446-.626.733-.697 1.354-.143 1.24-.79.494-1.547.781-.413.157-.682-.183-1.067-.292-.7-.197-.453-.004-.874-.578-.184-.25-.471-.547-.807-.55-.129 0-.241.045-.336.132-.299.266-.269.037-.613-.141-.411-.213-.894-.282-1.343-.157-.65.18-.697-.152-1.306-.422-.938-.414-1.689-.991-2.59-1.456-.771-.398-1.919-.81-2.722-.263.802-.042 1.54.247 2.198.684-.14.127-1.102-.393-1.528-.144.276.015.538.103.775.244.539.321.297.327.229.851-.632-.464-1.488-.907-2.285-.924-.484-.01-.684.364-1.112.285-.533-.098-1.225-.078-1.436.529.846-.412 1.612.021 2.42.286-.524.22-1.313-.083-1.734.455.394-.164.836-.131 1.24-.032-.176.277-.237.609-.209.934-1.041-.421-2.555-.937-3.592-.247-1.342.895.489 2.104.758 1.406-.318.135-.693-.07-.721-.424-.041-.516.681-.557 1.03-.557 1.264 0 2.444.612 3.569 1.112-.445.124-1.097-.088-1.594-.119-.484-.031-1.009-.13-1.182-.652-.104.336-.08.694.239.898-1.09.035-1.765.816-2.757.815-.716 0-1.869.072-2.037.96 1.083-.973 2.677-.317 3.959-.428-.082.14-.125.291-.129.453.004.367-.042.131-.259.401-.295.368-.053.756-.235 1.062-.118.198-.122.461-.057.677-.244.085-.477.203-.688.353-.466.333-.8.81-1.046 1.32.423-.423.954-.689 1.539-.801-.301.726-1.116 1.753-.715 2.527.175-1.027.969-.816 1.676-1.244-.185.516.289 1.379.909 1.211-.329.494.143 1.252.645 1.406-.455.583-1.435.09-1.722.712.772-.333 1.43.758 2.271.434-.118.334-.098.708.114 1.001-.462-.054-1.459.14-1.69-.418-.286.686 1.052.737.9 1.24-.07-.01-.783-.783-.9-.188-.001 0-.127-.396-.179-.456-.139-.161-.345-.249-.547-.295-.102-.023-1.058-.117-.976.163l.465.174c-.02.01-.511-.187-.533-.196.524-.087-.388-1.175-1.022-.796-.075-.448-.603-.689-.72-1.15-.124-.486-.877-.44-.906-.955-.239.46.293.886.199 1.396-.221-.256-.69-.291-.941-.061-.144-.42-.818-.445-1.073-.128-.137-.394-.7-.393-.978-.169-.222-.872-1.736-.477-2.037-1.245-.082.288.086.522.297.693.349.284.357.392.412.832-.308-.293-.832-.205-1.147.023-.395.285-.098.863-.208.974-.404-.628-1.592-.112-1.359.6-.572-.45-1.055-.26-1.655-.035-.27.101-1.04.308-1.053.688.424-.325 1.103-.08 1.535.095-.321.233-.415.875-.195 1.207-.997-.165-.688 1.577-1.029 1.74-.783.374-1.419 1.45-2.41 1.169.421.67 1.541.195 2.138.123-.365.289-.55 1.205-.191 1.553-.35.167-.786.677-.685 1.1-.526.075-.965.773-1.519.599.155.377.651.499 1.011.545-.319.19-.608.547-1.024.408.019.245.188.488.374.638-.473-.031-.951.235-1.417.058 0 .237.133.51.247.708-.578-.217-1.909-.576-2.275.174.3-.022.766.028.882.367-.539-.334-1.177-.021-1.753-.037-.696-.019-1.205-.626-1.911-.611-.569.013-.962-.145-1.502-.226-.369-.055-.952-.016-.976.475.35-.282.729-.085 1.056.114.469.286.82.248 1.347.225.954-.044 1.642.802 2.581.808-.564-.051-1.138-.131-1.701-.021-.546.106-.997.498-1.548.577-.472.069-1.767-.058-1.838.642.514-.277 1.076.028 1.614-.062.539-.091 1.065-.593 1.632-.323-.352.423-.831.63-1.36.731-.69.132-1.121.426-1.722.763-.479.269-1.073.162-1.545.445-.581.348-.866.93-1.606 1.022.675.43 1.37-.213 1.942-.514.767-.403 1.702-.228 2.437-.723-.417.982-1.818.928-2.613 1.421-1.056.655-1.611 1.813-2.951 2.005.464.525 1.537-.136 1.99-.37.948-.489 2.185-.352 2.976-1.074.356-.325.598-.695 1.106-.766.568-.078.845-.327 1.252-.707.383-.358.969-.327 1.313-.713.21-.234.486-.817.892-.672-.753.337-.826 1.432-1.7 1.597.541.212.998-.162 1.388-.489.501-.421 1.033-.53 1.645-.709-.461.64-1.677.894-1.847 1.662.728-.59 1.773-.405 2.441-1.048.627-.603 1.439-1.062 2.019-1.696.294-.322.402-.746.726-1.053.313-.296.7-.501 1.074-.709l.449-.262c.296-.187.339-.042.657-.094.338-.054.56.168.919-.04.037.392-.122.754-.168 1.137-.275-.109-.936-.271-1.104.099.025-.056.91.282.682.536-.216.241-.873.901-1.205.928.318.389 1.041.078 1.288-.245-.059.333.332.562.181.902.238.025.734-1.117.901-.895-.515.207.395.578.384.561-.268.167-.049.434.188.408.032.142-.183.105-.129.309.072.269 0 .354-.031.658-.032.318-.754.456-.973.6-1.166.768.01 1.911.117 2.771 0-.126.355-1.385.47-1.27l.045-.059c-1.271 1.584.334 4.019 2.303 3.173.448-.192.786-.567.963-1.018.087-.222.137-.458.15-.696.018-.323.185-.349.316-.637.289-.629.308-2.007-.455-2.348.428.151 1.177-.133 1.383.401.25.649.665.785.549 1.595.507-.658.501-2.358-.213-2.923-.287-.227-.83-.448-1.2-.425-.194.012-.397.105-.493.283-.195-.195-.496-.281-.767-.232.117-.585-.362-.612-.422-1.06-.046-.342-.273-.436-.526-.612-.611-.429-.132-1.939-.008-2.496.32.224.708.077 1.003.266.304.194.53.42.859.582.389.192.149.098.571.275.19.086.389.137.597.152-.038-.002.938-.112.537-.181 2.042.365 2.834-2.718.891-3.328.179.021.332.095.458.221.123-1.624-2.302-1.133-3.104-.555.25-.138.413-.798.563-1.054.177-.302.75-.462 1.098-.375-.403-.526-1.351-.79-1.93-.413-.454.295-1.056 1.358-.775 1.894-.201.025-.356.124-.463.296-.162-.067-.328-.117-.5-.15-.15-.392-.374-.751-.286-1.177.063-.313.231-.697.142-1.021-.08-.291.372-.663.039-.985.281-.062.503-.271.424-.58.407-.022.658-.353.647-.738.392.228.984.225 1.076-.324.339.33.855.39 1.145-.032.166.274.473.38.781.389l.604-.069c.182.156.407.251.646.271.861.069 1.71.692 2.622.748.421.024.429.04.817.194.383.152.984.282 1.383.133.204.174.492.301.766.233.36-.088.277-.041.649.038.452.095.129.491.226.938-.342-.155-.609.164-.934.077-.288-.077-.642-.438-.885-.068.496.018.832.493 1.327.541-.742.051-.839 1.245-1.559 1.186.514.488.855-.098 1.284-.353.618-.368.615.632.415.983.521-.012.725-.438.743-.903.22.388.59.876 1.099.646-.017.57.653.461 1.007.624.292.134.946.681 1.234.2-.022.604 1.032.462 1.339.464.604-.158 1.01.495 1.546.335-.723.492-.269 1.724.195 2.287.11.132.247.223.409.274.256.08.298.31.497.473.406.332 1.06.418 1.551.263-.219-.073-.385-.234-.526-.41 1.186 1.277 3.307.553 3.629-1.074.288-1.453-.729-2.767-2.233-2.682.601-.181 1.698-.071 1.836.688.38-.613-.077-1.307-.52-1.736-.548-.531-1.742-.34-2.365-.041.406-.146.927-.465.747-.979.605.067.855-.746 1.493-.566-.586-.685-3.075-.413-2.833.747-.322-.141-.691.047-.812.366-.146.391-.595.18-.837.663-.367-.396-1.732-.896-2.215-.669-.247-.298-.615.026-.854-.249-.2-.231-.56-.43-.872-.317-.059-.63.242-1.213.58-1.721l.012.098c.856-1.477 1.681-2.669 1.743-4.353.016-.083.006-.387-.004-.569-.021-.446.402-.558.813-.603.331-.036.891-.099.915.314.022.398-.165.802-.569.923.426.268.93-.1 1.146-.464-.291.645-.33 1.743.528 1.957-.243-.494.419-.93.167-1.391.41.174.803.658.786 1.12.408-.456-.076-1.382-.233-1.883.92.133 1.488-.246 2.218-.739.27-.182.782-.609 1.123-.37.452.318.802.521 1.308.757.353.165.893.236 1.273.139.38-.097.664-.421 1.063-.461.462-.047.838-.391 1.04-.792.207-.408.748-.45.659-1.019-.093-.585-.766-1.665-1.393-1.702-.066-.934-.766-1.639-1.715-1.639-1.608 0-2.324 2.114-1.135 3.162-.495-.165-.294-.138-.44-.597-.108-.34-.251-.671-.201-1.038l-.624.936c-.235.251-.816.067-1.147.143-1.167.268-2.12.449-3.304.096-.938-.28-1.654-1.01-2.628-1.298-.842-.249-1.229-.736-1.713-1.435.722.08 1.171.234 1.798.637.53.341.964 1.09 1.693.896-.44-.119-.693-.5-.933-.856-.3-.444-.777-.582-1.21-.852.38-.288.663-.572 1.17-.579.513-.007 1.028.193 1.542.086 1.352-.282 1.671.676 2.679 1.34-.419.171-.504.811-1.007.834.48.257.957.062 1.321-.29-.153.413-.047.881.404 1.037-.298-.412.211-.726.378-1.05.121.319.559.572.382.96.512-.117.728-1.226.175-1.419.518-.517-.058-1.212-.563-1.439.522-.431.57-.33 1.168-.079.069.634.297 1.256.032 1.88.521-.379.516-1.092.516-1.671 1.225.438 2.191.148 3.405-.053.808-.134 2.413-.322 2.316.939.708-.841-.663-1.406-1.295-1.505-.552-.089-.679-1.575-1.529-.916.802-.108.423 1.003-.053 1.185.188-.684-.546-1.248-1.175-.979 1.071.311.055 1.23-.616 1.22-.35-.004.044-.833.12-1.011.212-.497.373-1.003.027-1.486.365-.049-.029-.312-.008-.388.578.142.08-.349.09-.388.224.077.53-.075.237-.299 1.017.095 1.992-.404 2.903-.76.709-.278 2.699.111 3.045-.726-.916.296-1.828-.284-2.755-.092zm-25.669 22.837l.186.06-.186-.06zm17.536-2.604c.121.109.263.165.426.167-.243.059-.476.16-.68.305.12-.139.205-.296.254-.472.112.113-.043.173 0 0zm-.98.851c.168-.007.322-.057.463-.15-.733.751-.811 2.022-.246 2.892-.228-.295-.538-.274-.462-.625.067-.308.044-.662-.27-.829.286-.312.677-.836.515-1.288.171 0 .153.425 0 0zm7.725-12.999c.041.298.031.649.312.841-.402 0-.784.231-.869.644.14-.376-.078-.402.195-.732.18-.217.3-.479.362-.753.043.312-.083.37 0 0zm-1.846 1.321c-.148.241-.277.217-.387-.074.126.039.255.064.387.074-.067.049-.138-.012 0 0zm-2.814-5.115c-.818-.354-1.721-.755-2.619-.836.215-.388.488-.765.92-.925.535-.2.753.253.541.743.256-.153.405-.453.624-.65.373.144.997.482.354.843.402 0 .849-.266 1.192-.167-.243.222-.547 1.197-1.012.992zm-23.284 11.079c.045.051.025.092-.059.124l.059-.124zm10.536-7.506zm-3.647 3.353zm-1.239-.432c-.159-.047-.049-.068 0 0zm-4.58-.158c.275-.112.335-.193.516-.141-.174.039-.346.086-.516.141zm-3.553 3.216zm2.714 14.319c-.255.011-.484.059-.686.141.23-.109.485-.181.686-.141zm.527-13.657c.049.115-.193.164-.29.24l.29-.24zm13.619-10.348c.158.101-.035.157 0 0zm.192-.51c.223-.427.936.12 1.401.128-.631.602-.832.141-1.401-.128.042-.081.227.107 0 0zm9.62.522c-.171.323.048.587-.365.378.137-.11.26-.236.365-.378zm-8.629-7.014c.673.504 1.305 1.052 2.062 1.434-.673.154-.708-.036-1.147-.5-.149-.155-.983-.879-.915-.934zm.075.76c.313.198.459.538.746.755-.354-.037-.708-.091-1.065-.076-.088-.307-.135-.645-.059-.959.12.101.246.195.378.28zm-2.634-.428c.593.312 1.079.791 1.524 1.283-.813-.624-1.776-1.139-2.757-1.441.408-.149.861-.036 1.233.158zm.03.732c.466.149.837.451 1.162.806-.188.143-1.307-.524-1.562-.618.122-.085.255-.148.4-.188.402.129-.17.055 0 0zm-.561.469c.406.186.789.422 1.145.692-.354.186-.349.373-.687.078-.206-.179-.499-.462-.458-.77.42.192-.039.295 0 0zm-3.775 13.219l.425.159-.425-.159zm-8.766-.8zm14.398-6.163c-.052-.495.089-.38.483-.384.241.293.433.623.668.921l-.5.199c-.189-.267-.397-.527-.651-.736-.013-.121.247.203 0 0zm1.739.393c-.219-.235-.396-.505-.577-.77.549.013 1.104.015 1.641-.123-.513.103-.51.823-1.064.893-.211-.227.606-.077 0 0zm6.486-.394c-.499-.281-1.167-.496-1.562-.922.65.165 1.298.344 1.931.568-.138.103-.261.221-.369.354-.265-.149.106-.132 0 0zm2.135-.011l.594-1.26c-.154.433-.194.994 0 1.421-.203-.035-.401-.089-.594-.161.129-.45.191.072 0 0z"/></svg>