<svg xmlns="http://www.w3.org/2000/svg" width="64" height="48"><path fill="#E52713" d="M13 0h51v32.004h-51z"/><path fill="#00A67A" d="M13 32.004h51v15.996h-51z"/><path fill="#fff" d="M0 0h12.379v48h-12.379z"/><path fill="#E52713" d="M3.759 8.543v.589h.257v.665h.296v.68h-.296v.665h-.257v.588h-.405v-.588h-.256v-.665h-.319v-.68h.319v-.665h.256v-.589zM3.759 39.449v-.586h.257v-.666h.296v-.679h-.296v-.666h-.257v-.588h-.405v.588h-.256v.666h-.319v.679h.319v.666h.256v.586zM6.774 6.053v.888h.398v.952h.459v.698h.513v.888h.377v-.888h.512v-.698h.459v-.952h.399v-.888h.405v-1.206h-.405v-1.015h-.399v-1.223h-.459v-.754h-1.402v.754h-.459v1.223h-.398v1.015h-.472v-1.015h-.399v-1.223h-.459v-.754h-1.402v.754h-.459v1.223h-.397v1.015h-.407v1.206h.407v.888h.397v.952h.459v.698h.513v.888h.377v-.888h.512v-.698h.459v-.952h.399v-.888zM9.317 8.543v.589h-.256v.665h-.297v.68h.297v.665h.256v.588h.405v-.588h.257v-.665h.317v-.68h-.317v-.665h-.257v-.589zM6.673 10.477v.665h.256v.588h.405v-.588h.256v-.665h.297v-.68h-.297v-.665h-.256v-.589h-.405v.589h-.256v.665h-.271v-.665h-.255v-.589h-.405v.589h-.256v.665h-.297v.68h.297v.665h.256v.588h.405v-.588h.255v-.665zM6.774 41.941v-.888h.398v-.951h.459v-.7h.513v-.888h.377v.888h.512v.7h.459v.951h.399v.888h.405v1.207h-.405v1.014h-.399v1.223h-.459v.761h-1.402v-.761h-.459v-1.223h-.398v-1.014h-.472v1.014h-.399v1.223h-.459v.761h-1.402v-.761h-.459v-1.223h-.397v-1.014h-.407v-1.207h.407v-.888h.397v-.951h.459v-.7h.513v-.888h.377v.888h.512v.7h.459v.951h.399v.888zM9.317 39.449v-.586h-.256v-.666h-.297v-.679h.297v-.666h.256v-.588h.405v.588h.257v.666h.317v.679h-.317v.666h-.257v.586zM6.673 38.197v.666h.256v.586h.405v-.586h.256v-.666h.297v-.679h-.297v-.666h-.256v-.588h-.405v.588h-.256v.666h-.271v-.666h-.255v-.588h-.405v.588h-.256v.666h-.297v.679h.297v.666h.256v.586h.405v-.586h.255v-.666zM6.849 33.295v1.109h.445v1.016h.484v.969h.311v.588h.459v-.588h.31v-.905h.634v-1.08h.5v-.91h.304v-1.342h-.304v-.937h-.432v-1.301h-.405v-.935h-.459v.935h-.459v1.301h-.297v.937h.433v1.342h-.54v-.883h-.379v-1.599h-.483v-1.207h.457v-.922h.432v-1.112h.459v-1.171h.405v-1.08h.445v1.046h.351v.856h.323v1.111h.229v.858h.224v-3.237h-.331v-1.078h-.392v-.715h-.364v-.728h.364v-.715h.392v-1.078h.331v-3.237h-.224v.856h-.229v1.111h-.323v.856h-.351v1.049h-.445v-1.079h-.405v-1.175h-.459v-1.112h-.432v-.92h-.457v-1.206h.483v-1.601h.379v-.88h.54v1.34h-.433v.935h.297v1.301h.459v.937h.459v-.937h.405v-1.301h.432v-.935h.304v-1.34h-.304v-.912h-.5v-1.079h-.634v-.906h-.31v-.586h-.459v.586h-.311v.968h-.484v1.017h-.445v1.109h-.621v-1.109h-.446v-1.017h-.486v-.968h-.309v-.586h-.459v.586h-.31v.906h-.635v1.079h-.499v.912h-.305v1.34h.305v.935h.433v1.301h.404v.937h.459v-.937h.459v-1.301h.295v-.935h-.431v-1.34h.539v.88h.378v1.601h.485v1.206h-.457v.92h-.432v1.112h-.459v1.175h-.404v1.079h-.446v-1.049h-.35v-.856h-.325v-1.111h-.228v-.856h-.225v3.237h.332v1.078h.392v.715h.364v.728h-.364v.715h-.392v1.078h-.332v3.237h.225v-.858h.228v-1.111h.325v-.856h.35v-1.046h.446v1.08h.404v1.171h.459v1.112h.432v.922h.457v1.207h-.485v1.599h-.378v.883h-.539v-1.342h.431v-.937h-.295v-1.301h-.459v-.935h-.459v.935h-.404v1.301h-.433v.937h-.305v1.342h.305v.91h.499v1.08h.635v.905h.31v.588h.459v-.588h.309v-.969h.486v-1.016h.446v-1.109z"/><path fill="#fff" d="M6.849 29.201v-.951h.35v-.951h.363v-1.145h.46v-1.111h.459v-.682h.324v-.728h-.324v-.682h-.459v-1.111h-.46v-1.144h-.363v-.951h-.35v-.952h-.621v.952h-.351v.951h-.364v1.144h-.459v1.111h-.459v.682h-.324v.728h.324v.682h.459v1.111h.459v1.145h.364v.951h.351v.951z"/><path fill="#E52713" d="M6.753 24.887v.506h.351v.572h.324v-1.078h-.324v-.539h-.295v-.7h.295v-.541h.324v-1.078h-.324v.573h-.351v.505h-.431v-.505h-.35v-.573h-.324v1.078h.324v.541h.296v.7h-.296v.539h-.324v1.078h.324v-.572h.35v-.506z"/><g fill="#fff"><path d="M4.945 7.734v-.808h.379v-.951h.405v-1.048h-.405v-.952h-.379v-.81h-.404v.81h-.377v.952h-.405v1.048h.405v.951h.377v.808zM4.945 40.258v.81h.379v.953h.405v1.047h-.405v.952h-.379v.808h-.404v-.808h-.377v-.952h-.405v-1.047h.405v-.953h.377v-.81zM8.131 7.734v-.808h-.379v-.951h-.404v-1.048h.404v-.952h.379v-.81h.403v.81h.378v.952h.405v1.048h-.405v.951h-.378v.808zM8.131 40.258v.81h-.379v.953h-.404v1.047h.404v.952h.379v.808h.403v-.808h.378v-.952h.405v-1.047h-.405v-.953h-.378v-.81z"/></g><g fill="#E52713"><path d="M2.779 2.62h.345v.974h-.345zM6.39 7.297h.297v.968h-.297zM6.39 1.855h.297v1.063h-.297zM6.39 20.771h.297v1.068h-.297zM2.779 7.312h.345v.967h-.345zM2.779 12.072h.345v.956h-.345zM2.779 17.105h.345v.935h-.345zM2.779 44.457h.345v.916h-.345zM4.598 42.014h.297v1.068h-.297zM6.39 39.717h.297v.998h-.297zM6.39 45.074h.297v1.072h-.297zM6.39 26.152h.297v1.068h-.297zM2.779 39.701h.345v1h-.345zM2.779 34.904h.345v1.07h-.345zM2.779 29.982h.345v1.014h-.345zM2.779 23.488h.345v1.025h-.345zM5.134 23.488h.298v1.025h-.298zM9.952 2.62h.344v.974h-.344zM8.181 4.912h.296v1.069h-.296zM9.952 7.312h.344v.967h-.344zM9.952 12.072h.344v.956h-.344zM9.952 17.105h.344v.935h-.344zM9.952 44.457h.344v.916h-.344zM8.181 42.014h.296v1.068h-.296zM9.952 39.701h.344v1h-.344zM9.952 34.904h.344v1.07h-.344zM9.952 29.982h.344v1.014h-.344zM9.952 23.488h.344v1.025h-.344zM7.645 23.488h.296v1.025h-.296zM6.39 12.007h.297v.954h-.297zM6.39 34.979h.297v1.07h-.297z"/></g><g fill="#fff"><path d="M3.445 9.828h.223v.617h-.223zM5.834 9.828h.221v.617h-.221zM3.445 37.547h.223v.619h-.223zM5.834 37.547h.221v.619h-.221zM9.408 9.828h.223v.617h-.223zM7.021 9.828h.222v.617h-.222zM9.408 37.547h.223v.619h-.223zM7.021 37.547h.222v.619h-.222z"/></g><path fill="#fff" d="M4.598 4.912h.297v1.069h-.297z"/><path fill="none" d="M0 .082h12.282v47.836h-12.282z"/></svg>