<svg xmlns="http://www.w3.org/2000/svg" width="64" height="48"><path fill="#DC2F34" d="M0 0h64v48h-64z"/><path fill="#003671" d="M0 5h64v38h-64z"/><path d="M32.005 38.359c9.425 0 16.43-9.339 13.787-18.392-2.623-8.985-13.471-13.121-21.407-8.144-5.387 3.378-7.951 10.098-6.167 16.207 1.767 6.055 7.484 10.329 13.787 10.329zm0-14.36" fill="#fff"/><path fill="#00775E" stroke="#000" stroke-width=".125" stroke-miterlimit="2.5" d="M29.443 17.528c.029.082-.125.472-.188.428l.15.006c-.225.354.311.242.359.261.085.031-.209.96-.159 1.067.027-.064.069-.101.127-.108.052.301.274.142.364.357.041-.025.544-.043.573-.042l.183.127c.072-.147.171-.174.298-.082-.101-.257.583.084.786.042.176-.037.376-.125.544.002.172.131.525.044.346-.108l.441.089c-.02-.097-.014-.193.019-.286.047.06.107.1.182.119.011-.14.081-.234.211-.283.009.091.061.148.154.172-.086-.303.029-.167.202-.123-.023-.193.195-.28.04-.415-.099-.086-.277-.265.101-.139-.024-.214-.35-.245-.505-.289-.306-.088-.131-.366.105-.218 0 .046-.866-.749-.291-.471.099-.46-.057-.278.278-.495.061-.04-.598-.867.007-.795.021.028-1.011-.461-.436-.354-.051-.214-.622-.596-.827-.611-.128-.01-.254-.104-.349-.064-.14.058-.166.197-.333.174-.038.101.118.378.056.482-.069.115-.527-.492-.527-.493-.021-.234-.658-.062-.517.015-.219.084-.075-.194-.433.054-.205.142-.103.442-.215.51.25-.067.297.166.075.216-.525.118-.314.395-.676.684.191-.051.229.024.115.225l.199-.156c-.045.076-.057.156-.035.241.146.015.266-.195.314-.302.361.502-.56.288-.738.563.042.119.087-.134 0 0z"/><path fill="#9B6527" stroke="#000" stroke-width=".125" stroke-miterlimit="2.5" d="M31.397 21.844c.396-.906.238-1.701-.033-2.573.028.089.328.119.334-.114.013-.358.037-.861-.204-1.157.052-.153.359-.034.345-.354.057.401.097.802.122 1.206.069-.049.34-.405.399-.404.235.003-.807.881-.298.943.285.036.542-.257.689-.453l.579.097c-.096.213-.338.136-.503.053 0 0-.484.516-.481.543.055.721-.107 1.593.365 2.223l-1.314-.01z"/><g stroke="#000" stroke-miterlimit="2.5"><path fill="#fff" d="M30.704 15.661c.089.114.513-.059.645.069.182.176-.656.214-.714.16-.029-.027.012-.302.069-.229zm-.116.439c.065-.071.13-.073.193-.007.039.086-.174-.014-.193.007zm-.125.342c.055.119.347-.138.446.018.105.026.203.068.295.125-.005.13-.067.167-.187.107-.065-.06-.388-.05-.48-.033-.315.057-.144-.367-.074-.217zm-.689 1.1c.201-.083.729-.104.794.155.014.054-.404.073-.457.04-.249-.159-.249.216-.416.251-.002.001.122-.463.079-.446zm1.51-.525c.182.044.262-.031.438.048-.045.037-.29.207-.167.309-.105-.022-.224.136-.238.13-.093-.045.187-.436-.033-.487zm.401-.666l.343.043-.114.185c-.034-.005-.337-.261-.229-.228zm.543.087c.021.054-.007.491 0 .473.081-.053.357-.363.406-.353-.031-.017-.473-.283-.406-.12zm.612-.014l.1.401.366-.151c.176-.278-.482-.258-.466-.25.018.129.084.04 0 0zm.439.92c-.152-.004-.187-.207-.289-.207-.11 0-.164.225-.307.227.073.03.533.044.596-.02-.098-.003-.05.051 0 0zm-1.133.116c.17.081.772.158.958.102-.207.118-.062.369.131.375-.07.032-.105.086-.107.163-.249-.583-.642-.304-1.085-.426-.082-.022.125-.185.103-.214zm-.756.601c-.417-.338-.952.546-.789.677.279.224.221-.105.262-.223.04-.113.334-.293.335-.325l-.113.235c.124-.127.373-.112.305-.364-.235-.19.07.26 0 0zm-1.286.796c-.128.179-.137-.09-.18-.118-.189-.127.127-.089.164-.237.019.256.467.277.57.415l-.554-.06zm.109.225c-.105.061-.136.128-.091.202.203.026.112-.231.091-.202zm1.866-3.425c.135.194.911.147 1.08.244-.071-.059-1.025-.402-1.08-.244.049.07.05-.143 0 0zm.4 3.064c.074-.102.177-.154.307-.156.149-.069.368.012.473-.044.113-.06.42.201.59.118l-.283.157c-.173.121-.149-.08-.334-.016-.103.035-.651-.313-.736.092l-.017-.151zm-1.711-1.694c-.012.114.188.984.418.673.144-.195-.515-.457-.418-.673-.03.275-.043.097 0 0zm.578 1.883c-.137-.033-.203.056-.092.187-.001-.051-.019-.196.092-.187zm-.664.208c.049-.167.163-.137.173.019-.001-.061-.114-.108-.173-.019z"/><path d="M31.53 21.877c.088-.231.265-.706.254-1.059m.022-.54c0-.21-.044-.629-.077-.761m.419 2.316c-.044-.144-.155-.475-.188-.673m.276.508c-.088-.232-.188-1.247-.177-1.611m.167-.375c-.012.253-.012.916.021 1.147" fill="none"/></g><path fill="#fff" stroke="#000" d="M35.146 21.812c0 1.642.396 3.874-.33 5.4-.385.811-1.03 1.503-1.781 1.987-.907.585-1.448.459-2.304-.169-1.193-.875-1.866-2.107-1.866-3.576v-3.118c0-.711.137-.525.838-.525l5.443.001z"/><path fill="#FFE466" stroke="#000" d="M35.146 21.812c0 1.625.391 3.855-.312 5.363l-2.003-1.721c-.79-.678-.825-.669-.825-1.705v-1.582c0-.391-.038-.356.352-.356l2.788.001z"/><path fill="#003671" stroke="#000" d="M32.005 29.688c.945-.292 1.783-.954 2.367-1.743.478-.645.552-.692.019-1.15l-1.419-1.219c-.158-.136-.751-.83-.966-.83-.184 0-.69.593-.825.708l-1.443 1.239c-.489.42-.67.387-.272 1.003.583.907 1.5 1.672 2.539 1.992 1.146-.353-1.147-.353 0 0z"/><g fill="#fff" stroke="#000" stroke-linecap="round"><path d="M33.039 26.934l.517-.191M32.009 25.916v-.441M31.33 26.087v-.381M32.794 25.891v-.38M32.506 25.899l-.317.215M32.443 26.235l-.254.315M32.381 26.644l-.26.359"/></g><path d="M33.53 26.751c.076.169.022.524-.152.635-.182-.28-.249-.61.152-.635zm-1.927-.76c-.249.042-.613.065-.562.407.373-.126.451-.062.562-.407-.156.027-.023.071 0 0zm-.027.253c-.406.069-.649.116-.604.585.601-.123.374-.167.604-.585-.155.027-.047.085 0 0zm-.054.439c-.375.068-.742.096-.649.596.204-.059.42-.071.627-.116-.027-.145-.043-.344.022-.48-.149.027-.061.127 0 0zm-.016.471c-.21.031-.432.053-.633.124-.276.497.216.487.576.419-.03-.158-.014-.397.057-.543-.203.031-.062.127 0 0zm.807-1.305c-.336.027-.65-.013-.668.397.538-.061.494.076.668-.397-.153.012-.041.111 0 0zm-.05.359c-.449.034-.694-.073-.69.475.535-.062.606.041.69-.475-.153.012-.022.133 0 0zm-.019.392c-.509.044-.731-.014-.724.558.557-.144.63.022.724-.558-.147.012-.021.132 0 0zm-.016.436c-.575.046-.758.065-.732.667.262-.044.531.052.792-.006-.059-.199-.094-.455-.06-.661-.147.012-.022.132 0 0zm.87-1.186c-.312.021-.674-.145-.701.292.452-.049.538.146.701-.292-.155.01-.041.11 0 0zm-.047.275c-.461.032-.731-.116-.731.464.248-.026.5-.01.749-.022-.045-.147-.05-.294-.018-.442-.155.011-.042.11 0 0zm.023.437c-.488.034-.928-.119-.778.567.264-.028.531-.021.796-.032-.048-.177-.054-.356-.018-.535-.154.01-.048.17 0 0zm.024.535c-.357.024-.856-.158-.818.321.034.437.535.301.909.285-.075-.195-.105-.397-.091-.606-.155.01-.012.209 0 0zm-1.768-1.369c-.085.06-.542.025-.493.246.209-.102.542.087.493-.246zm.679-.235c-.141.231-.391-.079-.496.296.197-.214.579.175.496-.296zm.785.113c-.132-.168-.399.101-.54-.052-.105.296.469.168.54.242v-.19zm-1.706.585c-.401.479-.855.951-1.384 1.291.326-.065.861-.022 1.118.221-.321-.351-.007-1.226.266-1.512-.435.519-.39.409 0 0z" fill="#fff" stroke="#000"/><path stroke="#000" d="M33.588 28.056l.265-.375c-.486.165-1.234.033-1.737.033-.829 0-1.614.019-2.417-.231.464.289.792.786 1.281 1.013.85.394 1.86-.001 2.608-.44z"/><path fill="#1791C9" stroke="#000" d="M29.716 28.048c.579.741 1.384 1.361 2.289 1.641.906-.28 1.709-.901 2.288-1.644-.224.163-.895.091-1.161.086-.278-.006-.896.089-1.13-.083-.222.161-.892.088-1.157.083-.278-.006-.896.089-1.129-.083.599.767.133.098 0 0z"/><path d="M33.867 28.459c-.274.034-.806.048-1.082-.016-.258-.059-.614.137-.867-.058-.248.188-.627.013-.887.065-.274.056-.605.008-.879.017m2.96.595c-.733.033-1.486-.004-2.216.001" stroke="#FFE466" fill="none"/><path d="M33.987 28.283c-.279.021-.757.044-1.034-.021-.259-.06-.613.137-.868-.058-.247.189-.627.013-.886.065-.274.056-.963.066-1.216-.029m3.7.406c-1.019-.17-2.32-.072-3.353.013m2.563.555c-.379-.13-1.328-.032-1.731.031" stroke="#00775E" fill="none"/><g stroke="#000"><path fill="#9B6527" d="M34.971 24.728c-.409-.341-.581-.942-.913-1.355l-.729-.879-.384-.484c-.058-.069-.305.085-.248.165.507.633 1.02 1.202 1.343 1.958.15.352.325.677.576.97.09.102.49-.261.355-.375z"/><path fill="#fff" d="M33.109 22.78c-.112.176-.223.392-.264.598-.311-.152-.638-.397-.763-.734.578-.149.63-.478 1.027.136-.066.105-.062-.096 0 0zm-.003.015c.113.113.086-.404.311-.191.12-.118-.273-.58-.414-.552-.557.105-.07.545.103.743z"/><path fill="#9B6527" d="M32.497 24.278c-.072-.151-.183-.217-.331-.197-.019.148.047.259.198.331l.133-.134zm2.096-2.096c-.072-.151-.183-.217-.33-.198-.02.148.046.259.197.331l.133-.133z"/><path fill="#fff" d="M32.655 24.724l-.331-.33 2.257-2.257c.95.514-1.407 2.298-1.926 2.587z"/></g><g stroke="#000"><path fill="#9B6527" d="M31.383 24.666c.061.057.127.073.201.048.063-.147-2.231-2.645-2.417-2.551-.656.333 2.302 2.669 2.178 2.749.07-.047-.088-.285.038-.246z"/><path d="M30.773 22.77c-.23-.23.257-.675.499-.433.133.133.515.388.565.565.23.23-.257.675-.499.433l-.565-.565zm.599.598c.216.216.682-.25.466-.466s-.682.25-.466.466z" fill="#fff"/><path fill="#9B6527" d="M31.17 23.129c-.394.395-.751.821-1.133 1.227-.048.051-.969.902-.874.367.077-.434.706-.84 1.012-1.114.259-.231.517-.466.763-.711.052-.053.283.18.232.231z"/></g><g stroke="#000" stroke-width=".125" stroke-miterlimit="2.5"><path fill="#CF7400" d="M33.295 16.436c-.405.65 3.348 2.431 3.805 2.684.655.362 1.311.722 1.964 1.087.255.143 1.407.928 1.421.885.055-.162-.275-.119-.187-.288-.008.015.742.075.18-.205-.305-.151-.618-.207-.936-.42-.607-.409-1.204-.836-1.805-1.256-.439-.307-4.029-3.149-4.442-2.487z"/><path d="M33.942 17.213c.681.42 4.956 2.803 5.24 2.982m-5.161-3.112c.668.438 4.9 2.897 5.18 3.084" fill="none"/></g><path fill="#9B6527" stroke="#000" stroke-width=".125" stroke-miterlimit="2.5" d="M37.593 28.878c.011.163-.139.696.188.741.124.018.554-.105.576-.175.458 0-.058-.916-.764-.566.011.171.201-.1 0 0zm-2.162-.552c-.472.113-1.399.58-.331.601.194.003 1.177.02 1.136-.187-.059-.333-.382-.544-.805-.414zm-1.852-6.514c-.097-.458 1.707-.082 1.838-.019-.063-.619.147-1.959.844-2.123.084-.189.395-.212.416-.442.033-.351-.288-.433-.274-.773.017-.4.478-.701.851-.678.712.044.564 1.636.067 1.645 0 .459.776.397 1.021.761.118.176.153.36.15.57.231.224.38.459.375.794.101-.243.346-.368.381-.607-.105-.092-.167-.424-.1-.546.152-.268.82.287.781.534-.066.418-.459 1.096-.775 1.375-.371.329-.982-.473-1.093-.794-.144.36.029.847-.423.864-.307.011-.616 0-.922-.024-.616-.051-.437-.103-.597-.636-.092.324-.354.877-.737.649-.16-.095-.289-.55-.303-.55h-1.5z"/><path fill="#fff" stroke="#000" stroke-width=".125" stroke-miterlimit="2.5" d="M36.967 24.615c-.055.452-.364.866-.435 1.298-.13.791-.081 1.79-.081 2.629-.385-.094-.775-.267-1.181-.199-.006-.283.125-.447.184-.709.107-.476.087-1.02.103-1.505.031-1.027.06-1.978.374-2.974.163-.515.168-.529.664-.5.354.021.71.039 1.065.039.464.001.42.066.536.568.124.532.188 1.082.179 1.628-.015.771-.067 1.415.088 2.159.121.581.38 2.23-.631 1.916-.491-.152-.42-.374-.419-.849.001-.381-.022-.744-.048-1.125-.055-.826-.316-1.551-.398-2.376-.033.277.099.998 0 0z"/><path stroke="#000" stroke-width=".125" d="M36.672 18.275l.05.311c-.263-.402-.037.521-.039.561-.379-.035-.442-.785-.413-1.041.062-.542.828-.551 1.205-.476.451.089.369.772.019.59-.079-.041-.804-.073-.822.055z"/><path d="M37.66 18.4c-.255-.076-.422.164-.183.292-.245-.133.182-.164.181-.196-.041-.043-.094-.056-.159-.036-.064-.008.267-.028.161-.06zm-.446-.004c-.042-.046-.284-.046-.334-.012-.037.026.363.046.334.012zm-.033.118c.03-.013-.362.166-.305-.018.032-.114.445-.04.305.018zm-.043.376c-.066-.003.396-.075.363-.048-.094.07-.267.053-.363.048zm-.008.21c.171 0 .185.077.358-.014l-.32-.002.34-.018c.089-.069-.548.034-.378.034z"/><path d="M39.984 20.452c.222-.071.059.442-.143.34-.151-.077.13-.252.143-.34.061-.02-.013.09 0 0zm-.116-.133c.283-.044.029.486-.146.377-.119-.074.141-.295.146-.377.066-.01-.005.091 0 0zm-.121-.111c.257-.065.101.433-.084.392-.166-.035.086-.324.084-.392.064-.016.003.092 0 0zm-.017-.071c.107.104-.077.444-.234.397-.036-.011.042-.38.036-.364.055-.071.12-.082.198-.033z" fill="#9B6527" stroke="#000" stroke-width=".125" stroke-miterlimit="2.5"/><path d="M36.104 20.713c.07.305-.008 1.161-.337 1.33.205-.081.429-.489.387-.11.034-.425-.05-.844-.05-1.22z"/><path fill="#FFE466" stroke="#000" stroke-width=".125" stroke-miterlimit="2.5" d="M37.301 22.509c0 .429-.555.422-.555-.008 0-.408.555-.405.555.008z"/><path d="M37.302 22.341c.252.024.738-.162.76.185.023.332-.538.189-.76.199 0-.119-.033-.272 0-.384zm-.555-.017c-.264 0-.612-.237-.657.108-.043.316.445.276.657.256 0-.112.031-.257 0-.364zm.475.186c0 .295-.388.295-.388 0 0-.292.388-.286.388 0z" fill="#9B6527" stroke="#000" stroke-width=".125" stroke-miterlimit="2.5"/><path d="M38.023 22.521c.016.127-.218.126-.218.024.001-.097.207-.111.218-.024zm-.339.018c0 .109-.237.102-.237.012-.001-.118.237-.117.237-.012zm-1.29-.046c0 .099-.242.076-.229-.039.009-.081.229-.037.229.039zm.311.019c0 .107-.227.103-.227.012.001-.112.227-.12.227-.012z" fill="#FFE466" stroke="#000" stroke-width=".125" stroke-miterlimit="2.5"/><path d="M32.005 35.759c4.514 0 8.724-2.675 10.646-6.759 1.947-4.139 1.264-9.172-1.709-12.645-2.969-3.467-7.804-4.922-12.193-3.66-4.305 1.238-7.615 4.949-8.346 9.369-1.17 7.066 4.437 13.695 11.602 13.695zm0-11.76" stroke="#00775E" stroke-width=".5" fill="none"/><path d="M33.493 12.332c-.681-.207-.511-2.066-2.968-1.927 1.296.389.958 1.796 2.968 1.927zm0 0c-.707.075-.89 1.933-3.276 1.336 1.346-.139 1.277-1.585 3.276-1.336zm-2.948-.004c-.71-.031-1.009-1.874-3.354-1.128 1.353.054 1.374 1.501 3.354 1.128zm0 0c-.666.249-.381 2.094-2.841 2.109 1.27-.47.843-1.852 2.841-2.109zm-2.857.73c-.695.146-1.442-1.564-3.529-.259 1.324-.283 1.705 1.112 3.529.259zm0 0c-.583.406.152 2.123-2.228 2.749 1.114-.77.357-2.004 2.228-2.749zm-2.584 1.417c-.638.315-1.787-1.156-3.483.626 1.211-.603 1.928.654 3.483-.626zm0 0c-.464.539.675 2.018-1.474 3.217.886-1.024-.153-2.03 1.474-3.217zm-2.153 2.015c-.539.464-2.018-.675-3.217 1.473 1.024-.885 2.03.154 3.217-1.473zm0 0c-.314.638 1.156 1.787-.627 3.482.604-1.211-.653-1.927.627-3.482zm-1.582 2.488c-.407.583-2.123-.152-2.75 2.227.771-1.113 2.004-.356 2.75-2.227zm0 0c-.147.696 1.563 1.443.258 3.529.284-1.324-1.112-1.705-.258-3.529zm-.914 2.802c-.249.666-2.094.38-2.11 2.841.47-1.269 1.852-.843 2.11-2.841zm0 0c.031.71 1.874 1.009 1.127 3.354-.054-1.352-1.5-1.374-1.127-3.354zm-.189 2.943c-.075.707-1.934.889-1.337 3.276.139-1.347 1.584-1.277 1.337-3.276zm0 0c.207.681 2.066.511 1.926 2.968-.389-1.297-1.796-.959-1.926-2.968zm.548 2.896c.103.703-1.652 1.342-.48 3.506-.199-1.339 1.217-1.632.48-3.506zm0 0c.369.607 2.128-.019 2.604 2.396-.699-1.16-1.977-.482-2.604-2.396zm1.252 2.669c.274.656-1.266 1.711.407 3.515-.526-1.247.773-1.883-.407-3.515zm0 0c.509.497 2.057-.547 3.118 1.673-.965-.948-2.035.025-3.118-1.673zm1.877 2.274c.429.567-.802 1.972 1.268 3.304-.82-1.078.28-2.016-1.268-3.304zm0 0c.615.355 1.855-1.041 3.436.846-1.171-.679-1.965.53-3.436-.846zm2.383 1.736c.557.442-.286 2.109 2.049 2.885-1.062-.84-.229-2.024-2.049-2.885zm0 0c.685.19 1.538-1.471 3.538-.036-1.303-.366-1.771 1.003-3.538.036zm2.739 1.089c.649.29.248 2.113 2.703 2.284-1.238-.549-.725-1.902-2.703-2.284zm0 0c.711.014 1.125-1.807 3.418-.915-1.353-.031-1.465 1.412-3.418.915zm2.925.373c.7.12.766 1.985 3.186 1.54-1.335-.224-1.176-1.662-3.186-1.54zm0 0c.691-.163.64-2.029 3.083-1.736-1.318.306-1.069 1.731-3.083 1.736zm2.925-.366c.709-.059 1.235 1.733 3.469.699-1.349.115-1.552-1.317-3.469-.699zm0 0c.63-.33.115-2.125 2.555-2.448-1.201.624-.606 1.943-2.555 2.448zm2.742-1.082c.672-.232 1.628 1.371 3.534-.185-1.278.446-1.831-.89-3.534.185zm0 0c.528-.476-.416-2.086 1.865-3.006-1.006.904-.101 2.032-1.865 3.006zm2.388-1.73c.593-.393 1.917.923 3.376-1.058-1.126.75-1.994-.407-3.376 1.058zm0 0c.393-.593-.923-1.917 1.059-3.376-.751 1.126.406 1.994-1.059 3.376zm1.882-2.269c.477-.528 2.087.417 3.008-1.865-.906 1.008-2.034.103-3.008 1.865zm0 0c.233-.672-1.37-1.628.187-3.534-.448 1.279.888 1.831-.187 3.534zm1.259-2.666c.33-.63 2.125-.115 2.449-2.555-.626 1.202-1.945.605-2.449 2.555zm0 0c.059-.709-1.732-1.236-.698-3.469-.116 1.349 1.316 1.552.698 3.469zm.555-2.895c.164-.692 2.03-.64 1.737-3.083-.307 1.318-1.732 1.069-1.737 3.083zm0 0c-.119-.701-1.985-.767-1.539-3.186.224 1.334 1.661 1.176 1.539 3.186zm-.181-2.942c-.014-.711 1.808-1.125.916-3.418.03 1.353-1.413 1.465-.916 3.418zm0 0c-.289-.649-2.113-.249-2.282-2.703.547 1.237 1.901.725 2.282 2.703zm-.908-2.806c-.19-.685 1.471-1.538.037-3.538.367 1.304-1.002 1.771-.037 3.538zm0 0c-.442-.557-2.108.285-2.884-2.05.84 1.062 2.023.23 2.884 2.05zm-1.576-2.49c-.354-.617 1.042-1.856-.844-3.437.678 1.172-.531 1.965.844 3.437zm0 0c-.567-.429-1.972.8-3.303-1.269 1.078.819 2.016-.281 3.303 1.269zm-2.146-2.021c-.497-.509.548-2.057-1.672-3.119.948.966-.027 2.035 1.672 3.119zm0 0c-.655-.275-1.711 1.266-3.515-.408 1.247.526 1.883-.773 3.515.408zm-2.582-1.424c-.607-.37.02-2.128-2.395-2.605 1.159.7.482 1.978 2.395 2.605zm0 0c-.703-.103-1.342 1.651-3.505.479 1.338.2 1.631-1.216 3.505-.479z" fill="#00775E"/><path fill="#FFD139" stroke="#000" stroke-width=".125" stroke-miterlimit="2.5" d="M26.416 28.878c-.01.163.14.696-.188.741-.123.018-.554-.105-.576-.175-.458 0 .058-.916.764-.566-.011.171-.201-.1 0 0z"/><path stroke="#000" stroke-width=".125" stroke-miterlimit="2.5" d="M25.636 29.153c-.056.025-.099.094-.105.155m.221-.06c-.094.027-.119.133-.1.196m.271-.099c-.058.029-.093.091-.092.136m.315-.216c-.122.058-.157.201-.085.291" fill="none"/><path fill="#FFD139" stroke="#000" stroke-width=".125" stroke-miterlimit="2.5" d="M28.579 28.326c.471.113 1.399.58.331.601-.196.003-1.176.021-1.137-.187.062-.332.379-.544.806-.414z"/><g stroke="#000" stroke-width=".125" stroke-miterlimit="2.5"><path fill="#9B6527" d="M23.365 21.072c.798-.851 1.669-1.168 2.701-1.688.32-.162 2.622-1.667 2.806-1.518.431.35-.911.88-1.167 1.025-.647.365-1.305.711-1.972 1.039-.598.293-1.197.505-1.692.958-.099.09-.5.716-.602.667-.103-.049-.144-.405-.074-.483z"/><path fill="#fff" d="M28.234 18.708c.064.263.113.571.08.841.444-.06.945-.228 1.235-.59-.249-.161-.515-.385-.646-.656-.229.103-.472.245-.669.405.038.155.116-.094 0 0zm-.003.02c-.059.01-.102-.012-.13-.063.183-.099.017-.393-.174-.298-.099-.195.571-.601.734-.51.664.374-.126.694-.43.871z"/></g><path fill="#FFD139" stroke="#000" stroke-width=".125" stroke-miterlimit="2.5" d="M30.43 21.812c.102-.454-1.707-.082-1.837-.019.063-.618-.148-1.959-.844-2.123-.086-.188-.396-.213-.417-.442-.033-.351.288-.433.274-.773-.016-.4-.476-.701-.85-.678-.712.044-.565 1.635-.068 1.645.013.452-.782.405-1.021.761-.118.176-.153.36-.15.57-.231.225-.38.459-.376.794-.178-.43-.329-.342-.301-.763.003-.048.104-.693-.178-.526l-.451.478c-.306.267.13.741.251 1.053.378.974 1.223.485 1.485-.281.144.359-.03.847.422.864.307.011.616 0 .921-.024.615-.051.438-.103.598-.636.092.325.352.877.736.649.161-.095.292-.55.304-.55l1.502.001z"/><path stroke="#000" stroke-width=".125" stroke-miterlimit="2.5" d="M29.503 21.812l-.025-.015m-3.674-1.481c-.005.185-.229 1.061.314.662m-.231.094c.006.204.027.309.227.336m1.676-1.241c.02.284.329.853-.271.756m-.352-1.462c.005.061-.022.27-.056.342m.326.022c-.149.022-.291.068-.425.138l.304-.006m-.988-.016c.193-.011.254.099.336.099m-.236.877c.132-.006.232-.064.301-.173.142-.161.338.092.493.113m.833-.899c.094.094.149.199.133.348m.087.529c.154.27.204.507.171.701m-1.511.452l.166.005m-.635-.138c.137-.004.257-.051.359-.142.184-.123.333.049.513.087m-.927-.165c.154.011.325-.083.402-.177m-.264-.005c.077-.022.204-.104.259-.193m-.243-.022c.071-.011.138-.094.165-.133m.282.022l.089.077m-.117.023c.027.066.16.132.237.144m.596-.487c.011.094-.005.171-.083.227m.078-.111c.03.116-.006.237-.149.314m.138-.137c.039.077.066.21-.05.32m.061-.083c.021.144-.078.32-.237.358m-3.123-.391c.237.243.138.425.574.761" fill="none"/><path fill="#fff" stroke="#000" stroke-width=".125" stroke-miterlimit="2.5" d="M27.043 24.615c.054.451.362.868.434 1.298.133.788.082 1.793.082 2.629.384-.094.775-.267 1.18-.199.006-.284-.125-.447-.184-.709-.107-.475-.086-1.021-.101-1.505-.031-1.027-.061-1.979-.375-2.974-.163-.515-.167-.529-.663-.5-.355.021-.711.039-1.066.039-.464.001-.419.065-.536.568-.124.532-.188 1.082-.178 1.628.014.771.067 1.415-.088 2.159-.121.581-.38 2.23.631 1.916.491-.152.418-.375.418-.849 0-.381.022-.744.048-1.125.055-.826.315-1.551.398-2.376.033.277-.101.998 0 0z"/><path stroke="#000" stroke-width=".125" stroke-miterlimit="2.5" d="M26.532 22.959c-.186 2.011-.578 4.049-.606 6.068m2.548-3.762c-.077.508-.22 1.445-.265 2.141m.166-.431l-.066.883m-.717-5.197c.231.617.441 1.269.452 1.798m-.249-1.594c.022.071.039.27.039.336m.083-.204l.05.227m-.895-.431l.012.729m-1.297-.094c.048-.198.28-.372.42-.496.126.322-.421.457-.48.811m.039-2.434c-.005.137-.234.54-.392.58" fill="none"/><path fill="#9B6527" stroke="#000" stroke-width=".125" d="M26.532 18.132c-.066-.175-.409-.09-.308-.41.102-.323.505-.258.766-.274.856-.054.914 1.731.336 1.771-.033-.179.019-.328.154-.446.097-.219-.108-.353-.215-.062l-.055-.039c.54-1.041-.608-.357-.678-.54z"/><path d="M26.349 18.4c.254-.076.423.163.184.292.245-.129-.183-.167-.181-.196.04-.044.093-.056.158-.036.07-.008-.267-.028-.161-.06zm.447-.004c.042-.047.284-.046.333-.012.038.026-.362.046-.333.012zm.032.118c-.028-.011.358.169.306-.018-.036-.112-.444-.041-.306.018zm.043.376c.068-.003-.394-.073-.362-.048.09.07.268.053.362.048zm.009.21c-.17 0-.186.08-.358-.014l.319-.002-.339-.018c-.09-.07.546.034.378.034z"/><path stroke="#000" stroke-width=".125" stroke-miterlimit="2.5" d="M24.75 21.05l-.115.146m-.293-.245c.086-.252.432-.21.287-.5" fill="none"/><path fill="#FFD139" stroke="#000" stroke-width=".125" stroke-miterlimit="2.5" d="M24.017 20.407c-.223-.07-.057.442.143.341.151-.077-.13-.252-.143-.341-.061-.019.013.091 0 0zm.116-.132c-.282-.046-.031.487.146.377.119-.075-.142-.295-.146-.377-.066-.011.005.091 0 0zm.121-.11c-.256-.067-.102.432.084.392.165-.036-.086-.325-.084-.392-.064-.017-.003.09 0 0zm.017-.072c-.108.105.077.443.234.397.05-.015-.061-.391-.044-.351-.048-.074-.111-.09-.19-.046z"/><path d="M27.906 20.713c-.072.304.007 1.162.336 1.33-.2-.08-.436-.489-.386-.11-.036-.426.05-.843.05-1.22z"/><path stroke="#000" stroke-width=".125" stroke-miterlimit="2.5" d="M25.937 21.332l.012.176m.837-1.655c-.097-.06-.23-.091-.354-.092m-.443 1.812l.107.045m.593-2.103c.012.246.05.161.13.355m.259-.597c-.166.117-.306.149-.39.148m.788.228l.273.021m.835 2.197l.009-.074" fill="none"/><path fill="#FFE466" stroke="#000" stroke-width=".125" stroke-miterlimit="2.5" d="M26.709 22.509c0 .429.555.422.555-.008 0-.408-.555-.406-.555.008z"/><path fill="#9B6527" stroke="#000" stroke-width=".125" stroke-miterlimit="2.5" d="M26.707 22.341c-.253.024-.736-.162-.76.185-.021.332.538.189.76.199 0-.119.033-.272 0-.384zm.555-.017c.265 0 .611-.236.658.108.041.316-.445.276-.658.256 0-.112-.032-.257 0-.364zm-.474.186c0 .295.387.296.387 0 0-.292-.387-.286-.387 0z"/><path d="M25.986 22.521c-.016.127.218.126.218.024 0-.097-.207-.111-.218-.024zm.339.018c0 .109.237.102.237.012 0-.118-.237-.116-.237-.012zm1.291-.046c0 .099.243.077.229-.039-.009-.081-.229-.037-.229.039zm-.311.019c0 .107.227.103.227.012-.001-.112-.227-.12-.227-.012z" fill="#FFE466" stroke="#000" stroke-width=".125" stroke-miterlimit="2.5"/><path stroke="#000" stroke-width=".125" stroke-miterlimit="2.5" d="M25.87 26.269l-.196.381m.935-.492l.029.209m.405-1.752c.017-.167.028-.355.029-.554m2.362 4.702c.033-.16-.202-.094-.298-.1m.869-6.851c.011-.136-.347-.145-.422-.166m8.791 7.507c.055.025.098.094.105.155m-.221-.06c.094.027.118.133.099.196m-.27-.099c.058.029.092.091.092.136m-.316-.216c.121.058.156.201.085.291m-3.441-7.744l.024-.015m3.674-1.481c.006.185.229 1.061-.314.662m.231.094c-.005.204-.027.309-.226.336m-1.676-1.241c-.021.284-.329.853.27.756m.353-1.462c-.006.061.021.27.055.342m-.326.022c.149.022.291.068.425.138l-.304-.006m.988-.016c-.192-.011-.253.099-.336.099m.237.877c-.132-.006-.232-.064-.302-.173-.143-.16-.338.092-.493.113m-.833-.899c-.094.094-.148.199-.132.348m-.089.529c-.154.27-.203.507-.171.701m1.512.452l-.165.005m.634-.138c-.138-.004-.257-.052-.358-.142-.185-.122-.332.049-.513.087m.927-.165c-.154.011-.326-.083-.402-.177m.264-.005c-.077-.022-.204-.104-.26-.193m.243-.022c-.072-.011-.139-.094-.166-.133m-.281.022l-.088.077m.115.023c-.027.066-.16.132-.237.144m-.596-.487c-.011.094.006.171.083.227m-.077-.111c-.03.116.006.237.149.314m-.138-.137c-.038.077-.066.21.05.32m-.061-.083c-.022.144.077.32.237.358m3.123-.391c-.237.243-.138.425-.573.761m-1.506.817c.185 2.011.578 4.049.606 6.068m-2.549-3.762c.077.508.221 1.445.265 2.141m-.165-.431l.065.883m.718-5.197c-.231.617-.441 1.269-.452 1.798m.248-1.594c-.022.071-.039.27-.039.336m-.082-.204l-.05.227m.894-.431l-.011.729m1.296-.094c-.048-.198-.279-.372-.419-.496-.127.323.422.456.479.811m-.038-2.434c.005.136.234.54.392.58m.624-.839l.115.146m.292-.245c-.117-.343-.307-.156-.273-.552m-1.321.933l-.012.176m-.837-1.655c.096-.06.23-.091.353-.092m.443 1.812l-.106.045m-.595-2.103c-.011.246-.05.161-.129.355m-.259-.597c.167.117.306.149.39.148m-.787.228l-.273.021m-.836 2.197l-.008-.074m2.722 4.476l.196.381m-.936-.492l-.028.209m-.404-1.752c-.018-.167-.028-.355-.03-.554m-2.362 4.702c-.033-.16.203-.094.298-.1m-.869-6.851c-.006-.138.344-.144.423-.166" fill="none"/><g stroke="#9B6527" stroke-width=".125" stroke-miterlimit="2.5"><path fill="#fff" d="M32.032 32.072c.467 0 .936-.031 1.392-.14.012.315-.124.239-.394.261-.035.877 2.219.646 1.537-.694.216-.111.428-.229.637-.354.275.125.563.24.861.3.225.045.504.067.693-.092.264-.22.886-1.129.575-1.355-.909-.661-1.678.092-2.581-.081-.63-.121-1.813.201-1.565 1.027-.75.185-1.56.185-2.311 0 .201-.672-.801-1.241-1.399-1.068-.948.288-1.795-.569-2.747.122-.333.243.3 1.033.511 1.29.136.166.353.201.556.186.25-.019.497-.099.729-.188.472-.182.538-.009.97.213-.681 1.341 1.572 1.571 1.537.694-.27-.021-.406.055-.394-.261.457.109.926.14 1.393.14z"/><path d="M28.86 31.146c-.145-.083-2.059-.675-1.666.077m2.248-1.335c.479-.107.495.325.398.656m-.343.954c.397.202.758.343 1.142.435m.238-.99c-.75-.187-1.336-.608-2.003-.968m1.768 2.171c-.252-.04-.588-.097-.788-.278.21.219.169.764-.243.65m5.593-1.372c.146-.084 2.06-.675 1.666.077m-2.248-1.335c-.479-.107-.495.325-.398.656m.343.954c-.397.202-.758.343-1.142.435m-.237-.99c.75-.187 1.336-.608 2.003-.968m-1.768 2.171c.253-.04.588-.097.788-.278-.21.219-.169.764.243.65" fill="none"/></g><path d="M27.096 30.077c-.128.069.928.531.08.678l-.094-.209c.292.267.522-.128.152-.115-.445.017-.208-.412.049-.473l.087.191c-.043-.041-.184-.124-.274-.072zm1.058.287c-.02-.188.067-.277-.034-.437l.187.021c-.09.179-.084.676-.392.643-.404-.045-.15-.5-.282-.717.088-.011.238.005.322.035-.311.376.157.843.199.455zm.194.102c.055-.181.073-.296.266-.215l-.05.125c.352.142.166-.405.071-.176-.09.217-.185-.146-.186-.21.184.055.759.518.27.448.44.273-.293.317-.525.184.148-.142.131-.119.31-.096-.092.428.366-.015.049-.12-.041.205-.094.031-.205.06zm1.206.581c.062-.18.178-.223.15-.411l.161.096c-.156.125-.358.579-.623.421-.349-.209.072-.517.042-.769.085.027.214.104.278.167-.439.21-.209.83-.008.496zm.88.543c.048.04.061.08.038.121-.09-.014-.219-.07-.296-.119.171-.116.209-.307.291-.511-.153.148-.332.339-.49.43l-.003-.659c-.086.215-.198.387-.149.599l-.188-.075c.195-.124.317-.417.243-.637.349.042.248.334.249.605.191-.186.331-.464.604-.263-.181.108-.215.3-.299.509zm1.158-.163l-.01.146c.67.027-.249-.399.01-.146-.1-.097-.176-.032-.251-.205.205-.003.955.287.439.376l.215.352c-.219.021-.341-.182-.415-.353l.058.328c-.088.015-.243.005-.328-.022.159-.192-.015-.492.282-.476zm.738.261c.009-.038.213-.005-.013-.242l-.081.249.097.035-.062.206-.204.015c.126-.205.196-.464.277-.703.15.162.254.489.416.653-.098.024-.238.036-.338.024.152-.163.002-.152-.092-.237zm.757.163c.112-.19.018-.548-.174-.659l.581-.154.054.204c-.204-.166-.464-.148-.298.192.109-.03.112-.101.147-.186.041.104.06.262.061.33-.038-.109-.104-.146-.199-.111l.162.295c-.105.028-.227.087-.334.089zm.742-.955c-.101.358.381.915.448.306.126.334-.233.342-.498.452.084-.204-.055-.516-.252-.633.096-.041.201-.108.302-.125zm.885.3c-.217.125-.535-.427-.319-.552.296-.169.39.43.33.571.377-.218.057-.821-.341-.59-.398.23-.02.827.33.571zm.902-1.089l-.117-.072.584-.139.049.206c-.202-.175-.458-.159-.302.184.11-.024.115-.098.151-.182.038.104.054.261.054.332-.036-.11-.102-.148-.197-.116.012.367.301.306.403.021.039.338-.31.29-.585.355.101-.19.013-.364-.04-.589zm.955.479c-.241-.064-.075-.68.166-.615.329.089-.031.58-.172.637.431.117.609-.541.178-.657-.453-.124-.587.57-.172.635zm-5.8.998c.023-.188.021-.305.226-.257l-.029.132c.404.086.079-.357.052-.239.051.085-.182.124-.23-.121.192.021.834.382.342.396.48.195-.234.362-.486.27.123-.164.11-.139.289-.146-.019.429.356-.062.027-.127-.004.207-.087.043-.191.092zm4.224-1.108l.063.132c.598-.309-.412-.224-.063-.132-.135-.035-.169.061-.319-.055.175-.102.973-.222.568.109l.36.2c-.18.127-.387.01-.535-.101l.213.256c-.069.057-.209.125-.297.144.044-.245-.255-.42.01-.553z"/></svg>