<svg xmlns="http://www.w3.org/2000/svg" width="64" height="48"><path fill="#E4032E" d="M0 0h64v48h-64z"/><path fill="#fff" d="M14 0h36v48h-36z"/><path fill="#E4032E" d="M32.73 40.209c-.189-3.148-.27-5.184-.352-7.151-.035-.841.7-.765 1.244-.679 4.519.706 6.656 1.031 6.656 1.031-1.623-3.067-.482-3.245.406-3.99 5.087-4.262 6.169-5.184 6.169-5.184-2.354-.801-2.028-.502-.515-6.162-4.91 1.561-4.504 1.1-5.546-1.33 0 0-.379.434-3.449 3.908-.434.49-1.168.163-1.015-.597 1.596-7.926 1.677-8.252 1.677-8.252-3.111 1.886-2.993 1.992-3.489 1.018-1.705-3.337-2.516-4.98-2.516-4.98s-.812 1.643-2.517 4.981c-.497.974-.378.868-3.49-1.018 0 0 .082.326 1.678 8.252.153.759-.582 1.086-1.015.597-3.071-3.474-3.45-3.908-3.45-3.908-1.042 2.429-.636 2.891-5.546 1.33 1.515 5.66 1.84 5.361-.514 6.162 0 0 1.082.922 6.169 5.184.889.745 2.029.923.406 3.99 0 0 2.137-.325 6.656-1.031.545-.086 1.279-.162 1.245.679-.081 1.968-.162 4.003-.352 7.151h1.46z"/></svg>