<svg xmlns="http://www.w3.org/2000/svg" width="64" height="48"><path fill="#0073CF" d="M0 0h64v48h-64z"/><path fill="#FECB00" d="M35.13 17.054c-.001 1.729-1.403 3.129-3.132 3.128-1.727-.001-3.127-1.401-3.128-3.128-.001-1.729 1.399-3.13 3.128-3.131s3.131 1.4 3.132 3.128v.003z"/><path fill="#fff" d="M26.831 5c-5.394.101-10.947 13.065 2.014 19.638v18.362h1.653v-18.75c-1.369-.449-6.061-3.477-6.061-7.444 0-1.66 1.036-4.396 3.013-5.657 1.209-.771 2.398-1.568 2.398-3.197s-1.323-2.952-2.952-2.952h-.065zm10.177 0c-1.586.05-2.855 1.354-2.855 2.951 0 1.629 1.188 2.426 2.398 3.197 1.976 1.262 3.013 3.998 3.013 5.657 0 3.967-4.692 6.995-6.061 7.444v18.751h1.651v-18.362c13.013-6.598 7.363-19.638 1.95-19.638h-.096zm-18.755 4.612c-1.442.062-2.425 1.119-2.425 2.767 0 3.06 5.306 11.106 10.752 13.119v17.502h1.649v-18.239c-2.994-1.672-5.452-3.831-6.622-6.337-1.108-2.376-1.126-4.048-1.126-4.923 0-1.183.104-1.087.104-1.837 0-1.892-1.635-2.052-2.298-2.052h-.034zm27.344 0c-.72.021-2.184.264-2.184 2.052 0 .75.104.654.104 1.837 0 .875-.018 2.546-1.126 4.923-1.169 2.507-3.627 4.665-6.621 6.337v18.239h1.647v-17.502c5.447-2.013 10.753-10.06 10.753-13.119 0-1.662-.998-2.721-2.459-2.767h-.114zm-31.064 4.642c-.793.04-1.533.638-1.533 1.753 0 .366-.026.877.964 2.098 2.81 3.464 8.978 7.705 10.35 8.01v16.885h1.652v-17.378c-3.175-1.404-7.745-5.88-9.742-10.299-.339-.752-1.034-1.102-1.691-1.069zm34.765 0c-.604.03-1.212.382-1.522 1.068-1.996 4.419-6.566 8.896-9.741 10.299v17.379h1.652v-16.886c1.37-.305 7.539-4.545 10.349-8.01.99-1.22.965-1.731.965-2.098-.001-1.193-.85-1.794-1.703-1.752zm-36.744 3.801c-.788.055-1.337.894-1.337 1.396 0 1.78 8.158 7.149 10.568 7.401v16.148h1.914v-16.764c-1.876-.821-7.881-5.166-9.649-7.336-.538-.659-1.054-.876-1.496-.845zm38.73 0c-.404.028-.86.265-1.333.846-1.769 2.17-7.773 6.515-9.65 7.336v16.763h1.914v-16.148c2.411-.252 10.568-5.622 10.568-7.401 0-.536-.626-1.455-1.499-1.396zm-20.172 6.253v18.692h1.776v-18.692h-1.776z"/></svg>