<svg xmlns="http://www.w3.org/2000/svg" width="64" height="48"><path fill="#262D62" d="M0 0h64v48h-64z"/><path fill="#fff" d="M32 .02h-3.9l-8.1 5.98v-6h-8v6l-8.133-5.98h-3.867v2.913l6.759 5.071h-6.759v7.99h6.759l-6.759 5.071v2.914h3.867l8.133-5.979v6h8v-6l8.1 5.979h3.9v-2.914l-6.792-5.071h6.792v-7.99h-6.792l6.792-5.071z"/><path fill="#DC2F34" d="M29.485.02l-10.68 7.989h2.556l10.639-7.989zM32 23.979l-10.65-7.985h2.567l8.083 6.081zM10.702 8.009l-10.702-7.989v1.908l8.123 6.081zM10.68 15.994l-10.68 7.985h2.556l10.681-7.985zM32 10h-14v-10h-4v10l-14 .042v3.958h14v10h4v-10h14z"/><path fill="#fff" d="M57.935 23.244l.032-.022-.016.007-.02.014c.092-.125-.031-.178-.089-.244-.243-.276-.487-.554-.742-.819-.121-.125-.147-.224-.047-.38.189-.292.354-.6.525-.904.045-.082.133-.16.05-.276-.371.165-.752.312-1.109.5-.214.113-.33.065-.472-.106-.271-.327-.564-.634-.905-1.013.051.523.083.965.144 1.402.028.195-.026.284-.203.356-.419.172-.828.365-1.289.571.52.112.975.218 1.434.305.16.03.21.1.223.254.034.434.084.865.128 1.303.146-.023.176-.139.229-.229l.525-.903c.049-.083.078-.187.217-.147.457.129.937.161 1.385.331zm-19.208-.006c.395-.14.816-.166 1.212-.29.247-.078.351.013.457.215.197.375.421.735.671 1.166.053-.502.12-.922.135-1.344.009-.255.107-.34.342-.379.424-.071.842-.173 1.326-.276l-.901-.401c-.634-.281-.63-.28-.545-.963.037-.294.057-.59.091-.96-.367.407-.679.744-.979 1.089-.095.11-.176.125-.305.063l-.953-.427c-.107-.049-.215-.083-.344-.085.241.416.467.811.701 1.2.068.113.061.187-.031.283-.266.283-.524.573-.78.865-.056.064-.187.114-.093.242l-.018-.01-.002-.011.016.023zm14.772-5.742c-.283.209-.483.499-.719.754-.401.435-.396.44-.946.193l-.972-.435c.262.454.461.835.695 1.192.133.201.098.319-.059.479-.288.293-.556.607-.874.962.491-.034.892-.152 1.297-.243.198-.044.329-.031.43.18.146.305.331.591.506.881.038.063.046.183.141.169.119-.019.071-.147.083-.224.041-.316.078-.634.098-.951.013-.225.068-.354.332-.391.422-.059.836-.176 1.328-.285-.48-.215-.876-.404-1.282-.565-.186-.074-.229-.173-.206-.359.058-.455.098-.912.144-1.366l-.013.014.017-.005zm-16.419 10.197c.431-.312.798-.566 1.151-.84.141-.109.237-.117.382-.005.355.276.728.532 1.156.843-.162-.504-.289-.932-.439-1.35-.063-.173-.034-.268.115-.371.373-.256.732-.528 1.166-.845-.537 0-.981-.01-1.426.005-.196.006-.276-.061-.33-.248-.122-.429-.272-.85-.43-1.331-.157.478-.309.897-.43 1.325-.057.203-.152.262-.355.254-.438-.016-.878-.005-1.404-.005.447.326.812.601 1.188.86.127.09.159.169.105.32-.151.432-.282.87-.449 1.388zm18.968-2.568c.405.296.731.554 1.078.777.221.143.282.277.18.532-.152.385-.262.788-.414 1.259.433-.312.805-.573 1.165-.849.13-.099.217-.114.356-.005.359.281.735.54 1.165.853l-.361-1.138c-.144-.445-.145-.445.246-.729l.896-.649c-.479-.051-.928-.06-1.374-.046-.186.006-.261-.062-.311-.233-.129-.432-.278-.857-.438-1.346-.159.489-.31.911-.431 1.341-.055.193-.148.242-.337.237-.444-.012-.886-.004-1.42-.004zm-19.003 2.936l.105 1.096c.054.562.053.562-.457.788l-1.004.444c.518.109.935.206 1.354.283.187.035.29.09.304.311.027.443.093.885.15 1.403.248-.429.468-.782.66-1.151.111-.215.226-.297.483-.223.401.114.817.177 1.31.277-.35-.391-.631-.725-.937-1.035-.149-.15-.148-.261-.04-.433.234-.372.443-.76.699-1.205-.479.211-.892.38-1.291.576-.179.089-.28.055-.402-.088-.288-.337-.591-.664-.934-1.043zm.278 7.356c.514-.111.943-.194 1.367-.3.198-.049.306-.002.402.183.202.384.433.755.69 1.201.059-.527.121-.979.155-1.433.013-.178.086-.234.245-.265.445-.087.887-.187 1.406-.296-.484-.217-.887-.41-1.301-.575-.186-.075-.225-.173-.197-.359.061-.44.098-.884.152-1.397-.343.379-.651.699-.935 1.043-.136.163-.251.174-.432.088-.398-.193-.807-.365-1.271-.572.266.461.488.861.727 1.252.088.145.075.235-.043.358-.311.331-.61.676-.965 1.072zm13.65 6.07c.058-.524.119-.957.146-1.392.012-.214.099-.287.291-.322.43-.079.856-.178 1.364-.287-.471-.21-.854-.401-1.252-.552-.24-.09-.273-.222-.239-.45.063-.414.093-.831.145-1.326-.348.384-.652.696-.928 1.034-.146.176-.265.176-.453.085-.39-.191-.791-.358-1.252-.562.262.456.48.854.719 1.238.098.157.079.254-.045.383-.308.322-.599.661-.95 1.054.516-.107.952-.186 1.381-.294.195-.05.283.005.373.172.204.385.432.759.7 1.219zm8.366-6.069c-.357-.398-.655-.744-.97-1.074-.119-.125-.129-.216-.041-.36.237-.387.458-.784.725-1.245l-1.062.467c-.458.202-.458.203-.8-.175l-.773-.856c.056.527.098.982.158 1.436.022.167-.025.247-.182.312-.419.173-.83.365-1.32.586.513.109.943.213 1.38.29.193.033.259.112.272.306.034.442.096.883.152 1.396.264-.453.498-.834.708-1.228.088-.163.188-.198.356-.159.435.1.873.191 1.397.304zm-13.649 6.068c.272-.472.505-.854.717-1.246.081-.152.166-.189.329-.15.439.104.884.19 1.409.301-.354-.395-.644-.732-.95-1.053-.124-.131-.145-.227-.046-.384.229-.367.436-.749.679-1.172-.32.057-.549.198-.789.303-.696.303-.695.306-1.199-.257l-.606-.674c.052.5.073.909.145 1.31.048.267-.022.391-.274.485-.392.148-.766.34-1.212.541.511.108.937.205 1.366.284.18.033.27.095.283.298.028.444.091.885.148 1.414zm-2.454-23.954l-.062.02c.041.393.068.788.129 1.177.042.273-.015.432-.3.533-.38.134-.74.322-1.185.521.511.111.943.218 1.38.293.198.034.265.12.278.308.031.413.081.825.122 1.24.149-.029.191-.133.245-.228.149-.259.32-.507.443-.777.111-.245.257-.276.495-.207.305.088.62.142.933.203.071.015.168.063.215-.029.039-.077-.054-.118-.096-.166-.191-.217-.365-.454-.584-.639-.279-.237-.256-.445-.064-.723.213-.309.382-.648.613-1.049-.496.221-.908.394-1.31.587-.166.081-.263.05-.379-.087-.281-.333-.58-.652-.873-.977zm17.636 12.878l.014-.06c-.396-.176-.787-.366-1.191-.523-.211-.082-.251-.2-.222-.406.059-.429.095-.859.148-1.358l-.622.681c-.495.55-.495.55-1.18.243-.234-.105-.465-.227-.762-.232.22.376.413.731.631 1.069.112.175.104.282-.044.433-.306.313-.589.649-.938 1.036.51-.106.933-.172 1.342-.288.239-.068.337.014.439.206.2.375.423.739.674 1.175.059-.517.12-.959.154-1.402.015-.192.081-.272.271-.307.432-.075.859-.176 1.286-.267zm-13.89-9.91c.424-.308.785-.556 1.128-.827.159-.125.269-.139.435-.005.344.273.708.521 1.135.832-.167-.513-.299-.938-.448-1.358-.059-.166-.035-.264.117-.368.373-.252.73-.525 1.165-.842-.502 0-.909-.021-1.313.007-.282.02-.401-.071-.47-.344-.093-.376-.237-.74-.36-1.109l-.081.007c-.124.373-.271.74-.363 1.121-.066.269-.193.339-.454.324-.411-.023-.823-.006-1.321-.006.418.305.753.568 1.107.801.189.125.238.24.156.458-.151.399-.27.809-.433 1.309zm8.815 18.839c-.146-.454-.238-.831-.389-1.185-.129-.305-.061-.479.213-.648.328-.203.629-.452 1.005-.727-.541 0-.989-.009-1.436.004-.171.004-.244-.053-.293-.214-.131-.439-.281-.873-.443-1.372-.157.479-.312.887-.421 1.307-.062.234-.171.29-.395.28-.429-.018-.858-.005-1.366-.005l1.162.84c.128.09.186.167.121.34-.152.413-.276.837-.413 1.262.119.037.189-.043.268-.1.249-.18.514-.345.743-.549.223-.196.39-.172.607.006.306.252.638.471 1.037.761zm-14.933-.001c.415-.301.775-.545 1.114-.814.172-.137.291-.133.461.001.323.257.666.488 1 .73l.066-.05c-.131-.414-.25-.83-.397-1.238-.061-.166-.022-.25.112-.344.371-.26.734-.53 1.166-.844h-1.092c-.57 0-.57 0-.742-.53l-.347-1.054c-.149.462-.292.847-.396 1.24-.068.263-.177.374-.467.351-.409-.031-.822-.007-1.312-.007.429.313.777.58 1.139.825.156.107.2.205.132.392-.152.418-.277.845-.437 1.342z"/></svg>