<svg xmlns="http://www.w3.org/2000/svg" width="64" height="48"><g fill="#E40520"><path d="M0 0h64v48h-64zM32 24"/></g><g fill="#FFE247"><path d="M12 4.906l-1.578 4.904h-5.19l4.215 3.052-1.62 4.9 4.173-3.045 4.172 3.045-1.597-4.942 4.193-2.989h-5.169zM22.209 3.257l.888 1.488-1.154 1.31 1.707-.386.877 1.498.159-1.73 1.696-.376-1.603-.695.178-1.723-1.149 1.305zM27.79 7.438l.244 1.715-1.57.764 1.724.303.231 1.72.814-1.535 1.71.306-1.21-1.258.828-1.522-1.563.761zM26.546 16.154l1.431.978-.498 1.674 1.388-1.067 1.425.991-.583-1.637 1.381-1.053-1.746.042-.562-1.638-.495 1.666zM22.141 20.088l.952 1.447-1.093 1.361 1.688-.462.942 1.458.082-1.736 1.677-.452-1.631-.622.1-1.729-1.089 1.354z"/></g></svg>