<svg xmlns="http://www.w3.org/2000/svg" width="64" height="48"><path fill="#004996" d="M0 0h64v48h-64z"/><path fill="#2D8D2D" d="M64 48v-48h-64z"/><g fill="#FFED00"><circle cx="32" cy="24" r="7.973"/><path d="M32 24"/></g><path fill="#2D8D2D" d="M26.734 21.888c-.215-.385-.578-.534-.889-.246-.132.123-.028.293-.122.406-.095.113.094.161.217.18.123.019.27.19.208.369-.085.246.293.198.123.567s.058 1.183-.18 1.427c-.321.331-.425.784-.652.784-.227 0-.301.121-.321.228-.038.198-.27.123-.283.274-.02.208.255.615.481.633.359.028.312-.34.634-.34s.481-.438.936-.341c.133.028.321-.019.473-.085s.439-.118.595.038c.236.236.464.075.644.265.179.189.538.18.974.104.435-.075 1.036-.206 1.956.521.359.283.305.454.236.689-.151.52.278.672.16 1.03-.198.604.18.624.17.907-.009.283.095.331.379.596.283.265.396.33.681.33.283 0 .699.18.85.095.151-.085.566.075.709-.095.444-.528-.217-.85.143-2.249.16-.626.18-.964.378-1.105s.132-.416.095-.633c-.038-.218-.122-.443.122-.7.567-.595.539-1.002.757-1.002.217 0 .192-.103.217-.283.038-.284.397-.274.52-.482.123-.208.239-.264.397-.17.255.151.198-.094.368-.132.171-.038.341-.246.038-.472-.303-.227-.482-.558-.359-.737s-.066-.274.066-.473.347-.382.18-.784c-.095-.227-.199-.507-.095-.681.17-.284-.218-.624 0-.926-.303-.199-.643.113-.851.019-.208-.095-.553.153-.822.123-.511-.057-.633.076-.643.378-.01.302-.161.179-.208.378-.047.198-.331.236-.396.085-.066-.151-.163-.104-.228.151-.047.189.066.34-.321.633-.388.293-.22.47-1.823 1.342-.436.236-1.721.369-2.061.293-.341-.076-.737.236-.974.028s-.768.183-1.182-.255c-.161-.17-.567-.047-.746-.236-.181-.19-.371-.125-.551-.446z"/><path fill="#FFED00" d="M59.962 13.984c-.737-.821-1.44-.155-2.202-.226-.643-.75-.81-1.178-.857-2.274-.048-1.095-.214-1.81-.333-2.429s-.406-.943-.87-1.488c-.821-.964-2.321-2.25-2.988-2.702-.667-.453-.857-.429-.452.595s1.762 3.547 2.31 4.333c.048.381-.095 1.548-.095 2.048-1.691-.667-3.644-1.81-5.072-2.096-.476-.095-1.048-.262-1.404-.381-.357-.119-.616-.051-.096.429 1.524 1.405 2.304 2.008 4.071 2.833.715.333 1.304 1.158 1.738 1.476.715.524.498 1.787-.548 2.667-1.81 1.523-5.762 3.715-11.548 2.452-.588-.129-1.025.079 0 .333 4.119 1.024 7.594.163 10.668-1.404 2.428-1.238 4.415-1.926 5.476-2.095.596-.095 1.119-.453 1.381-.738.296-.323.644-.786 1.75-.857.011-.345-.486-.405-.929-.476z"/><g fill="#fff"><path d="M13.768 22.19l1.291-.321-.605 1.175 1.054.799-1.298.273.041 1.316-1.024-.84-1.014.844.029-1.316-1.292-.268 1.045-.804-.603-1.172 1.286.316.543-1.197zM5.817 30.559l1.292-.322-.605 1.174 1.054.8-1.298.272.041 1.318-1.024-.842-1.014.845.029-1.317-1.292-.267 1.045-.804-.604-1.172 1.287.316.543-1.197zM20.944 28.282l1.291-.32-.604 1.175 1.054.799-1.298.272.04 1.315-1.023-.839-1.014.844.029-1.315-1.293-.269 1.045-.803-.603-1.172 1.287.316.542-1.197zM13.769 42.755l1.292-.322-.605 1.175 1.054.799-1.298.273.041 1.315-1.024-.839-1.014.844.029-1.315-1.292-.269 1.045-.804-.603-1.172 1.286.316.542-1.197zM16.393 33.49l-.312.98-1.036.003.843.606-.321.978.831-.61.834.607-.322-.986.835-.598-1.031.003z"/></g></svg>