<svg xmlns="http://www.w3.org/2000/svg" width="64" height="48"><g fill="#fff"><path d="M0 0h64v48h-64zM32 24"/></g><path fill="#FBB900" d="M25.404 11.608c-.366.64.234.895-.282 1.642-.752 1.087.119 2.003-1.296 2.749-1.019.537-1.147.249-1.43.006-.285-.241-.995-.618-2.624.088-.695.302-.766.302-.978.084-.212-.217-.378-.068-.908.204-.911.466-.373 1.163-1.472 1.46-1.1.297-1.408.15-2.26-.289-.854-.439-1.021-.346-1.191-.062-.17.284-.197.57.274.933.473.363.708.58.512 1.103-.197.521-.251.728.107.955.734.461.033.945.714 2.081.374.625.44 1.007.482 1.58.041.572.152.922.679 1.033.856.177.078.571 1.466.993.569.175.996.37 1.398.613.402.244 1.545.375 2.357.243.812-.134 2.149-.454 2.499.34.581 1.316.937 1.416 1.24 1.873.305.456.864.069 1.203-.939.248-.735.522-1.795 1.857-1.789 3.289.017 4.164.148 5.564-.887.792-.585 1.78-1.456 2.44-.875.13.121.231-.338.674-.552l.126-.523c.391-.831-.146-1.053.196-1.511.883-1.181 1.36-1.128 2.074-1.096.714.032 1 .131 1.495.638.494.506.719.651 1.357.135.696-.562 2.345-.672 2.573-.041.069.193.523.102.48-.351-.042-.454-.181-.765-.726-1.082-.544-.316-.137-.573-.727-1.009-.591-.437.125-.548-1.03-1.514-1.156-.967-.404-2.68.255-3.381.132-.142.456-.328 1.039-.25.583.079.773.082 1.21-.461.435-.543.82-1.237 1.398-1.413.825-.252.943-.703 1.63-.791 1.11-.142 1.351-1.158 2.21-1.427 1.243-.39.85-1.325 2.262-1.761 1.411-.436 1.349-1.175 1.804-1.479-1.339.341-1.827.538-2.347.973-.674.564-1.267.294-1.964.858-.698.564-1.346.89-2.082.69-.736-.199-.964-.343-1.194.296-.617 1.708-1.717 1.016-2.235 1.522-.82.8-1.506.243-2.105.666-.865.609-2.556-.18-3.319.508-1.275 1.153-1.594-.185-2.985.608-1.131.644-2.149.427-2.91.132-.758-.295-3.293-.21-4.211-.551-1.92-.717-2.831-.251-3.299-.972z"/><path d="M36.198 39.629c-6.575-3.071-12.774-4-15.954-8.134 3.008 4.433 9.76 5.54 16.065 8.735.143.062.099-.481-.111-.601zm-13.861-5.975c-2.229-1.667-2.881-.533-3.885-.439 1.84 1.259 2.23 1.154 3.885.439zm-.072-.115c-1.95-1.99-.913-2.785-.954-3.793 1.494 1.656 1.442 2.057.954 3.793zm-1.719-1.673c-.499-2.738-1.747-2.353-2.546-2.967.491 2.175.847 2.364 2.546 2.967zm3.665 2.911c-1.948-1.988-.911-2.784-.953-3.792 1.494 1.657 1.442 2.057.953 3.792zm.043.066c-2.088 1.843-2.829.766-3.837.755 1.731-1.406 2.128-1.333 3.837-.755zm2.197 1.047c-2.186-1.723-1.26-2.646-1.429-3.639 1.692 1.45 1.692 1.854 1.429 3.639zm.273.166c-1.887 2.048-2.735 1.052-3.739 1.144 1.578-1.575 1.981-1.545 3.739-1.144zm2.28.887c-2.328-1.529-1.482-2.529-1.738-3.504 1.811 1.299 1.845 1.704 1.738 3.504zm.179.19c-1.886 2.048-2.736 1.053-3.74 1.145 1.578-1.575 1.981-1.544 3.74-1.145zm2.239.646c-2.328-1.529-1.483-2.529-1.738-3.505 1.811 1.301 1.845 1.705 1.738 3.505zm.222.255c-1.685 2.218-2.623 1.307-3.614 1.494 1.421-1.717 1.824-1.724 3.614-1.494zm-3.842 1.595c6.575-3.071 12.773-4 15.954-8.134-3.01 4.433-9.762 5.54-16.065 8.735-.143.062-.098-.481.111-.601zm13.86-5.975c2.23-1.667 2.882-.533 3.885-.439-1.841 1.259-2.229 1.154-3.885.439zm.073-.115c1.949-1.99.91-2.785.954-3.793-1.495 1.656-1.443 2.057-.954 3.793zm1.718-1.673c.499-2.738 1.748-2.353 2.547-2.967-.492 2.175-.846 2.364-2.547 2.967zm-3.666 2.911c1.948-1.988.912-2.784.954-3.792-1.493 1.657-1.442 2.057-.954 3.792zm-.04.066c2.085 1.843 2.827.766 3.835.755-1.731-1.406-2.127-1.333-3.835-.755zm-2.199 1.047c2.188-1.723 1.259-2.646 1.429-3.639-1.693 1.45-1.69 1.854-1.429 3.639zm-.275.166c1.887 2.048 2.736 1.052 3.74 1.144-1.577-1.575-1.978-1.545-3.74-1.144zm-2.278.887c2.327-1.529 1.484-2.529 1.739-3.504-1.811 1.299-1.846 1.704-1.739 3.504zm-.179.19c1.888 2.048 2.734 1.053 3.739 1.145-1.578-1.575-1.98-1.544-3.739-1.145zm-2.238.646c2.327-1.529 1.484-2.529 1.739-3.505-1.813 1.301-1.846 1.705-1.739 3.505zm-.222.255c1.686 2.218 2.621 1.307 3.613 1.494-1.422-1.717-1.823-1.724-3.613-1.494z" fill="#00793E"/></svg>