<svg xmlns="http://www.w3.org/2000/svg" width="64" height="48" viewBox="0 0 64 48"><path d="M0 0h64v16h-64z"/><path fill="#d00" d="M0 16h64v16h-64z"/><path fill="#FFCE00" d="M0 32h64v16h-64z"/><path d="M39.596 30.683l.2-.131-1.802-3.329c.363-.269.712-.561 1.034-.892l.083-.085-1.25-1.232-.085.086c-.198.204-.41.388-.628.563l-2.998-5.536 2.915-.428c.059-.009.103-.059.103-.119v-1.844c0-.06-.044-.11-.103-.119l-3.405-.5-.017-.001h-.449l-4.084.219c-.064.003-.114.056-.114.12v2.406c0 .064.05.116.114.12l2.872.154-5.641 10.418.2.131 2.34-3.019c.926.551 1.936.929 2.996 1.086v4.253c0 .263.214.478.478.478h1.408c.263 0 .478-.214.478-.478v-4.25c1.081-.149 2.109-.507 3.041-1.057l2.314 2.986zm-.71-1.307l-1.399-1.805.314-.2 1.085 2.005zm-1.546-1.995l-.786-1.014c.177-.106.349-.221.517-.344l.613 1.132-.344.226zm.524-2.028l.908.895c-.28.28-.582.529-.894.761l-.613-1.132c.208-.162.409-.334.599-.524zm-1.458.823l-2.166-2.794v-1.688c0-.23-.166-.413-.382-.458.157-.172.253-.395.274-.64l2.824 5.215c-.178.131-.361.253-.55.365zm-3.311.91c-.33 0-.656-.027-.979-.076v-3.52l.952-1.228.932 1.202v3.552c-.297.041-.598.07-.905.07zm.905.173v1.288c-.299.033-.6.055-.905.055-.329 0-.655-.03-.979-.069v-1.28c.323.047.649.073.979.073.306 0 .607-.028.905-.067zm-2.124-.302c-.669-.128-1.311-.361-1.911-.692l1.911-2.466v3.158zm1.193-6.272l-.248-.349c.042-.078.107-.131.197-.146l.095.005c.091.019.154.076.192.159l-.236.331zm-.864-.228c0-.109.025-.212.062-.308l.13.007.149.21-.02.1c0 .267.202.479.459.516l.083.116.085-.12c.105-.019.205-.06.282-.138.1-.101.155-.234.155-.378l-.016-.076.14-.197.136-.02c.033.091.058.185.058.287v.048c0 .304-.169.56-.41.71h-.884c-.241-.151-.41-.406-.41-.71v-.047zm.149.999h.196c.154.083.321.142.507.142s.354-.059.507-.142h.198c.131 0 .238.107.238.238v1.378l-.932-1.203-.952 1.228v-1.404c0-.13.107-.237.238-.237zm1.886 2.318l1.959 2.527c-.61.332-1.27.558-1.959.679v-3.206zm-6.989 5.601l4.739-8.751c.027.234.117.446.268.611-.216.046-.381.229-.381.458v1.713l-2.124 2.74-.216-.12-.099-.065-.984 1.454.102.067.113.063-1.418 1.83zm1.538-2.027l.715-1.057.096.052-.789 1.018-.022-.013zm.237.129l.79-1.019c.645.36 1.338.611 2.061.744v1.302c-1.007-.155-1.969-.507-2.851-1.027zm4.974 5.526c0 .131-.107.238-.238.238h-1.408c-.131 0-.238-.107-.238-.238v-4.233c.324.038.649.071.979.071.305 0 .607-.019.905-.052v4.214zm.24-4.492v-1.288c.742-.126 1.452-.371 2.106-.732l.786 1.014c-.887.52-1.864.86-2.892 1.006z"/><path fill="#FFC709" d="M37.309 27.536l2.382 3.073-1.851-3.419c.394-.283.765-.596 1.103-.943l-1.079-1.064c-.232.24-.487.456-.753.659l-3.197-5.904 3.021-.443v-1.682l-3.311-.463h-.43l-2.805.134-1.165.468v1.412l1.15.468 1.856.099-5.783 10.68 2.402-3.099c.942.578 2.005.975 3.148 1.13v4.363c0 .198.16.358.358.358h1.408c.198 0 .358-.16.358-.358v-4.355c1.156-.146 2.234-.535 3.188-1.114zm-3.189-.418v-3.695l2.256 2.911c-.684.391-1.446.658-2.256.784zm-4.336-.816l2.212-2.854v3.659c-.796-.133-1.538-.415-2.212-.805z"/></svg>