<svg xmlns="http://www.w3.org/2000/svg" width="64" height="48"><path fill="#00633A" d="M0 0h64v48h-64z"/><path fill="#FFD500" d="M0 18h64v3.999h-64z"/><path d="M0 22h64v4h-64z"/><path fill="#fff" d="M0 26.001h64v3.999h-64z"/><path fill="#FFD500" d="M26 0h4v48h-4z"/><path d="M30 0h3.999v48h-3.999z"/><path fill="#fff" d="M34 0h4v48h-4z"/><circle fill="#E50040" cx="32" cy="24" r="14.398"/><g fill="#00633A"><path d="M32 10.338l-.439 1.366h-1.447l1.176.851-.451 1.363 1.161-.847 1.161.847-.443-1.376 1.168-.832h-1.443zM23.97 12.948l.447 1.364-1.17.85 1.449-.003.437 1.37.442-1.37 1.438.003-1.168-.854.454-1.36-1.163.848zM19.007 19.778l1.162.84-.447 1.373 1.172-.85 1.158.85-.448-1.369 1.167-.841-1.446-.003-.432-1.367-.444 1.367zM19.007 28.223l1.435-.004.447 1.374.445-1.378 1.437.008-1.167-.844.448-1.37-1.17.85-1.154-.854.445 1.37zM23.97 35.052l1.157-.848 1.17.852-.448-1.378 1.166-.84-1.439.004-.441-1.371-.449 1.378-1.436-.015 1.165.848zM32 37.662l.439-1.366h1.447l-1.176-.852.451-1.362-1.161.847-1.161-.847.443 1.373-1.168.833h1.443zM40.03 35.052l-.447-1.364 1.168-.85-1.449.004-.437-1.371-.439 1.371-1.44-.004 1.169.85-.458 1.364 1.168-.848zM44.991 28.219l-1.161-.84.447-1.374-1.172.854-1.161-.85.448 1.366-1.162.844 1.443.004.432 1.366.444-1.37zM44.991 19.778l-1.434.003-.448-1.374-.443 1.378-1.438-.007 1.164.844-.448 1.366 1.172-.847 1.155.85-.448-1.366zM40.026 12.945l-1.157.847-1.168-.847.45 1.377-1.168.837h1.439l.443 1.366.447-1.374 1.436.011-1.165-.844z"/></g><path d="M29.364 16.965c0 .252 0 .681.62.761.386-.141.252-.995.137-1.229-.27.018-.656.316-.757.468zm.758-.234c-.422.216-.956.62-.905 1.272-.739-.519-.79-2.026.033-2.246.302-.014.922.404.872.974z" fill="#D9D9D9"/><path fill="#8577B6" d="M29.775 18.216c.386.335 1.118.274 1.468.072.638.371 1.323.422 2.214.133.166.05.62.119.786.05.101-.097.201-.166.303-.234-.202-.166-.404-.469-.505-.768l.234-.303c-.166-.169-.501-.436-.667-.537.101-.101.198-.404.198-.404-.336-.098-.671-.335-.805-.469l.036-.202c-.548-.032-.526-.703-1.712-.901-.805-.137-2.009.198-2.077 1.104.447.436 1.128 1.017.735 1.969-.097.133-.289.313-.4.368.07.079.113.09.192.122z"/><path fill="#00633A" d="M33.049 28.085c.289 1.229 1.05 3.53 1.252 4.046.201.512.49 1.565 1.139 1.742.289.158.692.047.513-1.295.202-.047.245-.559.202-.92-.044-.356-.155-1.694-.177-2.769-.026-1.075-2.951-2.747-2.929-.804z"/><path d="M34.906 28.738c-.015.367.343 2.005.379 2.225.032.216.147 1.564.667 1.615m-.032 1.118c-.116.169-.437.198-.635-.202-.202-.404-.624-1.843-.79-2.715-.166-.873-.537-2.467-.685-3.148" fill="none"/><path fill="#00633A" d="M30.32 25.717c-.112.804.09 2.368.472 2.971l1.764.404c.18-.112.382-.383.446-.606.426-.133.762-.469.873-1.117-.516-1.227-2.348-2.86-3.555-1.652z"/><path fill="#8577B6" d="M34.243 18.472c.032.271.201.538.403.707-.133.101-.202.234-.234.335-.739.634-2.448 5.062-2.48 6.032-.119.52-.354 1.342-.556 1.694-1.139-1.023-2.311-2.935-2.116-3.793l-.278-.058c.021-.079.065-.469.076-.703-.065 0-.188 0-.289-.032.022-.148.065-.57.065-.761-.112-.036-.245-.145-.346-.256l.382-.83c-.169-.022-.292-.191-.346-.289.145-.09.332-.35.411-.505-.123-.101-.267-.245-.289-.313.155-.145.613-.646.815-.927l-.271-.033c.169-.068.361-.313.584-.526.386.335 1.118.274 1.468.072.638.371 1.323.422 2.214.133.167.053.621.122.787.053z"/><path fill="#00633A" d="M36.792 30.646c.134-4.73-.671-9.054-1.911-10.63-1.24-1.576-3.52-1.222-4.157.133-.267.57-.307 1.933-.033 2.517.469 1.006 2.279 4.189 3.519 5.397 1.241 1.205 2.113 2.013 2.582 2.583z"/><path fill="#FFD500" d="M34.924 29.517c-.356.044-.782-.047-1.117-.202-.336-.158-.624-.313-.98-.313-.361 0-2.305-.133-2.618-.245-.31-.111-1.183-.271-1.54-.245-.357.021-.918.267-1.142.267-.223 0-.335.181-.335.357 0 .18.045.516.313.692.469-.021 1.141-.065 1.228-.155.649.177 1.521.357 2.059.379.534.025 1.496.068 1.854.047.356-.021.426-.134.895.021s1.096.49 1.384.58c.293.091.473-.201.538-.516.067-.31-.156-.693-.539-.667zm0 1.182c.293.091.473-.201.538-.516.068-.31-.155-.692-.538-.667-.278.055-.642.755 0 1.183z"/><path d="M31.149 28.511c-.383-.313-1.042-.018-1.14.735-.09.692.267 1.187.782 1.161-.111-.378-.024-1.741.358-1.896zm.58 0c-.356-.292-.822-.004-1.027.267-.292.379-.271 1.097-.09 1.453.18.357.714.224.826.044-.065-.358 0-1.541.291-1.764zm.704.274c-.249-.422-.948-.3-1.172.014-.224.314-.271.984 0 1.32.267.335.559.288.804.111-.069-.313.033-1.11.368-1.445zm.415.194c-.245-.426-.711-.241-.895.021-.267.379-.245 1.251.335 1.385.292.068.516-.177.603-.288-.224-.021-.447-.271-.447-.469-.001-.201.021-.606.404-.649z" fill="#D9D9D9"/><path fill="#FFD500" d="M30.857 15.422c-.602 0-.588.905 0 .905.587 0 .606-.905 0-.905z"/><path d="M30.857 15.765c-.151 0-.144.223 0 .223.148 0 .152-.223 0-.223z"/><path fill="#E50040" d="M34.21 28.063c-1.24-1.208-3.05-4.392-3.519-5.397.368 1.406.736 3.652 3.519 5.397z"/><path d="M33.002 15.757c-.288.404-.537.548-.648.595-.065.177-.267.4-.49.491m-.092-.826c.138.065.181-.068.202-.158m-1.139 1.164c.155.043.267-.069.335-.159m1.118-1.028c.065-.043.202 0 .289.022m-1.987 1.98c.252.115.703-.083.873-.22.45.069 1.14-.101 1.341-.386.198-.285.534-.184.805-.602m-1.089 1.442c.284.032.602-.069.735-.234.134-.169.403-.404.786-.368m-4.58 1.305c.202 0 .274.101.408.202.133.101.487 0 .62.151.133.152.285.285.469.249m-2.023.639c.169.032.53-.015.649-.065.166.097.487.184.638.115m-1.352.743c.184 0 .396-.004.544-.105.169.101.538.166.707.083m2.096-1.024c-.271.321-.437.873.184 1.291.386-.147.688-.584.454-1.305m-1.565-.292c-.051.372.271.797.706.732m-1.006.415c.151.62.771 1.305 1.41.45m.162-.083c.068.317.209.707.624.761.588.079.569-1.097.371-1.731m-.696-.223c.293.339.996.458 1.111-.516m-.382 2.077c.469.454 1.76-.198.343-1.86m-2.355 2.314c.418.303.854.52 1.236-.252m-2.293.367c.501.523.905.603 1.309.047m-.504.375c.184.336.436.621.706.754.267.134.451-.051.487-.285.032-.234-.025-.533-.094-.785m.058.753c.271.148.872.198 1.038-.303.303.234.656.418.905.101m.029-2.29c.224.512.671 1.773.649 2.199.357.714.447 1.251.4 1.655.292.422.447 1.229.313 1.608m-6.983-3.842c.123-.021.346-.08.426-.134.079-.058.133-.011.256.054.123.069.313.022.548-.133m-1.006 1.006c.133-.011.447-.111.57-.181m-.368.941c.335-.047.692-.462.984-.335m-.036.991l.761-.371m3.277-2.326c.112.256.198 1.01.155 1.19-.047.18.021.224.202.19.177-.036.411-.201.501-.313m-.537.682c-.123.559-.043 1.096.068 1.309.112.213.569.087.869-.335m-3.104-1.082c-.011.278.245.869.469 1.104s.526.303.66 0c.133-.303.122-.927-.163-1.438m.245.911c.166.101.639.111.895.058m-1.28.671c.271.66.852 1.042 1.479.18m-2.594.133c.249.249.801.321 1.169-.191m-.62-.631c-.058.177-.526.581-1.018.581m.748 1.225c.49.245 1.193.22 1.046-.931m-3.026.773c.246-.181.602-.289.826-.198m2.217-.274c.025.58.379 2.037 1.136 2.708.761.667 1.785 1.562 2.207 2.679m.011-.826c-.047-.941-.92-1.832-1.457-2.301s-1.121-1.543-.829-2.527c.004.425.516 1.074.897 1.409.379.336 1.306 1.32 1.346 1.721m-1.883-3.322c-.047.271.313.75.714 1.042.404.288 1.089.959 1.11 1.363m-3.703 1.518c-.284-.216-.469-.991-.252-1.579m-.516-.588c-.271.454-.228.805-.238 1.042-.014.368.274.635.66.083m-1.233-.292c.068.188.155.541.155.725.166-.083.368-.166.501-.202m-.501.202c.051.102.083.321.083.52m-.84-1.72c-.101.335-.169.808.321 1.104m.321-.506c-.115.151-.271.367-.271.537.018.202 0 .422.083.588m1.028-.649c-.115.234-.177.533-.158.735m-.48-1.958c.032.185.097.411.364.328m-1.72-.043c.021.155.101.311.436.335" fill="none"/><path d="M28.153 28.619c.101-.04.292-.076.375-.094-.04.184 0 .303-.152.317-.149.018-.155-.065-.223-.223zm.785 1.107c.17.036.007.029-.205-.054l-.181.062c.047-.242.011-.325.249-.328.214-.009.113.042.137.32z"/></svg>