<svg xmlns="http://www.w3.org/2000/svg" width="64" height="48" viewBox="-31.5 40.5 64 48" enable-background="new -31.5 40.5 64 48"><path fill="#fff" d="M.484 40.5h31.891v48h-31.891z"/><path fill="#009A4D" d="M-31.375 40.5h31.859v48h-31.859z"/><g fill="#CE1141"><path d="M10.64 70.759c-2.097 3.34-5.827 5.556-10.071 5.556-6.552 0-11.864-5.29-11.864-11.815 0-6.526 5.312-11.815 11.864-11.815 4.246 0 7.975 2.217 10.071 5.555-1.65-1.707-3.967-2.774-6.535-2.774-5.01 0-9.072 4.046-9.072 9.034 0 4.989 4.062 9.034 9.072 9.034 2.568 0 4.882-1.067 6.535-2.775zM7.239 58.975l-2.465 3.424-4.06-1.295 2.532 3.429-2.496 3.413 4.027-1.329 2.501 3.413-.009-4.247 4.031-1.282-4.045-1.292z"/></g></svg>