<svg xmlns="http://www.w3.org/2000/svg" width="64" height="48"><path fill="#E50040" d="M0 36h64v12h-64z"/><path fill="#0072BB" d="M0 24h64v12h-64z"/><path fill="#FFE400" d="M0 0h64v24h-64z"/><g fill="#585232"><path d="M39.973 16.641l-17.061 14.881.196.226 17.075-14.863zM41.063 19.635l-16.135 13.721.193.228 16.147-13.702zM24.006 16.641l17.061 14.881-.197.226-17.074-14.863zM22.916 19.635l16.136 13.721-.193.228-16.147-13.702z"/></g><g fill="#F4F4F4"><path d="M24.928 33.356l-.046.145-.122-.018-.529.662.737-.415.003-.124.15-.022zM22.912 31.522l-.044.147-.123-.016-.52.665.732-.422.001-.124.15-.024zM41.268 19.882l.252-.071.091-.219c.076.101.015.441-.116.544.193.053.519.009.676-.129.157-.137.26-.445.24-.646-.123.112-.471.117-.557.025.109-.058.474-.203.632-.228.057-.258.277-.668.442-.899-.253.128-.693.279-.958.294-.049.152-.254.483-.328.582l-.117-.137-.226-.02-.005.22.124.137-.246.06-.108.239.204.248zm-1.085-2.997c.194-.16.629-.345.786-.371.055-.259.271-.672.433-.905-.252.131-.69.288-.954.306-.048.152-.29.561-.475.727l.21.243zm-.193-.051c.199.232.555.229.737-.078-.152.11-.393.133-.567-.069-.174-.202-.12-.435.009-.57-.328.136-.376.485-.179.717zM39.052 33.356l.046.145.123-.018.527.662-.737-.415-.002-.124-.15-.022zM41.067 31.522l.045.147.121-.016.522.665-.733-.422-.001-.124-.151-.024zM22.712 19.882l-.252-.071-.091-.219c-.077.101-.015.441.117.544-.195.053-.52.009-.677-.129-.157-.137-.259-.445-.24-.646.123.112.47.117.556.025-.109-.058-.473-.203-.63-.228-.057-.258-.278-.668-.444-.899.255.128.694.279.959.294.049.152.254.483.328.582l.118-.137.225-.02.005.22-.122.137.244.06.108.239-.204.248zm1.084-2.997c-.194-.16-.629-.345-.787-.371-.054-.259-.269-.672-.433-.905.253.131.692.288.955.306.047.152.29.561.474.727l-.209.243zm.193-.051c-.198.232-.555.229-.736-.078.153.11.392.133.566-.069.174-.202.121-.435-.009-.57.328.136.377.485.179.717z"/></g><path d="M29.348 31.615c-.04.548-.411 1.82-.606 2.152s-.24.51.719.469c-.198.455-.177.884.03 1.017-.274-.205.083-.487.514-.771.431-.283.42-1.359.42-2.173l-1.077-.694zm5.284 0c.039.548.41 1.82.606 2.152s.239.51-.72.469c.198.455.178.884-.03 1.017.274-.205-.082-.487-.513-.771-.43-.283-.421-1.359-.421-2.173l1.078-.694zm4.813-9.862l-3.269 2.583-.802-3.684 4.207-3.672c.001 1.762.041 3.892-.136 4.773zm-14.911 0l3.269 2.583.802-3.684-4.208-3.672c0 1.762-.039 3.892.137 4.773zm7.456 8.237c-.528 1.155-2.299 2.083-4.383 2.74-.744.234-1.781.099-2.407-.412-2.772-2.253-2.22-8.442-2.22-12.63l9.011 7.663 9.009-7.663c0 4.188.553 10.377-2.22 12.63-.626.511-1.663.646-2.407.412-2.084-.657-3.854-1.584-4.383-2.74z" fill="#FFE85E"/><path d="M30.424 32.309c0 .813.01 1.89-.42 2.173-.431.284-.788.566-.514.771.111.072.274.059.483-.076l.415-.263c.005.386-.228.804.368.874-.447-.044-.352-.279-.019-.495.16-.103.307-.195.4-.286.178-.145.226-.388.196-.849-.029-.459-.127-1.369-.059-1.937l-.85.088zm3.131 0c0 .813-.009 1.89.421 2.173.431.284.787.566.513.771-.11.072-.273.059-.483-.076l-.414-.263c-.005.386.227.804-.368.874.447-.044.352-.279.02-.495-.16-.103-.308-.195-.4-.286-.179-.145-.226-.388-.197-.849.029-.459.126-1.369.058-1.937l.85.088zm4.696-9.756c.195-.803-.116-3.601-.116-4.305l-2.7 2.355.781 3.576 2.035-1.626zm-12.523 0c-.196-.803.117-3.601.117-4.305l2.701 2.355-.782 3.576-2.036-1.626zm8.256 9.209c1.507.509 3.544-.205 3.796-1.126.223-.799.961-.859.883-1.545-.079-.685.255-.821.156-1.742-.086-.802.351-1.135.157-1.857-.196-.725.42-1.254.156-2.212-.215-.783.387-1.133.014-2.013l-3.243 2.757c-.099 1.369-3.043 5.643-3.767 6.229.391.618 1.116 1.116 1.848 1.509zm-3.988 0c-1.507.509-3.544-.205-3.798-1.126-.222-.799-.959-.859-.881-1.545.078-.685-.254-.821-.157-1.742.085-.802-.352-1.135-.156-1.857.195-.725-.42-1.254-.156-2.212.215-.783-.387-1.133-.015-2.013l3.244 2.757c.097 1.369 3.043 5.643 3.766 6.229-.391.618-1.115 1.116-1.847 1.509z" fill="#0072BB"/><path d="M32.704 32.222c.068.567-.029 1.478-.058 1.937-.029.461.018.704.197.849.092.091.24.184.4.286.332.216.428.451-.02.495-.196.02-1.233.151-1.233-.202 0 .354-1.036.222-1.233.202-.447-.044-.352-.279-.019-.495.16-.103.307-.195.4-.286.178-.145.226-.388.196-.849-.029-.459-.127-1.369-.059-1.937h1.429zm4.469-8.729c.196-.804-.118-3.602-.118-4.306l-1.596 1.395.807 3.471.907-.56zm-10.366 0c-.197-.804.117-3.602.117-4.306l1.597 1.395-.807 3.471-.907-.56zm5.97 7.475c1.917.841 3.732-.408 3.851-1.075.104-.6.938-.781.782-1.33-.156-.548.43-.783.274-1.311-.156-.529.47-1.117.292-1.761-.175-.646.354-1.076.118-1.585s.235-.979-.118-1.645l-1.955 1.673c-.079 1.731-2.107 6.021-3.849 6.374.135.218.441.534.605.66zm-1.575 0c-1.918.841-3.733-.408-3.85-1.075-.106-.6-.939-.781-.783-1.33.157-.548-.431-.783-.274-1.311.156-.529-.47-1.117-.293-1.761.175-.646-.352-1.076-.117-1.585.234-.509-.235-.979.117-1.645l1.957 1.673c.078 1.731 2.106 6.021 3.848 6.374-.135.218-.441.534-.605.66z" fill="#E50040"/><g fill="none"><path d="M30.389 34.914c.393-.243.676-.374.808-.197.077.103.04.194-.059.29m-1.678-.771c.196-.004.823-.013.631.166m3.5.512c-.393-.243-.676-.374-.809-.197-.076.103-.039.194.061.29m1.676-.771c-.195-.004-.821-.013-.63.166M31.99 35.586v-3.268"/></g><path fill="#B2D7F3" d="M31.99 29.842c-1.916 0-4.25-1.471-4.25-5.845 0-4.372 2.334-5.844 4.25-5.844 1.915 0 4.249 1.472 4.249 5.844-.001 4.374-2.335 5.845-4.249 5.845z"/><path fill="#fff" d="M36.195 25c.02-.203.031-.417.038-.637-.274-.216-.839-.282-1.484-.223-.646.059-1.565-.665-1.967-1.037l-.136-.039c-.176-.177-.499-.577-.616-.715-.118-.137-.254-.146-.392-.067-.097-.138-.362-.393-.459-.47-.083.053-.421-.039-.753.175-.264-.146-.91-.371-1.243-.469-.342.421-1.056.851-1.35 1.066-.059.434-.091.903-.091 1.412 0 .34.015.66.042.966.186-.089.392-.128.597-.079.207.049.784.059.94.04.157-.02.313.028.45.068.137.039.333.039.48.008.146-.027.529-.083.753-.037.391.077 1.478-.196 1.908-.118.428.08 2.363.156 3.283.156"/><path fill="#E8F4EF" d="M36.195 25c-.077.853-.257 1.571-.507 2.173-.082-.038-.2-.058-.353-.044-.151.016-.21-.043-.151-.093.059-.049.02-.093-.016-.146-.061-.097-.313-.089-.548-.05s-.498-.02-.606-.088c-.106-.069-.391-.05-.527-.011-.19.055-.256-.004-.183-.078.073-.073.139-.098.09-.156-.05-.058-.28-.01-.445.088-.167.099-.753.138-1.106.138-.352 0-.557-.138-.156-.147.401-.009.225-.226.851-.235.391-.005.872-.067.861-.224-.01-.157-1.076-.146-1.399-.157-.322-.009-.856-.044-.889-.23-.035-.186-.294-.19-.358-.362-.028-.078-.107-.15-.297-.213-.193-.065-.243-.144-.207-.165.146-.027.529-.083.753-.037.391.077 1.478-.196 1.908-.118.43.079 2.365.155 3.285.155m-8.413-.037c.142 1.615.643 2.759 1.309 3.531.382-.059.502-.382 1.024-.558.233-.078.094-.176-.073-.182-.166-.004-.195-.014-.361-.142-.167-.127-.588.011-1.087-.078-.173-.031-.186-.176-.079-.235s.636-.098.91-.105c.274-.011.274-.344.656-.362.196-.011.459-.06.411-.168-.049-.107-.578-.058-.822-.038-.246.019-.138-.128-.294-.157-.157-.028-.215-.108-.108-.196.108-.087.421-.087.744-.097.323-.01.46-.079.45-.225l.079-.354c-.104-.285-.47-.498-.773-.605-.137-.04-.293-.088-.45-.068-.157.019-.734.009-.94-.04-.204-.049-.41-.01-.596.079"/><g fill="#B2E0F9"><path d="M29.353 23.367s.016.265-.005.353l-.43.504c.024.014.44-.455.44-.455l.068.249-.264.299-.078.249.381-.475.059.006-.034.386.137-.067-.049-.073.035-.24-.182-.328-.049-.411-.029.003zM29.636 23.25l.177.362-.089.147.568.538-.626-.519.093-.162zM29.524 21.816l.372.328c.01.107.073.225.073.225l.288.211.245.161-.23-.098-.361-.01-.005.137.157.146-.079.127.265.069.009.098.509.656-.312-.294h-.197l-.068-.128-.118-.009-.038.146-.108-.459-.088-.098-.097-.432.077.118.059-.088-.04-.088-.186-.01-.02-.098-.138.107.119-.284-.088-.433zM30.669 23.015l.332.372.187.558.068-.118.147-.019-.362-.441zM30.609 22.164l.295-.177.528.432.01-.137.401.332h.156l.089.157.186.029.068.127.206.812-.059.304v-.274l-.206-.812-.244-.06.009-.126-.078-.098-.176.059-.215-.225-.01.195.137.499-.46-.889-.107.077-.079-.186-.195.45-.05-.009.157-.46-.176-.049zM33.224 23.534l.4.283.411.363.235.068h-.274l-.411-.313v.088l-.176-.136-.069-.158-.109.058zM32.557 23.426l.02-.147.098.088.068-.185-.019.273-.107-.097zM27.822 23.006l.43-.441.059.059.098-.079-.01-.058.293-.186.098-.019.381-.392.039-.196.05.196-.058.069v.41l-.274.656.097.196-.01.44-.029-.235-.225-.313-.558.587.255-.469-.01-.176-.215.117.548-.607-.157.009.166-.185-.107-.009-.489.459-.039-.049-.304.225zM27.91 24.531l.205-.223-.01-.099h.157l-.381.43z"/></g><path d="M31.99 29.842c-1.916 0-4.25-1.471-4.25-5.845 0-4.372 2.334-5.844 4.25-5.844 1.915 0 4.249 1.472 4.249 5.844-.001 4.374-2.335 5.845-4.249 5.845v.615c2.22 0 4.926-1.625 4.926-6.46 0-4.834-2.706-6.46-4.926-6.46s-4.926 1.626-4.926 6.46c0 4.835 2.706 6.46 4.926 6.46v-.615zm0-5.845" fill="none"/><path d="M31.99 29.842c-1.916 0-4.25-1.471-4.25-5.845 0-4.372 2.334-5.844 4.25-5.844 1.915 0 4.249 1.472 4.249 5.844-.001 4.374-2.335 5.845-4.249 5.845v.615c2.22 0 4.926-1.625 4.926-6.46 0-4.834-2.706-6.46-4.926-6.46s-4.926 1.626-4.926 6.46c0 4.835 2.706 6.46 4.926 6.46v-.615zm0-5.845" fill="#D2E3EE"/><path fill="#E50040" d="M41.143 19.878c-.063.023-.313-.088-.371-.249s.005-.332.142-.382.295.04.354.201c.056.161-.061.406-.125.43l-.058-.158c.03-.012.086-.145.056-.224-.027-.079-.106-.124-.173-.099-.067.024-.099.108-.07.188.028.078.157.146.188.135l.057.158zm-.372 3.012c.093.01.116-.105.14-.314l.272-2.523c.022-.21.024-.327-.069-.338-.094-.01-.117.105-.14.315l-.272 2.523c-.022.21-.023.326.069.337zm.125.558c.025-.245-.017-.547-.125-.559s-.213.274-.239.519c-.011.101.353.144.364.04zm-.105-.741c-.167-.019-.2.291-.032.31.166.018.203-.292.032-.31zm-1.013-5.719c-.06.021-.288-.082-.342-.229-.054-.148.004-.306.13-.352.125-.046.271.037.325.186.055.147-.053.374-.113.395l-.054-.146c.029-.011.078-.133.052-.206-.026-.072-.098-.113-.161-.091-.062.022-.089.101-.062.173.026.073.143.135.172.124l.053.146zm-.341 2.774c.085.009.107-.097.129-.29l.251-2.324c.021-.192.021-.301-.065-.31-.085-.01-.106.096-.128.289l-.25 2.324c-.022.194-.023.301.063.311zm.114.514c.024-.226-.015-.504-.114-.515-.101-.012-.197.252-.222.479-.01.092.325.131.336.036zm-.096-.683c-.154-.017-.187.269-.031.285.154.017.187-.269.031-.285zm-16.618.285c.064.023.312-.088.371-.249s-.004-.332-.141-.382c-.138-.05-.295.04-.354.201s.059.406.124.43l.058-.158c-.032-.012-.085-.145-.057-.224.029-.079.107-.124.174-.099.067.024.098.108.07.188-.029.078-.156.146-.188.135l-.057.158zm.371 3.012c-.092.01-.117-.105-.139-.314l-.273-2.523c-.022-.21-.023-.327.07-.338.093-.01.117.105.14.315l.272 2.523c.022.21.023.326-.07.337zm-.124.558c-.026-.245.015-.547.124-.559.109-.012.214.274.24.519.011.101-.353.144-.364.04zm.104-.741c.168-.019.202.291.034.31-.168.018-.203-.292-.034-.31zm1.014-5.719c.058.021.287-.082.342-.229.053-.148-.005-.306-.131-.352-.125-.046-.271.037-.326.186-.053.147.056.374.115.395l.052-.146c-.029-.011-.079-.133-.051-.206.027-.072.098-.113.16-.091.062.022.09.101.064.173-.026.073-.144.135-.173.124l-.052.146zm.342 2.774c-.087.009-.109-.097-.13-.29l-.25-2.324c-.021-.192-.021-.301.064-.31.085-.01.108.096.128.289l.25 2.324c.022.194.023.301-.062.311zm-.114.514c-.025-.226.014-.504.114-.515.099-.012.196.252.22.479.011.092-.325.131-.334.036zm.095-.683c.154-.017.185.269.03.285-.153.017-.187-.269-.03-.285z"/><path fill="#0072BB" d="M41.254 19.834c.02.065-.102.309-.265.36-.162.052-.332-.019-.375-.157-.045-.138.053-.293.215-.345.164-.051.403.077.425.142l-.161.051c-.011-.031-.141-.091-.221-.065-.081.025-.128.102-.106.17s.104.103.185.077.152-.149.143-.182l.16-.051zm.029 3.114c.093-.003.1-.121.093-.331l-.096-2.537c-.008-.21-.024-.327-.119-.323-.093.003-.1.121-.092.331l.096 2.537c.008.211.024.327.118.323zm.203.535c-.01-.246-.095-.539-.203-.535-.109.004-.172.304-.163.549.005.101.37.09.366-.014zm-.211-.719c-.168.007-.157.319.012.312s.16-.318-.012-.312zm-.148-3.086c-.172 0-.172.258 0 .258.173 0 .176-.258 0-.258zm-1.247-2.73c.02.06-.094.283-.243.331-.15.048-.306-.017-.346-.145-.041-.128.048-.27.199-.317.15-.047.372.07.39.131l-.147.047c-.01-.03-.131-.085-.204-.062s-.118.094-.098.157c.021.062.097.094.17.07s.142-.137.132-.166l.147-.046zm.027 2.867c.086-.003.092-.111.085-.305l-.088-2.337c-.009-.193-.021-.301-.108-.298-.086.004-.093.112-.085.306l.088 2.336c.007.194.021.301.108.298zm.187.493c-.008-.226-.086-.495-.187-.492-.102.004-.159.279-.149.505.003.092.34.082.336-.013zm-.195-.662c-.154.006-.143.292.012.287.155-.005.148-.293-.012-.287zm-.136-2.842c-.158 0-.158.237 0 .237.16 0 .163-.237 0-.237zm-17.037 3.03c-.021.065.101.309.265.36s.331-.019.375-.157c.044-.138-.053-.293-.216-.345-.164-.051-.404.077-.424.142l.161.051c.01-.031.141-.091.221-.065s.128.102.106.17-.104.103-.184.077c-.081-.025-.153-.149-.143-.182l-.161-.051zm-.029 3.114c-.094-.003-.101-.121-.093-.331l.096-2.537c.007-.21.024-.327.117-.323.094.003.101.121.093.331l-.095 2.537c-.008.211-.024.327-.118.323zm-.203.535c.009-.246.094-.539.203-.535.109.004.172.304.162.549-.003.101-.37.09-.365-.014zm.21-.719c.168.007.157.319-.012.312s-.159-.318.012-.312zm.148-3.086c.173 0 .173.258 0 .258-.172 0-.175-.258 0-.258zm1.248-2.73c-.02.06.094.283.244.331.149.048.304-.017.345-.145.041-.128-.048-.27-.199-.317-.151-.047-.372.07-.39.131l.148.047c.009-.03.13-.085.204-.062.074.023.118.094.098.157-.02.062-.097.094-.17.07-.074-.023-.141-.137-.132-.166l-.148-.046zm-.027 2.867c-.086-.003-.092-.111-.086-.305l.088-2.337c.007-.193.022-.301.109-.298.086.004.092.112.085.306l-.088 2.336c-.007.194-.022.301-.108.298zm-.187.493c.009-.226.086-.495.187-.492.101.004.159.279.15.505-.004.092-.341.082-.337-.013zm.194-.662c.155.006.144.292-.012.287-.154-.005-.147-.293.012-.287zm.136-2.842c.16 0 .16.237 0 .237-.159 0-.161-.237 0-.237z"/><path fill="#585232" d="M37.469 31.565h-9.666v-.255h9.666c.044.001.042.255 0 .255z"/><path fill="#F4F4F4" d="M27.803 31.311v.255l-.378.51-.376-.553-.451.211-.646-.295.646-.293.451.21c0-.103.127-.21.191-.259 0-.513-.455-.715-.857-.508.069-.382.656-.511 1.048-.511.391 0 .978.129 1.046.511-.4-.207-.856-.005-.856.508.064.024.182.102.182.214zm.041.137c0 .223-.121.311-.421.311s-.422-.088-.422-.311.122-.31.422-.31c.3.001.421.088.421.31z"/><path fill="#585232" d="M28.783 32.477h6.377c.137 0 .254-.578.254-.959 0-.382-.117-.958-.254-.958h-6.379c-.137 0-.255.576-.255.958 0 .38.12.959.257.959z"/><g fill="none"><path d="M28.662 32.273h6.615M28.583 31.971h6.773M28.546 31.669h6.846M28.54 31.367h6.858M28.582 31.063h6.774M28.658 30.762h6.624"/></g><g fill="#DAD000"><path d="M31.32 30.511h.42v2.019h-.42zM28.771 31.518c0-.4.124-1.007.268-1.007h.421l.049.049-.118-.002c-.112.146-.2.627-.2.96 0 .334.087.812.2.96l.118-.001-.049.053h-.421c-.144-.001-.268-.614-.268-1.012zm.648-1.007h.232c.367.568 1.047 1.428 1.669 1.798v.221h-.163c-.772-.4-1.34-1.188-1.795-1.922l.057-.097zm0 2.018h.232c.367-.567 1.047-1.433 1.669-1.804v-.215h-.163c-.772.4-1.34 1.184-1.795 1.917l.057.102zM32.239 30.511h.421v2.019h-.421zM35.208 31.518c0-.4-.123-1.007-.268-1.007h-.422l-.049.049.119-.002c.112.146.198.627.198.96 0 .334-.086.812-.198.96l-.119-.001.049.053h.422c.145-.001.268-.614.268-1.012zm-.648-1.007h-.23c-.368.568-1.048 1.428-1.669 1.798v.221h.162c.772-.4 1.339-1.188 1.794-1.922l-.057-.097zm0 2.018h-.23c-.368-.567-1.048-1.433-1.669-1.804v-.215h.162c.772.4 1.339 1.184 1.794 1.917l-.057.102z"/></g><g fill="#007A4D"><path d="M38.943 21.439c-.038-1.546-.132-3.066-.68-4.535.283 1.575.507 4.166.449 4.733l.231-.198zm-.23.199c-.148-1.985-.409-3.568-.919-4.557.383 1.477.709 3.469.748 4.701l.171-.144zm0 0c-.333-1.81-.84-3.696-1.682-4.87.606 1.369 1.442 3.958 1.442 5.073l.24-.203zm-.171.144c-.273-1.8-1.206-3.89-2.313-5.094.783 1.155 1.954 3.804 2.141 5.242l.172-.148zm-.534.455c-.371-.92-1.408-2.633-2.229-3.376 1.233.979 2.079 2.335 2.373 3.255l-.144.121zm.143-.121c-.489-1.175-1.434-2.805-2.334-3.705 1.214 1.057 2.074 2.405 2.504 3.56l-.17.145zm.107-.092c-.489-1.311-1.56-3.28-2.322-4.103 1.271 1.135 2.034 2.599 2.503 3.949l-.181.154zm.063-.053c-.803-2.289-1.819-4.089-2.504-4.852 1.272.9 2.393 3.744 2.656 4.722l-.152.13zm-12.377-1.663c.055-.413-.068-.683-.517-1.02.324-.091.675.18.587.803m.429.714c.381-.257.527-.571.74-.836.212-.264.419-.498.969-.52-.253.407-.431.695-.92.898-.309.129-.753.502-.905.631l.116-.173zm-.631.772c.611-.464.821-.59.961-.806.14-.215.378-.434.973-.49-.287.53-.753.738-1.076.84-.323.101-.689.395-.878.686m.495-.982c.399-.653.969-.441 1.25.124-.349-.024-.605-.632-1.25-.124zm-.443.008c-.009-.67.283-1.477.493-1.83.169-.282.229-.364.214-.551-.043-.565.312-1.026.385-1.529.114.577.058 1.137-.267 1.593.662-.903 1.233-.682 1.483-.961-.139.906-1.19.528-1.572 1.189-.314.544-.682 1.361-.683 2.575-.042-.092-.076-.365-.053-.486zm.67-.847c.378-.739.998-1.214 1.32-1.463.323-.249.532-.464.667-.718.135-.255.421-.636.688-.701-.088.229-.319.505-.541.691-.223.188-.364.541-.863.882-.464.317-.834.72-1.146 1.283l-.125.026zm1.877-1.959c.017-.328.061-.601.274-.934-.006.257-.122.667-.199.825.335-.231.804-.341 1.135-.227-.374.167-1.036.154-1.223.386m-2.511 2.852c.142-.729.502-1.15.673-1.429.172-.279.711-.684 1.327-.576-.315.307-1.299.562-1.62 1.206-.32.644-.312.869-.393 1.234l.013-.435zm.071-1.815c-.033-.479-.197-1.218-.679-1.433.014.414.178 1.074.679 1.433zm.051.852c-.024-.49-.153-.738-.208-.989-.191-.863.174-1.246.044-1.564.431.507.42 1.268.323 1.664-.096.397-.106.468-.09.673"/><path d="M26.638 18.51c.166-.247.381-.571.48-.791.1-.221.468-.811 1.132-.937-.461.71-1.137 1.282-1.361 1.528-.224.246-.336.448-.251.2zm-.802 3.104c.335-.698.133-1.532 1.109-2.046-.282.554.313.586-1.109 2.046zm-.062.452c.442-.472 1.026-.174 1.466-.585.211-.199.202-.194-.11-.243-.444-.068-.951.202-1.314.595.22-.581.031-1.435-.259-1.92-.226-.38-.212-.348-.293.019-.081.366.014.945.196 1.208.174.251.243.526.216.841l.098.085z"/></g><path d="M26.431 19.438c-.048.062-.138.041-.147-.042-.012-.084.069-.127.131-.079-.062-.048-.041-.137.042-.147s.126.069.079.132c.047-.062.136-.042.147.042.011.084-.069.127-.132.079.062.048.042.137-.043.146-.082.011-.125-.069-.077-.131zm.153-.494c-.048.062-.137.041-.147-.043-.011-.083.07-.127.132-.078-.062-.049-.041-.137.042-.147.084-.011.127.068.08.132.048-.063.135-.042.147.042.01.084-.07.127-.131.079.062.048.041.137-.043.147s-.128-.069-.08-.132zm-.364.008c-.049.062-.137.041-.147-.043s.069-.127.132-.079c-.062-.048-.042-.136.042-.147.083-.011.127.07.078.132.049-.062.137-.041.147.043.011.084-.068.127-.132.078.063.049.042.137-.042.148-.083.011-.127-.07-.078-.132zm.772-.357c-.047.063-.136.042-.147-.042-.01-.084.07-.127.132-.079-.062-.048-.041-.137.043-.146.083-.011.126.068.079.132.047-.063.136-.042.147.042.011.083-.069.127-.132.079.062.048.041.136-.042.146-.085.011-.127-.069-.08-.132zm1.417-.489c-.047.062-.136.041-.147-.043-.01-.084.07-.126.132-.078-.062-.048-.041-.138.042-.147.083-.011.126.069.079.131.047-.062.137-.04.147.044.01.083-.07.126-.132.078.062.048.041.136-.043.146s-.126-.069-.078-.131zm-.508.115c-.048.063-.137.042-.147-.042s.069-.127.131-.079c-.062-.048-.042-.136.043-.147.083-.011.126.07.078.132.048-.062.136-.041.147.043.012.084-.07.126-.132.079.062.047.042.136-.042.146-.083.01-.126-.069-.078-.132zm-.127.619c-.048.062-.137.04-.148-.043-.011-.084.069-.127.132-.079-.063-.048-.042-.136.042-.146.084-.011.128.068.08.132.048-.063.136-.042.147.042.01.084-.069.126-.131.079.062.047.041.137-.042.146-.084.01-.128-.07-.08-.131zm-.803 1.188c-.048.062-.137.042-.147-.042-.011-.084.069-.127.132-.079-.062-.048-.041-.137.042-.147s.126.069.079.132c.048-.062.137-.041.147.043.011.083-.069.127-.132.078.062.049.041.137-.042.147-.084.011-.127-.069-.079-.132zm1.118-.805c-.047.062-.136.042-.146-.043-.011-.083.069-.126.131-.078-.062-.048-.041-.137.042-.147.083-.011.127.069.079.132.049-.062.137-.041.148.042.011.084-.07.127-.131.08.061.047.041.136-.043.146-.084.01-.127-.07-.08-.132zm-.702.585c-.048.062-.137.04-.147-.043-.011-.084.069-.127.131-.078-.062-.049-.041-.137.043-.147.083-.012.126.068.078.131.048-.062.137-.041.148.042.011.084-.07.128-.131.079.061.049.04.137-.043.147-.085.011-.128-.069-.079-.131zm-1.077 1.509c-.048.062-.137.042-.147-.042-.012-.084.069-.127.131-.079-.062-.048-.041-.137.042-.147.084-.011.127.069.079.132.048-.062.137-.041.147.043.011.083-.07.127-.132.079.062.048.042.136-.043.146-.084.011-.126-.069-.077-.132zm.47-.169c-.047.062-.136.041-.147-.043-.01-.083.07-.126.131-.078-.062-.048-.041-.137.043-.147s.126.069.079.132c.048-.062.137-.041.147.042.01.084-.069.126-.132.079.062.047.041.137-.042.147-.083.011-.126-.07-.079-.132zm.522-1.685c-.048.062-.136.041-.147-.043-.011-.083.069-.127.132-.078-.062-.049-.041-.137.042-.147.084-.011.126.069.079.132.048-.062.137-.042.147.042.012.085-.07.127-.131.079.062.048.041.137-.042.147-.085.011-.128-.07-.08-.132z" fill="#FFE85E"/><g fill="#E50040"><circle cx="26.483" cy="19.369" r=".067"/><circle cx="26.636" cy="18.876" r=".067"/><circle cx="26.273" cy="18.883" r=".066"/><circle cx="27.045" cy="18.527" r=".066"/><circle cx="28.462" cy="18.038" r=".067"/><circle cx="27.954" cy="18.153" r=".067"/><circle cx="27.827" cy="18.771" r=".067"/><circle cx="27.024" cy="19.96" r=".067"/><circle cx="28.143" cy="19.154" r=".067"/><circle cx="27.439" cy="19.739" r=".066"/><circle cx="26.362" cy="21.249" r=".067"/><circle cx="26.833" cy="21.08" r=".066"/><circle cx="27.355" cy="19.395" r=".067"/></g><path d="M31.99 17.45c.592 0 1.045.101 1.405.219.154.051.458.137.405.239-.089-.034-.23.02-.298.202-.068.184-.067.328.024.37-.024.054-.068.092-.299-.005-.318-.132-.886-.22-1.238-.22-.353 0-.92.088-1.238.22-.231.097-.273.059-.297.005.09-.042.092-.187.024-.37s-.21-.236-.299-.202c-.05-.103.25-.188.407-.239.359-.118.812-.219 1.404-.219zm0 13.774c.264-.403.661-.635 1.037-.763.162-.054.197-.107.178-.166-.084.021-.207-.06-.255-.271-.036-.151 0-.306.117-.338-.015-.061-.034-.103-.147-.067-.24.078-.584.136-.929.136s-.69-.058-.93-.136c-.112-.035-.132.007-.146.067.117.032.152.187.117.338-.048.211-.171.291-.254.271-.02.059.015.112.176.166.375.128.771.359 1.036.763z" fill="#D2E3EE"/><path fill="#585232" d="M21.873 13.984c1.291-.28.88-.41 2.093-.625 1.214-.216 2.075-.627 2.623-.783.548-.156 1.506-.47 1.937-.393.431.079 1.333-.09 1.673.138.176.118.167.304.157.411-.01.107.058.137.176.137.244 0 .252.351.499.332.138-.009.166.069.176.196.431-.41 1.135-.401 2.153.06.206-.147.539-.285.831-.157.079-.099.294-.137.412-.107.117.029.223-.049.176-.205-.146-.49.42-.695.772-.567.353.126.598.117 1.077.126.479.011.754.067 1.223.196.891.245 1.297.694 2.24.997 1.399.451 2.074.843 2.554.949.479.108.333.382-.166.206.039.059-.382.176-.812 0 .421.274-.372.234-.694.118.146.097-.529.146-1.106-.118.205.146-.156.343-.655.039.089.079-.194.235-.421.039.098.107-.107.205-.244.118.128.107.293.264.215.312s-.479-.088-.802-.333c.078.099-.156.156-.361-.039.068.108-.265.049-.431-.107.02.117-.167.167-.343.029.079.138-.078.362-.264.245.049.137-.216.205-.362.107.107.107-.146.254-.393.068.088.089-.127.431-.38.265.165.098-.099.322-.324.166.147.098-.177.265-.41.098.146.107-.187.225-.411.02.088.068-.049.177-.138.107l.764 1.018c.117.147.128.187-.028.333-.097.09-.581.462-.845.639l-.232-.108c.086-.132-.582-.325-1.074-.403l.037-.998c-.111-.156-.171-.205-.214-.024l-.201.377s-.063.293-.279.342c-.214.05-.244-.156-.235-.596-.034.103-.215-.099-.196-.344-.02.108-.303-.068-.284-.548-.079.235-.264.393-.332-.068-.196.245-.392.353-.489-.009-.157.166-.354.176-.411-.089-.196.147-.362.206-.401-.078-.147.146-.401.226-.5-.068-.196.205-.567.024-.528-.215-.146.127-.465.005-.411-.245-.126.098-.328.005-.253-.176-.245.156-.402.137-.412-.117-.381.196-.802.264-.88.166-.196.127-.597.283-.694.254-.098-.029.068-.244.254-.42-.118.028-.284-.03-.303-.118-.167.088-.549.216-.578.156-.029-.059.04-.176.304-.312-.254.146-.607.177-.666.128-.059-.05.079-.147.245-.245-.733.304-.89.146-.627 0-.577.264-.831.186-.616-.02-.303.107-.88.127-1.115.098s-.381-.107-.127-.255c-.146.04-.763.029-.89.029s-.278-.08-.053-.129z"/><path fill="#fff" d="M31.344 13.897c-.063-.064-.019-.196.103-.235-.024-.059.073-.182.142-.171.014-.104.142-.152.205-.104.039-.063.191-.093.24-.005.089-.059.215-.063.254.049.088-.005.206.049.21.137.098.016.201.107.171.221.098.039.108.225.045.303.068.089-.02.284-.123.323 0 .117-.073.221-.176.21-.02.113-.21.191-.303.133-.104.068-.313.029-.323-.069-.098.03-.24-.029-.226-.126-.087-.006-.18-.113-.171-.206-.098-.073-.122-.205-.068-.254-.059-.04-.038-.137.02-.206z"/><path fill="#FFECC6" d="M29.656 14.2c-.054-.265.073-.377.352-.401.107-.166.254-.248.358-.225.156.033.271-.055.483.067.128.074.357.167.72.167s.734 0 .734.294c0 .215-.264.205-.509.205s-.45 0-.582-.063c-.131-.063-.308-.089-.46-.024-.151.063-.558.088-.729-.128-.259-.01-.317-.014-.367.108zm2.27 2.783c-.095.21-.339.51-.592.47-.303-.049-.396.093-.367.205.03.113.245.128.382.069-.162.151-.137.244-.074.308.064.063.226.059.266-.093.038-.151.185-.309.302-.328.118-.019.191.059.182.182-.01.122.122.176.21.146.087-.029.167-.259-.021-.333-.161-.063-.248-.142-.206-.312l.083-.372c.035-.137-.072-.147-.165.058zm1.16-.102c-.005.186.007.492-.176.543-.269.073-.206.137-.367.205-.128.055-.103.229-.054.255.049.024.176.059.23-.104.024-.072.079-.132.151-.161.074-.029.087.029.087.073 0 .045-.004.152-.043.2-.039.05.029.152.122.167.093.015.123-.057.143-.122.039-.127-.04-.187-.02-.26.02-.073.081-.051.112.021l.176.194c.04.099.133.113.195.064.063-.049.118-.206-.103-.288-.221-.084-.293-.152-.298-.343-.005-.176-.078-.201-.083-.304s-.068-.311-.072-.14z"/><path d="M30.889 17.845c-.054-.127.042-.252.127-.255.052-.001.086.042.059.108-.02.047-.147.004-.186.147zm.408.369c-.1-.096-.063-.248.014-.284.047-.022.095.004.098.074 0 .052-.134.064-.112.21zm.868-.104c.127-.053.145-.209.086-.271-.037-.037-.091-.03-.118.036-.019.048.103.107.032.235zm.32-.035c-.107-.089-.08-.243-.006-.285.046-.024.095-.002.102.068.005.051-.128.073-.096.217zm1.088.075c.128-.054.146-.211.087-.271-.036-.037-.091-.03-.117.036-.02.047.101.106.03.235zm-.543.079c-.091-.101-.115-.213-.055-.273.037-.038.098-.033.117.035.022.079-.069.039-.062.238z"/><path d="M22.812 14.082c.333-.059 1.113-.271 1.448-.449.587-.313 1.351-.01 2.133-.549.469-.322 1.076-.186 1.546-.361.469-.177.89-.039 1.154-.157.265-.117.395-.177.412.029.029.372.743.783 1.252.822m-6.702.822c.206-.059.842-.392 1.115-.655m-.5.675c.323-.156.892-.411 1.371-.764m-.744.764c.293-.127.822-.372 1.154-.606m-.733.723c.244-.098.675-.323.9-.46m-.625.616c.264-.098.655-.312.909-.499m-.607.617c.118-.128.685-.489.979-.655m-.539.821c.255-.147.528-.343.813-.538m.068.372c.196-.108.461-.353.578-.47m-.166.588c.166-.089.42-.333.636-.606m-.383.781c.103-.068.298-.269.456-.45m-.045.695c.113-.084.206-.221.299-.357m.23.572c.098-.073.259-.294.436-.519m.063.588c.107-.088.308-.381.392-.523m.909.698c.068-.082.15-.205.19-.283m.143.352l.035-.288m-.857.211l.171-.235m-.582.146l.136-.166m1.38.88l.01-.28m.186.623l.031-.313m.898.215c.06.093.108.225.171.27l.147.298m.133.087c.024.06.073 0 .078-.127.006-.127.128-.248.034-.436l.005-.327s.01-.274-.054-.387m.866.142c-.077-.039-.312-.19-.431-.313m.568.206l-.186-.156m.597.136c-.112-.059-.309-.195-.386-.278m.797.181c-.126-.063-.327-.176-.41-.239m1.114-.192l-.386-.25m.006.515c-.114-.06-.314-.191-.411-.27m1.183-.063c-.172-.094-.353-.211-.455-.299m.818.191c-.083-.039-.246-.147-.349-.226m.612-.019l-.299-.225m.642.196c-.011-.156-.216-.367-.339-.489m.77.596c-.158-.142-.377-.396-.514-.602m.875.641c-.122-.088-.494-.514-.598-.704m1.185.725l-.837-.71m1.081.592c-.167-.107-.63-.514-.949-.729m1.37.69c-.211-.107-.915-.602-1.316-.935m1.971.896c-.283-.107-1.35-.655-1.691-.979m2.798 1.097c-.87-.255-1.839-.852-2.309-1.204m3.003 1.086c-.293-.088-1.34-.528-1.702-.783m2.515.783c-.578-.156-1.077-.479-1.84-.616s-1.253-.235-1.741-.548c-.489-.313-.979-.235-1.252-.47-.274-.234-.538-.273-.812-.234-.273.039-1.028.127-1.204-.226-.067.567-.46.44-.587.626-.126.186-.383.234-.558.177-.381-.128-.607.146-.86.02" fill="none"/><path d="M30.523 13.786l-.104.059c-.031.057-.116.049-.15.006l-.065-.056c.126-.12.218.01.319-.009z"/><path d="M30.008 13.799l.182.029m-.502.314c.024-.043.053-.108.346-.104" fill="none"/><path fill="#9B6527" d="M33.516 28.075l.064-1.391.005 1.281zM34.079 27.964l.381-.599-.365.638"/><path fill="none" d="M32.103 28.044l.405-1.203.474 1.219M33.184 28.04l.385-.852.323.743M33.569 27.138l.358.506"/><path fill="#9B6527" d="M30.815 28.006c.26.062.577.233.695.615.201-.059.47.142.651.034.18-.107.323.064.459.006l.513.005c.123-.068.519-.079.627.004.196-.122.439-.514.321-.749-.013-.028-.013-.067-.423-.067l-.144.222h-1.149v.12h-.724c-.327-.001-.458-.156-.826-.19zm2.619.069c0-.176-.143-.315-.319-.315-.174 0-.317.14-.317.315h.636zM32.106 28.195l-.028-1.007h-.177l-.028 1.007zM32.484 28.075l.024-1.883.028 1.883z"/><path d="M32.509 26.349c.032 0 .074-.018.096-.087.013-.04.096-.04.128-.017.032.021.095-.01.112-.058 0 .163-.119.201-.336.201-.218 0-.336-.038-.336-.201.017.048.081.078.113.058.031-.023.114-.023.127.017.022.069.064.087.096.087zm-.12.123c-.128.07-.116.201.006.324.174.174.243.209.064.388-.081.08-.165.168-.069.264.096.095.257.257.147.368.144-.029.022-.289-.043-.356-.066-.065-.092-.107.004-.203.187-.187.241-.251-.032-.522-.055-.058-.092-.143-.041-.155.051-.012.085-.046.066-.09l-.102-.018zm.239 0c.127.07.116.201-.006.324-.175.174-.243.209-.065.388.081.08.165.168.069.264-.095.095-.257.257-.147.368-.145-.029-.022-.289.044-.356.066-.065.09-.107-.005-.203-.188-.187-.241-.251.031-.522.056-.058.093-.143.042-.155-.051-.012-.085-.046-.066-.09l.103-.018zm-.12-.292c-.101 0-.097.046 0 .046.098 0 .101-.046 0-.046z"/><path fill="#9B6527" d="M33.937 27.866l-.004-1.183-.056 1.177.06.006zM33.924 26.823l-.342.281v.028z"/><path d="M32.367 28.195h1.173s.564.006.57-.086" fill="none"/><path fill="#9B6527" d="M33.516 28.075h.527l.07-.028"/><path d="M31.334 28.309c.064.078.138.093.213.098.517.035 1.695.039 2.038.02.342-.02.425-.039.455-.098" fill="none"/><path fill="#FFE85E" d="M34.489 28.101l.236-.388-.265-.348-.234.386z"/><path fill="#E50040" d="M34.489 28.101l-.263-.35.058-.097.265.35z"/><path fill="#0072BB" d="M34.549 28.004l-.265-.35.06-.096.262.348z"/><path fill="#B2E0F9" d="M31.99 20.364c1.456 0 2.861.477 3.899 1.022-.089-.289-.232-.678-.34-.876-.949-.499-2.229-.891-3.559-.891-1.331 0-2.61.392-3.56.891-.107.198-.251.587-.339.876 1.038-.545 2.443-1.022 3.899-1.022z"/><g fill="none"><path d="M28.854 20.454c.134-.025.195-.015.22.066l.064.274m-.065-.273c-.016-.053-.004-.135.078-.178m.848-.24c-.089.022-.124.089-.073.199.047.101.081.131.146.119.055-.012.082-.085.075-.175-.009-.135-.058-.167-.148-.143zm-.153-.003c.063.056.253.009.299-.062m-.2.444c.029-.047.168-.096.246-.054m3.648.029c.053.005.137-.03.181-.161.04-.12.021-.191-.028-.24m.237.506c-.044-.033-.084-.114-.027-.241.052-.115.112-.155.183-.158m-.399.103l.254.063m.968.182c-.043-.122-.239-.166-.298-.103s.034.171.132.19c.099.021.269.117.225.205-.043.089-.332.054-.43-.117M35.072 20.408l.01.431"/></g><path fill="#FFE85E" d="M32.009 21.591l-.156-.738-.415.626.136-.745-.628.418.411-.634-.737.143.626-.422-.738-.149.738-.155-.626-.416.742.137-.416-.629.634.411-.142-.737.42.626.151-.738.155.738.417-.626-.139.744.629-.418-.412.635.738-.143-.626.421.74.15-.74.155.626.416-.743-.138.417.629-.635-.411.145.738-.423-.626z"/><g fill="#FFE85E"><circle cx="32.009" cy="20.09" r=".796"/><path d="M32.009 20.09"/></g><path d="M31.867 20.447c.043-.023.113-.036.142.001.03-.037.1-.024.142-.001l.133.026-.142.016-.134.014-.133-.014-.142-.016.134-.026zm.142.125l.113-.02.026-.006c.001.021-.035.069-.139.069-.103 0-.139-.048-.137-.069l.026.006.111.02zm0-.254l.05-.024.055-.01.042-.025-.027-.072.016.067-.046.017-.054.019-.036.014-.034-.014-.054-.019-.046-.017.017-.067-.027.072.042.025.055.01.047.024zm-.509-.38c.07-.038.139-.061.25-.055l.189.048-.009.02-.16-.03c-.059-.017-.168-.019-.264.022l-.006-.005zm.354.005c-.012.05-.07.104-.124.104-.083 0-.153-.055-.154-.123.01.063.069.108.153.108.054.001.104-.038.125-.089zm-.194.001l.076.06.094-.072-.117-.023-.053.035zm.296-.114c-.114-.066-.277-.089-.391-.066l-.035.041h.078c.099-.015.241-.002.301.037l.047.016v-.028zm.569.108c-.07-.038-.138-.061-.25-.055l-.19.048.009.02.16-.03c.059-.017.168-.019.264.022l.007-.005zm-.353.005c.012.05.069.104.123.104.084 0 .152-.055.155-.123-.01.063-.07.108-.153.108-.055.001-.105-.038-.125-.089zm.082-.017l.075.06c.03 0 .092-.014.105-.088l-.128-.008-.052.036zm-.184-.096c.114-.066.276-.089.39-.066l.035.041h-.077c-.099-.015-.241-.002-.302.037l-.046.016v-.028z"/></svg>