<svg xmlns="http://www.w3.org/2000/svg" width="64" height="48"><path d="M0 32h64v16h-64z"/><path fill="#fff" d="M0 16h64v16h-64z"/><path fill="#E30613" d="M0 0h64v16h-64z"/><g stroke="#000" stroke-width=".142" stroke-miterlimit="10"><path fill="#fff" d="M32.016 24.522c2.083-.607 1.775-2.806 1.806-3.364l-1.806-.492-1.807.492c.034.558-.277 2.757 1.807 3.364z"/><path fill="#FDC300" d="M30.972 27.255l-.352.287-.197-.378-.378.214-.016-.443-.411.147s.689-2.888.755-3.068c.066-.181-.18-.131-.18-.131l-2.544 1.756.673-5.76s-.025-.325.197-.427c.394-.181 2.084.886 2.084.886.196.115.468.017.648-.345.163-.115.172-.509.139-.902-.031-.382-.558-.607-.656-.689s-.114-.065-.312.033c.18-.405.184-.563.771-.312.229.099.262.016.328 0-.082-.065.147-.279.295-.312.148-.033.771.23.87.607s-.033 1.198.147 1.559.444.459.639.344c0 0 1.609-1.05 2.068-.87.205.081.213.41.213.41l.674 5.76-2.543-1.756s-.248-.049-.182.131l.754 3.068-.408-.147-.018.443-.377-.213-.197.377-.334-.272M33.016 27.164l-.181.328-.443-.279-.36.476-.345-.46-.443.28-.181-.328"/><path fill="none" d="M30.669 18.369l.763.221M31.523 18.205s.131-.197.213-.181l.394.263c-.164 0-.607-.082-.607-.082zm.131-.164l4.131 2.292c-.094-.34-.586-.459-.857-.089-.273.37-1.016 1.056-1.619.924-.603-.131-1.292-.184-1.292-.184s-.69.027-1.298.142c-.606.115-1.329-.591-1.591-.968-.263-.377-.738-.246-.854.066"/><path fill="#fff" d="M32 24.687c2.084-.607 1.774-2.806 1.807-3.364l-1.807-.493-1.806.493c.032.557-.278 2.756 1.806 3.364z"/><path d="M32.638 21v3.392c1.358-.831 1.124-2.588 1.153-3.078l-1.153-.314z"/><path fill="#FDC300" d="M32.392 27.213l-.392-2.356-.313 2.372"/><path fill="none" d="M33.016 27.279l-1.017-2.396-.952 2.413M29.676 26.951l.328-.394.247.247.394-.608.263.213.344-.623.279.263M29.849 26.147l.328-.394.246.246.394-.606.263.212.344-.624.28.263M30.038 25.326l.328-.393.246.246.394-.608.262.214.115-.209M34.361 26.935l-.328-.394-.246.246-.394-.607-.262.214-.344-.624-.28.262M34.189 26.131l-.328-.395-.246.246-.394-.606-.263.213-.344-.623-.279.263M34 25.311l-.328-.395-.246.246-.393-.607-.263.214-.115-.209"/><path fill="#fff" d="M33.979 21.199l-.129-.035-1.806-.492-.044-.012-.043.012-.438.12v-.006l-.207.057-1.151.313-.129.035v.006l-.009.002.008.133.001.255c-.008.726-.021 2.328 1.412 3.052l.075.046v-.009c.135.062.276.121.436.167l.045.014.046-.014c1.955-.569 1.933-2.452 1.923-3.256l.002-.255.008-.133zm-2.789 2.87c-.838-.708-.828-1.892-.821-2.487l.001-.138.82-.224v2.849zm.81.444c-.179-.056-.339-.124-.481-.203v-3.179l.481-.131 1.641.447v.144c.007.784.023 2.406-1.641 2.922z"/><path fill="none" d="M32.893 20.157l-.378-.115-.098.23-.263-.098-.143.279-.143-.279-.263.098-.099-.23-.378.115M31.605 20.272s.181-.771.147-.935m.665.935s-.181-.771-.148-.935M31.999 20.371v-1.051"/><g fill="none"><path d="M29.84 20.929l.026 3.167M29.521 20.649l-.132 3.759M29.225 20.289l-.32 4.463M28.84 20.01l-.542 5.119"/></g><g fill="none"><path d="M34.223 20.912l-.034 3.085M34.533 20.699l.133 3.627M34.846 20.338l.312 4.398M35.223 19.993l.543 5.12"/></g><path fill="#FDC300" d="M31.991 30.053c1.576 0 3.437-.345 5.111-.887l.641-1.428-1.297-.476c-.426.246-3.552.722-4.455.722s-4.029-.476-4.456-.722l-1.296.476.64 1.428c1.674.542 3.537.887 5.112.887z"/><path d="M27.535 28.543c.263-.296.492-.263.689-.099.197.164.23.591.525.656l1.378.197s.23-.033.296.099m-1.181-1.28c-.229 0-.164.229-.033.263-.262.065-.492.328-.131.394l.328.032" fill="none"/><circle cx="29.931" cy="28.806" r=".093"/><circle cx="36.494" cy="28.734" r=".093"/><circle cx="35.445" cy="28.438" r=".093"/><circle cx="33.049" cy="28.964" r=".093"/><path d="M27.043 28.346c.098.263.131.525.328.492"/><path d="M30.621 29.035c0-.132.229-.492.36-.394.132.098.164.163.132.36-.033.197.394.492.427.328.032-.164-.033-.525.099-.492.131.033 1.115-.033 1.115-.033s.262-.163.229-.295m-.492.625v.196l.919-.032s-.033-.395.033-.493c.064-.098.426 0 .426.132.033-.197.295-.361.361-.197l.066.427c.098-.263.557-.394.852-.394.297 0 .625-.164.625-.164s.098-.164.064-.263m.329-.23c-.064-.164.197-.492.328-.361.133.132.23.263.133.394-.1.132-.23.165-.361.296s-.131.36 0 .427c.131.065-.066.131-.066.131" fill="none"/></g></svg>