<svg xmlns="http://www.w3.org/2000/svg" width="64" height="48"><path fill="#13110C" d="M0 0h64v16h-64z"/><path fill="#077C35" d="M0 32h64v16h-64z"/><path fill="#fff" d="M0 16h64v16h-64z"/><path fill="#CA1517" d="M0 0l32 24.058-32 23.942v-48zm39.438 24c0-3.107 2.22-5.694 5.161-6.263-.395-.076-.801-.118-1.22-.118-3.523 0-6.379 2.857-6.379 6.381s2.856 6.38 6.38 6.38c.419 0 .825-.04 1.22-.116-2.942-.571-5.162-3.157-5.162-6.264zm3.595 3.875l2.73-1.951 2.707 1.981-1.013-3.199 2.721-1.963-3.354-.026-1.027-3.193-1.061 3.182-3.355-.01 2.699 1.992-1.047 3.187z"/></svg>