<svg xmlns="http://www.w3.org/2000/svg" width="64" height="48"><path fill="#E73137" d="M0 0h63.998v48h-63.998z"/><path fill="#5291CE" d="M0 48h63.998v-24z"/><path fill="#31AA47" d="M0 0h63.998v24z"/><path fill="#FBBA07" d="M19.069 33.099c.082-.998-.012-2.568-.273-3.696.633-.198 1.097-.781 1.414-1.231 1.945.787 3.275-.457 3.59-1.53-.329.301-.93.615-1.488.729-.143.029-.2-.039-.043-.129.858-.486 1.331-1.229 1.402-1.974-.458.415-.758.415-1.116.415-.172 0-.844.015-1.101.472-.117.208-.272.058-.229-.057s.072-.258.072-.43c0-.171-.058-.386.615-.858.11-.077.1-.143-.028-.114-1.631.362-2.146 1.717-1.759 2.789-.39.883-1.093 1.156-1.492 1.348l-.01-.027c-.45-1.224-.836-2.832-.715-3.923.019-.171 0-.443.3-.473.401-.038.758-.214 1.058-.485.3-.272.696-.192.973-.043.901.485 2.117-.2 2.385-.729.148-.293.008-.256-.129-.15-.365.278-.794.321-1.309.129-.178-.067-.172-.205.053-.193.826.043 1.438-.654 1.77-1.212.064-.107.047-.176-.075-.107-.494.279-.708.214-1.008.107-.301-.107-.58-.161-.987.14-.191.141-.193-.043-.021-.171.172-.129.118-.322.569-.569.096-.052.172-.142.032-.15-1.255-.075-1.534.547-1.888 1.502-.354.954-.493 1.019-1.298 1.362-.297.127-.234-.063-.161-.204.525-1.009 1.04-1.792 1.383-3.132.038-.149.086-.311.129-.354.333-.333.805-.536.869-.611.064-.075.126-.102.268-.054.89.3 1.92-.011 2.263-.751.083-.179.043-.236-.043-.182-.398.249-.719.257-.987.257s-.267-.135-.011-.183c.461-.085 1.008-.654 1.105-1.158.041-.215-.064-.215-.204-.075-.14.14-.375.183-.644.161-.642-.052-.74.182-.879.418-.14.236-.15.075-.15-.011 0-.085-.043-.214.075-.322.118-.107.107-.3.472-.515.178-.105.182-.183.007-.208-.808-.115-1.331.658-1.359 1.316-.029.658-.057.858-.529 1.287-.153.139-.246.138-.2-.028.343-1.245.3-1.992-.183-3.075-.055-.123-.085-.204-.018-.3.435-.618.128-1.745-.433-2.264-.178-.165-.215-.096-.172 0 .12.27-.075.633.043 1.116.014.056-.086.333-.171.064-.133-.414-.74-.579-.837-1.041-.024-.116-.063-.149-.128-.086-.397.386-.269 1.073.247 1.534.158.142.054.161-.097.107-.15-.054-.375-.183-.654-.472-.084-.087-.195-.109-.172.054.129.912 1.094 1.458 1.781 1.362.188-.027.214-.049.279.082.547 1.108.129 2.803-.372 4.605-.089.32-.186.186-.329.114-.39-.195-.887-.744-1.03-.887s-.131-.218-.1-.343c.186-.744-.272-1.616-1.173-2.245-.268-.188-.3-.015-.129.157.172.171.286.672.329.93.043.257-.043.3-.157.014s-.586-.429-.958-.4c-.372.028-.543-.214-.701-.443s-.174-.057-.171.028c.014.515.343 1.331 1.073 1.63.263.109.2.201 0 .229-.201.029-.501 0-.901-.071-.213-.038-.309-.005-.157.186.615.772 1.287.744 2.432.715.496-.012.429-.014.572.1s.372.315.68.629c.456.467.335.467.193.687-1.03 1.588-1.309 3.39-1.001 4.448.129.443.015.329-.171.171-.186-.157-.343-.371-.629-.657-.214-.215-.257-.357-.271-.944-.015-.586-.015-1.787-1.659-2.202-.215-.055-.229.071-.1.129.403.179.458.586.515.986s-.028.344-.271-.028-.472-.329-.958-.314c-.486.014-.787-.144-1.173-.658-.1.973.687 1.859 1.645 2.202.243.088.2.201.029.201-.172 0-.429-.029-.601-.144-.171-.114-.2-.101-.372-.129-.172-.028-.443-.129-.558-.229-.114-.101-.143-.015-.021.278.283.684 1.888 1.867 3.261.944.408.258.687.88 1.352 1.33.466.316.386.708.408.837s.128.515.279.858c.15.343.206.727.193 1.072-.032.865-.04 2.124-.042 2.903l-.645-.308c-2.639-1.244-2.103-3.519-4.934-5.406-.224-.148-.408-.193-.215.064.193.258.386 1.223.408 1.737.021.516.043.88.215 1.202.171.321.021.258-.193.107-.214-.15-.408-.344-.708-.665.15-1.266-.043-3.769-.83-5.313-.116-.229-.166-.087-.157.028.071.987-.243 1.474-.529 1.902-.136.204-.243.429-.257.687s-.129.143-.214.014l-.258-.5c-.1-.144-.15-.223-.057-.329.83-.943 1.402-3.075 1.102-4.52-.028-.133-.085-.138-.129.029-.357 1.373-.987.8-1.502 1.602-.209.325-.229-.043-.257-.258-.028-.215-.045-.361.043-.415 1.545-.943 1.959-2.088 2.417-3.318.141-.377-.028-.629-.229-.071s-.772.586-1.073.586-.472.058-.601.186c-.129.129-.215.143-.229.015-.011-.1.029-.186.171-.515.143-.329.101-.357.458-.357 1.044 0 2.045-.801 2.646-2.002.265-.53-.086-.329-.272-.115-.186.215-.472.186-.644.186s-.5-.114-.701-.085c-.2.028-.143-.186.014-.4.157-.215.172-.267.343-.158.987.629 2.832-.114 3.161-1.044.103-.292.1-.314-.143-.229-.74.261-1.159-.028-1.402 0-.243.029-.272-.057.186-.314s.601-.186 1.387-.1 1.414-.1 2.403-1.016c.145-.134.052-.17-.107-.114l-.379.028c-.243.047-.649.125-.93.229-.29.107-.343-.171-.014-.214.998-.13 1.688-.544 1.988-.729.301-.186.229-.329.058-.286-.172.043-.372.029-.744 0s-1.069.42-1.374.801c-.171.215-.236.172-.15.032.194-.315.676-.793.976-.998.082-.056.033-.083-.054-.086-1.18-.032-2.285.623-2.789 1.77-.15.054-.354.172-.568.279-.011-.815.687-1.233 1.352-1.716.132-.096.044-.142-.043-.139-2.403.071-3.3 1.888-3.229 3.476l-.2.214c-.401-.357-.015-1.602.357-2.088-2.06.386-2.518 3.604-1.974 4.405.098.145.1.243.1.358 0 .244-.072.2-.129.114-.315-.472-.543-1.559-.257-2.546.025-.087-.019-.111-.086-.05-2.117 1.923-1.488 4.669-.057 5.899l-.015.314c-.969-.622-1.305-1.644-1.477-2.588-1.266 2.896.072 5.149 2.131 6.221l.1.279c-1.373-.386-2.146-1.502-2.575-2.103-.021 3.733 2.896 5.428 4.806 5.428.086.086.236.215.408.344-1.587.064-3.218-.579-3.776-.987-.178-.131-.205-.049-.128.086 2.338 4.098 7.23 4.055 9.482 3.872l.288.016c-.692.401-1.296.821-1.575 1.101-.129.129-.064.203.107.396.172.193.214.3.451.086.371-.334.769-.698 1.215-.995-.037.263-.112.55-.25.78-.162.272.021.322.193.301.171-.021.515 0 .729.064.214.064.15 0 .107-.193-.033-.149-.078-.431-.008-1.024.432.358.876.843 1.392 1.293.206.179.204.128.418-.075.243-.23.275-.296.107-.451-.585-.539-.771-.734-1.647-1.194.342-.099.71-.139 1.11-.092 2.231.257 7.251-.387 8.381-3.727-.572.729-1.859.915-2.674.901-.258-.005-.615-.015-.83.071-.215.086-.286 0-.115-.129.154-.115.301-.171.451-.186 3.335-.317 4.506-3.305 4.212-5.192-.314.772-1.072 1.388-2.002 1.846-.218.106-.286.114-.272.014.015-.1.068-.157.229-.271 3.067-2.188 2.382-4.87 1.909-6.136-.054-.144-.096-.096-.107 0-.139 1.201-.601 1.642-1.223 2.531-.098.14-.161.129-.15.054v-.311c1.996-1.974 1.088-4.549-.271-5.879.2.901-.043 2.131-.143 2.432-.101.3-.172.271-.201.171l-.057-.271c.586-2.103-.143-3.819-1.917-4.834.214.358.5 1.631.443 1.974s-.194.242-.229.028c-.415-2.546-1.602-3.318-3.472-3.65-.127-.023-.103.065-.021.107.698.354 1.245 1.062 1.427 1.416.183.354-.011.257-.247.214s-.309-.084-.375-.214c-.762-1.491-1.738-1.706-2.907-1.856-.228-.029-.143.015-.054.064.483.269.804.58 1.223 1.073.164.193-.011.226-.15.064-.87-1.003-1.384-.965-2.21-.89-.182.017-.161.139-.043.161.118.021.215.161.3.226.642.481 1.298.676 2.156.804.145.022.118.118.011.118-.504 0-1.137-.193-1.598-.418-.152-.074-.131.012-.086.064 1.373 1.587 2.424 1.362 2.971 1.244.179-.039.279-.086.44-.021s.472.193.665.333c.193.14 0 .204-.171.183-.172-.021-.59-.021-.783-.021s-.526-.064-.719-.204c-.08-.058-.15-.075-.132.004.209.919 1.73 2.16 3.476 1.602l.4.386s.072.243-.071.215c-.143-.029-.286-.072-.486-.072s-.658-.028-1.087-.286c-.123-.073-.278-.103-.243.007.408 1.309 1.759 2.146 3.104 2.41.057.157.143.386.214.529.212.424-.028.286-.114.201-.229-.229-.987.114-1.888-.987-.09-.11-.139-.09-.115.014.322 1.373 1.116 2.746 2.603 3.661 0 .229.029.387-.028.572s-.129.25-.343-.028c-.215-.279-1.267-.494-1.481-1.76-.3 1.395.15 3.325.922 4.42.228.323.3.472.236.579-.064.107-.193.364-.257.558-.064.193-.236.322-.214 0 .021-.321-1.116-1.115-.901-2.854-.879.944-.987 3.841-.772 5.386-.193.257-.408.515-.708.793-.4.372-.429.193-.193-.149.236-.344.172-.966.15-1.417-.021-.45.193-1.158.343-1.522.15-.365.129-.43-.15-.258s-1.786 1.647-2.532 3.325c-.3.676-.59 1.416-1.845 1.835-.28.09-.588.217-.903.365z"/></svg>