<svg xmlns="http://www.w3.org/2000/svg" width="64" height="48"><path fill="#E40520" d="M0 0h64v48h-64z"/><path fill="#FFED00" d="M0 12h64v24h-64z"/><g stroke="#000" stroke-width=".031"><path fill="#E40520" d="M15.906 21.329c-.473-.193-.65-.819-.114-1.059.424-.188 1.212-.175 1.658-.073.456.105.794.605.354.982-.396.341-1.365.001-1.898.15-.399-.163.565-.158 0 0z"/><path fill="#FFED00" d="M16.726 20.906c.114-.25.294-.501.537-.641-.016.009.517-.145.437.017-.319-.143-.814.586-.9.782-.053-.038-.078-.09-.074-.158.169-.371-.006.073 0 0zm.008 0c-.114-.25-.294-.501-.537-.641.016.009-.517-.145-.437.017.316-.146.816.589.9.782.053-.038.077-.091.074-.158-.169-.371.005.073 0 0zm.841.594c.067.067-1.081.151-1.176.145-.401-.027-.474-.071-.602-.339-.074-.156 1.938-.155 1.864 0-.013.027-.159.102-.086.194z"/><path d="M17.601 21.323c-.058-.013-.228-.056-.4-.073m-1.314.25c.212-.22 1.476-.22 1.688 0m-1.716-.177c.058-.013.228-.056.4-.073" fill="none"/><path fill="#FFED00" d="M16.73 20.115c-.084.092-.14.499 0 .499s.084-.407 0-.499zm0 .968c-.074.106-.589.11-.715.146-.205.059-.593-.27-.64-.225-.042-.162.334-.028.42-.03l-.159.142c.042.051.564.083.45-.121l-.138.113-.096-.087c.104-.05.031-.051.043-.122l.174.035-.126-.143c.049-.037.093-.008.097-.102.048.081.073.035.134.044l-.043.186.137-.113c.044.057-.02.092.096.087-.103.053-.031.049-.043.122l-.174-.035c-.006.207.246.15.285-.001.052.162.311.11.262-.069l-.172.082-.077-.115c.121-.025.046-.045.077-.115l.172.082-.093-.181c.061-.025.099.014.129-.081.03.095.068.056.129.081l-.094.181.172-.082c.031.07-.044.09.076.115l-.076.115-.172-.082c-.048.179.21.232.262.069.04.15.291.208.286.001l-.175.035c-.012-.073.061-.069-.043-.122.116.005.052-.03.096-.087l.138.113-.043-.186c.061-.009.085.037.133-.044.004.094.048.065.097.102l-.126.143.174-.035c.012.071-.061.072.043.122l-.096.087-.137-.113c-.114.204.407.172.45.121l-.159-.142c.086.001.462-.132.42.03-.047-.045-.436.283-.64.225-.125-.036-.642-.04-.715-.146-.083.12.082.12 0 0z"/><path d="M17.182 21.294c.125.012.12.063-.005.051s-.121-.062.005-.051zm-.904 0c-.125.012-.12.063.004.051s.122-.062-.004-.051z" fill="#008E5B"/><path d="M17.35 20.9c.079 0 .079.118 0 .118s-.08-.118 0-.118zm-.622-.082c.079 0 .079.118 0 .118s-.08-.118 0-.118zm1.199.232c.04.024-.021.125-.061.101-.039-.024.021-.125.061-.101zm-1.818-.15c-.079 0-.079.118 0 .118s.08-.118 0-.118zm-.576.15c-.039.024.021.125.061.101.039-.024-.021-.125-.061-.101zm1.101.276c-.027 0 .119-.094.214-.016 0 .037-.195.014-.214.016zm1.003.089l-.119-.024.119.024zm-1.814 0l.118-.024-.118.024z" fill="#E40520"/><path d="M17.601 21.053c.049 0 .049.073 0 .073v-.073zm-.572-.114c.049 0 .049.073 0 .073v-.073zm-1.17.114c-.049 0-.049.073 0 .073v-.073zm.572-.114c-.049 0-.049.073 0 .073v-.073zm.525.316c.049 0 .049.073 0 .073v-.073zm.45.062c.049 0 .049.073 0 .073v-.073zm-.902-.062c-.049 0-.049.073 0 .073v-.073zm-.451.062c-.049 0-.049.073 0 .073.05 0 .05-.073 0-.073z" fill="#fff"/><path fill="#E40520" d="M16.731 21.621c-.041 0-.769.013-.769-.094 0-.142 1.538-.142 1.538 0 0 .107-.728.094-.769.094z"/><path fill="#004996" d="M16.732 20.189c-.164 0-.164-.254 0-.254.164.001.164.254 0 .254z"/><path fill="#FFED00" d="M16.704 19.727c-.011.052.036.095-.066.067 0-.02.021.384-.032.302h.252c-.054.083-.033-.322-.032-.302l-.122-.067z"/></g><path d="M17.487 23.003c-.321 0-1.511-.2-1.511.16v5.941c0 .271-.19 1.534 0 1.745.134.149 1.511.113 1.511-.159v-7.687zm13.027 0c.321 0 1.511-.2 1.511.16v5.941c0 .271.19 1.534 0 1.745-.135.149-1.511.113-1.511-.159v-7.687z" fill="#fff" stroke="#000" stroke-width=".125"/><g stroke="#000" stroke-width=".125" fill="none"><path d="M17.161 23.008v7.835M30.84 23.008v7.835"/></g><path d="M15.68 26.07c-.678.357-.381.832.296.832v-.424c0-.225-.325-.354-.296-.408-.38.201-.041.077 0 0zm.296.858c-.658 0-1.047-.584-1.103-1.209-.046-.516 1.075-.769 1.412-.837.861-.176 1.785-.176 2.637.048.475.125.295.587.295 1.028-.938-.396-2.075-.409-3.038-.096-.824.269-1.315.904-.203 1.066zm-.807 2.358c-.078-.035.957-.656 1.063-.705.492-.227 1.028-.391 1.469-.714.643-.472.707-1.404-.213-1.562.092.032.71.142.532.392-.323.455-.952.762-1.439.993-.455.217-1.169.296-1.528.659-.157.16-.09.861.116.937zm2.318-2.961c.785.194.549.458 0 .846v-.846zm-2.318 2.961c.083.037.119-.438.327-.108.142.225.195.568-.066.736.003-.162-.065-.555-.261-.628zm17.152-3.216c.678.357.38.832-.296.832v-.424c-.001-.226.325-.352.296-.408.379.201.04.077 0 0zm-.297.858c.657 0 1.05-.584 1.104-1.209.044-.516-1.074-.769-1.413-.837-.861-.176-1.785-.176-2.637.048-.475.125-.295.587-.295 1.028.938-.396 2.075-.409 3.039-.096.824.269 1.314.904.202 1.066zm.807 2.358c.079-.035-.957-.656-1.063-.705-.491-.227-1.028-.391-1.468-.714-.643-.471-.708-1.403.213-1.562-.092.033-.71.142-.532.392.324.455.953.762 1.439.993.455.217 1.169.296 1.528.659.156.16.089.861-.117.937zm-2.317-2.961c-.785.194-.549.458 0 .846v-.846zm2.317 2.961c-.082.037-.12-.437-.327-.108-.142.225-.195.568.066.736-.002-.162.065-.555.261-.628z" fill="#E40520" stroke="#000" stroke-width=".125"/><path d="M15.976 22.671c0-.186-.664-.97-.085-.97h1.783c.325 0-.075.97-.217.97h-1.481zm0 8.504c0 .186-.664.97-.085.97h1.783c.326 0-.075-.97-.217-.97h-1.481zm1.519-.197c.151 0 .135.243-.013.243-.042.038-.341 0-.389 0-.237 0-.911.126-1.111 0-.148 0-.164-.243-.013-.243.059-.041.332 0 .396 0h1.13zm0-8.104c.151 0 .136-.244-.013-.244-.042-.038-.342 0-.389 0-.237 0-.911-.126-1.111 0-.148 0-.164.244-.013.244.059.041.332 0 .396 0h1.13zm14.529-.203c0-.186.665-.97.085-.97h-1.784c-.326 0 .075.97.217.97h1.482zm0 8.504c0 .186.665.97.085.97h-1.784c-.326 0 .075-.97.217-.97h1.482zm-1.518-.197c-.15 0-.136.243.012.243.041.038.342 0 .389 0 .236 0 .912.126 1.112 0 .148 0 .163-.243.012-.243-.059-.041-.331 0-.396 0h-1.129zm0-8.104c-.15 0-.136-.244.012-.244.041-.038.342 0 .389 0 .236 0 .912-.126 1.112 0 .148 0 .163.244.012.244-.059.041-.331 0-.396 0h-1.129z" fill="#FFED00" stroke="#000" stroke-width=".125"/><g stroke="#000" stroke-width=".125" fill="none"><path d="M15.701 22.263h2.062M15.701 31.583h2.062M32.3 22.263h-2.062M32.3 31.583h-2.062"/></g><g stroke="#000" stroke-width=".063"><path fill="#E40520" d="M24.007 17.161c.882 0 1.783.598 2.594.524.685-.062 2.828.421 1.93 1.413-.511.564-.798 1.257-1.643 1.114-.945-.159-1.921-.299-2.881-.299-.895 0-1.801.128-2.683.267-.44.069-.564.133-.952-.095-.401-.235-.585-.651-.889-.987-.83-.916.969-1.397 1.644-1.42.555-.02.828-.107 1.37-.26.484-.136 1.003-.257 1.51-.257z"/><path fill="#FFED00" d="M20.938 21.057c-.246.256.922.43 1.005.441.93.131 1.882.146 2.82.109.685-.027 1.48-.034 2.126-.298.082-.033.291-.131.175-.251-.274-.338.267-.585.324-.704.269-.564-7.031-.566-6.762 0 .058.121.59.36.312.703z"/><path d="M20.847 20.416c.21-.048.827-.204 1.451-.265m4.766.906c-.565-.586-2.352-.417-3.064-.417-.712 0-2.496-.168-3.062.417m6.229-.641c-.21-.048-.827-.204-1.451-.265" fill="none"/><path fill="#004996" d="M24 16.062c.594 0 .593-.92 0-.92-.594-.001-.594.92 0 .92z"/><path fill="#FFED00" d="M24.102 14.384c-.093.377.239.115.239.346 0 .173-.239.056-.239.445 0 .067-.031.276 0 .344h.366c.067.333-.339.204-.565.204-.194 0-.587-.204-.276-.204.388 0 .271-.143.271-.51 0-.336-.244-.024-.239-.382 0 .05.382-.229.443-.243zm-2.618 2.343c-.719-.347-1.691-.155-2.183.488-.217.284-.6 1.693.082 1.702.341.004-.094-1.333.091-1.632.202-.325.655-.513 1.017-.562.288-.038.933.291.993.004zm5.045 0c.719-.347 1.692-.155 2.184.488.217.284.6 1.692-.082 1.702-.341.004.094-1.333-.091-1.632-.202-.325-.655-.513-1.017-.562-.289-.038-.933.291-.994.004zm-2.848-.394c-.667-.474-1.833-.365-2.243.409-.186.349-.097.771.149 1.064.118.141.028.314.061.486.244-.318.292-.26.076-.592-.186-.285-.255-.673-.054-.971.438-.65 1.472-.593 2.019-.152l-.008-.244zm.651 0c.667-.474 1.833-.365 2.244.409.185.349.097.771-.149 1.064-.118.141-.028.314-.061.486-.245-.317-.292-.261-.076-.592.186-.285.255-.673.054-.971-.438-.65-1.472-.593-2.019-.152l.007-.244zm-.325 1.987c.131-.116.603-.401.637-.563-.342-.362-.062-1.715-.637-1.715-.549 0-.335 1.153-.497 1.502-.177.384.172.489.497.776zm0-.19c.095-.116.347-.321.378-.464-.165-.243-.045-1.414-.378-1.414s-.221.964-.275 1.17c-.099.375.018.395.275.708z"/><path d="M24 17.825c-.206 0-.206-.306 0-.306.208 0 .206.306 0 .306zm0-.329c-.197 0-.197-.294 0-.294.2 0 .197.294 0 .294zm0-.329c-.189 0-.189-.282 0-.282.191 0 .189.282 0 .282zm0-.33c-.181 0-.181-.269 0-.269.183 0 .181.269 0 .269zm0-.295c-.172 0-.172-.257 0-.257.175 0 .172.257 0 .257z" fill="#fff"/><path fill="#FFED00" d="M24.007 19.547c.227.33.844.435 1.085.054.114.354.581.417.872.268.386-.198.234.093.636.208.346.099.351-.17.601.048.719.627 1.173-1.387 1.722-.863.172-.66-.621-.401-.793-.014l-.379-.257c-.021.189-.16.222-.353.163.167.127.213.277.108.447l.468.068c-.263.319-.69.385-.8-.095-.211.537-1.143.208-.832-.341l.499.411c-.048-.255.096-.363.347-.316-.243-.078-.319-.24-.157-.442l-.633.127.457-.52c-.228.011-.34-.146-.352-.37-.116.191-.289.277-.485.16l.158.674-.499-.411c.047.254-.096.362-.347.316.244.077.319.24.157.442l.633-.127c.017.719-.884.572-1.035-.003-.196.608-1.122.373-.949-.252l.624.296c-.116-.252.005-.401.278-.418-.273-.017-.394-.166-.278-.418l-.624.296.339-.658c-.233.069-.395-.064-.468-.292-.073.228-.235.361-.468.292l.339.658-.624-.296c.116.252-.005.401-.278.418.273.017.394.166.278.418l.624-.296c.173.625-.753.86-.949.252-.151.574-1.053.722-1.036.003l.634.127c-.163-.203-.087-.365.157-.442-.251.046-.395-.061-.347-.316l-.499.411.158-.674c-.196.117-.369.031-.484-.16-.012.223-.125.38-.352.37l.457.52-.633-.127c.162.202.086.365-.157.442.251-.047.395.061.347.316l.499-.411c.311.55-.62.878-.832.341-.11.48-.537.414-.8.095l.468-.068c-.105-.17-.058-.32.108-.447-.193.06-.332.027-.353-.163l-.38.257c-.173-.388-.965-.646-.793.014.548-.524 1.003 1.49 1.722.863.277-.242.703.108 1.051-.395.273.291.914.319 1.058-.129.241.381.858.276 1.085-.054.298.434-.299.434 0 0z"/><path d="M22.366 20.313c-.452.043-.434.228.018.186s.44-.228-.018-.186zm3.281 0c.452.043.435.228-.018.186-.451-.042-.44-.228.018-.186z" fill="#008E5B"/><path d="M21.756 18.883c-.287 0-.287.427 0 .427s.29-.427 0-.427zm2.258-.298c-.287 0-.287.427 0 .427s.29-.427 0-.427zm-4.35.841c-.143.086.078.452.22.366.143-.086-.075-.454-.22-.366zm6.594-.543c.287 0 .287.427 0 .427s-.291-.427 0-.427zm2.091.543c.143.086-.077.452-.22.366-.143-.086.076-.454.22-.366zm-3.993 1.003c.205 0-.415-.509-.712-.241-.118 0-.085.241.053.241h.659zm-3.639.321c.166.085.309.057.429-.086-.166-.086-.309-.058-.429.086zm6.579 0c-.166.085-.31.057-.43-.086.167-.086.31-.058.43.086z" fill="#E40520"/><path d="M21.478 16.335c-.172 0-.172.256 0 .256s.174-.256 0-.256zm.244-.224c-.172 0-.172.256 0 .256.172.001.174-.256 0-.256zm.291-.162c-.172 0-.172.256 0 .256.173 0 .175-.256 0-.256zm.34-.109c-.172 0-.172.256 0 .256.171 0 .174-.256 0-.256zm.325-.048c-.172 0-.172.256 0 .256s.175-.256 0-.256zm.332.014c-.172 0-.172.256 0 .256s.175-.256 0-.256zm.299.075c-.172 0-.172.256 0 .256.171 0 .174-.256 0-.256zm.284.115c-.172 0-.172.256 0 .256s.175-.256 0-.256zm-2.285.617c-.172 0-.172.256 0 .256s.175-.256 0-.256zm-.101.319c-.172 0-.172.256 0 .256s.174-.256 0-.256zm.027.325c-.172 0-.172.256 0 .256.172.001.174-.256 0-.256zm.121.299c-.172 0-.172.256 0 .256.173 0 .175-.256 0-.256zm.177.257c-.172 0-.172.256 0 .256s.175-.256 0-.256zm-.4-1.471c-.172 0-.172.256 0 .256s.174-.256 0-.256zm-.319-.041c-.172 0-.172.256 0 .256.172.001.175-.256 0-.256zm-.318.014c-.172 0-.172.256 0 .256s.174-.256 0-.256zm-.339.067c-.172 0-.172.256 0 .256.172.001.174-.256 0-.256zm-.312.122c-.172 0-.172.256 0 .256s.174-.256 0-.256zm-.292.17c-.172 0-.172.256 0 .256s.175-.256 0-.256zm-.251.217c-.172 0-.172.256 0 .256s.175-.256 0-.256zm-.21.264c-.172 0-.172.256 0 .256.172.001.175-.256 0-.256zm-.135.299c-.172 0-.172.256 0 .256s.174-.256 0-.256zm-.075.318c-.172 0-.172.256 0 .256s.174-.256 0-.256zm-.007.339c-.172 0-.172.256 0 .256.172.001.175-.256 0-.256zm.061.312c-.172 0-.172.256 0 .256.172.001.175-.256 0-.256zm.108.271c-.172 0-.172.256 0 .256.173.001.175-.256 0-.256zm7.493-2.359c.172 0 .172.256 0 .256s-.175-.256 0-.256zm-.244-.224c.172 0 .172.256 0 .256-.172.001-.175-.256 0-.256zm-.292-.162c.172 0 .172.256 0 .256s-.174-.256 0-.256zm-.339-.109c.172 0 .172.256 0 .256s-.174-.256 0-.256zm-.326-.048c.172 0 .172.256 0 .256-.171.001-.174-.256 0-.256zm-.332.014c.172 0 .172.256 0 .256s-.174-.256 0-.256zm-.298.075c.172 0 .172.256 0 .256s-.174-.256 0-.256zm-.285.115c.172 0 .172.256 0 .256s-.174-.256 0-.256zm2.285.617c.172 0 .172.256 0 .256s-.174-.256 0-.256zm.102.319c.172 0 .172.256 0 .256s-.175-.256 0-.256zm-.027.325c.172 0 .172.256 0 .256s-.175-.256 0-.256zm-.122.299c.172 0 .172.256 0 .256s-.175-.256 0-.256zm-.177.257c.172 0 .172.256 0 .256s-.174-.256 0-.256zm.4-1.471c.172 0 .172.256 0 .256s-.174-.256 0-.256zm.319-.041c.172 0 .172.256 0 .256s-.174-.256 0-.256zm.319.014c.172 0 .172.256 0 .256s-.175-.256 0-.256zm.339.067c.172 0 .172.256 0 .256s-.174-.256 0-.256zm.312.122c.172 0 .172.256 0 .256-.172.001-.175-.256 0-.256zm.291.17c.172 0 .172.256 0 .256s-.174-.256 0-.256zm.251.217c.172 0 .172.256 0 .256s-.174-.256 0-.256zm.21.264c.172 0 .172.256 0 .256s-.174-.256 0-.256zm.136.299c.172 0 .172.256 0 .256s-.175-.256 0-.256zm.074.318c.172 0 .172.256 0 .256-.172.001-.174-.256 0-.256zm.007.339c.172 0 .172.256 0 .256-.172.001-.174-.256 0-.256zm-.061.312c.172 0 .172.256 0 .256-.172.001-.174-.256 0-.256zm-.108.271c.172 0 .172.256 0 .256s-.175-.256 0-.256zm-8.123.744c-.178 0-.178.265 0 .265s.18-.265 0-.265zm2.075-.413c-.178 0-.178.265 0 .265s.18-.265 0-.265zm4.245.413c.177 0 .177.265 0 .265-.178.001-.181-.265 0-.265zm-2.075-.413c.177 0 .177.265 0 .265-.178 0-.181-.265 0-.265zm-1.905 1.146c-.178 0-.178.265 0 .265.177 0 .18-.265 0-.265zm-1.635.224c-.178 0-.178.265 0 .265s.18-.265 0-.265zm3.275-.224c.178 0 .178.265 0 .265s-.18-.265 0-.265zm1.634.224c.178 0 .178.265 0 .265-.177 0-.18-.265 0-.265z" fill="#fff"/><path fill="#E40520" d="M24 21.499c.232 0 2.79.045 2.79-.341 0-.387-2.557-.341-2.79-.341s-2.79-.045-2.79.341c0 .385 2.558.341 2.79.341z"/><path d="M19.301 17.215c-.457.571.32 1.137-.082 1.668m9.493-1.668c.456.571-.32 1.137.081 1.668" fill="none"/></g><g stroke="#000" stroke-width=".125"><path fill="#fff" d="M28.86 21.609v7.411c0 1.019.163 2.225-.481 3.09-1.254 1.686-4.178 1.687-6.031 1.377-1.694-.282-3.207-1.171-3.207-3.054v-7.967c0-.855-.146-.857.702-.857h9.017z"/><path fill="#FFED00" d="M24 27.163c0 1.285.277 2.884-.089 4.13-.762 2.593-4.771 2.084-4.771-.644v-2.389c0-.535-.256-1.098.342-1.098l4.518.001z"/><path fill="#E40520" d="M24 27.163c0 1.285-.277 2.884.088 4.13.762 2.593 4.771 2.084 4.771-.644v-2.389c0-.535.256-1.098-.342-1.098l-4.517.001zm-3.818 5.459v-4.785c0-.324.148-.674-.214-.674-.342 0-.214.238-.214.553v1.887c-.001.846-.39 2.495.428 3.019zm1.042.399v-5.223c0-.482.147-.635-.362-.635-.142 0-.067 2.619-.067 2.882v2.123c0 .52-.168.783.429.853zm1.735-.399v-4.785c0-.324-.148-.674.214-.674.342 0 .214.238.214.553v1.887c.001.845.39 2.497-.428 3.019zm-1.042.399v-5.223c0-.482-.147-.635.362-.635.142 0 .067 2.619.067 2.882v2.123c.001.521.169.783-.429.853zm2.083-5.858v-5.473c0-.179-1.905-.081-2.135-.081h-1.852c-.116 0-.79-.089-.873 0-.07.076 0 .559 0 .656v4.817c.001.166 4.317.081 4.86.081z"/></g><g stroke="#000" stroke-width=".063"><path d="M25.284 27.867c0-.243.597-.243.597 0h-.597zm2.297 0c0-.243-.597-.243-.597 0h.597zm0 .195c0 .242-.597.242-.597 0h.597zm-2.297 0c0 .242.597.242.597 0h-.597zm1.051.964c-.243 0-.243-.598 0-.598v.598zm.195 0c.243 0 .243-.598 0-.598v.598zm-.195 2.532c-.243 0-.243-.597 0-.597v.597zm.195 0c.243 0 .243-.597 0-.597v.597zm.372-2.394c-.184-.159.206-.611.39-.452l-.39.452zm.147.127c.185.159.576-.296.39-.452l-.39.452zm-1.649 1.609c-.185-.159.205-.611.39-.452l-.39.452zm.147.127c.183.159.574-.293.39-.453l-.39.453zm.416-1.863c.184-.158-.205-.611-.39-.452l.39.452zm-.147.127c-.184.16-.575-.296-.39-.452l.39.452zm1.649 1.609c.184-.158-.205-.611-.39-.452l.39.452zm-.147.127c-.183.159-.574-.294-.39-.453l.39.453zm-2.034-1.271c0-.243.597-.243.597 0h-.597zm0 .194c0 .242.597.242.597 0h-.597zm2.297-.194c0-.243-.597-.243-.597 0h.597zm0 .194c0 .242-.597.242-.597 0h.597zm.378-.924c-.244 0-.244-.598 0-.598v.598zm.194 0c.243 0 .243-.598 0-.598v.598zm-.194 1.889c-.244 0-.244-.598 0-.598v.598zm.194 0c.243 0 .243-.598 0-.598v.598zm-1.238 1.253c-.09-.226.465-.448.554-.225-.16.108-.364.192-.554.225-.03-.073.133-.023 0 0zm.626-.046c.091.229-.463.453-.554.227.196-.049.381-.124.554-.227.029.073-.098.057 0 0zm-2.635-3.096c.243 0 .243-.598 0-.598v.598zm-.194 0c-.243 0-.243-.598 0-.598v.598zm.194 1.889c.243 0 .243-.598 0-.598v.598zm-.194 0c-.243 0-.243-.598 0-.598v.598zm1.239 1.253c.09-.226-.465-.448-.554-.225.16.108.363.192.554.225.029-.073-.134-.023 0 0zm-.627-.046c-.093.228.462.453.554.227-.196-.049-.38-.124-.554-.227-.03.073.098.057 0 0z" fill="#FFED00"/><g fill="#FFED00"><path d="M26.335 28.179c-.14.475.334.475.194 0m-.329 4.218c-.163-.013-.321-.044-.477-.092.088-.25.381-.133.613-.229.073-.092 0-.511 0-.637.324-.021.194.302.194.57 0 .396.494-.043.612.295-.209.067-.822.405-.942.093-.175-.014.036.093 0 0zm-1.21-.574c-.572.088-.207-1.207-.083-1.026.048.07-.062.758.154.503l.416-.488c.263.176-.026.33-.186.519-.373.438.277.497.138.852-.171-.092-.317-.211-.439-.36-.071.011.111.137 0 0zm-.083-2.199c-.001-1.657-.457.351-.194.459.15.568.138.298.325-.133.091-.127.364.155.364-.097-.001-.085-.374-.176-.495-.229zm.128-1.757c.139-.041.366-.054.366.098 0 .249-.299-.029-.369.111.172.202.785.66.471.852l-.597-.698c.095.326-.194.482-.194.058 0-.176-.169-.122-.153-.34.02-.26.378-.306.476-.081zm1.299.314c-.139-.06-.575-.111-.575-.216 0-.024.573-.263.673-.263-.045 0 .721.281.672.165.103.244-.41.245-.575.313"/><path d="M26.53 31.082v-.966c.174.2.387.679.625.424l-.51-.59c.581.138.581-.332 0-.194l.45-.519c-.24-.232-.387.15-.565.355 0-.782-.194-.782-.194 0-.178-.205-.325-.588-.565-.355l.45.519c-.582-.138-.582.332 0 .194l-.51.59c.237.255.451-.224.625-.424-.001.268-.171 1.026.194.966zm1.345.741c.572.087.207-1.207.083-1.026-.048.07.062.758-.154.503l-.417-.488c-.263.176.026.33.187.519.373.438-.277.496-.139.852.171-.092.318-.211.44-.36.071.011-.111.137 0 0zm.083-2.199c.001-1.657.457.351.194.459-.149.566-.141.3-.325-.133-.091-.127-.364.155-.364-.097.001-.085.374-.176.495-.229zm-.128-1.757c-.139-.041-.366-.054-.366.098 0 .248.317-.026.369.111-.172.202-.784.66-.47.852l.597-.698c-.095.326.194.482.194.058 0-.176.168-.123.152-.34-.019-.26-.378-.306-.476-.081z"/></g><path d="M26.433 28.067c.15 0 .15-.232 0-.232s-.151.232 0 .232zm1.549-.012c.168.042.218-.018.151-.177-.168-.042-.218.017-.151.177zm-3.107 3.61c.168.042.219-.017.152-.177-.168-.042-.219.017-.152.177zm.008-3.61c-.168.042-.218-.018-.151-.177.168-.042.218.017.151.177zm3.107 3.61c-.168.042-.219-.017-.152-.177.168-.042.219.017.152.177zm-3.299-1.812c0 .15.232.15.232 0 .001-.15-.232-.15-.232 0zm3.482 0c0 .15-.232.15-.232 0s.232-.15.232 0zm-1.74 2.571c.15 0 .15-.231 0-.231s-.15.231 0 .231z" fill="#E40520"/><path fill="#008E5B" d="M26.433 30.165c.397 0 .397-.614 0-.614s-.398.614 0 .614z"/></g><path d="M24.049 33.5v-.5h-.097c0 .211-.077.438.097.5zm.074-.155c.225-.22.633-.485 1.097-.389-.199.342-.791.49-1.097.389zm-.245-.047c-.194-.26-.715-.449-1.016-.326.184.306.674.465 1.016.326z" fill="#008E5B" stroke="#000" stroke-width=".063"/><path fill="#FFED00" stroke="#000" stroke-width=".063" d="M24 33.059c.801 0 .174-.753.284-.981-.146.137-.24.114-.284-.067-.044.182-.138.204-.284.067.109.229-.515.981.284.981z"/><path fill="#E40520" d="M23.993 32.3c.059.249-.238.308.012.586-.043-.157.38-.402-.012-.586.031.132.178.084 0 0z"/><path fill="#FFED00" stroke="#000" stroke-width=".063" d="M20.796 22.881c-.034-.034-.189-.173-.283-.113-.242.155.182.469.182.46 0 .362-.368.088-.368.261v.512c0 .304.167.101.186.199.062.318.138 1.254 0 1.539-.15.312-.371-.28-.371.386 0 .335-.083.385.236.385h2.689c.001 0 .062-.7.016-.771-.172-.264-.372.246-.372-.24v-1.059c0-.231.548-1.008-.09-1.008-.357 0 .09-.392.09-.276 0-.177-.183-.563-.183-.332 0 .029-.433-.01-.368-.057-.117.085-.184-.124-.184.101 0 .143-.067.288.092.288.225 0 .086.276-.176.276-.375 0 .125-1.136.084-1.243l-.451.114c-.036-.001-.243-.212-.279-.114-.15.405.183.29.183.556 0 .167.099.688-.095.688-.264 0-.408-.276-.18-.276.16 0 .093-.144.093-.288 0-.225-.067-.016-.185-.101.194.14-.254 0-.179 0-.161 0-.048.014-.087.113z"/><g stroke="#000" stroke-width=".063" fill="none"><path d="M20.142 26.51h2.941M20.142 26.319h2.941M20.142 26.124h2.941M20.142 25.935h2.941M20.142 25.739h2.941M20.513 25.548h2.198M20.513 25.356h2.198M20.513 25.163h2.198M20.513 24.972h2.198M20.513 24.779h2.198M20.513 24.586h2.198M20.513 24.393h2.198M20.327 24.2h2.558M20.327 24.009h2.558M20.327 23.816h2.558M20.327 23.625h2.558M20.694 23.433h1.834M21.43 23.24h.368M21.43 23.047h.368M21.43 22.855h.368M21.43 22.662h.368M21.247 22.414h.73M20.694 23.24h.368M20.513 22.991h.734M20.513 26.51v-.191M20.513 26.124v-.189M20.327 26.124v.195M20.694 26.319v-.195M20.888 26.51v-.191M20.888 26.124v-.189M20.888 25.739v-.191M20.888 25.356v-.193M20.694 25.935v-.196M20.327 25.935v-.196M21.062 25.739v.196M21.247 25.739v-.191M20.694 25.356v.192M21.062 25.356v.192M21.43 25.356v.192M21.247 25.356v-.193M21.43 24.972v.191M21.43 24.586v.193M21.247 24.393v.193M21.43 24.2v.193M21.062 24.2v.193M20.694 24.2v.193M20.513 24.009v.191M20.888 24.009v.191M21.247 24.009v.191M21.43 23.816v.193M21.062 23.816v.193M20.694 23.816v.193M20.513 23.625v.191M21.247 23.625v.191M20.888 23.24v.193M22.528 23.24h-.368M22.711 22.991h-.734M22.711 26.51v-.191M22.711 26.124v-.189M22.885 26.124v.195M22.528 26.319v-.195M22.345 26.51v-.191M22.345 26.124v-.189M22.345 25.739v-.191M22.345 25.356v-.193M22.528 25.935v-.196M22.885 25.935v-.196M22.16 25.739v.196M21.977 25.739v-.191M22.528 25.356v.192M22.16 25.356v.192M21.798 25.356v.192M21.977 25.356v-.193M21.798 24.972v.191M21.798 24.586v.193M21.977 24.393v.193M21.798 24.2v.193M22.16 24.2v.193M22.528 24.2v.193M22.711 24.009v.191M22.345 24.009v.191M21.977 24.009v.191M21.798 23.816v.193M22.16 23.816v.193M22.528 23.816v.193M22.711 23.625v.191M21.977 23.625v.191M22.345 23.24v.193M21.611 25.356v-.193M21.611 24.586v-.193M21.611 24.972v-.193M21.611 24.2v-.191M21.611 23.816v-.191M21.611 23.24v-.193M21.611 22.854v-.192M20.694 23.156h.368M21.43 22.575h.368M22.16 23.156h.368"/></g><path d="M22.097 26.51c0-.269.093-.7-.225-.84-.276-.122-.745-.027-.745.339-.001.72.319.501.97.501zm-.801-.473l-.255-.028c0-.105.038-.195.112-.27.215.081.149.145.143.298zm.631 0l.255-.028c0-.105-.038-.195-.112-.27-.215.081-.149.145-.143.298zm-.224-.233l.108-.215c-.133-.07-.266-.07-.399 0 .04.222.124.172.291.215zm-.462-.606v-.515c0-.363-.526-.363-.526 0 0 .561-.025.515.526.515zm.741 0v-.515c0-.363.526-.363.526 0 0 .561.025.515-.526.515zm-.184-1.283l.038-.482c-.122-.025-.335-.025-.457 0 .026.331-.03.617.419.482zm.356 0l-.038-.482c.122-.025.335-.025.457 0-.027.331.029.617-.419.482zm-1.085 0l.038-.482c-.122-.025-.335-.025-.457 0 .027.331-.029.617.419.482z" fill="#FFED00" stroke="#000" stroke-width=".063"/><path d="M21.93 26.51c0-.15.036-.387-.019-.537-.088-.24-.512-.24-.599 0-.225.615.169.537.618.537zm-.739-1.363c.017-.146 0-.304 0-.451 0-.316-.427-.316-.427 0 .001.378-.035.563.427.451zm.841 0c-.017-.146 0-.304 0-.451 0-.316.427-.316.427 0-.001.378.036.563-.427.451z" fill="#004996"/><path fill="#E40520" stroke="#000" stroke-width=".063" d="M26.487 22.735c-.369.209-.576-.319-.953-.187.085-.017.654.322.736.39.313.259.37-.219.217-.203-.248.141.313-.034 0 0z"/><path fill="#5E2483" stroke="#000" stroke-width=".063" d="M26.518 22.835c-.096.101-.091.244-.262.093.01.108-.12.335.113.307-.308.257-.866-.029-1.034-.325-.079-.138.175-.337-.089-.392-.151-.031-.146.101-.275.11-.227.017-.342.678.053.674-.067.001.748.659.737.626-.176.063-.938.269-.635.415-.289-.038-.045.308.014.365.125.123.618-.44.564-.08.113-.064.199-.155.258-.271-.028.21.037.205.194-.019.209.27.407.321.699.46-.841-.075-.497.179-.507.722-.003.184-.242-.031-.263-.059-.186-.236-.326.059-.4.197-.086.163.129.228.139.313.029.271.298-.015.37-.042.188-.071.472.107.625-.13.029-.045-.204-.659.127-.467-.026.137-.097.522.196.485l.365.072c.21.313-.85.001-.23.451-.207.032.001.298.244.134-.077.21.303.235.272.072.122-.044-.016-.237.048-.348.323-.55-.07-.672-.186-1.218.656.076.621-.529.499-.952-.049-.173-.25-1.466.279-1.257.03-.142-.019-.206-.145-.193.113-.105.173-.34.151-.488l-.289.282c-.009-.103-.051-.189-.124-.262.059.261-.386.505-.221.757-.091.345-.094.742.069 1.067.11.219.253.78-.155.819-.486.047-.407-.516-.614-.749.278.123.037-.159.077-.322.054.097.139.142.254.135-.065-.07-.104-.153-.113-.248.073.029.148.031.224.007-.153-.08-.121-.296-.244-.396.067.044.142.067.224.068-.251-.055.154-1.332-.784-1.042-.283.088-.708.117-.493.508.049-.166.332.054.268.121z"/><path d="M24.942 22.46c.072-.056.39-.007.273.129-.079.093-.202-.12-.273-.129.106-.083.162.02 0 0zm-.296.251c.06-.079.405-.118.306.066-.084.158-.194-.066-.306-.066.065-.086.172 0 0 0zm-.062.557c-.012-.121.228-.408.276-.193.043.186-.23.057-.276.193-.016-.164.041-.123 0 0zm.304.962c.018-.078.234-.226.277-.084.072.228-.213.052-.277.084.037-.159.112-.055 0 0zm-.059.452c-.057-.163.181-.369.251-.195.078.195-.225.059-.251.195-.054-.154.022-.113 0 0zm.498.224c-.148 0-.271-.286-.082-.291.204-.005.002.217.082.291-.151 0-.086-.079 0 0zm.322.532c.028-.074.262-.194.286-.048.042.235-.217.025-.286.048.058-.153.119-.041 0 0zm-.12.409c.034-.152.117-.202.249-.148.124.202-.194.1-.249.148-.002-.163.096-.082 0 0zm.339.394c-.062-.05-.103-.31.045-.286.217.03-.046.209-.045.286-.127-.103-.002-.125 0 0zm1.049.069c.016-.156.092-.215.23-.176.146.187-.181.122-.23.176-.021-.163.085-.092 0 0zm.284.391c-.066-.06-.095-.284.048-.284.241 0-.046.229-.048.284-.121-.109.005-.126 0 0zm.536.114c-.146-.046-.188-.132-.126-.258.207-.149.103.224.126.258-.163-.017-.069-.104 0 0z" fill="#E40520" stroke="#000" stroke-width=".063"/><path fill="#FFED00" stroke="#000" stroke-width=".063" d="M27.143 22.401c.51.335.199.086.64.123-.117-.133-.228.033-.275-.005.008.007.082-.297.063-.262l-.246.126.027-.302c.041-.034-.294.128-.266.146l.018-.276c.025-.031-.225.157-.215.162-.053-.027.052-.195-.114-.25.212.387-.143.203.368.538z"/><path d="M26.37 23.234c-.064.166-.394.105-.502.248.147-.035.239.134.372.062-.025.137-.064.271-.117.399.166-.056.308-.148.427-.275.016.119.045.235.086.348.076-.078.132-.167.168-.269l.083.289c.028-.244.102-.254.222-.029m-.161 1.326c.02-.108.226-.207.228-.254-.058-.137-.164-.231-.319-.281m-.618-1.254c-.255.104-.325.328-.477.384m.396.41l.123-.216.014.151c.136-.1.147-.275.327-.334" stroke="#000" stroke-width=".063" fill="none"/><path d="M26.622 22.374c.095.05.194.086.298.11l-.224-.087"/><g stroke="#000"><path fill="#E40520" d="M24 29.126c2.186 0 2.186-3.927 0-3.927s-2.186 3.927 0 3.927z"/><path fill="#004996" d="M24 28.649c1.486 0 1.485-2.974 0-2.974-1.486.001-1.486 2.974 0 2.974z"/><path d="M23.521 26.272c.274.152 0 .573 0 .791 0-.271.373-.567.373-.179-.292-.201-.444.385-.143.281l-.229.193-.229-.193c.301.104.149-.482-.143-.281 0-.389.373-.092.373.179-.002-.217-.277-.638-.002-.791.137.077-.138.077 0 0zm0 .809c.071.022.127.006.168-.051 0-.083-.337-.083-.337 0 .042.057.098.074.169.051zm.959-.809c-.274.152 0 .573 0 .791 0-.271-.373-.567-.373-.179.293-.2.444.385.143.281l.229.193.23-.193c-.301.104-.15-.482.143-.281 0-.389-.373-.092-.373.179.001-.218.276-.638.001-.791-.138.077.138.077 0 0zm0 .809c-.071.022-.127.006-.168-.051 0-.083.337-.083.337 0-.042.057-.098.074-.169.051zm-.48.169c-.275.151 0 .573 0 .791 0-.271-.373-.568-.373-.179.294-.202.442.387.143.28l.23.194.229-.194c-.299.105-.152-.481.143-.28 0-.39-.373-.092-.373.179.001-.218.276-.64.001-.791-.138.076.138.076 0 0zm0 .809c-.071.022-.127.005-.168-.051 0-.084.337-.084.337 0-.042.055-.098.073-.169.051z" fill="#FFED00"/></g><path d="M18.401 32.497c-.352.183-.576-.025-.912-.097-.281-.061-.563.068-.842.085-.363.022-.665-.21-1.032-.12-.242.059-.604.269-.553-.129.158.095.404-.049.553-.086.366-.089.669.144 1.032.121.279-.018.561-.146.842-.086.334.072.561.281.912.097v.215zm0 .49c-.352.183-.576-.025-.912-.098-.281-.06-.563.069-.842.086-.363.022-.665-.21-1.032-.12-.269.065-.626.266-.553-.17.158.095.404-.049.553-.086.366-.089.669.144 1.032.121.279-.018.561-.146.842-.086.334.072.561.281.912.097v.256zm0 .541c-.352.183-.576-.025-.912-.098-.361-.077-.716.133-1.083.076-.394-.061-.606-.177-1.007-.045-.28.093-.396.03-.337-.266.158.095.404-.05.553-.086.366-.09.668.144 1.032.121.279-.018.561-.146.842-.086.336.071.559.279.912.097v.287zm11.199-1.031c.352.183.577-.025.912-.097.281-.061.563.068.842.085.363.022.665-.21 1.032-.12.242.059.604.269.553-.129-.158.095-.404-.049-.553-.086-.366-.089-.668.144-1.032.121-.278-.018-.561-.146-.842-.086-.334.072-.561.282-.912.097v.215zm0 .49c.352.183.577-.025.912-.098.281-.06.563.069.842.086.363.022.665-.21 1.032-.12.269.065.626.266.553-.17-.158.095-.404-.049-.553-.086-.366-.089-.668.144-1.032.121-.278-.018-.561-.146-.842-.086-.334.072-.561.282-.912.097v.256zm0 .541c.352.183.577-.025.912-.098.361-.077.716.133 1.083.076.394-.061.606-.177 1.007-.045.28.093.396.03.337-.266-.158.095-.404-.05-.553-.086-.366-.09-.668.144-1.032.121-.278-.018-.561-.146-.842-.086-.336.071-.56.28-.912.097v.287z" fill="#004996"/><path d="M15.874 25.52c.093-.008.139-.062.136-.16-.066-.062-.133-.066-.203-.013-.023.046.157.407.176.456l-.091.035-.212-.549c.511-.366.458.485.194.231zm.598-.491l.099.471.232-.049.022.104c-.09.049-.234.054-.336.071-.043-.205-.208-.516-.017-.597zm.773.481l-.195-.581c.17.03.21.243.234.436.008-.194.031-.409.199-.453-.052.208-.052.53-.238.598zm.866-.373c-.037-.092-.092-.118-.165-.08-.1.1.176.16.208.192.223.226-.381.456-.351.075.055.029.277.186.293.052.018-.148-.438-.152-.211-.386.155-.158.355.033.226.147zm11.825.41l-.243-.562c.171.017.23.225.27.415-.008-.194-.003-.411.16-.469-.034.213-.005.535-.187.616zm.6-.632l-.008.48.237.003-.001.107c-.099.028-.24.001-.344-.005.004-.209-.089-.548.116-.585zm.581.627l.08-.482-.153-.025.016-.098c.1-.009.311.026.403.067l-.016.097c-.347-.044-.056.397-.33.441zm.662-.193c.024-.033.305-.256.22-.011-.041.121-.156.018-.22.011l.071.375.098.033c.045-.283.338-.66-.188-.685l-.188.558.101.033.106-.314zm.617.372l.173-.179-.054.242-.119-.063-.071.073c.056.092.159.19.229.258.153-.718.108-.741-.404-.216.135.066.142-.026.246-.115z" fill="#FFED00"/><g stroke="#000" stroke-width=".031"><path fill="#E40520" d="M31.271 20.426c.227 0 1.545.205 1.247.534-.413.455-.661.224-1.247.224-.301 0-.976.275-1.144-.093-.14-.31-.232-.427.244-.511.274-.049.615-.154.9-.154z"/><path fill="#FFED00" d="M30.425 21.5c-.071.077 1.086.151 1.176.145.401-.027.473-.071.601-.339.074-.155-1.938-.156-1.864 0 .014.027.16.102.087.194z"/><path d="M30.4 21.323c.058-.013.228-.056.4-.073m1.313.25c-.212-.22-1.476-.22-1.688 0m1.717-.177c-.058-.013-.228-.056-.4-.073" fill="none"/><path fill="#004996" d="M31.269 20.123c.164 0 .164-.253 0-.253s-.164.253 0 .253z"/><path fill="#FFED00" d="M31.297 19.66c.011.052-.036.095.066.067 0-.02-.021.384.032.302h-.252c.054.083.033-.322.033-.302l.121-.067zm-.721.646c-.375-.181-.941.281-.579.604.044-.391.046-.681.579-.604zm1.39 0c.375-.181.941.28.58.604-.046-.39-.046-.681-.58-.604zm-.785-.108c-.487-.346-.693.248-.561.54.141-.186-.175-.314.056-.482.126-.092.529-.055.505-.058zm.179 0c.488-.346.692.249.561.54-.141-.186.175-.314-.056-.482-.125-.091-.528-.055-.505-.058zm-.089.547c.147-.09.214-.628 0-.628-.215 0-.148.538 0 .628zm0-.052c.087-.095.145-.518 0-.518-.146 0-.087.423 0 .518z"/><path d="M31.269 20.609c-.057 0-.057-.084 0-.084.058-.001.057.084 0 .084zm0-.091c-.055 0-.055-.081 0-.081v.081zm0-.091c-.052 0-.052-.078 0-.078.053.001.052.078 0 .078zm0-.091c-.05 0-.05-.074 0-.074v.074zm0-.081c-.047 0-.047-.071 0-.071.048 0 .047.071 0 .071z" fill="#fff"/><path fill="#FFED00" d="M31.271 21.083c.073.106.59.11.714.146.205.059.593-.27.64-.225.042-.162-.334-.028-.42-.03l.159.142c-.043.052-.565.083-.45-.121l.137.113.096-.087c-.104-.05-.032-.051-.043-.122l-.174.035.126-.143c-.049-.037-.093-.008-.097-.102-.048.081-.073.035-.134.044l.044.186-.138-.113c-.044.057.021.092-.096.087.103.053.031.049.043.122l.175-.035c.005.207-.246.151-.286-.001-.052.162-.31.11-.262-.069l.172.082.077-.115c-.12-.025-.046-.044-.077-.115l-.172.082.094-.181c-.061-.025-.099.015-.129-.081-.03.095-.068.056-.129.081l.093.181-.172-.082c-.031.07.044.09-.077.115l.077.115.172-.082c.05.18-.209.23-.262.069-.04.151-.291.208-.285.001l.174.035c.012-.073-.06-.069.043-.122-.115.005-.052-.03-.096-.087l-.138.113.044-.186c-.061-.009-.085.037-.134-.044-.004.094-.048.065-.097.102l.126.143-.174-.035c-.012.071.061.072-.043.122l.096.087.138-.113c.114.204-.407.172-.45.121l.159-.142c-.086.001-.463-.132-.42.03.047-.045.436.284.64.225.127-.036.642-.039.716-.146.082.12-.083.12 0 0z"/><path d="M30.818 21.294c-.125.012-.12.063.005.051s.122-.062-.005-.051zm.905 0c.125.012.12.063-.005.051s-.121-.062.005-.051z" fill="#008E5B"/><path d="M30.65 20.9c-.079 0-.079.118 0 .118s.08-.118 0-.118zm.622-.082c-.079 0-.079.118 0 .118.08 0 .081-.118 0-.118zm-1.198.232c-.039.024.021.125.061.101.039-.024-.021-.125-.061-.101zm1.817-.15c.079 0 .079.118 0 .118s-.08-.118 0-.118zm.577.15c.04.024-.021.125-.061.101-.039-.024.021-.125.061-.101zm-1.101.276c.025 0-.12-.095-.214-.016 0 .037.195.014.214.016zm-1.003.089l.118-.024-.118.024zm1.813 0l-.118-.024.118.024z" fill="#E40520"/><path d="M30.574 20.198c-.047 0-.047.071 0 .071v-.071zm.067-.062c-.047 0-.047.071 0 .071v-.071zm.08-.045c-.047 0-.047.071 0 .071.048 0 .049-.071 0-.071zm.094-.029c-.047 0-.047.071 0 .071v-.071zm.089-.014c-.047 0-.047.071 0 .071.048 0 .049-.071 0-.071zm.092.004c-.047 0-.047.071 0 .071v-.071zm.082.021c-.047 0-.047.071 0 .071v-.071zm.079.031c-.047 0-.047.071 0 .071v-.071zm-.63.17c-.047 0-.047.071 0 .071.048 0 .048-.071 0-.071zm-.028.088c-.047 0-.047.071 0 .071v-.071zm.007.09c-.047 0-.047.071 0 .071v-.071zm.034.082c-.047 0-.047.071 0 .071v-.071zm.049.071c-.047 0-.047.07 0 .07v-.07zm-.11-.405c-.047 0-.047.071 0 .071v-.071zm-.088-.012c-.047 0-.047.071 0 .071v-.071zm-.088.004c-.047 0-.047.071 0 .071v-.071zm-.094.019c-.047 0-.047.071 0 .071v-.071zm-.085.034c-.047 0-.047.071 0 .071v-.071zm-.081.047c-.047 0-.047.07 0 .07v-.07zm-.069.059c-.048 0-.048.071 0 .071.047 0 .048-.071 0-.071zm-.058.073c-.047 0-.047.07 0 .07v-.07zm-.038.082c-.047 0-.047.071 0 .071v-.071zm-.02.088c-.047 0-.047.07 0 .07v-.07zm-.002.094c-.047 0-.047.071 0 .071.048-.001.048-.071 0-.071zm.017.085c-.047 0-.047.071 0 .071v-.071zm.03.075c-.047 0-.047.071 0 .071v-.071zm2.065-.65c.047 0 .047.071 0 .071v-.071zm-.068-.062c.047 0 .047.071 0 .071v-.071zm-.08-.045c.047 0 .047.071 0 .071v-.071zm-.093-.029c.048 0 .048.071 0 .071-.048-.001-.048-.071 0-.071zm-.09-.014c.047 0 .047.071 0 .071v-.071zm-.092.004c.047 0 .047.071 0 .071v-.071zm-.082.021c.047 0 .047.071 0 .071v-.071zm-.078.031c.047 0 .047.071 0 .071v-.071zm.63.17c.047 0 .047.071 0 .071v-.071zm.027.088c.047 0 .047.071 0 .071v-.071zm-.007.09c.047 0 .047.071 0 .071v-.071zm-.034.082c.047 0 .047.071 0 .071v-.071zm-.048.071c.047 0 .047.07 0 .07-.048.001-.048-.07 0-.07zm.11-.405c.047 0 .047.071 0 .071v-.071zm.088-.012c.047 0 .047.071 0 .071v-.071zm.088.004c.047 0 .047.071 0 .071v-.071zm.093.019c.048 0 .048.071 0 .071-.047 0-.048-.071 0-.071zm.086.034c.047 0 .047.071 0 .071-.047-.001-.048-.071 0-.071zm.081.047c.047 0 .047.07 0 .07v-.07zm.069.059c.047 0 .047.071 0 .071v-.071zm.057.073c.047 0 .047.07 0 .07v-.07zm.038.082c.047 0 .047.071 0 .071v-.071zm.021.088c.047 0 .047.07 0 .07v-.07zm.002.094c.047 0 .047.071 0 .071v-.071zm-.018.085c.047 0 .047.071 0 .071v-.071zm-.029.075c.047 0 .047.071 0 .071v-.071zm-2.239.205c-.049 0-.049.073 0 .073v-.073zm.572-.114c-.049 0-.049.073 0 .073v-.073zm1.17.114c.049 0 .049.073 0 .073v-.073zm-.572-.114c.049 0 .049.073 0 .073v-.073zm-.525.316c-.049 0-.049.073 0 .073v-.073zm-.451.062c-.049 0-.049.073 0 .073v-.073zm.903-.062c.049 0 .049.073 0 .073v-.073zm.45.062c.049 0 .049.073 0 .073v-.073z" fill="#fff"/><path fill="#E40520" d="M31.269 21.621c.041 0 .769.014.769-.094 0-.141-1.538-.141-1.538 0 0 .108.728.094.769.094z"/><path d="M29.974 20.44c-.089.11-.005.325-.022.46m2.616-.46c.088.112.004.324.022.46" fill="none"/></g></svg>