<svg xmlns="http://www.w3.org/2000/svg" width="64" height="48" viewBox="-31.5 24.5 64 48" enable-background="new -31.5 24.5 64 48"><path fill="#fff" d="M-31.5 24.5h64v48h-64z"/><path fill="#12110B" d="M.5 48.5h32v-24zM.5 48.5h-32v24zM.5 48.5l-32-24h32zM.5 48.5l32 24h-32z"/><desc/><path fill="#EFC005" d="M-5.885 43.026c.045-.064 3.594-1.106 6.338-1.106 2.743 0 6.602.994 6.602.994l-.113 1.338c.023.112-3.688-.783-6.433-.783-2.745 0-6.491.873-6.491.873l.097-1.316z"/><desc/><path fill="#E52620" d="M-.278 42.702l.786-.456.786.456-.786.471-.786-.471z"/><desc/><path fill="#E52620" d="M-6.404 43.712l.524-.465.658.385-.729.441-.453-.361z"/><desc/><path fill="#E52620" d="M7.446 43.721l-.428-.465-.687.197.585.442.53-.174z"/><desc/><path fill="#EFC005" d="M.94 39.913c.051-.207.053-.427.137-.627l.114-.233c.062-.076.136-.142.219-.189.123-.047.253-.06.384-.075l.225.136c.086.045.174.086.27.095.062.025.129.004.188-.02.078-.032.144-.087.205-.146l.061-.118.062-.177.003-.167-.025-.14.132-.062.233-.188.073-.104.089-.144.061-.144c.036-.065.066-.136.064-.212l.012-.196-.02-.218c-.032-.108-.099-.204-.189-.268l-.106-.062-.09.056-.291.149c-.09.011-.17-.045-.237-.099l-.208-.168c-.119-.073-.237-.153-.375-.186l-.117-.033-.057-.033.078-.113c.073-.066.175-.068.264-.099l.149-.084.104-.166c.028-.078.057-.166.031-.248l-.076-.191c-.119-.158-.256-.306-.428-.397l-.221-.08-.185-.002-.081-.043c-.093-.108-.176-.229-.292-.314-.072-.055-.162-.077-.247-.099-.092-.007-.187.004-.272.041l-.126.062-.14-.075-.2-.032-.218.062c-.084.036-.146.106-.207.173l-.184.219c-.1.015-.205-.015-.3.026-.132.043-.257.109-.358.208-.101.092-.192.196-.262.314l-.049.186.046.209c.039.065.074.144.145.177l.188.077c.085.016.177.049.224.129l.019.092-.111.022-.149.045c-.12.051-.226.129-.335.196-.088.065-.161.155-.262.2-.052.031-.118.031-.167-.002l-.251-.129c-.038-.028-.091-.073-.138-.034l-.097.084c-.081.069-.131.172-.155.275l-.008.228.016.168.042.146.077.178.078.131.132.17.223.163.104.058-.034.137c-.01.091.005.181.038.263l.076.167.128.113c.062.043.134.071.208.081l.155-.028c.122-.041.241-.098.342-.182l.123-.027c.115.019.235.027.343.078l.167.135.129.229c.04.084.071.174.086.268l.088.475.113.148.131.054c.064.018.132-.008.188-.04l.087.017c.058.026.128.045.188.01l.126-.065.102-.167-.002-.024z"/><desc/><path fill="#88685E" d="M.585 36.188v.532h-.208v-.532h.208m0 2.022v.472h-.208v-.472h.208"/><desc/><path fill="#EFC005" d="M-4.658 41.662c.354-.054.585-.378.719-.69.098-.234.167-.482.21-.731.038-.213.253-.366.461-.318.219.022.355.214.478.379.144.16.357.222.538.326.381.175.812.315 1.231.217.371-.104.689-.456.705-.857.006-.142-.086-.44-.263-.34-.098.137-.129.334-.292.417-.225.145-.539-.055-.543-.318.001-.231.188-.396.296-.58.169-.233.468-.383.751-.308.412.075.692.483.763.885.103.598-.199 1.21-.658 1.567-.336.267-.779.324-1.191.305-.591-.032-1.149-.284-1.644-.603-.172-.016-.148.245-.245.344-.216.399-.597.747-1.029.92-.398.155-.719.164-1.126.084-.286-.067-.572-.14-.849-.237-.319-.127-.636-.305-.85-.585-.208-.34-.302-.741-.333-1.138-.021-.271.03-.536.084-.798.022-.174-.132-.295-.245-.399-.252-.2-.589-.262-.901-.219-.18.062-.289-.106-.403-.219-.136-.092-.303-.135-.463-.166-.132-.018-.269-.042-.397-.004-.208-.004-.105-.228-.014-.319.188-.223.502-.245.768-.207.177.049.246-.122.295-.258.138-.259.318-.493.521-.701.322-.29.722-.494 1.149-.554.11.009.359-.118.371.05l-.291.514c-.095.116-.146.284.04.331.166.061.285.228.466.246.333-.02.667-.021 1-.033.132.362.019.779-.219 1.068-.166.082-.048.267.058.338.08.065.256.235.046.236-.357.077-.689.354-.756.731-.063.334.034.678.218.951.162.248.412.426.67.553.279.105.581.144.874.12z"/><desc/><path fill="#E31013" d="M.391 61.5c6.742 0 6.764-6.49 6.764-6.49v-10.308h-13.527v10.308c-.001 0-.017 6.49 6.763 6.49z"/><desc/><path fill="#fff" d="M.406 58.581c3.672 0 4.094-4.081 4.094-4.081v-7h-8v7s.22 4.081 3.906 4.081z"/><desc/><path d="M.174 35s.145.127.29.127l.29-.127s.048.845-.29.845c-.324 0-.29-.845-.29-.845z" fill="none"/><desc/><path fill="#EFC005" d="M5.658 41.662c-.354-.054-.585-.378-.72-.69-.098-.234-.166-.482-.21-.731-.037-.213-.252-.366-.46-.318-.219.022-.356.214-.479.379-.143.16-.357.222-.537.326-.382.175-.812.315-1.231.217-.372-.104-.689-.456-.704-.857-.008-.142.085-.44.262-.34.098.137.128.334.291.417.226.145.54-.055.543-.318-.001-.231-.188-.396-.296-.58-.17-.233-.467-.383-.752-.308-.412.075-.691.483-.763.885-.101.598.2 1.21.659 1.567.336.267.78.324 1.192.305.591-.032 1.148-.284 1.643-.603.172-.016.148.245.245.344.216.399.552.747.984.92.42.11.765.164 1.171.084.285-.067.572-.14.849-.237.319-.127.636-.305.85-.585.208-.34.303-.741.333-1.138.021-.271-.031-.536-.085-.798-.022-.174.133-.295.245-.399.252-.2.589-.262.902-.219.18.062.289-.106.403-.219.137-.092.302-.135.462-.166.133-.018.27-.042.397-.004.208-.004.106-.228.016-.319-.189-.223-.503-.245-.769-.207-.176.049-.247-.122-.295-.258-.139-.259-.319-.493-.521-.701-.321-.29-.722-.494-1.148-.554-.11.009-.36-.118-.372.05l.291.514c.096.116.147.284-.039.331-.166.061-.287.228-.466.246-.333-.02-.667-.021-1-.033-.133.362-.019.779.219 1.068.166.082.047.267-.059.338-.078.065-.256.235-.045.236.356.077.689.354.755.731.063.334-.033.678-.217.951-.162.248-.411.426-.671.553-.278.105-.581.144-.873.12z"/><desc/><path fill="#034D7F" d="M9.478 38.971c.168.173.082.555-.192.856-.274.302-.63.408-.798.236h-.002c-.166-.172-.08-.555.192-.856.274-.302.632-.408.8-.236z"/><desc/><path d="M7.902 38.125c.157.26.358.492.278.904" fill="none"/><desc/><path d="M8.436 37.53c.362.27.485.539.604.809" fill="none"/><desc/><path fill="#DFDCD8" d="M5.437 37.922c.002.435-.229.79-.516.79-.285 0-.516-.354-.516-.789v-.001c0-.435.231-.789.516-.789.285 0 .516.352.516.789z"/><desc/><path fill="#DFDCD8" d="M5.741 39.608c-.216.376-.589.56-.836.411-.246-.148-.27-.571-.055-.946l.001-.002c.216-.375.589-.56.835-.411.246.15.271.573.055.948z"/><desc/><path fill="#DFDCD8" d="M4.625 39.039c.008.435-.217.792-.502.797-.285.007-.521-.343-.53-.777v-.002c-.007-.436.218-.792.503-.797.284-.007.521.343.53.777l-.001.002z"/><desc/><path fill="#034D7F" d="M-8.478 38.971c-.167.173-.083.555.192.856.273.302.631.408.798.236h.001c.167-.172.081-.555-.192-.856-.274-.302-.631-.408-.799-.236z"/><desc/><path d="M-6.903 38.125c-.157.26-.358.492-.279.904" fill="none"/><desc/><path d="M-7.437 37.53c-.361.27-.483.539-.604.809" fill="none"/><desc/><path fill="#DFDCD8" d="M-4.438 37.922c0 .435.23.79.516.79.286 0 .517-.354.517-.789v-.001c0-.435-.23-.789-.516-.789-.286 0-.517.352-.517.789z"/><desc/><path fill="#DFDCD8" d="M-4.74 39.608c.215.376.59.56.835.411.246-.148.27-.571.055-.946l-.001-.002c-.215-.375-.589-.56-.835-.411-.245.15-.271.573-.054.948z"/><desc/><path fill="#DFDCD8" d="M-3.625 39.039c-.008.435.217.792.502.797.285.007.522-.343.531-.777v-.002c.007-.436-.219-.792-.503-.797-.284-.007-.521.343-.529.777l-.001.002z"/><desc/><path d="M-.73 36.84c.641 0 1.186.615 1.196.626.01.01 1.196.75 1.196 1.341" fill="none"/><desc/><path d="M1.662 36.84c-.643 0-1.186.615-1.196.626-.01.01-1.196.75-1.196 1.341" fill="none"/><desc/><path fill="#034D7F" d="M.866 37.466c0 .406-.179.735-.4.735-.221 0-.399-.329-.399-.735 0-.405.178-.734.399-.734.221-.001.4.328.4.734z"/><desc/><path fill="#034D7F" d="M-2.623 42.59c.39-.066.736.061.773.283.036.224-.251.458-.642.525-.391.066-.737-.061-.773-.283-.035-.21.219-.434.582-.514"/><desc/><path fill="#034D7F" d="M4.019 42.661c-.391-.067-.737.06-.773.282-.037.225.25.459.642.526.391.066.736-.061.773-.284.035-.222-.251-.457-.642-.524z"/><desc/><path d="M-1.778 38.208s.511-.68 1.109-.68" fill="none"/><desc/><path d="M2.709 38.208s-.511-.68-1.109-.68" fill="none"/><desc/><path fill="#034D7F" d="M.443 51.422c.92 0 .853-.943.853-.943v-1.505h-1.705v1.505s-.071.943.852.943z"/><desc/><path fill="#fff" d="M.24 49.609c0 .116-.092.209-.205.209-.112 0-.204-.093-.204-.209s.092-.21.204-.21c.114 0 .205.094.205.21z"/><desc/><path fill="#fff" d="M1.046 50.708c0 .115-.091.21-.204.21-.112 0-.204-.095-.204-.21 0-.117.092-.21.204-.21.114 0 .204.093.204.21z"/><desc/><path fill="#fff" d="M.644 50.158c0 .117-.092.21-.204.21-.114 0-.205-.095-.205-.21 0-.116.092-.208.205-.208.112 0 .204.094.204.208z"/><desc/><path fill="#fff" d="M.24 50.708c0 .115-.092.21-.205.21-.112 0-.204-.095-.204-.21 0-.117.092-.21.204-.21.114 0 .205.093.205.21z"/><desc/><path fill="#fff" d="M1.046 49.609c0 .116-.091.209-.204.209-.112 0-.204-.093-.204-.209s.092-.21.204-.21c.114 0 .204.094.204.21z"/><desc/><path fill="#034D7F" d="M.443 57.672c.92 0 .853-.942.853-.942v-1.504h-1.705v1.504c0-.001-.071.942.852.942z"/><desc/><path fill="#034D7F" d="M.443 54.547c.92 0 .853-.942.853-.942v-1.506h-1.705v1.506c0-.001-.071.942.852.942z"/><desc/><path fill="#034D7F" d="M-1.782 54.547c.919 0 .852-.942.852-.942v-1.506h-1.705v1.506c0-.001-.072.942.853.942z"/><desc/><path fill="#034D7F" d="M2.668 54.547c.921 0 .854-.942.854-.942v-1.506h-1.707v1.506c0-.001-.071.942.853.942z"/><desc/><path fill="#fff" d="M.24 52.775c0 .114-.092.208-.205.208-.112 0-.204-.094-.204-.208 0-.117.092-.21.204-.21.114-.001.205.093.205.21z"/><desc/><path fill="#fff" d="M1.046 53.872c0 .116-.091.208-.204.21-.112 0-.204-.094-.204-.21 0-.117.092-.21.204-.21.114 0 .204.095.204.21z"/><desc/><path fill="#fff" d="M.644 53.323c0 .117-.092.21-.204.21-.114 0-.205-.094-.205-.21s.092-.208.205-.208c.112 0 .204.092.204.208z"/><desc/><path fill="#fff" d="M.24 53.872c0 .116-.092.208-.205.21-.112 0-.204-.094-.204-.21 0-.117.092-.21.204-.21.114 0 .205.095.205.21z"/><desc/><path fill="#fff" d="M1.046 52.775c0 .114-.091.208-.204.208-.112 0-.204-.094-.204-.208 0-.117.092-.21.204-.21.114-.001.204.093.204.21z"/><desc/><path fill="#fff" d="M.24 55.899c0 .115-.092.209-.205.209-.112 0-.204-.095-.204-.209 0-.117.092-.21.204-.21.114 0 .205.095.205.21z"/><desc/><path fill="#fff" d="M1.046 56.998c0 .116-.091.21-.204.21-.112 0-.204-.095-.204-.21 0-.117.092-.211.204-.211.114 0 .204.094.204.211z"/><desc/><path fill="#fff" d="M.644 56.449c0 .116-.092.209-.204.209-.114 0-.205-.094-.205-.209s.092-.209.205-.209c.112-.001.204.093.204.209z"/><desc/><path fill="#fff" d="M.24 56.998c0 .116-.092.21-.205.21-.112 0-.204-.095-.204-.21 0-.117.092-.211.204-.211.114 0 .205.094.205.211z"/><desc/><path fill="#fff" d="M1.046 55.899c0 .115-.091.209-.204.209-.112 0-.204-.095-.204-.209 0-.117.092-.21.204-.21.114 0 .204.095.204.21z"/><desc/><path fill="#fff" d="M-1.981 52.775c0 .114-.092.208-.204.208-.113 0-.205-.094-.205-.208 0-.117.091-.21.205-.21.112-.001.204.093.204.21z"/><desc/><path fill="#fff" d="M-1.174 53.872c0 .116-.091.208-.204.21-.113 0-.205-.094-.205-.21 0-.117.091-.21.205-.21.113 0 .204.095.204.21z"/><desc/><path fill="#fff" d="M-1.577 53.323c0 .117-.092.21-.205.21-.113 0-.206-.094-.206-.21s.092-.208.204-.208c.116 0 .207.092.207.208z"/><desc/><path fill="#fff" d="M-1.981 53.872c0 .116-.092.208-.204.21-.114 0-.205-.094-.205-.21 0-.117.091-.21.205-.21.112 0 .204.095.204.21z"/><desc/><path fill="#fff" d="M-1.174 52.775c0 .114-.091.208-.204.208s-.205-.094-.205-.208c0-.117.091-.21.205-.21.113-.001.204.093.204.21z"/><desc/><path fill="#fff" d="M2.47 52.775c0 .114-.092.208-.205.208-.114 0-.205-.094-.205-.208 0-.117.092-.21.205-.21.113-.001.205.093.205.21z"/><desc/><path fill="#fff" d="M3.276 53.872c0 .116-.092.208-.205.21-.113 0-.204-.094-.204-.21 0-.117.091-.21.204-.21.113 0 .205.095.205.21z"/><desc/><path fill="#fff" d="M2.873 53.323c0 .117-.092.21-.205.21-.112 0-.205-.094-.205-.21s.092-.208.205-.208c.115 0 .205.092.205.208z"/><desc/><path fill="#fff" d="M2.47 53.872c0 .116-.092.208-.205.21-.114 0-.205-.094-.205-.21 0-.117.092-.21.205-.21s.205.095.205.21z"/><desc/><path fill="#fff" d="M3.276 52.775c0 .114-.092.208-.205.208-.113 0-.204-.094-.204-.208 0-.117.091-.21.204-.21.113-.001.205.093.205.21z"/><desc/><path fill="#034D7F" d="M-4.741 47.218l.128-.063-.032-.13v-.158c0-.287-.191-.287-.191 0v.16l-.033.128.128.063z"/><desc/><path d="M-4.741 47.218l.128-.063-.032-.13v-.158c0-.287-.191-.287-.191 0v.16l-.033.128.128.063z" fill="none"/><desc/><path fill="#034D7F" d="M-4.741 52.829l.128-.064-.032-.129v-.157c0-.287-.191-.287-.191 0v.159l-.033.127.128.064z"/><desc/><path d="M-4.741 52.829l.128-.064-.032-.129v-.157c0-.287-.191-.287-.191 0v.159l-.033.127.128.064z" fill="none"/><desc/><path fill="#034D7F" d="M5.695 47.219l.127-.064-.032-.129v-.158s-.191-.287-.191 0v.16l-.033.128.129.063z"/><desc/><path d="M5.695 47.219l.127-.064-.032-.129v-.158s-.191-.287-.191 0v.16l-.033.128.129.063z" fill="none"/><desc/><path fill="#034D7F" d="M5.695 52.829l.127-.064-.032-.13v-.157s-.191-.287-.191 0v.16l-.033.127.129.064z"/><desc/><path d="M5.695 52.829l.127-.064-.032-.13v-.157s-.191-.287-.191 0v.16l-.033.127.129.064z" fill="none"/><desc/><path fill="#034D7F" d="M-3.563 58.293l.081-.116-.09-.1-.077-.138s-.307-.159-.168.093l.078.14.034.127.142-.006z"/><desc/><path d="M-3.563 58.293l.081-.116-.09-.1-.077-.138s-.307-.159-.168.093l.078.14.034.127.142-.006z" fill="none"/><desc/><path fill="#034D7F" d="M4.475 58.287l.144.006.037-.129.076-.138c.139-.251-.029-.344-.168-.094l-.078.141-.089.096.078.118z"/><desc/><path d="M4.475 58.287l.144.006.037-.129.076-.138c.139-.251-.029-.344-.168-.094l-.078.141-.089.096.078.118z" fill="none"/><desc/><path fill="#034D7F" d="M.4 60.902l.126-.063-.03-.13-.001-.157s-.191-.287-.191 0v.159l-.032.128.128.063z"/><desc/><path d="M.4 60.902l.126-.063-.03-.13-.001-.157s-.191-.287-.191 0v.159l-.032.128.128.063z" fill="none"/><desc/><path fill="#DFDCD8" d="M5.865 43.429c-.045.128-.221.183-.392.121-.172-.06-.274-.214-.229-.342.047-.127.221-.183.393-.121.172.06.275.214.228.342z"/><desc/><path fill="#DFDCD8" d="M2.498 42.854c-.023.086-.15.137-.283.113-.134-.023-.224-.112-.201-.199.022-.086.149-.137.282-.113s.224.113.202.199z"/><desc/><path fill="#DFDCD8" d="M-.781 42.779c-.001.095-.112.176-.248.182-.136.006-.246-.067-.245-.162.002-.096.113-.178.249-.182.136-.006.245.066.244.162z"/><desc/><path fill="#DFDCD8" d="M-3.898 43.26c.034.133-.082.275-.257.32-.176.045-.346-.025-.38-.158-.034-.132.082-.274.258-.319.175-.045.345.025.379.157z"/><desc/><path fill="#EFC005" d="M-6.136 42.793c0 .003 3.746-1.127 6.643-1.127s6.697 1.11 6.701 1.133l-.065.221s-3.691-1.046-6.588-1.046-6.71 1.104-6.71 1.124l.019-.305z"/><desc/><path fill="#EFC005" d="M-6.172 44.35c.003.023 3.783-.908 6.68-.908s6.591.857 6.57.835v.358c.046-.045-3.688-.879-6.585-.879s-6.709.879-6.69.899l.025-.305z"/></svg>