<svg xmlns="http://www.w3.org/2000/svg" width="64" height="48"><path fill="#00633A" d="M0 0h64v16h-64z"/><path fill="#E9511D" d="M0 32h64v16h-64z"/><path fill="#FFED00" d="M0 16h64v16h-64z"/><circle fill="#0096DC" cx="31.829" cy="23.989" r="11.999"/><path fill="#FFED00" d="M31.993 28.544l-.074 5.03h-.182l-.075-5.03zM36.237 25.22l4.762 1.626-.057.172-4.806-1.484zM34.388 20.156l3.016-4.026.148.107-2.897 4.114zM29 20.351l-2.896-4.114.147-.106 3.017 4.026zM27.521 25.534l-4.808 1.485-.056-.173 4.762-1.626zM31.174 16.487l-1.484 4.559h-6.919l1.326.965h5.278l-.602 1.852.82.598 2.084-6.417zM24.489 22.293l3.876 2.818-2.137 6.582 1.328-.963 1.631-5.019 1.575 1.144.821-.595-5.458-3.965zM27.944 30.445l3.879-2.815 5.599 4.066-.505-1.559-4.271-3.103 1.576-1.145-.312-.965-5.459 3.967zM36.767 29.677l-1.48-4.56 5.598-4.067-1.64-.002-4.27 3.102-.603-1.851-1.014-.002 2.086 6.417zM38.763 21.051l-4.794-.001-2.139-6.581-.508 1.558 1.631 5.021h-1.947l-.316.964 6.748-.001z"/></svg>