<svg xmlns="http://www.w3.org/2000/svg" width="64" height="48"><path fill="#52B5E0" d="M0 0h64v48h-64z"/><path fill="#262D62" d="M0 0h32v24h-32z"/><path fill="#fff" d="M32 .02h-3.9l-8.008 5.969v-5.989h-8.183v6.014l-8.042-5.994h-3.867v2.913l6.758 5.071h-6.758v7.99h6.758l-6.758 5.071v2.914h3.867l8.042-5.995v6.014h8.183v-5.989l8.008 5.97h3.9v-2.914l-6.792-5.071h6.792v-7.99h-6.792l6.792-5.071z"/><path fill="#DC2F34" d="M29.485.02l-10.68 7.989h2.556l10.639-7.989zM32 23.979l-10.65-7.985h2.567l8.083 6.081zM10.702 8.009l-10.702-7.989v1.908l8.122 6.081zM10.68 15.994l-10.68 7.985h2.555l10.682-7.985zM32 9.662h-13.655v-9.66h-4.69v9.66h-13.655v4.678h13.655v9.66h4.69v-9.66h13.655z"/><path fill="#fff" d="M39.083 17.127c0 4.478-.194 8.998.013 13.471.192 4.169 1.663 7.977 5.12 10.473.727.525 1.5.984 2.294 1.399.647.339 2.192 1.387 2.865 1.083 1.969-.888 3.903-1.943 5.527-3.385 4.98-4.422 4.024-11.357 4.024-17.361 0-.424.072-5.68-.064-5.68h-19.779z"/><path fill="#D21036" d="M39.079 30.053c.012.515.208 3.82.512 3.82l1.609-.001 7.53-.004 7.757-.004 1.891-.001c.479 0 .586-3.22.605-3.811-6.634.001-13.269.001-19.904.001zm8.016-6.6l.005 14.816.001 3.408v.827c0 .46 1.057.678 1.42.846.116.054.628.381.752.303.429-.272.869-.527 1.317-.767.396-.209.325-.154.325-.536l-.001-2.715-.004-12.637-.001-3.451c0-.202-3.353-.094-3.814-.094zm-8.039-6.383h18.425c.217 0 1.307-.159 1.474 0 .093.088 0 .775 0 .895v6.085c0 .228-12.896.11-14.019.11h-5.838c-.085 0-.042-6.047-.042-6.67v-.42z"/><path fill="#F6EFEC" d="M40.137 20.396c.842.054.863 1.654.01 1.654-.85.008-.856-1.654-.01-1.654z"/><path fill="#FFD207" d="M54.703 19.958c.493-.039 1.175-.103 1.546-.467.238-.233-.205-1.964.759-.945-.127-.667-1.724-.266-1.202-1.351-.463.302-.072.611-.072.995-.436-.193-.673-.417-1.216-.408-.702.012-1.405.178-2.094.298-1.332.23-2.519.178-3.837-.136.482-.383-.515-.316-.689-.278-.429.091-.971.301-1.116-.25-.158.083-.027.551.121.525-.316.055-.498.118-.264.52.1-.474.426-.391.942-.254.248.065.545.196.808.146l.223-.127c1.191.298 2.396.261 3.595.045 1.071-.192 2.523-.681 3.469.112 1.231 1.032-.725 1.24-1.416 1.305l.443.27zm-1.282.281c-.234 0-.491.056-.698.161-.216.109-.607 1.052-.597 1.052.132 0 .39-.257.501-.334-.326.649.207 1.749-.694 1.83-.496.044-.749-.263-1.198-.452-.466-.196-.62.348-.84.314.214.033.688-.58.723-.02-.369-.032-.479-.166-.668.299.312-.263.312-.123.549-.123-.192 0-.287.421-.367.421.323 0 .202-.334.646-.175.467.14.963.233 1.451.194.317-.025.754-.062.67-.44-.26-1.165.235-2.102 1.44-2.393-.105-.07-.918-.241-.918-.334zm-9.356 2.199c.423.382 1.339.219 1.838.164 1.055-.117 2.098-.352 3.121-.625.823-.22 1.672-.452 2.447-.815.664-.312 1.499-.844 1.499.396.074-.295.195-.639.195-.949.312.313.457.839.569 1.249.027-.347-.152-.942-.041-1.263-.042.12.514.974.611 1.104-.054-.263-.106-.526-.146-.791.36.37.75.741 1.194 1.008.536.323 1.573-.246 1.931.118.348.349 1.111 1.215.179 1.231-.728.013-.506.319-.324.81.041-.103-.055-.387.13-.404.115.094.169.217.163.369.018-.066-.016-.422.113-.422.14-.031.206.319.245.387-.133-.446.178-.411.497-.537.503-.198.089-.667-.105-.934-.321-.44-.248-.715-.4-1.175-.132-.398-.819-.12-1.075-.063-.909.203-1.01-.077-1.354-.802-.365-.77-1.088-1.212-1.938-1.255-3.211-.162-6.198 2.666-9.364 1.58l.015 1.619zm-1.151-.582c-.358.435-.973 1.189-1.597 1.166-.465-.033-.798-.405-1.129-.686-.31-.262-.406-.182-.344-.677.079.019.04.326.099.386-.056-.058-.055-.433.089-.43.061-.006.101.44.118.482.047-.046-.097-.493.017-.495.023 0 .305.71.404.795.385.323.739.384 1.129.088.282-.214.94-1.179 1.214-.629zm.028-.668c-.31-.483-.716-1.078-1.256-1.319-.448-.2-.933.086-1.325.284-.355.179-.463.044-.463.538l.146-.317c-.072.042-.094.372.033.397.056.017.154-.362.179-.397.042.053-.164.408-.048.437.016.004.39-.557.501-.61.439-.207.793-.16 1.123.17.243.243.749 1.234 1.11.817zm-.39-.387l-.863.458.636.175-.457.563.651-.229-.048.757.374-.493.244.686.26-.512.31.564.13-.546.376.546.129-.739.456.457-.064-.774.554.194-.343-.599.57-.034c-.214 0-.59-.425-.83-.493-.143-.033-.339.003-.483.004l-1.602.015zm.455-.2l-.472.259.348.099-.249.319.355-.129-.027.428.207-.278.133.389.144-.29.168.318.072-.309.204.309.071-.417.251.259-.036-.439.303.111-.188-.34.312-.02c-.214 0-.457-.278-.749-.276l-.847.007zm.245-1.243c-.097-.066-.262-.174-.342 0-.109.238.212.097.212.159 0 .381-.245.6-.132 1.056.047.186.181.919.559.639.514-.38.758-.566.761-1.326.164.039.32-.173.163-.291-.065-.049-.148.103-.18.134-.084-.569-1.095-.494-1.041-.371zm-.065-.054c-.104-.318-.177-.647-.258-.972l.425.283-.251-.087.102.186c.129.258.019.118.346.22.347.109.448 0 .339-.254.108-.102.248-.218.377-.292-.013.262-.198.472-.338.671.385.108.449.413.781-.001-.071-.02-.132-.054-.182-.104l.563.037c-.257.266-.525.549-.835.753-.206-.091-.978-.228-1.069-.44z"/><path fill="#010202" d="M43.447 19.869l.087.078-.34-.174.253.096zm.489.212c-.093-.094.145.083.088.077l-.341-.173.253.096zm-.314.584l.189.083c-.119-.077-.514-.071-.699-.191-.057-.038.576.132.51.108zm-.031-.28c.287.05-.21-.066-.22-.066.077-.001.15.021.22.066zm-.117.073c-.012-.26-.036.197-.036.197l.036-.197z"/><path fill="#0C7633" d="M40.562 34.892l-.392-.688c.23.278.604.556.584.945l-.192-.257zm.11.074l.062-.499c.073.259.283.55.02.699l-.082-.2zm-.144.169l-.658-.345c.318.1.624.181.901.371l-.243-.026zm.198.213l-1.002-.288c.351.014.704.007 1.049.074l-.047.214zm.055-.328l.613-.099c-.14.472-.301.358-.68.223l.067-.124zm.346.201l.779.322c-.503-.074-.768-.164-1.205-.419l.426.097zm.109.173l.831.472c-.55-.202-.892-.388-1.354-.746l.523.274zm.005.163l.48.711c-.341-.365-.721-.71-.982-1.14l.502.429zm-.123.015l.012.459c-.156-.291-.37-.571-.395-.907l.383.448zm-.186-.142c-.103.105-.244.188-.361.277.009-.271.174-.902.361-.277zm-.459-.548l-.265-.39c.195.208.395.4.536.652l-.271-.262zm.191.165l-.263-.491c.157.221.341.427.435.681l-.172-.19zm.021.151l-.694-.304c.287.087.583.151.841.311l-.147-.007zm.182-.04l.636.19c-.247-.039-.694-.069-.636-.19zm.029.161l-.191.124.087-.277.104.153zm.27.121l.407.511c-.249-.265-.502-.517-.764-.768l.357.257zm-.108-.177l.115-.136.039.259c-.123-.048-.281-.097-.389-.172l.235.049zm-.438-.293l-.173-.513c.12.227.269.438.309.693l-.136-.18z"/><path fill="#fff" d="M42.562 36.121c.312-.229.493-.601.847-.821.958-.597 2.171-.672 3.268-.595-1.092.456-1.988 1.232-2.812 2.063-.097.098-.435.558-.617.449-.331-.196-.536-.761-.686-1.096.094-.069.114.256 0 0z"/><path fill="#CACACA" d="M47.011 35.342c-.329.145-.669.315-1.028.377.211.119.535.068.765.149l-1.086.319c.23.185.585-.042.833.039-.255.021-.932.455-1.103.378.32.146.728-.126 1.054.13-.473-.033-.933.263-1.407.181.329.255.84.006 1.209.214-.454.069-.989.185-1.445.094.282.188.722.028.983.237-.385-.067-.805.189-1.182.069.254.242.763-.016.98.214-.439.203-.907.011-1.357.092.711.442 1.283 1.14 2.062 1.47-.35-.061-.698-.104-1.051-.142l.774 1.089c-.596-.425-1.175-.92-1.858-1.199-.929-.379-1.438-.488-1.976-1.41-.311-.53-.609-1.119-.748-1.724-.114-.499-.162-1.003-.838-.72.592-.102.319-.898.955-.898.401 0 .688.913.991 1.204.168.161.344.334.542.458.125.08 1.024-.595 1.236-.688.891-.397 1.822-.343 2.695.067-.516.225-1.28-.601 0 0z"/><path fill="#09612D" d="M51.419 41.185c-.134-.85.79-.961 1.161-1.539.487-.759.86-1.622 1.465-2.302.234-.743 1.019-1.515 1.448-2.174.289-.215.738-.691 1.141-.654.277.024.716.728.233.775-.301.03-.462-.561-.712-.256-.243.314-.518.618-.685.982-.341.741-.865 1.392-1.185 2.141-.594.641-.899 1.473-1.413 2.161-.314.422-.846 1.569-1.453.866-.027-.173.251.291 0 0z"/><path fill="#FFD207" d="M54.341 38.553c.012.262-.997 1.654-1.318 1.337-.244-.238 1.078-1.576 1.318-1.337zm-1.978-1.338c.103.218-.281 1.91-.706 1.74-.312-.161.399-1.866.706-1.74zm.32.226c.097.221-.344 1.902-.762 1.715-.307-.173.458-1.85.762-1.715zm.723.524c.053.255-.732 1.789-1.096 1.523-.273-.19.816-1.725 1.096-1.523zm1.503.955c-.01.26-1.136 1.565-1.426 1.222-.223-.254 1.207-1.479 1.426-1.222zm-.263-.16c.008.261-1.019 1.64-1.336 1.318-.24-.239 1.098-1.559 1.336-1.318zm-.765-.393c.049.235-.726 1.791-1.097 1.524-.265-.232.829-1.719 1.097-1.524zm-.218-.237c.055.254-.732 1.787-1.096 1.522-.278-.194.824-1.719 1.096-1.522zm.428-3.263c.055.255-.731 1.79-1.096 1.524-.274-.193.819-1.724 1.096-1.524zm.293.19c.054.256-.733 1.788-1.097 1.522-.277-.196.823-1.72 1.097-1.522zm.292.214c.05.234-.725 1.79-1.096 1.523-.268-.232.831-1.719 1.096-1.523zm.319.223c.053.256-.731 1.786-1.097 1.523-.279-.195.825-1.721 1.097-1.523zm.237.203c.052.256-.732 1.789-1.097 1.523-.273-.191.817-1.724 1.097-1.523zm1.581.891c.092.439-.558 1.389-1.009 1.528-.284.089.573-1.846 1.009-1.528zm-.243-.086c.053.255-.733 1.788-1.097 1.523-.277-.193.822-1.721 1.097-1.523zm-.217-.111c.091.441-.558 1.387-1.009 1.528-.284.088.571-1.847 1.009-1.528zm-.297-.199c.053.253-.729 1.788-1.096 1.524-.279-.194.822-1.723 1.096-1.524zm-.317-.158c.054.256-.729 1.786-1.097 1.523-.278-.196.826-1.72 1.097-1.523zm-.25-.171c.091.441-.558 1.387-1.009 1.528-.281.088.567-1.843 1.009-1.528zm-2.488 1.834c.079.228-.489 1.868-.893 1.651-.291-.195.6-1.81.893-1.651zm.141-1.669c.087.443-.558 1.388-1.011 1.528-.283.09.57-1.845 1.011-1.528zm.291.189c.092.441-.559 1.389-1.01 1.529-.287.088.575-1.849 1.01-1.529zm.292.214c.053.255-.731 1.789-1.096 1.523-.277-.195.822-1.721 1.096-1.523zm.318.224c.091.439-.557 1.388-1.009 1.527-.287.089.573-1.845 1.009-1.527zm.237.204c.053.256-.73 1.786-1.096 1.523-.279-.194.824-1.721 1.096-1.523zm1.582.89c.048.234-.728 1.792-1.096 1.523-.265-.229.826-1.718 1.096-1.523zm-.244-.086c.053.256-.729 1.785-1.096 1.523-.274-.192.82-1.725 1.096-1.523zm-.218-.112c.054.256-.73 1.788-1.097 1.523-.279-.198.829-1.72 1.097-1.523zm-.296-.198c.048.236-.728 1.792-1.097 1.523-.262-.228.824-1.719 1.097-1.523zm-.316-.158c.049.237-.725 1.789-1.097 1.523-.265-.233.832-1.718 1.097-1.523zm-.251-.173c.053.257-.729 1.788-1.096 1.525-.277-.194.823-1.722 1.096-1.525z"/><path fill="#B2802C" d="M54.734 26.029c.602-.047.322 1.519.322 1.89 0 .418.295 2.085-.317 2.085-.609.007-.323-1.482-.323-1.891 0-.421-.296-2.084.318-2.084z"/><path fill="#0C7633" d="M54.069 27.532l-1.837 1.24 1.059-1.347c.267-.341.898-.337 1.306-.433l-.528.54zm-.046-.247l-2.551.324 1.806-.651c.513-.185.851-.074 1.397.022l-.652.305zm1.293.094l.706 1.386c-.656-.613-1.099-.99-1.437-1.812l.731.426zm.305-.509l2.176 1.906c-1.133-.574-2.281-1.105-3.344-1.804l1.168-.102zm-1.737.189l-2.606-.932 2.163.021c.615.005.844.473 1.263.914l-.82-.003zm-.268-.746l-1.238-1.567 1.589 1.001c.451.285.518.865.697 1.354l-1.048-.788zm.426-.329l-.725-1.781 1.272 1.389c.232.253.021 1.149.007 1.493l-.554-1.101zm.739-.146l1.632-1.407c-.573.992-1.016 1.84-1.862 2.606l.23-1.199zm.505.189l2.1-.414c-.965.611-1.743 1.148-2.846 1.433l.746-1.019zm-.011.431l2.566.36c-1.123.186-2.088.486-3.184.168l.618-.528zm-.94 1.23l-.89.772c.358-.633.601-.989 1.162-1.446l-.272.674zm.095-.459l-1.366.857c.534-.512.966-1.017 1.646-1.306l-.28.449zm.636-.163l1.021 1.411c-.586-.534-1.146-.957-1.507-1.662l.486.251zm-.827-.269l-1.349-1.216c.649.425 1.247.782 1.767 1.356l-.418-.14zm.649-.184l1.257.212c-.521-.003-1.106-.093-1.607.09l.35-.302zm-.382-.553l.952-1.112c-.362.639-.638 1.239-.899 1.925l-.053-.813zm-.456.332l-1.035-.075 1.037-.274c.121-.032.508.657.595.78l-.597-.431zm.175.977l-1.786.725c.719-.444 1.339-.88 2.151-1.105l-.365.38z"/><path fill="#B2802C" d="M44.941 26.964c.329.265-.688 3.014-.904 2.935-.318-.103.646-3.031.904-2.935zm-1.747-.26c.372.122.26 3.098.003 3.098-.303.005-.306-3.098-.003-3.098z"/><path fill="#1B451F" d="M42.177 25.123c.42-.125.922.377.944.717-.029-.387.126-.92.539-1.052.605-.194.653.712.869.741-.306-.042-.556-.822-.889-.39-.304.396-.258 1.054-.294 1.531-.466.047-.439-.559-.626-.875-.112-.19-.302-.424-.558-.346-.066.021-.795.263-.715.193.139-.118.567-.46.73-.519zm.082.533c.439-.098.878.436.902.779-.029-1.529 2.194-.026 1.798.524.069-.096-.958-.716-1.116-.729-.489-.037-.46.722-.502 1.049-.468.016-.408-.588-.576-.915-.108-.214-.288-.454-.565-.369-.104.032-.922.26-.872.221.234-.178.654-.479.931-.56zm.107.641c.446-.06.842.511.842.856.083-1.543 1.297.926 1.196.883-.438-.19-.412-.787-.749-1.026-.123-.087-.304.873-.33 1.002-.544-.03-.357-.936-.703-1.279-.24-.24-.426.059-.555.249-.094.139-.194.303-.344.389-.076.044-.478.015-.396-.038.327-.209.687-.966 1.039-1.036z"/><path fill="#B2802C" d="M40.812 26.717c.39-.007 1.258 2.842 1.013 2.929-.288.103-1.3-2.832-1.013-2.929z"/><path fill="#1B451F" d="M41.093 24.945c-.44.046-.697.694-.596 1.022-.104-.315-.412-.725-.796-.557-.449.197-.312 1.119-.432 1.185.229-.127.248-1.017.634-.871.341.131.547.784.703 1.096.448-.133.191-.683.243-1.046.039-.277.137-.437.385-.566l.746-.276c-.252-.087-.626.003-.887.013zm.13.525c-.435.075-.657.744-.534 1.064-.122-.309-.451-.699-.822-.505-.438.229-.241 1.137-.361 1.214.218-.141.187-1.036.58-.914.349.107.588.753.762 1.054.438-.164.151-.698.182-1.065.021-.28.109-.447.349-.594l.727-.327c-.259-.068-.627.043-.883.073zm.146.632c-.427.113-.594.802-.449 1.113-.144-.298-.499-.663-.854-.437-.417.269-.146 1.157-.266 1.251.203-.16.108-1.057.505-.968.354.078.642.706.835.989.424-.201.099-.713.1-1.083.001-.282.074-.457.302-.624l.695-.391c-.26-.046-.616.1-.868.15zm3.247-1.358c.441.04.74.685.668 1.026.085-.354.359-.758.757-.789.715-.056.432.894.663 1.021-.29-.161-.295-1.072-.79-.642-.349.304-.5.855-.672 1.275-.452-.127-.243-.69-.321-1.057-.047-.221-.15-.512-.418-.533-.064-.006-.837-.046-.733-.084.171-.061.678-.221.846-.217zm-.086.533c.434.069.705.733.608 1.069.44-1.443 2.091.784 1.532 1.162.074-.05-.648-.992-.764-1.064-.482-.304-.702.437-.858.764-.444-.155-.204-.705-.261-1.075-.038-.239-.13-.534-.419-.559-.101-.008-.955-.098-.889-.117.274-.081.775-.206 1.051-.18zm-.096.641c.438.111.635.779.529 1.121.548-1.41.942 1.359.855 1.276-.353-.336-.147-.895-.391-1.245-.089-.128-.553.707-.617.819-.461-.204-.118-.883-.212-1.292-.081-.361-.293-.403-.576-.203-.152.107-.312.253-.502.293-.097.02-.464-.165-.382-.182.365-.073.958-.647 1.296-.587.411.104-.163-.029 0 0z"/><path d="M39.083 17.127c0 4.478-.194 8.998.013 13.471.192 4.169 1.663 7.977 5.12 10.473.727.525 1.5.984 2.294 1.399.647.339 2.192 1.387 2.865 1.083 1.969-.888 3.903-1.943 5.527-3.385 4.98-4.422 4.024-11.357 4.024-17.361 0-.424.072-5.68-.064-5.68h-19.779z" fill="none"/></svg>