<svg xmlns="http://www.w3.org/2000/svg" width="64" height="48"><path fill="#262D62" d="M0 0h64v48h-64z"/><path fill="#fff" d="M31.979.02h-3.895l-7.994 5.974v-5.994h-8.172v6.019l-8.028-5.999h-3.861v2.915l6.748 5.075h-6.748v7.996h6.748l-6.748 5.075v2.915h3.861l8.028-5.999v6.019h8.172v-5.994l7.994 5.974h3.895v-2.915l-6.782-5.075h6.782v-7.996h-6.782l6.782-5.075z"/><path fill="#DC2F34" d="M29.467.02l-10.663 7.995h2.552l10.623-7.995zM31.979 23.996l-10.634-7.99h2.564l8.07 6.085zM10.713 8.015l-10.684-7.995v1.91l8.109 6.085zM10.692 16.006l-10.663 7.99h2.551l10.665-7.99zM31.979 9.668h-13.634v-9.666h-4.683v9.666h-13.633v4.683h13.633v9.667h4.683v-9.667h13.634z"/><path d="M48 35.447c-1.365 0-2.57-.222-3.685-.679l-.189-.037c-.123 0-.243.045-.337.131-.263.24-.54.396-.782.439-.176.031-.328.049-.461.049-.268 0-.318-.063-.343-.113l-.045-.143c.091.083.21.13.336.13l.065-.004c.172-.022.351-.1.548-.236.14-.096.221-.256.216-.425s-.095-.324-.239-.413l-.462-.302c-.086-.06-.186-.089-.285-.089-.095 0-.189.026-.272.08-.165.108-.252.303-.222.497-.111-.224-.237-.434-.368-.6l.016.01.059-.046.093-.055c.1-.074.168-.183.192-.303h.001l.062-.052c.213-.185.43-.476.601-.765.192-.088.313-.293.287-.514l-.003-.103c.071-.243.194-.354.238-.364l.121.054-.053.046.094.089.047.083.058.095.056.082.038.14h-.005c-.478 0-.751.404-.867.576-.145.214-.103.502.097.666.23.19.511.375.834.548.073.039.154.06.236.06l.159-.026c.131-.043.237-.14.295-.265.092-.2.167-.41.218-.624l.013-.079.021-.076c.024-.135.04-.269.043-.402.307.467.178 1.017.058 1.333-.049.128-.043.27.015.393s.164.217.293.26c1.067.361 2.208.559 3.208.559 1.002 0 2.144-.198 3.214-.559.129-.043.235-.137.293-.26s.063-.265.015-.392c-.153-.404-.244-.955.109-1.406l.052.097c-.061.091-.088.203-.068.325l.013.076.029.132c.05.213.125.422.216.621.057.126.164.223.295.267l.16.026c.082 0 .163-.021.236-.06.32-.172.602-.356.834-.549.2-.164.241-.453.096-.667-.116-.172-.39-.573-.865-.573h-.005l.038-.133.118-.191.041-.075.054-.048.085-.116.025-.01c.048 0 .187.127.236.353l.006.023-.009.074c-.021.21.092.407.274.498.172.294.393.592.612.782l.071.072c.024.181.136.301.291.353l.033.076c-.122.144-.239.339-.344.548.032-.196-.055-.393-.222-.501-.083-.054-.177-.08-.271-.08-.101 0-.2.03-.286.09l-.46.301c-.144.088-.232.242-.238.41-.005.168.074.327.212.424.194.138.374.216.55.239l.065.004c.128 0 .249-.049.341-.134l-.038.116c-.025.068-.06.145-.352.145-.133 0-.285-.018-.462-.049-.242-.044-.52-.2-.781-.439-.094-.087-.215-.132-.338-.132l-.189.037c-1.114.458-2.32.68-3.686.68zm4.993-4.403l-.2.051-.232.194-.046.047.046-.047.232-.194c-.554.228-.999.507-1.317.782-.666.578-.704 1.399-.421 2.143-.973.327-2.075.532-3.055.532s-2.079-.205-3.053-.532c.283-.742.245-1.564-.42-2.143-.317-.275-.764-.555-1.317-.782l.231.194.045.046-.045-.046-.231-.194-.201-.051c-.309-.001-.621.334-.715.758l-.013.089.007.179-.007-.179.013-.089c-.114.324-.438.86-.725 1.108-.129.111-.209.217-.226.331h-.003c-.314.154-.435.58-.257.804.257.323.515.902.648 1.359l-.002-.015.012.04c.126.279.373.421.805.421.158 0 .34-.02.55-.057.353-.063.712-.271 1.03-.562 1.089.446 2.348.716 3.874.716 1.527 0 2.786-.27 3.876-.717.318.292.68.5 1.031.563.21.037.393.057.55.057.432 0 .679-.142.805-.421l.025-.077c.138-.449.383-.996.631-1.308.177-.224.057-.649-.258-.804h-.005c-.016-.114-.095-.22-.224-.331-.284-.246-.605-.775-.723-1.102v-.007c-.094-.422-.406-.756-.715-.756zm-.727.648l.098-.163-.098.163-.005.009.005-.009zm-8.541-.022l-.084-.138.084.138.015.027-.015-.027zm8.369.577c.014-.117.037-.233.077-.347-.038.109-.062.226-.077.347zm-8.185-.003l-.074-.334c.038.11.06.221.074.334zm9.808-.209l-.004-.064.004.064-.002.022.002-.022zm-11.364.269l-.002-.005.002.005zm9.725.126l.029.348.012.065-.012-.065-.029-.348zm-8.154.058v-.057.057l-.036.331v.002l-.004.019.004-.019v-.002l.036-.331zm8.403.991c-.077-.17-.142-.348-.185-.529.193-.233.352-.319.485-.319.194 0 .335.183.452.354-.209.173-.463.339-.752.494zm-8.652.001c-.289-.155-.543-.32-.753-.493.116-.172.258-.356.453-.356.134 0 .292.086.485.319-.043.182-.107.361-.185.53zm9.831 1.244c-.096-.013-.208-.067-.327-.151l.484-.316c-.039.206-.1.348-.157.467zm-11.012.001c-.058-.119-.118-.262-.157-.469l.486.317c-.12.083-.232.139-.329.152zm-.763.679zm12.54-17.388v8.774c0 3.369-1.954 7.011-6.338 8.264-4.383-1.253-6.341-4.895-6.341-8.264v-8.774h12.679z" fill="#fff"/><path fill="#FFEC96" d="M43.521 31.039c.502.206.905.459 1.193.709 1.313 1.143-.053 3.323-1.297 3.549-.711.127-1.071.016-1.228-.331-.269-.605.284-.587.683-.638.658-.087 2.154-2.208.649-3.289z"/><path fill="#DC2F34" d="M43.521 31.039c-.328-.176-.727.172-.83.64-.082.374.136.76.554 1.097.181-.271.426-.598.876-.045.195-.78-.128-1.399-.6-1.692z"/><path fill="#FFEC96" d="M52.204 31.039c-.501.206-.905.459-1.193.709-1.313 1.143.053 3.323 1.298 3.549.711.127 1.071.016 1.227-.331.27-.605-.283-.587-.683-.638-.657-.087-2.153-2.208-.649-3.289z"/><path fill="#DC2F34" d="M52.204 31.039c.327-.176.727.172.83.64.083.374-.135.76-.554 1.097-.182-.271-.426-.598-.875-.045-.195-.78.128-1.399.599-1.692z"/><path fill="#FFEC96" d="M47.861 35.436c2.56 0 4.306-.815 5.741-1.992.428-.351.345-.535.087-.76-.26-.225-.554-.71-.658-1.005.26 1.212-2.835 2.493-5.17 2.493-2.334 0-5.429-1.281-5.17-2.493-.104.295-.397.78-.656 1.005-.26.225-.343.409.086.76 1.436 1.176 3.181 1.992 5.74 1.992z"/><path d="M42.293 34.499c.25.206.468.426.537.572.356-.297.041-.616-.227-.642-.107-.01-.224.012-.31.07zm11.138 0c-.251.206-.468.426-.537.572-.357-.297-.042-.616.226-.642.108-.01.225.012.311.07z" fill="#DC2F34"/><path d="M42.989 34.766c-.016-.178-.21-.318-.385-.334-.274-.026-.578.166-.423.514-.121-.415-.354-.939-.588-1.233-.16-.202-.052-.588.233-.728.286-.138.873.174.873.564.001.754.316.817.29 1.217zm9.744 0c.016-.178.21-.318.385-.334.275-.026.579.166.424.514.121-.415.354-.939.589-1.233.159-.202.05-.588-.234-.728-.285-.138-.873.174-.873.564-.001.754-.316.817-.291 1.217z" fill="#FFEC96"/><path fill="#003671" d="M53.464 18.803v7.754c0 2.977-1.728 6.194-5.602 7.303-3.872-1.108-5.603-4.326-5.603-7.303v-7.754h11.205z"/><path fill="#823B8F" d="M50.738 23.859c.06-.017.2-.012.254.062l.332.19c.082.113.177.216.177.375l-.012.647c.004.133.023.155.143.151.141-.005.339-.017.345-.316.004-.208-.173-.336-.225-1.078.078-.077.147-.147.122-.25-.027-.104.146-.155.129-.312-.017-.155.172-.25.095-.423l.026-.321s.112-.26.035-.38c-.078-.122.103-.234.008-.381l-.043-.346c.06-.112.009-.433-.182-.614-.19-.182-.457-.277-.614-.346-.29-.129-.829-.07-1.21-.018-.381.052-1.09.104-1.305.069-.217-.034-.727-.069-1.129.01-.138.026-.295-.022-.377-.113-.065-.073-.103-.065-.164-.061-.061.004-.094-.018-.124-.104-.054-.153-.174-.048-.229-.238-.038-.127-.233-.018-.294-.125-.061-.108-.135-.122-.299-.108-.009-.064-.1-.113-.182-.095.013-.108-.077-.195-.229-.19.018-.135-.194-.238-.303-.156-.069-.1-.208-.078-.242 0-.073-.1-.307-.069-.363.039-.1-.064-.293.095-.276.347.005.069.009.141-.091.165-.187.042-.294.285-.454.32-.16.035-.319.095-.35.198l-.035.264c-.061.052.039.1.069.125l.086.129c.012.086.135.112.26.018.053-.04.143.078.29-.004.147-.083.355-.039.32.095-.018.065.021.135.068.199.048.065.119.26.078.372-.061.165.061.255.03.402s.017.282-.049.48c-.063.198-.064.448.031.518l.169.383c.095.068.038.237.216.289s.073.19.26.221c.186.029.251.186.444.15.144-.024.22.015.303.055.017.139-.021.646-.03.776l-.061.412c0 .069.12.086.26.086.139 0 .199-.064.164-.246-.034-.182-.043-.626-.033-.902.119.067.234.161.229.266-.01.167-.008.471-.031.626-.017.113.009.291.018.407.008.042.241.038.337 0s.096-.143.087-.615c-.004-.234-.217-.473.052-.588.13-.056.312-.185.381-.308.068-.12.221-.073.328-.013s.281.153.389.112c.139-.052.285.078.406 0l.377-.038.346-.095c.073-.091.376.052.483-.07.108-.122.256.034.354-.056l.09-.027c-.003.205-.035.531-.042.633l-.061.411c0 .07.121.087.259.087.14 0 .2-.066.164-.248-.033-.18.016-.628.025-.904z"/><path d="M43.743 20.704l.033-.25c.029-.098.183-.155.336-.188l.434-.302c.096-.021.092-.09.087-.155-.014-.238.17-.388.265-.327.055-.103.278-.132.349-.037.032-.073.166-.095.231 0 .104-.078.307.02.29.147.146-.004.232.078.221.18.077-.017.165.029.173.089l.093.192c-.08.057-.156.035-.247-.043-.09-.078-.393-.009-.437.03-.043.039-.09.057-.125.026l-.155-.073c-.04.004-.121.004-.169-.087-.049-.091-.169-.104-.189-.069-.022.035.046.16.116.208l.116.191c.054.034.005.151-.025.22-.03.069-.147.048-.156-.004-.009-.051-.038-.086-.107-.008-.07.078-.217.056-.251.035-.035-.022-.13-.06-.193-.039l.038.086c.008.03-.104.043-.169.043l-.048.052c.04.009.19.018.251-.017s.245 0 .264.065c.018.064-.108.091-.182.083-.108-.014-.268.056-.346.078l-.366-.009c-.085.024-.166-.078-.132-.117zm1.456.379l-.065.152c-.078.034-.051.138.018.182s.225.061.323.039c.101-.021.122.013.058.056l.086.122c-.014.069.061.057.13.052.069-.004.16-.057.237-.104.078-.047.134-.013.062.069-.074.082-.319.186-.515.173-.195-.013-.299.04-.256.113.044.074.251.086.359.047.107-.039.092.03.009.078-.082.047-.199.052-.298.047-.101-.004-.187.096-.057.152s.303.021.367.069c.063.048.264-.026.268.056.005.082-.057.112-.172.104-.117-.009-.083.053.004.087.077.029.216.029.29.02.072-.008.051.079-.022.11-.074.029-.312.072-.428.068s-.062.083.091.083c.463 0 .618-.256.734-.433.058-.086.169-.134.195-.082l-.022.108c-.052.044-.038.069.057.074.095.004.233-.026.315-.052.083-.025.324.137.125.145-.351.008-.782.154-.925.214-.143.062-.38.175-.527.169-.107-.004-.15.043-.107.099.043.056.181.056.259.031.077-.026.096 0 .043.052-.051.052-.181.075-.271.092-.092.016-.137.084-.065.111l.107.126.096.134c.104.027.164.013.242-.047s.121-.095.203-.087c.083.009.139-.035.186-.099.049-.064.208-.182.26-.126l.181.008.135.102c.024.086.126.103.194.072.069-.028.126-.103.126-.21 0-.109.025-.153.051-.035.026.116.122.151.17.096.047-.056.064-.253.029-.343-.034-.09-.038-.207-.004-.228.035-.022.117.177.151.263.033.087.125.06.131-.024.004-.087.086-.13.146-.066.061.066.025.281.043.386.018.104.186-.026.204.009.018.035.082.043.107-.031.026-.072.087-.139.121-.096l.108.199c.021.083.1.126.146.039.049-.086.084-.254.066-.372-.018-.116.012-.189.057-.129.043.061.038.225.043.358.004.134.146.122.146-.078 0-.091.044-.108.057-.056l.025.177c.032.097.143.043.155-.021.014-.066-.009-.299-.034-.403-.025-.104.025-.177.069-.121.043.057.052.205.06.368.01.165.101.173.147.126.048-.048.048-.187.026-.285-.021-.101.048-.101.078-.04.03.06.083.021.072-.026-.008-.048.036-.092.078-.026.044.065.031.211.009.329-.021.116.108.104.169.004.061-.1.03-.372-.022-.459-.05-.086-.046-.198-.017-.298.031-.099.087-.104.091-.06l.078.173c.047.056.073.065.081-.021.01-.086.053-.065.07 0 .017.065.048.117.091.061.043-.056.099-.014.064.073-.034.085-.034.165-.009.251.026.087.117.072.125-.026.02-.208.044-.069.065.022.022.091.086.087.101.033l.024-.008c0 .056.021.105.078.105.056 0 .044-.113.069-.182.025-.07.073.025.138.187.064.159.113.008.265.372.061.149.151.02.146-.031s.009-.086.082-.086.134-.016.109-.072l-.014-.277.021-.118c.013.065.057.155.124.202.069.05.117-.08.062-.163-.056-.083-.133-.277-.129-.442.003-.121.051-.082.051.004 0 .086.044.243.108.277.063.034.091-.125.06-.208-.029-.082-.046-.195.019-.216.064-.022-.019-.112-.074-.178-.057-.065-.09-.13.01-.125.099.004.017-.069-.031-.117-.047-.047-.129-.143 0-.13.13.013.087-.065.035-.108-.053-.043-.082-.126.008-.122.091.004.147-.047.14-.086-.034-.15-.251-.324-.385-.458-.135-.134-.351-.269-.468-.29-.116-.022-.12.065-.091.117.03.052.091.086.1.034.008-.052.099.005.143.074.042.069.189.155.281.233s-.122.039-.225-.065c-.06-.06-.053.013.026.095.076.083-.022.117-.104.048l-.428-.39s-.156-.095-.161-.013c-.004.083.045.138.131.208l.276.25c.082.074.014.121-.039.069l-.333-.294c-.103-.1-.198-.147-.264-.135-.064.013-.061.087.018.165.078.077.173.225.173.312 0 .086-.068.147-.104-.009-.035-.156-.199-.337-.32-.476-.121-.139-.242-.165-.332-.156-.092.009-.088.113-.088.194 0 .083-.06.035-.063-.025-.004-.061-.073-.113-.113-.109l-.038.186c-.014.057-.074.108-.074-.021 0-.13-.142-.195-.203-.2-.061-.004-.116.022-.087.078.032.056.019.208-.004.294-.021.086-.087-.065-.099-.225-.013-.16-.217-.273-.358-.226-.144.048-.035.152-.061.251-.026.1-.066.009-.079-.095-.012-.104-.082-.169-.177-.143-.095.026-.159.078-.155.147l-.018.242c-.022.112-.061.056-.057-.017.005-.074-.017-.195-.039-.264-.021-.069-.056-.004-.047.082s-.013.285-.048.407c-.035.121-.086.125-.061-.04.025-.164-.039-.406-.104-.519-.047-.081-.151-.108-.151.004s.03.194.109.277c.077.082.016.286-.062.394-.078.108-.073-.047-.048-.165.026-.117-.116-.156-.173-.177l.087-.294c.012-.078-.005-.125-.057-.13-.052-.004-.189.144-.251.251.018-.112 0-.212-.051-.212-.053 0-.109.109-.147.187-.04.078-.078.035-.04-.047.04-.083.101-.303.022-.351l-.229.113c-.047-.02.018-.143.043-.199.026-.057-.025-.1-.142.005-.117.104-.169.272-.199.376-.03.104-.238.273-.351.363-.111.091-.159.056-.103.018l.223-.208c.057-.047.031-.075-.077.007-.107.082-.304.231-.505.283-.118.03-.134.005-.018-.034s.385-.226.45-.312c.04-.054-.065-.009-.118.004-.051.013-.094-.004.01-.047.103-.043.432-.385.501-.511.069-.125.01-.173-.035-.168l-.09-.018c.013-.051-.017-.121-.073-.1-.057.022-.053.148-.074.218-.021.068-.142.16-.221.16-.078 0-.185.017-.268.083-.082.064-.121.004-.082-.048.038-.052.126-.065.212-.07.087-.004.182-.017.255-.1.073-.082.078-.146.021-.151-.056-.004-.151-.078-.182-.108-.153-.154-.435.061-.544.186-.062.069-.268.269-.333.32-.065.052-.04.126.069.026.108-.1.143-.031.042.043-.099.074-.172.182-.137.221.033.039.167-.009.242-.057.072-.047.107.07-.075.108-.122.026-.163.077-.068.082.074.005.186-.03.289-.091.104-.061.187-.026.1.034-.082.06-.272.142-.367.142z" fill="#fff"/><path d="M45.636 20.261c.104-.121.194-.173.289-.086.086.078.096.112-.013.086-.107-.026-.181 0-.245.078-.066.078-.14.047-.031-.078zm-1.713.316l.26-.183c.057-.094.117-.061.048.03l-.259.173-.049-.02zm.485-.347c.047-.007.138-.07.194-.143.056-.073.177-.1.251-.013l.151.134c.038.017.038.073-.022.091l-.186.008-.159-.026-.03-.034.12-.112.057.021c-.04.026-.021.082.017.104.039.021.117.021.151-.017l-.173-.152-.108.022c-.043.051-.146.178-.246.173-.1-.004-.072-.047-.017-.056zm2.732.824l-.078.197c-.004.061.046.102.053.026.006-.076.013-.122.066-.178l-.041-.045zm-.53-.006l.157-.111.024.032-.16.117-.021-.038zm.067.259c-.061.088-.306.295-.38.334-.073.039-.048.095.034.064-.061.057-.193.147-.28.173-.087.026-.104.104.026.057.129-.047.311-.173.358-.229l.061-.142c.073-.061.209-.171.229-.217.03-.069-.005-.1-.048-.04zm-.268.706c.093-.053.266-.239.316-.346.029-.064.09-.056.042.043s-.225.277-.285.325c-.06.047-.172.034-.073-.022zm1.967-1.025c-.025.061-.03.203-.021.272.008.069.061.121.053.018-.009-.104-.009-.208.021-.238.029-.031-.01-.156-.053-.052zm.527.255c.043.047.065.268.062.35-.004.083.067.083.063-.034-.004-.117-.013-.264-.052-.341-.038-.079-.133-.04-.073.025zm.464.142c.025.057.06.165.06.243 0 .078.056.043.061-.047.004-.091-.009-.168-.039-.229-.032-.061-.122-.049-.082.033zm.284-.073l-.087-.117.026.134c.035.066.087.056.061-.017zm-1.806.49c-.013.18-.096.341-.195.396-.099.057-.082.148.039.057.12-.091.212-.246.237-.385.026-.139-.072-.19-.081-.068zm-.217-.083c-.052.061-.081.19-.081.29 0 .099.035.026.043-.03l.067-.16c.045-.027.024-.161-.029-.1zm3.744.125l.134.312c.021.082-.03.104-.048.03l-.13-.293c-.029-.058-.008-.148.044-.049z" fill="#823B8F"/><path fill="#007A4D" d="M51.873 25.782c.338.01.766-.122.987-.335-.136-.057-.303-.083-.469-.078.08-.083.146-.172.19-.258-.104-.005-.213.012-.325.04l.046-.24c-.094.036-.186.094-.272.163l.004-.253c-.109.067-.213.166-.301.28l-.019-.241c-.079.059-.155.137-.221.228-.021-.121-.056-.232-.104-.323-.135.173-.221.462-.242.7l-.016-.233c.063-.152.103-.297.113-.43l-.185.125c-.036-.102-.081-.197-.137-.275-.066.114-.108.256-.13.403-.011-.137-.039-.264-.088-.37-.132.15-.23.375-.272.592.03-.199.03-.39-.005-.537-.088.092-.176.225-.256.37-.039-.116-.086-.219-.142-.306-.069.157-.106.356-.118.56-.021-.219-.068-.427-.145-.578-.107.179-.175.446-.196.706l-.087-.208c.042-.159.061-.316.043-.447l-.195.166c-.066-.104-.139-.19-.21-.254-.024.146-.015.327.019.513l-.065.113c-.022-.228-.077-.446-.162-.603-.087.157-.145.365-.17.575-.011-.195-.048-.381-.104-.51-.066.096-.118.215-.152.34.016-.171.005-.34-.041-.474-.077.071-.147.162-.204.262.002-.102-.008-.201-.032-.286-.109.089-.206.218-.28.359-.03-.123-.073-.236-.131-.325-.073.111-.124.255-.155.402l-.008-.208c-.101.066-.193.161-.273.269.004-.145-.011-.285-.052-.398-.13.121-.232.306-.299.493-.003-.148-.027-.291-.074-.406-.122.127-.216.317-.271.508-.026-.135-.071-.258-.131-.355-.1.142-.181.335-.206.528.048-.186.044-.377.013-.53l-.152.136-.114-.188c-.056.107-.091.239-.106.375-.014-.159-.049-.306-.108-.424-.084.104-.148.236-.192.378-.036-.177-.098-.347-.186-.469-.061.104-.103.232-.126.364-.032-.186-.095-.36-.185-.487-.065.111-.108.248-.133.392-.072-.16-.166-.3-.275-.396-.048.153-.052.339-.026.517-.116-.209-.277-.399-.446-.499-.014.113-.001.24.027.367-.107-.066-.219-.119-.323-.141.062.314.338.667.586.81 1.03.458 6.752.659 7.289.031z"/><path d="M47.864 30.295c.243 0 .578.059 1.006.26.519.241 1.471.086 1.815-.155.346-.244 1.206-.329 1.693.104.287-.477.516-.977.687-1.491-.534-.19-1.515-.587-2.189-.206-.674.38-1.59.485-1.832.344-.243-.138-.695-.483-1.18-.483s-.938.346-1.179.483c-.242.142-1.158.036-1.832-.344-.675-.381-1.661.016-2.194.206.171.515.4 1.015.687 1.491.487-.434 1.353-.349 1.697-.104.346.241 1.298.396 1.816.155.428-.201.763-.26 1.005-.26zm0-3.168c.45 0 .747.138.937.244.531.289 1.521.032 1.971-.312.451-.348.899-.243 1.557.171.341.216.738.4 1.062.4.051-.36.075-.719.075-1.074v-.382c-.466 0-.772-.085-1.206-.416-.432-.327-1.262-.588-1.867-.139-.604.451-1.346.274-1.694.053-.312-.199-.643-.346-.833-.346-.189 0-.521.146-.832.346-.349.222-1.09.398-1.695-.053-.604-.449-1.435-.188-1.866.139-.434.331-.744.416-1.211.416v.382c0 .355.023.714.075 1.074.322 0 .726-.185 1.065-.4.657-.414 1.106-.519 1.556-.171.451.344 1.44.601 1.971.312.189-.106.486-.244.935-.244zm-.002 6.732c1.061-.303 1.96-.765 2.707-1.337-.58.005-1.318-.15-1.63-.393-.312-.243-.775-.347-1.075-.347-.299 0-.764.104-1.074.347-.312.242-1.055.397-1.637.393.749.573 1.65 1.035 2.709 1.337z" fill="#fff"/><g fill="#FFEC96"><path d="M44.197 29.92c.055.208-.07.241-.126.032l-.283-1.072c-.056-.209.069-.241.125-.032l.284 1.072zm.432-.214l-1.527-.549c-.143-.052-.201-.002-.032.065.624.258.944.393 1.465.596m1.563.528c0-1.626.021-3.629.021-3.949 0-.257-.118-.301-.12 0-.009 1.09-.049 2.651-.074 3.838m2.075 1.15c0-1.626.022-5.188.022-5.509 0-.256-.12-.298-.122 0-.009 1.093-.047 4.212-.073 5.396m2-.32l.077-4.656c.004-.258-.113-.302-.12-.002-.026 1.089-.088 3.457-.133 4.64m1.674-1.582l.012-.899c.002-.12-.069-.152-.071-.002l-.017.917"/><path d="M45.344 30.287c.198 2.458 4.853 2.989 5.924-.094l-1.071-.004c-.899 1.507-3.183 1.214-4.099.156 0-.085-.017-.145-.173-.198-.472-.159-.842-.303-1.248-.455-.165-.06-.312.229-.062.328-.034.123.095.269.26.218.069.051.181.03.233-.04l.236.089zm4.922-.045l1.608-.053c.215 0 .193-.237.046-.237l.195-.632c.112-.043.129-.217-.104-.17l-1.659.32c-.121.032-.13.126-.052.174l-.083.411c-.116.033-.116.195.049.187z"/></g><path d="M45.467 27.135l1.279-.406c0 .235-.25.402-.432.347-.061.173-.255.256-.463.104-.081.042-.293.05-.384-.045zm1.471.087l-1.695.521c-.121.364-.096.787.146 1.021.261-.433.856-.528 1.331-.328-.258-.297-.043-.859.218-1.214zm-.011 1.22l-1.72.458c.095.147.39.226.51.147.294.226.675.036.766-.186.237.024.436-.164.444-.419zm1.729-2.184l-1.447.444c.147.16.385.195.515.104.172.17.397.083.479-.09.281.035.453-.207.453-.458zm.243.576l-1.644.438c-.138.486-.181 1.066.104 1.412.181-.407.829-.59 1.357-.234-.44-.335-.258-1.004.183-1.616zm-.181 1.695l-1.501.258c.053.162.273.183.369.109.198.226.505.213.665-.026.16.071.394-.048.467-.341zm1.755-1.987l-1.323.407c.095.11.272.152.39.069.186.108.488 0 .566-.177.172.035.354-.139.367-.299zm.077.506l-1.469.355c-.233.449-.295 1.11-.07 1.463.32-.502 1.15-.589 1.514-.32-.208-.329-.32-1.1.025-1.498zm-.017 1.568l-1.694.301c.104.233.405.244.54.161.264.155.574.123.7-.129.216.042.433-.053.454-.333zm-4.534-2.254c-.229.146-.627-.031-.713.396.207-.139.618.028.709-.032l.004-.364zm1.901-.52c-.229.146-.627-.031-.713.398.207-.139.617.027.708-.033l.005-.365zm1.884.418c-.231.143-.627-.041-.72.386.209-.134.618.037.71-.021l.01-.365zm1.482 2.163c-.182.114-.491-.03-.564.305.165-.105.484.029.557-.016l.007-.289z" fill="#fff"/><path d="M50.438 29.729v.298l.177-.022v-.311zM50.743 29.67v.32l.175-.026v-.329zM51.045 29.609v.341l.179-.022v-.351zM51.351 29.552v.359l.176-.02v-.373zM51.654 29.49v.382l.176-.02v-.395z"/><g fill="none"><path d="M45.344 30.287l.49.176c-.012.165.289.446.609.585m4.03-.407c-.777 1.316-3.423 1.969-5.014-.299 1.02 2.441 4.15 2.168 5.325.437m-.518-.537c.017.233.173.45.562.545m-.519-.355c-.085.115-.188.226-.297.326m-.166.145c-.17.136-.343.25-.489.326m-4.742-1.208c.069.028.166-.062.123-.15m.137.367c.061-.016.103-.139.041-.201m.192.161c.032-.033.043-.161-.031-.186"/><path d="M48.225 31.318c-.126 0-.126.188 0 .188s.128-.188 0-.188zm1.046-.155c-.125 0-.125.186 0 .186.126 0 .128-.186 0-.186zm.667-.415c-.126 0-.126.186 0 .186.124 0 .125-.186 0-.186zm-2.802.389c-.127 0-.127.188 0 .188.126-.001.128-.188 0-.188zm-.839-.415c-.126 0-.126.188 0 .188.125-.001.127-.188 0-.188z"/></g><g fill="none"><path d="M43.192 29.187l2.283-2.052.018.521M43.824 29.412l2.213-1.922M43.833 28.72l1.288 1.142M43.192 29.273l.987.823.441-.008M45.216 28.908l.571 1.196M45.7 29.057l-.259.917M45.797 29.096l-.175.943M45.895 29.134l-.09.97M46.176 29.126l.165 1.457M46.256 29.092l.301 1.652M46.331 29.04l.433 1.825M45.817 29.974c-.04.007-.146-.018-.173-.048-.052.01-.135-.012-.174-.048m.37-.155l-.151-.036-.151-.042m.324-.174l-.129-.026-.13-.034m.284-.19l-.109-.016-.106-.03m.515.034l.088-.015.087-.021m-.145.306l.108-.01.102-.021m-.18.301l.129-.004.118-.021m-.217.295h.146l.137-.016m-.252.286c.029.019.136.025.166.004l.152-.015m-.288.283c.033.021.153.03.186.006.027.017.134.013.17-.01M46.941 30.952l.653-2.044M47.17 31.046l.479-2.093M47.403 31.115l.303-2.12M46.993 30.801c.035.034.173.068.22.057.039.044.161.061.222.044m-.35-.392c.031.03.152.063.197.051.033.039.141.053.194.039m-.298-.379c.026.027.133.054.172.044.029.032.123.048.17.032m-.25-.367l.146.036c.026.03.107.043.146.03m-.201-.355l.122.031.122.024m-.152-.346l.099.024.096.021m-.101-.336l.073.02.07.016M48.902 31.144l-.621-2.262M48.639 31.197l-.427-2.28M48.375 31.225l-.226-2.246M48.853 30.978c-.039.037-.194.07-.246.054-.045.045-.181.06-.246.037m.403-.417c-.034.034-.172.063-.219.048-.04.039-.16.052-.218.033m.349-.406c-.03.028-.15.053-.192.04-.035.038-.139.048-.19.032m.293-.396l-.165.034c-.029.031-.119.039-.162.025m.238-.386l-.138.03-.135.021m.184-.375l-.11.022-.106.019m.127-.369l-.082.02-.08.013M49.075 31.091l.395-1.967M49.323 30.991l.212-1.846M49.546 30.865l.051-1.701M49.148 30.737c.033.026.16.043.2.028.039.035.147.039.199.018m-.339-.345c.029.024.139.039.176.024.033.031.127.033.173.015m-.289-.337l.149.021.148.013m-.238-.333l.125.02.123.01m-.188-.329l.1.016.098.008m-.139-.323l.075.012.071.008M50.276 29.509l-.172-.558M50.241 29.932l-.205-.913M50.256 29.837h-.034l-.146.029m.2-.357l-.122.03-.121.024m.153-.346l-.098.026-.097.02M48.026 25.838l.622.433.207.571M47.74 26.217l-.396.443M47.308 26.799l.078.441M49.902 26.245l.544.303.121.491-.034 1.567M49.392 26.601l-.234.344-.069.458M48.942 28.9c.155.476.709 1.237 1.046 1.559m-.925-1.574c.181.31.734 1.15 1.07 1.402l-.168-1.199m-1.066-2.238c.449.798 1.642 2.024 2.229 2.475m-.561-2.286c.217.538.855 1.421 1.548 2.111m-5.17-1.902c.535 1.091 1.954 3.064 2.456 3.686M44.542 28.787l-.095.858M46.115 26.304l.64.435.13.501M45.475 27.135l.278-.414"/></g><path fill="#003671" d="M43.485 33.661c-.127.202-.258.212-.324.172l-.055-.035-.015-.046.305-.485.05-.006.054.032c.065.041.112.166-.015.368l.148.093c.153-.242.005-.422-.14-.513l-.284-.18-.011.019c.032.029.065.066.034.117l-.275.437c-.031.049-.08.037-.12.021l-.01.017.282.18c.146.091.371.146.523-.097l-.147-.094zm.406-.059c.026-.055-.015-.092-.056-.121l.011-.018.565.287-.102.198-.023-.013c.062-.122-.022-.224-.082-.255l-.091-.047-.066.047-.106.209c.038.021.128.083.228-.051l.018.01-.158.314-.023-.011c.067-.169-.041-.208-.08-.229l-.107.213.001.081.091.046c.072.037.176.046.299-.062l.027.014-.148.177-.565-.288.009-.018c.046.014.102.025.129-.026l.229-.457zm.773.29c-.04-.013-.098-.015-.128.059-.03.069.004.124.103.215.072.068.127.163.078.278-.069.167-.238.124-.305.095l-.14-.087h-.053l-.019-.008.093-.224.02.01c-.032.123.008.243.108.287.087.035.149-.011.167-.053.026-.061-.01-.124-.097-.209-.077-.075-.131-.175-.089-.275.054-.131.162-.161.274-.114l.129.091.066-.012.019.008-.085.205-.019-.009c.017-.16-.054-.234-.122-.257zm.342.756c-.021.057.026.089.068.111l-.007.019-.356-.124.006-.02c.048.01.104.014.125-.045l.169-.485c.021-.058-.028-.089-.069-.111l.007-.019.356.124-.007.021c-.047-.011-.103-.015-.122.044l-.17.485zm.505-.118l.071-.263.085-.024c.071.017.109.087.086.18-.024.091-.07.149-.242.107l-.007.025.026.008.132.388.198.055.006-.021-.03-.021-.125-.368c.104.002.183-.032.208-.125.034-.131-.081-.218-.244-.261l-.341-.093-.006.02c.043.021.094.049.078.106l-.135.496c-.016.06-.059.062-.104.058l-.006.019.336.091.005-.018c-.036-.02-.076-.045-.061-.103l.062-.23.008-.026zm.635-.094c.01-.061-.043-.085-.087-.1l.003-.02.623.11-.038.22-.027-.004c.024-.137-.085-.209-.151-.222l-.103-.018-.047.062-.042.231c.042.008.145.042.202-.115l.021.004-.062.347-.025-.004c.017-.181-.1-.188-.143-.194l-.041.236.022.076.102.019c.08.014.182-.009.269-.146l.03.006-.092.209-.624-.11.004-.02c.049 0 .104-.005.116-.063l.09-.504zm.919.754l.001-.021c.041-.004.087-.014.091-.075l.041-.576-.038-.002c-.075-.007-.173.051-.181.156l-.023-.002.016-.207.63.044-.014.206-.024-.002c.007-.105-.082-.176-.156-.18l-.038-.001-.041.576c-.005.062.041.078.079.088l-.002.022-.341-.026zm.805-.31l.005.246c.001.059.046.072.093.081v.02l-.353.007v-.021c.048-.008.087-.024.086-.085l-.009-.514c-.002-.061-.043-.074-.091-.08v-.021l.353-.006.001.021c-.046.008-.091.023-.09.082l.005.224.258-.004-.004-.224c-.001-.06-.045-.074-.093-.08l-.001-.021.354-.007v.021c-.047.008-.088.021-.086.082l.009.515c.003.06.042.073.091.079l.001.022-.355.006v-.02c.048-.011.092-.024.091-.086l-.005-.243-.26.006zm.678-.292c-.007-.06-.062-.067-.11-.069l-.002-.023.63-.068.024.224-.027.002c-.015-.139-.142-.176-.208-.17l-.102.013-.028.074.025.234c.041-.005.151-.002.161-.167l.021-.004.039.353-.026.002c-.035-.18-.148-.153-.19-.147l.026.239.044.067.103-.013c.08-.008.171-.059.216-.215l.03-.005-.028.228-.631.071-.002-.022c.047-.012.1-.032.094-.092l-.059-.512zm1.966.139c.018.058.074.056.122.048l.006.021-.361.109-.007-.018c.042-.021.091-.053.074-.11l-.149-.492c-.018-.058-.075-.055-.122-.047l-.007-.021.363-.111.006.021c-.045.021-.092.053-.074.108l.149.492zm.581-.092c-.205.077-.402.016-.487-.205-.083-.214.033-.394.211-.462l.188-.028.061-.059.026-.012.084.22-.026.01c-.115-.131-.236-.135-.324-.1-.052.021-.161.094-.057.367.104.272.228.269.312.233.042-.016.093-.053.075-.099l-.049-.128c-.021-.053-.062-.051-.106-.041l-.007-.019.316-.122.007.017c-.039.025-.074.054-.054.105l.064.167c-.047.061-.16.125-.234.156zm.49-.592l.11.219c.027.057.073.048.119.033l.009.019-.315.159-.01-.02c.039-.026.069-.057.041-.113l-.229-.459c-.027-.052-.07-.046-.116-.032l-.009-.018.315-.16.009.02c-.037.026-.071.06-.044.112l.101.201.231-.116-.102-.2c-.026-.054-.072-.048-.118-.031l-.01-.019.316-.159.009.02c-.04.026-.069.057-.042.111l.23.459c.028.053.069.049.116.034l.01.019-.316.159-.009-.019c.038-.028.072-.062.045-.115l-.11-.219-.231.115zm.847-.058l-.013-.018c.03-.028.062-.063.029-.115l-.307-.491-.031.021c-.063.041-.11.145-.054.233l-.021.012-.109-.176.536-.333.109.175-.02.012c-.057-.091-.17-.095-.233-.053l-.031.019.307.491c.031.052.078.039.115.024l.011.019-.288.18zm-2.749.686l-.061-.266.062-.061c.072-.019.139.023.161.117.022.095.009.166-.162.21l.006.024.027-.006.299.284.2-.049-.005-.019-.036-.006-.283-.264c.092-.047.146-.116.125-.21-.03-.132-.173-.154-.339-.115l-.345.079.006.021c.047-.004.104-.002.118.058l.113.499c.014.06-.021.081-.066.1l.004.021.341-.079-.006-.019c-.04 0-.087-.004-.101-.062l-.053-.233-.005-.024z"/></svg>