<svg xmlns="http://www.w3.org/2000/svg" width="64" height="48"><path fill="#84B8E2" d="M0 0h64v48h-64z"/><path fill="#fff" d="M32 4.504l-1.166 3.622h-3.834l3.112 2.255-1.195 3.619 3.083-2.249 3.082 2.249-1.18-3.65 3.098-2.208h-3.819zM47.621 18.766l-2.004 3.234-3.721-.924 2.477 2.939-2.033 3.224 3.534-1.439 2.449 2.925-.264-3.827 3.538-1.397-3.707-.92zM16.568 18.782l-.394 3.784-3.751.79 3.51 1.565-.424 3.788 2.553-2.836 3.48 1.565-1.907-3.328 2.576-2.799-3.737.787zM32 43l1.166-3.622h3.834l-3.112-2.255 1.195-3.619-3.083 2.249-3.082-2.249 1.18 3.65-3.098 2.208h3.819z"/></svg>