<svg xmlns="http://www.w3.org/2000/svg" width="64" height="48"><g fill="#003671"><path d="M0 0h64v48h-64zM31.998 23.996"/></g><path fill="#fff" d="M63.929.04h-7.783l-15.979 11.939v-11.979h-16.333v12.03l-16.046-11.99h-7.717v5.825l13.488 10.144h-13.488v15.981h13.488l-13.488 10.144v5.826h7.717l16.046-11.99v12.03h16.333v-11.979l15.979 11.939h7.783v-5.826l-13.554-10.144h13.554v-15.981h-13.554l13.554-10.144z"/><path fill="#DC2F34" d="M59.043 0l-21.043 16h5.036l20.964-16zM64 48l-22-16h5.304l16.696 12.186zM22 16l-22-16v3.821l16.698 12.179zM20.978 32l-20.978 16h5.019l20.981-16zM27 0h10v48h-10zM0 19h64v10h-64z"/></svg>