<svg xmlns="http://www.w3.org/2000/svg" width="64" height="48"><path fill="#CF1327" d="M0 0h64v48h-64z"/><path fill="#FDD118" d="M7 7h50v34h-50z"/><g fill="#087B5F"><path d="M7 41v-34l25 17zM57 41v-34l-25 17z"/></g><path fill="#CF1327" d="M12.854 22.807c.965.946 1.923 2.915 1.473 4.817-1.898-.467-3.213-2.218-3.615-3.508l2.142-1.309z"/><path fill="#FDD118" d="M12.225 24.184c1.693.555 2.637 1.996 3.402 3.247 1.924-5.987-4.142-5.371-5.581-6.812.626 1.937-2.688 7.056 3.518 8.073-.765-1.252-1.618-2.749-1.339-4.508z"/><g fill="#FFE247"><path d="M15.341 42.188l-.599 1.861h-1.97l1.6 1.158-.615 1.86 1.584-1.155 1.584 1.155-.607-1.876 1.592-1.134h-1.962zM31.979 42.188l-.599 1.861h-1.97l1.6 1.158-.614 1.86 1.583-1.155 1.583 1.155-.605-1.876 1.591-1.134h-1.962zM48.617 42.188l-.598 1.861h-1.97l1.599 1.158-.615 1.86 1.584-1.155 1.584 1.155-.606-1.876 1.592-1.134h-1.962zM15.341.812l-.599 1.861h-1.97l1.6 1.159-.615 1.859 1.584-1.155 1.584 1.155-.607-1.875 1.592-1.135h-1.962zM31.979.812l-.599 1.861h-1.97l1.6 1.159-.614 1.859 1.583-1.155 1.583 1.155-.605-1.875 1.591-1.135h-1.962zM48.617.812l-.598 1.861h-1.97l1.599 1.159-.615 1.859 1.584-1.155 1.584 1.155-.606-1.875 1.592-1.135h-1.962z"/></g><circle fill="#CF1327" cx="32" cy="24" r="4.112"/><path fill="#FDD118" d="M32 20.595l-.758 2.354h-2.492l2.024 1.465-.777 2.353 2.003-1.462 2.003 1.462-.767-2.372 2.013-1.436h-2.481z"/></svg>