<svg xmlns="http://www.w3.org/2000/svg" width="64" height="48"><path fill="#fff" d="M0 0h64v48h-64z"/><path fill="#BD1919" d="M16.656 9.873c0-.783.117-1.498.252-1.736-.798.258-2.3.447-3.645.523.076-1.349.264-2.855.521-3.655-.238.136-.951.253-1.732.253s-1.494-.117-1.731-.253c.257.8.445 2.306.521 3.655-1.344-.077-2.846-.265-3.644-.523.135.238.252.953.252 1.736s-.117 1.498-.252 1.736c.798-.258 2.3-.447 3.645-.523-.076 1.349-.264 2.854-.521 3.655.237-.136.95-.253 1.731-.253s1.494.117 1.732.253c-.257-.801-.445-2.306-.521-3.655 1.345.076 2.847.265 3.645.523-.136-.238-.253-.953-.253-1.736zm30.694 0c0-.783-.117-1.498-.253-1.736.799.258 2.3.447 3.646.523-.076-1.349-.265-2.855-.521-3.655.237.136.949.253 1.731.253.78 0 1.493-.117 1.731-.253-.258.8-.445 2.306-.521 3.655 1.346-.076 2.847-.265 3.646-.523-.136.239-.252.953-.252 1.736s.116 1.498.252 1.736c-.799-.258-2.299-.447-3.646-.523.076 1.349.264 2.854.521 3.655-.238-.136-.951-.253-1.731-.253-.782 0-1.494.117-1.731.253.257-.801.445-2.306.521-3.655-1.347.076-2.848.265-3.646.523.135-.238.253-.953.253-1.736zm-30.694 28.254c0 .783.117 1.498.252 1.736-.798-.259-2.3-.447-3.645-.522.076 1.349.264 2.854.521 3.655-.238-.137-.951-.253-1.732-.253s-1.494.116-1.731.253c.257-.801.445-2.307.521-3.655-1.345.075-2.847.264-3.645.522.136-.238.252-.953.252-1.736s-.117-1.498-.252-1.736c.798.258 2.3.446 3.645.522-.076-1.349-.264-2.854-.521-3.654.237.136.95.253 1.731.253s1.494-.117 1.732-.253c-.257.8-.445 2.306-.521 3.654 1.345-.076 2.847-.265 3.645-.522-.135.238-.252.953-.252 1.736zm30.694 0c0 .783-.117 1.498-.253 1.736.799-.259 2.3-.447 3.646-.522-.076 1.349-.265 2.854-.521 3.655.237-.137.949-.253 1.731-.253.78 0 1.493.116 1.731.253-.258-.801-.445-2.307-.521-3.655 1.346.075 2.847.264 3.646.522-.136-.238-.252-.953-.252-1.736s.116-1.498.252-1.736c-.799.258-2.299.446-3.646.522.076-1.349.264-2.854.521-3.654-.238.136-.951.253-1.731.253-.782 0-1.494-.117-1.731-.253.257.8.445 2.306.521 3.654-1.347-.076-2.848-.265-3.646-.522.135.238.253.953.253 1.736zM0 19h64v10h-64zM27 0h10v48h-10z"/></svg>