<svg xmlns="http://www.w3.org/2000/svg" width="64" height="48"><path fill="#fff" d="M0 0h64v48h-64z"/><path fill="#E30D21" d="M0 32h64v16h-64zM44.145 27.987l-.436-7.721.436-1.409v-1.562h-.242l-.896-5.753.527-.908v-2.318h-1.887v1.137h-.943v-1.137h-1.884v1.137h-.943v-1.137h-1.885v2.318l.525.908-.896 5.753h-.428l-.953-8.07.527-.91v-2.315h-1.886v1.136h-.941v-1.136h-1.886v1.136h-.942v-1.136h-1.885v2.316l.526.91-.955 8.07h-.428l-.896-5.753.525-.908v-2.319h-1.884v1.137h-.942v-1.137h-1.885v1.137h-.942v-1.137h-1.886v2.318l.526.908-.896 5.753h-.243v1.562l.438 1.409-.438 7.721h-.847v2.013h28v-2.013h-.855zm-17.97-7.72l.438-1.409.438 1.409-.438 7.721-.438-7.721zm8.764 0l.441-1.409.438 1.409-.438 7.721-.441-7.721z"/><path d="M34.76 9.117l-.526.883h-6.475l-.525-.883zM34.932 23l.439-1h-8.749l.437 1zM18.485 11.117l.525.883h6.474l.525-.883zM18.31 23l-.437-1h8.749l-.438 1zM43.508 11.117l-.526.883h-6.476l-.524-.883zM43.682 23l.437-1h-8.748l.436 1z"/><path fill="#FEEB17" d="M32.707 27.427v3.679l3.47 2.186-3.47 2.189v9.571h-1.121v-1.071h-3.829v-1.434h1.118v.734h2.711v-2.128h-2.711v.719h-1.118v-1.424h3.829v-4.971l-3.471-2.185 3.471-2.178v-3.687z"/><path fill="#E30D21" d="M33.562 33.269l-1.517 1.517-1.517-1.517 1.517-1.517z"/></svg>