<svg xmlns="http://www.w3.org/2000/svg" width="64" height="48" viewBox="-31.5 24.5 64 48" enable-background="new -31.5 24.5 64 48"><desc/><desc/><path fill="#35368C" d="M-31.5 24.5v16h63.999v-16h-63.999z"/><desc/><path fill="#13110C" d="M-31.5 40.5v32h64v-32h-64z"/><desc/><path fill="#0D8136" d="M9.818 60.915c0 .502 2.815 1.31 3.174 1.438 2.979 1.08 5.947 2.273 8.986 3.174.344.102.711.226 1.072.238.146.004.323-.07.123-.174-1.248-.639-2.676-1.025-3.998-1.475-1.975-.672-3.959-1.312-5.928-2.004-.691-.242-1.385-.486-2.068-.754-.195-.075-1.361-.567-1.361-.443z"/><desc/><path fill="#0D8136" d="M12.93 62.829c.123.207.69.354.894.444.687.308 1.38.6 2.073.89 1.707.714 3.422 1.412 5.15 2.069.487.187.977.384 1.479.528.619.188.556-.323.076-.489-.513-.179-1.021-.365-1.531-.551-1.414-.513-2.829-1.023-4.237-1.552-.638-.237-1.272-.481-1.907-.729-.316-.123-1.744-.912-2.015-.74l.018.13z"/><desc/><path fill="#0D8136" d="M-11.793 49.605c.217.53.825.805 1.339.951.12.034 1.532.262 1.387.041-.114-.173-2.906-1.435-2.869-1.475-.056.062.138.469.143.483z"/><desc/><path fill="#FCDD0C" d="M-22.9 26.482c-1.177 1.941-.58 3.67-.067 5.72.236.942.446 1.897.56 2.864l.042.451c.614 0 .936.192.995-.476.181-2.054 1.096-4.056 1.136-6.099.019-.981-.33-1.907-.921-2.685-.675-.885-1.193-.724-1.745.225-.872 1.439.3-.517 0 0z"/><desc/><path fill="#FCDD0C" d="M-18.614 30.555c-1.775.762-2.365 3.236-2.515 4.963.306 0 .597.145.674-.195.05-.221.117-.437.184-.651.166-.526.47-1.069.934-1.39 1.072-.742 1.096.924.58 1.511 1.289-.323 2.525-1.417 2.46-2.829-.059-1.271-1.173-1.898-2.317-1.409z"/><desc/><path fill="#FCDD0C" d="M-27.54 31.962c-.065 1.412 1.172 2.505 2.46 2.829-.516-.587-.492-2.253.58-1.512.464.322.768.863.934 1.391.067.215.134.432.184.65.077.341.368.197.674.195-.15-1.726-.739-4.199-2.515-4.961-1.144-.488-2.258.139-2.317 1.408z"/><desc/><path fill="#FCDD0C" d="M-23.662 36.033l2.288.008c.427.001 1.257.219 1.266-.277-.592-.005-1.184 0-1.775 0l-1.151.002c-.361.002-.62-.139-.628.267.997.004.002-.099 0 0z"/><desc/><path fill="#FCDD0C" d="M-23.369 37.202c-.259.278-.587.499-.921.678.635.063 1.366.085 1.953-.204-.106.803-.116 1.574.22 2.326.41.566.646-.352.718-.677.123-.556.054-1.091-.053-1.642.596.258 1.3.264 1.939.24-.349-.182-.72-.416-.952-.74-.229-.322-.294-.854-.695-.855l-1.353.003c-.517.003-.522.509-.856.871z"/><desc/><path fill="#FCDD0C" d="M-.868 26.482c-1.178 1.941-.58 3.67-.068 5.72.236.943.446 1.898.562 2.864l.042.449c.614 0 .936.192.994-.474.18-2.054 1.095-4.056 1.136-6.098.018-.979-.33-1.908-.92-2.685-.678-.886-1.195-.726-1.746.224z"/><desc/><path fill="#FCDD0C" d="M3.418 30.555c-1.775.762-2.365 3.235-2.516 4.961l.632.002c.056-.288.136-.568.224-.848.166-.527.471-1.068.935-1.39 1.074-.742 1.092.924.582 1.51 1.288-.323 2.526-1.416 2.46-2.827-.061-1.269-1.173-1.897-2.317-1.408z"/><desc/><path fill="#FCDD0C" d="M-1.632 36.032l2.288.008c.424 0 1.26.22 1.266-.276-.592-.006-1.184-.002-1.775 0l-1.152.002c-.363.002-.615-.137-.627.266.998.004.005-.1 0 0z"/><desc/><path fill="#FCDD0C" d="M-1.337 37.202c-.258.28-.586.5-.92.679.634.063 1.366.084 1.954-.205-.106.805-.114 1.572.22 2.326.41.566.646-.352.718-.678.122-.557.054-1.09-.054-1.643.595.259 1.3.265 1.94.24-.349-.182-.72-.416-.952-.74-.23-.321-.296-.854-.696-.855-.45-.002-.902 0-1.354.004-.517.004-.522.512-.856.872z"/><desc/><path fill="#FCDD0C" d="M-3.154 30.555c1.778.764 2.36 3.233 2.514 4.961l-.632.002c-.058-.288-.138-.568-.224-.848-.166-.527-.47-1.068-.934-1.39-1.074-.742-1.094.924-.58 1.51-1.288-.321-2.526-1.418-2.46-2.827.058-1.271 1.172-1.897 2.316-1.408z"/><desc/><path fill="#FCDD0C" d="M21.9 26.406c-1.176 1.941-.58 3.672-.067 5.721.235.943.446 1.897.56 2.863l.045.45c.613 0 .936.192.994-.474.178-2.057 1.096-4.057 1.135-6.099.019-.979-.327-1.907-.92-2.685-.678-.887-1.192-.728-1.747.224z"/><desc/><path fill="#FCDD0C" d="M26.186 30.477c-1.778.762-2.36 3.236-2.515 4.962.306 0 .597.144.672-.194.05-.22.118-.436.185-.652.166-.527.47-1.067.934-1.39 1.074-.741 1.094.922.582 1.511 1.29-.32 2.523-1.418 2.458-2.828-.057-1.272-1.171-1.896-2.316-1.409z"/><desc/><path fill="#FCDD0C" d="M21.139 35.954l2.288.009c.425 0 1.261.219 1.267-.276-.592-.005-1.185 0-1.776 0l-1.151.002c-.363.001-.621-.138-.628.265.996.007.002-.098 0 0z"/><desc/><path fill="#FCDD0C" d="M21.432 37.125c-.259.279-.586.5-.921.678.636.063 1.366.084 1.956-.203-.109.805-.113 1.574.219 2.326.41.566.646-.354.717-.678.125-.556.055-1.09-.051-1.642.596.26 1.299.264 1.939.239-.348-.182-.721-.416-.952-.739-.229-.322-.296-.854-.696-.856-.449-.002-.901 0-1.352.004-.52.002-.525.51-.859.871z"/><desc/><path fill="#FCDD0C" d="M19.615 30.477c1.777.762 2.363 3.234 2.514 4.962-.306 0-.598.146-.674-.194-.048-.22-.116-.436-.182-.652-.166-.527-.471-1.067-.937-1.39-1.071-.741-1.092.925-.58 1.511-1.29-.322-2.526-1.416-2.46-2.828.061-1.272 1.173-1.898 2.319-1.409z"/><desc/><path fill="#0D8136" d="M-22.943 45.057c.581.863 1.335 1.555 2.175 2.164.194.141 2.413 1.812 2.591 1.637.108-.135-2.44-2.41-2.623-2.58-.603-.557-1.208-1.112-1.825-1.655-.072-.063-1.01-.793-1.011-.785-.048.337.523.974.693 1.219.639.95-.508-.728 0 0z"/><desc/><path fill="#0D8136" d="M-9.661 50.115c.188.088 1.426.65 1.606.386-.1.147-2.508-1.428-2.534-1.401-.341.357.769.945.928 1.015z"/><desc/><path fill="#0D8136" d="M-12.641 45.807c.132.526 1.445 4.074 2.32 3.619-.117.061-1.317-2.166-1.409-2.353-.196-.397-.403-.808-.523-1.237-.05-.182-.009-.408-.155-.55-.321-.313-.249.453-.233.521z"/><desc/><path fill="#0D8136" d="M-25.901 44.255c-.038.241 1.498 1.149 1.707 1.327.41.35.732.754 1.176 1.064.458.321.947.625 1.462.847.194.083.53.182.274-.107-.703-.796-1.646-1.452-2.51-2.058-.253-.18-2.068-1.312-2.109-1.073z"/><desc/><path fill="#0D8136" d="M-25.19 45.954c0 .235 1.68.875 1.911 1.01.464.272.853.616 1.343.845.506.235 1.042.45 1.587.578.206.049.553.086.251-.152-.831-.661-1.873-1.145-2.828-1.59-.282-.133-2.264-.936-2.264-.691z"/><desc/><path fill="#0D8136" d="M-15.351 46.732c.384.709.81 1.427 1.36 2.021.066.072.878.731.71.253-.411-1.175-1.729-2.468-2.6-3.333.207.211.38.787.53 1.059z"/><desc/><path fill="#0D8136" d="M-14.267 46.13c0 .524.543 1.25.788 1.687.388.694.809 1.578 1.722 1.56.643-.015-.667-1.194-.821-1.369-.32-.36-.631-.731-.933-1.106l-.756-.772z"/><desc/><path fill="#0D8136" d="M-16.295 46.844c0 .456 1.388 2.54 1.863 2.54.022 0-1.18-1.905-1.347-2.122-.029-.039-.516-.709-.516-.418z"/><desc/><path fill="#0D8136" d="M-17.819 52.932c-.518.203-1.217.392-1.631.791-.433.42.14.258.404.1 1.13-.682 2.575-.76 3.764-1.377-.892-.001-1.694.175-2.537.486z"/><desc/><path fill="#0D8136" d="M-21.954 49.18c1.281 1.164 3.055 1.949 4.618 2.65 1.584.712 2.861 1.016 4.575.675-.984-.521-1.954-1.055-2.89-1.661-.224-.146-3.028-2.042-2.981-2.136-.241.481 1.553 1.797 1.863 2.013.549.379 1.141.674 1.71 1.019.048.028.858.61.814.626-.256.093-.834-.311-1.039-.42-.679-.355-1.338-.752-1.987-1.158-.754-.475-1.483-.979-2.21-1.491-.188-.132-.951-.847-1.221-.778-.064.018.788 1.022.819 1.053.186.182 1.816 1.602 1.907 1.568-.445.162-1.594-.73-1.932-.934-.596-.355-1.175-.734-1.756-1.114-.1-.065-.997-.536-1.004-.618.019.212.579.585.714.706z"/><desc/><path fill="#0D8136" d="M-21.792 48.869l-.883.288c.397.065.825.182 1.229.151.144-.011 1.729-.377 1.724-.363.026-.086-.667-.307-.769-.323-.428-.071-.901.125-1.301.247z"/><desc/><path fill="#0D8136" d="M-20.705 49.469c-.01.008-.261.172-.232.232.074.154 2.42-.25 2.607-.469.009-.01-.804-.072-.831-.072-.482-.015-1.138.004-1.544.309z"/><desc/><path fill="#0D8136" d="M-26.187 47.146c2.06.375 4.087.981 6.076 1.625 1.362.44 3.167.824 4.326 1.719.463.357-.756.08-.85.059-.67-.154-1.357-.529-2.042-.525-1.171.01-2.491.104-3.62.438-.272.08-.572.204-.701.478-.049.104-.155.914-.045.914.003 0 .284-.85.372-.953.289-.34.81-.356 1.219-.368 1.057-.031 2.124.124 3.167.27 1.114.155 2.228.335 3.325.581.587.133 1.163.307 1.744.463.136.036.641.254.786.168-.075.045-1.275-.787-1.376-.853-.615-.394-1.173-.92-1.791-1.29-.923-.553-2.115-.803-3.135-1.107-1.554-.466-3.122-.893-4.701-1.268-.588-.141-1.178-.273-1.774-.38-.239-.042-1.19.032-1.316-.039l.336.068c3.641.665-.485-.087 0 0z"/><desc/><path fill="#0D8136" d="M-24.513 48.323c-.223.167-.978 1.257-.689 1.546-.011-.012 1.119-1.26 1.344-1.37.293-.146 1.903-.062 1.949-.237.115-.437-2.308-.17-2.604.061z"/><desc/><path fill="#0D8136" d="M-13.268 49.688c.149.262 1.786 1.281 2.03 1.037.121-.121-.961-.748-1.061-.828-.094-.079-1.252-.684-.969-.209z"/><desc/><path fill="#0D8136" d="M-13.135 51.785c.148.26 1.788 1.281 2.029 1.037.12-.115-.963-.749-1.061-.828-.093-.076-1.251-.683-.968-.209z"/><desc/><path fill="#0D8136" d="M-15.601 49.154c.172-.164 1.793.603 2.053.676.518.146 1.035.188 1.54.381.521.201 1.047.438 1.518.741.177.114.447.338.065.288-1.052-.141-2.123-.555-3.108-.934-.29-.111-2.244-.979-2.068-1.152z"/><desc/><path fill="#0D8136" d="M-11.947 50.77c-.069.026-1.236.707-.994.83.207.104.897-.354 1.106-.423.117-.038 1.26-.311 1.28-.265-.207-.454-1.074-.276-1.392-.142z"/><desc/><path fill="#0D8136" d="M-14.488 52.355c-.674.604-1.367 1.355-1.299 2.326.042.602.319 1.196.515 1.76-.077-.811-.284-1.733.06-2.506.267-.602.807-1.043 1.318-1.43.147-.111 1.603-1.018 1.542-1.219-.118-.363-1.981.923-2.136 1.069-1.257 1.127.64-.603 0 0z"/><desc/><path fill="#0D8136" d="M-22.271 43.326c.805 1.533 2.204 2.879 3.432 4.072 1.245 1.211 2.341 1.936 4.069 2.199-.749-.824-1.477-1.658-2.149-2.549-.161-.213-2.149-2.953-2.071-3.029-.39.373.844 2.221 1.063 2.529.386.543.841 1.024 1.258 1.543.036.044.597.866.553.866-.273 0-.678-.577-.834-.749-.516-.566-1.001-1.165-1.472-1.77-.546-.703-1.059-1.428-1.567-2.158-.131-.188-.604-1.121-.882-1.149-.065-.006.391 1.229.41 1.269.112.234 1.16 2.127 1.256 2.127-.489 0-1.292-1.286-1.548-1.603-.419-.518-.818-1.05-1.217-1.583-.072-.096-.753-.845-.733-.925-.054.207.345.751.432.91.683 1.302-.398-.728 0 0z"/><desc/><path fill="#0D8136" d="M-15.155 49.51c0 1.067 3.035 2.219 3.796 2.559.439.195 1.051.551 1.552.523.19-.01.114-.146.009-.221-.438-.309-.999-.457-1.488-.659-.946-.392-1.917-.827-2.756-1.422-.263-.187-.709-.535-.156-.603.859-.104 1.758.022 2.617.062.257.011 2.006.223 2.159-.105-.022.045-5.733-1.083-5.733-.134z"/><desc/><path fill="#0D8136" d="M-20.98 51.874c-.372.086-.76.196-1.083.408-.055.034-.533.692-.314.644.127-.029.412-.343.568-.41.363-.154.749-.271 1.135-.353 1.362-.285-.161.922.335 1.411.101.133.324-.569.359-.641.146-.287.389-.492.686-.613.986-.397 2.221-.143 3.24-.047 1.026.098 1.879.272 2.863.535.639.17 1.603.291 2.241.06.397-.146-.455-.386-.516-.4l-1.552-.321c-.84-.199-1.637-.364-2.501-.426-1.753-.121-3.737-.259-5.461.153z"/><desc/><path fill="#0D8136" d="M-12.923 54.424c-.849-.15-1.833-.244-2.549.336-.495.402-.811 1.032-1.152 1.561.591-.561 1.19-1.291 2.01-1.495.638-.158 1.318-.005 1.938.161.167.043 1.805.629 1.908.466.214-.319-1.944-.997-2.155-1.029-1.663-.297.868.133 0 0z"/><desc/><path fill="#0D8136" d="M-15.076 53.809c-.888.242-2.221.439-2.894 1.146-.449.471.199 1.634.072 1.762.142-.143.071-.817.143-1.039.126-.388.312-.67.674-.852 1.001-.501 2.191-.706 3.281-.908.1-.019 2.195-.438 1.327-.606-.805-.158-1.85.284-2.603.497-3.067.837 1.963-.553 0 0z"/><desc/><path fill="#0D8136" d="M-12.471 54.889c-.789.35-1.655.822-1.924 1.704-.186.611-.096 1.31-.083 1.938.184-.829.274-1.812.902-2.441.443-.443 1.06-.681 1.641-.881.17-.059 1.825-.475 1.825-.675.001-.384-2.167.262-2.361.355z"/><desc/><path fill="#0D8136" d="M-12.764 56.783c-.047.062-.669 1.255-.404 1.229.23-.021.574-.773.715-.943.079-.096.904-.933.947-.903-.419-.277-1.056.333-1.258.617z"/><desc/><path fill="#0D8136" d="M11.089 60.383c2.306 1 4.974 1.408 7.382 2.113 1.508.441 3.016.885 4.534 1.293.476.128.954.266 1.44.354.188.034.297-.463.395-.632-.078.136-.447.763-.413.894-.045-.166.267-.663.324-.805-2.405-.613-4.828-1.162-7.231-1.789-1.33-.348-2.649-.738-3.97-1.127-.646-.189-1.29-.384-1.938-.561-.406-.109-1.441-.139-.523.26z"/><desc/><path fill="#0D8136" d="M11.545 59.832c2.341.923 5.027 1.236 7.462 1.857 1.571.401 3.144.806 4.726 1.168.426.098.854.201 1.287.264.194.027.281-.469.375-.645-.07.133-.422.784-.381.905-.054-.157.241-.676.295-.813-2.427-.528-4.865-.993-7.287-1.534-1.345-.302-2.676-.646-4.008-.988-.652-.167-1.303-.338-1.957-.491-.411-.097-1.444-.089-.512.277z"/><desc/><path fill="#0D8136" d="M10.516 60.783c2.246 1.121 4.892 1.669 7.258 2.498 1.483.52 2.968 1.041 4.461 1.527.47.152.94.314 1.422.428.187.046.318-.446.427-.609-.084.128-.485.741-.457.87-.036-.168.299-.647.365-.785-2.371-.737-4.763-1.415-7.13-2.166-1.312-.417-2.607-.877-3.905-1.334-.634-.224-1.269-.45-1.906-.66-.401-.131-1.433-.214-.535.231z"/><desc/><path fill="#0D8136" d="M10.068 61.236c2.188 1.236 4.798 1.921 7.119 2.873 1.453.598 2.908 1.195 4.375 1.761.459.177.922.362 1.396.502.185.054.343-.429.458-.587-.091.124-.523.714-.502.845-.028-.169.332-.632.404-.765-2.327-.864-4.68-1.662-7.004-2.537-1.287-.484-2.56-1.014-3.83-1.537-.623-.256-1.243-.516-1.87-.759-.389-.152-1.417-.291-.546.204z"/><desc/><path fill="#0D8136" d="M9.648 61.807c2.144 1.312 4.729 2.088 7.016 3.121 1.432.646 2.863 1.295 4.311 1.911.453.193.908.396 1.377.552.183.061.357-.418.479-.572-.095.119-.55.699-.532.826-.023-.168.355-.621.432-.75-2.297-.94-4.619-1.824-6.91-2.778-1.271-.529-2.522-1.103-3.775-1.671-.611-.277-1.225-.56-1.841-.823-.389-.167-1.411-.34-.557.184z"/><desc/><path fill="#0D8136" d="M9.175 62.325c2.073 1.422 4.612 2.331 6.843 3.483 1.396.723 2.793 1.444 4.205 2.137.441.217.887.441 1.346.621.179.07.38-.396.508-.545-.102.117-.584.666-.574.797-.013-.172.387-.602.471-.729-2.244-1.061-4.517-2.062-6.756-3.137-1.24-.596-2.462-1.23-3.685-1.865-.597-.311-1.192-.622-1.796-.919-.378-.186-1.387-.409-.562.157z"/><desc/><path fill="#FCDD0C" d="M1.49 67.021c.668.477 1.367.922 1.812 1.634.487.779.437 1.583.399 2.454.655-1.627.687-2.939-.033-4.57.795.348 1.617.66 2.208 1.33.565.643.665 1.404.801 2.211.303-1.728.063-3.021-.985-4.463.852.174 1.721.307 2.438.84.688.512.944 1.234 1.241 1.996-.059-1.752-.565-2.97-1.889-4.162.869-.007 1.746-.058 2.56.316.776.356 1.179 1.012 1.63 1.693-.423-1.701-1.171-2.789-2.713-3.68.799-.175 1.6-.398 2.425-.253.904.159 1.467.735 2.087 1.347-.764-1.572-1.725-2.484-3.416-3.031.791-.361 1.572-.765 2.467-.754.855.008 1.489.443 2.176.883-1.08-1.382-2.201-2.068-3.972-2.256.659-.486 1.3-1.016 2.114-1.219.891-.223 1.639.074 2.455.381-1.342-1.127-2.58-1.566-4.353-1.379.544-.614 1.06-1.264 1.813-1.633.825-.402 1.619-.268 2.48-.141-1.549-.822-2.849-.992-4.545-.443.429-.756.824-1.543 1.551-2.062.698-.495 1.465-.517 2.279-.565-1.685-.482-2.991-.378-4.535.513.262-.83.484-1.681 1.09-2.339.578-.629 1.326-.81 2.113-1.027-1.749-.123-3.009.252-4.332 1.445.085-.867.127-1.744.58-2.516.436-.737 1.128-1.067 1.854-1.445-1.737.245-2.892.875-3.938 2.316-.098-.865-.24-1.732.045-2.58.273-.812.883-1.279 1.514-1.799-1.648.599-2.646 1.457-3.37 3.084-.26-.779-.565-1.552-.506-2.389.063-.916.577-1.538 1.118-2.221-1.485.933-2.283 1.976-2.654 3.719-.439-.75-.924-1.486-1.006-2.377-.081-.852.285-1.527.65-2.258-1.262 1.218-1.825 2.407-1.825 4.189-.552-.605-1.144-1.188-1.432-1.977-.314-.863-.098-1.64.121-2.484-.98 1.454-1.288 2.735-.916 4.479-.667-.477-1.366-.924-1.811-1.635-.487-.779-.437-1.582-.397-2.454-.657 1.624-.691 2.942.034 4.57-.797-.347-1.619-.657-2.211-1.329-.565-.643-.666-1.404-.799-2.211-.305 1.727-.063 3.021.983 4.463-.851-.174-1.72-.307-2.438-.841-.686-.511-.942-1.234-1.241-1.997.063 1.752.565 2.97 1.889 4.162-.869.007-1.746.057-2.559-.316-.778-.356-1.179-1.01-1.628-1.693.422 1.701 1.167 2.786 2.711 3.676-.8.178-1.599.399-2.425.254-.904-.158-1.468-.734-2.088-1.346.764 1.573 1.725 2.483 3.417 3.032-.791.359-1.573.765-2.466.755-.856-.008-1.489-.445-2.177-.885 1.077 1.383 2.201 2.066 3.972 2.256-.66.487-1.299 1.016-2.114 1.219-.891.223-1.64-.074-2.456-.38 1.34 1.126 2.582 1.569 4.352 1.379-.543.614-1.058 1.265-1.812 1.634-.825.402-1.62.27-2.481.139 1.546.825 2.849.994 4.544.444-.429.757-.822 1.543-1.551 2.062-.697.495-1.464.517-2.28.565 1.684.484 2.994.379 4.537-.513-.262.829-.484 1.681-1.089 2.339-.579.63-1.324.811-2.113 1.027 1.748.123 3.007-.254 4.333-1.443-.084.865-.126 1.744-.581 2.514-.435.737-1.128 1.067-1.853 1.444 1.735-.245 2.891-.872 3.937-2.315.097.864.239 1.732-.046 2.58-.272.812-.88 1.279-1.512 1.799 1.647-.602 2.646-1.455 3.37-3.085.259.778.562 1.552.504 2.389-.063.917-.576 1.539-1.12 2.222 1.485-.932 2.284-1.976 2.656-3.719.44.75.922 1.486 1.007 2.375.081.854-.287 1.529-.651 2.262 1.26-1.22 1.826-2.408 1.826-4.191.552.605 1.144 1.188 1.43 1.975.313.864.1 1.642-.12 2.486.981-1.45 1.287-2.733.916-4.476z"/></svg>