<svg xmlns="http://www.w3.org/2000/svg" width="64" height="48"><path fill="#007A4D" d="M0 0h63.999v16h-63.999z"/><path fill="#E73137" d="M0 32h63.999v16h-63.999z"/><path fill="#fff" d="M0 16h63.999v16h-63.999z"/><path fill="#004A93" d="M0 0l23.833 23.999-23.833 24.001z"/><path fill="#C8C8C8" d="M44.726 18.902v6c0 1.011.241 2.51-.299 3.407-.803 1.334-3.32-.083-3.748 1.281-.39-1.242-2.629-.156-3.494-.965-.758-.709-.553-2.016-.553-2.96v-6.416c0-.479.104-.347.581-.347h7.513z"/><path d="M39.699 18.136c.101-.367.282-.489.66-.44-.268-.272-.282-.493-.054-.799-.368.099-.563 0-.712-.35-.101.367-.282.49-.66.441.267.272.282.493.054.798.368-.098.564 0 .712.35zm-1.913.276c.046-.378.209-.525.59-.531-.304-.231-.351-.447-.168-.783-.35.15-.559.082-.756-.243-.047.377-.208.525-.589.531.304.231.35.447.167.783.351-.151.559-.083.756.243zm-1.767.55c-.036-.379.09-.558.46-.647-.347-.16-.438-.36-.334-.728-.309.223-.526.202-.79-.073.036.379-.09.558-.46.647.347.16.438.36.334.728.308-.222.526-.201.79.073zm5.639-.826c-.101-.367-.282-.489-.66-.44.268-.272.282-.493.053-.799.368.098.564.001.713-.35.101.367.282.49.66.441-.267.272-.282.493-.054.798-.368-.098-.563 0-.712.35zm1.913.276c-.046-.378-.209-.525-.59-.531.304-.231.351-.447.168-.783.35.15.559.082.756-.243.047.377.208.525.589.531-.304.231-.35.447-.167.783-.35-.151-.558-.083-.756.243zm1.768.55c.036-.379-.09-.558-.46-.647.347-.16.438-.36.334-.728.309.223.526.202.79-.073-.036.379.09.558.46.647-.347.16-.438.36-.334.728-.309-.222-.526-.201-.79.073z" fill="#FFD139"/><path fill="#fff" d="M40.679 31.485c.619 0 1.375.047 1.963-.198.331-.138.209-.371.179-.679 1.332.016 2.712-.339 3.651-1.334.243-.257.232-.541.124-.853-.197-.566.027-.444.276-.879.297-.519-.253-1.651-.303-2.21-.015.688-.863 1.026-1.071 1.628-.096.273.29.642.41.859.263.472-.537.918-.927 1.115-.421.214-.886.338-1.356.374-.365.027-1.205-.263-1.498-.087-.21.125-.005.68.024.864.052.331-1.188.252-1.473.252-.494 0-.995-.017-1.484-.094-.018-.299.207-.668.093-.957-.096-.243-.808.009-.981.021-.568.043-1.147-.043-1.675-.258-.427-.174-.821-.435-1.13-.777-.423-.471.355-.715.379-1.191l-1.092-1.75c-.055.604-.487 1.436-.373 2.023.09.458.558.366.41.877-.078.268-.219.531-.096.812.545 1.249 2.666 1.576 3.808 1.562-.03.309-.153.541.179.679.588.248 1.344.201 1.963.201z"/><path d="M40.679 31.532c-.761 0-2.357.232-2.195-.876-1.155.007-3.281-.339-3.804-1.604-.12-.292.021-.557.101-.833.133-.461-.351-.439-.416-.884-.088-.598.321-1.399.377-2.008l.094.003c.014.565 1.38 1.386 1.049 1.887-.023.153-.285.436-.358.562-.24.415.127.626.472.871.664.471 1.503.674 2.311.612.229-.018.795-.244.985-.052.202.204-.045.748-.052.994.93.138 1.945.138 2.875 0-.007-.246-.254-.789-.052-.994.19-.192.757.034.985.052.808.062 1.646-.142 2.311-.613.345-.244.712-.455.472-.869-.073-.127-.335-.408-.358-.562-.331-.501 1.035-1.321 1.049-1.887l.094-.003c.056.608.465 1.41.377 2.007-.065.443-.552.425-.416.885.082.273.22.544.1.833-.524 1.265-2.646 1.61-3.803 1.604.159 1.108-1.438.875-2.198.875zm-2.09-.971c-.254 1.107 1.358.878 2.09.878s2.345.229 2.09-.878c1.139.021 3.298-.283 3.819-1.542.11-.267-.027-.521-.102-.772-.156-.544.1-.288.348-.732.253-.455-.225-1.42-.283-1.904-.268.627-1.299 1.091-.843 1.791.103.158.389.505.359.688-.325.447-.789.781-1.296.994-.453.19-.946.286-1.438.286-.205 0-1.075-.252-1.209-.083-.197.251.247.77.082 1.001-.138.193-1.28.1-1.528.1-.497 0-1-.017-1.491-.094-.117-.132.065-.718.065-.928 0-.264-.806-.018-.938-.008-.587.046-1.186-.047-1.729-.274-.426-.179-.819-.441-1.128-.786-.27-.301-.153-.34.062-.689.078-.128.35-.404.307-.593-.126-.545-.799-.887-1.02-1.404-.062.511-.433 1.22-.347 1.724.049.293.423.362.479.566.071.258-.213.635-.213.905.002.68 1.173 1.229 1.699 1.426.69.255 1.433.34 2.165.328zm.599-.269c-.18-.028-1.044-.184-.669-.575.183-.19.626-.241.828-.353 0 .44-.81.137-.81.555 0 .235.587.233.651.373zm-3.898-2.204c-.149-.203-.653-1.208.025-1.147.213.021.372.247.569.276-.224.354-.472-.385-.742-.126-.288.273.183.802.148.997zm-.354-.157c-.201-.08-.012-.558.047-.746l.091.028c-.074.235-.102.475-.138.718zm3.65 2.682c-.172-.09-.138-.462-.143-.692l.094-.003c.006.23.07.465.049.695zm3.584-.321c.097-.213.497-.08.638-.333.179-.319-.797-.253-.797-.595.189.104.404.168.647.249.764.255-.247.642-.488.679zm3.897-2.204c-.035-.195.437-.724.147-.997-.272-.255-.52.479-.742.126.143-.021.252-.011.369-.17.185-.25.516-.042.545.203.038.302-.152.607-.319.838zm.355-.157c-.035-.242-.063-.482-.138-.718l.09-.028c.06.189.247.665.048.746zm-3.651 2.682c-.021-.23.043-.465.048-.695l.095.003c-.006.231.03.601-.143.692z"/><path fill="#7F4E06" d="M39.569 22.23c1.426.745.89 2.635.646 3.95-.062.339-.718 1.789-.435 2.01.208.163 1.421.229 1.48-.076.574.488.08-.88.026-1.081-.22-.815-.348-1.642-.355-2.487-.013-1.399.267-2.457 1.936-2.525-.499-.602-1.638.141-1.956.652.036-.402-.031-.802.022-1.207-.094-.026-.312-.025-.405 0 .055.384.061.782.061 1.169-.217-.276-.735-.807-1.02-.405z"/><path d="M40.489 28.226c.133-.762.242-1.588.22-2.361m.335 2.33c-.433-.156-.204-2.321-.244-2.718-.086-.858.121-1.731-.001-2.588m.462 5.224c.119-.562-.282-1.233-.297-1.807m-.895 1.904c-.326-.233.423-1.951.48-2.306.131-.81.256-2.1.039-2.895" fill="none"/><path fill="#007A4D" d="M41.001 19.712c-.058-.241-.616-.252-.755-.124-.122.114-.385.189-.468.38l-.021.246c-.164-.03-.246.04-.247.21-.409-.141-1.179 1.363-1.057 1.708-.204-.15-.938.22-1.039.414-.203.385 1.043.646 1.106.186.042.079.611.403.719.371.204.077.722-.388.521-.525.213.027.524-.368.698-.443.218-.094.722.201.909-.108.119.284.677.444.916.467.391.038.751.08 1.171.044.321-.027.847-.45.803-.801-.027-.216-.49-.667-.621-.774-.134-.11-.211-.006-.325-.087l-.199-.288c-.19-.13-.552-.533-.826-.368-.048.029-.384.185-.39.241-.027-.024-.314-.096-.333-.079l-.2-.257c-.016-.102-.164-.508-.362-.413-.045-.188.063-.03 0 0z"/><path d="M39.27 21.36c.075.021.488-.141.532-.217m-1.094 1.274c.104-.038.3.03.337.12m.465-2.113c.126-.068.621.076.675.217m3.169.307c-.077-.046-.481.029-.532.105m1.23 1.061c-.083.179-.57.049-.597-.127m-1.39.348c.089-.012.422-.066.486-.12m.743.292l-.258-.27m-1.686-1.989c-.027.131-.444.34-.566.304m-1.896 2.307c.061-.011.396-.115.423-.176m.45-.105c-.027-.002-.245-.086-.263-.127m-1.847.394c.086-.008.184-.057.213-.094m.739-.948c.11-.08.55-.165.671-.139m2.469-1.203c.012.037.072.379.06.435m-.435 1.131c-.075-.142-.098-.247-.098-.359m-.944-.615c.062.266.794.443.997.285m.765.225c.095.079.651.182.779.15m-3.327.262c.149.045.329-.06.389-.135" fill="none"/><path d="M39.883 30.502v.265h.119c.099-.396.3.298-.119 0-.023.124-.023.325 0 .449h.119c-.032-.156.734-.941-.119-.714zm.92.602c.064.093.003.179.162.145-.245-.858-.311-.859-.555 0 .177-.039.307-.166.195-.264l.082-.289.082.289-.091.119h.125zm.584-.008c.45-.043.324.127-.073.127-.234 0 .183-.508.234-.584-.458.044-.332-.126.072-.126.237 0-.181.506-.233.583zm-6.392-2.179c.155.128.405-.315.479-.405.113.153-.117.503-.354.558-.631.145-.01-.682.074-.785.225.222-.429.445-.199.632zm.823-.108l-.089.532c.132-.18.189-.42.389-.312-.402.548-.563.766-.423-.052l-.298.406c-.179-.145.229-.7.421-.574zm.242.989l.334-.63c-.208-.097-.533.513-.334.63zm.533-.54c1.13.489-.771 1.072-.14.318l.108.048-.1.228c.321.114.49-.277.188-.429l-.088.201-.108-.048.14-.318zm.779.858c.038.106-.043.174.119.182-.019-.895-.081-.911-.536-.141.181.006.34-.083.256-.206l.152-.259.006.301-.117.092.12.031zm.398-.512c.666.07.521.896-.075.72-.017-.094.003-.284.039-.373l.118.012-.025.248c.34.011.383-.414.048-.466l-.022.218-.118-.012.035-.347zm5.063.698c.219.358.627-.583.209-.643.006.078.085.604-.045.609-.067-.027-.092-.082-.073-.162-.105-.016-.135.049-.091.196zm.767-.094c.294-.038-.144-.572.167-.643.017.134.104 1.162-.354.706-.172-.172-.182-.591-.005-.661.014.116-.009.623.192.598zm.741-.567c-.065-.199-.383-.222-.455-.009-.136.397.396.148.458.332.061.181-.316.107-.369.102.205.559.843-.384.195-.286-.331.049-.078-.182.171-.139zm.551.364l-.22-.55.175-.069-.044-.111-.458.184.045.11.174-.07c.081.2.112.557.328.506zm.467-.226c-.11-.195-.237-.671-.462-.559l.35.622.112-.063zm.353-.76c-.21-.352-.598.041-.402.374.196.337.729.184.519-.175-.232.586-.746-.268-.117-.199zm.444.232c-.501-.689-.604-.614-.104.076l.104-.076zm.283-.439l.128.08.062-.089c-.752-.476-.771-.396-.383.381.104-.147.114-.329-.033-.326l-.136-.27.256.159.014.148.092-.083z"/><path fill="#fff" d="M40.672 23.999"/></svg>