<svg xmlns="http://www.w3.org/2000/svg" width="64" height="48" viewBox="-31.5 24.5 64 48" enable-background="new -31.5 24.5 64 48"><path fill="#262D62" d="M-31.5 24.5h64v48h-64z"/><path fill="#fff" d="M.5 24.52h-3.9l-8.1 5.98v-6h-8v6l-8.133-5.98h-3.867v2.914l6.759 5.07h-6.759v7.99h6.759l-6.759 5.07v2.915h3.867l8.133-5.979v6h8v-6l8.1 5.979h3.9v-2.915l-6.792-5.07h6.792v-7.99h-6.792l6.792-5.07z"/><path fill="#DC2F34" d="M-2.015 24.52l-10.68 7.989h2.556l10.639-7.989zM.5 48.479l-10.65-7.985h2.567l8.083 6.081zM-20.798 32.509l-10.702-7.989v1.908l8.123 6.081zM-20.82 40.494l-10.68 7.985h2.556l10.681-7.985zM.5 34.5h-14v-10h-4v10l-14 .056v3.944h14v10h4v-10h14z"/><desc/><path fill="#6A4C2D" d="M16.969 59.746c-.077.203-.185.57-.453.473-.444-.163-.33-.228-.636.122-.201.229-1.267.255-1.22-.102-.618.466-.783.452-1.278-.137-.025.925-1.403-.236-1.626-.191-.076.016-.261.396-.306.461-.135.196-.241.171-.476.224-.422.094-.456-.077-.859-.303.079-.102.363-.366.363-.49 0-.211-.566.215-.625.252-.404.246-.448.168-.885-.02.319-.445.293-.955.73-1.354l1.601-1.462 3.507-3.201 1.794 3.111.728 1.262c.127.221-.285 1.094-.359 1.355z"/><desc/><path fill="#fff" d="M20.632 60.033l1.342-.046-.571-.265 5.114-.182c-.514-.184-.711-.244-1.042-.666-.371-.473-.461-.416-1.066-.459l-1.742-.123-.405-.098c-.384-.051-.31-.416-.646-.439l-1.5-.107c-.125-.008-1.016.539-1.046.652-.069.258.446 1.074.551 1.326.199.482.497.361 1.011.407z"/><desc/><linearGradient id="a" gradientUnits="userSpaceOnUse" x1="406.909" y1="-269.902" x2="406.995" y2="-268.863" gradientTransform="matrix(1 0 0 -1 -389 -224.5)"><stop offset="0" stop-color="#474747"/><stop offset="1" stop-color="#f50"/></linearGradient><path fill="url(#a)" d="M15.41 45.912c.074-.303.227-.532.334-.817.083-.217.606-1.062.868-.351.342-.486.888-.456 1.264-.038l.574-.654c.444.391.459.605 1.034.562.332-.024.485.233.433.588.234.129.332.562.399.8l-4.906-.09z"/><desc/><path fill="#656263" d="M20.633 51.05c.387-.226.621-.86.034-1.046-.242-.077-.492-.032-.698.115-.134.098-.391-.146-.52-.225-.599-.357-.021-1.646.222-2.205.123-.282.71-.535.71-.787 0-.327-.723-.271-.9-.291-.79-.088-1.527-.211-2.314-.123-.286.031-2.354-.012-1.809.739.404.556.709.763.908 1.48.039.14.344 1.06.196 1.127-.188.085-.38.181-.58.237-.16.045-.31-.104-.489-.024-.458.206-.479 1.01-.018 1.239.626.312 2.075-.517 2.562.333.422-.908 2.006-.246 2.696-.569z"/><desc/><path d="M23.035 48.717c.065-.559.847-.479 1.247-.469.762.018.965.359 1.08 1.094.19 1.229 1.125 2.096 1.261 3.391.146 1.389.051 3.148-.462 4.456-.104.263-.396 1.022-.129 1.147l1.337.622-.531-.186c.174.139.367.267.531.418-.135-.13-.433-.192-.604-.267l.357.336c-.19-.183-.63-.268-.876-.371.115.099.248.284.382.348l-.655-.289c.109.109.311.238.383.371-.056-.107-.452-.189-.567-.232l.024.198c-.459-.006-.632-.587-1.139-.667-.694-.109-.681-.058-.907-.691-.285-.798-.989-1.966-.947-2.818l.187-3.762c.042-.888.172-1.766.028-2.629z"/><desc/><path fill="#fb0" d="M22.26 66.323c-.225-.437-.949-1.043-.925-1.479.044-.825.431-1.686.838-2.39.492-.851 1.231-1.719 2.245-1.912 1.321-.252.483 1.437-.536.957.094.31.319.592.523.837-1.399.677-1.941 2.6-2.145 3.987z"/><desc/><path fill="#fb0" d="M14.292 66.494c.12-.32.254-.64.421-.939.105-.189.416-.355.418-.557.006-.76-.379-1.613-.715-2.273-.44-.863-1.122-1.82-2.132-2.033-1.564-.332-.676 1.441.375.949-.095.312-.321.596-.527.842 1.406.68 1.953 2.615 2.16 4.011z"/><desc/><path fill="#00713D" d="M16.467 58.143c-.034-.062-.417.442-.211.768.019-.158.157-.299.292-.37-.214.244-.234.593.022.821.029-.197.125-.359.292-.467-.081.23-.286.827.005.988.02-.191.109-.355.257-.473-.075.205-.267.738-.029.902.025-.241.143-.234.229-.403-.034.2-.1.767.193.817.004-.191.112-.393.234-.533-.045.281.05.632.389.65.004-.168.043-.344.097-.504.067.201.263.646.549.553v-.559c.153 0 .181.637.594.51-.031-.133-.022-.262.023-.387.176.324.785.422.56-.086.631.629 1.004-.139.274-.215h.406c-.141-.244-.408-.357-.68-.393.127-.047.255-.055.383-.021-.114-.277-.38-.423-.675-.445.16-.051.297-.03.458-.021-.11-.295-.393-.437-.692-.488.092-.098.245-.068.36-.07-.305-.482-1.141-.369-1.636-.412-.293-.028-1.484.048-1.694-.162z"/><desc/><path d="M18.964 60.081s.223.102.217.192" fill="none"/><desc/><path d="M19.096 59.914s.286.188.28.328" fill="none"/><desc/><path d="M19.347 59.817s.229.135.241.345" fill="none"/><desc/><path d="M19.73 59.903s.114.231.075.274" fill="none"/><desc/><path d="M19.958 60.027c.018.183-.018.198-.018.198" fill="none"/><desc/><path d="M17.141 58.873s.268.16.245.387" fill="none"/><desc/><path d="M17.124 59.066s.125.112.097.188" fill="none"/><desc/><path d="M17.456 58.878s.177.231.12.393" fill="none"/><desc/><path d="M17.758 59.028s.08.146.005.226" fill="none"/><desc/><path d="M17.901 59.099s.097.145.011.192" fill="none"/><desc/><path d="M17.792 59.576s.251.053.286.23" fill="none"/><desc/><path d="M17.941 59.415s.263.017.291.28" fill="none"/><desc/><path d="M18.29 59.324c.006 0 .177.285.149.375" fill="none"/><desc/><path d="M18.627 59.351s.069.273.018.359" fill="none"/><desc/><path d="M18.844 59.458l.006.317" fill="none"/><desc/><path d="M18.513 59.028s.166.06.154.21" fill="none"/><desc/><path d="M18.667 58.889s.211.113.188.328" fill="none"/><desc/><path d="M18.913 58.798s.183.204.114.43" fill="none"/><desc/><path d="M19.233 58.846s-.069.253-.04.354" fill="none"/><desc/><path d="M19.427 59.018s-.12.086-.057.193" fill="none"/><desc/><path d="M18.387 60s.04.193 0 .226" fill="none"/><desc/><path d="M18.124 59.888s.132.215.085.322" fill="none"/><desc/><path d="M17.845 59.877s.148.161.143.29" fill="none"/><desc/><path d="M17.616 59.909s.136.123.125.193" fill="none"/><desc/><path d="M17.496 60.097l.125.156" fill="none"/><desc/><path fill="#fff" d="M14.652 51.281c.423-.007 3.023-.359 3.275.349.375-.808 2.659-.519 3.274-.539l.02 2.589c.006.811.126 1.668-.159 2.438-.501 1.352-1.652 2.394-3 2.871-1.26-.383-2.298-1.283-2.857-2.475-.716-1.524-.473-3.579-.553-5.233.631-.01.068 1.407 0 0z"/><desc/><path fill="#006B00" d="M15.326 51.265l2.754 6.894 2.487-7.044c-.603.037-2.387-.242-2.633.548-.385-.72-1.962-.347-2.608-.398z"/><desc/><path fill="#FFC900" d="M17.201 54.997c.012.006.121-1.12.127-1.21.026-.369.383-1.205-.071-1.26-.826-.1-.373.463-.289.922.022.122.155 1.57.233 1.548.106.054-.159.044 0 0z"/><desc/><path fill="#CDAD56" d="M16.463 40.133c.147-.297 2.15-1.084 1.735-1.533l-.126.079c-.028-.101.244-.845.139-.77-.608.433-.032-.105-.405-.252l-.141.174c-.121.026-.141-.685-.328-.229-.236.572.372.602.372 1.053 0 .233-.14.465-.324.602-.234.172-.131-.15-.17-.253-.097-.257.211-.477.024-.778-.032-.051-.159.285-.236.271-.246-.043.11-.543-.001-.585-.137-.053-.437.406-.382.45l-.094-.147c-.221.432.202.589.377.903.158.285-.317.504-.313.376.007-.332.063-.364-.164-.661-.035-.046-.235-.335-.209-.35-.064.036-.092.354-.174.339-.083-.015-.11-.218-.126-.283-.063.198-.029.434.142.573-.097-.032-.17-.016-.221.05 0 .207.644.412.027.59.201.08.337-.015.503-.167-.002.144-.049.266-.142.366.119.009.198.07.237.182z"/><desc/><path fill="#CDAD56" d="M15.25 40.133c-.089-.293-.245-.272-.486-.334-.235-.061-.448-.187-.611-.367-.075-.084-.336-.688-.362-.695l.093.073c.01-.115-.084-.731-.063-.69.008.098.055.172.138.222.24-.009-.016-.391.15-.461l.173.251c.143.032.193-.399.316-.387.424.043-.205.75-.289.816-.239.188-.054.797.25.824.126.012-.016-.416.127-.416-.184 0-.246-.15-.232-.324.069-.358.181.028.338 0 .133-.025-.024-.383.043-.475.171-.231.249.346.267.338.053-.024.121-.271.175-.254.179.373-.296.658-.408.95-.102.264.28.437.229.181-.048-.243.235-.348.246-.578.019-.398.25.136.264.133.072-.016.095-.201.107-.259.054.176.029.392-.12.521.341-.044.018.362.165.582-.173.073-.288-.014-.428-.151.001.127.041.238.12.332-.104.014-.172.068-.202.168z"/><desc/><path fill="#FFC900" d="M20.108 52.293c-.086-.072-.362-.143-.477-.188-.063.174.076.434-.18.498.041-.076-.004-.426-.033-.49-.166.104-.38.221-.581.112l.411-.293-.37-.396.522.22.134-.53.092.502c.218-.042.28-.168.531-.123-.162.14-.273.188-.42.293.109.116.425.172.371.395-.165-.14.017-.07 0 0z"/><desc/><path fill="#FFC900" d="M15.874 52.361c.085-.072.361-.144.476-.189.063.176-.076.434.18.5-.041-.077.004-.426.034-.491.163.106.382.218.581.112l-.413-.293.37-.396-.522.221-.133-.531-.092.502c-.219-.041-.28-.168-.531-.123.152.133.278.19.42.293-.108.116-.423.173-.37.395.165-.14-.017-.072 0 0z"/><desc/><path fill="#FFC900" d="M19.959 52.737c-.798.584-1.248.659-1.075 1.836.06.404-.236.272-.336-.023-.113-.335-.205-.952-.093-1.296.005-.016.336.174.232.279.114-.115.212-.529.138-.678-.005-.004.368.191.368.08 0-.019-.248-.273-.145-.245l.154.076c.008.004-.251-.243-.293-.159l.393-.069c-.138-.138-.559-.532-.751-.468-.372.127-.284.154-.312.527.431.087.132.186-.12.159l.139.14c-.125.023-.276.01-.338.159.08-.009.157.001.229.028-.247.211-.43.201-.686.021-.051.11-.146.398-.043.477.306.231.411-.221.679-.109-.266.191-.558.571-.884.657-.306-.246-.334.062-.218.049-.25.027-.228.42-.07.329.138-.078.315-.164.447-.259-.04.015-.367.265-.408.21l.07.148c.055-.111.933.047.616-.398.045.086.062.175.05.269.067-.08.46-.233.208-.408.041.086.068.176.08.27l.149-.05.129.457c-.278-.387-.731.064-.397.538-.106-.011-.568.009-.461.03.141.029-.454.043-.245.169.098.025.198.032.298.02-.781.256.38.394.231-.018.026.072.02.181.018.257.065-.031.417-.105.277-.287.036.047.022.188.021.247l.169-.09c0 .189-.005.492-.129.647-.365-.232-.278.303-.317.438.014-.049.335-.207.397-.318-.414.314.065.685.139.119l.01.09c.135-.064.254-.32.254-.424 0 .039-.163.334.024.334.096 0 .105-.406.034-.459l.154.121c.121-.243.056-.458-.229-.488l.04-.109c.025.006.198.236.248.16.214-.32-.527-.306-.198-.717.178.148.327.133.298-.02.102-.051.366-.198.377-.328l-.189.01c.093-.105.201-.163.159-.339-.049.066-.112.104-.188.11.072-.098.175-.188.149-.329-.276.202-.301-.099-.242-.376.114-.541.433.117.302.117.299 0 .133-.336 0-.418.11-.031.229.098.307.15-.094-.256-.287-.318-.536-.169l.675-.259c-.113-.016-.225-.016-.337 0 .158.053.614-.217.578-.418-.148.11.06.338 0 0z"/><desc/><path d="M16.81 52.996s.397-.209.596.049" fill="none"/><desc/><path d="M17.566 53.443l-.169.13" fill="none"/><desc/><path d="M17.833 53.861s.368.031.606-.338" fill="none"/><desc/><path d="M18.231 53.752c.005.077.035.144.089.199-.046.035-.099.038-.158.01.089.105.089.209 0 .309" fill="none"/><desc/><path fill="#E80000" d="M18.042 56.26s-.129.139-.288.148"/><desc/><path d="M18.191 55.623c-.106-.414.03-.508.229-.846" fill="none"/><desc/><path d="M18.151 55.335s-.1.239-.536.159" fill="none"/><desc/><path d="M18.271 54.737s.03.318-.367.199" fill="none"/><desc/><path d="M17.784 53.305s-.159.139-.099.328" fill="none"/><desc/><path fill="#006B00" d="M18.38 52.956c.25-.06.459-.791.577-.604-.217-.347-.346-.063-.517-.063.255 0 .27.603-.06.667z"/><desc/><path fill="#FFC900" d="M18.53 52.299c.09-.021.104.004.089.08l-.089-.08z"/><desc/><path fill="#E80000" d="M17.895 56.733c-.022.082-.006.157.048.226-.005-.085.086-.192-.048-.226z"/><desc/><path fill="#E80000" d="M17.71 56.477c-.1-.01-.155.032-.166.127.068-.057.198.015.166-.127z"/><desc/><path fill="#E80000" d="M17.71 56.328c-.058-.012-.103.009-.135.063.108.044.153.022.135-.063z"/><desc/><path fill="#E80000" d="M17.208 55.154l.091.1c.056-.035.083-.19-.091-.1z"/><desc/><path fill="#E80000" d="M17.032 55.331c.053-.045.107-.047.163-.005-.047.076-.101.078-.163.005z"/><desc/><path fill="#E80000" d="M17.018 55.619c.035-.039.078-.049.129-.029.061.097-.155.026-.129.029z"/><desc/><path fill="#E80000" d="M16.888 54.017c-.06-.024-.116-.012-.165.038.49.055-.08.035.165-.038z"/><desc/><path fill="#E80000" d="M16.664 54.62c.002-.069.025-.134.069-.19.19.107-.037.093-.069.19z"/><desc/><path fill="#E80000" d="M16.973 54.523c-.057.02-.086.061-.086.125.03-.033.149-.04.086-.125z"/><desc/><path fill="#FFC900" d="M16.789 53.226c-.045.051.056.162.164.146.026-.121-.138-.184-.164-.146z"/><desc/><path d="M16.788 52.992c-.022.057.066.136.118.113.021-.057-.095-.159-.118-.113z" fill="none"/><desc/><path fill="#E80000" d="M16.907 53.133c.013.054.05.077.113.07-.04-.199-.062-.074-.113-.07z"/><desc/><path fill="#E80000" d="M16.969 53.409c.056.031.106.013.152-.058l-.152.058z"/><desc/><path fill="#FFC900" d="M16.783 53.006c-.046.051.019.122.126.105.027-.119-.099-.142-.126-.105z"/><desc/><linearGradient id="b" gradientUnits="userSpaceOnUse" x1="406.503" y1="-276.284" x2="406.507" y2="-276.818" gradientTransform="matrix(1 0 0 -1 -389 -224.5)"><stop offset="0" stop-color="#B50000"/><stop offset="1" stop-color="#FFC500"/></linearGradient><path fill="url(#b)" d="M16.826 52.528c.277-.083.701.039.882.074.154.029.503-.007.502-.007-.458-.105-.315-.259-.416-.608-.406.278-.169-.122-.453-.156.001.233-.653.517-.515.697z"/><desc/><path fill="#C01500" d="M11.903 65.604c.676-.152 1.903.435 2.361.896-.049-.416-.108-1.764-.611-1.882-.867-.206-1.318.186-1.75.986.278-.064.19-.353 0 0z"/><desc/><path fill="#C01500" d="M11.445 60.8c-.486.072-.463.938-.622 1.279s-.746.595-.156.979c.702.459 1.795-.855 2.008-1.434-.358.117-1.824-.237-1.23-.824-.105.015-.333.33 0 0z"/><desc/><path fill="#C01500" d="M24.658 65.438c-.676-.153-1.913.428-2.372.891.055-.469.097-1.75.65-1.883.822-.197 1.316.238 1.722.992-.275-.063-.188-.351 0 0z"/><desc/><path fill="#C01500" d="M25.084 60.662c.307.046.426.949.649 1.159.262.247.519.688.102.925-.757.43-1.734-.617-1.971-1.264.38.124 1.72-.17 1.22-.82.104.016.273.356 0 0z"/><desc/><path fill="#fb0" d="M10.918 64.695c.264.173.944.535.966.893 2.983-4.156 9.568-4.039 12.755-.248.27-.335.607-.63 1.001-.809-3.555-4.365-11.367-4.619-14.722.164z"/><desc/><path fill="#1E5AA6" d="M20.583 51.115c.116-.023.252-.005.372-.008l-.635.755c-.069.083.481.592.561.68.391.429-.436.985-.76 1.37-.528.625-.716.576-.177 1.187l.849.959c.366.414-.079.868-.395 1.255l-.666-.689c-.251-.261-.126-.258.106-.53.178-.209 1.344-1.361 1.178-1.537-.277-.296-1.279-1.031-1.138-1.433l.705-2.009z"/><desc/><path fill="#1E5AA6" d="M15.278 51.273c-.126-.021-.269.005-.398.008l.711.724c.074.075-.408.547-.479.63-.173.202-.347.254-.156.449l.833.85c.576.588.805.541.296 1.182l-.776.979c-.349.438.138.945.456 1.334l.631-.748c.237-.281.114-.27-.138-.533-.181-.189-1.425-1.303-1.282-1.472.196-.233 1.23-1.188 1.12-1.453l-.818-1.95z"/><desc/><path fill="#1E5AA6" d="M17.117 55.76c-.067.084-.608.703-.572.742l.773.842 1.068 1.162c.408.443.777-.033 1.207-.361l-1.018-1.105c-.189-.204.278-1.035.373-1.296.073.079.659.663.626.701l-.738.885-1.018 1.22c-.391.469-.823.005-1.257-.33l.985-1.176c.181-.216-.322-1.025-.429-1.284z"/><desc/><path fill="#1E5AA6" d="M16.472 54.621l.38.449-.248-.607-.132.158z"/><desc/><path fill="#1E5AA6" d="M19.194 55.018c.187-.176.367-.328.191-.531l-.191.531z"/><desc/><path d="M11.896 64.95l-.459-.368.08-.088.382.305.198-.219.077.063-.278.307z"/><desc/><path d="M12.229 64.556l-.433-.401.317-.303.072.068-.231.221.097.088.215-.203.072.067-.215.204.118.109.239-.227.073.067-.324.31z"/><desc/><path d="M12.361 63.982l-.067-.125-.004-.088.029-.08.086-.084c.068-.045.139-.062.212-.051.072.012.136.053.193.123.056.068.079.137.069.203-.009.068-.047.125-.116.17-.069.047-.14.064-.211.053-.073-.013-.136-.052-.191-.121m.094-.068l.125.086.123-.023.062-.1-.054-.137-.124-.086-.123.025-.064.1.055.135"/><desc/><path d="M13.345 63.57l-.284-.395-.15.094-.058-.08.401-.254.058.08-.15.094.284.395-.101.066z"/><desc/><path d="M13.597 63.379l-.263-.516.408-.182.044.086-.296.133.058.115.275-.122.044.085-.275.123.071.141.307-.137.045.086-.418.188z"/><desc/><path d="M14.061 63.102l-.247-.523.237-.1.136-.039.088.021.063.074.009.111-.088.096.081.018.104.059.117.072-.134.057-.135-.078-.096-.053-.045-.009-.059.018-.022.01.102.217-.111.049m-.03-.35l.083-.035.098-.047.021-.037-.007-.043-.035-.037-.052-.002-.083.033-.087.035.062.133"/><desc/><path d="M14.558 62.844l-.227-.531.239-.09.138-.037.087.027.061.072.005.113-.09.092.08.021.102.062.113.076-.137.053-.132-.086-.094-.055-.043-.008-.06.016-.023.008.095.224-.114.043m-.017-.35l.084-.033.099-.045.022-.035-.006-.043-.033-.037-.052-.006-.083.031-.089.033.058.135"/><desc/><path d="M17.132 62.129l-.05-.57.257-.021.143.005.075.049.034.089-.031.109-.115.062.069.043.078.086.084.106-.146.012-.1-.118-.071-.078-.04-.021-.062-.002-.024.002.021.238-.122.009m.094-.339l.09-.007.109-.018.032-.025.009-.043-.021-.045-.048-.02-.089.006-.096.008.014.144"/><desc/><path d="M18.659 62.056l.009-.573.259.004.142.018.07.057.025.09-.042.105-.122.051.065.05.068.094.073.112-.147-.002-.086-.125-.063-.086-.037-.023-.063-.008h-.024l-.004.238-.123-.002m.129-.328l.09.001.111-.005.035-.024.014-.043-.016-.046-.045-.023-.09-.003-.095-.002-.004.145"/><desc/><path d="M21.727 62.707l.301-.498.225.119.116.08.033.082-.023.09-.093.074-.132-.01.032.072.012.111.006.133-.129-.068-.012-.15-.012-.102-.02-.039-.051-.033-.022-.012-.125.207-.106-.056m.28-.23l.079.043.1.045.043-.006.035-.031.01-.049-.029-.041-.076-.043-.084-.045-.078.127"/><desc/><path d="M23.167 63.498l.39-.439.347.271-.066.075-.252-.197-.086.097.234.184-.065.073-.234-.184-.106.12.261.204-.065.074-.358-.278z"/><desc/><path d="M22.313 62.742l.051-.135.068-.064.084-.037.13.002c.085.014.151.051.194.111.044.059.058.133.042.221-.015.088-.052.152-.113.193-.06.041-.134.053-.219.037-.088-.016-.153-.051-.196-.111-.042-.057-.056-.131-.041-.217m.124.018l.022.148.108.068.125-.027.07-.133-.019-.148-.111-.066-.125.025-.07.133"/><desc/><path d="M17.597 61.805l.004-.146.04-.085.063-.059.115-.039c.082-.011.15.006.207.051.056.043.091.111.104.202.013.09 0 .164-.04.223-.041.057-.102.09-.182.102-.082.011-.15-.004-.207-.049-.056-.045-.091-.111-.104-.2m.113-.02l.064.138.117.032.102-.062.021-.151-.062-.138-.118-.031-.104.062-.02.15"/><desc/><path d="M15.612 62.424l-.126.045-.097-.105-.23.08.001.137-.123.043.011-.613.123-.043.441.456m-.296-.139l-.157-.172.001.227.156-.055"/><desc/><path d="M24.425 64.537l-.094-.09.06-.127-.17-.162-.134.059-.092-.088.6-.244.091.086-.261.566m.012-.31l.102-.205-.219.094.117.111"/><desc/><path d="M20.147 62.205l-.13-.023-.025-.139-.239-.045-.077.119-.128-.024.353-.517.128.023.118.606m-.174-.264l-.038-.224-.125.192.163.032"/><desc/><path d="M15.614 62.412l-.112-.562.181-.031.186.363.031-.402.181-.031.112.562-.112.02-.088-.443-.03.465-.117.02-.207-.422.088.443-.113.018z"/><desc/><path d="M16.624 62.189l-.062-.568.196-.02.146-.006.093.047.048.107-.01.09-.045.062-.06.031-.126.021-.08.009.024.215-.124.012m.07-.484l.018.16.068-.006.095-.02.035-.029.008-.046-.025-.05-.051-.021-.088.006-.06.006"/><desc/><path d="M18.2 62.058l-.015-.573.197-.004.146.004.089.054.038.11-.018.09-.05.059-.062.029-.127.01-.08.002.006.217-.124.002m.11-.479l.004.162.067-.001.097-.012.038-.029.012-.043-.021-.052-.05-.024-.088-.002-.059.001"/><desc/><path d="M21.241 62.473l.3-.498.172.092.123.074.048.09-.029.113-.062.068-.075.025-.071-.006-.115-.051-.07-.037-.113.188-.108-.058m.357-.356l-.085.141.059.031.089.037.047-.006.035-.033.011-.053-.029-.045-.075-.045-.052-.027"/><desc/><path d="M19.252 62.076l.07-.568.121.013-.07.569-.121-.014z"/><desc/><path d="M24.495 64.623l.367-.328-.124-.122.075-.066.333.331-.075.066-.125-.125-.367.328-.084-.084z"/><desc/><path d="M22.822 63.288l.303-.38-.146-.103.062-.077.388.273-.062.076-.144-.1-.303.38-.098-.069z"/><desc/><path d="M20.168 62.208l.172-.55.177.05-.011.403.222-.346.177.049-.172.549-.109-.03.136-.431-.252.398-.113-.031.02-.463-.135.432-.112-.03z"/><desc/><path d="M23.926 63.824l.076-.064.179.186-.18.152-.125-.035-.121-.086-.083-.141.012-.146.095-.129.152-.078.163.01.12.08.085.154-.042.141-.099-.07.019-.078-.04-.081-.125-.056-.144.064-.088.137.045.121.062.043.074.025.057-.052-.092-.097z"/><desc/><path d="M23.592 48.777s.367-.295.628-.303" fill="none"/><desc/><path d="M23.644 48.736c.009-.008 2.191-.295 2.261-.36" fill="none"/><desc/><path d="M23.653 48.753c.009-.008 2.444-.196 2.444-.196" fill="none"/><desc/><path d="M23.644 48.762s2.592-.115 2.749.008" fill="none"/><desc/><path d="M23.635 48.753s2.54.017 2.584.075" fill="none"/><desc/><path d="M23.644 48.753l2.444.188" fill="none"/><desc/><path d="M23.617 48.77c.009 0 2.488.205 2.732.5" fill="none"/><desc/><path d="M26.481 49.688c-.009-.009-.847-.943-2.872-.927" fill="none"/><desc/><path d="M23.617 48.777s1.406.091 1.851.55" fill="none"/><desc/><path d="M23.644 48.762s.908-.164 1.859.91" fill="none"/><desc/><linearGradient id="c" gradientUnits="userSpaceOnUse" x1="413.364" y1="-278.505" x2="414.385" y2="-278.371" gradientTransform="matrix(1 0 0 -1 -389 -224.5)"><stop offset="0" stop-color="#D5DFFF"/><stop offset="1" stop-color="#fff"/></linearGradient><path fill="url(#c)" d="M23.072 49.737c.14.006 1.259.018 1.259.162 0 .144-.798.442-.906.653-.249.49.523.73.673 1.103.212.523-.195.771-.564 1.007-.385.247-.492 1.125-.462 1.529.06.818.019 2.106.627 2.719.424.426 1.125.595.918-.253-.07-.287-.069-.405.025-.7.093-.289-.127-.508-.077-.746.044-.197.841.591.881.699.117.322.12 1.223-.399 1.076.071.709-.118 1.949-1.148 1.217l.052.23c-1.596-.611-1.298-2.98-1.258-4.333.021-.721-.021-1.413-.055-2.131-.012-.256.056-2.232.434-2.232z"/><desc/><path fill="#FF7000" d="M21.715 49.436c.109-.097 1.475-1.025 1.501-.662l-.106.129c.146-.001.452.057.506.221-.054.07-.123.104-.21.104.1.02.166.08.197.186.005.06-1.739.159-1.888.022z"/><desc/><path d="M21.764 49.401s.938-.116 1.333-.487" fill="none"/><desc/><path d="M22.714 49.157s.691-.023.691.069" fill="none"/><desc/><path fill="#fff" d="M25.171 58.646s.593-.128.752-.325c.1-.07.618.73-.752.325z"/><desc/><path d="M25.01 54.039c.095.648-.688.9-.521 1.408-.013-.04-.155 1.695.028 1.609" fill="none"/><desc/><path d="M23.924 52.648s-.47.152-.568.592" fill="none"/><desc/><path fill="#C75B00" d="M23.727 49.157s.161.418.68.024c-.335-.43-.68-.011-.68-.024z"/><desc/><path d="M24.109 49.14c-.038.054-.075.054-.111 0 .037-.054.074-.054.111 0z"/><desc/><path fill="#fff" d="M19.487 48.188c.26.258.543.498.852.696.438.282 1.164.297.472.867-.252.207-.651.032-.906-.145-.332-.229-.657-.459-.578-.883.009-.044.186-.488.16-.535z"/><desc/><path fill="#fff" d="M20.817 45.862c.088-.257.293-.648.602-.695-.035-.174.075-.393.15-.54.366-.721 1.068-1.232 1.828-1.471.071.491-.305.965-.648 1.271.78-.131 2.141-.251 2.684-.891-.247 1.271-1.772 1.721-2.88 1.717.666.594-.005 1.554-.798 1.25.915-.657-.364-1.012-.938-.641.127-.37.671-.434 0 0z"/><desc/><path fill="#CCCCCD" d="M21.581 45.341c.333-.2.6-.273.983-.217l-.266.043c.014.076.06.134.139.174-.308-.071-.539-.088-.856 0 .451-.272.509-.141 0 0z"/><desc/><path d="M21.407 45.167s.891-.445 1.388-.751" fill="none"/><desc/><path fill="#00f" d="M20.644 49.873c.594.123 1.089-.24 1.266-.805.276-.883-.885-2.521.029-3.238-1.412-.914-1.355 1.104-.96 1.792-.771-.192-1.212.203-.879.945.185-.655 1.921.879.544 1.306z"/><desc/><path fill="#00f" d="M22.021 48.547c.785-.435 1.281-1.286 1.261-2.185-.693.015-1.177.582-1.426 1.177-.133.32.075.688.165 1.008z"/><desc/><path fill="#fff" d="M16.214 48.471c-.607.479-1.705.924-2.383.358.12.366.36.723.708.907.795.421 2.383-.242 1.675-1.265z"/><desc/><path fill="#00f" d="M14.699 48.971c.175-.871.759.177.981-.521.189-.599-.32-.879-.853-.783.172-.864.049-1.924-.717-2.479-.078.415-.146.833-.196 1.252-.019.162.073 1.127.024 1.195.209-.293-1.538-1.028-1.667-1.056-.014.842 1.308 2.906 2.428 2.392.081-.403-.451.207 0 0z"/><desc/><path d="M14.827 47.656s-.602.478-.463 1.13" fill="none"/><desc/><path d="M13.912 47.591s-.139.467.162 1.13" fill="none"/><desc/><path d="M13.82 48.873s.277-.424.879.119" fill="none"/><desc/><path fill="#fff" d="M13.936 45.938c0-.044-.368.091-.389.104-.273.188-.119.546.019.766-.698.205-1.1-.68-.682-1.174-1.081-.023-2.88-.412-2.88-1.814.687.67 1.815.191 2.545.707-.369-.321-.553-.811-.498-1.295.445.139.872.363 1.231.658.279.229.519.51.675.838.129.273.149.402.085.69-.002.006-.12.508-.106.52z"/><desc/><path d="M12.531 44.488l1.643.775" fill="none"/><desc/><path fill="#CCCCCD" d="M12.929 45.438c.265-.03.729-.075.925.151-.283 0-.502-.02-.779.077l.145-.152-.291-.076z"/><desc/><path fill="#923F00" d="M16.503 40.168c.241-.183.565-.208.822-.033-.131.369-.558.434-.891.338-.092.324.033.837.399.793.455-.053.761.251 1.21.148.513-.115.982-.163 1.477.076.142.069.388.97.503.914-.104.049-.563-.045-.535-.07-.246.231.449.691.381 1.02-.091.443.133 1.382-.498 1.498l-.069-.293-.196.108c.159-.477.652-1.14.081-1.518-.36-.239-.756.862-.59 1.072l-.139-.152c-.039.226-.161.42-.382.489-.309-.571.531-.704.452-1.229-.08-.523-.287-.572-.78-.512-.418.051-.4.115-.443.555-.017.182-.026.367-.026.549 0 .571-.109.461-.405.931l-.081-.174-.162.109c.269-.656.3-1.302.348-2.001-.413.002-.563.609-.498.945.074.381.129.414-.07.686-.068.094-.468.197-.451.314-.102-.656.467-1.354.231-2.021-.01-.028-.275.088-.312.088-.029 0 .224-.455.12-.439-.148.023-.259.147-.41.016-.042.087.369-.523.229-.451-.083.074-.178.095-.287.06.027-.112.086-.203.173-.272h-.185c.394.123-.298-1.138-.3-1.151-.324.15-.623-.036-.833-.294.331-.266.724.018.931-.192.289-.294.955-.242 1.186.093z"/><desc/><path fill="#00f" d="M19.413 45.791c.242 0 .518.051.732.163.258.136.41.807-.013.724-.796-.159-.751-.016-.719-.887z"/><desc/><path fill="#FFFEFF" d="M18.469 45.654c.258.001.525.024.772.102.327.102.613.688.111.789-.765.152-.752-.283-.883-.891z"/><desc/><path fill="#00f" d="M17.785 45.6c.243.019.51.007.747.063.399.096.509.646.074.786-.239.078-.536.008-.78-.005-.111-.006-.042-.71-.041-.844z"/><desc/><path fill="#fff" d="M16.138 45.791c-.243 0-.518.051-.733.163-.258.136-.411.807.012.724.798-.159.753-.016.721-.887z"/><desc/><path fill="#00f" d="M17.082 45.654c-.258.001-.525.024-.772.102-.327.102-.613.688-.111.789.765.153.751-.283.883-.891z"/><desc/><path fill="#fff" d="M17.766 45.6c-.243.019-.51.006-.748.063-.399.096-.509.646-.074.786.238.078.536.008.78-.005.112-.006.044-.71.042-.844z"/><desc/><path fill="#5E0043" d="M19.649 51.095c.108-.149.842-1.017.809-.386-.029.551-.38.401-.809.386z"/><desc/><path fill="#5E0043" d="M16.184 51.22c-.082-.107-.731-1.095-.694-.386.027.511.286.403.694.386z"/><desc/><path d="M16.518 49.835c.374.214.868.565 1.309.585.441.021 1.01-.494 1.348-.74" fill="none"/><desc/><path fill="#5E0043" d="M16.613 47.599c.22-.438.777.059 1.094.21.372.178.862-.697 1.192-.195-.238.158-.797.707-1.072.711-.311.003-.937-.56-1.214-.726z"/><desc/><path fill="#474747" d="M15.861 47.586c.15.178 1.057 1.298.833 1.51.096-.092-.08-.79-.098-.936.241.113.998.889 1.159.518l-2.191-1.337.297.245z"/><desc/><path fill="#474747" d="M19.6 47.547c-.439.574-.766 1.324-.702 2.059-.136-.428-.095-.924-.032-1.362-.357.187-.21.759-.583.94l-.032-.119c-.343.352-.317.533-.294 1.018.008.15.045 1.017.194 1.004l-.239.127-.081-1.549c-.028-.53.491-.654.53-1.214-.331.264-.286.513-.555.864-.029-.641-.038-.613.493-.947l1.301-.821z"/><desc/><path d="M17.779 48.688l.154 2.962" fill="none"/><desc/><path d="M15.841 50.102c.423.3.293.793.827.796.386.002.851.044 1.174.282.14.104.654-.193.82-.238.337-.093.565.002.769-.271.141-.188.309-.359.484-.518" fill="none"/><desc/><path fill="#B4B6B9" d="M15.346 47.198c.308.188 2.234 1.622 2.45 1.485.294-.186 2.684-1.391 2.593-1.781-.104-.453-2.407 1.525-2.585 1.42l-1.575-.936c-.167-.098-1.165-.796-.883-.188z"/><desc/><path fill="#474747" d="M19.698 46.81c-.833-.396-.381.222-.582.567-.02-.074-.578-.731-.587-.732-.473-.053-.568.688-.734 1.01l.035-1.143c.628.042 1.254.119 1.88.188l-.012.11z"/><desc/><path fill="#474747" d="M17.495 46.522c-.225 0-.466.039-.683.095-.305.077.087.244.014.475-.132.409-.937-.219-1.116-.369.524-.068 1.266-.306 1.785-.201z"/><desc/><path d="M17.764 46.392l-.004 1.403" fill="none"/><desc/><path d="M16.613 44.737s-.683 1.042-.696 1.073" fill="none"/><desc/><linearGradient id="d" gradientUnits="userSpaceOnUse" x1="409.209" y1="-269.678" x2="409.577" y2="-269.678" gradientTransform="matrix(1 0 0 -1 -389 -224.5)"><stop offset="0" stop-color="#474747"/><stop offset="1" stop-color="#f50"/></linearGradient><path fill="url(#d)" d="M17.869 44.711c.207.229.424.646.521.934"/><desc/><path d="M19.018 44.648s-.642.851-.622.914" fill="none"/><desc/><path d="M15.73 40.603c-.037.12-.35.031-.312-.091.035-.119.349-.029.312.091z"/><desc/><path d="M15.99 40.586c.037.119.349.03.312-.09-.035-.12-.348-.03-.312.09z"/><desc/><path fill="#FF7000" d="M23.503 58.211c-.317.105-.831-.034-1.041.195.204-.081.234.082.327.168.108.098 1.029-.043 1.223-.046l-.509-.317z"/><desc/><path fill="#FF7000" d="M23.934 58.549c-.305.008-1.068-.138-1.197.277.028-.092.226.246.208.23.403-.124.914.018 1.342-.033.105-.012 1.008-.23.494-.408l-.847-.066z"/><desc/><linearGradient id="e" gradientUnits="userSpaceOnUse" x1="415.95" y1="-284.926" x2="412.177" y2="-284.399" gradientTransform="matrix(1 0 0 -1 -389 -224.5)"><stop offset="0" stop-color="#D5DFFF"/><stop offset="1" stop-color="#fff"/></linearGradient><path fill="url(#e)" d="M20.7 60.369l1.7-.071-.317-.253 4.598-.174c-.066-.688-1.978-.274-2.436-.258l-2.871.109.619.271-1.391.039.042.136-.365-.014c.086.027.401.116.421.215z"/><desc/><linearGradient id="f" gradientUnits="userSpaceOnUse" x1="411.627" y1="-278.677" x2="411.311" y2="-277.876" gradientTransform="matrix(1 0 0 -1 -389 -224.5)"><stop offset="0" stop-color="#D5DFFF"/><stop offset="1" stop-color="#fff"/></linearGradient><path fill="url(#f)" d="M22.606 51.546c-.317-.146-1.396-.007-1.388.392l.024 1.309c.403-.199.983-.491 1.445-.38-.026-.438-.003-.888-.081-1.321-.135-.062.055.305 0 0z"/><desc/><path d="M13.207 55.899l-4.009 3.739" fill="none"/><desc/><path d="M14.994 55.927l-3.253 4.025" fill="none"/><desc/><path d="M14.848 54.876l-4.342 4.94" fill="none"/><desc/><path d="M10.375 59.746l.422-.463" fill="none"/><desc/><path d="M15.676 57.359l-1.685 2.184" fill="none"/><desc/><path d="M13.919 59.829l.044.833" fill="none"/><desc/><path d="M16.446 58.124l-1.787 2.102" fill="none"/><desc/><path d="M16.126 60.062l.726-1.119" fill="none"/><desc/><path d="M16.402 58.723l-.871.93" fill="none"/><desc/><path d="M16.141 57.851l-.595.683" fill="none"/><desc/><path d="M15.371 56.854s-1.815 2.497-1.787 2.702" fill="none"/><desc/><path d="M15.182 56.527c-.043.027-1.568 1.924-1.568 1.924" fill="none"/><desc/><path d="M13.527 59.052l-.276.313" fill="none"/><desc/><path d="M12.902 59.843l-.421.519" fill="none"/><desc/><path fill="#8A9396" d="M13.009 50.152c-.245.629.612 1.656.896 2.195.097-.111.705-.835.792-.531.128.451.059.998.036 1.461-.031.625-.796-.104-.288.77.348.596.184 1.098.006 1.717-.171.591-.363 1.183-.614 1.744-.169.379-.667.785-.323.137.081-.154-.001-1.107-.123-1.18.026.016-.293-.906-.205-.947-.391.182-.751 1.301-1.352.942.228.459-.068.507-.059.866.004.199-.128.105-.174.239-.062.177.054.417.058.6.003.114.061.44-.061.461-.388.064-.513.437-.449.789-1.717-.569-3.099-1.8-2.493-3.729.122-.387.33-.754.65-1.012.128-.102.268-.184.42-.244.091-.319.2-.633.319-.941.1-.262.296-.566.349-.843.078-.409-.1-.674.215-1.05.146-.172.043-.539.043-.756l.166-.911c-.001-.304-.044-.651.059-.944.094-.268.704-.311.938-.45.344-.206 1.184-.032 1.572.132.434.183-.116 1.28-.378 1.485z"/><desc/><path fill="#CECFCF" d="M12.244 49.008c.07.123-.311.317-.38.193-.071-.122.311-.314.38-.193z"/><desc/><path d="M12.098 49.093c-.043.073-.086.073-.13 0 .044-.073.087-.073.13 0z"/><desc/><path d="M13.383 49.637s.213.896-.042 1.514" fill="none"/><desc/><path d="M13.448 49.246s.417.518.363 1.162" fill="none"/><desc/><path d="M13.489 49.132c.013 0 .349.278.335.468" fill="none"/><desc/><path d="M13.569 49.019s.228.151.282.302" fill="none"/><desc/><path d="M13.462 48.931s-.819 1.249-.711 2.031" fill="none"/><desc/><path d="M13.516 48.893s-1.088.605-1.29 2.588" fill="none"/><desc/><path d="M13.395 49.259l-.43.302" fill="none"/><desc/><path d="M11.824 51.593s.604-2.358 1.679-2.7" fill="none"/><desc/><path fill="#2B2B2B" d="M13.919 52.388c.074-.085.679-.772.742-.62.166.4.073 1.001.066 1.426l-.491.52c.205.362.529.729.408 1.174-.036-.248-.153-.482-.24-.719-.127-.342-.87-.803-.865-1.064.001-.056.616.451.636.199l-.256-.916z"/><desc/><path d="M12.892 48.551c-.303.083-.439.5-.75.165" fill="none"/><desc/><path fill="#2B2B2B" d="M11.513 49.349c-.039.036-.353.346-.188.384.149.035.306-.158.365-.27-.095.604.277.379.592.174.416-.271.625.278 1.03.096-.125.309-.547.722-.916.643-.255-.053-.835-.254-.927-.508-.034.024-.164.157-.209.083-.108-.176.088-.535.253-.602z"/><desc/><path d="M13.576 48.872c-.181-.049-.38-.071-.567-.046-.216.029-.771.591-.393.689" fill="none"/><desc/><path d="M13.68 48.854c0 .173-.253.173-.253 0s.253-.172.253 0z"/><desc/><path fill="#2B2B2B" d="M11.722 50.468l.701.568c.033.158-.622-.047-.654-.067-.034-.042-.248-.752-.047-.501z"/><desc/><path fill="#2B2B2B" d="M14.07 52.81c-.091-.118-.936-1.21-1.057-1.097.147-.139.489.246.555.195.056-.044-.117-.346-.148-.394l.65 1.296z"/><desc/><path fill="#2B2B2B" d="M11.647 58.627c.377-.095 1.021.382 1.325.555.492.282.845.523 1.446.402-.079.047-.4.245-.476.215.148.059.382.027.54.023-.656.15-1.358.145-2.019.025-.387-.069-1.344-.189-1.33-.674.009-.276.228-.535.514-.546.296-.074-.126.005 0 0z"/><desc/><path fill="#2B2B2B" d="M13.532 53.057c-.47-.088-.773-.736-1.238-.958-.203-.097-1.112-.466-1.312-.304-.388.313-.095.907.116 1.191.28.381.309.721.685 1 .385.287.242.432-.119.783-.269.262-.761.6.011.777.264.061 1.269.169 1.353-.173.188-.762-.699-.551-.699-.457 0-.296.366-.409.577-.353.428.113.446.751.909.577 1.518-.569-.599-1.679-.283-2.083z"/><desc/><path fill="#2B2B2B" d="M8.966 55.071c.678-.163 1.105-.246 1.751.062.626.297 1.17 1.26 1.939.881-.273.752-1.258-.221-1.589-.445-.753-.51-1.657-.623-2.223.211.025-.113-.014-.244.032-.357l-.137.139.227-.491z"/><desc/><path fill="#2B2B2B" d="M11.98 55.666c.305.277 1.127.086 1.093-.382.176.111.294.246.147.367l-.037-.119c-.167.195-.418.343-.667.405-.209.053-.784-.271-.536-.271z"/><desc/><path fill="#2B2B2B" d="M10.787 56.316c-.203-.02-.688.27-.807.109-.189-.256.675-.23.807-.109z"/><desc/><path fill="#2B2B2B" d="M11.821 57.07c0-.352-.208-.799-.638-.705.212-.047.604.631.517.818.144-.307-1.024-.41-.908-.238.109.161.38.037.512.244.097.152.183.316.259.48.149-.179.188-.359.258-.599z"/><desc/><path fill="#2B2B2B" d="M11.61 58.339c-.089-.167-.168-.346-.269-.506-.053-.083-.821-.845-.844-.377-.011.226.575.14.531.409-.005.037-.785.147-.863.031-.119-.18-.042-.461-.208-.463-.134-.002-.012-.597-.206-.718-.347-.217-.288-.526-.089-.884.381-.688 1.22.004 1.58.34-.379-.424-.857-.902-1.463-.68-.501.185-.699 1.46-1.012 1.102-.059.356.364.516.058.833-.131-.309-.325-.719-.274-1.062-.258 1.048.538 1.912 1.341 2.428.251.16.517.299.788.423.473.216.425.032.665-.347.081-.132.265-.355.265-.529z"/><desc/><path fill="#8A9396" d="M10.48 58.345c.355.022.561.293.581.635.179-.339.56-.34.186-.667-.176-.154-.321-.254-.558-.166.057-.022-.521.262-.209.198z"/><desc/><path d="M11.276 59.197s.903.387 2.39.412" fill="none"/><desc/><path d="M14.291 55.26s-.078.712-.661 2.117" fill="none"/><desc/><path d="M14.174 55.698s-.174.511-.661.894" fill="none"/></svg>