<svg xmlns="http://www.w3.org/2000/svg" width="64" height="48" viewBox="-31.5 24.5 64 48" enable-background="new -31.5 24.5 64 48"><desc/><desc/><path fill="#fff" d="M-31.5 24.5h64v48h-64v-48z"/><desc/><path fill="#3E98D4" d="M-31.5 24.5h21v48h-21v-48z"/><desc/><path fill="#3E98D4" d="M11.5 24.5h21v48h-21v-48z"/><desc/><path d="M-2.042 54.73c.244-.032.384-.092.55-.146" fill="none"/><desc/><path d="M-1.29 54.261c.123.115.22.237.273.373" fill="none"/><desc/><path d="M-1.756 54.227c.128.104.217.217.286.334" fill="none"/><desc/><path d="M-5.991 43.576c-.095.129-.282.22-.436.275" fill="none"/><desc/><path d="M-6.458 43.837c.003-.11-.021-.244.004-.354" fill="none"/><desc/><path d="M-6.633 43.887l.062.163" fill="none"/><desc/><path d="M-6.387 44.124l-.185.026" fill="none"/><desc/><path d="M-6.933 44.081c-.001.202.026.446.049.629" fill="none"/><desc/><path d="M-7.047 44.632l.141.152" fill="none"/><desc/><path d="M-7.325 45.305c.044.075.086.17.119.317" fill="none"/><desc/><path d="M-6.867 45.25l-.176.124" fill="none"/><desc/><path d="M-6.897 45.729c-.089.068-.201.119-.312.17" fill="none"/><desc/><path d="M-7.558 49.146c.105.151.221.287.361.377" fill="none"/><desc/><path d="M-7.144 49.66c-.118-.014-.197-.044-.269-.078" fill="none"/><desc/><path d="M-7.012 50.258l.154.078" fill="none"/><desc/><path d="M-6.897 50.615c.114.064.229.184.343.311" fill="none"/><desc/><path d="M-6.687 51.154c.126.022.228.052.295.086" fill="none"/><desc/><path d="M-6.488 51.436l.194.006" fill="none"/><desc/><path d="M-6.185 51.007l-.044.343" fill="none"/><desc/><path d="M-6.136 51.479l.04-.133" fill="none"/><desc/><path d="M-5.669 51.826l-.013.261" fill="none"/><desc/><path d="M-2.108 54.331l-.105.128" fill="none"/><desc/><path d="M-2.434 54.145l-.062-.146" fill="none"/><desc/><path fill="#67923D" d="M-6.216 51.043c-.255-.507-.125-1.738-.018-1.893.605 1.045.403 1.911.018 1.893z"/><desc/><path fill="#406325" d="M-6.209 51.029c.385.018.584-.836-.024-1.879.109.991.109 1.793.024 1.879z"/><desc/><path fill="#406325" d="M1.059 55.329c-.337-.456-1.325-.59-1.839-.688-.726-.139-1.351-.429-2.061-.634-1.172-.338-2.347-1.286-3.083-2.243-1.939-2.521-1.881-6.401.155-8.854-1.055.729-1.648 2.847-1.654 4.06-.008 1.772.247 3.404 1.375 4.862.833 1.077 2.063 1.958 3.369 2.325.717.201 1.358.446 2.092.615.376.087 1.385.669 1.646.557z"/><desc/><path fill="#67923D" d="M-2.034 54.691c-.647.029-1.879.748-1.994.918 1.376.009 2.19-.588 1.994-.918z"/><desc/><path fill="#67923D" d="M-1.354 54.348c-.624-.438-1.293-1.902-1.279-2.131 1.377.871 1.726 1.952 1.279 2.131z"/><desc/><path fill="#67923D" d="M-1.814 54.354c-.634-.342-1.439-1.617-1.453-1.83 1.385.658 1.841 1.619 1.453 1.83z"/><desc/><path fill="#67923D" d="M-3.234 53.809c.09-.629-.517-1.949-.691-2.09-.269 1.324.273 2.217.691 2.09z"/><desc/><path fill="#67923D" d="M-5.724 51.854c-.21-.454-.056-1.554.043-1.688.504.939.298 1.706-.043 1.688z"/><desc/><path fill="#406325" d="M-5.19 52.639c-.408-.438-1.767-.91-1.979-.896.809.971 1.812 1.213 1.979.896z"/><desc/><path fill="#406325" d="M-7.417 48.378c-.105-.646-1.125-1.826-1.344-1.928.138 1.381.962 2.148 1.344 1.928z"/><desc/><path fill="#406325" d="M-6.652 51.136c-.455-.297-1.729-.43-1.909-.38.924.668 1.843.68 1.909.38z"/><desc/><path fill="#406325" d="M-7.505 49.139c-.263-.457-1.35-1.084-1.54-1.102.503.996 1.327 1.361 1.54 1.102z"/><desc/><path fill="#406325" d="M-7.256 45.316c.083-.609-.504-1.887-.669-2.023-.262 1.28.266 2.145.669 2.023z"/><desc/><path fill="#67923D" d="M-6.973 45.677c.327-.534 1.676-1.264 1.914-1.28-.618 1.169-1.645 1.593-1.914 1.28z"/><desc/><path fill="#67923D" d="M-6.908 45.229c.196-.586 1.356-1.549 1.583-1.609-.341 1.259-1.248 1.862-1.583 1.609z"/><desc/><path fill="#406325" d="M-6.849 44.116c.243-.522.069-1.804-.047-1.964-.584 1.087-.349 1.983.047 1.964z"/><desc/><path fill="#406325" d="M-6.391 43.501c.286-.384.38-1.422.318-1.565-.659.781-.634 1.523-.318 1.565z"/><desc/><path fill="#406325" d="M-5.848 43.008c.401-.279.841-1.247.828-1.402-.888.559-1.114 1.273-.828 1.402z"/><desc/><path fill="#406325" d="M-7.312 46.48c.01.068-.089-.657-.917-1.474.038 1.194.57 1.644.917 1.474z"/><desc/><path fill="#67923D" d="M-4.374 53.203c-.455-.497-.73-1.919-.665-2.12 1.028 1.006 1.098 2.028.665 2.12z"/><desc/><path fill="#406325" d="M-4.344 53.379c-.563-.365-2.132-.541-2.349-.477 1.146.832 2.269.849 2.349.477z"/><desc/><path fill="#67923D" d="M-7.485 46.402c.372-.375 1.593-.733 1.787-.713-.733.838-1.635 1.006-1.787.713z"/><desc/><path fill="#406325" d="M-3.242 53.8c-.415.128-.952-.757-.688-2.081.256 1.122.564 2.015.688 2.081z"/><desc/><path fill="#406325" d="M-2.03 54.695c.193.328-.611.921-1.986.91 1.09-.392 1.936-.793 1.986-.91z"/><desc/><path fill="#406325" d="M-1.356 54.337c.443-.181.1-1.249-1.277-2.12.783 1.062 1.317 1.978 1.277 2.12z"/><desc/><path fill="#406325" d="M-1.819 54.344c.39-.215-.063-1.162-1.449-1.82.857.898 1.468 1.685 1.449 1.82z"/><desc/><path fill="#406325" d="M-5.72 51.852c.34.02.543-.744.043-1.683.066.883.038 1.606-.043 1.683z"/><desc/><path fill="#67923D" d="M-5.199 52.643c-.165.314-1.157.073-1.974-.896.993.547 1.846.924 1.974.896z"/><desc/><path fill="#67923D" d="M-7.423 48.376c-.382.22-1.197-.542-1.339-1.92.604 1.062 1.189 1.88 1.339 1.92z"/><desc/><path fill="#67923D" d="M-6.655 51.139c-.07.299-.975.288-1.902-.38.978.273 1.799.429 1.902.38z"/><desc/><path fill="#67923D" d="M-7.517 49.132c-.212.261-1.029-.103-1.532-1.099.747.641 1.413 1.106 1.532 1.099z"/><desc/><path fill="#67923D" d="M-7.265 45.309c-.404.125-.927-.729-.665-2.012.243 1.085.541 1.944.665 2.012z"/><desc/><path fill="#406325" d="M-6.975 45.682c.269.312 1.281-.104 1.9-1.281-.926.749-1.753 1.29-1.9 1.281z"/><desc/><path fill="#406325" d="M-6.897 45.23c.335.252 1.234-.349 1.574-1.606-.738.903-1.427 1.587-1.574 1.606z"/><desc/><path fill="#67923D" d="M-6.857 44.111c-.393.02-.626-.868-.042-1.954-.076 1.029-.047 1.868.042 1.954z"/><desc/><path fill="#67923D" d="M-6.398 43.496c-.316-.043-.339-.775.321-1.559-.25.803-.379 1.478-.321 1.559z"/><desc/><path fill="#67923D" d="M-5.853 43.008c-.286-.133-.064-.839.824-1.395-.504.696-.849 1.301-.824 1.395z"/><desc/><path fill="#67923D" d="M-7.318 46.482c-.347.168-.874-.282-.911-1.476.465.942.785 1.433.911 1.476z"/><desc/><path fill="#406325" d="M-4.371 53.198c.432-.091.36-1.108-.661-2.113.457 1.079.731 1.991.661 2.113z"/><desc/><path fill="#67923D" d="M-4.349 53.382c-.081.371-1.198.354-2.341-.475 1.201.344 2.211.538 2.341.475z"/><desc/><path fill="#406325" d="M-7.489 46.409c.147.292 1.044.123 1.777-.714-1.091.547-1.524.784-1.777.714z"/><desc/><path fill="#406325" d="M-7.32 47.839c.188-.675-.155-1.817-.392-2.056-.43 1.24-.022 2.139.392 2.056z"/><desc/><path fill="#67923D" d="M-7.347 47.999c-.538.106-.789-.968-.372-2.179.098 1.09.259 2.104.372 2.179z"/><desc/><path fill="#67923D" d="M-6.985 50.271c-.63.088-1.947-.373-2.09-.511 1.325-.252 2.214.168 2.09.511z"/><desc/><path fill="#406325" d="M-7.002 50.266c.128-.341-.756-.752-2.079-.502 1.118.175 2.009.404 2.079.502z"/><desc/><path fill="#67923D" d="M-7.188 49.492c.075-.448.79-1.271.944-1.34-.1.962-.678 1.496-.944 1.34z"/><desc/><path fill="#406325" d="M-7.179 49.493c.265.151.836-.375.938-1.336-.426.739-.836 1.308-.938 1.336z"/><desc/><path fill="#67923D" d="M-7.457 47.995c-.051-.604.632-1.856.813-1.986.184 1.27-.406 2.115-.813 1.986z"/><desc/><path fill="#406325" d="M-7.447 47.986c.403.132.99-.704.806-1.978-.32 1.07-.679 1.914-.806 1.978z"/><desc/><path fill="#67923D" d="M-7.329 48.764c0-.613.772-1.789.963-1.898.076 1.297-.577 2.073-.963 1.898z"/><desc/><path fill="#406325" d="M-7.322 48.773c.386.179 1.031-.592.955-1.894-.403 1.037-.825 1.846-.955 1.894z"/><desc/><path fill="#67923D" d="M-5.094 52.619c-.367-.35-.652-1.395-.615-1.547.822.703.932 1.461.615 1.547z"/><desc/><path fill="#406325" d="M-5.092 52.615c.316-.086.205-.84-.612-1.542.401.782.657 1.448.612 1.542z"/><desc/><path fill="#BA1F3E" d="M-6.983 44.581c-.066.116-.132.116-.198 0 .066-.116.132-.116.198 0z"/><desc/><path fill="#BA1F3E" d="M-6.221 44.083c-.066.116-.132.116-.198 0 .066-.116.132-.116.198 0z"/><desc/><path fill="#BA1F3E" d="M-6.552 43.812c-.066.114-.132.114-.198 0 .066-.117.132-.117.198 0z"/><desc/><path fill="#BA1F3E" d="M-7.361 49.557c0 .136-.233.136-.233 0s.233-.137.233 0z"/><desc/><path fill="#BA1F3E" d="M-7.13 48.27c0 .137-.232.138-.232 0 0-.135.232-.135.232 0z"/><desc/><path fill="#BA1F3E" d="M-5.929 51.271c0 .136-.233.136-.233 0 0-.137.233-.136.233 0z"/><desc/><path fill="#BA1F3E" d="M-6.459 51.43c0 .137-.23.137-.233 0 0-.136.233-.136.233 0z"/><desc/><path fill="#BA1F3E" d="M-2.419 53.938c0 .138-.233.137-.233 0 0-.136.233-.134.233 0z"/><desc/><path fill="#BA1F3E" d="M-2.154 54.508c0 .136-.233.136-.233 0s.233-.136.233 0z"/><desc/><path fill="#67923D" d="M-6.633 50.609c-.326-.467-.354-1.684-.266-1.849.753.953.661 1.819.266 1.849z"/><desc/><path fill="#406325" d="M-6.852 50.615c-.243-.504-1.349-1.243-1.548-1.274.45 1.097 1.298 1.54 1.548 1.274z"/><desc/><path fill="#406325" d="M-6.638 50.598c.395-.031.486-.889-.268-1.838.243.953.346 1.743.268 1.838z"/><desc/><path fill="#67923D" d="M-6.873 50.616c-.25.266-1.087-.173-1.538-1.272.742.732 1.411 1.271 1.538 1.272z"/><desc/><path fill="#67923D" d="M-2.508 54.199c-.773.035-2.246.894-2.382 1.096 1.643.012 2.617-.703 2.382-1.096z"/><desc/><path fill="#406325" d="M-2.511 54.212c.235.392-.726 1.099-2.374 1.087 1.302-.47 2.314-.947 2.374-1.087z"/><desc/><path d="M7.898 45.201l.209.152" fill="none"/><desc/><path d="M7.504 43.83c-.004-.109-.059-.29-.084-.4" fill="none"/><desc/><path d="M7.734 43.67c.005.156-.021.307-.098.441" fill="none"/><desc/><path d="M7.259 44.068c.159.127.319.248.479.312" fill="none"/><desc/><path d="M8.086 44.48c.01.16-.013.317-.062.479" fill="none"/><desc/><path d="M8.055 45.08l.119-.182" fill="none"/><desc/><path d="M8.003 45.881c.128.023.257.156.32.28" fill="none"/><desc/><path d="M8.366 46.057l.149-.176" fill="none"/><desc/><path d="M8.672 48.352c-.068.104-.145.196-.225.28" fill="none"/><desc/><path d="M8.086 48.626c.072.117.143.237.237.324" fill="none"/><desc/><path d="M8.547 49.423c-.119.144-.252.254-.404.323" fill="none"/><desc/><path d="M8.154 50.107c-.1.062-.221.238-.336.379" fill="none"/><desc/><path d="M8.588 48.864l-.193.069" fill="none"/><desc/><path d="M8.268 48.332l.114.09" fill="none"/><desc/><path d="M7.534 51.428l-.193.006" fill="none"/><desc/><path d="M7.159 51.277l.056.133" fill="none"/><desc/><path d="M6.512 51.822c-.023.148-.007.3.02.449" fill="none"/><desc/><path d="M6.922 51.547l.094.182" fill="none"/><desc/><path d="M7.364 51.712l-.23.033" fill="none"/><desc/><path d="M4.32 53.775l-.084.141" fill="none"/><desc/><path d="M5.322 53.602c-.137.017-.254-.004-.373-.018" fill="none"/><desc/><path d="M4.451 54.062l-.27-.076" fill="none"/><desc/><path d="M2.839 54.199c-.083.062-.182.195-.28.328" fill="none"/><desc/><path d="M2.509 54.161c-.223.101-.29.298-.405.467" fill="none"/><desc/><path d="M2.359 54.857c-.143-.037-.312-.1-.486-.164" fill="none"/><desc/><path d="M3.4 54.639c-.211-.097-.433-.088-.649-.117" fill="none"/><desc/><path d="M3.73 54.493c-.33-.058-.639-.05-.937-.011" fill="none"/><desc/><path d="M3.505 54.273l-.128-.047" fill="none"/><desc/><path d="M2.873 54.669l-.212-.104" fill="none"/><desc/><path fill="#2CA02C" d="M7.943 50.607c-.114.065-.229.185-.344.312"/><desc/><path fill="#406325" d="M7.215 51.282c.25-.597 0-1.997-.136-2.167-.604 1.237-.306 2.212.136 2.167z"/><desc/><path fill="#67923D" d="M7.207 51.27c-.439.045-.738-.92-.127-2.152-.045 1.138.022 2.058.127 2.152z"/><desc/><path fill="#406325" d="M-.011 55.323c.325-.458 1.331-.593 1.837-.688.727-.139 1.35-.429 2.061-.633 1.171-.336 2.348-1.287 3.083-2.243 1.938-2.519 1.884-6.404-.153-8.854 1.052.738 1.646 2.842 1.651 4.059.008 1.775-.247 3.401-1.375 4.862-.832 1.077-2.061 1.958-3.366 2.326-.717.202-1.362.445-2.095.615-.372.086-1.384.667-1.643.556z"/><desc/><path fill="#67923D" d="M2.341 54.779c.646.029 1.88.746 1.993.916-1.375.01-2.189-.588-1.993-.916z"/><desc/><path fill="#67923D" d="M2.341 54.141c.191-.641 1.368-1.705 1.597-1.781-.329 1.376-1.252 2.053-1.597 1.781z"/><desc/><path fill="#67923D" d="M4.279 53.801c-.09-.629.518-1.949.691-2.089.27 1.324-.272 2.218-.691 2.089z"/><desc/><path fill="#406325" d="M6.566 51.85c.211-.455.057-1.555-.043-1.688-.502.94-.296 1.704.043 1.688z"/><desc/><path fill="#67923D" d="M6.236 52.632c.408-.44 1.768-.911 1.979-.896-.809.971-1.813 1.213-1.979.896z"/><desc/><path fill="#67923D" d="M8.588 48.35c.082-.51.887-1.438 1.059-1.519-.11 1.088-.758 1.69-1.059 1.519z"/><desc/><path fill="#67923D" d="M7.521 51.409c.53-.345 2.017-.501 2.226-.442-1.077.778-2.147.792-2.226.442z"/><desc/><path fill="#67923D" d="M8.459 49.438c.275-.479 1.419-1.14 1.619-1.158-.529 1.047-1.394 1.431-1.619 1.158z"/><desc/><path fill="#67923D" d="M8.324 45.773c-.01-.612.728-1.828.908-1.948.107 1.298-.521 2.107-.908 1.948z"/><desc/><path fill="#406325" d="M8.1 45.886c-.301-.489-1.537-1.159-1.757-1.176.566 1.075 1.509 1.463 1.757 1.176z"/><desc/><path fill="#406325" d="M7.954 45.241c-.163-.488-1.13-1.291-1.318-1.343.282 1.051 1.039 1.553 1.318 1.343z"/><desc/><path fill="#67923D" d="M7.691 43.689c-.211-.424-.101-1.48-.008-1.613.506.881.337 1.621.008 1.613z"/><desc/><path fill="#67923D" d="M7.307 43.516c-.48-.377-.972-1.59-.949-1.776 1.07.742 1.31 1.634.949 1.776z"/><desc/><path fill="#67923D" d="M8.366 46.292c-.028.065.269-.619 1.297-1.229-.366 1.146-1.007 1.468-1.297 1.229z"/><desc/><path fill="#406325" d="M5.227 53.372c.396-.534.506-1.974.416-2.168-.907 1.094-.858 2.116-.416 2.168z"/><desc/><path fill="#67923D" d="M5.258 53.521c.639-.416 2.419-.614 2.665-.541-1.299.946-2.573.963-2.665.541z"/><desc/><path fill="#406325" d="M8.387 46.443c-.322-.325-1.383-.637-1.551-.618.637.727 1.42.874 1.551.618z"/><desc/><path fill="#406325" d="M4.288 53.793c.414.129.952-.757.688-2.081-.255 1.122-.564 2.017-.688 2.081z"/><desc/><path fill="#406325" d="M2.336 54.783c-.191.328.611.919 1.986.908-1.09-.391-1.935-.791-1.986-.908z"/><desc/><path fill="#406325" d="M2.352 54.135c.346.27 1.258-.396 1.588-1.775-.743.997-1.435 1.751-1.588 1.775z"/><desc/><path fill="#67923D" d="M6.562 51.846c-.34.02-.543-.744-.043-1.683-.064.882-.037 1.607.043 1.683z"/><desc/><path fill="#406325" d="M6.245 52.636c.165.314 1.157.073 1.974-.896-.992.548-1.846.924-1.974.896z"/><desc/><path fill="#406325" d="M8.593 48.348c.302.174.942-.427 1.054-1.513-.475.836-.936 1.479-1.054 1.513z"/><desc/><path fill="#406325" d="M7.525 51.412c.082.35 1.137.336 2.218-.441-1.139.318-2.097.5-2.218.441z"/><desc/><path fill="#406325" d="M8.471 49.432c.225.272 1.082-.106 1.61-1.154-.785.671-1.483 1.16-1.61 1.154z"/><desc/><path fill="#406325" d="M8.334 45.768c.387.162 1.009-.641.902-1.938-.372 1.055-.771 1.882-.902 1.938z"/><desc/><path fill="#67923D" d="M8.102 45.891c-.248.286-1.178-.098-1.744-1.176.849.687 1.607 1.183 1.744 1.176z"/><desc/><path fill="#67923D" d="M7.945 45.241c-.279.211-1.029-.288-1.312-1.339.615.754 1.189 1.325 1.312 1.339z"/><desc/><path fill="#406325" d="M7.699 43.688c.322.008.492-.728-.014-1.606.088.841.086 1.531.014 1.606z"/><desc/><path fill="#406325" d="M7.312 43.506c.362-.14.121-1.021-.949-1.767.59.887.991 1.656.949 1.767z"/><desc/><path fill="#406325" d="M8.372 46.294c.29.239.925-.085 1.291-1.231-.711.809-1.157 1.218-1.291 1.231z"/><desc/><path fill="#67923D" d="M5.223 53.368c-.44-.052-.486-1.07.414-2.161-.33 1.113-.498 2.046-.414 2.161z"/><desc/><path fill="#406325" d="M5.264 53.523c.092.422 1.359.4 2.656-.537-1.361.391-2.508.612-2.656.537z"/><desc/><path fill="#67923D" d="M8.391 46.449c-.127.253-.906.107-1.543-.619.947.475 1.323.68 1.543.619z"/><desc/><path fill="#67923D" d="M8.428 47.874c-.086-.625.362-1.62.604-1.812.236 1.159-.242 1.926-.604 1.812z"/><desc/><path fill="#406325" d="M8.434 48.021c.469.146.826-.795.602-1.924-.224.969-.492 1.867-.602 1.924z"/><desc/><path fill="#406325" d="M8.131 50.17c.561.077 1.729-.331 1.855-.452-1.175-.226-1.965.147-1.855.452z"/><desc/><path fill="#67923D" d="M8.146 50.165c-.113-.304.672-.668 1.846-.446-.993.156-1.785.36-1.846.446z"/><desc/><path fill="#406325" d="M8.117 49.716c-.004-.452-.583-1.354-.727-1.442-.048.964.44 1.564.727 1.442z"/><desc/><path fill="#67923D" d="M8.109 49.716c-.286.118-.771-.474-.721-1.438.307.784.626 1.397.721 1.438z"/><desc/><path fill="#406325" d="M8.502 47.988c.051-.604-.632-1.856-.812-1.986-.184 1.269.408 2.115.812 1.986z"/><desc/><path fill="#67923D" d="M8.492 47.979c-.402.133-.989-.703-.805-1.975.32 1.066.679 1.911.805 1.975z"/><desc/><path fill="#406325" d="M8.154 48.616c0-.612-.772-1.788-.963-1.899-.076 1.301.579 2.077.963 1.899z"/><desc/><path fill="#67923D" d="M8.148 48.628c-.387.179-1.031-.593-.955-1.892.403 1.034.827 1.841.955 1.892z"/><desc/><path fill="#406325" d="M5.893 52.902c.299-.396.39-1.471.324-1.614-.683.812-.653 1.573-.324 1.614z"/><desc/><path fill="#67923D" d="M5.891 52.898c-.328-.041-.355-.801.321-1.608-.253.829-.384 1.522-.321 1.608z"/><desc/><path fill="#BA1F3E" d="M8.116 44.873c.066.116.133.116.199 0-.066-.117-.132-.117-.199 0z"/><desc/><path fill="#BA1F3E" d="M8.462 45.832c.067.116.134.116.2 0-.066-.116-.133-.116-.2 0z"/><desc/><path fill="#BA1F3E" d="M8.566 48.846c0 .137.232.137.232 0 0-.135-.232-.135-.232 0z"/><desc/><path fill="#BA1F3E" d="M8.102 48.282c0 .135.232.135.232 0s-.232-.134-.232 0z"/><desc/><path fill="#BA1F3E" d="M6.757 51.489c0 .135.233.135.233 0 0-.137-.233-.135-.233 0z"/><desc/><path fill="#BA1F3E" d="M7.331 51.708c0 .135.231.135.231 0s-.231-.135-.231 0z"/><desc/><path fill="#BA1F3E" d="M3.466 54.311c0 .137.232.137.232 0 0-.135-.232-.135-.232 0z"/><desc/><path fill="#BA1F3E" d="M2.826 54.715c0 .136.232.135.232 0s-.232-.136-.232 0z"/><desc/><path fill="#67923D" d="M8.02 44.518c-.197-.475.002-1.613.111-1.752.482.985.241 1.778-.111 1.752z"/><desc/><path fill="#406325" d="M8.025 44.514c.351.026.592-.759.108-1.744.032.919-.024 1.668-.108 1.744z"/><desc/><path fill="#67923D" d="M2.725 54.178c.226-.65 1.477-1.695 1.715-1.763-.396 1.401-1.376 2.054-1.715 1.763z"/><desc/><path fill="#406325" d="M2.732 54.172c.347.291 1.312-.355 1.705-1.757-.804.994-1.544 1.737-1.705 1.757z"/><desc/><path fill="#406325" d="M7.68 50.604c.324-.465.354-1.683.266-1.847-.755.949-.663 1.815-.266 1.847z"/><desc/><path fill="#67923D" d="M7.695 50.834c.242-.504 1.35-1.244 1.549-1.273-.451 1.095-1.299 1.539-1.549 1.273z"/><desc/><path fill="#67923D" d="M7.686 50.59c-.396-.029-.486-.888.267-1.837-.244.953-.348 1.743-.267 1.837z"/><desc/><path fill="#406325" d="M7.716 50.835c.25.267 1.089-.174 1.538-1.272-.74.732-1.41 1.27-1.538 1.272z"/><desc/><path fill="#406325" d="M3.333 54.669c.408.442 1.792.896 2.015.876-.804-.983-1.83-1.21-2.015-.876z"/><desc/><path fill="#67923D" d="M3.344 54.664c.184-.333 1.199-.109 2.004.876-1.002-.543-1.868-.909-2.004-.876z"/><desc/><path fill="#BA1F3E" d="M7.426 44.419c.067.116.133.116.2 0-.067-.116-.133-.116-.2 0z"/><desc/><path fill="#8C959D" d="M-3.671 51.417c-.013.091.179.262.23.142-.035.082-.13-.24-.23-.142z"/><desc/><path fill="#8C959D" d="M-3.398 51.583c-.063.063-.49.167-.354-.087-.176.167.037.31.242.234.379-.139.263-.694-.008-.457.239-.107.216.211.12.31z"/><desc/><path fill="#485654" d="M-3.398 51.583c-.19.189-.345.089-.351-.084l-.101.101c.288.369.874-.201.431-.412l-.095.088c.155-.004.305.121.116.307m0 0c.162-.17.071-.292-.126-.315.252-.159.407.141.182.362-.204.198-.605.141-.418-.14.028.191.18.258.362.093z"/><desc/><path fill="#6C301E" d="M3.713 44.419c-2.646 2.299-5.591 4.463-8.023 6.979-.388.401-.85.64-1.247 1.027-.197.192-.882.651-.939.916-.155.147.407.803.562.861.36.314 1.389-1.231 1.561-1.571.397-.774.683-1.198 1.327-1.805.728-.686 1.475-1.352 2.212-2.028 1.553-1.426 3.089-2.87 4.646-4.291l-.099-.088z"/><desc/><path fill="#8C959D" d="M-3.886 50.761c-.1-.007-.187-.044-.26-.112.243.062.211.05.26.112z"/><desc/><path fill="#B2B6BA" d="M7.525 42.075l-2.888 2.1c-.454.33-.108-.656-.428-.366-.955.861-1.983 1.721-2.969 2.579-1.379 1.2-2.774 2.38-4.173 3.557-.22.185-.466.307-.715.45-.271.154-.332.574-.512.827-.102.143.087.197.193.283.186.151.266-.061.421-.206.403-.377.984-.58.483-1.001.086.072 3.651-3.156 3.995-3.454.365-.315 3.115-2.927 3.34-2.697.471.48 1.073-.351 1.49-.681l1.763-1.391z"/><desc/><path fill="#485654" d="M-3.972 50.943c.175.018.328-.395.174-.428.157.035.024.471-.174.428z"/><desc/><path d="M-3.257 50.764c-.038.065-.075.065-.113 0 .038-.068.076-.068.113 0z" fill="none"/><desc/><path d="M-3.598 51.062c-.038.067-.075.067-.113 0 .038-.065.075-.065.113 0z" fill="none"/><desc/><path fill="#485654" d="M-3.059 50.3l-.159-.131.159.131z"/><desc/><path fill="#8C959D" d="M4.443 51.549c.011.094-.192.253-.236.131.022.062.155-.201.236-.131z"/><desc/><path fill="#8C959D" d="M4.162 51.703c.064.071.471.201.362-.071.156.176-.052.309-.258.222-.406-.172-.169-.701.035-.455-.231-.114-.233.199-.139.304z"/><desc/><path fill="#485654" d="M4.162 51.703c.17.185.33.106.366-.077.252.275-.263.299-.424.119-.215-.233-.037-.522.206-.353-.19.014-.302.134-.148.311m0 0c-.104-.11-.1-.428.14-.311l-.097-.084c-.46.186.102.808.406.422.002.056-.03.023-.096-.096-.009.165-.174.278-.353.069z"/><desc/><path fill="#6C301E" d="M-2.556 44.245c2.605 2.494 5.412 4.876 7.832 7.544.473.521 1.74 1.147 1.933 1.892.025.096-.578.723-.668.749-.376.301-1.319-1.288-1.474-1.635-.356-.792-.612-1.224-1.223-1.861-.688-.719-1.4-1.414-2.099-2.122-1.472-1.492-2.926-3.001-4.403-4.487l.102-.08z"/><desc/><path fill="#8C959D" d="M4.695 50.902c.102-.001.19-.035.267-.102-.233.053-.218.05-.267.102z"/><desc/><path fill="#B2B6BA" d="M-6.219 41.736l2.769 2.221c.438.352.142-.656.444-.352.899.906 1.884 1.808 2.82 2.705 1.312 1.258 2.64 2.497 3.972 3.733.209.194.447.328.688.481.259.162.301.59.464.847.094.148-.098.194-.208.275-.192.142-.261-.072-.41-.226-.414-.426-.918-.595-.427-1.02-.189.108-3.449-3.286-3.8-3.621-.35-.334-2.946-3.061-3.188-2.839-.499.457-1.044-.389-1.448-.742l-1.676-1.462z"/><desc/><path fill="#485654" d="M4.771 51.09c-.189.019-.288-.394-.19-.423.007-.004-.053.436.19.423z"/><desc/><path d="M4.068 50.878c.036.067.074.069.116.005-.036-.068-.074-.07-.116-.005z" fill="none"/><desc/><path d="M4.393 51.193c.035.069.073.071.115.006-.034-.068-.072-.07-.115-.006z" fill="none"/><desc/><path fill="#485654" d="M3.895 50.406l.166-.124-.166.124z"/><desc/><path fill="#67923D" d="M-3.703 53.756c-.717-.267-2.452-.054-2.664.075 1.485.644 2.694.367 2.664-.075z"/><desc/><path fill="#406325" d="M-3.716 53.766c.029.442-1.166.715-2.651.072 1.395.075 2.534.03 2.651-.072z"/><desc/><path fill="#67923D" d="M4.414 54.021c.718-.268 2.452-.055 2.664.076-1.484.643-2.693.369-2.664-.076z"/><desc/><path fill="#406325" d="M4.428 54.029c-.029.443 1.166.715 2.65.072-1.394.077-2.533.035-2.65-.072z"/><desc/><path fill="#B2B6BA" d="M3.098 53.324c-1.808-2.314-4.31-4.182-6.938-5.469 1.198-.055 2.729 1.317 3.609 1.984 1.323 1.003 2.538 2.139 3.715 3.307-.146.126-.226.261-.386.178z"/><desc/><path fill="#8C959D" d="M3.286 53.305c-.185.241-1.074-.896-1.284-1.104-.641-.635-1.312-1.238-2.009-1.81-1.176-.965-2.441-1.898-3.83-2.534 2.807 1.139 5.024 3.336 7.123 5.448z"/><desc/><path fill="#485654" d="M3.286 53.305c-.198.253-.945-.762-1.142-.959-.612-.612-1.252-1.196-1.916-1.752-1.245-1.042-2.588-2.048-4.07-2.729 2.764.83 5.152 3.444 7.128 5.44m0 0c-2.108-2.105-4.321-4.297-7.128-5.438 1.342.423 2.697 1.586 3.791 2.48.672.549 1.319 1.128 1.938 1.736.224.22 1.217 1.457 1.399 1.222z"/><desc/><path fill="#FAB81C" d="M3.919 52.928c-.339.081-.7.306-.929.408-.326-.05-.055.343.067.39.393.15.059-.331.489.087.184.178.382.337.589.486.509.368.431-.136.346-.111.07-.229.282-.267.201-.568-.088-.333-.391-.697-.763-.692m.57.365c.172.264.238.66-.14.786.018-.027-.261-.336-.288-.362-.04-.04-.276-.303-.346-.292.054-.376.486-.455.774-.132"/><desc/><path fill="#FAB81C" d="M4.593 53.548c-.088-.086-.069-.121.057-.104.095.086.076.121-.057.104z"/><desc/><path fill="#FAB81C" d="M3.352 53.614c.062-.144.188-.274.319-.306"/><desc/><path fill="#6C301E" d="M3.352 53.614c.057-.137.164-.275.319-.306-.143.037-.258.185-.319.306z"/><desc/><path fill="#FAB81C" d="M3.48 53.751c.15.031.301-.099.358-.192"/><desc/><path fill="#6C301E" d="M3.48 53.751c.144.022.279-.084.358-.192-.067.115-.215.229-.358.192z"/><desc/><path fill="#FAB81C" d="M3.616 53.879c.179.005.288-.107.341-.191"/><desc/><path fill="#6C301E" d="M3.616 53.879c.142-.004.26-.078.339-.193-.066.127-.2.201-.339.193z"/><desc/><path fill="#FAB81C" d="M3.755 54.001c.151.001.289-.108.332-.194"/><desc/><path fill="#6C301E" d="M3.755 54.001c.132-.008.261-.087.332-.196-.053.118-.205.203-.332.196z"/><desc/><path fill="#FAB81C" d="M3.889 54.113c.164-.006.28-.072.329-.168"/><desc/><path fill="#6C301E" d="M3.889 54.113c.125-.016.262-.051.331-.168-.055.124-.206.17-.331.168z"/><desc/><path fill="#FAB81C" d="M4.037 54.229c.15.008.273-.07.312-.148"/><desc/><path fill="#6C301E" d="M4.037 54.229c.117 0 .246-.049.315-.148-.056.115-.197.155-.315.148z"/><desc/><path fill="#FAB81C" d="M3.372 53.634c.114.021.302-.1.347-.208"/><desc/><path fill="#6C301E" d="M3.372 53.634c.126.017.293-.099.347-.208-.04.117-.221.238-.347.208z"/><desc/><path fill="#FAB81C" d="M4.199 54.346c.15.008.246-.076.285-.152"/><desc/><path fill="#6C301E" d="M4.199 54.346c.116 0 .222-.055.285-.152-.049.116-.172.16-.285.152z"/><desc/><path fill="#FAB81C" d="M4.564 53.465c-.09-.086-.071-.12.057-.104.095.086.076.121-.057.104z"/><desc/><path fill="#FAB81C" d="M4.509 53.374c-.089-.087-.07-.121.057-.103.095.085.076.12-.057.103z"/><desc/><path fill="#FAB81C" d="M4.438 53.292c-.09-.087-.071-.121.057-.103.095.085.076.12-.057.103z"/><desc/><path fill="#FAB81C" d="M4.344 53.213c-.228-.104.039-.083 0-.122.097 0 .199.201 0 .122z"/><desc/><path fill="#406325" d="M-5.951 43.677c.657-.19 1.708-1.241 1.776-1.44-1.422.333-2.075 1.154-1.776 1.44z"/><desc/><path fill="#67923D" d="M-5.951 43.677c-.303-.286.346-1.099 1.763-1.433-.999.676-1.75 1.301-1.763 1.433z"/><desc/><path fill="#406325" d="M7.336 44.055c-.154-.564-1.211-1.527-1.42-1.601.252 1.219 1.087 1.83 1.42 1.601z"/><desc/><path fill="#67923D" d="M7.336 44.055c-.334.232-1.16-.373-1.412-1.59.653.89 1.269 1.569 1.412 1.59z"/><desc/><path d="M-3.275 53.783l.083.14" fill="none"/><desc/><path fill="#B2B6BA" d="M-2.226 53.118c1.959-2.215 4.579-3.945 7.294-5.093-1.201-.117-2.812 1.17-3.736 1.79-1.388.931-2.678 1.999-3.931 3.103.139.133.208.272.373.2z"/><desc/><path fill="#8C959D" d="M-2.413 53.089c.167.248 1.133-.84 1.355-1.035.682-.6 1.393-1.167 2.128-1.7 1.239-.9 2.564-1.766 3.996-2.328-2.887.994-5.232 3.072-7.479 5.063z"/><desc/><path fill="#485654" d="M-2.413 53.089c.166.24 1.243-.942 1.479-1.147.659-.574 1.346-1.117 2.053-1.631 1.16-.838 2.574-1.915 3.953-2.276-2.883.989-5.243 3.065-7.485 5.054m0 0c2.097-1.877 4.669-4.392 7.481-5.054-1.527.603-2.934 1.537-4.248 2.51-.602.444-1.185.914-1.751 1.403-.237.204-1.322 1.383-1.482 1.141z"/><desc/><path fill="#FAB81C" d="M-1.975 53.223c-.034-.087-.704-.411-.796-.451-.515-.222-1.373.379-1.026.951.147.243-.091.278.012.395.217.244.706-.238.878-.371.326-.25.262-.296.575-.221.136.027.422-.129.357-.303m-.877-.035c-.07-.015-.697.583-.676.619-.895-.43.628-1.564.676-.619"/><desc/><path fill="#FAB81C" d="M-2.499 53.395c-.052-.146-.167-.283-.298-.32"/><desc/><path fill="#6C301E" d="M-2.499 53.395c-.058-.134-.156-.271-.299-.322.142.034.261.186.299.322z"/><desc/><path fill="#FAB81C" d="M-2.637 53.523c-.153.021-.293-.112-.345-.211"/><desc/><path fill="#6C301E" d="M-2.637 53.523c-.143.034-.287-.094-.346-.211.074.112.201.226.346.211z"/><desc/><path fill="#FAB81C" d="M-2.781 53.645c-.179-.004-.281-.121-.327-.209"/><desc/><path fill="#6C301E" d="M-2.781 53.645c-.138.008-.27-.083-.327-.209.075.116.184.201.327.209z"/><desc/><path fill="#FAB81C" d="M-2.928 53.76c-.151-.008-.281-.125-.318-.213"/><desc/><path fill="#6C301E" d="M-2.928 53.76c-.127 0-.274-.091-.319-.213.057.114.195.199.319.213z"/><desc/><path fill="#FAB81C" d="M-3.068 53.864c-.164-.015-.276-.087-.318-.185"/><desc/><path fill="#6C301E" d="M-3.068 53.864c-.121-.005-.272-.058-.318-.185.061.119.195.167.318.185z"/><desc/><path fill="#FAB81C" d="M-3.225 53.971c-.151 0-.268-.086-.303-.164"/><desc/><path fill="#6C301E" d="M-3.225 53.971c-.111.007-.263-.049-.303-.164.059.1.189.164.303.164z"/><desc/><path fill="#FAB81C" d="M-2.521 53.413c-.117.017-.294-.115-.333-.226"/><desc/><path fill="#6C301E" d="M-2.521 53.413c-.127.023-.298-.106-.333-.226.052.112.203.236.333.226z"/><desc/><path fill="#FAB81C" d="M-3.395 54.079c-.152 0-.241-.088-.275-.167"/><desc/><path fill="#6C301E" d="M-3.395 54.079c-.112.008-.236-.053-.275-.167.057.106.158.159.275.167z"/><desc/><path fill="#FAB81C" d="M-3.734 53.264c.096-.083.079-.118-.05-.106-.1.079-.083.114.05.106z"/><desc/><path fill="#FAB81C" d="M-3.701 53.184c.096-.081.079-.117-.05-.106-.099.079-.082.114.05.106z"/><desc/><path fill="#FAB81C" d="M-3.638 53.096c.096-.082.079-.118-.05-.107-.099.079-.083.115.05.107z"/><desc/><path fill="#FAB81C" d="M-3.562 53.018c.095-.082.078-.117-.051-.106-.099.079-.082.114.051.106z"/><desc/><path fill="#FAB81C" d="M-3.463 52.941c.257-.104-.05-.082.008-.123-.102 0-.2.196-.008.123z"/><desc/><path fill="#F9F0AA" d="M-2.472 44.925"/><desc/><path fill="#F9F0AA" d="M-2.034 49.955c-.813.021-1.062-1.369-.178-1.442.419-.034 1.109-.299 1.179.194l.167 1.179-1.168.069z"/><desc/><path fill="#F9F0AA" d="M-2.206 48.508"/><desc/><radialGradient id="a" cx="775.533" cy="595.156" r="75.625" fx="776.186" fy="595.183" gradientTransform="translate(-778 -546)" gradientUnits="userSpaceOnUse"><stop offset=".216" stop-color="#B07E09" stop-opacity="0"/><stop offset="1" stop-color="#B07E09"/></radialGradient><path fill="url(#a)" d="M-2.034 49.955c-.813.021-1.062-1.369-.178-1.442.419-.034 1.109-.299 1.179.194l.167 1.179-1.168.069z"/><desc/><path fill="#F9F0AA" d="M-1.96 49.734c-.321-.017-.522-.342-.429-.661.093-.319.477-.152.701-.119.399.06.332.068.334.479.002.37-.269.264-.606.301z"/><desc/><radialGradient id="b" cx="775.896" cy="595.553" r="50.299" fx="776.118" fy="595.305" gradientTransform="translate(-778 -546)" gradientUnits="userSpaceOnUse"><stop offset=".216" stop-color="#B07E09" stop-opacity="0"/><stop offset="1" stop-color="#B07E09"/></radialGradient><path fill="url(#b)" d="M-1.96 49.734c-.321-.017-.522-.342-.429-.661.093-.319.477-.152.701-.119.399.06.332.068.334.479.002.37-.269.264-.606.301z"/><desc/><path fill="#F9F0AA" d="M-2.199 48.878c.449-.028.959-.244.937.394l-.58.031c-.171.009-.084-.408-.357-.425z"/><desc/><radialGradient id="c" cx="776.133" cy="595.201" r="44.819" fx="776.269" fy="595.057" gradientTransform="translate(-778 -546)" gradientUnits="userSpaceOnUse"><stop offset=".216" stop-color="#B07E09" stop-opacity="0"/><stop offset="1" stop-color="#B07E09"/></radialGradient><path fill="url(#c)" d="M-2.199 48.878c.449-.028.959-.244.937.394l-.58.031c-.171.009-.084-.408-.357-.425z"/><desc/><path fill="#F9F0AA" d="M-2.312 48.529c.758-.146 1.116.961.352 1.205l1.265-.115c-.021-.213.031-1.081-.115-1.207-.152-.131-1.358.068-1.502.117z"/><desc/><radialGradient id="d" cx="776.523" cy="595.051" r="80.582" fx="776.496" fy="595.049" gradientTransform="translate(-778 -546)" gradientUnits="userSpaceOnUse"><stop offset=".216" stop-color="#B07E09" stop-opacity="0"/><stop offset="1" stop-color="#B07E09"/></radialGradient><path fill="url(#d)" d="M-2.312 48.529c.758-.146 1.116.961.352 1.205l1.265-.115c-.021-.213.031-1.081-.115-1.207-.152-.131-1.358.068-1.502.117z"/><desc/><path fill="#F9F0AA" d="M-2.034 49.955c1.634 0 3.277-.207 4.912-.259 2.191-.07-.193-4.726-1.2-5.225-.993-.491-2.259-.727-3.357-.774-1.385-.061-1.697.641-1.037 1.771.42.72 2.538 4.276.682 4.487z"/><desc/><linearGradient id="e" gradientUnits="userSpaceOnUse" x1="777.938" y1="591.199" x2="777.81" y2="588.944" gradientTransform="translate(-778 -546)"><stop offset=".216" stop-color="#B07E09" stop-opacity="0"/><stop offset="1" stop-color="#B07E09"/></linearGradient><path fill="url(#e)" d="M3.034 46.355c-.313-.574-.75-1.583-1.356-1.884-.688-.34-1.49-.507-2.24-.64-.573-.103-1.884-.397-2.36.062-.661.636.404 1.898.694 2.458"/><desc/><path fill="#999270" d="M3.034 46.355c-.316-.572-.705-1.221-1.106-1.715-.604-.65-2.209-.779-3.031-.886-.451-.058-1.346-.208-1.765.104-.774.582.355 1.948.64 2.496-.4-.757-1.71-2.545-.032-2.646.482-.029 4.466.453 4.232 1.039.395.496.756 1.045 1.062 1.608z"/><desc/><linearGradient id="f" gradientUnits="userSpaceOnUse" x1="778.787" y1="594.224" x2="778.98" y2="596.663" gradientTransform="translate(-778 -546)"><stop offset=".216" stop-color="#B07E09" stop-opacity="0"/><stop offset="1" stop-color="#B07E09"/></linearGradient><path fill="url(#f)" d="M-1.775 47.29c.29.675 1.021 2.513-.256 2.666 1.147 0 2.309-.134 3.454-.193.548-.028 1.096-.062 1.645-.071 1.112-.019.628-1.859.412-2.406"/><desc/><path fill="#999270" d="M-1.775 47.29c.269.62 1.03 2.609-.257 2.663 1.728-.103 3.486-.293 5.215-.262.912-.428.578-1.68.291-2.403.29.73.634 1.974-.29 2.41-1.737.013-3.481.164-5.216.262 1.249-.207.563-1.951.257-2.67z"/><desc/><path fill="#B07E09" d="M-.087 46.945l.136.084c0-.006-.315.051-.302-.004 0-.053-.176-.394-.176-.379 0-.219.332.229.342.299z"/><desc/><path fill="#B07E09" d="M-.019 46.584l.225-.039c.167.042-.172.105-.17.105l.041.097c.643.117-.009.292.015.198.017-.059.096.044.125.044.288.038-.366-.405-.236-.405z"/><desc/><path fill="#B07E09" d="M.606 46.666l-.125-.105c.018-.106.628.039.619.298-.007.207-.426.117-.425.115l-.069-.308m.186.199c.25.523.08-.679-.123-.272-.016.048.091.229.123.272"/><desc/><path fill="#B07E09" d="M1.378 46.521l.069.115c-.044.022-.148-.15-.234-.064-.117.233.198.082.147.082.03 0 .094.168.088.172l-.156-.061c.152.171.104.181.245.074h.028c.237.118-.27.173-.346.139.104.069-.19-.494-.202-.438.005-.02.343-.019.361-.019z"/><desc/><path fill="#B07E09" d="M.181 48.445l-.105-.107c.024-.121.521.057.559.196.059.208-.371.339-.438.231.019.047-.014-.339-.016-.32m.151.198c.123.449.33-.593-.071-.271-.023.023.055.233.071.271"/><desc/><path fill="#B07E09" d="M.976 48.285c.032 0 .062.108.036.121-.232 0-.228.066-.076.016.024 0 .07.16.058.172l-.142-.057c.185.248.125.032.26.07.188.084-.279.232-.367.145.059.078-.11-.499-.126-.438.006-.023.338-.031.357-.029z"/><desc/><path fill="#B07E09" d="M1.566 48.615l.12.084c-.001.006-.294.027-.299.003.05.132-.012-.559-.095-.392.141-.281.277.252.274.305z"/><desc/><path fill="#B07E09" d="M1.902 48.348c-.01-.047-.086-.106-.128-.05-.063.073.176.216.128.05m.077.233c-.014-.06-.089-.075-.136-.095-.185 0 .198.332.136.095m.082-.019c.059.324-.58-.002-.258-.099-.609-.211.578-.117.12-.021.067.012.118.057.138.12"/><desc/><path fill="#B07E09" d="M2.357 48.609l.087-.078c.2.092-.597.293-.242-.016.134-.122.021-.338-.069-.223l.057.111c-.058.067-.233-.231.086-.172.327.091-.08.278-.065.383l.146-.005z"/><desc/><path fill="#B07E09" d="M2.716 48.576l.119.085c-.001.005-.3.035-.3-.017.163-.163-.081-.395-.087-.379 0-.148.286.102.268.311z"/><desc/><path fill="#B07E09" d="M-1.462 45.88l-.12-.096c0 .009.234-.047.244-.007.077.383.086.283.284.283.238 0-.218.373-.331.148l-.077-.328z"/><desc/><path fill="#B07E09" d="M-1.022 45.854l-.119-.096c0 .008.229-.044.244-.005-.011-.031.191.485.203.427 0-.001-.23.035-.247.002l-.081-.328z"/><desc/><path fill="#B07E09" d="M-.616 45.91c.041.046.146-.087-.061-.143l.061.143m.061.128c.011.021.121.181.163.069.125-.23-.204-.032-.163-.069m-.185-.19l-.128-.105c0-.051.389-.015.389.183 0 .073.383.213.006.243-.032 0-.194.035-.194-.014l-.073-.307"/><desc/><path fill="#B07E09" d="M-.064 45.693l.071.115c-.019.019-.172-.15-.232-.06-.083.165.103.116.133.086.044-.029.1.167.103.165l-.153-.055c.198.208.106.102.255.064.187 0-.128.301-.322.146.084.067-.214-.474-.214-.439l.359-.022z"/><desc/><path fill="#B07E09" d="M.146 45.801l-.125-.109c0-.121.727.116.378.213l.263.148c.058.173-.371-.114-.358-.127-.073.059.167.186.166.19l-.245.011c.043.042-.079-.332-.079-.326m.128.071c.079.157.148-.29-.062-.149l.062.149"/><desc/><path fill="#B07E09" d="M.933 46.011l.115.087c-.001.004-.244.025-.251-.002-.022-.135-.001-.46-.212-.302l-.026-.001c-.333-.166.612-.199.451-.016-.023.023-.128-.119-.207-.074-.021.013.109.276.13.308z"/><desc/><path fill="#B07E09" d="M1.272 45.938c-.094 0 .067.178.078.15-.001.007-.214.026-.192-.018 0-.021.115-.445.074-.441.019 0 .462.418.462.452 0-.003-.229.025-.235-.007-.022-.136-.005-.063-.187-.136m.107-.042l-.123-.153h.002v.155l.121-.002"/><desc/><path fill="#B07E09" d="M1.658 45.748l-.124-.109c.06-.15.624.096.616.311-.014.204-.435.109-.433.104l-.059-.306m.18.201c.234.542.094-.688-.114-.272-.016.05.083.227.114.272"/><desc/><path fill="#B07E09" d="M-1.108 47.67c.005.02.662.41.158.355-.037-.008-.241-.024-.161-.145.054-.136.413.329-.034-.134-.319-.286.428-.16.271-.056.019-.036-.286-.151-.234-.02z"/><desc/><path fill="#B07E09" d="M-.499 47.537l.061.115c-.044.022-.139-.146-.227-.059-.056.111.067.186.129.083.045-.022.087.166.087.166l-.146-.055c.193.231.111.065.25.065.164 0-.13.283-.334.147.096.072-.159-.493-.173-.437.004-.022.335-.027.353-.025z"/><desc/><path fill="#B07E09" d="M-.117 47.869l.122.09-.248.016c.058.07-.161-.496-.172-.44.043-.131.498.037.298.334m-.053-.139c-.017.099.058-.398-.057-.168l.057.168"/><desc/><path fill="#B07E09" d="M.391 47.846l.107.086c-.003.015-.231.02-.249.002-.062-.248-.007-.299-.203-.299-.324 0 .639-.129.437-.027-.004.009-.131-.113-.195-.07-.027.015.086.274.103.308z"/><desc/><path fill="#B07E09" d="M.582 47.582l-.109-.1c.002-.005.24-.03.245 0-.053-.085.118.519.154.427-.001.007-.244.028-.25 0l-.04-.327z"/><desc/><path fill="#B07E09" d="M1.107 47.453c.034 0 .078.12.049.12-.015.003-.164-.16-.211-.065-.1.2.117.093.128.085.033-.033.091.164.086.167-.029.026-.114-.127-.149-.056.178.207.199.034.269.069.193.06-.234.223-.354.143.054.067-.151-.495-.165-.438.005-.021.33-.027.347-.025z"/><desc/><path fill="#B07E09" d="M1.29 47.529l-.097-.079c0-.134.424.294.426.299l-.008.001c-.019-.11.166-.473.205-.314-.01-.039.127.5.151.428-.001.005-.245.027-.251-.002.033.065-.033-.342-.034-.317l.004.003c.001.022-.012.318-.038.332-.085 0-.26-.249-.301-.32l.004-.002.187.325c0-.003-.181.027-.196-.004.048.063-.052-.361-.052-.35z"/><desc/><path fill="#B07E09" d="M2.088 47.6c0 .021.221-.144-.048-.144l.048.144m.043.129c.013.034.096.173.154.071.152-.266-.246-.027-.154-.071m-.16-.195l-.116-.109c.027-.11.656.083.363.194l-.003-.005c.515.082-.142.38-.214.235.027.055-.029-.336-.03-.315"/><desc/><path fill="#B07E09" d="M2.426 47.52l-.116-.107c.061-.151.678.149.354.217.03.016.252.199.245.151.034.189-.347-.132-.343-.134-.047.095.149.182.143.193l-.25.008c.052.052-.032-.349-.033-.328m.119.074c.121.241.072-.369-.038-.148l.038.148"/><desc/><path fill="#B07E09" d="M3.173 47.391c.024 0 .073.098.053.112.026-.018-.25-.131-.226-.058.081.202.034.111.14.072.029 0 .071.171.068.172l-.149-.061c0 .314.241.069.267.079.195.078-.262.199-.365.13.083.083-.133-.5-.149-.438l.361-.008z"/><desc/><path fill="#F9F0AA" d="M-2.472 43.959c-.685 0-.445.987.191.956.556-.026.478-.488.613-.995l-.804.039z"/><desc/><radialGradient id="g" cx="775.398" cy="590.662" r="59.235" fx="775.723" fy="590.413" gradientTransform="translate(-778 -546)" gradientUnits="userSpaceOnUse"><stop offset=".216" stop-color="#B07E09" stop-opacity="0"/><stop offset="1" stop-color="#B07E09"/></radialGradient><path fill="url(#g)" d="M-2.472 43.956c-.685 0-.445.988.191.956.555-.027.478-.488.613-.995l-.804.039z"/><desc/><path fill="#F9F0AA" d="M-2.472 43.959c.809-.039.794-.123.887.691l-.702.025c0-.255.19-.594-.185-.716z"/><desc/><linearGradient id="h" gradientUnits="userSpaceOnUse" x1="775.902" y1="590.471" x2="776.189" y2="589.801" gradientTransform="translate(-778 -546)"><stop offset=".216" stop-color="#B07E09" stop-opacity="0"/><stop offset="1" stop-color="#B07E09"/></linearGradient><path fill="url(#h)" d="M-2.472 43.959c.809-.039.794-.123.887.691l-.702.025c0-.255.19-.594-.185-.716z"/><desc/><path fill="#F9F0AA" d="M1.971 44.744c.327-.047.525-.324.469-.647-.109-.625-.765-.468-1.245-.472-1.218-.011-2.439.015-3.655.096.825-.026.787 1.156-.01 1.201.231.082.766-.053.989-.074.596-.058 1.194-.091 1.793-.106.551-.015 1.109-.02 1.659.002z"/><desc/><linearGradient id="i" gradientUnits="userSpaceOnUse" x1="777.9" y1="589.429" x2="778.117" y2="592.181" gradientTransform="translate(-778 -546)"><stop offset=".216" stop-color="#B07E09" stop-opacity="0"/><stop offset="1" stop-color="#B07E09"/></linearGradient><path fill="url(#i)" d="M1.971 44.744c.327-.047.525-.324.469-.647-.109-.625-.765-.468-1.245-.472-1.218-.011-2.439.015-3.655.096.825-.026.787 1.156-.01 1.201.231.082.766-.053.989-.074.596-.058 1.194-.091 1.793-.106.551-.015 1.109-.02 1.659.002z"/><desc/><path fill="#A50A0A" d="M.117 42.02c-.996 1.043.976 2.034 1.842 1.379-.611-.464-1.222-.928-1.842-1.379z"/><desc/><radialGradient id="j" cx="777.924" cy="588.711" r="66.881" fx="778.867" fy="588.833" gradientTransform="translate(-778 -546)" gradientUnits="userSpaceOnUse"><stop offset=".259" stop-color="#4C0505" stop-opacity="0"/><stop offset="1" stop-color="#4C0505"/></radialGradient><path fill="url(#j)" d="M.117 42.02c-.338.354-.545.673-.089 1.083.403.361 1.42.784 1.931.397-.605-.51-1.201-1.017-1.842-1.48z"/><desc/><path fill="#448127" d="M2.648 52.864l-.186-.195c-.823.959-1.829 1.759-2.974 2.298 1.284-.321 2.246-1.195 3.16-2.103-.061-.065-.882.876 0 0z"/><desc/><path fill="#448127" d="M1.242 55.734c.247-.442.514-.873.789-1.299.263-.405 1.027-1.131.675-1.513-.523.767-1.454 1.828-1.464 2.812.484-.865.007-.664 0 0z"/><desc/><path fill="#448127" d="M5.047 46.527c-.529-2.012-2.574-3.712-4.382-4.592l.163-.338c-.246-.217-.216-.265-.533-.277-.122-.005-.21-.035-.283.094l-.103.087c-.031.11-.026.258.046.36.049.069-.26.515-.269.658.097-.152.232-.248.407-.289-.063.095-.167.471-.029.554.165-.022-.087-.354.105.079.124-.216.25.12.263.219.278-.418.151-.053.214.161.006-.109.052-.194.138-.257-.011.127-.006.254.014.38l.181-.203c-.024.126-.024.252-.001.378.031-.095.09-.167.176-.215.005.151.032.173-.072.298.114.001.224-.021.329-.065-.156.307-.094.322.185.047-.071.098-.101.207-.089.326.03-.106.099-.173.204-.201-.005.093-.043.17-.115.231.179-.001.321-.073.424-.217-.022.141.025.257.141.351-.028-.123.013-.214.123-.271.054.195.128.37.309.482-.08-.124-.098-.255-.053-.392.098.465.103.339.272.047.065.144.107.294.125.45.214-.404.29-.086.541.194.195.219.374.451.528.699.286.459.487.972.551 1.511.149 1.258-.477 2.427-1.287 3.342.646-.386.877-1.072 1.283-1.661-.387.753-.583 1.613-1.23 2.205.519-.396.784-.944 1.188-1.437-.244.583-.523 1.152-.842 1.698-.171.293-.354.579-.548.856-.384.548-.473.499.013.976 1.319-1.946 2.558-3.795 1.913-6.268z"/><desc/><path fill="#EAC102" d="M-.124 41.688l-.192.115c.432.092.19-.083.192-.115z"/><desc/><path d="M.289 41.766c.094-.044.094-.087 0-.129-.094.042-.094.085 0 .129z"/><desc/><path fill="#34541F" d="M1.246 55.713c.343-.98.953-1.846 1.558-2.68-.585.848-1.192 1.71-1.558 2.68z"/><desc/><path fill="#34541F" d="M-.472 54.951c1.199-.464 2.163-1.253 3.012-2.203-.825.976-1.806 1.755-3.012 2.203z"/><desc/><path fill="#34541F" d="M2.927 52.592c.556-.679.982-1.463 1.43-2.215-.421.768-.86 1.547-1.43 2.215z"/><desc/><path fill="#34541F" d="M3.465 50.573c1.194-1.254 1.731-3.181.994-4.8.76 1.618.226 3.558-.994 4.8z"/><desc/><path fill="#34541F" d="M3.314 50.114c.643-.542 1.03-1.369 1.302-2.142.188-.834-.027-1.665-.369-2.428.75 1.582.471 3.417-.933 4.57z"/><desc/><path fill="#34541F" d="M2.784 52.459c1.661-2.06 2.95-4.865 1.385-7.35 1.583 2.469.313 5.316-1.385 7.35z"/><desc/><path fill="#34541F" d="M3.035 52.701c1.615-2.319 3.155-5.57.905-8.079 2.282 2.493.731 5.775-.905 8.079z"/><desc/><radialGradient id="k" cx="778.302" cy="587.715" r="1.119" fx="778.304" fy="587.72" gradientTransform="translate(-778 -546)" gradientUnits="userSpaceOnUse"><stop offset="0" stop-color="#fff"/><stop offset="1" stop-color="#fff" stop-opacity="0"/></radialGradient><path fill="url(#k)" d="M.305 41.715z"/><desc/><path fill="#A08307" d="M-.316 41.805l.195-.039-.195.039z"/><desc/><path fill="#34541F" d="M.501 42.129c.647-.015 1.284.53 1.669.997-.416-.453-1.018-.975-1.669-.997z"/><desc/><path fill="#448127" d="M1.993 42.998c.161.085.323.207.431.355-.27-.053-.537-.176-.734-.373"/><desc/><path fill="#34541F" d="M1.993 42.998c.177.087.332.211.45.369-.279-.054-.553-.181-.753-.387.202.189.467.308.736.365-.1-.102-.279-.259-.433-.347z"/><desc/><path fill="#448127" d="M1.374 42.927c.238.134.492.319.754.399-.104-.178-.266-.325-.46-.399"/><desc/><path fill="#34541F" d="M1.374 42.927c.239.126.498.316.757.392-.091-.13-.281-.316-.464-.389.206.071.374.228.48.416-.266-.123-.521-.269-.773-.419z"/><desc/><path fill="#448127" d="M1.636 42.739c.162.056.362.183.421.353-.224-.082-.561-.17-.727-.35"/><desc/><path fill="#34541F" d="M1.636 42.739c.196.07.346.181.438.368-.224-.081-.58-.175-.743-.364.192.172.494.256.731.342-.086-.125-.256-.268-.426-.346z"/><desc/><path fill="#448127" d="M1.116 42.973c.21.133.525.383.784.383-.124-.168-.294-.308-.49-.383"/><desc/><path fill="#34541F" d="M1.116 42.973c.222.129.515.36.783.375-.111-.13-.307-.297-.493-.373.205.07.384.216.509.391-.292-.063-.553-.224-.799-.393z"/><desc/><path fill="#448127" d="M1.116 43.092c.125.102.327.234.495.234-.124-.168-.295-.307-.491-.383"/><desc/><path fill="#34541F" d="M1.116 43.092c.143.097.354.198.484.241-.117-.169-.296-.307-.484-.388.204.073.382.218.508.392-.197-.028-.356-.117-.508-.245z"/><desc/><path fill="#448127" d="M.958 42.564c.231.146.64.361.735.635-.22-.088-.542-.183-.706-.362"/><desc/><path fill="#34541F" d="M.958 42.564c.273.166.604.356.752.651-.22-.087-.566-.188-.724-.38.179.176.483.263.709.355-.175-.221-.474-.455-.737-.626z"/><desc/><path fill="#406325" d="M-2.689 54.154c-.446.294-1.692.438-1.864.387.906-.665 1.798-.682 1.864-.387z"/><desc/><path fill="#67923D" d="M-2.693 54.152c-.065-.295-.954-.276-1.858.385.952-.276 1.754-.433 1.858-.385z"/><desc/><path fill="#406325" d="M3.671 54.514c.479.383 1.925.646 2.142.602-.961-.869-2.017-.957-2.142-.602z"/><desc/><path fill="#67923D" d="M3.682 54.508c.125-.354 1.166-.269 2.131.6-1.084-.404-2.002-.652-2.131-.6z"/></svg>