<svg xmlns="http://www.w3.org/2000/svg" width="64" height="48"><path fill="#E40520" d="M0 0h64v48h-64z"/><path fill="#003671" d="M3 3h58v42h-58z"/><path fill="#E40520" d="M31.997 37.112c4.156-3.451 8.753-7.453 8.753-13.112s-4.597-9.662-8.753-13.113c-4.155 3.451-8.752 7.454-8.752 13.113s4.597 9.661 8.752 13.112z"/><path fill="#003671" d="M24.547 26.231c.956 3.98 4.344 6.991 7.45 9.642 3.107-2.65 6.495-5.661 7.451-9.642h-14.901z"/><path fill="#00ABE5" d="M39.448 26.231c.171-.711.264-1.454.264-2.231 0-5.125-4.052-8.749-7.715-11.874-3.662 3.125-7.714 6.749-7.714 11.874 0 .777.093 1.521.264 2.231h14.901z"/><path fill="#ddd" d="M39.685 24.735c-.04.514-.12 1.013-.236 1.496h-8.954l.398-1.104c2.519.345 6.488.253 8.792-.392z"/><path d="M27.983 32.135c-.686-.746-1.317-1.528-1.858-2.356 1.408.064 4.159.357 5.254 1.307.265.23.265.346-.066.299-.664-.093-2.436.281-3.33.75zm10.654-3.691c-1.449 2.924-4.136 5.293-6.64 7.429-.778-.664-1.574-1.351-2.346-2.069 1.064-1.684 4.026-.648 4.026-2.144 0-.782-.751-1.468-1.812-1.541-.332-.023-.411-.036-.155-.23 1.216-.92 2.454.069 4.531-.874 1.513-.687 2.204-.634 2.396-.571z" fill="#FFED00"/><path fill="#086" d="M33.589 18.184l-.071-.154c.065.058.354.132.458.149l-.148-.167c.082.035.392.144.458.109l-.276-.265c.116.04.393.195.465.195l-.078-.241c.1.069.282.149.376.184l-.066-.265c.1.069.276.207.397.253l-.077-.265c.077.058.31.242.409.276l-.11-.265.387.23-.11-.219c.066.069.364.242.453.311l-.1-.276c.133.046.475.253.586.299-.397-.795-2.186-1.062-3.207-.739.163-.081.25-.239.558-.313-.078-.023-.269-.121-.29-.155.099.023.464-.046.541-.058l-.243-.207c.144.012.486-.023.586-.057l-.243-.104c.1.012.331.035.431.012l-.265-.253c.144.034.431.034.618.011l-.287-.161c.089.011.464-.092.563-.115-.055-.058-.199-.092-.287-.126.154-.012.409-.161.486-.23-1.233.018-2.255.616-2.791 1.495.018-.286-.077-.635-.092-.837l-.154.194c.047-.158.046-.58.021-.708l-.139.271c.012-.152-.028-.573-.076-.738l-.156.27c.028-.19-.095-.681-.153-.87.002.09-.081.312-.107.368-.004-.171-.143-.721-.208-.839.028.092-.021.335-.024.42-.042-.12-.208-.439-.267-.529l.002.256c-.098-.138-.352-.397-.467-.479.101.152.187.393.239.496l-.144-.057c.088.106.252.394.313.498l-.225-.028c.115.09.343.347.421.453-.05-.022-.203-.012-.243.007.1.053.331.265.401.361-.054-.036-.186-.069-.238-.064l.362.42c-.066-.041-.283-.1-.357-.092.089.088.357.375.428.471l-.282-.001c.102.094.364.394.428.471-.062-.037-.238-.064-.299-.07.116.131.282.392.356.501l-.242-.044c-.577-.954-1.617-1.541-2.341-1.595.1.046.442.265.553.379l-.255-.023c.122.104.376.253.476.299-.033 0-.177 0-.221.029l.536.299-.243.011c.148.058.408.242.497.374l-.227-.023c.144.081.343.224.431.316l-.231-.018c.088.069.358.19.441.293l-.243-.017c.094.075.356.276.5.432-1.687-.815-3.735-.447-4.82 1.052.132-.046.597-.322.751-.368l-.088.264.497-.356-.11.288c.11-.069.453-.299.618-.437l-.1.265c.178-.104.509-.333.619-.414l-.154.288c.154-.058.508-.288.718-.403l-.11.265c.166-.092.432-.172.608-.161-.033.058-.089.161-.155.207.166-.058.403-.1.668-.065-1.14.375-2.278 1.604-2.248 2.412.104-.184.314-.432.447-.552-.027.086-.011.224-.005.305.055-.172.171-.379.275-.563-.017.104.017.236.039.305.056-.167.254-.506.343-.644-.027.098.006.282.027.379.083-.172.254-.437.393-.592-.033.104-.027.282-.022.345.089-.155.31-.431.442-.575-.039.121-.039.305-.044.391.104-.167.403-.478.574-.627-.05.109-.066.288-.083.362.127-.138.498-.368.636-.408-.221.155-.453.552-.586.742l.216-.04c-.122.081-.359.374-.415.477l.249-.104c-.094.098-.304.414-.364.558l.26-.092c-.128.115-.321.529-.387.696.049-.063.231-.167.281-.19-.094.121-.31.586-.331.708.033-.081.204-.219.254-.276-.039.109-.105.432-.116.529l.144-.178c-.011.155.017.489.05.615.017-.167.094-.385.116-.489l.066.126c0-.126.05-.426.066-.535l.138.155c-.027-.132-.038-.449-.033-.569.022.046.133.132.172.144-.039-.098-.078-.385-.072-.495.017.058.089.161.127.19l-.011-.512c.022.069.138.241.193.282-.011-.115-.033-.478-.027-.587l.193.173c-.017-.126-.028-.495-.028-.587.022.063.128.19.166.23-.006-.161.027-.442.039-.563l.144.178c.021-.241.166-.495.354-.725.199.207.37.667.403.708l.071-.184.066.495.111-.195c0 .138.016.368.033.471l.11-.172c-.028.115-.017.426 0 .541l.132-.178c-.033.104.078.472.089.633l.122-.207.055.678c.022-.075.1-.184.139-.23-.028.167.055.483.116.627.011-.081.044-.213.077-.265.056.109.204.42.21.592.066-.167.055-.506-.022-.719l.133.081c-.038-.149-.154-.437-.216-.489l.172.098c-.039-.172-.166-.46-.238-.581l.222.069c-.061-.126-.271-.42-.365-.5l.243.081c-.061-.104-.343-.351-.514-.46l.315-.012c-.105-.132-.354-.311-.509-.391l.248.052c-.044-.126-.287-.368-.403-.471.1.052.42.212.52.316.022-.081.006-.27-.027-.351.1.063.337.288.382.374l.017-.271c.254.178.414.391.48.506.011-.08.017-.27-.006-.368.077.069.26.282.299.374.005-.075.017-.195-.006-.259.056.069.204.368.227.432.017-.063.056-.265.039-.322.061.086.265.391.293.495l.055-.288c.066.098.188.449.199.546.027-.046.083-.282.071-.368.056.104.216.523.249.61.022-.063.056-.253.05-.305.039.063.221.518.227.592.027-.069.044-.241.039-.299.021.104.16.379.337.575.142-1.494-1.446-2.438-2.713-2.631z"/><path d="M33.092 17.432l.241-.095m.256.847c-.245-.038-.479-.048-.686-.027m-1.095-.982c.144.237.26.495.334.774m-.662-.016l.296.155m-1.354.268l.327-.084m1.624-.368c.067-.295.182-.573.337-.828" fill="none"/><g fill="#80612D"><path d="M29.471 28.083c-.009-2.588.004-3.485-.07-3.485s-.062.897-.07 3.485"/><path d="M28.893 28.593c1.624 0 2.166-.36 2.133-.717-.773 0-.984.185-2.133.185s-1.359-.185-2.134-.185c-.033.356.509.717 2.134.717zm0 .445c.757 0 1.37-.063 1.32-.322-.069.023-.202.043-.323.047l-.039-.244c-.014-.067-.196-.05-.185.016l.033.246c-.271.039-.613.039-.807.039-.194 0-.536 0-.808-.039l.033-.246c.012-.065-.171-.083-.185-.016l-.039.244c-.121-.004-.254-.023-.323-.047-.049.259.565.322 1.323.322z"/></g><path d="M32.218 18.584c.099 2.837-1.117 9.675 3.182 11.797.409.187.107.962-.594.603-4.089-2.318-2.779-9.378-2.853-12.417l.265.017zm-.35-.7c-.398 0-.398.622 0 .622.398-.001.398-.622 0-.622zm.547.096c-.397 0-.397.622 0 .622.398 0 .398-.622 0-.622zm-.526.398c-.397 0-.397.622 0 .622.398 0 .398-.622 0-.622zm.372-.107c-.398 0-.398.622 0 .622.397 0 .397-.622 0-.622z" fill="#80612D"/><path fill="#fff" d="M27.809 24.782c.266.966-.021 2.242-.497 3.129 1.017-.104 2.652-.207 3.205 0-.487-1.289-1.603-2.864-2.708-3.129z"/><g fill="#E40520"><path d="M27.84 23.031c-.075-.211-.213-.339-.4-.339-.279 0-.459.285-.459.713 0 .424.185.723.467.718.235-.003.393-.171.41-.448h-.364v-.334h.672v1.086h-.216l-.03-.24c-.103.182-.271.283-.479.297-.431.026-.795-.449-.795-1.081 0-.633.308-1.051.795-1.051.385 0 .7.288.7.68h-.301zm2.506 1.103c.256 0 .323-.192.323-.374v-1.409h.358v1.404c0 .344-.156.73-.682.73-.523 0-.683-.387-.683-.73v-1.404h.359v1.409c.001.181.071.374.325.374zm3.249-.442l-.229.001.236-.867.233.867-.24-.001v.355h.341l.115.436h.349l-.592-2.135h-.413l-.593 2.135h.349l.118-.436h.326v-.355zM36.363 24.483l-.334-1.628v1.628h-.345v-2.135h.538l.318 1.636.32-1.636h.538v2.135h-.345v-1.628l-.333 1.628z"/></g></svg>