<svg xmlns="http://www.w3.org/2000/svg" width="64" height="48"><path fill="#262D62" d="M0 0h64v48h-64z"/><path fill="#DC2F34" d="M0 6h64v6h-64z"/><path fill="#fff" d="M0 0h64v6h-64z"/><path fill="#DC2F34" d="M0 24h64v6h-64z"/><path fill="#fff" d="M0 18h64v6h-64z"/><path fill="#DC2F34" d="M0 42h64v6h-64z"/><path fill="#fff" d="M0 36h64v6h-64z"/><path fill="#262D62" d="M0 0h32v24h-32z"/><path fill="#fff" d="M32 .02h-3.9l-8.007 5.97v-5.99h-8.185v6.015l-8.041-5.995h-3.867v2.913l6.759 5.071h-6.759v7.992h6.759l-6.759 5.07v2.914h3.867l8.041-5.995v6.015h8.185v-5.99l8.007 5.97h3.9v-2.914l-6.792-5.07h6.792v-7.992h-6.792l6.792-5.071z"/><path fill="#DC2F34" d="M29.467.02l-10.663 7.995h2.552l10.623-7.995zM31.979 23.996l-10.634-7.99h2.564l8.07 6.085zM10.713 8.015l-10.684-7.995v1.91l8.109 6.085zM10.692 16.006l-10.663 7.99h2.551l10.665-7.99zM14 0h4v24h-4zM0 10.167h32v3.833h-32z"/></svg>