<svg xmlns="http://www.w3.org/2000/svg" width="64" height="48"><path fill="#E52420" d="M0 0h64v48h-64z"/><path fill="#fff" d="M36.292 10.34c-1.382-2.349-5.691-3.757-8.128.42-2.427 4.16.461 10.618 3.084 12.865-1.561-2.463-1.456-4.431-.482-7.142.072-.201.439-.106.36.097-.94 2.406-1.08 4.613.498 6.896-.693-1.877-.819-3.335.918-4.09 3.134-1.362 3.573-4.278 2.277-6.491-1.299-2.218-.313-3.693 1.473-2.555z"/><path fill="#E40520" d="M31.766 14.226l-.034 1.055.993.358-1.014.294-.034 1.054-.593-.872-1.013.294.647-.834-.593-.873.993.358z"/><path fill="#fff" d="M20.326 15.747c-2.661.587-5.332 4.251-2.112 7.86 3.207 3.594 10.24 2.843 13.188 1.043-2.825.724-4.664.015-6.941-1.749-.169-.131.035-.45.203-.312 1.998 1.638 4.054 2.452 6.712 1.658-2 .079-3.424-.252-3.605-2.137-.327-3.401-2.965-4.72-5.47-4.172-2.511.549-3.609-.845-1.975-2.191z"/><path fill="#E40520" d="M22.623 21.252l.993.358.647-.834-.034 1.055.993.358-1.014.294-.033 1.055-.593-.873-1.013.294.647-.834z"/><path fill="#fff" d="M20.534 32.602c-.264 2.712 2.396 6.385 6.822 4.438 4.409-1.938 5.868-8.86 5.067-12.22-.185 2.91-1.427 4.439-3.808 6.061-.176.12-.417-.173-.234-.29 2.174-1.395 3.585-3.098 3.651-5.872-.543 1.927-1.298 3.18-3.146 2.77-3.336-.74-5.406 1.361-5.658 3.913-.253 2.557-1.918 3.169-2.694 1.2z"/><path fill="#E40520" d="M26.48 32.118l.647-.834-.593-.873.993.359.647-.834-.033 1.054.992.359-1.013.294-.034 1.054-.592-.873z"/><path fill="#fff" d="M36.628 37.611c2.498 1.089 6.812-.305 6.329-5.116-.481-4.792-6.614-8.319-10.057-8.596 2.711 1.075 3.782 2.729 4.588 5.494.06.205-.293.345-.349.134-.653-2.499-1.838-4.366-4.456-5.287 1.665 1.112 2.623 2.217 1.661 3.849-1.734 2.943-.376 5.561 1.974 6.59 2.355 1.031 2.423 2.804.31 2.932z"/><path fill="#E40520" d="M38.006 31.808l-.593-.873-1.014.294.648-.833-.593-.874.992.358.648-.834-.033 1.055.992.358-1.013.294z"/><path fill="#fff" d="M46.366 23.854c1.808-2.04 1.815-6.574-2.91-7.601-4.706-1.023-9.956 3.719-11.282 6.908 1.86-2.246 3.765-2.754 6.644-2.665.213.006.236.385.019.372-2.579-.15-4.721.399-6.405 2.604 1.572-1.238 2.918-1.809 4.173-.391 2.263 2.56 5.173 2.076 6.877.16 1.708-1.919 3.415-1.437 2.884.613z"/><path fill="#E40520" d="M41.272 20.75l-1.013.294-.033 1.055-.593-.873-1.014.294.648-.834-.593-.873.992.358.647-.834-.033 1.055z"/></svg>