<svg xmlns="http://www.w3.org/2000/svg" width="64" height="48"><path fill="#fff" d="M0 16h64v16h-64z"/><g fill="#004288"><path d="M32 21.243l-.612 1.906h-2.014l1.635 1.186-.628 1.904 1.619-1.183 1.619 1.183-.62-1.92 1.626-1.162h-2.005zM38.654 17.148l-.611 1.905h-2.016l1.637 1.187-.629 1.904 1.619-1.183 1.619 1.183-.619-1.92 1.625-1.162h-2.004zM38.654 25.338l.614 1.906h2.011l-1.634 1.187.628 1.904-1.619-1.185-1.619 1.185.621-1.921-1.629-1.162h2.008zM25.346 17.148l.611 1.905h2.015l-1.636 1.187.628 1.904-1.618-1.183-1.62 1.183.62-1.92-1.626-1.162h2.005zM25.346 25.338l-.614 1.906h-2.012l1.634 1.187-.628 1.904 1.62-1.185 1.618 1.185-.62-1.921 1.628-1.162h-2.007z"/></g><g fill="#004288"><path d="M0 32h64v16h-64zM0 0h64v16h-64z"/></g></svg>