<svg xmlns="http://www.w3.org/2000/svg" width="64" height="48"><path fill="#fff" d="M0 15.947h64v16.301h-64z"/><path fill="#006AB5" d="M0 32.248h64v15.752h-64z"/><path stroke="#000" stroke-width=".2" d="M30.725 35.88m-3.668-19.774" fill="none"/><path fill="#fff" d="M23.247 27.641l.301 2.551.532.975.266.354h2.569v-3.88h-3.668"/><g fill="#E30613"><path d="M26.915 27.641h3.667v3.881h-3.667zM34.251 27.641h3.667v3.881h-3.667zM30.582 31.521h3.669v4.589h-3.669zM37.927 34.445v-2.915l2.808-.009-1.417 1.772zM23.247 23.76h3.668v3.88h-3.668zM30.582 23.76h3.669v3.88h-3.669zM37.918 23.76h3.668v3.88h-3.668zM26.915 19.88h3.667v3.88h-3.667zM34.251 19.88h3.667v3.88h-3.667zM23.247 16h3.668v3.88h-3.668zM30.582 16h3.669v3.88h-3.669zM37.918 16h3.668v3.88h-3.668zM24.346 31.521h2.569v2.911l-1.063-.696-.797-.885z"/></g><path fill="#E30613" d="M0 0h64v15.947h-64z"/><path fill="#2D74BA" d="M37.927 14.583l1.037-4.944 3.588-1.196.93 3.588-2.649 4.049z"/><path d="M37.413 6.316l-3.109 2.074-.24 4.624 3.987.877 1.595-4.624z"/><path fill="#2D74BA" d="M32.398 6.139l-2.471 2.472.443 4.572 3.703.053.798-4.625z"/><path stroke="#000" stroke-width=".2" d="M27.375 6.538l-2.392 3.03 1.675 4.624 3.987-.956-.081-4.944z"/><path fill="#2D74BA" d="M23.548 15.468l-2.569-4.235 1.612-3.1 3.084 1.24 1.062 4.74z"/><path fill="#E30613" d="M23.017 15.752s10.091-6.662 18.826 0h-18.826z"/><path fill="#fff" d="M30.582 27.641h3.669v3.881h-3.669zM41.586 27.641h-3.668v3.88h2.375"/><path fill="#fff" d="M29.099 35.565l1.505.461-.022-4.505h-3.667l-.031 2.911zM37.918 34.445v-2.924h-3.667v4.501l1.612-.425zM26.915 23.76h3.667v3.88h-3.667zM34.251 23.76h3.667v3.88h-3.667zM23.247 19.88h3.668v3.88h-3.668zM30.582 19.88h3.669v3.88h-3.669zM37.918 19.88h3.668v3.88h-3.668zM26.915 16h3.667v3.88h-3.667zM34.251 16h3.667v3.88h-3.667z"/><path stroke="#E30613" d="M42 16v12c-1.506 12.403-19.213 10.135-19 0 .125-5.959 0-12 0-12h19z" fill="none"/><path stroke="#E30613" stroke-width="1.5" fill="none" d="M26.516 9.771l3.234-.664M26.915 11.986l3.189-.753M23.415 13.803l2.437-1.063"/><path fill="#FFED00" d="M22.751 9.639l-.266 1.506 1.373.665.31-1.462zM32.359 11.756l.699-.811-.589-.891-.709.769zM33.278 10.029l.699-.811-.59-.891-.709.769zM41.24 11.06l.952-.49-.212-1.047-.945.447zM31.604 9.983l.698-.812-.589-.89-.709.769zM35.243 9.86c.266.708 2.48 1.285 3.012.665l-.576 1.373s-.753.133-1.55-.044c-.798-.177-1.063-.842-1.063-.842l.177-1.152z"/><path stroke="#000" stroke-width="2" fill="none" d="M39.052 12.429l2.303 1.241"/><path stroke="#E30613" fill="none" d="M39.539 11.455l2.393 1.285"/><path stroke="#FFED00" fill="none" d="M38.653 13.271l2.171 1.24"/></svg>