<svg xmlns="http://www.w3.org/2000/svg" width="64" height="48"><path fill="#004996" d="M0 0h64v24h-64z"/><path fill="#E40520" d="M0 24h64v24h-64z"/><g fill="#fff"><path d="M24 17h16v14h-16zM31.999 24"/></g><path d="M25.381 26.604c-.471-.014-.094.424-.435.479-.104.013-.289.095-.305.282.141-.221.458-.01.576-.165.114-.159-.053-.297.204-.297.078 0 .143-.029.19-.061l-.23-.238zm13.237 0c.472-.014.094.424.436.479.103.013.289.095.304.282-.14-.221-.457-.01-.575-.165-.114-.159.052-.297-.204-.297-.079 0-.145-.029-.191-.061l.23-.238z" fill="#E40520"/><g fill="#fff"><path d="M26.215 27.452l-.934-.949M37.785 27.452l.934-.949"/></g><g fill="#fff"><path d="M26.547 28.299l-.356-.82.034-.02.45.773zM27.141 28.12l-.939-.633.014-.035.999.544zM26.841 28.245l-.653-.766.027-.027.728.697zM26.204 27.509l-.138-.005.033-.119.126.081zM26.19 27.479l-.021-.147.112.011-.044.148zM26.215 27.51l-.136-.113.084-.079.09.161zM37.452 28.299l.356-.82-.033-.02-.45.773zM36.858 28.12l.94-.633-.015-.035-.998.544zM37.157 28.245l.652-.766-.024-.027-.729.697zM37.795 27.509l.138-.005-.032-.119-.126.081zM37.809 27.479l.021-.147-.111.011.044.148zM37.785 27.51l.135-.113-.083-.079-.09.161z"/></g><path fill="#00793E" d="M35.312 27.179c.584.408 2.372 1.032 2.783 1.329.409.298 1.747.518 1.905.657v1.835h-16v-1.835c.158-.14 1.495-.359 1.905-.657.41-.297 2.198-.921 2.782-1.329h6.625z"/><path d="M33.423 23.949c.117.158.256.879.117 1.316l.45-.409c.192.533.279 2.774-.069 3.263l-1.922.578v-2.834l1.424-1.914zm-2.846 0c-.118.158-.256.879-.118 1.316l-.45-.409c-.191.533-.278 2.774.069 3.263l1.921.578v-2.834l-1.422-1.914z" fill="#E40520"/><path d="M33.921 28.118c.349-.488.262-2.729.069-3.263l-.45.409c.139-.437 0-1.158-.117-1.316l1.579-2.115c.236.25.514.939.514 1.487l.72-.643c.159.689.246 1.428.233 1.88l.485-.358c.263 1.693-.396 2.489-.56 2.804.47 1.049-.728 1.948-1.393 1.334-.438-.406-.512-.878-1.08-.219zm-3.843 0c-.348-.488-.261-2.729-.069-3.263l.45.409c-.138-.437 0-1.158.118-1.316l-1.581-2.115c-.235.25-.515.939-.515 1.487l-.717-.643c-.159.689-.249 1.428-.233 1.88l-.485-.358c-.264 1.693.396 2.489.56 2.804-.47 1.049.725 1.948 1.391 1.334.44-.406.514-.878 1.081-.219z" fill="#004996"/><path d="M32.735 22.78l.31.097.165-1.574-.306 1.43-.146-.044c-.044-.01-.062.077-.023.091zm.422.108l.294.146.39-1.529-.508 1.365-.141-.07c-.041-.018-.073.064-.035.088zm.384.163l.269.192.598-1.451-.692 1.269-.131-.09c-.039-.025-.083.05-.044.08zm-2.277-.271l-.309.097-.165-1.574.305 1.43.146-.044c.045-.01.062.077.023.091zm-.422.108l-.293.146-.392-1.529.51 1.365.141-.069c.04-.019.073.063.034.087zm-.383.163l-.269.192-.598-1.451.691 1.269.131-.09c.039-.025.084.05.045.08z" fill="#fff"/><path d="M31.994 26.317l.808-3.672c.014-.061.125-.023.115.018l-.729 3.68-.194-.026zm-.079-.058l1.329-3.494c.021-.059.128-.003.106.036l-1.25 3.514-.185-.056zm-.074-.074l1.801-3.24c.028-.056.127.015.104.053l-1.727 3.276-.178-.089zm.165.132l-.808-3.672c-.017-.061-.126-.023-.115.018l.729 3.68.194-.026zm.079-.058l-1.331-3.494c-.021-.059-.127-.003-.107.036l1.253 3.515.185-.057zm.074-.074l-1.802-3.24c-.028-.056-.127.015-.103.053l1.727 3.276.178-.089z" fill="#CF7400"/><path d="M32.613 23.506c-.006.033.123.062.133.038m-.202.277c-.007.034.13.066.138.039m.247-.277c-.011.031.116.083.127.058m-.24.242c-.011.033.123.087.132.061m.272-.242c-.017.03.102.103.113.078m-.269.203c-.017.028.105.102.118.08m-1.796-.557c.007.033-.123.062-.132.038m.202.277c.006.034-.131.066-.139.039m-.249-.277c.011.031-.113.083-.124.058m.238.242c.011.033-.121.087-.131.061m-.272-.242c.017.03-.102.103-.112.078m.267.203c.017.028-.104.102-.116.08" fill="none"/><g fill="#CF7400"><path d="M35.312 21.532l-3.206 4.293-.085-.068 3.208-4.297zM36.597 22.473l-4.548 4.257-.068-.084 4.549-4.256zM37.412 23.953l-5.496 3.839-.061-.094 5.498-3.839zM28.685 21.532l3.208 4.293.086-.068-3.208-4.297zM27.403 22.473l4.548 4.257.068-.084-4.549-4.256zM26.588 23.953l5.495 3.839.062-.094-5.499-3.839z"/></g><g fill="#FFF046"><path d="M35.463 21.402l.036-.161.177-.012.384-.776-.626.568.028.187-.141.074zM35.453 21.652l.151-.203-.353-.303-.15.204zM36.766 22.375l.063-.153.176.024.504-.695-.708.443-.002.19-.152.045zM36.715 22.618l.184-.171-.3-.364-.181.171zM37.594 23.881l.079-.144.173.049.59-.61-.763.331-.027.187-.155.023zM37.509 24.114l.203-.143-.246-.405-.204.142zM28.537 21.402l-.036-.161-.177-.012-.384-.776.626.568-.028.187.141.074zM28.545 21.652l-.149-.203.351-.303.152.204zM27.232 22.375l-.061-.153-.176.024-.504-.695.708.443.001.19.153.045zM27.284 22.618l-.185-.171.302-.364.181.171zM26.406 23.881l-.079-.144-.174.049-.59-.61.763.331.027.187.154.023zM26.49 24.114l-.202-.143.246-.405.204.142z"/></g><path d="M35.412 21.525l.063-.084-.193-.165-.064.082zM36.699 22.486l.076-.068-.166-.203-.074.072zM37.509 23.98l.085-.058-.137-.224-.081.06zM28.585 21.525l-.061-.084.194-.165.061.082zM27.301 22.486l-.076-.068.165-.203.075.072zM26.491 23.98l-.085-.058.136-.224.082.06z"/><path d="M35.237 21.906c.275.039.459.408.479.563l.136-.116c-.074-.172-.18-.385-.509-.508l-.106.061zm.17-.295c.039.148.021.186-.145.284s-.402.073-.405-.005l-.036-.171c.025.109.444.033.586-.108zm1.052 1.217c.269.089.388.491.383.645l.151-.09c-.047-.182-.113-.412-.419-.594l-.115.039zm.217-.258c.015.153-.009.188-.188.25-.179.067-.404-.001-.398-.083l-.004-.173c.006.114.427.119.59.006zm.553 1.714c.253.126.316.544.294.694l.161-.07c-.023-.186-.057-.422-.336-.647l-.119.023zm.25-.224c-.01.153-.038.184-.221.22-.189.039-.403-.063-.384-.14l.016-.176c-.006.114.41.183.589.096zm-8.717-2.154c-.274.039-.46.408-.479.563l-.135-.116c.074-.172.178-.385.509-.508l.105.061zm-.169-.295c-.039.148-.023.186.143.284.167.098.403.073.407-.005l.035-.171c-.025.109-.444.033-.585-.108zm-1.053 1.217c-.268.089-.387.491-.383.645l-.15-.09c.046-.182.113-.412.419-.594l.114.039zm-.216-.258c-.017.153.006.188.186.25.18.067.405-.001.401-.083l.004-.173c-.008.114-.429.119-.591.006zm-.553 1.714c-.252.126-.315.544-.296.694l-.158-.07c.023-.186.056-.422.336-.647l.118.023zm-.25-.224c.008.153.037.184.221.22.188.039.403-.063.384-.14l-.016-.176c.006.114-.41.183-.589.096z" fill="#E40520"/><path d="M35.405 21.782c.206.039.472.234.577.456l-.13.116c-.074-.172-.18-.385-.509-.508l.062-.064zm.002-.171c-.143.142-.562.217-.586.107l-.052-.215c-.033-.159.21-.172.5-.008l.138.116zm1.24 1.126c.199.076.425.321.493.556l-.147.09c-.047-.182-.113-.412-.419-.594l.073-.052zm.029-.167c-.163.113-.584.107-.591-.005l-.016-.221c-.01-.162.232-.132.491.086l.116.14zm.751 1.65c.186.105.379.38.413.623l-.156.066c-.023-.186-.057-.422-.336-.647l.079-.042zm.052-.16c-.18.088-.596.019-.589-.095l.013-.22c.015-.162.251-.096.478.158l.098.157zm-8.886-2.278c-.204.039-.471.234-.575.456l.13.116c.074-.172.178-.385.509-.508l-.064-.064zm0-.171c.142.142.561.217.585.107l.052-.215c.033-.159-.21-.172-.499-.008l-.138.116zm-1.24 1.126c-.2.076-.425.321-.495.556l.149.09c.046-.182.113-.412.419-.594l-.073-.052zm-.029-.167c.162.113.583.107.591-.005l.014-.221c.012-.162-.23-.132-.49.086l-.115.14zm-.751 1.65c-.188.105-.38.38-.413.623l.156.066c.023-.186.056-.422.336-.647l-.079-.042zm-.052-.16c.18.088.596.019.589-.095l-.013-.22c-.015-.162-.252-.096-.478.158l-.098.157z" fill="#004996"/><path d="M35.723 22.469l.015.121m.046-.179l.016.123m.016-.154l.016.121m.021-.148l.013.12m.03-.161l.013.121m.03-.159l.015.123m.028-.16l.014.121m-.244.08l.016.123m-.987-1.128c-.051.076.141.308.54.108m1.526 1.933l-.007.123m.076-.167l-.003.122m.041-.148l-.002.122m.041-.143l-.008.123m.059-.154l-.003.123m.052-.152l-.009.123m.057-.153l-.007.123m-.249.033l-.007.123m-.786-1.294c-.067.065.085.33.515.207m.92 2.494l-.023.122m.1-.155l-.023.119m.064-.14l-.023.122m.062-.138l-.026.125m.078-.146l-.02.12m.072-.14l-.021.12m.073-.145l-.021.121m-.252-.002l-.024.119m-.607-1.398c-.073.054.045.339.48.28m-9.139-1.494l-.015.121m-.047-.179l-.016.123m-.016-.154l-.015.121m-.021-.148l-.014.12m-.029-.161l-.014.121m-.03-.159l-.014.123m-.028-.16l-.014.121m.242.08l-.014.123m.987-1.128c.051.076-.141.308-.54.108m-1.527 1.933l.008.123m-.078-.167l.005.122m-.043-.148l.004.122m-.041-.143l.006.123m-.057-.154l.003.123m-.053-.152l.01.123m-.059-.153l.009.123m.249.033l.007.123m.785-1.294c.067.065-.084.33-.514.207m-.92 2.494l.023.122m-.1-.155l.023.119m-.064-.14l.022.122m-.061-.138l.023.125m-.075-.146l.018.12m-.07-.14l.02.12m-.072-.145l.019.121m.254-.002l.023.119m.606-1.398c.074.054-.043.339-.48.28" fill="none"/><path fill="#C9CECB" d="M31.927 21.208c-.097-.11.043-.457.043-.676s.052-1.034.047-1.313c-.01-.283.281-.364.274-.021-.006.348.007 1.237.024 1.395.023.159.013.646-.053.709-.05-.081-.245-.142-.335-.094z"/><path fill="#CF7400" d="M31.906 21.235c-.062.402-.171.993-.23 1.634-.087.971.141 4.078.112 4.583h.424c-.022-1.685.049-2.123.102-2.585.051-.463.025-1.107.051-1.529.029-.423-.102-1.324-.077-1.975.01-.176-.35-.319-.382-.128z"/><path fill="#fff" d="M31.999 30.561c1.32 0 2.347-.093 3.178-.335.121-.036.192-.104.192-.143v-.313c.456.445 1.453.057 2.156.501.27.174 1.309.751 1.888.409-.312.043-.745-.047-.914-.219.345.15.828.122.945-.042-.623.23-1.27-.413-1.694-.593-.774-.331-1.506-.104-2.33-.457-.34-.143-.562-.06-.562.063v.328c-.588.111-1.57.245-2.858.245-1.287 0-2.269-.134-2.856-.245v-.328c0-.123-.224-.206-.562-.063-.825.353-1.556.126-2.331.457-.426.18-1.07.823-1.693.593.115.164.601.192.944.042-.168.172-.603.262-.915.219.58.342 1.619-.235 1.889-.409.703-.444 1.699-.056 2.157-.501v.313c0 .038.07.106.188.143.833.242 1.858.335 3.178.335z"/><path d="M29.143 29.761c-.199-.027-.512-.039-.512-.165 0-.178.512.058.512-.163m-.512.163v.174m6.226-.009c.195-.027.512-.039.512-.165 0-.178-.512.058-.512-.163m.512.163v.174" fill="none"/><g fill="#CF7400"><path d="M32.58 27.206l.129-.824-.102-.024-.128.821zM31.419 27.206l-.128-.824.102-.024.128.821z"/></g><g fill="#fff"><path d="M32.375 26.295c.046-.251.197-.235.332-.204.131.032.3.053.412-.147.105.196.091.415-.087.612-.19-.32-.47-.333-.657-.261zM32.584 26.37l.066-.42.138.022-.066.42zM31.625 26.295c-.047-.251-.199-.235-.334-.204-.13.032-.3.053-.41-.147-.106.196-.091.415.085.612.192-.32.471-.333.659-.261zM31.292 26.402l-.066-.42.138-.022.066.42z"/></g><path d="M34.484 28.327c-.304.085-.494.314-.418.548.08.247.392.164.49.092.096-.068.068-.295-.095-.298-.159 0-.107-.174.058-.222l-.035-.12zm.091.132c.059-.021.072-.021.044-.112-.027-.09-.039-.084-.097-.06-.061.019-.073.019-.049.108.029.094.04.083.102.064zm-5.059-.132c.304.085.493.314.417.548-.08.247-.391.164-.49.092-.096-.068-.069-.295.094-.298.158 0 .108-.174-.059-.222l.038-.12zm-.092.132c-.058-.021-.073-.021-.044-.112.028-.09.039-.084.096-.06.062.019.075.019.05.108-.028.094-.041.083-.102.064z" fill="#C9CECB"/><path d="M25.45 28.876c-.118.12-.297.326-.346.477l-.066-.123c-.06.068-.133.194-.141.314l1.294-.426c.042-.099.22-.093.25.026.028.112-.103.2-.208.134l-1.26.399c.039.069.131.17.225.204l.042-.135c.115.084.348.206.512.202-.164.169-.524.313-.763.221l.167-.153c-.131-.104-.408-.235-.604-.295.104-.131.302-.424.364-.557l-.251-.021c.166-.143.539-.322.785-.267zm13.436.963l.141-.158-1.264-.395c-.104.07-.232-.016-.207-.133.026-.114.205-.126.245-.024l1.3.415c-.008-.116-.085-.246-.139-.314l-.07.123c-.046-.146-.225-.355-.349-.467.25-.059.624.114.789.259l-.253.024c.064.129.264.423.369.553-.116.037-.257.096-.381.159l-.181-.042z" fill="#FFF046"/><path d="M25.428 29.367c-.161-.058-.354-.036-.521.174l.521-.174zm.55-.098c-.037-.124-.07-.351.033-.386.086-.032.166.143.22.307.051.16.062.354-.026.382-.106.027-.191-.178-.227-.303zm-.337.195c.104.026.216-.028.281-.144.089-.146.267-.218.354-.188.035.013.079.125-.043.135-.123.007-.223.116-.286.227-.052.09-.269.202-.531.044l.225-.074zm12.377-.186c.036-.13.072-.35-.034-.387-.082-.031-.167.145-.22.307-.051.162-.056.359.032.385.105.03.185-.179.222-.305zm.549.097c.164-.062.356-.039.522.168l-.522-.168zm-.21.099c-.106.021-.214-.026-.281-.146-.089-.146-.265-.219-.354-.187-.038.01-.081.126.041.132.125.011.225.12.288.229.053.084.269.202.531.041l-.225-.069z" fill="#CF7400"/><path fill="#00793E" d="M32.901 18.59l-.115-.068c.061.006.271-.023.325-.035l-.133-.083c.103-.023.229-.062.321-.047l-.103-.119.331.075-.156-.136.287.091-.182-.185c.118.032.329.125.404.162-.075-.094-.15-.21-.223-.26.19.036.296.136.367.209-.041-.111-.127-.241-.204-.303.191.069.438.186.546.298-.047-.105-.176-.283-.275-.352.151.042.343.116.432.228-.446-1.014-1.983.062-2.402.729-.172-.808-.775-1.224-1.178-1.136.055.069.19.13.297.154-.084-.018-.232.032-.286.068.105 0 .392.045.486.095-.115.012-.251.068-.307.11l.445.075-.286.075c.087.012.391.096.466.135l-.275.043c.072.013.292.11.382.149l-.19-.006.356.197-.136-.013.098.111-.103-.042c-1.029-.6-2.139-.743-2.604.068l.169-.038c-.086.067-.174.215-.189.271.051-.018.171-.08.246-.16l.007.16.235-.247.041.105.151-.154-.013.116c.063-.062.127-.149.292-.253l-.05.123.18-.154-.078.21c.17-.124.282-.198.361-.24l-.056.148.247-.129-.119.159c-.716.218-1.468.501-1.531 1.293l.171-.289.033.328.198-.415v.217l.235-.355v.206c.061-.068.23-.377.285-.471v.224c.035-.032.237-.28.291-.372l-.049.21.23-.216-.051.131c.071-.039.266-.205.282-.224l-.056.172c-.514.315-1.178.73-1.139 1.597.026-.081.091-.348.119-.372.007.106-.003.241.03.34l.121-.365.024.266.172-.538v.197l.187-.382.016.092c.063-.161.21-.414.306-.543l-.096.215h.168c-.076.038-.264.141-.296.21l.196-.011c-.131.073-.322.215-.387.339l.223-.08c-.337.265-.438.536-.361.828.026-.174.161-.408.257-.519-.038.118-.103.481-.01.649.029-.168.099-.501.155-.619.009.122.031.236.072.321.022-.199.115-.526.166-.623-.005.073 0 .259.024.307l.183-.458v.236l.177-.402c-.01.104.022.211.038.295.04-.142.204-.542.228-.604l-.009.26c.146-.323.344-.638.574-.724-.051.043-.207.18-.238.254l.146-.025c-.086.042-.253.211-.294.297l.182-.08c-.076.054-.217.204-.253.26l.229-.113c-.091.063-.272.187-.356.346l.266-.117c-.151.123-.298.348-.341.464l.314-.241c-.112.098-.348.358-.344.549l.175-.154c-.099.154-.123.402-.07.582l.086-.229c-.016.099-.022.285.092.464-.002-.101.01-.383.043-.478.006.106.085.205.157.305-.012-.113-.051-.44-.074-.508.043.056.086.253.107.304.022-.112.033-.328.011-.421l.094.272c.021-.218-.023-.55-.042-.663.042.082.106.255.111.305.015-.181.024-.447-.017-.588l.104.198c.043-.062.022-.346-.012-.415l.088.149c.002-.119.016-.293-.013-.354l.044.068s-.041-.253.06-.347c-.024.062-.007.292.004.383l.135-.072c-.036.043-.049.208-.051.271l.104-.118-.103.304.125-.125c-.035.063-.084.236-.096.299l.14-.13c-.052.104-.096.252-.12.34l.202-.148c-.11.104-.161.333-.202.458.063-.034.169-.112.194-.163-.039.137-.18.485-.23.577.051-.024.197-.174.22-.21-.022.111-.092.309-.141.378.1-.033.229-.18.252-.249-.023.137-.101.446-.155.543.116-.079.253-.228.272-.377.013.106.055.434.024.563.113-.215.142-.617.09-.76.045.062.131.247.131.377.071-.192-.041-.661-.148-.829.084.089.185.242.224.36.019-.181-.142-.576-.276-.688.115.075.265.243.286.305-.062-.249-.164-.509-.371-.667.065.023.2.097.243.147-.05-.125-.147-.291-.243-.372l.155.074c-.052-.08-.144-.26-.206-.302l.188.186c0-.049-.03-.163-.063-.211.18.168.18.395.185.482l.048-.185c.027.13.043.383.041.475.052-.069.103-.16.096-.216 0 .124.012.323-.01.433.067-.069.107-.191.115-.253.011.109 0 .377-.02.457.04-.049.112-.217.112-.286.023.118.045.329.025.44.038-.08.104-.259.103-.327l.115.321c.078-.458-.192-.841-.325-1.038l-.03-.309c.084.168.187.34.215.451.025-.05.063-.205.035-.29.053.104.179.327.194.401.02-.062.026-.236-.002-.304.063.101.158.266.194.372.025-.081.025-.236 0-.304.077.112.196.36.216.458.014-.091.04-.234.012-.295l.127.248-.022-.26.149.247-.032-.221c.065.056.229.167.275.31-.052-.497-1.047-1.045-1.529-1.102l-.118-.229c.051.069.19.168.283.224l-.076-.211.236.24-.033-.165.242.24v-.166c.053.062.161.166.195.24l-.016-.191c.075.082.142.205.18.285v-.21l.202.307c.016-.067 0-.234-.021-.278.062.074.163.291.2.366l.002-.26c.077.081.177.254.191.327.014-.038.009-.252-.022-.309.083.148.187.366.22.489.02-.087 0-.279-.018-.371.07.097.156.254.163.401.023-.068.033-.304 0-.365.093.101.233.28.259.378.027-.656-.871-1.028-1.188-1.095l-.071-.137c.062.026.233.131.265.181l-.043-.197c.086.073.271.172.318.254.004-.063-.024-.176-.047-.217.079.061.242.205.299.309.011-.05.022-.229-.011-.272.054.093.262.292.299.39.014-.113-.037-.297-.098-.377.111.112.303.333.33.409.007-.094-.056-.322-.12-.397.104.105.232.18.328.439-.01-1.039-1.909-.983-2.933-.247l.218-.136-.075-.042.127.013.074-.039-.057-.064.096.047.109-.052z"/><path d="M30.447 20.256c.246-.328.89-1.059 1.408-1.195m-1.102.173c.218-.141.613-.222.943-.172m-1.139.541l.337-.081m-.179-.068c.062-.024.273-.077.346-.085m-.08-.067l.224-.023m-.132.011c.065-.05.312-.147.381-.168m-.582.282l.037-.144m.128.033l.014-.115m-.338-.384c.321-.103.836 0 1.005.118m.328.225c-.193.499-.466 1.204-.519 1.544m.761-1.484c.217.438.38 1.169.37 1.572m.558-1.089c-.126-.197-.276-.39-.353-.462m-.258.184l-.204-.217m.617-.105c-.168-.031-.562-.031-.769.03m1.65-.383c-.336-.092-1.072-.137-1.634.303m-1.514.278l-.068.258m.258-.812l.155-.151m.039.149l.094-.101m.065.12l.076-.074m.061.096l.076-.083m.039.124l.061-.069m.898.241l.052.058m.068-.095l.074.084m.084-.134l.104.145m-1.943.079l.055-.131m.112.076l.063-.144m.113.116l.055-.121m.09.11l.035-.108" fill="none"/><path fill="#E40520" d="M32.451 17.815l.014.163c.004.164-.109.147-.373.051-.266-.096-.312-.232-.266-.302l.087-.178c.01-.039.17-.007.295.06.12.067.23.111.243.206z"/><path fill="#004996" d="M32.451 17.815c-.013-.096-.123-.14-.243-.206-.125-.067-.285-.098-.295-.06l.04-.102c-.088-.006-.131-.125-.066-.239.063-.116.248-.053.384.054.135.11.17.232.161.315l.019.238z"/><path d="M31.837 17.859c-.022-.037.016-.116.263-.02.253.096.38.215.325.25m-.472-.641c.079.01.155-.067.099-.165m.019.09l.058.027" fill="none"/><path fill="#CF7400" d="M32.083 17.834v1.146l.129.049v-1.144l-.129-.051z"/><path d="M29.232 29.868l-.055.278.154.039-.012.06-.227-.048.067-.346zM29.588 30.237l.066-.051.036-.23.065.012-.033.23c-.006.055-.045.112-.146.097-.1-.018-.119-.083-.112-.143l.035-.225.065.01-.03.228.054.072zM29.885 29.984l.101.231.026-.21.069.007-.041.35-.066-.011-.113-.238-.026.222-.068-.012.041-.345zM30.189 30.017l-.035.347-.068-.007.035-.347zM30.393 30.396c-.096-.007-.151-.084-.14-.185.004-.108.071-.175.168-.163.093.005.146.083.141.187-.011.105-.076.169-.169.161l.003-.06c.052.005.092-.03.1-.107.005-.069-.024-.121-.08-.126-.056-.003-.094.042-.097.111-.007.068.025.122.077.122l-.003.06zM30.705 30.069l.118.219.009-.21.075.002-.023.353-.067-.002-.127-.233-.011.221-.069-.003.016-.352zM31.2 30.446l.007-.351.236.009v.056l-.165-.002v.075l.141.006v.064l-.143-.005-.006.148zM31.556 30.383l-.025.073-.068-.001.119-.351h.079l.109.357h-.068l-.018-.075-.128-.003.016-.06.089.003-.039-.14-.05.137zM31.815 30.107h.074v.354h-.074zM32.056 30.461l-.002-.293-.105.001v-.061l.275-.002v.061l-.105.001.001.293zM32.581 30.103l.006.287.161-.006v.062l-.23.01-.011-.352zM33.389 30.418l-.025-.353.24-.017v.056l-.165.014.01.08.143-.011.001.064-.142.01.013.148zM34.08 30.212l.018.134-.071.008-.042-.344.192-.028c.051-.011.083.038.093.085l-.051.094.062.06.013.1-.072.007-.007-.081-.062-.045-.073.01-.006-.066.093-.014.037-.052-.052-.038-.09.012.012.092.006.066zm.445-.167l-.079-.049c-.059.014-.074.06-.062.13.011.066.051.106.097.102l.061-.079.062-.011c.012.074-.039.131-.116.145-.084.017-.153-.04-.165-.148-.018-.1.024-.181.114-.194.087-.018.141.04.152.095l-.064.009zM34.856 29.912l-.174.039.015.074.158-.032.011.06-.158.039.021.089.17-.037.011.054-.244.054-.063-.342.242-.056zM32.876 30.373l-.022.073h-.068l.103-.354.077-.002.127.343-.064.002-.025-.069-.128.007.014-.061.09-.001-.051-.141-.039.142zM33.81 30.379c-.093.011-.162-.056-.169-.158-.011-.103.041-.182.136-.19.097-.011.161.052.171.156.008.107-.046.18-.138.192l-.004-.056c.05-.011.082-.055.078-.126-.01-.075-.05-.117-.101-.109-.053.004-.086.057-.078.127.004.067.049.111.101.108l.004.056zm-4.424-.426l.007-.042.044.008-.051.093v-.017l.024-.036-.024-.006z"/><g fill="#FFF046"><path d="M33.468 26.728c.236 0 .236.375 0 .375-.235 0-.235-.375 0-.375zm2.735.109l-.303.679-1.231.073-.295.519-1.959.628c-.333.095-.425-.237-.091-.378l1.444-.601.44-.597 1.995-.323zM33.708 27.288l3.655-.568-.099-.716-3.652.57zM36.532 26.123c.064-.013.156.703.095.711.04.035.182.044.197-.032.039-.206 0-.545-.101-.711-.033-.058-.176-.03-.191.032zm.576-.092c.063-.012.155.708.096.71.04.042.181.048.195-.028.041-.204.003-.546-.1-.71-.031-.058-.176-.03-.191.028zm-2.836.439c-.064.013.037.723.1.712-.026.053-.156.101-.191.033-.093-.187-.149-.525-.101-.71.019-.066.164-.088.192-.035zm-.537.084c-.066.009.037.724.099.716-.017.048-.159.096-.192.026-.096-.186-.15-.524-.101-.709.017-.066.163-.085.194-.033zm-3.204.174c-.235 0-.235.375 0 .375s.236-.375 0-.375zm-2.734.109l.302.679 1.232.073.292.519 1.961.628c.333.095.423-.237.091-.378l-1.444-.601-.44-.597-1.994-.323zM30.291 27.288l-3.654-.568.097-.716 3.652.57zM27.468 26.123c-.064-.013-.156.703-.096.711-.04.035-.181.044-.196-.032-.04-.206-.001-.545.101-.711.03-.058.175-.03.191.032zm-.576-.092c-.063-.012-.155.708-.097.71-.04.042-.182.048-.194-.028-.041-.204-.003-.546.098-.71.031-.058.178-.03.193.028zm2.832.439c.068.013-.033.723-.096.712.026.053.156.101.191.033.093-.187.149-.525.101-.71-.021-.066-.164-.088-.196-.035zm.541.084c.066.009-.037.724-.099.716.015.048.159.096.191.026.095-.186.151-.524.102-.709-.018-.066-.164-.085-.194-.033z"/></g><g fill="#CF7400"><path d="M35.663 25.347l-1.892 3.391.063.04 1.894-3.391zM28.337 25.347l1.892 3.391-.063.04-1.894-3.391z"/></g><path d="M35.932 24.939c.131.086-.18.641-.31.558-.136-.083.174-.643.31-.558zm-7.864 0c-.131.086.18.641.31.558.136-.083-.177-.643-.31-.558z" fill="#FFF046"/><g fill="#FFF046"><path d="M36.085 26.695c.307.453.205 1.11-.177 1.328-.413.238-1.087.107-1.21-.746-.198.854.709 1.522 1.371 1.05.659-.468.518-1.514.016-1.632zM35.456 26.523h.171v1.804h-.171zM34.884 27.996l1.191-1.276.125.131-1.191 1.278zM34.698 27.329h1.688v.192h-1.688zM35.009 26.72l1.191 1.278-.125.131-1.191-1.278zM35.542 27.627c-.106 0-.187-.092-.187-.201 0-.11.08-.203.187-.203.104 0 .188.093.188.203-.001.109-.084.201-.188.201zm0-.201.824 0c0-.49-.369-.887-.824-.887s-.825.396-.825.887c0 .488.37.884.825.884s.824-.396.824-.884h.296c0 .66-.501 1.199-1.12 1.199-.62 0-1.121-.539-1.121-1.199 0-.665.501-1.201 1.121-1.201.619 0 1.12.536 1.12 1.201h-.296zm-.824 0 .824 0c0-.49-.369-.887-.824-.887s-.825.396-.825.887c0 .488.37.884.825.884s.824-.396.824-.884h.296c0 .66-.501 1.199-1.12 1.199-.62 0-1.121-.539-1.121-1.199 0-.665.501-1.201 1.121-1.201.619 0 1.12.536 1.12 1.201h-.296zm-.824 0"/><path d="M27.915 26.695c-.307.453-.205 1.11.176 1.328.413.238 1.087.107 1.21-.746.199.854-.708 1.522-1.37 1.05-.66-.468-.518-1.514-.016-1.632zM28.372 26.523h.172v1.804h-.172zM29.116 27.996l-1.191-1.276-.125.131 1.191 1.278zM27.613 27.329h1.688v.192h-1.688zM28.991 26.72l-1.191 1.278.125.131 1.191-1.278z"/><ellipse cx="28.457" cy="27.425" rx=".187" ry=".202"/><path d="M28.457 27.426m-.825 0c0-.49.37-.887.825-.887s.826.396.826.887c0 .488-.371.884-.826.884s-.825-.396-.825-.884h-.294c0 .66.501 1.199 1.119 1.199.621 0 1.121-.539 1.121-1.199 0-.665-.5-1.201-1.121-1.201-.618 0-1.119.536-1.119 1.201h.294zm.825 0-.825 0c0-.49.37-.887.825-.887s.826.396.826.887c0 .488-.371.884-.826.884s-.825-.396-.825-.884h-.294c0 .66.501 1.199 1.119 1.199.621 0 1.121-.539 1.121-1.199 0-.665-.5-1.201-1.121-1.201-.618 0-1.119.536-1.119 1.201h.294zm.825 0"/></g><path d="M31.998 28.792c.392 0 .711-.116.711-.26 0-.148-.319-.262-.711-.262-.391 0-.711.113-.711.262 0 .144.32.26.711.26zm0-.26" fill="#fff"/><path fill="#FFF046" d="M32.693 28.617c0 .13-.312.229-.694.229-.386 0-.696-.099-.696-.229v-1.37h1.391v1.37z"/><g fill="#004996"><ellipse cx="31.999" cy="27.221" rx=".712" ry=".242"/><path d="M32.709 27.458c0 .131-.319.24-.71.24-.392 0-.712-.109-.712-.24v-.237c0 .135.32.242.712.242.391 0 .71-.107.71-.242v.237zm0 1.069c0 .131-.319.265-.71.265-.392 0-.712-.134-.712-.265v.254c0 .135.32.267.712.267.391 0 .71-.132.71-.267v-.254z"/></g><path fill="#fff" d="M32.607 27.343c-.128-.067-.353-.112-.608-.112-.254 0-.486.045-.608.112.116.065.307.119.616.119.326 0 .537-.077.6-.119z"/><path fill="#E40520" d="M31.335 27.546l.221 1.192.08.017.296-.878.252.903.104-.015.178-.736.188.604.045-.046v-.343l-.196-.615-.072.017-.205.905-.233-.854-.099-.001-.284.754-.141-.834-.134-.07z"/><path d="M32.072 27.097c0 .161.008.14-.073.14-.067 0-.072.021-.072-.14 0-.152-.01-.134.072-.134.083 0 .073-.019.073.134zm.496.107c0 .157.009.142-.073.111-.067-.022-.072-.004-.072-.165 0-.152-.007-.137.072-.108.084.029.073.006.073.162zm-1.14 0c0 .157-.007.142.073.111.067-.022.073-.004.073-.165 0-.152.01-.137-.073-.108-.082.029-.073.006-.073.162zm.588.368c0 .157.003.14-.074.14-.068 0-.076.017-.076-.14 0-.157-.008-.134.076-.134.077 0 .074-.022.074.134zm.514-.076c0 .161.005.144-.074.161-.066.015-.072.033-.072-.126 0-.154-.007-.134.072-.148.084-.021.074-.04.074.113zm-1.15-.044c0 .167.001.15-.051.106-.049-.04-.051-.023-.051-.193-.003-.16-.011-.145.049-.096.054.046.051.021.053.183zm.783 1.456c0 .16-.004.144.073.131.067-.012.077.005.077-.153 0-.154.008-.135-.077-.12-.078.012-.073-.011-.073.142zm-.684-.076c0 .162-.008.138.072.164.068.017.073.04.073-.121 0-.151.011-.132-.073-.153-.081-.026-.072-.043-.072.11zm1.134-.035c-.001.171-.006.155.052.104.044-.038.051-.023.053-.191.002-.161.004-.143-.05-.095-.061.05-.052.025-.055.182z" fill="#FFF046"/><path d="M29.882 25.658c.152 0 .354.074.346.168l-.05.478c-.01.083-.133.15-.296.15-.164 0-.289-.067-.292-.15l-.052-.478c-.012-.094.192-.168.344-.168z"/><ellipse fill="#fff" cx="29.882" cy="25.83" rx=".346" ry=".171"/><path d="M29.882 26.695c.271 0 .318-.379.296-.392-.01.083-.133.15-.296.15-.164 0-.289-.067-.292-.15-.026.013.022.392.292.392z"/><path fill="#fff" d="M29.882 26.201c.141 0 .259-.043.312-.103l.012-.104c-.045.066-.173.117-.324.117s-.278-.051-.325-.117l.01.104c.055.06.177.103.315.103zm.027.103l-.032-.027-.031.056.031.057.032-.03h.026l-.062.06-.055-.086.058-.086.059.058h-.026z"/><path fill="#004996" d="M29.932 25.998c0-.229.187-.682-.05-.682-.238 0-.049.453-.049.682h.099z"/><path fill="#FFD139" d="M34.04 26.475c-.05.046-.131.158-.077.209.051.052.274-.04.409-.158-.044.007-.28-.014-.332-.051zm.508.004c.026-.271-.05-.521-.261-.521-.209 0-.286.25-.261.521.012.077.511.082.522 0z"/><path fill="#E40520" d="M34.177 25.875l.087.177.068.017c.012-.06.064-.281-.025-.408-.116-.16-.431-.157-.515.085-.033.096-.037.284.132.342l.02-.067.055-.042.065-.006.043-.023.07-.075z"/><path d="M33.871 25.881c-.009.055.028.117.072.139m.004-.167l.054.131m.013-.167c-.013.051.016.13.05.154m.042-.148v.125m-.082.441c.005.08.517.08.527-.002" fill="none"/><g fill="#FFF046"><path d="M34.163 29.295c-.072 0-.127.048-.127.112 0 .062.055.112.127.112v.121c-.138 0-.252-.105-.252-.233 0-.129.114-.232.252-.232v.12zm-.689.153l.111.027c.087 0 .16-.041.16-.095 0-.048-.073-.088-.16-.088-.085 0-.159.04-.159.088l.048.068-.046.068c-.055-.03-.091-.082-.091-.136 0-.096.112-.172.248-.172.097 0 .184.038.225.094.076-.037.156.014.156.084 0 .072-.076.137-.167.087-.04.046-.12.084-.214.084l-.157-.041.046-.068zm.009-.136l.031.055c.026.084-.051.201-.191.246-.131.04-.259 0-.283-.093-.027-.088.056-.197.19-.24l.17-.01-.061.074-.09.013c-.081.027-.142.091-.127.136.014.051.096.064.177.037.088-.027.14-.085.126-.137l.058-.081zm-.309.315l-.146.095c-.135.042-.264.003-.29-.088-.024-.09.062-.199.191-.242.135-.043.263-.006.29.085v.067l-.088-.039c-.012-.045-.091-.062-.179-.035-.084.027-.141.088-.127.135.013.049.092.064.179.037l.089-.045.081.03zm-.296-.122l.037.098c-.005.097-.121.168-.258.161-.14-.013-.245-.097-.241-.192.006-.095.124-.164.258-.155l.138.036-.053.064-.088-.02c-.09-.007-.164.032-.166.081 0 .049.067.093.153.102.09.002.164-.03.167-.081l.053-.094zm-.593.079l.041.018c.085.035.167.025.179-.023l.076-.073.011.108c-.033.087-.164.12-.292.067l-.065-.035.05-.062zm-.004-.253l.134.025.118.078-.07.044-.075-.044-.091-.019-.016-.084zm1.59.03v.054-.054zm-3.557-.174c.067 0 .124.048.124.111 0 .064-.057.112-.124.112v.12c.135 0 .247-.103.247-.232s-.112-.231-.247-.231v.12zm.687.153l-.109.027c-.09 0-.163-.041-.163-.094 0-.048.073-.09.163-.09.087 0 .156.042.156.09l-.047.067.047.067c.053-.028.091-.08.091-.134 0-.097-.111-.172-.247-.172-.1 0-.184.034-.225.094-.079-.037-.156.014-.156.084s.073.136.166.084c.041.048.121.085.215.085l.156-.041-.047-.067zm-.007-.138l-.036.055c-.022.087.054.203.192.246.132.041.26 0 .287-.09s-.058-.199-.19-.24l-.171-.011.059.074.089.013c.083.028.143.091.129.136-.014.05-.094.063-.178.036-.086-.027-.141-.085-.127-.137l-.054-.082zm.307.315l.149.097c.133.042.262.002.287-.087.026-.092-.062-.2-.191-.244-.131-.041-.261-.004-.287.086l-.002.066.087-.037c.014-.048.094-.063.177-.036.087.026.142.087.127.136-.012.047-.088.063-.176.036l-.09-.047-.081.03zm-.686-.264v.055-.055zm1.24.332l-.046.001c-.087 0-.162-.041-.162-.089l-.048-.094-.04.094c0 .097.113.173.25.173l.076-.006-.03-.079zm.087-.235l-.133-.023-.14.026.055.068.085-.014.092.014.041-.071zm-1.275-1.744v-.184l.076-.143-.114-.046-.111.046.077.143v.184h.072zm.016 1.141l-.031-.227v-.697c0-.144.045-.21.115-.21.071 0 .089.077.089.14v.468c0 .229-.179.179-.204.095v.116c.038.089.303.113.303-.171v-.534c0-.113-.061-.247-.175-.247-.2 0-.229.164-.229.386v.66l-.039.219c-.09.021-.153.075-.153.137 0 .08.104.145.237.145.13 0 .235-.064.235-.145-.001-.063-.063-.115-.148-.135zm-.172-.003l-.023.042c-.031.044-.038.105.041.127m.159-.008c.042-.02.043-.067.01-.127l-.016-.031m2.679-1.131v-.179l-.076-.145.114-.046.112.046-.076.145v.179h-.074zm-.024 1.131l.027-.227v-.697c0-.144-.041-.21-.111-.21s-.091.077-.091.14v.468c0 .229.182.179.202.095v.116c-.031.089-.297.113-.297-.171v-.534c0-.113.059-.247.176-.247.195 0 .224.164.224.386v.66l.039.219c.09.021.153.075.153.137 0 .08-.106.145-.233.145-.129 0-.235-.064-.235-.145-.001-.063.058-.115.146-.135zm.169-.003l.022.042c.038.044.04.105-.039.127m-.156-.008c-.048-.02-.048-.067-.01-.127l.014-.031"/><path d="M33.467 27.823l-.103-.025v.085l.103.024c.035 0 .035-.084 0-.084zm0 .084l-.103-.024v.083l.103.022c.035 0 .035-.081 0-.081zm0 .081l-.103-.022v.085l.103.021c.035-.001.035-.084 0-.084zm0 .083l-.103-.021v.083l.103.022c.035.001.035-.084 0-.084zm0 .085l-.103-.022v.082l.103.024c.035 0 .035-.084 0-.084zm0 .084l-.103-.024v.084l.103.024c.035 0 .035-.084 0-.084zm-.003-.498l-.104-.016.005.071.103.025c.034.001.029-.08-.004-.08zm-6.596 1.294c-.247 0-.247.371 0 .371.252 0 .252-.371 0-.371zm.375 0c-.248 0-.248.371 0 .371.25 0 .25-.371 0-.371zm.376 0c-.253 0-.253.371 0 .371.244 0 .244-.371 0-.371zm.372 0c-.251 0-.251.371 0 .371.246 0 .246-.371 0-.371zm-.938-.34c-.25 0-.25.373 0 .373.248 0 .248-.373 0-.373zm.373 0c-.25 0-.25.373 0 .373.247 0 .247-.373 0-.373zm.374 0c-.248 0-.248.373 0 .373s.248-.373 0-.373zm-.563-.328c-.251 0-.251.372 0 .372.246 0 .246-.372 0-.372zm.371 0c-.246 0-.246.372 0 .372.25 0 .25-.372 0-.372zm.816.438c-.251 0-.251.375 0 .375.246 0 .246-.375 0-.375zm.591.016c-.246 0-.246.376 0 .376.252 0 .252-.376 0-.376zm.373.244c-.245 0-.245.37 0 .37.252.001.252-.37 0-.37zm7.8-.03c.25 0 .25.371 0 .371-.247 0-.247-.371 0-.371zm-.375 0c.251 0 .251.371 0 .371-.245 0-.245-.371 0-.371zm-.371 0c.246 0 .246.371 0 .371-.252 0-.252-.371 0-.371zm-.373 0c.246 0 .246.371 0 .371-.252 0-.252-.371 0-.371zm.936-.34c.248 0 .248.373 0 .373s-.248-.373 0-.373zm-.373 0c.247 0 .247.373 0 .373-.251 0-.251-.373 0-.373zm-.372 0c.247 0 .247.373 0 .373-.251 0-.251-.373 0-.373zm.564-.328c.245 0 .245.372 0 .372-.252 0-.252-.372 0-.372zm-.376 0c.251 0 .251.372 0 .372-.248 0-.248-.372 0-.372zm-.849.492c.247 0 .247.375 0 .375-.249 0-.249-.375 0-.375zm-.455-.169c.251 0 .251.375 0 .375-.248 0-.248-.375 0-.375zm-.366.235c.247 0 .247.372 0 .372-.25 0-.25-.372 0-.372z"/></g><g fill="none"><path d="M24 17h16v14h-16zM31.999 24"/></g></svg>