<svg xmlns="http://www.w3.org/2000/svg" width="64" height="48"><g fill="#fff"><path d="M0 0h64v48h-64zM0 0h64v48h-64z"/></g><g fill="#0075BF"><path d="M0 6h64v5h-64zM32.001 8.5"/></g><g fill="#0075BF"><path d="M0 37h64v5h-64zM32 39.5"/></g><path fill="#0075BF" d="M28.423 29.896h-6.923l3.413-5.915-3.411-5.944h6.923l3.575-6.037 3.541 6.037h6.957l-3.445 5.944 3.447 5.915h-6.958l-3.542 6.104-3.577-6.104zm3.589 2.556l1.557-2.557h-2.97l1.413 2.557zm7.419-4.249l-1.393-2.429-1.418 2.429h2.811zm-4.903 0l2.465-4.221-2.465-4.221h-5.058l-2.465 4.221 2.465 4.221h5.058zm-7.095 0l-1.475-2.446-1.476 2.446h2.951zm10.603-6.03l1.421-2.412h-2.89l1.469 2.412zm-12.078-.007l1.417-2.405h-2.834l1.417 2.405zm7.532-4.129l-1.496-2.647-1.543 2.647h3.039z"/></svg>