<svg xmlns="http://www.w3.org/2000/svg" width="64" height="48"><path fill="#fff" d="M0 16h64v16h-64z"/><path fill="#EF7D00" d="M0 0h64v16h-64z"/><path fill="#007A4D" d="M0 32h64v16h-64z"/><g fill="#002C51"><circle cx="32" cy="24" r="7.429"/><path d="M32 24"/></g><path fill="#fff" d="M33.287 17.533c-.03.233-.245.398-.479.368s-.408-.245-.378-.478c-.262-.021-.635-.025-.861-.002.031.234-.133.448-.366.479s-.459-.13-.489-.364c-.258.048-.62.14-.832.221.09.218-.013.467-.23.557-.218.09-.477-.007-.567-.225-.236.113-.562.295-.746.429.144.187.108.454-.079.598-.187.144-.461.116-.604-.07-.199.17-.468.431-.611.607.188.143.223.411.079.598-.143.187-.416.232-.603.088-.148.216-.34.538-.433.745.218.09.321.339.231.557-.091.218-.342.332-.56.242-.088.247-.189.607-.226.831.234.031.398.245.368.479-.031.233-.245.408-.479.378-.021.262-.025.636-.002.861.233-.031.447.133.479.367.031.233-.13.458-.363.488.048.258.14.62.221.833.217-.09.467.013.557.229.091.219-.007.477-.225.567.113.236.296.562.429.747.187-.144.454-.109.598.078.144.187.116.462-.07.605.171.199.431.467.607.61.144-.188.411-.223.598-.079.188.143.232.416.089.603.216.148.537.34.744.433.091-.218.34-.321.558-.231.218.091.331.343.241.56.247.088.607.189.831.226.031-.234.245-.398.479-.367.233.03.409.244.378.478.262.021.636.025.861.002-.03-.233.133-.447.367-.479.233-.03.458.13.488.364.258-.049.62-.141.833-.221-.09-.218.013-.468.23-.558.218-.091.476.007.566.225.236-.113.562-.295.747-.429-.144-.187-.109-.454.078-.598.187-.144.462-.116.605.07.199-.171.467-.431.61-.607-.187-.144-.223-.411-.079-.598s.416-.231.603-.089c.148-.216.34-.537.433-.744-.218-.091-.321-.34-.23-.557.09-.219.342-.332.559-.242.088-.247.189-.606.226-.831-.233-.031-.398-.245-.367-.479.03-.233.244-.408.478-.378.021-.262.025-.636.003-.861-.234.031-.448-.133-.479-.367-.03-.233.13-.458.364-.488-.049-.258-.14-.62-.221-.833-.218.09-.468-.013-.558-.23s.007-.476.225-.566c-.113-.237-.295-.563-.429-.747-.187.144-.454.108-.598-.078-.144-.187-.116-.462.071-.605-.171-.199-.432-.467-.608-.611-.143.187-.41.223-.598.08-.187-.144-.231-.417-.088-.603-.217-.148-.538-.34-.745-.433-.091.218-.339.322-.557.231-.219-.09-.332-.342-.242-.56-.248-.088-.607-.19-.832-.226z"/><path d="M32 24c.093-1.272.031-1.936.238-2.775-.136-1.121-.167-3.149-.238-3.818-.071.669-.102 2.697-.237 3.818.206.839.145 1.503.237 2.775zm0 0c-.24-1.253-.471-1.877-.488-2.742-.421-1.048-.977-2.999-1.218-3.627.104.665.6 2.632.759 3.75.416.758.529 1.414.947 2.619zm0 0c-.557-1.148-.94-1.692-1.182-2.522-.678-.903-1.719-2.644-2.115-3.188.273.615 1.261 2.387 1.704 3.426.599.623.877 1.228 1.593 2.284zm0 0c-.835-.965-1.347-1.391-1.794-2.13-.889-.696-2.345-2.109-2.868-2.532.423.523 1.836 1.979 2.532 2.868.739.447 1.165.959 2.13 1.794zm0 0c-1.056-.716-1.66-.995-2.284-1.593-1.039-.443-2.811-1.431-3.426-1.704.544.396 2.285 1.437 3.188 2.115.831.242 1.375.625 2.522 1.182zm0 0c-1.205-.418-1.861-.531-2.618-.948-1.118-.158-3.086-.654-3.75-.758.627.242 2.579.796 3.627 1.218.864.017 1.488.248 2.741.488zm0 0c-1.272-.092-1.936-.031-2.774-.238-1.121.137-3.149.167-3.819.238.67.071 2.698.102 3.819.238.838-.207 1.502-.146 2.774-.238zm0 0c-1.253.24-1.877.471-2.741.488-1.048.421-3 .977-3.627 1.219.664-.105 2.632-.601 3.75-.759.757-.417 1.413-.53 2.618-.948zm0 0c-1.147.557-1.691.94-2.521 1.182-.903.678-2.645 1.719-3.188 2.115.615-.273 2.387-1.261 3.426-1.703.623-.599 1.227-.878 2.283-1.594zm0 0c-.965.835-1.391 1.347-2.13 1.794-.697.889-2.109 2.345-2.532 2.868.523-.423 1.979-1.835 2.868-2.532.447-.739.959-1.165 1.794-2.13zm0 0c-.716 1.056-.994 1.66-1.593 2.284-.443 1.039-1.431 2.812-1.704 3.426.396-.544 1.438-2.285 2.115-3.188.242-.831.625-1.374 1.182-2.522zm0 0c-.418 1.205-.531 1.861-.947 2.619-.159 1.118-.654 3.085-.759 3.75.241-.628.797-2.579 1.218-3.627.017-.864.248-1.489.488-2.742zm0 0c-.092 1.272-.031 1.936-.237 2.774.136 1.121.166 3.15.237 3.819.071-.669.103-2.698.238-3.819-.207-.838-.145-1.502-.238-2.774zm0 0c.24 1.253.471 1.878.488 2.742.422 1.048.977 2.999 1.219 3.627-.105-.665-.601-2.632-.759-3.75-.417-.758-.53-1.414-.948-2.619zm0 0c.557 1.148.94 1.691 1.182 2.522.678.902 1.719 2.644 2.115 3.188-.273-.614-1.26-2.387-1.703-3.426-.599-.624-.878-1.228-1.594-2.284zm0 0c.835.965 1.347 1.391 1.794 2.13.889.697 2.345 2.109 2.868 2.532-.423-.523-1.835-1.979-2.532-2.868-.739-.447-1.165-.959-2.13-1.794zm0 0c1.056.716 1.66.995 2.284 1.594 1.039.442 2.812 1.43 3.426 1.703-.544-.396-2.285-1.438-3.188-2.115-.831-.242-1.374-.625-2.522-1.182zm0 0c1.205.418 1.861.531 2.619.948 1.118.158 3.085.653 3.75.759-.628-.242-2.579-.798-3.627-1.219-.864-.017-1.489-.248-2.742-.488zm0 0c1.272.092 1.936.031 2.774.238 1.122-.137 3.15-.167 3.819-.238-.669-.071-2.697-.102-3.819-.238-.838.207-1.502.146-2.774.238zm0 0c1.253-.24 1.878-.471 2.742-.488 1.048-.422 2.999-.977 3.627-1.218-.665.104-2.632.6-3.75.758-.758.417-1.414.53-2.619.948zm0 0c1.148-.557 1.691-.94 2.522-1.182.902-.678 2.644-1.719 3.188-2.115-.614.273-2.387 1.261-3.426 1.704-.624.598-1.228.877-2.284 1.593zm0 0c.965-.835 1.391-1.347 2.13-1.794.697-.889 2.11-2.345 2.532-2.868-.523.422-1.979 1.835-2.868 2.532-.447.739-.959 1.165-1.794 2.13zm0 0c.716-1.056.995-1.661 1.594-2.284.443-1.039 1.43-2.812 1.703-3.426-.396.544-1.438 2.285-2.115 3.188-.242.83-.625 1.374-1.182 2.522zm0 0c.418-1.205.531-1.861.948-2.619.158-1.118.653-3.085.759-3.75-.242.627-.797 2.579-1.219 3.627-.017.865-.248 1.489-.488 2.742z" fill="#002C51"/></svg>