<svg xmlns="http://www.w3.org/2000/svg" width="64" height="48"><path fill="#fff" d="M0 0h64v48h-64z"/><path fill="#283071" d="M10.571 20.935c4.286 0 5.715 3.185 11.429 3.185l7.143-3.185c4.286 0 5.715 3.185 11.429 3.185l7.143-3.185c4.286 0 5.715 3.185 11.429 3.185 2.857 0 3.781-.902 4.857-1.55v-4.71c-1.076.647-2 2.16-4.857 2.16-5.714 0-7.143-3.185-11.429-3.185-2.856 0-4.285 3.185-7.143 3.185-5.714 0-7.143-3.185-11.429-3.185l-7.143 3.185c-5.714 0-7.143-3.185-11.429-3.185m0-11.821c4.286 0 5.715 3.184 11.429 3.184l7.143-3.184c4.286 0 5.715 3.184 11.429 3.184l7.143-3.184c4.286 0 5.715 3.184 11.429 3.184 2.856-.001 3.78-.903 4.856-1.55v-4.71c-1.076.647-2 2.159-4.857 2.159-5.714 0-7.143-3.184-11.429-3.184-2.856 0-4.285 3.184-7.143 3.184-5.714 0-7.143-3.184-11.429-3.184l-7.143 3.184c-5.714 0-7.143-3.184-11.429-3.184m.001 12.061c4.286 0 5.715 3.185 11.429 3.185l7.143-3.185c4.286 0 5.715 3.185 11.429 3.185l7.143-3.185c4.286 0 5.715 3.185 11.429 3.185 2.857 0 3.781-.902 4.857-1.55v-4.71c-1.076.646-2 2.159-4.857 2.159-5.714 0-7.143-3.185-11.429-3.185-2.856 0-4.285 3.185-7.143 3.185-5.714 0-7.143-3.185-11.429-3.185l-7.143 3.185c-5.714 0-7.143-3.185-11.429-3.185"/><path fill="#283071" d="M59.143 27.979c-5.714 0-7.143-3.184-11.429-3.184-2.856 0-4.285 3.184-7.143 3.184-5.714 0-7.143-3.184-11.429-3.184l-7.143 3.184c-5.714 0-7.143-3.184-11.429-3.184l-7.143 3.184c-1.354 0-2.461-.182-3.429-.454v4.1c.968.272 2.075.454 3.429.454l7.143-3.184c4.286 0 5.715 3.184 11.429 3.184l7.143-3.184c4.286 0 5.715 3.184 11.429 3.184l7.143-3.184c4.286 0 5.715 3.184 11.429 3.184 2.857 0 3.781-.902 4.857-1.549v-4.71c-1.076.648-2 2.159-4.857 2.159zm0 15.922c-5.714 0-7.143-3.185-11.429-3.185-2.856 0-4.285 3.185-7.143 3.185-5.714 0-7.143-3.185-11.429-3.185l-7.143 3.185c-5.714 0-7.143-3.185-11.429-3.185l-7.143 3.185c-1.354 0-2.461-.182-3.429-.455v4.099c.97.273 2.077.455 3.431.455l7.143-3.184c4.285 0 5.714 3.184 11.428 3.184l7.143-3.184c4.286 0 5.715 3.184 11.429 3.184l7.143-3.184c4.285 0 5.714 3.184 11.428 3.184 2.857 0 3.781-.902 4.857-1.549v-4.71c-1.076.648-2 2.16-4.857 2.16zm0-7.961c-5.714 0-7.143-3.185-11.429-3.185-2.856 0-4.285 3.185-7.143 3.185-5.714 0-7.143-3.185-11.429-3.185l-7.143 3.185c-5.714 0-7.143-3.185-11.429-3.185l-7.143 3.185c-1.354 0-2.461-.182-3.429-.455v4.1c.968.273 2.075.455 3.429.455l7.143-3.185c4.286 0 5.715 3.185 11.429 3.185l7.143-3.185c4.286 0 5.715 3.185 11.429 3.185l7.143-3.185c4.286 0 5.715 3.185 11.429 3.185 2.857 0 3.781-.902 4.857-1.55v-4.709c-1.076.647-2 2.159-4.857 2.159z"/><path fill="#A54017" d="M49.471 12.725l-.313 29.679c-.01.921-.4 3.125.265 3.925.766.919 1.423-.589 1.416-1.259l-.019-1.777c-.06-5.72-.12-11.44-.181-17.16-.034-3.297-.07-6.594-.103-9.891l-.03-2.839c-.008-.874-.041-.677-1.035-.677z"/><path fill="#0E6B30" d="M52.506 26.884l-1.082-1.179-.264 1.196-.474-1.729-.437.873-.082-1.843-.437.873-.082-1.843-.437.873-.255-2.165-.437.872-.256-2.165-.436.873-.253-2.145c-.036-.298-.345-1.702.287-1.467 1.124.419 2.235 1.894 3.095 2.704l-1.128-.42 1.82 1.711-1.128-.419 1.82 1.712-1.128-.42 1.647 1.388-1.128-.42 1.647 1.389-1.127-.419 1.255 1.502-1.301-.743.3 1.407z"/><path d="M52.506 26.884l-4.841-9.048m3.294 2.777l-2.602-1.486-.527 2.394m3.82.384l-2.602-1.484-.527 2.392m3.82.386l-2.602-1.486-.527 2.393m3.648.062l-2.429-1.162-.701 2.069m3.649.062l-2.429-1.162-.701 2.069m3.257.176l-2.211-1.599-.136 2.279" fill="none"/><path fill="#0E6B30" d="M40.991 8.979l1.757.675-.507-1.333 1.533 1.519-.142-1.088 1.239 1.819-.142-1.088 1.238 1.819-.142-1.088 1.605 2.063-.142-1.088 1.605 2.063-.142-1.089c.767.986 2.312 2.377 2.478 3.64-1.532.133-3.383-.785-4.837-1.235l1.322-.114-2.783-.861 1.321-.114-2.785-.862 1.322-.114-2.418-.618 1.321-.113-2.417-.619 1.321-.114-2.124-.918 1.687.13-1.168-1.275z"/><path d="M40.991 8.979l10.239 6.826m-4.837-1.236l3.374.26-1.015-2.665m-3.821 1.43l3.373.261-1.015-2.665m-3.822 1.428l3.374.261-1.015-2.665m-3.455 1.673l3.008.017-.649-2.421m-3.456 1.673l3.007.017-.649-2.421m-3.16 1.372l3.078.561-1.309-2.364" fill="none"/><path fill="#0E6B30" d="M60.745 11.82l-1.465 1.071 1.621.179-2.259.535 1.208.357-2.449.179 1.208.357-2.449.179 1.208.357-2.863.358 1.207.357-2.862.357 1.207.357c-1.462.183-3.468.779-4.898.358.532-1.272 2.343-2.336 3.379-3.215l-.448 1.071 2.104-1.785-.447 1.071 2.103-1.785-.447 1.071 1.69-1.607-.448 1.071 1.69-1.607-.448 1.071 1.88-1.249-.861 1.25 1.845-.357z"/><path d="M60.745 11.82l-11.588 5m3.379-3.214l-1.724 2.5 3.243.356m.136-3.571l-1.724 2.5 3.243.356m.137-3.57l-1.723 2.5 3.243.356m-.278-3.392l-1.31 2.322 2.829.535m-.278-3.392l-1.31 2.322 2.829.535m-.088-3.036l-1.913 2.143h3.052" fill="none"/><path fill="#0E6B30" d="M60.987 23.032l-1.825-.527.651 1.285-1.695-1.387.261 1.073-1.435-1.71.261 1.072-1.435-1.709.261 1.072-1.825-1.921.26 1.071-1.825-1.922.261 1.072c-.875-.92-2.563-2.163-2.868-3.419 1.527-.258 3.46.506 4.955.834l-1.304.221 2.868.629-1.303.222 2.868.629-1.304.221 2.478.418-1.304.221 2.477.417-1.303.222 2.217.74-1.696.007 1.305 1.174z"/><path d="M60.987 23.032l-10.953-5.953m4.955.833l-3.391.017 1.304 2.568m3.651-1.735l-3.39.018 1.303 2.568m3.652-1.735l-3.391.018 1.304 2.568m3.261-1.948l-2.999.229.913 2.355m3.259-1.947l-2.998.23.913 2.356m2.998-1.624l-3.13-.307 1.564 2.246" fill="none"/><path fill="#0E6B30" d="M41.793 24.726l.921-1.284-1.4.207 1.732-.987-1.105-.045 1.99-.712-1.105-.046 1.99-.712-1.105-.046 2.284-.964-1.105-.045 2.285-.965-1.105-.046c1.161-.489 2.707-1.476 3.98-1.422-.084 1.21-1.295 2.599-1.916 3.623l.074-1.055-1.253 2.063.073-1.055-1.253 2.064.074-1.054-.959 1.811.074-1.055-.959 1.812.074-1.055-1.216 1.536.368-1.306-1.437.734z"/><path d="M41.793 24.726l8.254-7.064m-1.917 3.623l.738-2.614-2.801.413m.885 3.209l.737-2.614-2.801.415m.884 3.208l.737-2.613-2.8.413m1.179 2.958l.443-2.362-2.506.162m1.178 2.957l.443-2.362-2.506.162m.921 2.681l.994-2.338-2.542.689" fill="none"/><path fill="#0E6B30" d="M58.236 4.807l-1.772 1.186-.291-1.277-1.045 1.763-.188-.851-.853 1.809-.121-.835-.661 1.855-.38-.895-.664 2.256-.38-.895-.663 2.256-.38-.896-.663 2.256c-.094.319-.351.799-.332 1.128.037.635.458.361.848.233.549-.18 1.086-.781 1.563-1.135l2.19-1.621-1.424.465 2.466-1.826-1.423.465 2.465-1.826-1.423.464 2.465-1.423-1.683.403 2.656-1.377-1.614.419 1.946-1.548-1.683.805 1.043-1.36z"/><path d="M57.547 5.448c-1.322 1.139-2.514 2.145-3.571 3.523l-3.945 5.146m3.87-2.699l-2.826 1.337-.24-2.069m4.153-.618l-2.869 1.327-.24-2.069m4.13-.624l-2.848 1.332-.218-2.064m3.914-.273l-2.652.976-.309-1.684m3.938-.266l-2.846.93-.112-1.637m3.335-.215l-2.631 1.345.507-2.048" fill="none"/><path fill="#0E6B30" d="M49.471 3.998l.792 1.8 1.017-.952-.172 1.963.671-.637-.364 1.916.604-.653-.553 1.869.862-.59-.794 2.211.862-.59-.794 2.211.862-.59-.787 2.191-.389 1.087c-.202.563-.577.186-.79-.05-.383-.426-.503-1.151-.706-1.691l-.911-2.422.93 1.032-.998-2.653.929 1.032-.997-2.653.929 1.032-1.238-2.311 1.188 1.096-1.429-2.359 1.12 1.079-.724-2.185.948 1.438-.069-1.622z"/><path d="M49.672 4.849c.449 1.599.846 2.969.914 4.615l.257 6.105m-1.665-4.022l1.598 2.4 1.449-1.648m-3.158-2.384l1.64 2.411 1.449-1.648m-3.136-2.379l1.619 2.405 1.428-1.653m-3.162-1.984l1.667 2.016 1.276-1.29m-3.188-1.99l1.86 2.063 1.081-1.338m-2.706-1.677l1.426 2.32.802-1.964" fill="none"/><path fill="#0E6B30" d="M37.877 17.601l2.31-1.616-1.159-.595 2.027.34-.698-.919 1.971.732-.698-.919 1.97.731-.697-.918 2.375.799-.697-.919 2.318 1.19-.697-.918c1.279.431 3.028.728 3.883 1.853-.591.413-1.121.255-1.756.519l-2.032.849.375-.738-2.545.375.924-.646-2.602.765.924-.646-2.197.834.981-1.038-2.253 1.225.981-1.037-1.848 1.292 1.038-1.429-2.198.834z"/><path d="M38.609 17.166c.78-.341 1.682-.941 2.522-1.065 1.059-.155 2.051-.198 3.118-.136 1.958.115 3.886.265 5.837.478m-3.469 1.021l1.825-1.133-1.864-1.461m-2.014 2.433l2.253-1.217-1.865-1.461m-1.85 2.65l2.063-1.257-1.88-1.355m-2.919 2.954l1.905-1.684-1.539-.843m-1.213 2.644l1.479-1.613-1.182-.437m1.823 1.745l1.881-1.518-1.513-1.022" fill="none"/><path fill="#A6A3A2" d="M46.093 35.594c1.274-.229 2.704-.714 3.994-.717 1.344-.003 2.832.488 4.16.717-.615.256-1.282.659-1.931.803-.691.153-1.563.025-2.27.037-.582.009-1.119.076-1.672-.103l-2.282-.737z"/><path fill="#CA1517" d="M50.117 29.14c-.698.242-1.426-.074-2.14.253-.753.344-.548.273-1.294.177-.482-.063-1.01.022-1.328.425-.317.402-.527 1.5.159 1.508-.347-.004-.227 1.894-.027 2.122.257.288-.05.98.44 1.045.473.062.969.037 1.443.04 1.726.011 3.436-.037 5.159.086.453.033.915.054 1.357-.074.169-.049.737-1.019.616-1.198.036-.033.263.098.268.078.046-.175-.077-.653-.012-.928.049-.189.041-.768.174-.863.043-.621.101-1.133-.354-1.63-.545-.596-1.329-.348-2.011-.583-.667-.229-1.74-.704-2.45-.457z"/><path d="M46.133 29.743c-.421.148-.056 1.459.067 1.698-.609-.94-.821.078-.744.653.159-.347.748-.732.833-.081-.183.533-.173.93-.84 1.022l2.18-.191c-.689.03-.762-.368-1.075-.855-.058-.566.658-.496.837-.064-.068-.541-.518-1.561-.891-.511.039-.16-.068-1.82-.366-1.671zm.07 1.704c.069.104.147.344.148.456l-.148-.456zm.294-.026l-.036.473.022-.429.002.095.012-.139zm-.263.495c.199-.122.343-.099.37.128l-.35.03-.02-.158zm7.046-.233c-.44.059-.357 1.418-.287 1.676-.385-1.008-.863-.124-.861.49.179-.481.639-.433.837-.002-.053.567-.469.965-1.038.921l2.164.255c-.674-.109-.672-.513-.871-1.055.065-.667.671-.218.828.107.047-.543-.182-1.634-.762-.68.076-.16.212-1.824-.011-1.711zm-.284 1.683c.048.137.049.335.049.477l-.049-.477zm.29.034l-.132.455.109-.416-.017.094.041-.133zm-.358.432c.22-.078.356-.027.334.2l-.348-.041.014-.159zm-7.531-1.68c.057-.069.421-.528.441-.501-.891-1.153-1.247-2.219-.015-3.247.549-.457 1.52-.222 2.154-.079.598.135 1.239.128 1.849.158.023-.073.018-.226 0-.301-.556-.094-1.269-.067-1.884-.177-.889-.158-1.788-.262-2.492.353-.628.551-1.025 1.258-.688 2.1.209.524.634 1.095.634 1.693zm9.458 0c-.057-.07-.42-.528-.44-.501.89-1.152 1.247-2.22.015-3.247-.549-.457-1.52-.222-2.155-.079-.598.135-1.238.128-1.848.158-.023-.073-.019-.226 0-.301.556-.094 1.268-.067 1.884-.177.889-.158 1.788-.263 2.492.353.628.552 1.025 1.256.688 2.1-.208.524-.635 1.095-.635 1.693zm-5.442-4.218h1.283c.353 0 .237.147.237.487v1.645c0 .155.108.867 0 .987-.117.131-1.093 0-1.283 0-.353 0-.237-.147-.237-.487v-2.632zm.181-2.751c.221.183.394.421.502.685-.265-.108-.504-.281-.685-.503v1.158c.182-.222.421-.394.685-.503-.105.379-.234.683-.471 1l.937.062c-.11-.351-.244-.7-.314-1.062.265.108.504.281.685.503v-1.158c-.182.222-.421.394-.685.503.109-.265.282-.503.503-.685h-1.157zm1.333 2.063c0 .972-1.508.972-1.508 0-.001-.973 1.508-.973 1.508 0zm-1.492.108h1.501c.11-.606-.364-.196-.554-.398-.22-.234.217-.435-.25-.435-.414 0-.021.21-.207.435-.154.188-.653-.12-.49.398zm-.228 3.595c.371.31.648.701.839 1.144-.443-.19-.834-.469-1.144-.84v1.932c.312-.37.702-.648 1.144-.839-.19.443-.468.834-.839 1.144h1.932c-.37-.31-.649-.701-.839-1.144.442.19.833.469 1.143.839v-1.932c-.309.371-.701.649-1.143.84.189-.443.469-.834.839-1.144h-1.932zm-3.68 3.28l.951-.168c-.419-.242-.761-.578-1.025-.981.47.111.902.316 1.273.628l-.336-1.903c-.242.419-.578.761-.981 1.025.11-.47.316-.902.628-1.272l-.952.167.442 2.504zm8.782-2.671c.312.371.516.802.628 1.272-.403-.265-.739-.606-.981-1.025l-.336 1.903c.37-.312.802-.516 1.272-.628-.264.403-.606.739-1.024.981l.951.168.441-2.504-.951-.167zm-8.772 2.573l.006 1.386c3.041-.997 6.225-.997 9.266 0 0-.17.084-1.358-.018-1.392-.81-.268-1.653-.459-2.495-.596-2.269-.371-4.58-.111-6.759.603z" fill="#FADA00"/><path d="M45.322 31.414c0 .455-.706.455-.706 0s.706-.455.706 0zm-.453-.805c0 .455-.705.455-.705 0s.705-.455.705 0zm-.094-.943c0 .456-.706.456-.706 0 0-.455.706-.455.706 0zm.282-.88c0 .455-.705.455-.705 0s.705-.455.705 0zm.598-.722c0 .455-.705.455-.705 0 0-.456.705-.456.705 0zm.817-.503c0 .455-.706.455-.706 0 0-.456.706-.456.706 0zm.911.063c0 .455-.705.455-.705 0s.705-.455.705 0zm.912.151c0 .455-.705.455-.705 0 0-.456.705-.456.705 0zm.912.094c0 .455-.706.455-.706 0s.706-.455.706 0zm5.724 3.545c0 .455.705.455.705 0s-.705-.455-.705 0zm.452-.805c0 .455.706.455.706 0s-.706-.455-.706 0zm.095-.943c0 .456.705.456.705 0 0-.455-.705-.455-.705 0zm-.283-.88c0 .455.706.455.706 0s-.706-.455-.706 0zm-.597-.722c0 .455.705.455.705 0 0-.456-.705-.456-.705 0zm-.817-.503c0 .455.705.455.705 0 0-.456-.705-.456-.705 0zm-.912.063c0 .455.706.455.706 0s-.706-.455-.706 0zm-.911.151c0 .455.705.455.705 0 0-.456-.705-.456-.705 0zm-.912.094c0 .455.706.455.706 0s-.706-.455-.706 0zm-.52 2.753c0 .455-.706.455-.706 0s.706-.455.706 0zm0-.629c0 .455-.706.455-.706 0s.706-.455.706 0zm0-.503c0 .455-.706.455-.706 0s.706-.455.706 0zm0-.459c0 .455-.706.455-.706 0s.706-.455.706 0zm0-1.47c0 .455-.706.455-.706 0 0-.456.706-.456.706 0zm0 .063c0 .455-.706.455-.706 0s.706-.455.706 0zm0 .326c0 .455-.706.455-.706 0s.706-.455.706 0zm0 .447c0 .455-.706.455-.706 0s.706-.455.706 0zM50.625 32.14c0 .587-.912.587-.912 0 0-.589.912-.589.912 0zm-4.763.826c0 .589-.912.589-.912 0 0-.587.912-.587.912 0zm9.503 0c0 .588-.911.589-.911 0 0-.587.911-.587.911 0z" fill="#fff"/><path fill="#283071" d="M49.905 33.828h1.15c.264 0 .493.361.257.614-.111.119-.976 0-1.15 0-.402 0-.257-.241-.257-.614z"/><path fill="#3F8032" d="M52.145 34.282c.012.453 1.273.593 1.263.128.046-.443-1.273-.602-1.263-.128z"/><path fill="#CA1517" d="M45.944 34.605l-.352.352c.474.348.825.125 1.36-.018-.219-.695-.318-.502-1.007-.334zm9.329 0l.352.352c-.474.348-.825.125-1.36-.018.219-.695.318-.502 1.007-.334z"/><path fill="#3F8032" d="M49.072 34.282c-.012.454-1.276.592-1.263.128-.046-.443 1.273-.602 1.263-.128z"/><path fill="#fff" d="M49.601 33.874c0 .224-.347.224-.347 0 0-.223.347-.223.347 0zm.054.552c0 .224-.346.224-.346 0 0-.223.346-.223.346 0zm-2.219-.162c0 .223-.346.223-.346 0 0-.224.346-.224.346 0zm.216.519c0 .224-.346.224-.346 0 0-.223.346-.223.346 0zm3.956-.909c0 .224.346.224.346 0 0-.223-.346-.223-.346 0zm-.054.552c0 .224.346.224.346 0 0-.223-.346-.223-.346 0zm2.219-.162c0 .223.346.223.346 0 0-.224-.346-.224-.346 0zm-.216.519c0 .224.346.224.346 0 0-.223-.346-.223-.346 0zm.548 1.899c.345-.061.795-.132 1.098-.314l-.204-.283c.015.027.288-.541-.179-.398-.332.101-.67.184-1.01.257-1.069.225-2.163.336-3.256.336-1.061 0-2.124-.106-3.163-.32-.346-.071-.69-.153-1.029-.252-.414-.121-.401.067-.459.441.144.753 2.429.799 3.05.832 1.743.095 3.437-.002 5.152-.299zm-7.481-1.539c-.529.094-1.349.256-1.164.942.086.317 2.345-.445 2.711-.512 2.315-.423 4.459-.025 6.659.696.982-.853-2.115-1.418-2.578-1.495-1.956-.327-3.725.037-5.628.368z"/><path d="M45.789 35.209c-.03.073-.068.077-.114.012.03-.074.068-.078.114-.012zm-.066.143c-.029.073-.067.077-.113.012.029-.074.067-.078.113-.012zm.125.078c-.029.074-.068.078-.113.013.029-.074.068-.078.113-.013zm-.109-.096l.498-.23-.238.16.163-.021-.144.08.246-.01-.525.021zM47.61 34.677c-.03.074-.068.078-.113.012.029-.073.067-.077.113-.012zm-.064.143c-.03.074-.068.078-.114.012.03-.074.068-.078.114-.012zm.125.078c-.03.073-.068.077-.114.012.03-.073.068-.077.114-.012zm-.111-.097l.498-.229-.239.159.163-.021-.145.081.246-.01-.525.02zM50.204 34.765c-.047.063-.085.059-.114-.016.047-.065.085-.06.114.016zm-.098.123c-.047.063-.084.059-.113-.015.047-.065.085-.06.113.015zm.102.106c-.047.063-.084.059-.113-.015.047-.065.085-.06.113.015zm-.082-.121l.538-.104-.27.099.163.018-.159.044.241.05-.514-.106zM51.919 35.453c-.03-.073-.068-.077-.114-.012.03.074.068.078.114.012zm-.066-.142c-.03-.073-.068-.077-.113-.012.029.073.067.077.113.012zm.125-.077c-.029-.074-.068-.078-.113-.013.031.074.068.078.113.013zm-.109.095l.498.23-.238-.16.163.021-.144-.081.246.01-.525-.021zM53.758 35.945c-.03-.073-.068-.077-.114-.012.03.074.068.078.114.012zm-.065-.143c-.03-.073-.068-.077-.113-.012.029.074.067.078.113.012zm.125-.078c-.03-.073-.068-.077-.113-.012.029.074.067.078.113.012zm-.11.096l.498.23-.238-.16.163.021-.144-.081.245.01-.524-.02z" fill="#13110C"/><path fill="#283071" d="M0 0h32v24h-32z"/><path fill="#fff" d="M32 .02h-3.9l-8.007 5.969v-5.989h-8.184v6.014l-8.042-5.994h-3.867v2.913l6.759 5.071h-6.759v7.99h6.759l-6.759 5.07v2.915h3.867l8.042-5.995v6.014h8.184v-5.99l8.007 5.971h3.9v-2.915l-6.792-5.07h6.792v-7.99h-6.792l6.792-5.071z"/><path fill="#DC2F34" d="M29.484.02l-10.679 7.989h2.556l10.639-7.989zM32 23.979l-10.65-7.985h2.567l8.083 6.081zM10.702 8.009l-10.702-7.989v1.908l8.123 6.081zM10.68 15.994l-10.68 7.985h2.556l10.681-7.985zM0 10.167h32v3.833h-32zM14.166 0h3.833v24h-3.833z"/></svg>