<svg xmlns="http://www.w3.org/2000/svg" width="64" height="48"><path fill="#fff" d="M0 0h64v48h-64z"/><path fill="#008237" d="M64 0h-64v16h7.077s.924 0 .924 1.128h.82s-.209-1.128.718-1.128h5.846s.924 0 .924 1.128h.82s-.209-1.128.718-1.128h5.847s.923 0 .923 1.128h.82s-.209-1.128.718-1.128h5.847s.923 0 .923 1.128h.82s-.209-1.128.718-1.128h5.744s.923 0 .923 1.128h.821s-.21-1.128.718-1.128h5.846s.923 0 .923 1.128h.82s-.209-1.128.719-1.128h5.846s.923 0 .923 1.128h.82s-.209-1.128.719-1.128h4.715v-16z"/><path d="M9.539 32h5.846s.924 0 .924-1.128h.82s-.209 1.128.718 1.128m-.103 0h5.949s.923 0 .923-1.128h.82s-.209 1.128.718 1.128m-.102 0h5.949s.923 0 .923-1.128h.82s-.209 1.128.718 1.128m-.103 0h5.847s.923 0 .923-1.128h.821s-.21 1.128.718 1.128m-.104 0h5.949s.923 0 .923-1.128h.82s-.209 1.128.719 1.128m-.102 0h5.948s.923 0 .923-1.128h.82s-.209 1.128.719 1.128m-51.934 0c-.714 0-.553-1.128-.553-1.128h-.632c0 1.128-.712 1.128-.712 1.128h-5.452v16h64v-16h-5.688" fill="#E30613"/><path fill="#FFED00" d="M.404 37.925h-.404v-2.018h3.253l.912 1.514h2.012v-1.211h-1.317v.605h-.405v-1.008h2.126v2.017h-2.645l-.912-1.513h-2.62zM1.923 38.05c-.348 0-.631-.282-.631-.629 0-.348.283-.63.631-.63.35 0 .633.282.633.63 0 .347-.284.629-.633.629zm0-.856c-.125 0-.227.102-.227.227s.102.226.227.226c.126 0 .228-.101.228-.226s-.102-.227-.228-.227zM9.721 37.824h-1.62v-1.917h2.936v.404h-2.531v1.11h1.215zM15.089 37.824h-4.152v-2.824h.405v2.421h3.342v-2.421h.405zM12.759 35h.405v2.623h-.405zM0 35h10.228v.403h-10.228zM16.708 37.925h-.404v-2.018h3.254l.911 1.514h2.012v-1.211h-1.317v.605h-.404v-1.008h2.126v2.017h-2.647l-.911-1.513h-2.62zM18.227 38.05c-.348 0-.631-.282-.631-.629 0-.348.283-.63.631-.63.35 0 .633.282.633.63-.001.347-.284.629-.633.629zm0-.856c-.125 0-.227.102-.227.227s.102.226.227.226c.126 0 .228-.101.228-.226s-.102-.227-.228-.227zM26.024 37.824h-1.62v-1.917h2.938v.404h-2.532v1.11h1.214zM31.393 37.824h-4.153v-2.824h.406v2.421h3.341v-2.421h.406zM29.062 35h.406v2.623h-.406zM16.304 35h10.228v.403h-10.228zM33.013 37.925h-.406v-2.018h3.254l.911 1.514h2.013v-1.211h-1.316v.605h-.406v-1.008h2.126v2.017h-2.646l-.911-1.513h-2.619zM34.532 38.05c-.35 0-.633-.282-.633-.629 0-.348.283-.63.633-.63.348 0 .631.282.631.63 0 .347-.283.629-.631.629zm0-.856c-.126 0-.228.102-.228.227s.102.226.228.226c.124 0 .227-.101.227-.226s-.103-.227-.227-.227zM42.329 37.824h-1.62v-1.917h2.937v.404h-2.533v1.11h1.216zM47.696 37.824h-4.152v-2.824h.404v2.421h3.343v-2.421h.405zM45.367 35h.405v2.623h-.405zM32.607 35h10.229v.403h-10.229zM49.316 37.925h-.406v-2.018h3.255l.911 1.514h2.012v-1.211h-1.316v.605h-.405v-1.008h2.126v2.017h-2.645l-.912-1.513h-2.62zM50.835 38.05c-.349 0-.632-.282-.632-.629 0-.348.283-.63.632-.63.35 0 .633.282.633.63 0 .347-.283.629-.633.629zm0-.856c-.125 0-.228.102-.228.227s.103.226.228.226c.126 0 .227-.101.227-.226s-.101-.227-.227-.227zM58.633 37.824h-1.62v-1.917h2.935v.404h-2.53v1.11h1.215zM64 37.824h-4.152v-2.824h.405v2.421h3.342v-2.421h.405zM61.671 35h.404v2.623h-.404zM48.91 35h10.229v.403h-10.229z"/><path fill="#fff" d="M.404 12.875h-.404v-2.018h3.253l.912 1.514h2.012v-1.211h-1.317v.606h-.405v-1.009h2.126v2.017h-2.645l-.912-1.513h-2.62zM1.923 13c-.348 0-.632-.283-.632-.629 0-.347.284-.63.632-.63.35 0 .633.283.633.63 0 .346-.284.629-.633.629zm0-.856c-.125 0-.227.102-.227.227s.102.226.227.226c.126 0 .228-.102.228-.226-.001-.125-.102-.227-.228-.227zM9.721 12.774h-1.62v-1.917h2.937v.404h-2.532v1.11h1.215zM15.089 12.774h-4.153v-2.824h.406v2.421h3.341v-2.421h.406zM12.759 9.95h.405v2.622h-.405zM0 9.95h10.228v.403h-10.228zM16.708 12.875h-.404v-2.018h3.254l.911 1.514h2.011v-1.211h-1.316v.606h-.404v-1.009h2.126v2.017h-2.647l-.911-1.513h-2.62zM18.227 13c-.348 0-.631-.283-.631-.629 0-.347.283-.63.631-.63.35 0 .633.283.633.63-.001.346-.284.629-.633.629zm0-.856c-.125 0-.227.102-.227.227s.102.226.227.226c.126 0 .228-.102.228-.226-.001-.125-.102-.227-.228-.227zM26.024 12.774h-1.62v-1.917h2.938v.404h-2.532v1.11h1.214zM31.393 12.774h-4.153v-2.824h.406v2.421h3.341v-2.421h.406zM29.062 9.95h.405v2.622h-.405zM16.304 9.95h10.228v.403h-10.228zM33.013 12.875h-.406v-2.018h3.254l.911 1.514h2.013v-1.211h-1.317v.606h-.405v-1.009h2.126v2.017h-2.645l-.912-1.513h-2.619zM34.532 13c-.35 0-.633-.283-.633-.629 0-.347.283-.63.633-.63.348 0 .632.283.632.63 0 .346-.284.629-.632.629zm0-.856c-.126 0-.228.102-.228.227s.102.226.228.226c.124 0 .227-.102.227-.226 0-.125-.103-.227-.227-.227zM42.329 12.774h-1.619v-1.917h2.936v.404h-2.532v1.11h1.215zM47.696 12.774h-4.152v-2.824h.404v2.421h3.343v-2.421h.405zM45.367 9.95h.405v2.622h-.405zM32.607 9.95h10.229v.403h-10.229zM49.316 12.875h-.406v-2.018h3.255l.912 1.514h2.011v-1.211h-1.316v.606h-.405v-1.009h2.126v2.017h-2.645l-.912-1.513h-2.62zM50.835 13c-.348 0-.632-.283-.632-.629 0-.347.284-.63.632-.63.349 0 .633.283.633.63 0 .346-.284.629-.633.629zm0-.856c-.125 0-.228.102-.228.227s.103.226.228.226c.126 0 .228-.102.228-.226-.001-.125-.102-.227-.228-.227zM58.633 12.774h-1.62v-1.917h2.935v.404h-2.53v1.11h1.215zM64 12.774h-4.152v-2.824h.405v2.421h3.342v-2.421h.405zM61.671 9.95h.404v2.622h-.404zM48.91 9.95h10.229v.403h-10.229z"/><path fill="#E30613" d="M33.432 17.423c-1.078 2.223-2.248 2.111-3.215.002 1.075 1.307 2.172 1.101 3.215-.002zm.82 12.499c-5.371-.168-9.45-5.107-4.216-10.796-3.728 6.411.797 9.294 4.216 10.796zm-5.115-.896c-4.811-1.916-6.147-7.536.983-9.923-6.064 3.416-3.464 7.689-.983 9.923zm.611.896c5.371-.168 9.45-5.107 4.217-10.796 3.728 6.411-.797 9.294-4.217 10.796zm5.116-.896c4.811-1.916 6.146-7.536-.984-9.923 6.065 3.416 3.464 7.689.984 9.923zm-2.839.512c.298 0 .539-.241.539-.538v-8.616c-.667.01-.293-2.384-.487-1.564h-.205c-.092-.051.23 1.523-.385 1.564v8.616c0 .297.242.538.538.538zm0-5.667"/><path fill="#E30613" d="M31.487 28.975l1.025.102-.153 1.026c-.052.41-.667.461-.719.051l-.153-1.179z"/></svg>