<svg xmlns="http://www.w3.org/2000/svg" width="64" height="48"><path fill="#fff" d="M0 0h64v48h-64z"/><path fill="#E40520" d="M36.193 23.998l27.807 20.857v3.145h-4.186l-27.811-20.856-27.81 20.856h-4.193v-3.146l27.811-20.856-27.811-20.854v-3.144h4.191l27.812 20.855 27.808-20.855h4.189v3.143zM35.575 6.281c.624 2.525.536 5.35-.815 7.633-.396.669-2.196 3.137-3.017 2.595-1.233-.816-2.236-1.943-2.861-3.286-.541-1.161-.793-2.439-.822-3.716-.019-.833-.135-3.006.691-3.443 1.834-.97 5.103-.994 6.824.217.88 3.558-1.956-1.376 0 0z"/><path fill="#FFED00" d="M31.997 5.566c1.217 0 2.562.229 3.609.884.155-1.212.668-2.388 1.37-3.381-.455-.01-.988.2-.999.728-.139-.394-.777-.54-1.048-.192 1.039.702-.53 1.87-.987.811-.103-.238.648-.706.039-.935-.442-.166-.705.518-.262.688-.387.633-1.38.457-1.38-.329 0-.409.462-1.006.928-.728-.012-.406-.757-.972-1.042-.485.294-.526.216-1.209-.228-1.627-.444.418-.522 1.101-.229 1.627-.285-.486-1.03.078-1.041.485.465-.279.927.32.927.728 0 .787-.993.961-1.38.329.443-.17.181-.854-.262-.688-.61.229.142.696.04.935-.457 1.06-2.026-.109-.987-.811-.27-.347-.909-.202-1.048.192-.01-.528-.544-.737-.999-.728.702.993 1.214 2.169 1.37 3.381 1.047-.655 2.392-.884 3.609-.884zm-2.913 2.18c-.078-.043-.155-.046-.231-.008l.487.314-.188-.017c.092.073.711.266.71.263-.042.045-.093.051-.154.018.154.16.379.041.523.255.037-.226-.307-.44-.142-.67-.345-.015-.728-.352-.907-.637-.011-.017-.403-1.022-.539-.594l.209.271c-.312-.372-.249.158-.032.341-.032-.037-.47-.214-.333.003.054.083.5.42.597.461zm3.643 1.294l-.146.138c.172.01.324-.037.456-.143-.308.183.574.092.638.041.192-.158-.139-.783-.281-.881-.241-.167-.688-.206-.898.042-.31.366.698.376.732.486.058.185-.663.103-.722.085-.362-.108-.546.088-.218.077-.129-.04-.217-.003-.264.111.052.211.221-.053.309.044-.077-.013-.131.014-.164.083-.01.196.537-.083.558-.083zm2.29.016l-.134.134c.174.014.311-.047.408-.184l-.023.154c.159-.047.222-.146.188-.297.051.049.11.079.18.088-.141-.11-.044-.308-.222-.41.098.013.17.063.218.151-.005-.173-.076-.312-.214-.415.047.027.095.027.143 0-.166-.104-.045-.38-.288-.318-.379.092-.949.104-1.281-.126.372.154 1.138-.303.708-.693-.45-.408-1.372-.006-1.91-.026-.375-.014-1.053-.337-.315-.458.626-.102 1.146.087 1.777-.137-.489.191-1.039-.098-1.539-.09-.281.004-1.25.311-.689.722.438.321 1.263.144 1.75.072.645-.095 1.106.31.23.337-.63.02-1.301.147-1.92.128-.277-.008-.565.063-.839.01-.311-.061-.455-.425-.703-.273-.16.098-.419.228-.486.422-.125.234.302.737.022.759-.301.024-.714.034-.935-.217-.07-.079-.697-.319-.543-.085.027.042.251.064.3.085-.04-.017-.412-.035-.29.136l.377.054c-.17-.05-.25-.013-.24.112.204.309.537-.182.275.218.167.015.333.039.498.071-.087.027-.151.08-.193.159.149-.17.868.15.888-.184-.109.227-.072.282.111.167.154-.031.272-.115.354-.25.016.073-.004.132-.062.176.252.081.415-.393.605-.459.239-.083.553-.207.821-.195.249.011.493-.084.74-.088.335-.005.517.055.869.102.377.051.734-.087 1.104-.059.235.018.503.449.169.469-.098.006-.508-.159-.541.021-.029.161.021.316.25.21-.108.029-.153.095-.135.199.117.173.354-.216.517-.192zm-5.156-2.21c-.088-.067-.177-.08-.268-.038-.051.1.077.315.145.379-.005-.13.036-.244.123-.341-.234-.096-.092.043 0 0zm.733 0c.088-.067.178-.08.269-.038.051.1-.077.316-.146.379.005-.13-.036-.244-.123-.341.235-.096.092.043 0 0zm-.366-.129c.78 0 .496 1.161 0 1.161s-.779-1.161 0-1.161zm-.944 4.09c-.07-.038-.14-.041-.209-.006l.439.281-.17-.015c.084.066.64.238.64.237-.037.041-.083.046-.139.016.139.143.342.036.471.229.09-.543-.384-.587-.655-.886-.099-.108-.693-1.083-.773-.825l.188.244c-.273-.325-.242.127-.028.307-.027-.03-.424-.195-.3.002.047.077.452.38.536.416zm3.278 1.165l-.132.125c.155.009.292-.033.411-.128-.278.163.517.083.573.037.175-.143-.124-.704-.253-.793-.217-.149-.619-.186-.808.038-.279.33.627.338.659.437.08.252-.976-.042-1.011.003-.047.127.008.175.166.144-.117-.037-.196-.003-.237.1.047.19.2-.048.279.04-.069-.012-.119.013-.148.074-.012.174.486-.077.501-.077zm2.061.015l-.12.121c.156.012.279-.043.367-.167l-.021.14c.143-.043.199-.132.17-.268l.162.079c-.127-.098-.041-.277-.2-.369.088.012.153.057.196.136-.004-.156-.068-.28-.192-.373h.129c-.152-.094-.039-.341-.261-.286-.34.083-.854.093-1.152-.114.338.141 1.021-.274.637-.623-.403-.368-1.234-.006-1.718-.024-.479-.018-.888-.362-.172-.425.539-.047.95.082 1.487-.109-.526.203-1.722-.465-2.085.18-.472.838 2.122.332 2.312.487.319.26-.884.242-.946.24-.522-.018-1.178.074-1.692.162-.365.062-.723-.379-.927-.255-.144.088-.376.205-.438.379-.128.241.221.507.133.644-.095.147-.649.023-.759-.022.007.003-.87-.492-.683-.209.024.037.227.058.271.077-.036-.016-.372-.033-.262.122l.339.048c-.152-.045-.223-.011-.215.101.182.277.487-.162.248.196l.448.064c-.078.024-.135.072-.173.143.134-.153.78.136.799-.166-.098.204-.064.254.1.15.139-.028.245-.103.318-.225.015.065-.004.118-.056.158.225.074.375-.354.544-.413.212-.074.501-.186.739-.176.513.021.854-.101 1.359-.002.043.008 1.853-.034 1.324.358-.123.091-.542-.146-.577.044-.026.146.021.286.227.188-.098.026-.139.086-.123.18.104.157.315-.193.463-.171zm-4.64-1.989c-.079-.06-.16-.072-.242-.034-.008.128.035.242.13.341-.003-.117.034-.22.112-.307-.211-.086-.083.038 0 0zm.66 0c.079-.06.16-.072.241-.034.008.128-.036.242-.13.341.004-.117-.033-.22-.111-.307.21-.086.083.038 0 0zm-.329-.116c.701 0 .446 1.044 0 1.044-.447 0-.703-1.044 0-1.044zm-.323 3.613c-.053-.032-.104-.033-.155-.005.095.094.204.17.325.229-.415-.121.547.345.246.193.13.036.246.098.349.186.062-.42-.264-.451-.454-.682-.073-.087-.544-.915-.604-.708l.139.199c-.05-.077-.113-.096-.189-.057-.033.038.146.286.168.306-.06-.102-.133-.123-.218-.062-.029.035.341.376.393.401zm2.425.944l-.098.102c.117.006.218-.028.304-.104-.241.154.396.055.424.03.146-.133-.077-.339-.062-.51-.147-.216-.485-.327-.698-.131-.26.241.359.319.444.364.121.064-.774.082-.73.021-.037.098.004.137.122.117-.089-.027-.148 0-.175.081.035.155.147-.039.207.033-.053-.009-.09.011-.109.061-.009.141.357-.063.371-.064zm1.524.013l-.09.098c.12.009.211-.036.271-.135l-.015.114c.312-.119-.07-.201.245-.153-.032-.108-.082-.208-.147-.3.066.011.115.048.145.11-.018-.123-.082-.504-.151-.539-.271-.134-.626.149-.94-.089.355.161.794-.379.371-.575-.401-.186-.942.11-1.381.026-.494-.094-.044-.329.21-.329.367 0 .61.059.973-.083-.301.129-1.564-.374-1.572.269-.011.722 1.772-.064 1.772.35 0 .185-1.752.207-1.985.25-.346.064-.486-.343-.727-.178-.475.324-.021.525-.184.802-.052.089-.463.016-.475.013.048.012-.743-.449-.592-.201l.2.062c-.039-.019-.271-.021-.193.099l.25.039c-.115-.031-.168-.004-.16.082.132.221.356-.124.183.16l.332.052c-.06.021-.102.06-.128.116.1-.126.577.109.591-.135.042.132.183.268.309-.061.019.157.049.201.204-.049.169-.283.316-.106.535-.256.245-.172.852-.138 1.092-.067.075.022 1.461-.018 1.062.312-.095.078-.4-.119-.427.036-.017.098-.013.247.167.153-.074.024-.104.073-.09.146.081.127.233-.157.345-.139zm-3.433-1.615l-.159-.045c-.036.108-.01.206.076.294-.003-.093.025-.176.083-.249-.156-.071-.061.03 0 0zm.488 0l.159-.045c.035.108.009.206-.076.294.004-.093-.024-.176-.083-.249.157-.071.062.03 0 0zm-.243-.094c.532 0 .323.849 0 .849-.324-.001-.532-.849 0-.849z"/><path d="M33.038 8.223c-.13-.047-.25-.077-.404-.045m-1.566-.017c-.107.231-.042.345-.026.452m-1.118-1.548c.08-.019.155-.004.224.043-.047.028-.097.031-.15.007m.529-.05c-.08-.019-.155-.004-.225.043.047.028.097.031.15.007m-.15-.006c-.083.071.161.348-.078.348s.008-.277-.077-.348" fill="none"/><path fill="#E40520" d="M30.227 7.805c.144 0 .262-.226.22-.373.034.137-.473.137-.439 0-.043.147.075.373.219.373z"/><g fill="none"><path d="M30.121 7.466l-.287-.08M30.121 7.481l-.32-.002M30.123 7.497l-.273.074M30.334 7.466l.287-.08M30.334 7.481l.32-.002M30.332 7.497l.272.074"/></g><path d="M32.842 11.236c-.118-.042-.225-.069-.363-.041m-1.409-.014c-.097.207-.039.31-.024.407m-1.006-1.393c.072-.018.139-.004.202.039l-.135.007m.475-.046c-.072-.018-.139-.004-.201.039l.134.007m-.134-.007c-.077.063.144.313-.07.313-.216 0 .007-.25-.069-.313" fill="none"/><path fill="#E40520" d="M30.313 10.86c.128 0 .236-.204.197-.335.031.123-.426.123-.396 0-.037.133.07.335.199.335z"/><g fill="none"><path d="M30.216 10.555l-.257-.072M30.216 10.569l-.287-.003M30.219 10.583l-.245.067M30.409 10.555l.258-.072M30.409 10.569l.288-.003M30.407 10.583l.244.067"/></g><path d="M32.623 13.843c-.086-.035-.166-.056-.268-.034m-1.043-.012c-.072.169-.028.252-.018.331m-.744-1.131l.049.038m.351-.038l-.049.038m-.099-.006c-.056.051.107.255-.051.255-.163 0 .004-.203-.052-.255" fill="none"/><path fill="#E40520" d="M30.751 13.537c.104 0 .173-.17.147-.271.021.095-.315.094-.293 0-.026.099.044.271.146.271z"/><g fill="none"><path d="M30.68 13.29l-.191-.059M30.68 13.301l-.213-.002M30.682 13.313l-.182.053M30.823 13.29l.19-.059M30.823 13.301l.213-.002M30.82 13.313l.182.053"/></g><path d="M28.744 6.609c-.087-.108-.292-.014-.295.113.02-.025.426.05.295-.113zm-.108.246c-.087-.109-.291-.013-.296.113.021-.025.428.05.296-.113zm-.053.33c-.099-.098-.292.02-.282.146.019-.029.429.003.282-.146zm.098 1.021c-.11-.086-.287.054-.263.177.016-.029.428-.046.263-.177zm-.005.224c-.131-.048-.258.139-.196.25.005-.032.393-.179.196-.25zm.16.167c-.13-.048-.257.138-.196.249.005-.031.393-.177.196-.249zm3.269.324c-.131-.048-.258.138-.196.249.006-.031.393-.177.196-.249zm.169.152c-.136-.033-.241.166-.167.269.002-.033.37-.218.167-.269zm-.119-.366c-.121-.071-.276.093-.235.212.011-.03.418-.109.235-.212zm2.326.261c-.136-.033-.24.167-.166.269.002-.033.369-.217.166-.269zm.004-.205c-.123-.065-.273.103-.228.22.011-.032.413-.121.228-.22zm.091.389c-.137-.028-.232.177-.154.276 0-.033.359-.235.154-.276zm-4.339-1.447c.201 0 .167.62.01.62-.126-.001-.196-.62-.01-.62zm-1.259 2.08c-.127-.07-.216-.037-.267.101.018-.021.385.044.267-.101zm-.097.22c-.127-.069-.216-.036-.267.101.019-.022.385.047.267-.101zm-.049.297c-.134-.055-.219-.011-.254.13.016-.023.387.003.254-.13zm.089.92c-.099-.077-.258.048-.236.159.013-.026.384-.043.236-.159zm-.005.201c-.118-.043-.231.125-.176.224.005-.029.353-.158.176-.224zm.145.15c-.118-.042-.231.125-.176.225.004-.029.353-.159.176-.225zm2.942.293c-.117-.044-.232.124-.176.223.004-.026.353-.162.176-.223zm.151.136c-.143.022-.193.103-.149.242.001-.028.333-.199.149-.242zm-.106-.33c-.109-.063-.25.082-.212.19.009-.023.375-.094.212-.19zm2.094.236c-.144.022-.193.103-.149.243 0-.031.331-.198.149-.243zm.003-.185c-.111-.059-.245.093-.205.198.008-.028.372-.109.205-.198zm.082.35c-.142.028-.188.111-.14.249 0-.03.325-.212.14-.249zm-3.906-1.303c.182 0 .151.558.01.558-.115 0-.175-.558-.01-.558zm-.557 1.894c-.098-.055-.163-.028-.197.082.016-.021.29.047.197-.082zm-.072.179c-.098-.055-.163-.027-.197.083.018-.024.291.05.197-.083zm-.037.241c-.104-.042-.166-.007-.187.106.013-.021.295.008.187-.106zm.066.747c-.107-.029-.166.014-.174.129.011-.023.292-.028.174-.129zm-.003.163c-.111.009-.154.07-.131.182.004-.024.27-.124.131-.182zm.107.123c-.111.009-.154.069-.131.182.004-.025.268-.126.131-.182zm2.177.236c-.111.009-.154.07-.13.182.003-.027.268-.123.13-.182zm.112.111c-.109.022-.146.087-.111.196.001-.019.251-.16.111-.196zm-.079-.267c-.111-.012-.163.04-.157.155.008-.024.285-.075.157-.155zm1.549.191c-.109.022-.146.088-.111.197.001-.023.254-.158.111-.197zm.002-.15c-.11-.008-.161.045-.151.16.005-.021.283-.088.151-.16zm.06.284c-.107.028-.142.095-.103.202.001-.021.245-.172.103-.202zm-2.888-1.058c.136 0 .125.454.007.454-.095-.001-.124-.454-.007-.454z" fill="#0062AE"/></svg>