<svg xmlns="http://www.w3.org/2000/svg" width="64" height="48"><path fill="#095F2C" d="M0 0h64v48h-64z"/><g fill="#fff"><path d="M56.251 8.426c.614 2.687-.134 5.624-2.231 7.722-3.237 3.238-8.476 3.248-11.7.023-3.225-3.224-3.214-8.462.024-11.7 2.098-2.098 5.036-2.845 7.721-2.231-1.659-.029-3.331.589-4.601 1.858-2.476 2.476-2.483 6.481-.018 8.946 2.465 2.465 6.47 2.458 8.945-.019 1.271-1.267 1.887-2.939 1.86-4.599zM48.748 4.283l.474 2.911-2.646 1.365 2.945.444.454 2.92 1.334-2.647 2.921.451-2.103-2.094 1.358-2.625-2.636 1.36z"/></g><path fill="#F49700" d="M0 0h32v18h-32z"/><path fill="#fff" d="M0 21h64v3h-64zM0 28h64v3h-64zM0 35h64v3h-64zM0 42h64v3h-64z"/></svg>