<svg xmlns="http://www.w3.org/2000/svg" width="64" height="48" viewBox="0 0 64 48"><path fill="#fff" d="M-1.5-2.5h64v48h-64z"/><path d="M-1.5-2.5h64v14.4h-64zM-1.5 14.3h64v14.4h-64z"/><path fill="#060" d="M-1.5 31.1h64v14.4h-64z"/><path d="M38.271 10.052c1.247-2.16 1.794-4.092 2.032-5.332l.058-.3-.231.2c-.955.827-2.355 2.266-3.601 4.426-.446.772-.906 1.57-.702 2.416l-5.327 9.226-5.327-9.227c.204-.846-.256-1.644-.702-2.416-1.247-2.159-2.646-3.599-3.601-4.426l-.231-.2.058.3c.239 1.24.785 3.172 2.032 5.332.446.772.906 1.57 1.741 1.816l5.562 9.633-8.197 14.197-.053.091.703.406 8.015-13.883 7.963 13.792.053.091.703-.406-8.251-14.288 5.561-9.633c.836-.246 1.296-1.043 1.742-1.815zm-13.639 1.672l-.022-.038-.042-.011c-.777-.208-1.204-.947-1.656-1.729-1.133-1.962-1.68-3.733-1.945-4.957.928.841 2.188 2.201 3.321 4.162.451.782.878 1.521.67 2.298l-.011.042 5.431 9.408-.224.389-5.522-9.564zm5.868 9.387l.224.389-.224.389-.224-.389.224-.389zm-8.093 14.795l-.337-.194 8.083-14 .224.389-7.97 13.805zm16.522-.195l-.337.194-7.97-13.805.224-.389 8.083 14zm-2.539-24.025l-5.544 9.602-.224-.388 5.41-9.37.022-.038-.011-.042c-.208-.778.218-1.516.67-2.298 1.133-1.962 2.392-3.322 3.321-4.162-.264 1.224-.812 2.994-1.945 4.957-.452.782-.878 1.521-1.656 1.729l-.043.01z"/><path fill="#fff" d="M36.46 11.777c.82-.22 1.27-.999 1.72-1.778.3-.52 1.5-2.598 2.02-5.299-2.079 1.801-3.279 3.879-3.579 4.399-.45.779-.9 1.559-.68 2.378l-5.441 9.423-5.44-9.423c.22-.82-.23-1.599-.68-2.378-.3-.52-1.5-2.598-3.579-4.399.52 2.701 1.72 4.779 2.02 5.299.45.779.9 1.559 1.72 1.778l5.613 9.723-8.227 14.25.52.3 8.053-13.95 8.054 13.95.52-.3-8.228-14.25 5.614-9.723z"/><path fill="#b00" d="M24.8 14.3h-26.3v14.4h26.3c-.9-2.4-1.5-4.8-1.5-7.2s.6-4.8 1.5-7.2zM36.2 14.3c-.9-2.4-3.9-7.2-5.7-7.2s-4.8 4.8-5.7 7.2c.9 2.4 1.5 4.8 1.5 7.2s-.6 4.8-1.5 7.2c.9 2.4 3.9 7.2 5.7 7.2 1.8 0 4.8-4.8 5.7-7.2-.9-2.4-1.5-4.8-1.5-7.2s.6-4.8 1.5-7.2zM36.2 14.3c.9 2.4 1.5 4.8 1.5 7.2s-.6 4.8-1.5 7.2h26.3v-14.4h-26.3z"/><path fill="#fff" d="M31.7 21.5c0-.809-.359-1.486-.849-1.712.229-.518 1.149-2.81 1.149-6.265 0-3.948-1.2-6.377-1.2-6.377v12.619c-.096-.039-.196-.065-.3-.065s-.204.026-.3.064v-12.619s-1.2 2.429-1.2 6.377c0 3.456.919 5.748 1.149 6.265-.49.227-.849.904-.849 1.713 0 .797.348 1.466.827 1.702-.258.599-1.127 2.869-1.127 6.255 0 3.974 1.2 6.419 1.2 6.419v-12.64c.096.037.196.064.3.064.104 0 .204-.026.3-.064v12.639s1.2-2.445 1.2-6.419c0-3.386-.869-5.656-1.127-6.255.479-.235.827-.904.827-1.701z"/></svg>