<svg xmlns="http://www.w3.org/2000/svg" width="64" height="48"><path fill="#E40520" d="M0 0h64v48h-64z"/><path fill="#FFE000" d="M32.727 14.733c.021-1.61 1.447-2.717 1.509-4.862 1.023 1.285-.668 3.694-.067 5.091.272-1.587 1.854-2.458 2.25-4.567.81 1.43-1.237 3.544-.863 5.018.518-1.524 2.216-2.137 2.938-4.158.576 1.538-1.777 3.306-1.638 4.82.749-1.425 2.523-1.764 3.551-3.647.329 1.609-2.271 2.988-2.371 4.505.964-1.29 2.769-1.348 4.078-3.047.073 1.642-2.711 2.596-3.047 4.079 1.153-1.124 2.945-.898 4.505-2.372-.185 1.633-3.084 2.14-3.647 3.552 1.314-.93 3.05-.427 4.82-1.638-.438 1.583-3.381 1.631-4.158 2.938 1.444-.712 3.078.056 5.018-.864-.68 1.496-3.595 1.082-4.566 2.251 1.537-.478 3.031.536 5.091-.068-.906 1.371-3.72.506-4.863 1.509 1.594-.231 2.911 1.004 5.039.729-1.109 1.213-3.753-.082-5.039.729 1.61.021 2.717 1.448 4.862 1.509-1.285 1.023-3.693-.668-5.091-.067 1.587.272 2.458 1.854 4.567 2.25-1.43.811-3.544-1.237-5.018-.863 1.524.518 2.137 2.216 4.158 2.938-1.538.576-3.307-1.777-4.821-1.638 1.426.75 1.765 2.523 3.648 3.552-1.609.328-2.987-2.272-4.505-2.372 1.29.964 1.348 2.769 3.047 4.078-1.641.073-2.596-2.711-4.079-3.046 1.124 1.152.898 2.944 2.372 4.504-1.632-.185-2.14-3.084-3.552-3.647.93 1.315.427 3.05 1.639 4.82-1.584-.438-1.631-3.381-2.938-4.158.712 1.444-.056 3.078.864 5.018-1.496-.68-1.082-3.595-2.251-4.566.478 1.538-.537 3.031.068 5.091-1.371-.906-.506-3.72-1.51-4.862.231 1.593-1.004 2.91-.729 5.038-1.212-1.108.082-3.753-.729-5.039-.021 1.61-1.447 2.718-1.508 4.862-1.024-1.284.668-3.693.067-5.09-.272 1.587-1.854 2.457-2.25 4.566-.811-1.43 1.237-3.544.862-5.018-.517 1.524-2.216 2.137-2.937 4.158-.577-1.538 1.776-3.307 1.638-4.82-.75 1.425-2.523 1.764-3.552 3.647-.329-1.609 2.272-2.987 2.371-4.505-.963 1.29-2.768 1.348-4.078 3.047-.073-1.641 2.712-2.596 3.047-4.078-1.153 1.123-2.944.897-4.505 2.371.185-1.632 3.085-2.139 3.647-3.552-1.314.93-3.049.427-4.82 1.639.438-1.584 3.381-1.631 4.158-2.938-1.443.713-3.078-.056-5.017.864.68-1.495 3.594-1.082 4.566-2.251-1.538.478-3.032-.537-5.091.068.905-1.371 3.72-.506 4.862-1.509-1.594.231-2.91-1.005-5.038-.729 1.108-1.212 3.753.082 5.038-.729-1.609-.021-2.717-1.447-4.862-1.508 1.285-1.024 3.694.668 5.091.067-1.587-.272-2.457-1.855-4.566-2.25 1.429-.81 3.544 1.238 5.018.863-1.525-.517-2.138-2.216-4.159-2.937 1.539-.577 3.307 1.777 4.821 1.637-1.425-.75-1.765-2.523-3.648-3.551 1.61-.329 2.988 2.272 4.506 2.371-1.29-.963-1.348-2.768-3.048-4.078 1.642-.073 2.596 2.711 4.079 3.047-1.124-1.153-.898-2.945-2.372-4.505 1.633.185 2.14 3.084 3.552 3.647-.929-1.314-.426-3.049-1.638-4.82 1.584.438 1.631 3.381 2.938 4.158-.712-1.444.056-3.078-.863-5.017 1.495.68 1.081 3.594 2.251 4.566-.478-1.538.536-3.032-.068-5.09 1.37.906.506 3.719 1.509 4.862-.231-1.593 1.004-2.91.729-5.039 1.211 1.107-.084 3.751.728 5.036z"/><circle fill="#E40520" cx="32" cy="24" r="7.559"/><path d="M31.998 17.408c1.929 0 3.662.826 4.868 2.146-1.892.19-3.499.636-4.868 1.317-1.369-.681-2.976-1.126-4.867-1.317 1.205-1.321 2.938-2.146 4.867-2.146zm-.498 3.732l-.446.265c-1.229-.653-2.7-1.074-4.447-1.198l.249-.33c1.816.16 3.349.595 4.644 1.263zm.999 0l.446.265c1.229-.653 2.7-1.074 4.447-1.198l-.249-.33c-1.816.16-3.349.595-4.644 1.263zm-6.115-.595l-.199.346c1.627.038 2.993.413 4.113 1.032l.359-.258c-1.172-.638-2.588-1.037-4.273-1.12zm-.084 6.769c-.567-.975-.893-2.106-.893-3.314 0-.986.214-1.917.6-2.754 1.574-.011 2.893.333 3.968.931-1.594 1.304-2.771 3.042-3.675 5.137zm3.325 2.837c-.296-.114-.582-.249-.855-.403.156-2.477.967-4.837 2.581-6.549l.346.358c-1.504 1.756-2.154 4.17-2.072 6.594zm7.99-9.606l.2.346c-1.628.038-2.994.413-4.114 1.032l-.358-.258c1.171-.638 2.587-1.037 4.272-1.12zm.084 6.769c.567-.975.893-2.106.893-3.314 0-.986-.214-1.917-.6-2.754-1.574-.011-2.893.333-3.968.931 1.594 1.304 2.772 3.042 3.675 5.137zm-5.7-3.39c1.354 1.752 1.861 4.142 1.603 6.472-.513.128-1.05.197-1.603.197-.552 0-1.089-.069-1.602-.197-.258-2.331.249-4.72 1.602-6.472zm2.375 6.227c.296-.114.582-.249.855-.403-.156-2.477-.967-4.837-2.581-6.549l-.346.358c1.504 1.756 2.154 4.17 2.072 6.594zm-3.418-7.303c-.141-.116-.299-.237-.452-.343-1.672 1.482-2.773 3.494-3.471 5.83.258.296.542.566.849.812.431-2.457 1.398-4.68 3.074-6.299zm2.087 0c.141-.116.3-.237.452-.343 1.673 1.482 2.773 3.494 3.471 5.83-.258.296-.542.566-.849.812-.431-2.457-1.398-4.68-3.074-6.299zm-1.044-1.43l.44.276-.44.292-.44-.292.44-.276zm-.833.551l-.349.27c.162.106.379.271.448.325l.345-.288c-.113-.084-.357-.258-.444-.307zm1.667 0l.349.27c-.162.106-.379.271-.448.325l-.345-.288c.113-.084.357-.258.444-.307zm-.834.615l.343.309c-.102.089-.26.238-.343.331-.083-.093-.24-.242-.343-.331l.343-.309z" fill="#FFE000"/></svg>