<svg xmlns="http://www.w3.org/2000/svg" width="64" height="48"><path fill="none" d="M0 0h64v48h-64z"/><path fill="#007A4D" d="M64 0h-64v48z"/><path fill="#E40520" d="M0 48h64v-48z"/><path fill="#FFED00" d="M64 9.772l-50.796 38.228h-13.204v-9.873l51.025-38.127h12.975z"/><path d="M64 7.521l-53.857 40.479h-10.143v-7.599l54.013-40.401h9.987z"/><g fill="#fff"><path d="M17.177 29.185l1.076 3.738-3.253 2.185 3.927.139 1.049 3.753 1.334-3.666 3.898.151-3.083-2.424 1.369-3.641-3.241 2.178zM39.178 12l1.076 3.738-3.254 2.186 3.928.138 1.049 3.754 1.332-3.667 3.898.151-3.082-2.424 1.369-3.64-3.24 2.177z"/></g></svg>