<svg xmlns="http://www.w3.org/2000/svg" width="64" height="48"><path fill="#fff" d="M0 0h64v48h-64z"/><path fill="#0058A2" d="M42.052 30.537c-3.479 5.643-11.05 7.134-16.606 3.519-5.556-3.616-7.126-11.05-3.51-16.605-3.461 5.607 3.987 12.778 10.057 6.545 6.069-6.234 13.516.931 10.059 6.541z"/><path fill="#E40520" d="M21.933 17.454c3.478-5.643 11.05-7.134 16.606-3.519 5.556 3.616 7.126 11.049 3.511 16.605 3.461-5.607-3.988-12.778-10.058-6.545-6.069 6.234-13.516-.932-10.059-6.541z"/><path d="M46.68 34.401l1.664 1.11-3.053 4.576-1.664-1.11zM50.287 28.994l1.664 1.11-3.052 4.576-1.664-1.11zM49.175 36.066l1.664 1.11-3.053 4.576-1.664-1.11zM52.782 30.659l1.664 1.11-3.053 4.576-1.664-1.11zM51.67 37.731l1.664 1.11-3.053 4.576-1.664-1.11zM55.279 32.324l1.664 1.11-3.053 4.576-1.664-1.11zM13.691 4.583l1.664 1.11-6.66 9.984-1.664-1.11zM16.187 6.248l1.664 1.11-6.66 9.984-1.664-1.11zM18.682 7.912l1.664 1.11-6.66 9.984-1.664-1.11zM14.233 35.231l-1.664 1.11-3.053-4.577 1.664-1.11zM17.837 40.64l-1.664 1.11-3.053-4.576 1.664-1.11zM20.336 38.976l-1.664 1.11-6.661-9.985 1.664-1.11zM15.339 42.307l-1.664 1.11-6.66-9.984 1.664-1.11zM54.468 16.246l-1.664 1.11-6.66-9.984 1.664-1.11zM53.368 9.137l-1.665 1.109-3.047-4.576 1.665-1.109zM56.963 14.584l-1.664 1.11-3.053-4.576 1.664-1.11zM48.364 12.502l-1.664 1.11-3.053-4.576 1.664-1.11zM51.968 17.911l-1.664 1.11-3.052-4.576 1.664-1.11z"/></svg>