<svg xmlns="http://www.w3.org/2000/svg" width="64" height="48"><path fill="#262D62" d="M0 0h64v48h-64z"/><path fill="#fff" d="M32 .02h-3.9l-8.1 5.98v-6h-7.969l-.031 6-8.133-5.98h-3.867v2.913l6.759 5.071h-6.759v7.99h6.759l-6.759 5.071v2.914h3.867l8.133-5.979v6h8v-6l8.1 5.979h3.9v-2.914l-6.792-5.071h6.792v-7.99h-6.792l6.792-5.071z"/><path fill="#DC2F34" d="M29.522 0l-10.522 9h2.519l10.481-9zM32 24l-12-9h2.893l9.107 6.854zM12 9l-12-9v2.149l9.109 6.851zM10.489 15l-10.489 9h2.51l10.49-9zM14 0h4v24h-4zM0 10.031h32v3.969h-32z"/><g fill="#fff" stroke="#000" stroke-width=".125"><circle cx="47.438" cy="28.562" r="11.438"/><path d="M47.438 28.562"/></g><path fill="#FFEC96" stroke="#000" stroke-width=".125" d="M39.566 36.037c.171.404 1.288.937 2.572.235.874-.478 1.446-1.177 2.003-2.416.136-.303.213-.697-.143-.938-.294-.199-.756-.445-.963-.645-.1-.096-.192-.185-.287-.247l.169.16c.513.629-.036 1.535-.589 2.066-.412.397-1.185 1.346-2.272.445-.23-.189-.757.653-.49 1.34zm15.744 0c-.171.404-1.288.937-2.572.235-.874-.478-1.447-1.177-2.003-2.416-.137-.303-.213-.697.143-.938.294-.199.755-.445.962-.645.101-.096.193-.185.288-.247l-.169.16c-.514.629.036 1.535.589 2.066.412.397 1.184 1.346 2.272.445.23-.189.756.653.49 1.34zm-7.872 2.207c2.065 0 5.267-.923 6.976-4.182.285-.542 0-.842-.342-1.001-.361-.167-.812-.527-1.035-.767.396.407.333.708.049 1.18-1.318 2.194-3.131 3.307-5.647 3.307-2.519 0-4.33-1.112-5.649-3.307-.283-.472-.347-.772.05-1.18-.224.239-.674.6-1.035.767-.342.159-.627.459-.342 1.001 1.708 3.259 4.909 4.182 6.975 4.182z"/><path d="M42.663 33.873c-.047-.246-.391-.162-.503.163-.127-.18-.252-.362-.371-.562-.293-.488-.346-.795.096-1.227.198-.195.614-.442.905-.188.58.51.286 1.312-.127 1.814zm9.55 0c.047-.246.391-.162.502.163.128-.18.252-.362.371-.562.294-.488.347-.795-.095-1.227-.198-.195-.614-.442-.906-.188-.58.51-.286 1.312.128 1.814zm-12.647 2.164c-.238-.397-.448-1.401-.511-1.656-.063-.254-.112-.46.174-.556s.558.254.684.571c.128.319.334.779.573 1.336-.577-.333-1.029-.095-.92.305zm15.744 0c.238-.397.447-1.401.511-1.656.063-.254.111-.46-.175-.556s-.557.254-.683.571c-.128.319-.335.779-.573 1.336.576-.333 1.029-.095.92.305z" fill="#DC2F34" stroke="#000" stroke-width=".125"/><path fill="#fff" stroke="#000" stroke-width=".125" d="M52.29 24.32v5.055c0 4.386-2.088 5.88-4.853 7.057-2.766-1.177-4.854-2.671-4.854-7.057v-5.055h9.707z"/><path fill="#DC2F34" stroke="#000" stroke-width=".125" d="M47.432 28.611c.254 0 .61-.217.906-.524.349-.366.906-.492 1.51 0 .604.493.954.286 1.272 0 .317-.286.571-.382 1.159-.382v-3.385h-9.695v3.385c.588 0 .842.096 1.16.382s.668.493 1.271 0c.604-.492 1.161-.366 1.511 0 .295.308.652.524.906.524z"/><path d="M47.438 31.194c.325 0 .928-.335 1.095-.429.568-.325.978-.024 1.327.135.351.158 1.033.333 1.446 0 .414-.335.636-.318.927-.317.039-.377.059-.779.059-1.208v-.303c-.373-.079-.556.031-.938.366-.381.334-.842.254-1.398.031s-1.077-.631-1.63 0c-.166.19-.515.461-.888.461-.374 0-.721-.271-.888-.461-.552-.631-1.072-.223-1.63 0-.556.223-1.017.303-1.398-.031-.381-.335-.563-.445-.938-.366v.303c0 .429.021.831.06 1.208.29-.001.513-.018.926.317.414.333 1.097.158 1.446 0 .35-.159.759-.46 1.327-.135.168.094.768.429 1.095.429zm0 1.105c.39 0 .856-.159 1.269-.389.513-.286.883-.144 1.407.11s.986.176 1.28-.016c.16-.104.294-.311.631-.214-.16.646-.391 1.199-.68 1.683-.517.113-.803.113-1.343-.126-.541-.238-1.225-.396-1.574-.175-.349.223-.704.318-.99.318s-.642-.096-.991-.318c-.35-.222-1.033-.063-1.574.175-.539.239-.825.239-1.342.126-.289-.483-.52-1.037-.681-1.683.338-.097.472.11.632.214.294.191.756.27 1.28.016s.895-.396 1.407-.11c.412.23.879.389 1.269.389zm0 4.133c1.044-.444 1.992-.935 2.768-1.607-.203-.062-.338-.014-.521-.148-.184-.136-.716-.168-1.192.07-.478.239-.689.287-1.055.287s-.577-.048-1.055-.287c-.478-.238-1.009-.206-1.192-.07-.183.135-.318.087-.521.148.775.672 1.723 1.162 2.768 1.607z" fill="#76B1E1" stroke="#000" stroke-width=".125"/><g stroke="#000" stroke-width=".125"><path d="M45.453 24.304c-.34.081-.572.104-.875-.183-.224-.213-.159-.574.057-.707.229-.144.429-.254.707-.176.295.085 1.033.791.851.799-.184.009-.454.199-.74.267zm.811-1.24c.087-.087.223-.119.549-.151.325-.032.543-.025.627.19.112.286.19.636.397.787-.144.088-.795.167-1.009.031-.309-.157-.39-.745-.564-.857zm2.215.023c.102-.071.239-.08.565-.054.327.025.472.064.538.286.081.272.008.588.162.826-.155.062-.671.056-.858-.115-.278-.211-.254-.803-.407-.943z" fill="#fff"/><path d="M50.041 23.254c-.253-.074-.401-.078-.507-.016.144.15.018.771.28 1 .2.121.652.146.765-.133.111-.278.117-.656-.538-.851zm-2.688-.269c.095-.08.232-.099.56-.101.328-.002.547.042.631.257.104.265.097.591.271.813-.071.079-.776.091-.978-.063-.294-.186-.32-.78-.484-.906zm-2.195.23c.017-.119.192-.151.652-.191.461-.039.504-.008.644.326.069.166.194.502.386.58-.568.136-.738.214-1.053.041-.231-.127-.496-.449-.549-.581-.032-.079-.019-.152-.08-.175z" fill="#003671"/></g><g stroke="#000" stroke-width=".125"><path d="M46.415 20.584c-.558-.429-1.209-.795-1.78-.89.381.238 1.462 1.097 1.748 1.383m.334-.874c-.636-.445-1.399-.938-2.114-.985.525.27 1.335.938 1.78 1.495m1.161-1.257c.365-.779.763-1.224 1.271-1.717-.27.524-.556 1.637-.683 2.098m-.017-.492c.271-.572.651-1.065 1.319-1.367-.334.318-.842 1.335-.985 1.875m-.095 0c.303-.429.922-1.271 2.051-1.716-.652.651-1.622 1.86-1.859 2.321m.157-.033c.461-.254 1.415-.684 2.083-.54-.43.159-1.67.715-2.193 1.239m.015-.89c.429-.46 1.239-1.16 2.082-1.43-.604.588-1.924 1.939-2.113 2.146m-1.224-.985c-.286-.954-.764-1.876-1.463-2.146.382.572.875 1.398 1.129 2.623m-.239-.509c-.541-.62-1.24-1.24-2.019-1.383.524.334 1.431 1.224 1.765 2.114m.54-.747c-.668-1.176-1.145-1.383-1.431-1.622.238.445.795 1.622 1.129 2.114" fill="#FFD851"/><path d="M45.755 19.822c.318.198.779.636.938.906m-.938-.366c.167.135.438.302.708.532m2.376-.127c.254-.207.826-.556 1.104-.66m-1.287.461c.263-.318.786-.803.961-.938m-.237-.643c-.231.254-.764.89-.979 1.208m.31-1.462c-.19.246-.548.922-.651 1.136m-1.408-1.073c.176.405.462 1.113.55 1.406m-.779-.969c.111.159.325.508.405.771" fill="none"/></g><g stroke="#000" stroke-width=".125"><path d="M47.301 19.106c0-.247.163-.485.321-.485.172 0 .307.293.307.485 0 .214-.159.389-.307.389-.153.001-.321-.159-.321-.389zm-.321.201c.033-.244.214-.46.356-.44.154.021.237.328.211.519-.029.212-.198.366-.33.347-.138-.019-.269-.197-.237-.426zm.683.086c-.037-.244.074-.501.218-.523.153-.024.319.247.349.437.032.212-.085.407-.218.427-.139.021-.314-.113-.349-.341zm-.387.198c0-.247.163-.485.323-.485.17 0 .306.292.306.485 0 .214-.159.389-.306.389-.155 0-.323-.158-.323-.389zm-.448.135c0-.247.162-.485.321-.485.171 0 .307.292.307.485 0 .215-.159.39-.307.39-.154 0-.321-.159-.321-.39zm.949-.103c0-.247.163-.485.321-.485.172 0 .307.293.307.485 0 .214-.158.389-.307.389-.153 0-.321-.159-.321-.389zm-.091.199c0-.247.163-.485.322-.485.171 0 .307.293.307.485 0 .214-.159.389-.307.389-.154 0-.322-.159-.322-.389zm-.436.238c0-.246.162-.484.321-.484.171 0 .306.292.306.484 0 .215-.159.39-.306.39-.154-.001-.321-.159-.321-.39zm-.649 0c0-.246.133-.484.264-.484.139 0 .249.292.249.484 0 .215-.13.39-.249.39-.128-.001-.264-.159-.264-.39zm1.455-.04c0-.246.133-.485.263-.485.139 0 .249.293.249.485 0 .214-.13.39-.249.39-.127 0-.263-.16-.263-.39zm.158.422c.058-.24.217-.446.319-.422.11.026.129.332.085.519-.051.208-.193.354-.288.332-.099-.024-.17-.204-.116-.429zm-.478-.062c.026-.245.183-.468.312-.455.139.015.219.316.198.508-.021.213-.169.374-.288.362-.125-.014-.245-.186-.222-.415zm-.745.059c-.063-.238-.229-.44-.33-.414-.11.029-.119.335-.071.521.056.208.203.349.297.325.097-.027.164-.209.104-.432zm-.163-.029c0-.247.132-.485.262-.485.141 0 .25.292.25.485 0 .214-.13.389-.25.389-.126 0-.262-.159-.262-.389zm.378.087c0-.247.161-.485.321-.485.171 0 .306.293.306.485 0 .215-.159.39-.306.39-.154 0-.321-.159-.321-.39zm.13-2.837c-.056.207-.222.389-.095.667-.23-.071-.445-.095-.637.095.231-.015.454.056.55.223-.199-.032-.303.072-.358.199.175-.047.358-.103.445-.063-.096.056-.219.19-.23.294.147-.12.333-.088.425-.171-.06.175.08.366.223.532l.04-.564c.243.06.255.258.589.255-.108-.064-.208-.338-.362-.338.083-.023.386-.036.456.008-.051-.107-.249-.207-.333-.199.092-.104.274-.318.397-.381-.162.04-.457.059-.568.21.263-.198.222-.592.484-.647-.15-.024-.39.072-.548.254.056-.143.072-.349.175-.413-.215.072-.444.318-.517.437 0-.112-.08-.319-.136-.398z" fill="#FFD851"/><path d="M47.472 18.057c.004.087-.004.242-.023.29m.364-.314c-.067.071-.155.25-.176.409m.312-.079c-.063.052-.147.131-.18.215" fill="none"/></g><path fill="#329B32" stroke="#000" stroke-width=".125" d="M45.206 20.926c-.183 0-.323-.097-.421-.214-.198-.239-.691-.338-.89-.136-.063.064-.168.065-.246.072-.144.012-.302.131-.255.39.104-.07.143.012.207-.002l.027.081c0 .139.294.394.564.377.27-.016.409.101.465.147l.08.175c.055.09.087.104-.048.218-.184.155-.311.521.016.783.326.262 1.184.66 2.13-.08.945-.739 2.392-.326 2.504-.064.11.263.166.405.19.533.023.127.167.207.342.199.175-.009.381.079.501.15.118.072.297.057.262-.184-.107-.73-.548-.837-.607-1.167.266.032.443.032.539-.071.096-.104.192-.294.278-.346.088-.051.096-.107-.023-.071-.118.036-.207.09-.429.063-1.196-.146-4.535-1.036-5.186-.853z"/><path stroke="#000" stroke-width=".125" d="M50.501 21.788c-.135.08-.256.226-.51.537-.254.312-1.018.651-1.969.651-.95 0-1.502-.137-1.934-.476-.229-.18-.409-.296-.558-.361-.299-.129-.341-.41-.27-.657-.069.143-.134.254-.277.247-.093-.005-.306-.016-.246.087l-.058-.155-.07-.056c.092.06.27-.089.405-.083.092.004.232-.121.193-.279l-.066-.325c.191-.095 2.925.397 3.466.43.541.031 2.101.274 1.894.44z"/><path fill="#329B32" stroke="#000" stroke-width=".125" d="M45.572 20.823c.255-.278.572-.389.891-.333h.079c.143-.12.509-.143.716-.048l.114.004c.294-.103.906.004 1.116.215l.076.036c.68-.048 1.107.281 1.581.755.072.072.132.175.275.199.143.024.19.087.038.167-.15.08-.277.207-.523.508-.246.302-.993.596-1.916.596-.922 0-1.458-.132-1.875-.46-.223-.175-.397-.287-.541-.35-.143-.064-.35-.255-.294-.47.056-.214-.071-.477-.167-.723.071-.055.271-.119.373-.071l.057-.025z"/><path d="M50.146 21.451c-.474-.474-.901-.803-1.581-.755l-.032.165c.406.167 1.006.614 1.26.959.114-.103.29-.238.353-.369zm-1.658-.791c-.21-.211-.822-.318-1.116-.215.004.099-.016.267-.056.37.171.083.338.25.485.441.096-.04.354-.099.485-.127.068-.119.159-.33.202-.469zm-1.23-.219c-.207-.095-.573-.072-.716.048-.048.111-.088.318-.091.421.099.012.253.08.325.147.158-.06.354-.167.434-.247.031-.102.07-.262.048-.369zm-1.686.382c.255-.278.572-.389.891-.333-.048.083-.084.254-.092.409-.262-.023-.64.056-.783.151l-.016-.227zm4.133 1.045c-.256-.326-.802-.733-1.192-.91l-.088.207c.152.247.453.771.589 1.041.142-.06.504-.199.691-.338zm-1.987.58c.072-.361.08-.894.084-1.057l.497-.131c.126.211.428.731.56.994-.306.095-.832.202-1.141.194zm-.898-1.252c.13-.06.321-.155.438-.246.114.075.306.254.38.357 0 .239-.055.898-.086 1.137-.22 0-.554-.044-.739-.151.039-.389.055-.842.007-1.097zm-1.288.326c.027-.076.036-.235.04-.318.223-.127.735-.259 1.108-.056.04.263.012.895-.008 1.049-.333-.253-.898-.619-1.14-.675z" fill="#00533D" stroke="#000" stroke-width=".125"/><path d="M44.229 21.054c-.055 0-.062-.152-.183-.152l-.128-.003.048.115c.035.077.172.024.263.04z"/><path stroke="#000" stroke-width=".125" d="M44.229 21.49c.313-.008.373-.381.521-.429m-.326.457c.227.083.409-.445.596-.413m-1.077-.262c.087-.012.123-.117.254.024.056.06.136.067.188.083m-.036.286c-.119.14-.306.246-.397.206m-.056-.866c-.075.066-.141.146-.187.23m-.065.17l-.011.121" fill="none"/><path fill="#FFD851" stroke="#000" stroke-width=".125" d="M46.764 25.608l.009.226.121.204.181.006 1.82-.229c.548 0 .865.174 1.192.174.174 0 .326-.119.326-.254 0-.136-.208-.206-.653-.206-.611 0-.945.142-1.473.142-.771 0-.892-.27-.892-.401 0-.13.124-.329.546-.329.134 0 .226-.008.266-.064.04-.054.123-.149.281-.245.16-.096.521.004.708-.111.016.091-.155.246-.277.307.249-.076.535-.08.587.138-.135-.079-.335-.051-.413-.02l-.264.084.323.176c-.162.13-.423.136-.684.022-.063-.027-.266-.099-.417-.099-.246 0-.397.047-.397.17 0 .124.159.212.616.212.456 0 .711-.133 1.419-.133-.06-.087.04-.162-.084-.249.267-.004.557.087.647.266-.023-.175.147-.35.084-.48.154.016.282.179.31.291l.1-.141c.175.064.25.239.218.418.072-.136.152-.092.199-.251.067.1.039.433-.146.532.158-.111.377-.115.548.072-.154-.031-.243.038-.314.08-.313.187-.837.27-1.227.249l-.708-.095c.135.023.461.32.731.325.183.005.318-.003.394-.023.074-.021.202-.009.302.067.099.076.25.132.338.115-.028.11-.06.159-.155.183l.188.223c-.036.023-.112.056-.184.044l.167.227c-.044.004-.119.032-.171-.004l.075.298c.084.092-.069.232-.192.122.012.066-.057.146-.141.124-.067-.018-.124-.089-.096-.132l.016-.033c-.052.068-.146.062-.194.034l-.064-.076c-.179.048-.235-.107-.214-.175.027-.082.167-.114.219-.082.052.03.099.051.153.012.062-.043.093-.086.093-.147 0-.075-.073-.297-.43-.273-.373.023-1.008-.074-1.303-.191l-.082-.036-.108.243c.008.142.059.229.202.29-.071.119-.206.1-.254.031l-.104.223-.068-.127c-.076.178-.283.28-.399.248-.116.088-.272.06-.323-.027-.1.051-.194.051-.25.002l-.058.132c-.008.064-.124.086-.165.059-.052-.034-.09-.122-.019-.166-.088.053-.178.031-.204-.022-.024-.048-.022-.13.052-.134l.035-.004-.175-.042c-.049-.028-.049-.104-.022-.135.025-.029.098-.084.148-.035l.035.032.042-.122c.045-.027.131-.023.198.056.067.08.124.096.264.071.138-.023.337-.15.492-.277-.442-.071-.186-.354-.047-.462-.112-.032-.25-.034-.367.028-.532.286-1.096.62-1.477.517l.062.147c-.087.02-.227.008-.282-.061-.036.044-.072.176-.036.271l-.278-.131.021.234c-.08-.068-.202-.128-.258-.068-.057.061-.152.077-.244.045-.042.071-.105.133-.193.171l-.024-.18c-.027.092-.115.188-.21.242l-.012-.175c-.009.104-.224.159-.247.223.029-.078.035-.154.023-.21-.052.088-.126.178-.246.187l.021-.155c-.021.1-.194.148-.317.141-.004.052-.112.127-.231.054-.077-.047-.12-.121-.084-.162-.083.004-.189-.101-.154-.191l.04-.057c-.088-.059-.104-.173-.044-.237.041-.043.104-.047.169-.023 0-.211.188-.214.26-.068.043.089.2.206.34.186l.109-.029c.171-.057.477-.176.66-.343l.03-.174c-.103.066-.211.105-.273.19l.006-.09-.264-.018.115-.19c-.124.036-.258.013-.361-.024l.083-.207-.299.016c.021-.088.052-.178.128-.21-.092.016-.234.004-.35-.056l.222-.144c-.214.02-.254-.095-.368-.13l.222-.061c-.075-.027-.206-.151-.154-.226l-.096.083c-.056.039-.179.008-.234-.079-.058-.09-.028-.219.056-.247-.123-.022-.109-.151-.072-.215.024-.039.124-.111.18-.039l.084.096-.013-.231c.013-.07.063-.082.139-.095.076-.012.14.066.132.146l.045.225.026-.089c.012-.11.139-.096.211-.063.071.031.104.175.012.257-.067.062-.028.137.012.191.191.271.493.525.763.549-.003-.114.04-.224.125-.288-.005-.069.018-.143.061-.192.008-.146.085-.215.192-.188l-.05-.062c-.079-.071-.147-.204-.098-.307.056-.116.191-.092.246-.021-.015-.178.167-.286.176-.378l.048.256c.031-.104.21-.231.329-.271-.056.083.092.202.08.274.039-.136.246-.199.417-.195-.048.052-.052.136-.063.191.095 0 .206-.027.254-.096.004.096-.048.206-.104.258l.223-.024-.127.216c.088-.063.218-.056.258.031.04.088-.036.215-.091.287l-.133.09z"/><path d="M45.171 25.91c-.187.066-.242.253-.271.359m.235-.168c-.258.143-.365.285-.318.571m.441.203c.164-.067.271-.12.39-.354m-.072.123c-.04.092-.004.271-.068.358.12-.075.22-.187.264-.358m-.148.263c.111-.032.266-.199.342-.374l-.052.274c.127-.12.187-.21.202-.338l.032.116c.047-.059.097-.098.11-.206m-.013.066l-.004.13c.104-.062.147-.185.144-.303m-.023.146c.16-.084.185-.238.18-.485m-.016.255c.106-.079.143-.119.126-.346m-.329-.719c-.04.008-.088.043-.1.114l-.085.207c-.02.1-.065.13-.151.096-.082-.033-.073-.052-.072-.113l.142-.236c.005-.052.032-.124.072-.144-.128.082-.326.027-.354-.131m.783.306l-.177-.037-.138.004m-.053.14c.035.046.167.086.288.047-.092.007-.188-.113-.078-.194m-.434-.099c-.114.004-.188.069-.163.146.026.078.146.088.217.037m-.239 1.098l.066-.105.128-.041c.105.002.165-.068.188-.158.065-.006.095-.117.102-.164.049.007.09-.023.127-.119.046.026.128-.007.151-.073m-1.08-.189c.004.045-.048.097-.083.11.025.054-.015.176-.062.203.021.044.01.136-.029.179l.036.146m.259-1.141c-.06.111-.044.277.063.31m-.019.095c-.012.127-.024.31-.056.377s-.064.246.147.294c.21.048.349.017.469-.357m.409 1.004l-.074.092m.242-.147l-.072.167m.262-.203l-.048.148m-1.533-1.769l.067.1c-.08-.042-.138.076-.098.167m-.041.17l-.101.08m.021.15l-.081.042m-1.178-.503l.029-.054m-.248-.005l-.055-.039m.083.401l.043-.02m-.158-.159l-.159-.063m1.578 1.044c-.177.155-.257.266-.277.447m.471-.336c-.048.117-.125.185-.203.235m-.8.547c-.205.046-.379.021-.515-.074l-.085-.043m1.369-.256c-.026.117-.063.241-.092.282.202-.123.386-.278.397-.493m-1.799.727l.21-.031m4.285-.838l.157.076c.024-.056.136-.128.207-.159m-2.208.628c-.014-.108.039-.225.182-.295m-1.197.732l.053-.175m-1.169.262c-.048.036-.086.097-.091.156m-.315-.108l.028-.02c.062-.025.139-.076.159-.128m3.336-.207l-.091-.027m.08.139l-.066.04m.178.107l-.062.053m.815.001c.05-.038.093-.097.118-.182m-.441.155c.064-.032.131-.085.191-.157m.532-.064l.008-.139m1.887.373c-.03-.058-.039-.134.045-.179l.113-.066m-1.721-.649c-.429-.198-.392-.423-.737-.394m2.583 1.181l-.024.148m.246-.132l-.025.174m-1.979-2.618l-.185.012m-1.988.865c.003.048.078.164.282.161l-.045-.027m-.129-.43l-.051-.018c-.04-.047.02-.158.095-.21l-.163.028c-.067.154-.206.233-.306.15-.04.095-.166.227-.274.19-.106-.035-.119-.115-.091-.214-.124.154-.302.075-.334.016s-.012-.199.04-.338" stroke="#000" stroke-width=".125" fill="none"/><path d="M48.429 26.581l-.224.068c-.063.061.01.1.078.092-.038.064-.032.107.08.102l.09.202c.071-.087.086-.187.056-.266s-.155-.122-.08-.198z"/><path d="M46.064 25.75c-.106-.035-.119-.115-.091-.214l-.135.086c-.104.228-.228.441-.401.454-.176.012-.15.187-.004.202.27.033.406-.058.631-.528zm-2.55-.611c.084-.072.033-.162-.023-.184-.084-.031-.23-.012-.318.115.084-.023.162-.01.18.032.021.06.079.107.161.037zm.128-.462c.178-.004.229.028.25.088.02.061-.008.131-.084.131s-.132-.049-.114-.082c.022-.049.011-.117-.052-.137zm.521.402c.124.034.165-.058.105-.165-.033-.06-.117-.107-.238-.083l.133.248zm-.955.434c.075.13.19.13.254.103.063-.028.088-.099.063-.147-.035-.071-.123-.1-.155 0-.031.097-.127.067-.162.044zm.375 1.596c-.057-.109-.215-.125-.335-.02.043-.006.164.01.184.062.021.055.072.053.102.043l.049-.085zm.221-.174c-.021-.115-.188-.143-.304-.094.067-.006.147.042.151.094s.054.099.103.077l.05-.077zm-.271.478c-.144-.029-.233.147-.231.268.031-.055.097-.108.172-.103.076.006.116-.02.126-.069l-.067-.096zm.019.443c.06.01.119-.036.129-.109.009-.063.107-.054.146-.024.04.03.034.132-.029.174-.065.041-.193.055-.246-.041zm3.597-.777c-.036-.04-.175-.071-.266-.016.057-.007.129.048.143.089.014.043.084.064.113.033l.01-.106zm-.23.164c-.086-.028-.217.081-.248.199.031-.035.129-.093.173-.073.044.021.109-.008.115-.051l-.04-.075zm.134.226c-.08 0-.185.098-.188.197.023-.044.099-.067.15-.056l.111-.068-.073-.073zm.225.203c-.036-.026-.122.008-.124.083l-.01.173.13-.109c.046-.022.074-.098.004-.147zm2.932-.23c-.052-.056-.127-.035-.159.013-.031.048-.06.183.008.286.009-.056.043-.123.107-.131.063-.007.083-.124.044-.168zm.155.105c-.093.054-.108.228-.013.335 0-.052.01-.144.072-.157.061-.014.106-.101.064-.15-.04-.051-.09-.049-.123-.028zm.318.099c-.053-.02-.111.031-.118.084-.005.054.036.162.124.214l.05-.12c.069-.052.03-.146-.056-.178zm.219-.03c-.054.005-.09.076-.053.144.041.074.092.09.192.074-.035-.02-.073-.082-.056-.119.019-.036.006-.107-.083-.099z" fill="#003671"/><g fill="#FFD851" stroke="#000" stroke-width=".063"><path d="M45.008 28.472l-.489 1.519h-1.608l1.306.946-.502 1.518 1.293-.943 1.293.943-.495-1.531 1.298-.926h-1.601zM49.888 28.472l.489 1.519h1.607l-1.305.946.501 1.518-1.292-.943-1.293.943.495-1.531-1.299-.926h1.601zM47.439 31.293l-.489 1.519h-1.607l1.305.946-.501 1.518 1.292-.943 1.293.943-.495-1.531 1.299-.926h-1.6z"/></g><g fill="#329B32"><path d="M45.008 28.933l-.387 1.201h-1.27l1.032.746-.397 1.201 1.022-.746 1.021.746-.39-1.211 1.026-.73h-1.266zM49.888 28.933l.386 1.201h1.271l-1.032.746.396 1.201-1.021-.746-1.023.746.392-1.211-1.027-.73h1.266zM47.439 31.754l-.385 1.201h-1.272l1.032.747-.396 1.2 1.021-.746 1.023.746-.392-1.211 1.027-.731h-1.266z"/></g><path fill="#00533D" d="M41.064 33.704l-.205.106-.038.097-.018.01-.119-.241.018-.009.099.023.43-.22.039-.095.017-.009.119.241-.017.009-.1-.026-.188.095.088.177.187-.096.038-.097.018-.009.119.24-.018.009-.098-.024-.431.22-.039.095-.019.01-.118-.241.019-.009.099.026.206-.104-.088-.178zm.461.339l.022-.107.017-.012.263.403-.176.117-.012-.018c.108-.072.1-.177.071-.22l-.042-.065-.071.014-.183.125c.018.027.051.103.19.035l.009.013-.276.187-.011-.016c.136-.106.076-.172.059-.199l-.188.126-.04.062.043.065c.032.052.103.092.247.051l.014.02-.197.084-.263-.403.016-.011.106.021.402-.272zm.398.968l-.171.157-.01.105-.016.014-.178-.199.015-.014.101-.003.355-.332.012-.102.015-.013.179.198-.014.014-.104.001-.155.145.131.146.156-.144.01-.104.015-.014.178.2-.014.013-.102.003-.355.331-.012.102-.016.014-.178-.198.015-.015.104-.001.169-.158-.13-.146zm.403.549l.073.069.104-.235-.22.125.043.041-.029.031-.053-.05-.079.044c-.071.04-.048.068-.022.109l-.014.015-.119-.112.013-.015.104-.015.53-.297.021.02-.244.558-.006.114-.013.015-.197-.185.014-.015c.047.03.077.048.107-.011l.043-.097-.085-.079.029-.03zm.211.516l.012-.016.099-.021.338-.433-.023-.018c-.044-.036-.136-.033-.197.045l-.015-.011.121-.155.371.302-.121.154-.014-.011c.062-.079.044-.171-.001-.207l-.021-.018-.338.432.002.102-.013.015-.2-.16zm.669.101l-.131.194.014.104-.012.018-.219-.153.012-.017.098-.026.271-.405-.011-.102.011-.017.218.151-.011.017-.099.025-.119.177.16.11.118-.176-.013-.104.011-.017.219.152-.011.017-.098.026-.271.404.012.103-.012.017-.219-.151.011-.018.101-.024.129-.194-.159-.111zm.517.73l.01-.019.104-.032.225-.434-.034-.105.01-.018.421.225-.097.188-.02-.01c.061-.117.004-.203-.042-.228l-.067-.036-.056.046-.103.199c.028.015.094.065.184-.063l.015.008-.154.299-.019-.01c.071-.158-.014-.188-.041-.202l-.105.203.021.1-.009.019-.243-.13zm.737.347c-.081-.036-.07-.188-.001-.351.07-.162.172-.273.256-.236.079.036.069.188 0 .351-.071.163-.173.273-.255.236l-.009.021c.159.07.309-.031.383-.204.075-.174.047-.354-.11-.425-.16-.071-.31.029-.385.203-.074.173-.043.354.112.426l.009-.021zm.804.07l.111-.32-.037-.093.007-.019.14.05-.006.02-.08.051-.108.312c-.041.121-.113.236-.268.182-.119-.043-.183-.148-.132-.296l.117-.338-.035-.092.006-.019.243.087-.007.018-.086.05-.114.327c-.039.112-.031.199.052.229.081.029.153-.021.197-.149zm.24-.343l-.021-.018.004-.02.167.046.162.495.085-.324-.045-.094.006-.02.148.041-.006.021-.077.06-.15.566-.026-.007-.205-.622-.114.434.045.093-.005.019-.155-.043.005-.019.085-.058.125-.472-.028-.078zm.866.532c-.042.223-.133.283-.189.272l-.047-.009-.022-.036.099-.537.034-.024.047.01c.057.01.12.099.078.324l.098.025c.05-.271-.068-.369-.194-.394l-.246-.048-.004.02.053.089-.09.482-.081.064-.004.02.248.048c.125.024.269-.013.318-.281l-.098-.025zm.234-.216l-.068-.086.003-.02.472.049-.021.214-.021-.002c.014-.132-.07-.191-.121-.197l-.076-.008-.034.063-.023.225c.032.004.111.024.148-.128l.016.002-.034.335-.02-.002c.006-.174-.082-.169-.114-.173l-.023.229.021.07.076.008c.061.006.136-.022.195-.163l.024.003-.062.207-.473-.05.003-.02.083-.069.049-.487zm1.605.506l.084.069.002.02-.283.029-.002-.019.069-.086-.051-.489-.083-.069-.002-.021.282-.029.002.02-.068.086.05.489zm.269.065l-.003-.02.051-.089-.089-.546-.028.005c-.056.01-.114.082-.099.181l-.018.003-.031-.195.466-.077.032.194-.017.002c-.016-.099-.095-.146-.15-.137l-.027.004.088.545.074.067.003.02-.252.043zm1.107-.514l-.094-.325-.083-.054-.006-.019.143-.043.006.019-.035.09.092.317c.035.123.043.258-.115.306-.12.036-.231-.012-.274-.161l-.1-.343-.082-.055-.005-.019.246-.074.006.019-.043.092.097.333c.033.114.088.18.172.154s.112-.108.075-.237zm.297-.193c.118-.053.099-.127.074-.192-.03-.084-.079-.147-.131-.125l-.037.06.094.257.009.024.073.198.086.052.007.019-.244.092-.007-.019.033-.096-.167-.461-.099-.046-.007-.019.248-.094c.119-.045.217-.018.261.103.044.121-.012.206-.132.251l-.053.02-.008-.024zm.659-.638l-.027.003-.01-.018.151-.082.452.245-.157-.296-.096-.036-.01-.018.136-.074.01.018-.017.098.274.517-.024.014-.567-.308.208.394.096.037.01.017-.142.078-.009-.018.021-.102-.227-.43-.072-.039zm1.172.063l-.011-.016.009-.102-.307-.455-.024.017c-.047.032-.07.122-.014.205l-.016.011-.109-.162.391-.274.109.163-.014.01c-.056-.083-.148-.092-.195-.06l-.021.016.307.455.096.029.011.017-.212.146zm.29-.621l.145.183.101.018.013.016-.206.169-.013-.016.003-.104-.301-.382-.1-.02-.013-.016.207-.168.013.016-.005.104.13.166.151-.124-.131-.165-.102-.018-.012-.016.206-.168.013.015-.004.103.301.383.101.019.013.017-.207.168-.013-.016.005-.104-.144-.184-.151.124zm.236-.529l-.107-.004-.014-.015.346-.332.144.155-.016.015c-.089-.097-.188-.07-.225-.034l-.057.054.025.068.152.163c.023-.022.092-.068.001-.197l.012-.011.228.245-.015.014c-.126-.117-.179-.048-.202-.025l.154.168.065.029.057-.054c.044-.042.072-.12.007-.257l.018-.017.114.183-.347.332-.013-.015.003-.109-.33-.356zm.61-.736c-.019.028-.03.071.026.119.056.047.105.039.2-.007.07-.033.16-.043.249.033.131.111.064.228.029.27l-.096.079-.009.041-.011.013-.175-.149.011-.011c.1.065.209.075.261.011.045-.054.018-.118-.015-.145-.048-.042-.105-.035-.193.004-.078.033-.171.041-.249-.025-.101-.086-.109-.182-.052-.251l.101-.07v-.056l.01-.012.159.135-.01.013c-.132-.066-.207-.037-.236.008zm.237-.188l-.107.019-.017-.012.276-.395.17.124-.012.018c-.106-.077-.198-.031-.228.011l-.044.064.038.061.179.131c.02-.026.077-.086-.036-.193l.009-.014.271.195-.011.016c-.146-.09-.186-.01-.204.017l.186.133.069.016.044-.063c.035-.051.047-.132-.042-.254l.014-.019.146.156-.274.395-.016-.012-.019-.109-.392-.285zm.707-.481l-.077.142-.171-.188.248.046.044.009.103.02c.062.017.054.052.035.105l.017.01.131-.238-.018-.01-.109.021-.59-.113-.015.025.408.458.037.098.017.009.08-.143-.018-.01c-.032.034-.055.063-.109.002l-.061-.067.092-.167-.044-.009zm-.175-.563c-.01.032-.008.077.059.106s.113.006.19-.065c.058-.053.14-.089.248-.042.157.067.127.198.105.249l-.07.104.003.041-.006.016-.209-.091.007-.015c.113.034.221.011.253-.066.027-.064-.018-.118-.056-.134-.059-.025-.112-.002-.185.061-.064.055-.151.09-.245.05-.121-.052-.156-.141-.121-.226l.075-.097-.016-.052.006-.016.191.082-.006.015c-.143-.023-.207.028-.223.08zm-6.155 4.134c-.004.228-.084.303-.143.301l-.048-.001-.027-.032.01-.546.028-.03.049.001c.059.001.135.079.131.307l.101.008c.005-.273-.128-.352-.256-.355l-.252-.006v.02l.067.08-.009.491-.07.075v.02l.251.007c.128.004.264-.056.269-.331l-.101-.009zm3.054-.372c-.083.035-.186-.077-.255-.24-.07-.162-.08-.313.004-.348.082-.034.185.079.253.241.07.164.08.315-.002.347l.009.021c.16-.065.19-.244.116-.417-.075-.175-.224-.279-.385-.213-.16.066-.191.244-.117.418.073.173.227.275.386.212l-.009-.021z"/></svg>