<svg xmlns="http://www.w3.org/2000/svg" width="64" height="48" viewBox="-31.5 24.5 64 48" enable-background="new -31.5 24.5 64 48"><path fill="#0093C1" d="M-31.5 24.5h64v48h-64z"/><g fill="#FFF200"><path d="M3.503 31.725c-.132.613-.481 2.088-.481 2.373 0 .267.215.482.481.482.271 0 .486-.216.486-.482 0-.26-.356-1.77-.486-2.373zm-2.141.209c-.009.628-.062 2.143-.007 2.42.053.26.307.43.568.379.263-.053.435-.307.381-.564-.052-.262-.7-1.667-.942-2.235zm-2.065.617c.117.616.363 2.111.471 2.377.105.242.391.356.637.256.246-.1.361-.38.262-.623-.105-.245-1.018-1.5-1.37-2.01zm-1.901 1.002c.236.584.776 2.002.933 2.238.148.222.448.281.674.134.225-.147.281-.444.133-.664-.148-.221-1.294-1.277-1.74-1.708zm-1.665 1.345c.347.534 1.153 1.82 1.358 2.021.188.186.494.186.684 0 .188-.188.188-.49 0-.676-.189-.188-1.52-1.001-2.042-1.345zm-1.37 1.649c.447.451 1.492 1.561 1.732 1.715.222.148.523.09.672-.131.146-.219.09-.516-.135-.664-.22-.148-1.686-.688-2.269-.92zm-1.014 1.879c.524.354 1.768 1.24 2.036 1.348.244.102.529-.013.633-.256.1-.248-.015-.525-.263-.629-.25-.1-1.792-.35-2.406-.463zm-.626 2.035c.582.248 1.981.877 2.26.932.265.053.518-.115.57-.377.057-.258-.116-.507-.38-.561-.261-.054-1.827 0-2.45.006zm-.213 2.117c.62.132 2.117.479 2.403.479.269 0 .483-.213.483-.479 0-.262-.213-.479-.483-.479-.268.001-1.792.356-2.403.479zm.211 2.121c.634.008 2.168.059 2.449.006.264-.051.436-.305.381-.566-.052-.256-.306-.426-.57-.374-.258.051-1.685.692-2.26.934zm.625 2.037c.623-.118 2.138-.357 2.407-.469.244-.1.362-.379.259-.623-.101-.243-.385-.361-.631-.261-.246.1-1.52 1.009-2.035 1.353zm1.013 1.875c.591-.232 2.028-.761 2.267-.92.224-.145.283-.441.136-.664-.15-.221-.453-.279-.673-.131-.224.145-1.29 1.276-1.73 1.715zm1.366 1.653c.533-.345 1.84-1.145 2.041-1.345.189-.186.189-.487 0-.676-.188-.187-.494-.187-.684 0-.189.189-1.014 1.5-1.357 2.021zm1.665 1.349c.456-.442 1.575-1.475 1.739-1.711.148-.22.088-.515-.134-.661-.223-.151-.524-.091-.673.128-.148.222-.7 1.671-.932 2.244zm1.899.996c.362-.51 1.258-1.739 1.368-2.002.103-.241-.014-.524-.26-.623-.25-.105-.534.01-.636.251-.102.249-.354 1.776-.472 2.374zm2.063.629c.253-.581.885-1.961.947-2.241.05-.251-.122-.508-.383-.565-.264-.043-.517.124-.57.377-.054.26.004 1.802.006 2.429zm2.146.204c.131-.607.481-2.088.481-2.373 0-.265-.214-.478-.481-.478-.27 0-.485.213-.485.478 0 .27.356 1.772.485 2.373zm2.147-.204c.008-.631.06-2.145.008-2.43-.059-.251-.315-.419-.571-.372-.266.054-.438.31-.384.562.049.262.699 1.671.947 2.24zm2.055-.619c-.112-.614-.361-2.112-.47-2.379-.1-.242-.384-.358-.629-.254-.249.1-.368.382-.265.625.104.243 1.02 1.498 1.364 2.008zm1.903-1c-.235-.585-.771-2.002-.936-2.238-.142-.223-.444-.279-.67-.136-.222.147-.284.444-.131.664.151.219 1.297 1.276 1.737 1.71zm1.668-1.348c-.344-.532-1.15-1.818-1.352-2.021-.19-.187-.505-.187-.694 0-.189.188-.189.489 0 .676.189.189 1.52 1.004 2.046 1.345zm1.364-1.644c-.435-.456-1.482-1.562-1.726-1.725-.22-.145-.522-.082-.67.136-.154.22-.09.517.126.664.23.148 1.695.691 2.27.925zm1.019-1.881c-.527-.354-1.771-1.238-2.034-1.35-.247-.104-.531.016-.628.259-.107.243.01.522.261.624.243.101 1.791.355 2.401.467zm.633-2.037c-.591-.246-1.984-.874-2.27-.934-.261-.053-.516.119-.569.375-.051.262.119.513.38.564.267.052 1.83.001 2.459-.005zm.21-2.119c-.629-.129-2.115-.48-2.402-.48-.271 0-.492.219-.492.48 0 .265.222.48.492.48.261 0 1.785-.355 2.402-.48zm-.21-2.117c-.639-.006-2.168-.064-2.453-.006-.263.051-.433.303-.38.564.048.258.307.426.567.373.266-.052 1.693-.691 2.266-.931zm-.627-2.037c-.628.113-2.135.354-2.405.467-.251.1-.363.38-.263.625.101.243.385.357.639.257.241-.1 1.517-1.005 2.029-1.349zm-1.019-1.879c-.587.23-2.022.762-2.266.922-.224.147-.284.443-.13.663.151.22.45.28.67.13.219-.147 1.293-1.274 1.726-1.715zm-1.363-1.647c-.535.344-1.83 1.139-2.042 1.34-.189.186-.189.488-.002.676.192.188.5.188.69 0 .19-.186 1.009-1.5 1.354-2.016zm-1.668-1.352c-.447.438-1.571 1.471-1.737 1.708-.143.221-.09.518.142.665.22.146.521.089.675-.134.137-.217.691-1.669.92-2.239zm-1.897-1.003c-.356.517-1.256 1.746-1.364 2.01-.103.24.014.523.261.624.243.103.528-.014.629-.259.1-.243.359-1.769.474-2.375zm-2.057-.62c-.254.577-.887 1.955-.947 2.235-.054.26.118.51.382.562.266.053.519-.118.571-.374.05-.264-.002-1.807-.006-2.423z"/><ellipse cx="3.5" cy="42.584" rx="7.294" ry="7.206"/><path d="M3.165 54.589c-.491.059-1.987-.079-2.808-.401-1.35-.54-2.74-.903-3.484-1.536-.934-.807-4.027-2.481-5.172-7.142-.219-.902-.201-1.279-.456-1.27-.13.005-.234.711-.101 1.523.122.759-.109.679-.544-.314-.416-.95-.683-1.738-.784-2.527-.082-.6-.558-.053-.452.831.09.752.635 2.23 1.175 3.053.456.704.116.725-.368.116-.48-.607-1.157-1.538-1.524-2.553-.368-1.021-.388.402-.218.949.451 1.428 1.547 2.738 2.14 3.327.599.593.353.74-.213.327-.564-.41-.774-.481-1.423-1.152-.649-.676-.896-.362-.317.345.584.704 1.177 1.274 1.889 1.826.382.296.697.601.135.525-.368-.05-.933-.441-1.18-.691-.249-.244-.669-.249-.298.227.412.544 1.396 1.434 2.191 1.706.285.103.051.282-.55.154-.595-.127-.179.294.121.446.296.145.779.311 1.13.376.347.063.231.213-.068.226-.298.018-.532-.006-.708-.065-.173-.054-.042.189.153.278.19.091.522.19.771.206.249.02.172.322-.1.253-.274-.063-.571-.121-.431.093.141.212.935.32 1.477.346.54.028.347.206.074.271-.273.064-.523.07-.714.07-.19 0-.312.285.11.318.42.021 1.013.052 1.874.482 1.139.563 2.655 1.092 3.729.943.946-.133.43-.403-.035-.346-.748.085-1.382-.455-1.898-.455s-1.286-.587-1.811-.658c-.246-.029-.448-.243-.116-.322.332-.083.448-.261.415-.396-.049-.201-.629-.006-.996-.172-.286-.125-.246-.226-.006-.397.32-.226.089-.386-.383-.396-.474-.014-.566-.241-.334-.417.233-.176.106-.284-.125-.272-.232.023-.199-.202-.05-.249.15-.054.104-.166-.073-.188-.423-.05-.708-.455-1.028-.598-.269-.106-.249-.222-.126-.209.126.012.27-.06.068-.218-.302-.237.018-.346-.406-.585-.323-.186-.427-.365-.365-.506.077-.177.587-.054.626-.312.03-.216-.646-.52-.632-.85.012-.15.131-.156.26-.084.131.067.279.076.237-.095-.047-.202.021-.278.306-.124.768.419 1.665 1.676 2.53 2.963.58.866 1.179 1.226 1.677 1.364.664.176 1.951 1.043 2.51 1.54.367.326.646.545 1.311.409.664-.131 1.381.018 1.943.278.564.267 1.104.575 1.611-.065.206-.252.166-.246-.166-.206zm3.948.274c-1.473.023-2.389.184-2.738.477-.682.573-.813.28-1.127.494-.317.215-.584.239-.732.15-.151-.089-.186-.19.125-.268.305-.07.545-.332.699-.486.489-.51 1.331-.64 2.02-.776 2.252-.445 5.583-1.645 7.849-4.553 1.567-2.003 2.098-4.118 2.374-6.057.103-.69.449-.517.502-.056.042.456-.067 1.574-.154 1.933-.083.362-.006.649.338.118.511-.805 1.009-2.464 1.157-3.284.147-.82.433-.739.444.03.025 1.148-.521 2.938-1.554 4.482-.403.616-.201.843.355.213.801-.902 1.161-1.382 1.556-2.284.337-.767.604-.618.318.345-.417 1.396-1.224 2.4-1.911 3.155-.68.759-.413.759-.016.622.397-.13 1.06-.702 1.562-1.358.498-.652.662-.362.324.253-.309.572-1.156 1.551-1.731 2.107-.459.438-.054.463.243.182.306-.28.533-.623.844-.706.324-.085.712-.073-.073.735-.368.378-1.471 1.173-1.992 1.414-.534.247-.339.448.072.348.42-.101 1.072-.438 1.072-.249 0 .22-.48.415-.884.573-.427.178-.676.565-.154.565.237 0 .166.195-.046.241-.215.039-.62.062-.656.241-.02.103.143.176.275.182.136.008.147.112-.034.253-.581.419-1.365.18-1.68.405-.314.237 0 .212.391.204.457-.008.854.348.22.354-.907.018-2.058.271-3.019.712-.712.326-1.276-.03-.316-.38.538-.201 1.316-.475 1.58-.61.595-.293-.386-.19.247-.563.189-.117.606-.121.606-.273 0-.148-.392-.225-.073-.391.158-.084.465-.109.641-.094.178.017.344-.215.067-.296-.272-.073-.267-.222.047-.293.32-.077.646-.166.825-.253.172-.073.153-.222-.179-.239-.32-.012-.361-.143-.068-.249.354-.118.804-.374 1.077-.554.274-.162.223-.263-.054-.346-.272-.085-.303-.135-.054-.271.262-.148.477-.311.528-.469.06-.164.101-.338-.206-.31-.334.023-.494.023-.464-.32.029-.349.112-.458.31-.692.214-.237.046-.424-.474-.229-.858.328-1.111.411-1.519 1-.396.589-.892 1.248-1.164 1.791-.261.542-.89 1.135-1.507 1.301-.61.154-2.004.783-2.587 1.245-.78.605-.596.773-1.502.784zm-7.058 2.438c-.291-.146-.314-.384.154-.463.43-.079.424-.071.637-.174.219-.104.996-.479 1.344-.484.35-.012.312.259-.015.263-.323.007-1.081.371-1.345.557-.269.189-.4.224-.541.189-.143-.035-.201.023-.234.112zm-.721 1.135c-.314-.347 0-.726.457-.913.124-.048.291.197.75.157.453-.041.931-.101.685-.361-.132-.143-.189-.272.019-.272.084 0 .158-.006.225-.046.068-.043.176-.06.26-.016.078.05.16.062.273.048.119-.021.215.072.08.174-.29.225-.072.407.135.379.207-.039.565-.053.764.019.199.061.389.07.551.035.156-.029.464-.006.793.133.407.176.347.425 0 .371-.827-.146-1.477-.174-1.943-.089-.461.083-1.241.006-1.76-.069-.441-.069-.874-.11-1.289.45zm3.096.146c-.24.363-.611.616-1.027.73-.415.115-.614.266-.1.324.516.067.715-.041.979-.158.268-.12.354-.369.533-.051.166.296.371.265.688-.034.175-.166.298-.272.489-.267s.24.042.104.222c-.143.186-.021.502.271.229.289-.27.432-.445.663-.439.239.008.184.107.016.268-.164.156-.256.294.093.261.351-.036.518-.071.643-.291.118-.229.214-.336.51-.091.305.229.459.438.602.189.142-.259.217-.336.383-.189.222.189.973.027 1.024-.318.021-.152.039-.346.296-.13.254.219.764.142.771-.129.01-.276.17-.322.425-.226.255.1.569.143.735-.008.172-.143.216-.231.112-.454-.112-.21-.076-.415.256-.293.545.206 1.152.409 1.554-.077.403-.475.533-.587-.131-.569-.664.023-1.862-.081-2.407-.145-.552-.068-1.281-.205-1.445-.205-.15 0-.194.047-.18.148.023.106-.202.106-.226.263-.021.158-.133.247-.314.158-.172-.077-.22-.018-.148.143.071.166.054.319-.184.267-.601-.119-.959.101-1.419.296-.955.416-1.56.469-2.308.386-.75-.08-1.024-.161-1.258.19z"/></g><path fill="#FFF200" d="M-23.094 59.536c0-.604-1.027-2.194-2.425-1.411-1.785 1.008.925 4.887 1.719 6.968.427 1.121-.082 1.738-.625 1.787-.602.052-.812-.269-.893-.666-.06-.297.231-.603.522-.635.295-.029.498.202.388.374-.614-.208-.744.575-.205.604.705.042.865-.784.542-1.097-.317-.314-.963-.285-1.145-.006.095-.279.181-.671.175-1.08-.003-.142.065-.688.232-.812-.132-.06-.375.059-.342.159-.122-.326-.346-.616-.731-.8.479.907.479 1.739.174 2.401-.385.84-.133 2.177 1.361 1.993 1.412-.165 1.648-1.478.744-3.274-.901-1.791-2.784-4.945-1.492-5.526.451-.214 1.092.168 1.426.794.117.22.018.297-.199.297h-.448v-.095c0-.366-.364-.366-.364 0v.095c-.137 0-.229.121-.229.189 0 .065.092.19.229.19v.095c0 .367.364.367.364 0v-.095h.685c.101 0 .189.059.189.203v1.515c0 .145-.49.085-.456-.229.013-.137-.08-.166-.134-.106-.476.527.407.865.589.695v.921c0 .625.692.625.692 0v-.921c.18.17 1.064-.168.589-.695-.058-.06-.147-.03-.135.106.03.314-.454.374-.454.229v-1.515c0-.145.086-.203.186-.203h.689v.095c0 .367.363.367.363 0v-.095c.134 0 .228-.125.228-.19 0-.068-.093-.189-.228-.189v-.095c0-.366-.363-.366-.363 0v.095h-.448c-.219 0-.323-.077-.202-.297.334-.626.977-1.008 1.426-.794 1.293.581-.588 3.735-1.489 5.526-.913 1.797-.669 3.109.742 3.274 1.496.184 1.747-1.153 1.361-1.993-.305-.662-.305-1.494.175-2.401-.386.184-.612.474-.732.8.036-.101-.208-.219-.342-.159.167.124.237.67.233.812-.008.409.081.801.176 1.08-.183-.279-.829-.309-1.15.006-.318.312-.159 1.139.548 1.097.539-.029.408-.812-.204-.604-.111-.172.093-.403.383-.374.294.032.584.338.526.635-.083.397-.292.718-.892.666-.544-.049-1.052-.666-.626-1.787.793-2.081 3.503-5.96 1.719-6.968-1.392-.783-2.422.807-2.422 1.411zm0 12.203c.333.363.839.396 1.201.126.745-.563-.172-1.324-.469-2.212-.366-1.139-.106-1.785.601-1.864.599-.069.809.27.892.666.058.295-.231.6-.526.635-.291.03-.494-.201-.383-.373.612.203.742-.575.204-.605-.707-.041-.866.789-.548 1.098.321.314.968.284 1.15.008-.095.276-.184.664-.176 1.077.004.143-.066.688-.233.809.135.063.378-.056.342-.156.121.326.347.617.732.801-.48-.907-.48-1.74-.175-2.404.386-.84.135-2.174-1.361-1.99-1.412.164-1.69 1.554-.593 3.564.371.672-.524.735-.658.172-.133.563-1.027.5-.658-.172 1.098-2.011.819-3.4-.593-3.564-1.495-.184-1.747 1.15-1.361 1.99.306.664.306 1.497-.174 2.404.386-.184.61-.475.731-.801-.033.101.209.22.342.156-.167-.121-.235-.666-.232-.809.006-.413-.08-.801-.175-1.077.181.276.828.307 1.145-.008.322-.309.162-1.139-.542-1.098-.54.03-.409.809.205.605.11.172-.093.403-.388.373-.291-.035-.582-.34-.522-.635.08-.396.293-.735.893-.666.706.079.966.726.595 1.864-.291.888-1.208 1.648-.461 2.212.356.27.863.238 1.195-.126zm0-15.447c0 .611-1.027 2.194-2.425 1.408-1.785-1.009.925-4.877 1.719-6.957.427-1.124-.082-1.747-.625-1.796-.602-.052-.812.271-.893.674-.06.293.231.591.522.625.295.039.498-.201.388-.366-.614.205-.744-.577-.205-.608.705-.04.865.785.542 1.1-.317.308-.963.283-1.145.009.095.274.181.67.175 1.069-.003.152.065.687.232.816-.132.058-.375-.062-.342-.16-.122.324-.346.623-.731.801.479-.901.479-1.745.174-2.408-.385-.832-.133-2.168 1.361-1.989 1.412.171 1.648 1.481.744 3.282-.901 1.779-2.784 4.944-1.492 5.527.451.201 1.092-.18 1.426-.795.117-.225.018-.306-.199-.306h-.448v.095c0 .367-.364.367-.364 0v-.095c-.137 0-.229-.123-.229-.19 0-.062.092-.191.229-.191v-.095c0-.356.364-.356.364 0v.095h.685c.101 0 .189-.048.189-.196v-1.518c0-.143-.49-.087-.456.237.013.124-.08.16-.134.106-.476-.538.407-.872.589-.693v-.926c0-.635.692-.635.692 0v.926c.18-.179 1.064.155.589.693-.058.054-.147.018-.135-.106.03-.324-.454-.38-.454-.237v1.518c0 .148.086.196.186.196h.689v-.095c0-.356.363-.356.363 0v.095c.134 0 .228.13.228.191 0 .067-.093.19-.228.19v.095c0 .367-.363.367-.363 0v-.095h-.448c-.219 0-.323.081-.202.306.334.615.977.996 1.426.795 1.293-.583-.588-3.748-1.489-5.527-.913-1.801-.669-3.111.742-3.282 1.496-.179 1.747 1.157 1.361 1.989-.305.663-.305 1.507.175 2.408-.386-.178-.612-.477-.732-.801.036.099-.208.218-.342.16.167-.13.237-.664.233-.816-.008-.399.081-.795.176-1.069-.183.274-.829.299-1.15-.009-.318-.314-.159-1.14.548-1.1.539.031.408.813-.204.608-.111.165.093.405.383.366.294-.034.584-.332.526-.625-.083-.403-.292-.726-.892-.674-.544.049-1.052.672-.626 1.796.793 2.08 3.503 5.948 1.719 6.957-1.392.786-2.422-.797-2.422-1.408zm0-18.819c0 .605-1.027 2.191-2.425 1.402-1.785-1.002.925-4.881 1.719-6.96.427-1.121-.082-1.739-.625-1.789-.602-.05-.812.267-.893.669-.06.295.231.594.522.63.295.04.498-.202.388-.37-.614.206-.744-.577-.205-.604.705-.04.865.784.542 1.097-.317.307-.963.286-1.145.012.095.273.181.666.175 1.068-.003.148.065.688.232.814-.132.059-.375-.062-.342-.162-.122.328-.346.62-.731.805.479-.906.479-1.747.174-2.41-.385-.832-.133-2.166 1.361-1.988 1.412.17 1.648 1.479.744 3.279-.901 1.789-2.784 4.945-1.492 5.529.451.201 1.092-.18 1.426-.797.117-.22.018-.299-.199-.299h-.448v.095c0 .364-.364.364-.364 0v-.095c-.137 0-.229-.127-.229-.191 0-.063.092-.189.229-.189v-.097c0-.364.364-.364.364 0v.097h.685c.101 0 .189-.055.189-.203v-1.514c0-.143-.49-.084-.456.233.013.128-.08.165-.134.106-.476-.533.407-.869.589-.697v-.916c0-.634.692-.634.692 0v.916c.18-.172 1.064.164.589.697-.058.059-.147.021-.135-.106.03-.317-.454-.376-.454-.233v1.514c0 .148.086.203.186.203h.689v-.097c0-.364.363-.364.363 0v.097c.134 0 .228.126.228.189 0 .064-.093.191-.228.191v.095c0 .364-.363.364-.363 0v-.095h-.448c-.219 0-.323.079-.202.299.334.617.977.998 1.426.797 1.293-.584-.588-3.74-1.489-5.529-.913-1.801-.669-3.109.742-3.279 1.496-.178 1.747 1.156 1.361 1.988-.305.663-.305 1.504.175 2.41-.386-.185-.612-.477-.732-.805.036.101-.208.221-.342.162.167-.126.237-.666.233-.814-.008-.402.081-.795.176-1.068-.183.274-.829.295-1.15-.012-.318-.312-.159-1.137.548-1.097.539.027.408.811-.204.604-.111.168.093.41.383.37.294-.036.584-.335.526-.63-.083-.402-.292-.719-.892-.669-.544.05-1.052.668-.626 1.789.793 2.079 3.503 5.958 1.719 6.96-1.392.789-2.422-.797-2.422-1.402zm0-12.203c.333-.366.839-.4 1.201-.127.745.557-.172 1.322-.469 2.214-.366 1.137-.106 1.778.601 1.861.599.069.809-.269.892-.671.058-.293-.231-.592-.526-.629-.291-.039-.494.201-.383.369.612-.201.742.578.204.609-.707.039-.866-.788-.548-1.098.321-.312.968-.284 1.15-.016-.095-.269-.184-.665-.176-1.069.004-.144-.066-.687-.233-.811.135-.062.378.06.342.16.121-.33.347-.62.732-.804-.48.904-.48 1.746-.175 2.409.386.831.135 2.171-1.361 1.99-1.412-.172-1.69-1.562-.593-3.573.371-.676-.524-.734-.658-.17-.133-.564-1.027-.506-.658.17 1.098 2.011.819 3.401-.593 3.573-1.495.181-1.747-1.159-1.361-1.99.306-.663.306-1.505-.174-2.409.386.184.61.474.731.804-.033-.101.209-.222.342-.16-.167.124-.235.667-.232.811.006.404-.08.801-.175 1.069.181-.269.828-.297 1.145.016.322.31.162 1.137-.542 1.098-.54-.031-.409-.811.205-.609.11-.168-.093-.408-.388-.369-.291.037-.582.336-.522.629.08.402.293.74.893.671.706-.083.966-.725.595-1.861-.291-.892-1.208-1.657-.461-2.214.356-.274.863-.24 1.195.127zm0 15.443c0-.608-1.027-2.191-2.425-1.406-1.785 1 .925 4.88 1.719 6.961.427 1.121-.082 1.742-.625 1.791-.602.05-.812-.271-.893-.67-.06-.297.231-.597.522-.633.295-.032.498.205.388.37-.614-.202-.744.579-.205.61.705.037.865-.79.542-1.099-.317-.31-.963-.286-1.145-.014.095-.271.181-.666.175-1.069-.003-.143.065-.688.232-.812-.132-.059-.375.059-.342.161-.122-.329-.346-.622-.731-.806.479.905.479 1.746.174 2.408-.385.836-.133 2.17 1.361 1.991 1.412-.171 1.648-1.478.744-3.276-.901-1.793-2.784-4.948-1.492-5.533.451-.203 1.092.18 1.426.798.117.222.018.296-.199.296h-.448v-.094c0-.361-.364-.361-.364 0v.094c-.137 0-.229.128-.229.191 0 .068.092.193.229.193v.096c0 .362.364.362.364 0v-.096h.685c.101 0 .189.055.189.203v1.515c0 .145-.49.08-.456-.233.013-.131-.08-.17-.134-.108-.476.534.407.872.589.698v.916c0 .635.692.635.692 0v-.916c.18.174 1.064-.164.589-.698-.058-.062-.147-.022-.135.108.03.313-.454.378-.454.233v-1.515c0-.148.086-.203.186-.203h.689v.096c0 .362.363.362.363 0v-.096c.134 0 .228-.125.228-.193 0-.063-.093-.191-.228-.191v-.094c0-.361-.363-.361-.363 0v.094h-.448c-.219 0-.323-.074-.202-.296.334-.618.977-1.001 1.426-.798 1.293.585-.588 3.74-1.489 5.533-.913 1.799-.669 3.105.742 3.276 1.496.179 1.747-1.155 1.361-1.991-.305-.662-.305-1.503.175-2.408-.386.184-.612.477-.732.806.036-.103-.208-.22-.342-.161.167.125.237.67.233.812-.008.403.081.799.176 1.069-.183-.272-.829-.296-1.15.014-.318.309-.159 1.136.548 1.099.539-.031.408-.812-.204-.61-.111-.165.093-.402.383-.37.294.036.584.336.526.633-.083.398-.292.72-.892.67-.544-.049-1.052-.67-.626-1.791.793-2.081 3.503-5.961 1.719-6.961-1.392-.786-2.422.797-2.422 1.406z"/></svg>