<svg xmlns="http://www.w3.org/2000/svg" width="64" height="48" viewBox="-420.5 273.5 64 48" enable-background="new -420.5 273.5 64 48"><path fill="#E52629" d="M-420.5 273.5h64v48h-64z"/><path fill="#fff" d="M-420.5 285.5h64v24h-64z"/><path fill="#00904A" d="M-390.833 286.125c-.436.48-1.461 1.154-1.693 1.613-.232.461-.98.932-1.381 1.103-.401.171-.051.446.388.175.438-.272.803-.261 1.061-.51.257-.248.626-.014.266.156-.36.169-.495.456-.652.66-.157.205-.236.309-.6.316-.364.008-.686.096-.94.465l-.705 1.006c-.138.205-.033.365.306.115.338-.25.718-.459.886-.181.167.278.16.412-.291.593-.962.385-1.24.613-1.413 1-.174.389-.07.508-.672.702-.603.195-1.578.904-2.214 1.382-.637.479-.273.504.212.48.748-.036 1.707-.542 2.197-.331.147.28.316.64.545.897-.785 1.108-.917 1.535-1.725 1.553-.809.019-1.316.839-1.691 1.25-.375.412-.701.805-1.091.976-.341.147-.419.271-.153.407.267.136.502-.191.747-.077.245.116.405.071.784-.179.379-.252.775-.584 1.381-.657.29.338.436.517.763.69-.569.781-1.425 1.387-2.167 1.646-.743.259-.857.544-1.389 1.224-.532.678-.506.899-1.052.912-.546.012-.522.133-.235.35.288.216.508.109.935.201.427.092.975.182 1.527-.418.552-.599 1.907-1.646 3.06-1.541.547.047.934.16.279.781-.653.62-1.596 1.094-2.237 1.221-1.248.25-1.782.748-2.146.734-.364-.013-.703.237-.149.569.553.332.736.407 1.357.132.62-.275 1.641-.743 2.043-.854.402-.109.701-.277.986-.203.284.074.505-.012.824-.221.318-.209.783-.238 1.179-.611.462-.434.949-.062 1.258.195.309.256.918 1.272.367 1.973-.551.699-1.162 1.439-1.355 1.809-.194.368-.306.391-.536.477-.741.279-1.5.742-1.718.929-.219.187-.137.245.168.3s.344-.008.622-.236c.277-.229.614-.576 1.302-.555.364.014.662-.195.979-.525.317-.33.997-.629 1.343-.556.345.073.444-.01.644-.155.199-.146.359-.211.668.047.309.256.57.209.89.021.319-.188.665-.114.75.085.085.2.13.381.417.577.287.196 1.312.801 1.639.976.328.176.543-.152.295-.371-.246-.217-.371-.396-.336-.578.037-.184.228-.258.785-.18.871.123 2.119.742 2.568 1.016.451.273.86.508 1.225.5.363-.008.483-.092.153-.389-.329-.296-.735-.267-.882-.566l-.924-.668c-.167-.371-.395-.416-.676-.389-.283.025-.661-.23-.924-.627-.92-1.396-1.17-2.644-.867-3.58.304-.937 1.188-1.219 1.701-.824.514.393 1.125.643 1.388.615.263-.025.485-.029.833.164.348.194.938.323 1.658.024.721-.3.974-.065 1.434-.052.385.012.852.082 1.16.338.308.257.777.429 1.486.533.711.106 1.19-.086.619-.418-.574-.33-1.063-.521-1.271-.82-.209-.299-.514-.354-.816-.346-.302.006-.793-.205-1.205-.621-.414-.416-.74-.489-1.062-.441-.323.048-.688-.046-.916-.322.314-.371.645-1.066.941-1.275.363-.027.668.066.916.283s.59.17.832.164c.242-.004.59.108.795.246.205.137.527.129.828.002s.236-.289-.133-.502c-.367-.216-.572-.353-.699-.552-.125-.198-.229-.299-.674-.289-.443.011-.654-.206-1.003-.584-.787-.853-1.313-.901-1.817-.83-.504.072-1.006.164-1.424-.435.521-.254.941.33 1.612-.176.358-.271.601-.338 1.048-.186.448.152.973.102 1.111-.004.14-.104.316-.27.54-.295.222-.025.192-.318-.128-.28-.625.074-.734-.308-1.34-.192-.604.113-.828.018-1.217-.256-.392-.274-.72-.511-1.867-.324.053-.364.023-.748.588-.861.43.253.832.204 1.177.197.344-.008 1.517-.014 1.86.039.345.054.422-.109-.09-.381s-1.24-.377-1.504-.393-.389-.193-.559-.533c-.169-.341-.68-.613-1.428-.617-.612-.002-1.059-.279-1.367-.557s-.598-.492-.963-.545c-.364-.053-.693-.309-.538-.615.155-.306.759-.441 1.188-.166.432.273.693.287.953.141.26-.147.42-.211.807-.078.388.133.776.123.176-.328-.863-.648-1.707-.387-1.997-.745-.291-.356-.53-.211-.729-.125-.201.085-.562-.112-.13-.341.319-.17.642-.258.927-.122.287.135.629.087.85-.019s.438-.312-.23-.439c-.67-.127-1.689-.529-2.082-.885s-.818-.428-1.16-.358c-.342.067-.625.115-1.219-.257-.595-.371-1.371-.738-1.913-1.495s-.597-.289-.932.082z"/><path d="M-392.832 290.43c-.393-.047-.71.137-.507.404.203.268.306.1.561-.027.255-.127.494-.314-.054-.377zm1.08.855c-.36.174-.704.379-.817.746-.113.367-.099.688.24.601.513-.132.545-.739.923-.81-.126-.177-.161-.42-.346-.537zm.63-.316c.034.15.085.391.209.51.33-.158 1.172-.479 1.488-.547.025-.229-.038-.379-.102-.498-.453.039-1.117.205-1.595.535zm2.831 1.427c.005.224.099.787.144 1.008.204.098.469.173.672.229.136-.266.168-.65.162-.893-.369-.235-.698-.49-.978-.344zm-.721.32l.054.604c-.263.007-.684.158-.945.244-.261.086-.574-.393-.113-.584.46-.191.762-.238 1.004-.264zm-6.469 1.819c.479-.254.726-.098 1.168-.229.206.198.454.436.621.674-.254.431-1.028.145-1.287.332-.208-.216-.353-.437-.502-.777zm1.95-.487c.127.261.253.479.356.599.365.033.502-.172.658-.418.156-.246.15-.549-.254-.52-.403.027-.624.113-.76.339zm-3.154 4.658c.107.26.412.354.497.556.34-.209.502-.193.786-.14.284.056 1.047-.204 1.481-.658.435-.455.153-.407-.351-.336s-.887.16-1.231.087c-.345-.072-.867.08-1.182.491zm4.462-2.119c-.239.146-.358.25-.171.47.187.219.285.114.505-.012.22-.127.316-.311.191-.47-.123-.158-.285-.136-.525.012zm1.185-.375c-.242.005-.224.156-.19.276.032.121.064.197.262.191.197-.004.227-.05.161-.246-.065-.195-.081-.224-.233-.221zm.732.212c.006.273-.039.26.234.299.273.039.364.021.374-.236.009-.258.022-.348-.296-.356-.318-.009-.316.096-.312.293zm1.127.219c-.079.217-.188.397.148.526.336.129.35.038.449-.252s.111-.427-.147-.498c-.258-.069-.349-.052-.45.224zm1.2.08c-.013.121-.111.457-.154.563.138.058.32.129.46.217.139.089.33-.157.265-.384-.067-.226-.319-.585-.571-.396zm1.42-3.625c-.041.152-.183.655-.239.793.396.098.7.151.974.131.271-.021.711-.106.924-.066.213.041.33-.174-.024-.439-.354-.265-.567-.306-.796-.301-.227.005-.613-.275-.839-.118zm1.513 1.877c-.272-.041-.42.176-.235.324.186.146.428.082.454-.056.027-.138.04-.227-.219-.268zm.607-.075l.056.484.626.184c.217.193.379-.008.42-.207.041-.197.07-.305-.112-.301-.397.01-.66-.333-.99-.16zm-4.303-4.666c.048.104.174.345.177.466.185.116.612.243.729.028s.16-.307-.039-.408c-.2-.101-.633-.47-.867-.086zm1.631.373c-.132.147-.025.228.158.33.186.103.316-.067.299-.205-.019-.134-.265-.341-.457-.125zm-5.987 10.327c.14.123.249.297.213.5-.036.203.087.28.229.338.142.059.516.41.587.028.073-.387-.243-.985-.467-1.021-.224-.035-.324-.033-.428-.152s-.402.068-.134.307zm12.457-1.608c-.094.346-.461 1.102-.699 1.248-.368-.174-1.038-.32-1.104-.521.133-.365.269-.673.364-.896.424-.093 1.092-.128 1.439.169zm-2.274-.515c-.015.264-.163.853-.239 1.057-.424.05-1.438-.15-1.779-.021.015-.283.007-.646.084-.83.645-.018 1.242-.435 1.934-.206z" fill="#fff"/></svg>