<svg xmlns="http://www.w3.org/2000/svg" width="64" height="48"><path fill="#004288" d="M0 0h64v24h-64z"/><path fill="#E50040" d="M0 24h64v24h-64z"/><path d="M10.206 13.103c-.252.125-.588.231-.778.45 1.127.591 1.326 2.7 1.983 3.7.363.553 1.856.306 2.484.319 1.238.025 2.475.046 3.713.065 1.259.02 2.519.038 3.778.055 1 .014 2.289.39 2.793-.682.363-.769.709-1.564 1.19-2.269.168-.246.384-.561.68-.667.542-.194-.724-.764-.896-.796.292-.218.321-.555.1-.836.333-.238.506-.701.073-.942.275-.23.461-.895-.093-.916.286-.412.202-.996-.398-.969.118-.345-.081-.73-.472-.729-.372 0-.48-.88-1.055-.358-.171-.401-.659-.738-.955-.239-.225-.311-.722-.492-.942-.066-.259-.192-.728-.187-.862.159-.255-.255-.711-.278-.902.066-.201-.121-.49-.187-.696-.033-.363.27-.094-.059-.485.073.329-.424.204-1.171-.358-1.327.161-.31-.156-.915.062-.991.163.094.448.352.65.213.066-.046.531-.302.495-.402-.201-.553-.812-.338-1.15-.169-.257-.277-.075-.394.106-.721.122-.223-.137-.542-.238-.729-.234-.436-.743.451-.634.681.084.177.321.498.174.635-.173.159-.581-.194-.923.014-.17.104-.499.184-.259.368.119.09.363.324.523.324.414 0 .283-.216.675-.037-.215.343-.3.433-.105.801-.629.17-.73.899-.465 1.414-.119-.019-.22.014-.306.099-.144-.181-.404-.33-.643-.256-.144.18-.265.153-.363-.081-.218-.153-.516-.163-.724.019-.201-.343-.615-.469-.893-.134-.097-.187-.33-.279-.53-.258-.471.049-.108.242-.603.071-.174-.053-.333-.024-.479.086-.384.289-.126.082-.55.063-.488-.022-.378.506-.785.539-.406.033-.602.376-.494.756-.555.031-.689.513-.336.902-.546.121-.633.657-.204.991-.439.182-.403.729.009.92-.286.237-.208.638.088.824-.239.119-.348-.217 0 0z"/><path d="M10.288 11.5c-.44 0-.44.655 0 .655s.44-.655 0-.655zm.159.832c-.44 0-.44.655 0 .655s.44-.655 0-.655zm-.15-1.778c-.44 0-.44.655 0 .655.439 0 .439-.655 0-.655zm.274-.921c-.44 0-.44.656 0 .656s.44-.656 0-.656zm.522-.761c-.439 0-.439.655 0 .655.44 0 .44-.655 0-.655zm.796-.544c-.457 0-.457.682 0 .682.458 0 .458-.682 0-.682zm.849-.182c-.458 0-.458.683 0 .683s.458-.683 0-.683zm.867-.052c-.458 0-.458.682 0 .682s.458-.682 0-.682zm.885.115c-.458 0-.458.682 0 .682s.458-.682 0-.682zm.885.15c-.458 0-.458.682 0 .682s.458-.682 0-.682zm.841.186c-.458 0-.458.682 0 .682.457 0 .457-.682 0-.682zm.813.15c-.458 0-.458.682 0 .682s.458-.682 0-.682zm1.469-.066c-.458 0-.458.682 0 .682s.458-.682 0-.682zm.783-.159c-.458 0-.458.682 0 .682s.458-.682 0-.682zm.823-.146c-.458 0-.458.682 0 .682s.458-.682 0-.682zm-2.304-2.573c-.343 0-.343.511 0 .511s.343-.511 0-.511zm3.193 2.479c-.458 0-.458.683 0 .683s.458-.683 0-.683zm.862-.092c-.457 0-.457.683 0 .683.458-.001.458-.683 0-.683zm.916.08c-.458 0-.458.682 0 .682s.458-.682 0-.682zm.89.292c-.458 0-.458.682 0 .682.457-.001.457-.682 0-.682zm.73.544c-.458 0-.458.682 0 .682s.458-.682 0-.682zm.544.717c-.458 0-.458.682 0 .682s.458-.682 0-.682zm.212.967c-.433 0-.433.643 0 .643.432 0 .432-.643 0-.643zm-.027.876c-.432 0-.432.643 0 .643.433 0 .433-.643 0-.643zm-.199.889c-.432 0-.432.644 0 .644.433-.001.433-.644 0-.644zm-7.201-2.933c-.304 0-.304.453 0 .453s.303-.453 0-.453zm.035-.645c-.279 0-.279.452 0 .452s.279-.452 0-.452zm-.053 1.291c-.357 0-.357.533 0 .533s.358-.533 0-.533zm.018.703c-.408 0-.408.608 0 .608s.408-.608 0-.608zm-.009.762c-.408 0-.408.607 0 .607s.408-.607 0-.607zm-5.883 5.73c.113-.032.175-.337.141-.366.113.095.035.314.219.269.09-.021.138-.286.133-.289.105.067.017.252.185.213.174-.039.046-.265.106-.277.093-.02.037.246.203.211.221-.049-.002-.217.121-.28-.011.005.136.231.25.208.103-.02.213-.273.168-.307.152.114.016.28.262.235.284-.051.018-.185.177-.253.006-.003.12.214.24.193.112-.02.257-.27.203-.347.109.155-.049.324.199.297.103-.01.263-.226.208-.283.11.117-.038.253.176.243.116-.005.232-.285.215-.304.112.125-.045.285.178.27.27-.021.002-.264.188-.305.047-.01.03.288.198.278.226-.013.12-.261.213-.266.133-.007-.017.257.202.245.236-.015.039-.272.185-.285.103-.009-.028.276.2.27.129-.002.245-.288.24-.292.173.154-.104.284.208.284.134 0 .353-.236.292-.302.115.125-.051.299.173.301.116.001.521-.107.381-.278.131.159-.106.271.163.289.301.02.005-.247.197-.273.069-.009.004.276.153.286.124.007.188-.322.227-.286.159.148-.118.292.153.304.112.006.212-.302.228-.282.12.145-.112.27.139.307.264.041.091-.152.2-.292.069-.089.08.307.102.313.337.098.2-.086.34-.273.064-.085.063.322.108.325.128.01.34-.223.302-.27.102.129-.108.272.122.311.121.021.275-.234.271-.239.091.125-.102.25.102.288.129.025.259-.258.267-.244.14.235-.116.291.271.325l.178-.257c.043.053-.027.291.05.302.268.04.104-.22.272-.246.014-.002.009.28.115.31.116.033.215-.283.262-.223.105.138-.152.222.061.287.106.033.299-.165.279-.2.079.14-.124.234.097.281.232.052.087-.229.248-.216.076.006-.09.253.093.296.244.058.105-.249.273-.222.106.017-.085.263.088.313.208.062.132-.256.246-.23.052.012-.027.534.354.212.297-.251.474-.708.634-1.052.368-.791.687-1.714 1.392-2.277.761-.608-.97-.776-1.428-.721-.369.044-.71.203-.979.462-.28.271-.395.893-.677 1.088.037-.025.068-1.057.051-1.226-.045-.441-.242-.916-.707-1.048-.501-.143-1.03.031-1.443.322-.147.104-1.218 1.248-1.06 1.38-.281-.235-.256-1.102-.538-1.458-.289-.365-.72-.521-1.175-.514-.431.007-.881.097-1.218.383-.156.132-.705 1.375-.593 1.37-.196.009-.843-.929-1.02-1.097-.297-.281-.663-.594-1.095-.601-.422-.007-.741.266-.937.621-.085.154-.409 1.271-.291 1.33-.15-.075-.294-.617-.429-.772-.206-.235-.475-.411-.773-.504-.194-.06-1.9.058-1.681.398.401.621.745 1.131 1.023 1.84.122.308.715 2.11 1.119 1.997zm-.171-7.111c-.323.418-.263 1.559 0 2.114v-2.114zm.126 2.303c.074.122.168.224.285.306v-2.984c-.621.417-.285 1.995-.285 2.678zm.406.374c.598.137.33-1.176.33-1.553v-1.734c-.727.28-.33 2.542-.33 3.287zm.45-.072c.502-.282.306-.89.306-1.402v-1.938c-.563.116-.306 1.119-.306 1.613v1.727zm.424-.333c.446-.338.279-.842.279-1.418v-1.646c-.521.043-.279 1.009-.279 1.45v1.614zm.399-.21c.434-.132.238-.816.238-1.262v-1.603c-.45-.011-.238.87-.238 1.239v1.626zm.358-.043l.252.045v-1.421c0-.405.229-1.418-.252-1.441v2.817zm.359.08l.318.161v-1.582c0-.498.25-1.366-.318-1.444v2.865zm.437.241l.271.234c0-.628.337-3.112-.271-3.257v3.023zm.4.334l.277.196c0-.636.35-3.283-.277-3.427v3.231zm.397.237c.532.116.291-1.29.291-1.605 0-.532.244-1.466-.291-1.712v3.317zm.404-.138c.508-.296.325-.886.325-1.407 0-.536.223-1.276-.325-1.536v2.943zm.432-.408c.223-.421.639-1.562 0-2.238v2.238zm2.833-2.328c0 .708-.362 2.41.332 2.822v-3.041c-.122.057-.232.13-.332.219zm2.509 2.098l.266.061v-1.435c0-.392.237-1.476-.266-1.438v2.812zm.397.104l.292.186v-1.544c0-.458.257-1.546-.292-1.567v2.925zm.704-2.816l-.292-.071v1.779c0 .576-.196 1.272.292 1.652v-3.36zm.132 3.45l.306.062c0-.722.396-3.204-.306-3.468v3.406zm-3.291.047l.306.015v-3.274c-.675.202-.306 2.571-.306 3.259zm.703-3.366c-.523.125-.278 1.121-.278 1.598v1.721c.669-.471.278-2.512.278-3.319zm.12 3.047c.666-.437.292-2.354.292-3.14-.525.115-.292.928-.292 1.411v1.729zm.408-.252c.484-.251.291-.817.291-1.355v-1.612c-.519.085-.291.847-.291 1.312v1.655zm.415-.164c.501-.144.292-.743.292-1.262v-1.592c-.52.048-.292.802-.292 1.253v1.601zm-2.203-2.033c-.431.55-.293 1.621 0 2.207v-2.207zm4.273-.465v3.201c.517-.295.306-1.131.306-1.628 0-.558.198-1.233-.306-1.573zm.425 2.648c.34-.626.457-1.598 0-2.219v2.219zm-5.083-3.125c1.415-.312 3.513-.991 4.908-.246.688.367 1.104 1.111 1.167 1.875.037.459-.031.921-.141 1.367-.061.248-.135.491-.214.733-.237.037-.503.097-.716.212.504-1.182.997-2.674-.215-3.616-1.237-.96-3.433-.333-4.749.099-.034-.139-.048-.281-.04-.424 3.424-.756-.016.135 0 0zm-.133-.013c.014 1.005-.02 2.084.292 3.052-.134-.088-.28-.145-.438-.172l-.074-.746-.11-1.192c-.039-.46-.273-1.004.33-.942.014.982-.133-.014 0 0zm-1.473.026c-.042.986-.085 2.107-.469 3.03.738-.304.667-.764.748-1.517.057-.526.435-1.561-.279-1.513-.04.956.2-.013 0 0zm-.199.053c-1.405-.439-3.57-1.136-4.987-.336-.509.288-.855.9-.978 1.457-.088.402-.073.82-.009 1.225.053.332.138.659.24.979.253.047.529.071.743.232-.571-1.19-1.046-2.845.445-3.551.741-.352 1.642-.271 2.427-.146.405.064.805.153 1.203.252.383.094.916.458.916-.112-3.125-.975 0 .08 0 0zm.697-2.289c.013-.004-.514.294-.352.382.552.296.282-.363.352-.382zm.169-.019c0 .562-.054.542-.581.57-.106.006-.108.313.104.282.393-.061.811-.052 1.2.026.145.029.111-.374-.352-.355.138-.007-.371-.862-.371-.523zm.385.122c0 .2.134.429.388.292.085-.046-.388-.516-.388-.292zm-.902.863c-.034.007.408.874 1.006.426.774-.58-.693-.499-1.006-.426zm.483-1.146c-.188-.245-.154-.68.203-.727.33-.031.369.679-.203.727-.057-.075.114-.009 0 0zm-.262-1.044c-.165.086-.851.307-.882-.109-.005-.079.31-.206.369-.235.333-.166.456.128.513.344-.092.049-.017-.066 0 0zm.452-.468c-.155-.344-.525-.957.041-1.216.065-.03.31.5.322.583.027.191-.263.539-.363.633zm.403.318c.102.519.553.342.906.133.132-.074-.406-.387-.305-.313-.169-.124-.444.122-.601.18.009.045.119-.044 0 0z" fill="#FFD851"/><path d="M10.502 14.062c-.153-.042-.245-.131-.276-.265.158-.216.511.453.276.265zm.332-.013c.144.129-.424-.363-.19-.376.17-.01.289.465.19.376zm.18-.191c.028.166.107.288.238.369.268.01-.397-.719-.238-.369zm.406.111c-.002.158.056.265.173.319.298-.177-.242-.554-.173-.319zm.358.168c-.005.124.034.226.115.305.265-.042-.165-.552-.115-.305zm1.354.522c-.02-.033-.228-.443-.317-.275-.093.173.416.434.317.275zm.054-.313c.068.082-.385-.346-.218-.425.151-.071.341.571.218.425zm-.037-.607c.01.019.182.349.242.3.075-.061-.078-.439-.199-.449-.074.023-.088.073-.043.149zm.369-.027c.03.066-.252-.367-.049-.345.164.018.118.499.049.345zm.318-.07c.087.2-.313-.457-.096-.411.209.044.161.561.096.411zm.318-.004c-.112-.115-.156-.243-.131-.382.168-.224.236.655.131.382zm.252-.178c-.032-.083-.01-.131.067-.145.098.03.192.521.136.523-.111-.097-.179-.223-.203-.378zm.411.178c.007.039.067.387.156.358.202-.067-.196-.581-.156-.358zm1.532.584c-.098-.134-.109-.261-.035-.382.25-.082.088.664.035.382zm.212-.399c.026.102-.224-.453-.009-.413.209.038.052.591.009.413zm.305-.367c0 .167-.138-.515.052-.42.172.085-.052.549-.052.42zm.319-.177c-.09-.157-.079-.285.035-.385.251-.07-.015.663-.035.385zm.304.022c-.011-.073-.1-.381-.011-.441.277-.185.057.751.011.441zm.315.013c-.003-.072-.081-.425.086-.422.196.003-.078.641-.086.422zm.318.013c.002-.054-.018-.333.074-.354.218-.051-.084.631-.074.354zm.234.301c.013-.064.026-.441.152-.429.281.028-.223.793-.152.429zm.252.178c-.006-.106.033-.176.119-.209.232-.011-.191.425-.119.209zm1.341.592c.002.015-.078-.393.089-.348.182.049-.069.524-.089.348zm.363-.305c-.051-.188-.005-.322.137-.405.209-.003-.164.63-.137.405zm.354-.172c.012-.076-.032-.478.183-.475.205.004-.21.643-.183.475zm.313-.138c-.022.115.044-.562.226-.417.151.119-.261.605-.226.417zm.399-.11c-.008.053.016-.468.194-.336.136.101-.23.564-.194.336zm.274.199c.006-.022.097-.572.221-.439.171.185-.259.579-.221.439zm.208.226c.005-.188.081-.32.226-.398.203.049-.318.643-.226.398zm.107.296c.041-.056.136-.288.252-.236.241.106-.416.456-.252.236zm1.508.057c-.001-.16.063-.252.193-.279.142.04-.201.496-.193.279zm.323-.088c.024-.074.091-.483.26-.418.181.069-.319.594-.26.418zm.362-.115c.015-.036.188-.554.333-.383.102.12-.396.535-.333.383zm.376-.058c-.029.057.177-.479.318-.312.134.158-.421.523-.318.312zm.328-.066c.065-.151.172-.227.32-.227.219.088-.515.474-.32.227zm-1.765 2.543c.147-.242.889-1.461 1.197-1.417-.08-.012-.701.312-.475-.087-.019.034.342-.611.233-.595-.144.022-.461.546-.572.675-.29.335-.262-.309-.41-.222.009-.005-.124 1.663-.086 1.7l.113-.054zm-2.312-.502c.037-.121.865-1.633.933-1.547-.089-.113-.374.272-.497.155-.171-.164.268-.662.125-.771-.06-.045-.361.655-.408.709-.208.238-.349-.49-.425-.384-.113.16.156.994.168 1.218.005.078.041.828.104.62zm-3.085-.17c.065-.389.153-.773.3-1.14.095-.239.439-.675.415-.927-.005-.053-.347.323-.426.306-.273-.06-.146-.717-.308-.733-.049-.004-.177.57-.233.647-.187.254-.571-.301-.662-.177-.074.1.51.847.571.973.077.159.378 1.101.299 1.175l.044-.124zm-3.065.164c-.034-.212-.212-1.703.018-1.788-.1.037-.177.439-.343.195-.041-.059-.37-.722-.403-.701-.102.063.108.619.115.75.023.439-.361-.078-.457.047-.022.029.592.654.648.735.086.125.447.922.422.762zm-2.363.199c-.058-.135-.316-1.584-.145-1.592-.135.006-.038.376-.237.346-.215-.033-.469-.697-.695-.611-.016.006.273.535.28.614.026.317-.493-.161-.556-.016-.013.03 1.357 1.268 1.353 1.259z"/></svg>