<svg xmlns="http://www.w3.org/2000/svg" width="64" height="48"><path fill="#FFE000" d="M0 0h64v48h-64z"/><path fill="#00634E" d="M3 3h6v42h-6z"/><path fill="#F07D1B" d="M9 3h6v42h-6z"/><path fill="#AB273B" d="M17 3h44v42h-44z"/><path d="M41.002 21.698c1.125-.286 2.996.365 4.455-.178 1.305-.485 2.75.286 3.877-.286.544-.276 1.708-.343 1.771-2.028.046-1.256-.855-2.084-2.752-1.514-1.897.571-3.711.571-4.815-.314-1.104-.885-1.229.571-1.104 1.085-.979-1.056-.689-2.027-.313-2.627-2.168-3.284.396-5.94 2.668-5.94 2.229 0 3.253 1 5.003 2.771.513.518 1.616 2.156 1.98 1.856-.376-1.128.828-1.768 1.115-.443.218 1.014-.387 1.871-1.241 1.642-1.335-.357-1.188-1.285-2.668-2.57.335.357-.104 1.243.751 1.67-.729.128-1.543-.6-1.771-1.556-.105 1.085-.646 1.571-1.292 1.428.916-1.485.374-2.627-.604-3.056.812 1.514-.063 3.027-1.209 3.027.916-1.313.499-2.57-.354-3.141-.297-.198-.688-.229-.5.057.187.285.021 1.199-.375 1.371.021-1.057-1.095-.78-1.314 0-.176.628-.146 1.213.48 1.742.438-1.342 1.729-1.056 1.709-.4-1.084.257-.896 1.457-.438 2.028.021-.571.52-1.085.812-.885-.208 1.485 1.333 1.428 2.46 1.256 1.124-.171 2.5-.799 3.75.057 1.253.857 1.668 3.713-.082 5.083 1.75 2.798 1 5.769.25 8.682-.736 2.861.041 4.684.501 4.684.312 0 .479.143.375.6-.232 1.019-1.126.941-1.167 2.171-.044 1.227.978 1.798.54 2.398-.749 0-.837-.149-1.051-.557-.158.356-.188.557-.553.557-.36 0-.532-.172-.656-.557-.183.428-.344.557-.637.557-.334 0-.405-.192-.499-.557-.188.37-.429.557-.793.557 0-1.514 1.251-1.8 1.688-1.913.437-.114.542-.458.542-.829 0-.37-.021-1.143-.063-1.884-.059-1.061-.995-1.688-1.904-2.493-.232.595-.723.922-.345 1.692.277.575.854.4.916.086.375 1.371-1.396 1.8-.834 3.641.195.643.158.969-.103 1.682-.575 0-.763-.054-1.023-.481-.165.386-.177.554-.621.554-.4 0-.433-.354-.515-.625-.146.329-.156.553-.571.553-.365 0-.397-.153-.544-.553-.25.442-.541.567-.865.553 0-1.085.595-1.71 1.262-1.595.666.114.979-.157 1.104-.7.126-.542-.104-1.057 0-2.027.212-1.97-2.097-3.429-1.667-5.826-2.397 0-4.134 2.197-5.615 2.626-.285.723-.565 1.333-.721 1.716-.501 1.227.584 1.541 1.146 1.341-.167.985-.739 1.571-1.271 1.714-.533.143-.543.514-.354 1.028.188.514.124.856-.325 1.735-.896 0-.905-.25-.999-.465-.146.157-.21.465-.625.465-.507 0-.516-.107-.709-.465-.197.314-.218.465-.614.465s-.423-.115-.543-.465c-.167.285-.27.465-.751.465.449-3.677 2.022-.507 2.92-2.792.381-.973-.118-2.335-.47-3.928-.621-.369-1.199-.835-1.637-1.299-1.563 2.94-2.357.449-2.855-.142-.552-.658-.761.042-.667.441-.323-.485-.468-.813-.354-1.87.115-1.058-.292-1.257-1.125-1.399-.834-.143-.855-1.628-.896-2.999-.042-1.37 1.521-.971 1.667-.771.79 1.082 1.855 2.484 2.568 3.556-.605-2.848.578-5.95 2.508-7.397.666-.5.781-1.084.458-1.385-.229-.214-.676.428-.572.814-.646-.443-.429-1.071-.699-1.371.053.3-.146.771-.072 1.057-.105-.357-.429-.243-.552-1.028-.355.386-.72.471-1.074.4.448-.257.24-.686.416-.814-.53.443-1.125.157-1.396.4.407-.4.198-1.571.71-2.158-.199-.172-.336-.371-.397-.597-.131-.479-.011-.857.708-.272.751.612 1.834 1.114 2.961 1.171-.378-.802-.871-1.147-.969-2.013-.146.414-.146.728-.042 1.1-.137-.4-.554-.286-.835-1.057.094.314 0 .628.126.899-.866-.414-.646-.885-1.314-1.627-.819-.913-.489-1.271-.688-1.728-.18-.417-.219-1.499.563-1.685.637-.151.99.971.625 1.428.271-.314.849-.079 1.262-.386.594-.442 1.01.342 1.656-.856.23-.428-.136-.729-.03-1.014.062.4 1.196-.407 1.688.5.449.828.719-.428.376-1.1.322.443 1-.042 1.604 1.442-.022-.385.427-.742.229-1.328.625.243 1.093.606 1.26.985.24.542 1 .357 1.303-.7.105.985-.165 1.685-.749 2.542.604.8.531 2.062.428 2.805.114.614-.116 1.793-.043 2.236-.015-.127-.102-.251-.218-.394-.094 1.071.438 1.479.238 2.264.039-.212-.184-.459-.479-.743-.094.786.238 1.671.52 1.728l-.196.072c.038.125.088.241.15.348zm-12.262 3.392c0-9.595.313-16.621 1.125-17.42-3.251 2.313-2.876 7.882-2.876 17.42l.411.486v4.512c-.26.172-.5-.586-.781.057-.194.444.375.9.781.543-.01.428-.239.871-.468.999.5.528.573 1.771-.021 2.071.114-.229-.365-.715-.583-.229-.219.485.323 1.156.864 1.128-.01.229-.271.528-.542.686.135.114.5.229.75.2.021.428.063.771.344 1.056.282-.285.323-.628.344-1.056.25.028.615-.086.75-.2-.271-.157-.532-.457-.542-.686.542.028 1.084-.643.865-1.128-.218-.486-.698 0-.583.229-.594-.3-.521-1.543-.021-2.071-.229-.128-.459-.573-.469-1.002.26-.172.5.582.782-.061.194-.445-.375-.896-.782-.54v-4.508l.652-.486zm-.891.942c2.314 0 2.1-2.112 1.309-2.427-.793-.314-.845.971-.449 1-.094.428-.579.457-.86.457s-.766-.029-.86-.457c.396-.029.344-1.314-.448-1-.792.315-1.006 2.427 1.308 2.427zm.672.714c.092-.251.51-.342.604-.613.146.571-.114.6-.229.899-.042.109-.344.457-.574.143-.046-.065.126-.229.199-.429zm-.719-.57c.552.257.803.343.729.771-.08.471-.542.258-.823.129-.281-.129-.771-.2-.74-.757.02-.352.472-.312.834-.143zm.719 1.413c.092-.252.51-.342.604-.614.146.571-.114.6-.229.9-.042.108-.344.457-.574.143-.046-.065.126-.229.199-.429zm-.719-.571c.552.257.803.344.729.771-.08.471-.542.257-.823.129-.281-.129-.953-.112-.906-.9.031-.529.638-.168 1 0zm.719 1.414c.092-.251.51-.343.604-.614.146.571-.114.6-.229.899-.042.109-.344.458-.574.144-.046-.065.126-.23.199-.429zm-.719-.572c.552.257.803.343.729.771-.08.472-.542.258-.823.13-.281-.13-.719-.029-.698-.758.01-.352.43-.312.792-.143zm.719 1.342c.092-.251.51-.342.604-.613.146.571-.114.6-.229.899-.042.109-.344.457-.574.143-.046-.065.126-.229.199-.429zm-.719-.499c.552.257.803.342.729.771-.08.47-.542.256-.823.128-.281-.128-.583-.186-.583-.699 0-.352.315-.369.677-.2zm-8.375-21.543c.079-.466.177-.945-.151-1.099-.285-.134-.389-.479-.12-.847s.521-.227.619.165c.111.448.47.355.801.208 1.646-.734 2.81 2.939 2.544 5.491 0-1.678-4.349.017-3.693-3.918zm39.145 0c-.077-.466-.175-.945.152-1.099.285-.134.388-.479.12-.847-.269-.368-.521-.227-.618.165-.112.448-.471.355-.804.208-1.646-.734-2.809 2.939-2.544 5.491.001-1.678 4.351.017 3.694-3.918zm-39.145 33.68c.079.467.177.945-.151 1.1-.285.134-.389.479-.12.847.269.367.521.227.619-.164.111-.449.47-.356.801-.207 1.646.734 2.81-2.94 2.544-5.492 0 1.676-4.349-.02-3.693 3.916zm39.145 0c-.077.467-.175.945.152 1.1.285.134.388.479.12.847-.269.367-.521.227-.618-.164-.112-.449-.471-.356-.804-.207-1.646.734-2.809-2.94-2.544-5.492.001 1.676 4.351-.02 3.694 3.916z" fill="#FFE000"/></svg>