<svg xmlns="http://www.w3.org/2000/svg" width="64" height="48"><path fill="#E30613" d="M0 0h64v48h-64z"/><path fill="#009640" d="M24.235 34.1l2.786-8.589-7.311-5.306h9.031l2.788-8.594 2.797 8.594h9.029l-7.303 5.306 2.794 8.583-7.307-5.303-7.304 5.309zm3.831-7.831l-1.498 4.617 3.928-2.854-2.43-1.763zm4.52 1.762l3.925 2.849-1.501-4.61-2.424 1.761zm-4.121-2.99l3.075 2.232 3.07-2.23-1.175-3.61h-3.8l-1.17 3.608zm6.262-3.608l.928 2.851 3.923-2.851h-4.851zm-11.233 0l3.926 2.85.925-2.85h-4.851zm9.542-1.228l-1.504-4.62-1.499 4.62h3.003z"/></svg>