<svg xmlns="http://www.w3.org/2000/svg" width="64" height="48"><path fill="#FFE247" d="M21 0h22v48h-22z"/><path fill="#E40520" d="M43 0h21v48h-21z"/><path fill="#4999BA" d="M0 0h21v48h-21z"/><path fill="#FFE247" stroke="#000" stroke-width=".125" d="M30.02 13.617c.16.026.298-.014.417-.121.137.194.137.391 0 .59-.118-.107-.257-.148-.417-.123 0 .485.221 1.441-.159 1.767-.381-.327-.161-1.281-.161-1.767-.16-.026-.298.015-.416.123-.137-.194-.137-.391 0-.59.118.107.257.147.416.121.026-.168-.011-.319-.11-.454.184-.15.364-.15.542 0-.102.134-.138.286-.112.454.161 0 0-.176 0 0z"/><path d="M32.027 33.786c.291-.229.601-.434.911-.635.428-.278.427-.231.218-.692-.355-.785-.7-1.658-.716-2.531.327.942.852 1.831 1.379 2.673.403-.271.843-.491 1.263-.733-.889-1.019-1.806-2.236-2.199-3.546-.301.164-.651.338-.855.626-.205-.288-.554-.462-.856-.626-.394 1.31-1.311 2.527-2.199 3.546.42.242.86.462 1.263.733.526-.843 1.053-1.73 1.38-2.673-.015.785-.303 1.568-.607 2.283-.134.314-.438.59-.115.796.384.247.773.495 1.133.779.375-.296-.376-.296 0 0zm-4.199-14.558v5.769c0 1.081.155 2.318-.604 3.193-.431.496-.125 1.282-.786 1.741-.588.409-.673 1.147-1.422 1.487v-12.852c0-.713-.068-1.517.347-2.137.629-.941 1.208-.86 2.115-.207.392.282.527.445.349.911-.089.234-.182.483-.161.739.033.399.237.154.53.244.827.251 1.46 1.455 2.453.61.34-.29.478-.752.527-1.18.093-.082.632 0 .752 0h.918c-.068 0 .413 1.058.556 1.18.861.732 1.57-.123 2.268-.529.207-.12.439-.14.672-.096.066-.234.052-.454-.018-.685-.185-.607-.313-.79.249-1.195.844-.608 1.405-.754 2.035.094.483.651.427 1.478.427 2.25v12.853c-.681-.309-.74-1.109-1.253-1.384-.54-.289-.733-.812-.795-1.394-.054-.519-.54-.877-.662-1.424-.136-.615-.102-1.26-.102-1.886v-6.02c.002-.168-7.515-.082-8.395-.082zm5.623-.425c-.205-.056-.426-.089-.606-.211.255.598-.288.201-.435-.039-.148.17-.27.372-.383.566-.141-.172-.291-.345-.408-.536-.06.238-.701.434-.587.199-.149.167-.444.219-.655.225.442-.637.61-1.516.681-2.272.067-.72-.155-1.01-.341-1.616-.194-.634.049-1.034.743-1.137.596-.088 1.159.462 1.701.284-.03.115-.096.204-.197.266l.355.418c-.065.062-.144.085-.233.071.18.115.104.374.3.49-.081.05-.165.054-.253.01.239.294.034.765.165 1.093-.108-.046-.163-.132-.165-.257.007.799-.066 1.714.318 2.446-.187-.052-.357-.681 0 0z" fill="#F59E00" stroke="#000" stroke-width=".125"/><path d="M31.052 14.45c.292.05.933-.09 1.163.109m-.82 2.106c-.009.597-.059 1.534-.348 2.116m.769-2.085c-.047.572-.076 1.461-.184 1.887m.55-1.847c.025.542-.001 1.416.243 1.816m.216-1.642c.03.52.042 1.259.219 1.681m-5.772 9.748c.139-2.933.009-5.899.009-8.835m-1.02 10.622c.468-1.855.14-4.224.14-6.132v-4.634m1.626-2.819c-1.033.716-1.081 2.021-.699 3.116.105-.45.383-.904.652-1.272m.429.819c.019-.347.517-.535.563-.667m-.048.063c.09.22.234.427.4.597l.16-.312m-2.259-2.943c-.337.45-.281 1.396 0 1.642m-.141-1.378c-.6.664-.94 1.369.007 2.114m-.863-2.621c-.169.316-.043 1.211.284 1.436m-1.049-.562c-.05.373.039.725.272 1.021.124-.271.301-.567.571-.715m.214.651c-.53.694-.462 1.308-.007 2.024.074-.41.17-1.002.541-1.264m-1.213-.901c-.075.357.062.715.278.889m-.44-.745c-.548.692-.562 1.317-.093 2.083.232-.327.191-.88.515-1.133m1.792-.382c.07.232.217.801.542 1.126m8.715 9.112c-.149-2.931-.01-5.9-.01-8.835m1.02 10.622c-.467-1.856-.139-4.223-.139-6.132v-4.634m-1.627-2.819c1.033.716 1.081 2.021.698 3.116-.104-.45-.383-.904-.651-1.272m-.429.819c-.019-.347-.518-.535-.564-.667m.048.063c-.091.22-.234.427-.399.597l-.16-.312m2.259-2.943c.338.45.28 1.396 0 1.642m.14-1.378c.6.664.939 1.369-.007 2.114m.863-2.621c.17.316.044 1.211-.283 1.436m1.048-.562c.051.373-.038.725-.271 1.021-.124-.271-.302-.567-.572-.715m-.212.651c.529.695.461 1.308.007 2.024-.074-.41-.171-1.002-.542-1.264m1.213-.901c.075.357-.062.715-.278.889m.44-.745c.549.692.562 1.317.094 2.083-.232-.327-.19-.879-.515-1.133m-1.794-.382c-.069.232-.216.801-.542 1.126" stroke="#000" stroke-width=".125" fill="none"/><path fill="#E40520" stroke="#000" stroke-width=".125" d="M27.829 23.495c0-.306-.006-4.268.006-4.268h6.213c.335 0 1.921-.236 2.177 0 .326.301-.253 4.268-.006 4.268h-8.39z"/><path fill="#4999BA" stroke="#000" stroke-width=".125" d="M36.225 23.495c0 1.063.366 3.037-.69 3.731-1.021.67-2.758.644-3.507 1.721-1.052-1.511-3.959-.818-4.175-3.018-.032-.332-.071-2.435.032-2.435h1.146l7.194.001z"/><path d="M32.026 28.181c.315 0 .438-.097.608-.326.156-.211.48-.048.614-.295.155-.286-.032-.591-.237-.777-.26-.233-.254-.479-.254-.799 0-1.164-.002-2.063 1.397-2.063-.129-.184-.246-.375-.353-.574 1.694-.74 1.584-3.074-.107-3.71.467.554.851 1.8.196 2.38-.12.106-.67.479-.805.479l-.502-.235-.558.235c-.415 0-.43-.371-.846-.061-.279.208-.661-.231-.899-.339-.872-.396-.346-1.956.077-2.458-1.692.637-1.802 2.97-.107 3.71-.106.198-.224.39-.353.574 1.399 0 1.397.9 1.397 2.063 0 .318.006.565-.253.799-.206.187-.394.49-.239.777.134.247.458.084.614.295.173.228.295.325.61.325zm-3.213-1.902c-.867.063-.102-.973-.082-1.12.042-.308.398-.503.655-.287.239.201.475-.058.704.241.143.186.123.469-.051.628.264.179.252.613-.027.771-.139.073-.274.067-.407-.018-.038.157-.132.264-.282.319-.324.105-.578-.237-.51-.534-.225.017-.054.238 0 0zm6.585-1.233c-1.07-1.131-2.446 1.01-1.095 1.711-.345-.78.218-1.742 1.095-1.711-.438-.463-.982-.035 0 0zm-3.371-5.272c.086.31.292.439.59.265-.138.288-.08.539.244.643-.327.101-.379.354-.244.643-.297-.179-.5-.043-.59.266-.09-.308-.293-.444-.59-.266.135-.288.083-.542-.244-.643.323-.104.381-.356.244-.643.297.174.503.045.59-.265zm-1.06 5.124c0 .236.159 1.517-.163 1.592l-.263-1.564c.129-.009.3-.053.426-.028zm-.244-.155c.228-.139.228-.308 0-.447-.228.139-.228.308 0 .447zm2.362.155c0 .236-.159 1.517.163 1.592l.264-1.564c-.129-.009-.301-.053-.427-.028zm.244-.155c-.228-.139-.228-.308 0-.447.228.139.228.308 0 .447zm-3.423-1.248c-.195.089-.687.563-.877.563s-.683-.474-.878-.563c.195-.089.688-.563.878-.563s.681.474.877.563c-.439.2-.439-.2 0 0zm4.24 0c.195.089.688.563.879.563s.683-.474.878-.563c-.195-.089-.688-.563-.878-.563s-.683.474-.879.563c.44.2.44-.2 0 0z" fill="#FFE247" stroke="#000" stroke-width=".125"/><path fill="#E40520" stroke="#000" stroke-width=".125" d="M30.771 15.235c0-.396.459-.21.646-.102.016-.072-.627-.621-.714-.699-.351-.315-.95-.104-1.067.333.207-.168.911-.272 1.016.083-.165-.135-.449.034-.634-.034.036.297.546.117.753.419 0-.255-.217-.318 0 0z"/><path d="M31.833 14.697c-.181-.296-.432-.075-.641-.029.361.238.28.022.641.029-.089-.146-.163-.003 0 0z"/><path fill="#fff" d="M31.542 14.788c-.238.299-.216-.473.005-.154l-.101.077.096.077z"/><g fill="#086" stroke="#000" stroke-width=".125"><path d="M27.618 30.195c.089.196.888 1.085.863 1.196-.13.58-.674-.263-.738-.369-.625-1.035-.938-2.219-1.683-3.196-.252-.331-2.46-3.544-2.411-3.577.311-.209 3.725 5.409 3.969 5.946zm-4.698-6.526c.074.226.325.784.87.855-.095-.516-.656-.884-.87-.855zm.325-.258c-.016.302.233.881.605 1.037.044-.338-.281-.987-.605-1.037zm.665 1.059c-.009.424.254.96.629 1.074.004-.393-.294-.984-.629-1.074zm1.021 1.336c-.045-.468-.321-1.14-.698-1.265.025.471.15 1.209.698 1.265zm-1.149-.748c.38-.062.768.351.934.665-.636-.084-.799-.368-.934-.665zm1.134.817c-.408-.636.02-1.107-.033-1.284.251.31.347.944.033 1.284zm0 0c-.363-.581-.869-.469-1.177-.367.316.373.811.53 1.177.367zm-.071.177c.666.223 1.154 1.032 1.234 1.617-.635-.217-1.209-1.095-1.234-1.617zm1.31 1.749c-.229-.499-.708-.948-1.444-.86.322.557.994.964 1.444.86zm-.414-1.647c.518.464.511 1.25.414 1.646-.765-.67-.316-1.269-.414-1.646zm.488 1.78c.052.591.383 1.208.847 1.205.003-.6-.345-1.07-.847-1.205zm.9 1.248c-.428-.426-1.059-.334-1.284-.175.448.434 1.057.314 1.284.175zm-.031.047c-.182-.405-.25-.848-.029-1.255.111.478.475.764.025 1.225"/><path d="M26.015 27.753c-.283.045-.224.479.059.433.283-.046.224-.479-.059-.433zm.287-.254c-.282.046-.223.479.059.434.283-.047.224-.479-.059-.434zm-1.688-1.614c-.282.044-.223.478.059.432.283-.046.223-.478-.059-.432zm.378-.145c-.282.046-.224.479.059.433.282-.046.224-.479-.059-.433zm-1.266-1.407c-.237.039-.188.401.05.362.236-.037.186-.4-.05-.362zm.183-.164c-.212.034-.168.358.043.324.212-.034.168-.358-.043-.324zm3.334 4.81c-.282.045-.223.479.059.433s.223-.479-.059-.433zm-.299.171c-.283.046-.224.479.059.433.283-.045.224-.478-.059-.433z"/></g><g fill="#FFE247" stroke="#000" stroke-width=".125"><path d="M37.162 29.642c.046.326-.691 1.106-.866 1.421-.125.225-.189.246-.244.471-.07.292-.306.179-.489.32.057-.224-.12-.434.112-.609.176-.134.176-.208.325-.409.19-.253.642-1.305.935-1.366m.097.111c.353.271.692-.322.368-.569-.352-.272-.692.321-.368.569zm1.863-2.618l-.599.925c-.161.249-.412 1.618-.946 1.204-.423-.324 1.031-1.855 1.32-2.302"/><path d="M38.32 27.106c-.079.123.335.442.414.318.08-.122-.334-.441-.414-.318zm.106-.163c-.08.123.334.442.414.317.08-.122-.334-.44-.414-.317zm.105-.163c-.08.123.335.441.414.317.08-.122-.334-.44-.414-.317zm.242.109c.377.291.589-.289.648-.549.097-.427.836-.868.459-1.162-.412-.317-.42.474-.672.717-.225.215-.901.633-.435.994zm1.071-1.655c.481.369.759-.919 1.414-.817.048-.567-.617-1.198-1.183-.908.285.595-.704 1.366-.231 1.725zm0 0c.087.067 1.599-1.182 1.042-1.612-.532-.409-1.18 1.507-1.042 1.612zm.943-1.726c-.08.123.149.3.229.176.082-.123-.149-.299-.229-.176zm.147.041c.388.064.199-.307.367-.568-.168.261-.553.191-.367.568z"/></g><path d="M27.201 30.479c-.133.222-.439.061-.3-.138.27-.388.322-.693.824-.734.57-.046.749-1.986 1.409-1.555.517.337-.412 1.453-.628 1.811-.092.152-.325.7-.535.729-.174.023-.643-.281-.77-.113-.16.265.131-.174 0 0zm.089-.138c-.267.361-.061.613.234.225.294-.388.087-.658-.234-.225zm.223.243c-.279.33-.054.604.246.211.342-.451.11-.639-.246-.211zm.269.191c-.72.778.758.089.342-.312-.124-.119-.3.266-.342.312zm9.071-.296c.132.222.438.061.3-.138-.272-.387-.321-.693-.825-.734-.57-.046-.748-1.986-1.409-1.555-.517.337.412 1.452.629 1.811.092.152.325.7.534.729.174.023.643-.282.771-.113.158.265-.132-.174 0 0zm-.09-.138c.27.362.061.613-.234.225-.295-.387-.088-.658.234-.225zm-.222.243c.278.331.053.604-.247.211-.344-.452-.11-.637.247-.211zm-.27.191c.722.778-.758.089-.341-.312.123-.119.299.266.341.312z" fill="#E40520" stroke="#000" stroke-width=".125"/><path d="M30.037 27.83c-.254.312-.322.832-.634 1.087-.004-.131-.023-.261-.056-.388-.123.084-.257.142-.403.173.034-.148-.022-.372-.075-.51-.081.077-.306.248-.431.193.198-.272.243-.693.399-.995l1.2.44c-.297.364-.264-.108 0 0zm3.98 0c.254.312.322.833.635 1.087.004-.131.022-.261.056-.388.122.084.257.142.402.173-.033-.148.022-.372.075-.51.08.077.306.248.431.193-.197-.273-.242-.692-.398-.995l-1.201.44c.296.364.263-.108 0 0z" fill="#FAB31E" stroke="#000" stroke-width=".125"/><path d="M27.627 30.294c.18.046.179-.334.062-.403.014.109-.333.337-.062.403zm-.749.084c-.125.231.169.553.408.41-.062-.032-.216-.762-.408-.41zm.991.104c.181.045.18-.335.063-.404.013.111-.334.334-.063.404zm.223.18c.179.044.181-.333.063-.402.013.109-.335.335-.063.402zm8.334-.368c-.181.046-.18-.334-.062-.403-.013.109.333.338.062.403zm.748.084c.125.23-.167.553-.406.41.058-.03.218-.763.406-.41zm-.99.104c-.181.045-.18-.335-.062-.404-.015.112.333.333.062.404zm-.224.18c-.18.045-.181-.334-.062-.402-.013.11.335.335.062.402z" fill="#E40520" stroke="#000" stroke-width=".125"/><path d="M31.244 27.379c.146-.092.274-.085.386.021.007.271-.535.046-.527.037l.141-.058zm1.565 0c-.146-.091-.274-.084-.385.021-.006.271.535.045.527.037l-.142-.058z"/></svg>