<svg xmlns="http://www.w3.org/2000/svg" width="64" height="48"><path fill="#D4AE3C" d="M0 0h64v48h-64z"/><path fill="#C51618" d="M2 2h60v44h-60z"/><path fill="#BA6C29" d="M42.106 23.625c.665-.188 1.342-.455 1.884-.895.137-.112 1.247-1.228.867-1.532-.147-.119-1.968 1.594-2.267 1.172.2.282 2.811-1.814 2.143-2.723-.02-.026-1.936 2.013-2.288 1.81.314.182 1.589-1.6 1.695-1.816.07-.142.716-1.871.295-1.975-.088-.021-.785 1.343-.868 1.461-.115.166-.832.725-.865.901.042-.227.417-.575.54-.769.288-.459.506-.947.625-1.478.046-.206.228-2.227-.217-2.126-.144.033-.471 1.494-.532 1.67-.163.469-.428 1.286-.855 1.6.552-.405.727-2.272.756-2.886.039-.783.061-1.828-.536-2.437.007.732-.101 1.475-.278 2.184l-.55 1.354c-.056-.132.183-.655.208-.791.094-.486.127-.99.119-1.484-.014-.818-.196-1.685-.763-2.306-.118 1.154-.077 2.351-.465 3.459-.219-.198-.488 1.104-.584 1.332-.229.538-.521 1.157-.951 1.566-.037-.106-.116-.389-.228-.431.013.005-1.147 1.675-1.231 1.771-.456.524-.973 1.234-.387 1.888.265.296 1.349 1.04.292 1.264-.281.06-.677-.07-.932.076-.278.159-.245.541-.634.585-.012-.593.075-1.238.388-1.755.135-.223-.029-.275-.203-.479l-.92-1.082-.198-.233c-.413.202-.51-.357-.51-.714.655.066.2-.653.32-1.176.177.265.422.295.468-.045.102-.738.282-.476.774-.476.425 0 .944-.23 1.137-.635.018-.038.803.167.911.172.493.025 1.059-.165 1.08-.754.006-.179-.32-.923-.352-.439-.077 1.183-1.586.042-2.141.505.166-.166.366-.334.594-.404.349-.106.595.36.74.317.366-.109-.004-.964-.188-1.087-.178-.12-.902-.032-.928-.09-.452-.998-1.466-.108-2.165-.13-.213-.006-.412-.062-.597-.168-.372-.197-.161-.171-.125-.481.004-.037.23-.046.258-.119.047-.127-.174-.281-.164-.303.21-.51.598-.356.885-.638.157-.154.391-.833.383-1.113-.004-.136-.613-1.021-.706-1.012-.155.016-.376-.184-.518-.257-.145-.074-.21-.182-.432-.238-.457-.115-.922-.317-1.379-.4.438-.534-.196-.712-.274-1.089l.275.028c.029-.119.04-.322.021-.442l-.267.034.041-.267-.56-.006.041.266-.269-.019c-.019.117-.007.321.022.436l.284-.037c-.126.386-.746.525-.347 1.101-.853.133-1.632.43-2.278.898-.259.188-.476.532-.7.83-.089.119.157 1.203.254 1.254.275.146.918.199.959.632.009.098-.349.302-.089.398.509.193.176.548-.239.668-.768.221-1.845-.854-2.408.067-.171.281-.408.01-.745.093-.304.075-.926 1.046-.43 1.192.069.021.35-.328.484-.345.326-.04.64.215.851.432-.546-.456-1.874.618-2.117-.348-.09-.357-.209-.433-.342.023-.165.566.282.979.81 1.013.324.021.869-.271 1.138-.199.298.08.501.583.939.647.499.074.721-.367.929.265.094.286.185.771.52.271.122.523-.334 1.243.32 1.176 0 .35-.132.519-.289.812-.256-.113-.182-.13-.326.04l-1.001 1.178c-.175.206-.338.257-.203.48.312.517.403 1.192.388 1.755-.25-.023-.409-.205-.514-.423-.176-.365-.736-.17-1.058-.239-1.056-.224.027-.968.292-1.264.586-.654.069-1.364-.386-1.888-.084-.097-1.245-1.767-1.232-1.771-.111.042-.191.325-.227.431-.36-.341-.606-.835-.819-1.274-.192-.397-.344-.813-.446-1.243-.04-.167-.033-.594-.271-.381-.389-1.109-.348-2.306-.464-3.459-.493.541-.701 1.278-.75 1.995-.035.509-.01 1.029.062 1.534.027.19.325.878.252 1.053l-.551-1.354c-.177-.709-.285-1.452-.277-2.184-.597.607-.573 1.654-.536 2.437.03.614.205 2.481.757 2.886-.427-.313-.692-1.13-.856-1.6-.061-.176-.389-1.637-.532-1.67-.37-.084-.304 1.643-.271 1.843.086.524.256 1.021.515 1.484.159.285.645.732.704 1.046-.02-.106-.668-.639-.727-.713-.108-.138-.925-1.669-1.006-1.649-.421.104.226 1.833.295 1.975.106.216 1.381 1.999 1.695 1.816-.351.203-2.269-1.835-2.287-1.81-.677.921 1.959 2.99 2.143 2.723-.288.42-2.125-1.287-2.268-1.172-.38.304.73 1.42.868 1.532.358.291.778.501 1.206.668.2.079.661.129.82.28-.094-.089-.779-.125-.938-.175-.132-.042-1.643-.678-1.627-.731-.144.503.485 1.21.862 1.432.579.34 1.209.288 1.813.481-.231-.074-.802.021-1.111-.044-.136-.028-1.148-.402-.996-.504-.53.352-.126-.187-.388-.301-.472-.207-.583.398-.336.682-.712.002-.265 1 .173.55.189.317.05.326-.165.478-.251.176.364.411.465.537.574.713.397 1.828.595 2.666.092.39.273.758.529 1.064.05.06.385.306.378.399-.043.566.278.686.293 1.24.012.431.155.815.421 1.155.193.247.206.17-.019.341-.293.226-.543.639-.253.984.218.26.098.549.387.78.247.199.374.05.423.377.07.459.739.067.892.316.153.248-.137.705 0 .903-.083-.119.955.129.919.135.085-.013-.009-.519.092-.593.105-.074.519-.028.538-.222.019-.18-.791-.309-.791-.626 0-.155.177-.382.275-.492.61-.691 1.015-1.304 1.891-1.718-.099.909 1.216-.324 1.505-.454.294-.132.179.153.434.297.175.099.52-.504.579-.586.32-.441.654-.862 1.034-1.255.159-.165.804-.748.496-.14-.289.57-1.403 1.535-.765 2.195-.57.537-.413 1.257-1.055 1.756-.145.112-1.027.62-1.04.794-.039.539 1.049.428 1.063.546.021.166-.264.47-.251.718.021.409.773.084.969 0-.365.996.469.733 1.036.382-.128.267-.107.665.054.914.349.539.504.014.795-.265.08.272.375 1.398.788 1.398.412 0 .709-1.126.788-1.398.146.14.4.671.615.475.299-.271.414-.754.234-1.124.565.35 1.405.615 1.036-.382.194.083.699.311.9.167.364-.258-.208-.68-.183-.884.005-.036.924-.098 1.027-.392.108-.312-.771-.769-1.002-.948-.643-.499-.486-1.219-1.056-1.756.613-.63-.385-1.512-.679-2.039-.102-.182-.269-.735.11-.373.428.408.836.846 1.183 1.326.189.262.388.651.662.842.205.143.264-.312.391-.343.402-.098 1.575 1.422 1.639.638.468.14.959.288 1.389.524.551.303.803.703 1.505.571.978-.184 2.079-.598 2.949-1.076.743-.409.052-1.138.079-1.731.022-.52-.332-1.104-.818-1.297-.042-.065-.351-.464-.138-.54.307-.11.239.31.405-.193.089-.271-.218-.42-.237-.377.157-.353.097-.322-.284-.428-.463-.128-.089.348-.274.36-.245.016-.285-.31-.389.059-.011.038-.152.421-.067.456.043.018.344-.029.337.026-.051.415-.644.316-.93.399-.393.113-.764.388-.958.753-.101.19-.46.376-.46.601 0 .332-.389.453-.306.866.04.201.626.719.498.936-.072.122-1.234-.731-1.294-.88-.013-.03.328-.084.343-.169.056-.324-.997-.145-.347-.63.462-.345-1.093-.226-.828-.604.295-.422-.403-.342-.701-.472-.507-.22-.999-.669-1.086-1.231.211.416.526.695 1.016.628.672-.093-.231-.669-.106-.757.043-.031.315.285.342.309.27.232.621.308.97.285.184-.012.642-.003.774-.192.135-.194-.325-.281-.278-.406.05-.136 1.874.321 2.037-.546-.087-.004-.929-.22-.877-.28.05-.057.729.097.816.098.308.003.629-.06.879-.25.756-.578-.246-.596-.629-.809.702.192 2.178-.099 1.983-1.102-.516.122-1.052.185-1.578.096 1.027-.042 2.35-.267 2.464-1.513-.362.127-.741.251-1.123.296-.207.024-.739-.04-.883.006.524-.168 1.082-.145 1.605-.376.456-.202 1.24-.945 1.07-1.538.006.024-1.291.61-1.394.648-.166.063-1.136.179-1.188.25.052-.063.104-.079.155-.049zm-21.786 1.392l-.244.14c-.303-.394.217-.544.244-.14zm7.428 4.356c-.263.493-.888.762-1.407.853-.61.106.109.299-.105.452-.157.112-1.225.193-.862.464.649.487-.403.306-.347.631.025.146.474.188.582.207-.703.64-1.788.504-2.662.439-.07-.005-.722-1.638-.769-1.938-.034-.216-.165-.358-.326-.495-.146-.124-.078-.332-.101-.515-.064-.522-.198-.974-.457-1.43-.411-.728-1.283-1.965-.851-2.852.47.608 1.446.681 2.156.709-.526.09-1.062.026-1.578-.096-.194 1.003 1.282 1.295 1.984 1.103-.344.19-1.203.13-.771.672.178.222.47.334.744.37.133.018 1.038-.145 1.092-.082.052.06-.79.275-.877.28.166.863 1.989.413 2.039.545.044.121-.334.185-.295.372.034.16.39.185.496.199.388.051.801.06 1.142-.164.038-.025.429-.428.465-.402.087.062-.607.543-.272.712.51.257.971-.165 1.183-.587-.012.166-.114.384-.203.553zm6.427-17.259l-.111-.202c.955.453.359.959.727 1.633-.13.043-1.034.144-.629-.121.422-.274.2-.958.013-1.31zm-1.636.996c.194-.495-.051-1.067-.073-1.575 1.17.419 1.297 2.56-.182 1.854.307-.185-.222.055.255-.279zm-1.554-1.235c.162-.148.335-.267.541-.34-.026.553-.426 1.478.182 1.854-.288.136-.834.325-1.065-.044-.023-.037-.048-.656-.048-.733.001-.282.191-.558.39-.737zm-1.148 1.773c-.155.129-.482-.051-.639-.103.367-.674-.229-1.178.726-1.633-.192.319-.354.7-.327 1.08.025.334.379.399.24.656zm4.244 3.063c-.206.114-.808.348-.186.489-.25.265-1.625.839-.716 1.163-.226.242-1.102.767-1.047 1.048.036.188.308.336.323.458.024.204-.353.554-.461.696-.105-.153-.481-.489-.456-.696.015-.123.287-.271.323-.458.054-.281-.822-.807-1.047-1.048.906-.326-.466-.897-.717-1.163.763-.172-.454-.634-.601-.881.333-.13.641-.458.616-.836 1.176.384 2.593.383 3.77 0-.025.379.283.706.616.836-.102.169-.245.302-.417.392z"/><path fill="#D4AF3B" d="M35.985 23.785c0-.64.634-1.401.236-1.857l-.8-.918c-.369-.422-.72-.046-1.246.043-.632.108-1.286.07-1.887-.167-.569-.224-1.442.272-2.138.209-.409-.037-1.223-.491-1.488-.187l-.785.9c-.516.592.04.875.118 1.661.127 1.278-.461 2.464-.395 3.727.139 2.609 3.064 2.367 4.397 4.032 1.014-1.269 2.968-1.214 3.876-2.52 1.058-1.519.119-3.27.112-4.923z"/><path fill="#BA6C29" d="M35.597 24.192c-.097-.591.064-1.231.37-1.742.057-.095-.495-.631-.57-.718-.458-.536-.323-.518-.989-.333-.794.219-1.668.069-2.406-.271-.738.34-1.611.49-2.405.271-.666-.185-.532-.202-.989.333-.075.087-.627.623-.57.718.367.612.449 1.293.327 1.987-.248 1.405-.738 2.845.223 4.087.47.608 1.216.98 1.927 1.235.191.069 1.511.943 1.533.922 1.063-1.001 2.718-1.114 3.537-2.394.799-1.25.23-2.752.012-4.095z"/><path fill="#1E5F92" d="M35.496 24.304c-.087-.579.008-1.189.249-1.722.105-.233-.264-.471-.42-.646-.303-.338-.327-.564-.751-.412-.836.299-1.764.1-2.575-.182-.724.251-1.525.435-2.288.265-.695-.154-.558-.207-1.038.33-.067.074-.508.469-.461.56.277.545.381 1.204.29 1.807-.106.708-.246 1.412-.316 2.124-.068.69-.163.861.516.861.554 0 1.207-.499 1.372-1.032.159-.513-.126-.344-.153-.624-.053-.489.313-.508-.209-.598-.479-.083-.38-.649-.49-1.003.021.071-.946-.804-.468-.791.073.002.191.294.275.209.028-.028-.092-.562-.111-.665-.067-.369.194.016.282-.037l.058-.289c.181-.078.189.293.236.293.065 0 .063-.186.091-.22.103-.131.106.462.094.524-.075.375-.054.698.131 1.043.183.339.351.042.453-.096.088-.119.647-.21.647-.279 0 .087-1.368-.923-.811-1.02.117-.02.14.332.313.279.109-.034-.187-.377.08-.44l.427-.115c.247-.085.874-.358 1.144-.176l.051.197c.023.025.537.033.404.195-.239.292-.101.243.056.522.146.259-.717.283-.078.632.463.264-.406.258-.345.397.178.41.335.364.795.314.474-.051.899.111 1.354.072.781-.067.275-.457-.202-.494-.39-.03-1.369-.139-1.192-.773.097-.349.746-.522 1.047-.592.205-.047 1.278-.079 1.089.22-.419.661-1.142.04-1.632.215-.678.244.536.566.69.583.332.035.9-.046 1.098.299.37.651-.415.866-.887.918.025.101.055.428.143.484.159.104.604.001.626.272.045.638.103 1.002-.18 1.572.477 0 .953.208.943-.36-.016-.874-.241-1.787-.347-2.621z"/><path fill="#6E8D3E" d="M28.285 27.741c.34.972 1.163 1.488 2.081 1.834.43.162.818.374 1.196.638.025.018.406.383.437.383l.244-.242c.426-.33.885-.588 1.389-.778.917-.346 1.742-.863 2.08-1.834l-7.427-.001z"/><path fill="#D4AF3B" d="M28.933 23.731c.224.234.432.014.479.43.037.315.125.649.504.662.041-.514.085-.279-.144-.645-.095-.154-.218-1.34-.169-1.316h-.108l-.004.099c-.049.021-.081-.166-.174-.157-.028.003-.002.191 0 .215-.47-.221-.121.165-.09.391.051.385-.399-.028-.294.321zm-.05-.236l-.121-.135c-.027.225.056.108.121.135zm.187-.623c.126-.056-.03-.159-.107-.179l.107.179zm.234-.188c-.003.028.103-.027-.013-.144l.013.144zm.334.053zm.525 2.276c.087.201.411-.368.49-.372.033-.001.01.785.205.689.064-.032.126-.493.221-.419.031.024.185.533.285.385.042-.063.089-.532.179-.507.078.022.188.243.263.193.124-.082-.029-.349.063-.427.065-.056.308.213.358.087.101-.247-.421-.504-.283-.687.086-.109.457.097.487-.116.08-.557-.904-.194-.911-.199-.018-.01.14-.22.126-.193.214-.436-.263-.12-.289-.265.001.01.497-.304.47-.219.294-.87-.217-.162-.256-.186.012.007-.335-1.067-.576-.301-.042.137-.814.112-.434.329l-.08.142.388.199c.122.24-.298.14-.298.274 0 .074.757.066.642.256-.242.401-.906.099-1.062.685.068-.032.581-.317.595-.257-.039.071-.048.144-.029.219.057.01.345-.212.361-.15.016.058-.124.363-.01.353l.288-.195c.087.218-.393.571-.387.153l-.383-.164c-.089-.134-.685.335-.423.693zm1.518-2.545c.042-.026.279-.066.289-.103.046-.191-.397-.027-.45.007.04.092.068.061.161.096zm.366.364c.78 0-.308-.561 0 0zm-.033.091c-.296 0-.306.338-.218.518.364-.089.974-.473.218-.518zm-1.351.352l.116-.094c0-.165-.619-.046-.684-.403-.078.339.27.53.568.497zm-.858 3.971c.382.642 1.239-1.613.481-1.555-.095.006-.139.626-.146.659-.084.435-.359.45-.652.62-.337.2.29.165.317.276zm-.591-.021c-.235.08.174.066.188.063-.014-.105-.111-.091-.188-.063zm.342-.008c-.216.119.106.083.185.072.063-.169-.153-.07-.185-.072zm2.355-.111c-.047 0-.2.122-.159.184.185-.003.137-.114.159-.184zm.226.125c0-.16-.157.016-.19.059.11.031.149-.049.19-.059zm1.048-1.254c.403-.292-1.107-.583-.748.225.035.079.09-.048.113-.054.222.185.279.862-.163.789-.607-.101-.138.17-.196.353.484 0 .449-.015.753-.337.304-.323-.179-.801.241-.976zm-.826-1.254c.125.199-.331.084-.406.138-.093.066.026.387-.199.375-.277-.016-.146.159-.365.284-.116.067-.355-.293-.388-.253-.4.501-.336-.346-.638-.077-.075.067-.283.069-.292.079-.217.252.015.382.244.23.383-.255.3.821.561.379.109-.187.156-.414.344-.154.285.396.166-.207.402-.176l-.065.171c-.008-.183 1.751-.233 1.766-.371.007-.084-.785-.041-.796-.025.117-.164.897-.216.868.028-.032.244.512 1.119.625.859.155-.358.744.096.495.467-.231.353-.573.175-.604.611.294-.36.432.164.769 0 .253-.49.19-.773.239-1.295.02-.204.021-.368-.226-.391-.583-.056-.289-.552-.598-.842-.254-.238-1.779-.261-1.736-.037zm1.315 2.516c-.159.105.158.054.186.05.008-.153-.131-.05-.186-.05zm.425-.015c-.23.115.119.071.161.065.008-.086-.108-.092-.161-.065zm-5.911.149c.096.539 3.189.226 3.715.226.542 0 3.809.318 3.906-.226h-7.621zm5.066-3.595c.436.291 1.144-.005 1.544.323.49.402-.49.544-.674.569.264.184.622.167.917-.079.731-.614-.931-.788-1.179-.822-.56-.076-1.1-.64-.226-.734.422-.045 1.084.311 1.35-.217-.475.097-.867-.067-1.353.104-.349.124-1.106.529-.379.856z"/><path fill="#BA6C29" d="M31.278 22.503c.183 0 .183.279 0 .279s-.183-.279 0-.279zm3.045.378c-.146-.006-.291.005-.434.034.249.053.541.1.783.003l-.349-.037z"/><path fill="#1E5F92" d="M32.541 26.383c-.119-.19-.29-.22-.184-.631-.373.085-.748.233-1.131.209-.661-.043-.597.895-.745 1.327.292 0 1.103.149 1.226-.121.13-.292 1.287-.334.834-.784zm1.888.032c-.032-.141-.787.041-1.063-.303-.112-.139-.219.135-.229.241-.023.238.198.244.065.513l-.229.422c.294 0 .681.062.808-.244.144-.36.814-.059.648-.629z"/><path fill="#D4AF3B" d="M29.697 32.689c.392.131.583-.527.729-.757-.075.333-.376.936-.115 1.262.392.488.664-.785.771-.764.028.006-.19 1.15-.095 1.333.28.54.652-.876.658-.876.131 0-.097 1.149.354 1.131.418-.017.23-1.131.353-1.131.226 0 .084 1.012.529.976.505-.041-.057-1.118.025-1.3-.02.044.498.985.781.631.23-.288.003-.895-.078-1.205.108.179.833 1.205.781.414-.05-.754-.823-1.208-1.06-1.924-.54.268-.934.701-1.328 1.146-.396-.446-.79-.88-1.333-1.149-.257.588-1.432 1.539-.972 2.213zm-.012 1.198c-.036.032.225-.25.273-.201.104.104-.079.646-.003.837.107.273.48-.287.601-.299.062-.006-.182 1.075.163.94.113-.044.59-.867.634-.835.096.069.075.65.111.778.081.283.244.559.536.662.292-.103.455-.378.535-.662.036-.128.015-.708.111-.778.042-.031.521.791.633.835.346.135.102-.947.165-.94.121.012.492.573.601.299.076-.191-.108-.732-.003-.837.023-.023.497.314.598.329.095-.573-.198-1.169-.768-1.301-.039.178.294.758.398.699-.065.037-.327-.219-.398-.28-.001.244-.128.384-.356.344.008.098.109.552.154.575-.21-.104-.209-.563-.443-.675-.232-.11-.103 1.119-.104 1.122.102-.22-.627-.584-.667-.784-.007.044-.647 1.27-.455 1.27.189 0-.448-1.225-.456-1.27-.04.198-.769.566-.667.784-.001-.003.128-1.232-.104-1.122-.236.112-.234.57-.444.675.046-.023.146-.477.155-.575-.229.04-.356-.099-.356-.344-.072.062-.331.317-.398.28.104.058.433-.534.398-.699-.57.131-.863.727-.767 1.301.117-.009.232-.053.323-.128zm2.492 3.242l-.175-.229c-.12.182-.554.444-.611.623-.095.302.249.772.44.964.34.34.691-.431.751-.734.067-.346-.19-.374-.405-.624z"/><path fill="#BA6C29" d="M31.936 37.625c-.011.117.01.228.062.331.079 0 .074-.578.077-.65h-.155l.016.319z"/><path fill="#D4AF3B" d="M31.995 15.41c-.643.011-1.306-.25-1.917-.115 1.185.446 2.649.447 3.834 0-.61-.136-1.279.124-1.917.115zm1.988-.457c-.552-.463-.315-.34.216-.63-.629-.322-1.513-.214-2.203-.214s-1.573-.108-2.204.214c.086.047.548.136.577.228.088.283-.416.246-.391.463-.002-.018 2.143-.155 2.361-.147.373.013 1.51.3 1.644.086zm-.639.239c-.902-.106-1.789-.106-2.691 0 .726.293 1.96.267 2.691 0zm-1.465-5.302c.088.018.204-.017.295-.024l-.027-.258.316.044.012-.254-.332.031.058-.275c-.092-.026-.273-.028-.366-.003l.064.278-.323-.031v.254l.319-.037-.016.275zm.642.417c-.596.144-.2-.417-.615-.34-.046.003.088.341-.064.341-.214 0-.39-.081-.363.193h1.061l-.019-.194z"/><path fill="#1E5F92" d="M32.009 10.928c.214 0 .43-.123.506-.331h-1.012c.079.213.293.326.506.331zm.219-.928c-.05.219.045.289.262.232-.067-.128-.142-.165-.262-.232zm-.438 0c-.114.047-.202.125-.262.232.217.058.312-.012.262-.232z"/><path fill="#BA6C29" d="M32.312 14.311c-.383-.181-1.108.073-.496.384.268.136.97-.151.496-.384z"/><path fill="#D4AF3B" d="M31.656 14.415c.218.188.475.208.692 0-.22-.173-.476-.196-.692 0zm.339-1.363c-.382.524.381.524 0 0zm.003.503c.087.044.087.087 0 .131-.087-.043-.087-.087 0-.131zm-.233-.271c.072-.124.172-.222.23-.357.044.141.161.235.231.357.577-.445.149-1.683.112-2.315-.222.127-.465.128-.688 0-.035.631-.464 1.872.115 2.315z"/><path fill="#BA6C29" d="M31.995 12.33c.354 0 .354.531 0 .531s-.354-.531 0-.531zm0-.613c.341 0 .341.511 0 .511s-.341-.511 0-.511zm0-.584c.325 0 .325.487 0 .487s-.325-.487 0-.487z"/><path fill="#D4AF3B" d="M31.995 12.407c.187 0 .188.282 0 .282s-.187-.282 0-.282zm0-.615c.18 0 .18.271 0 .271-.181-.001-.181-.271 0-.271zm0-.578c.158 0 .158.237 0 .237s-.158-.237 0-.237z"/><path fill="#BA6C29" d="M31.987 33.31c-.017-.003.104-.558.046-.608-.085-.073-.171.582-.046.608z"/><path fill="#D4AF3B" d="M29.136 35.543c.313-.199.688-.412.883-.736-.36-.095-.141-.55-.208-.867-.213.207-.5.411-.595.074-.124.31-.315.541-.576.745-.19.149-.846.432-.946.627-.183.36 1.228.294 1.442.157zm1.581-.175c-.393-.042-.305-.529-.282-.806-.257.151-.318.305-.506.525-.369.432-1.251.616-1.391 1.221-.113.487.604.264.841.149.502-.24 1.046-.607 1.338-1.089zm.801.264c-.179-.252-.226-.56-.298-.854-.099.318-.351.589-.55.842-.341.436-1.338.691-1.302 1.35.017.3.946-.152 1.116-.227.51-.222.869-.574 1.034-1.111zm.236 1.224c.364-.544.075-.731-.167-1.149-.277.599-1.249 1.105-1.197 1.754.072.917 1.145-.277 1.364-.605z"/><path fill="#BA6C29" d="M29.963 32.271c.113-.234.243-.454.369-.68-.073.061-.578.773-.443.796l.074-.116zm.773.139c-.003.009.091-.28.063-.292-.087-.035-.321.662-.275.688.027.018.202-.359.212-.396zm.61.491c.029-.064.153-.346.081-.372-.048-.018-.209.5-.174.529l.093-.157zm-1.893 1.861c-.148-.029-.734.652-.81.589.163.133.732-.497.81-.589zm.661.781c.059-.03.087-.075.086-.135-.134-.132-.795.726-.917.631.154.12.76-.42.831-.496zm.761.528c.044-.088-.845.426-.826.507.018.103.79-.435.826-.507zm.354.699c-.073.044-.651.475-.509.617.056.056.786-.79.786-.907-.076.111-.169.208-.277.29z"/><path fill="#C62226" d="M27.642 17.213c-.786-.461-2.524.396-2.784-.696-.571.864.795.946 1.284.798.412-.124.793-.184 1.174.065.15.099.56-.028.326-.167z"/><path fill="#D4AF3B" d="M26.222 31.511c-.425-.135-.562-.015-.927.189.324 0 .687.075.927-.189zm1.652-.101c-.006-.08-.032-.158-.078-.228-.071.05-.634.655-.634.655-.056-.065.447-.726.447-.726-.26-.167-.737-.187-1.046-.356-.17-.093-.701.078-.855.208-.097.081 1.124.364 1.152.381-.14-.08-.415 1.354-.39 1.562.308-.305.692-.525 1.061-.748.442-.265.343-.239.343-.748zm1.763-1.403c-.178-.081-.726.403-.713.5-.025-.2.322-.501.467-.614-.247-.119-.486-.251-.71-.407-.106.208-.248.355-.471.431.492-.466.18-.593-.157-.996-.104.423-.407.791-.774 1.013-.135.082-.765.223-.841.35-.016.027 1.314.236 1.414.033-.136.277-1.177.057-1.223.182-.122.336 1.366.253 1.435.28.066.025-.243 1.261.149 1.494-.055-.033.403-1.002.377-1.037.136.182-.286.647-.179.856-.09-.176 1.476-1.744 1.664-1.896l-.438-.189zm-6.729-12.51c.008.198.76 1.609.738 1.623-.172.104-1.16-2.126-1.309-1.774-.18.424-.105.904.121 1.29.043.075.782 1.019.741 1.049-.203.151-1.147-1.61-1.284-1.332-.218.445.788 1.992.882 1.897-.129.131-1.039-1.121-1.17-.955-.596.752 1.127 1.492.982 1.831-.042.101-.975-.664-1.061-.616-.619.349 1.197 1.669 1.197 1.668-.084.197-1.207-.795-1.068-.055.074.394 1.245.98 1.255.912-.036.211-1.207-.148-.908.398.286.521.904.312 1.276.596-.033-.025-1.015.126-.716.551.234.332 1.481.244 1.5.337.037.177-1.369.1-.602.656.173.125 1.346.055 1.36.091.06.16-.86.238-.629.526.345.431 1.128-.123 1.302.052.153.155-.85.333-.732.66.236.659 1.592-.275 1.723-.108.066.081-.688.407-.637.69.108.61 1.36.101 1.558-.204-.021-.249.124-.741-.115-.792-.256-.055-.399-.183-.508-.415-.091-.195-.426.004-.597-.046-.365-.109-.488-.387-.51-.733.001.027-.885-.244-.978-.617-.042-.165-.367-.232-.48-.325-.204-.168-.115-.434-.355-.546-.267-.124-.485-.246-.487-.571-.001-.128.213-.396.095-.449-.345-.154-.795-.761-.25-.985-.454-.206-.769-.892-.071-1-.202-.174-.314-.541-.124-.772.111-.135.714-.109.719-.175.043-.588.159-1.057.939-.61.17.098-.077-.409-.069-.396-.207-.305-.421-.604-.596-.929-.087-.163-.668-1.86-.724-1.862-.336-.015-.418 1.231-.408 1.44zm4.884 6.64c-.35-.018-.447-.312-.692-.492-.28-.207-.627-.097-.942-.164-.745-.158-.628-1.059-.05-1.343 1.639-.806-.585-2.526-1.06-3.479-.126.177-.024.679-.133.761-.074.055-.606-.332-.826-.26-.789.256.336.957.2 1.146-.016.023-.861-.399-1.057-.314-.621.269.438.947.423.958-.168.136-.746-.274-.805.227-.061.513.886.374.914.593.013.111-.755-.02-.659.469.079.393.866.265.917.443.042.146-.642.16-.544.583.138.6.746.087.953.295.144.144-.662.372-.108.678.15.083.877-.052.884-.042.057.085-.536.296-.337.628.251.421.637.159.961.092.156-.032-.082.626.04.786.406.538.785-.283 1.08-.135.053.027-.124.462.1.619.524.368.56-.234.647-.605-.02.016-.247.239-.296.205.098.07.789-1.439.39-1.649zm-7.128-5.214c.219.444.524.855.898 1.18-.111-.251-.051-.51-.203-.724-.298-.419-.53-.844-.652-1.347.204.498.439.97.783 1.388.008-.06.055-.257.122-.275l.213.137c-.288-.59-.729-1.067-.949-1.7-.107-.306-.291-1.615-.549-1.776-.122-.076-.211 1.228-.205 1.285.069.642.256 1.255.542 1.832zm.482 2.038l.343.242c-.057-.659-.706-.881-1.024-1.433.178.308.683.655.971.895.248-.431-.472-.801-.731-1.101-.47-.542-.815-1.142-1.131-1.783-.139 1.248.595 2.462 1.572 3.18zm2.76 5.454c.205-.08.209-.221.209-.401 0 .064-1.19.419-1.223.256.024.129 1.138-.315 1.089-.387-.192-.283-.911.011-1.138.048-.363.057-.727.088-1.094.062-.102-.007-.506-.125-.609-.069-.343.184.728.751.812.775.722.199 1.287-.025 1.954-.284zm-1.298-.693c.472.004.855-.045.568-.552-.302.054-.924.22-1.201.024.093.065 1.078-.095 1.043-.176-.084-.2-.504-.227-.673-.215-.644.045-1.252-.036-1.87-.213-.476-.136.018.468.135.576.518.481 1.329.55 1.998.556zm-.129-1.181c.022-.113-.096-.181.004-.313-.102-.023-1.523-.204-1.498-.355-.021.125 1.613.252 1.784.18-.431-.059-3.29-.974-3.209-1.166-.169.405.61 1.051.896 1.202.619.328 1.327.468 2.023.452zm-2.069-1.708c.426.301.975.551 1.498.616.021-.023.031-.662.329-.412-.148-.125-1.715-.292-1.626-.564-.037.11 1.448.452 1.45.417.012-.341-1.066-.542-1.233-.602-.152-.054-1.654-.771-1.606-.929-.159.512.872 1.252 1.188 1.474zm-.102-1.228c.06.048 1.225.824 1.297.674.216-.452-1.116-.791-1.287-1.091.135.238.972.571 1.252.738l.239-.171c-.249-.303-.686-.401-1.006-.63-.47-.337-.873-.733-1.263-1.157-.272-.295-.238-.025-.176.255.121.544.517 1.044.944 1.382zm2.16-4.573c.096.199.221.387.329.58-.016-.36.029-.686-.054-1.04-.101-.426-.355-1.214-.183-1.636-.168.409.185 1.412.302 1.841.193-.765.241-.895.097-1.695-.14-.782-.185-1.577-.241-2.369-.892.896-.764 3.247-.25 4.319zm-.695 1.62c.006-.157.03-.397.212-.46.002-.219-.261-.58-.322-.808-.05-.188-.057-1.064-.186-1.181.227.204.226 1.144.341 1.47.085.244.22.447.356.667-.074-.354-.041-.765.057-1.109-.036-.291-.279-.648-.37-.932-.266-.83-.362-1.663-.408-2.527-1.025 1.241-.237 3.59.32 4.88zm3.216 8.583c-.207-.08-.318-.257-.283-.475-.121.093-.828.359-.852.425.066-.178.739-.446.907-.593-.456-.004-.505-.117-.887.084-.506.266-1.053.469-1.619.559.271 1.075 2.169.325 2.734 0zm.814.635c.031-.157-.007-.315-.098-.442-.215.182-.724.391-.859.554.19-.229.543-.384.762-.61-.639-.213-1.478.757-2.167.844.53.516 2.183.567 2.362-.346zm1.6-.304c-.191.285-.436.202-.679.35-.058.036-.708.914-.832.662-.018-.037.768-.423.683-.61-.219-.486-1.512.843-1.249.998.853.504 2.044-.547 2.077-1.4zm.2 1.02l-.144.173c.124-.432.162-.415.056-.876-.057.184-.634 1.255-.586 1.292.453.34 1.024-.272.8-.708l-.126.119zm-.055-12.626c.222 0 .222.317 0 .317-.221.001-.221-.317 0-.317zm-.364-.14c.681-.017 1.188.395 1.854.389.489-.004 1.02-.324.926-.871-.294.213-.664.338-1.028.314.021.021.257.207.219.24.05-.042-1.17-.573-1.268-.583-.337-.031-1.062.517-.703.511zm4.472 3.358c-.499-.134-1.305-.856-.697-1.26-.275-.102-1.341-.711-.863-.973-.339-.216-.559-.598-.944-.549-.433.055-.902-.052-1.286-.251-.144.752-.574-.125-.772-.215-.334-.152-.843-.329-1.139.004-.063.071-.302.8-.092.698.184-.088.16-.252.423-.294.437-.07.781.29 1.095.53.124.095.627.392.342.566-.306.187-.699-.091-.893.01-.134.067.383.383.37.377.257.1.56.034.805-.064.402-.162.595.671.63.926.227-.069.179-.237.281-.389.081-.122.234 1.119.191 1.31.052-.039.353-.182.388-.125.273.443.1 1.037.607 1.424.279-.55.173-1.258.1-1.846.175.209.409.429.676.506.267.079 1.234-.257.778-.385zm-2.271 1.052c-.055.15-.139.292-.245.411.161.116.353.18.547.213-.141-.185-.248-.397-.302-.624zm2.073-.137c-.138-.35-.547-.17-.872-.366.108.233.271.432.499.554-.33-.056-.549-.339-.679-.636.035.442-.004.87-.144 1.292.465.064.922-.028 1.36-.186.334-.121-.077-.431-.164-.658z"/><path fill="#BA6C29" d="M30.546 18.864l-.17-.22c-.034.303.446.543.71.599-.155-.122-.396-.214-.54-.379zm-.612 1.167c-.117-2.119-.211.323.068.274-.048-.085-.071-.176-.068-.274zm-.948-3.045l-.114-.046c.022-.095.554.902.382.821-.143-.067-.5-.401-.646-.314-.118.069.849.744.971.821-.074-.491-.237-.923-.593-1.282zm-3.097 9.614l-.341.148c0 .016.58-.096.514-.281-.078.01-.135.054-.173.133zm1 .536c-.103.122-.285.219-.421.298.209-.034.464-.347.421-.298zm-4.054-7.212l.1.083c.014-.014-.241-.369-.291-.362.045.105.108.197.191.279zm-.308.675c-.019-.018.21.242.243.208.042-.041-.32-.329-.375-.36l.132.152zm.115 1.091c.057.07.125.094.205.073.023-.046-.515-.402-.523-.395-.027.026.35.356.318.322zm.221.874c0-.064-.339-.102-.342-.093-.013.04.342.18.342.093zm.095.949l-.261-.012c-.019.05.532.22.518.053-.077-.05-.162-.063-.257-.041zm1.069 1.039c-.07-.069-.583.05-.734.061-.001.14.763-.031.734-.061zm.441.74c.006-.002-.5.071-.485.104.024.057.756-.052.678-.149-.07-.018-.135-.003-.193.045zm.859.56c-.037.038-.424.266-.397.31.066.111.605-.518.397-.31zm-1.43-7.245c.036.052.168.308.247.306-.025 0-.371-.673-.444-.606-.037.033.168.26.197.3zm-.312.954c.012-.012-.436-.558-.429-.562-.061.04.394.597.429.562zm.411 1.787c0-.04-.613-.142-.619-.112-.009.046.619.201.619.112zm-.411-.965c.024.02.325.271.381.207.05-.058-.554-.348-.381-.207zm.958-.637s-.212-.169-.228-.143c-.015.026.303.336.345.312-.001-.077-.04-.133-.117-.169zm-.625 2.491l-.194.068c.043.077.496-.054.475-.101-.029-.064-.237.027-.281.033zm.168.903c.027-.068.441-.036.441-.193.001-.035-.407.104-.441.193zm1.16.546c.066-.02.089-.056.068-.109-.033-.027-.524.288-.51.311.047.068.406-.181.442-.202zm.547.725c-.072.064.361-.183.209-.233-.057-.02-.538.432-.578.387.075.085.336-.125.369-.154zm.81.688c.029-.012.361-.232.289-.29-.136-.104-.351.396-.462.385l.173-.095z"/><path fill="#D4AF3B" d="M29.905 14.788c.115-.053.223-.159.327-.232-.23-.116-.471-.128-.631.099l.304.133z"/><path fill="#BA6C29" d="M30.95 14.214c.401 0 .401.602 0 .602s-.401-.602 0-.602z"/><path fill="#D4AF3B" d="M30.95 14.272c.242 0 .242.359 0 .359s-.242-.359 0-.359zm-.65-.79l.185.017c-.006-.197-.121-.321-.291-.427-.027.112-.03.36.106.41zm.165.098c.076.036.076.072 0 .108-.077-.037-.077-.072 0-.108zm-.425-.004l-.077.088c.58.329.252-.328.077-.088zm.217.364c-.156.014-.342-.099-.454-.199-.029.169-.127.268-.297.297.283.16.989.212.964-.259-.024.098-.095.152-.213.161zm-.761-.197c-.042-.016-.386-.197-.362-.013.036.256.553.086.362.013zm-.613-.333l-.166-.08c-.203.493.603.397.166.08zm.08.377c.091.032.091.065 0 .098-.09-.033-.09-.066 0-.098zm.187-.703c-.174-.834.81-1.497 1.428-1.896-.203.049-.612.371-.72.371-.22 0-.27.009-.488.146-.179.111-.063.443-.334.443-.427 0-.099.556-.247.734-.286.344.098.323.325.623.102-.001.034-.428.036-.421zm.779-1.651l.017-.128c-.136-.041-.191.004-.166.137l.149-.009zm-.82.554l.02-.16c-.159-.045-.221.012-.188.171l.168-.011zm-.487.572c.163 0 .163.249 0 .249-.164 0-.164-.249 0-.249zm2.729-1.633c-.129.034-.252.083-.369.149.767.131-.477.681-.208.12-.472.291-.805.635-.994 1.167-.115.325-.193 1.025.346 1.025-.072 0-.013-.406-.013-.438.153.08.277.209.401.344.216-.569-.159-1.035.412-1.573.007-.009 1.084-.935.425-.794zm-.399.429c.158 0 .181-.227.009-.227-.16.001-.167.227-.009.227zm.597 2.366c.435.178.281-.483-.125-.086l.125.086zm.311.109c-.22.339-.486-.148-.643-.151-.129-.003-.06.133-.154.214-.18.157-.436-.173-.494-.134-.218.156.723.261.749.261.147 0 .323.024.47-.007.146-.031.201-.384.072-.183zm-1.174-.131c.122.068.221.014.272-.102-.099-.071-.254-.114-.366-.111-.011.085.02.156.094.213z"/><path fill="#BA6C29" d="M30.127 12.301c.333 0 .333.511 0 .511s-.333-.511 0-.511zm.447-.63c-.232-.157-.557.206-.302.376.231.157.557-.205.302-.376z"/><path fill="#D4AF3B" d="M30.117 12.381c.193 0 .193.286 0 .286-.192 0-.192-.286 0-.286zm.35-.682c-.072-.02-.253.05-.185.158.12.189.398-.099.185-.158zm5.797 23.688c-.1-.196-.755-.479-.946-.627-.26-.204-.452-.436-.576-.745-.095.337-.381.133-.595-.074-.066.317.152.772-.208.867.195.324.57.537.883.736.215.136 1.626.202 1.442-.157zm-1.684 1.071c.238.115.954.338.841-.149-.14-.604-1.022-.789-1.391-1.221-.188-.22-.249-.375-.506-.525.023.276.111.764-.282.806.292.481.836.848 1.338 1.089zm-1.105.285c.169.074 1.099.527 1.116.227.037-.659-.96-.915-1.302-1.35-.199-.252-.451-.524-.55-.842-.072.294-.119.602-.298.854.165.537.525.889 1.034 1.111zm.094.718c.052-.649-.92-1.155-1.197-1.754-.242.417-.531.604-.167 1.149.22.328 1.292 1.522 1.364.605z"/><path fill="#BA6C29" d="M33.996 32.271l.075.116c.135-.022-.371-.735-.443-.796.125.226.255.446.368.68zm-.561.536c.046-.027-.188-.723-.275-.688-.028.012.066.301.063.292.011.036.185.413.212.396zm-.728.252c.035-.029-.126-.547-.174-.529-.072.026.052.308.081.372l.093.157zm2.609 2.292c-.076.063-.661-.618-.81-.589.078.092.648.722.81.589zm-.639.689c-.123.094-.783-.764-.917-.631-.001.06.027.105.086.135.07.075.676.615.831.496zm-.766.538c.019-.081-.87-.595-.826-.507.036.072.807.61.826.507zm-1.457-.098c0 .117.73.963.786.907.142-.142-.436-.573-.509-.617-.109-.082-.201-.179-.277-.29z"/><path fill="#C62226" d="M36.317 17.213c-.234.138.176.266.326.168.38-.25.762-.189 1.174-.065.489.147 1.855.065 1.284-.798-.26 1.091-1.997.234-2.784.695z"/><path fill="#D4AF3B" d="M38.665 31.7c-.365-.205-.502-.324-.927-.189.24.264.602.189.927.189zm-2.237.459c.369.222.753.443 1.061.748.025-.208-.25-1.642-.39-1.562.029-.017 1.249-.3 1.152-.381-.154-.13-.685-.301-.855-.208-.309.17-.786.19-1.046.356 0 0 .503.661.447.726 0 0-.563-.605-.634-.655-.046.069-.071.148-.078.228 0 .508-.098.482.343.748zm-2.542-1.964c.188.153 1.754 1.721 1.664 1.896.107-.209-.315-.675-.179-.856-.026.035.432 1.004.377 1.037.392-.232.083-1.468.149-1.494.069-.027 1.557.056 1.435-.28-.046-.125-1.087.095-1.223-.182.1.204 1.43-.006 1.414-.033-.076-.127-.707-.268-.841-.35-.367-.223-.67-.59-.774-1.013-.337.403-.649.53-.157.996-.223-.076-.365-.223-.471-.431-.225.156-.464.289-.71.407.145.113.492.415.467.614.012-.096-.535-.58-.713-.5l-.438.189zm6.754-14.139c-.055.002-.636 1.7-.724 1.862-.175.325-.389.624-.596.929.008-.013-.239.494-.069.396.78-.447.896.022.939.61.005.066.607.041.719.175.19.231.079.598-.124.772.698.108.383.794-.071 1 .545.224.095.831-.25.985-.118.053.096.321.095.449-.002.325-.22.447-.487.571-.24.112-.151.378-.355.546-.113.092-.438.16-.48.325-.092.373-.979.644-.978.617-.021.346-.145.624-.51.733-.171.051-.506-.149-.597.046-.109.231-.252.359-.508.415-.239.052-.094.544-.115.792.198.305 1.45.814 1.558.204.05-.284-.703-.609-.637-.69.13-.167 1.486.767 1.723.108.118-.327-.885-.505-.732-.66.174-.174.957.379 1.302-.052.231-.289-.688-.366-.629-.526.014-.036 1.187.034 1.36-.091.767-.556-.639-.479-.602-.656.019-.094 1.266-.006 1.5-.337.299-.424-.683-.576-.716-.551.372-.285.99-.076 1.276-.596.299-.547-.872-.188-.908-.398.011.069 1.181-.518 1.255-.912.139-.74-.983.251-1.068.055 0 .001 1.816-1.319 1.197-1.668-.086-.048-1.019.717-1.061.616-.145-.339 1.578-1.079.982-1.831-.131-.166-1.041 1.086-1.17.955.095.095 1.101-1.452.882-1.897-.137-.278-1.082 1.483-1.284 1.332-.041-.031.698-.975.741-1.049.227-.386.301-.866.121-1.29-.148-.352-1.137 1.878-1.309 1.774-.022-.014.729-1.425.738-1.623.013-.208-.069-1.454-.408-1.44zm-4.081 9.729c-.049.035-.276-.189-.296-.205.087.371.123.973.647.605.224-.157.047-.592.1-.619.295-.147.673.673 1.08.135.122-.16-.116-.818.04-.786.324.067.709.33.961-.092.198-.333-.394-.543-.337-.628.006-.01.733.125.884.042.553-.306-.252-.534-.108-.678.207-.208.814.305.953-.295.098-.423-.585-.437-.544-.583.052-.178.838-.05.917-.443.096-.488-.672-.358-.659-.469.028-.219.975-.08.914-.593-.06-.5-.637-.091-.805-.227-.014-.011 1.044-.689.423-.958-.196-.085-1.041.337-1.057.314-.136-.189.989-.891.2-1.146-.22-.071-.751.315-.826.26-.109-.082-.007-.584-.133-.761-.474.953-2.698 2.673-1.06 3.479.579.285.695 1.185-.05 1.343-.314.067-.662-.042-.942.164-.246.18-.343.474-.692.492-.4.211.291 1.72.39 1.649zm7.277-8.693c.006-.058-.083-1.361-.205-1.285-.258.161-.442 1.471-.549 1.776-.22.633-.661 1.109-.949 1.7l.213-.137c.067.018.114.215.122.275.344-.418.579-.891.783-1.388-.122.503-.354.928-.652 1.347-.151.213-.092.473-.203.724.374-.325.679-.736.898-1.18.287-.578.475-1.191.542-1.832zm-1.023 3.869c.977-.718 1.711-1.932 1.572-3.18-.316.642-.661 1.241-1.131 1.783-.259.3-.979.67-.731 1.101.289-.24.793-.587.971-.895-.318.551-.967.774-1.024 1.433l.343-.242zm-.806 5.738c.083-.023 1.155-.591.812-.775-.104-.056-.507.062-.609.069-.367.026-.731-.005-1.094-.062-.227-.037-.946-.331-1.138-.048-.049.071 1.065.516 1.089.387-.033.163-1.223-.192-1.223-.256 0 .18.005.321.209.401.667.259 1.232.483 1.954.284zm1.342-1.532c.118-.108.611-.712.135-.576-.618.177-1.226.258-1.87.213-.169-.012-.589.015-.673.215-.035.082.95.242 1.043.176-.277.196-.899.029-1.201-.024-.287.507.096.556.568.552.67-.007 1.48-.076 1.998-.556zm.155-1.079c.285-.151 1.064-.796.896-1.202.08.192-2.779 1.107-3.209 1.166.171.073 1.805-.055 1.784-.18.025.151-1.396.332-1.498.355.1.132-.018.2.004.313.695.017 1.404-.123 2.023-.452zm1.234-2.729c.048.158-1.454.875-1.606.929-.167.06-1.245.261-1.233.602.001.036 1.486-.306 1.45-.417.089.272-1.478.44-1.626.564.298-.25.309.388.329.412.523-.065 1.072-.315 1.498-.616.315-.222 1.346-.962 1.188-1.474zm-1.087.246c.427-.338.823-.838.943-1.382.062-.28.096-.55-.176-.255-.39.424-.793.82-1.263 1.157-.32.229-.757.327-1.006.63l.239.171c.281-.167 1.118-.5 1.252-.738-.17.3-1.502.639-1.287 1.091.074.15 1.238-.626 1.298-.674zm-2.409-8.892c-.056.791-.102 1.587-.242 2.369-.144.8-.096.93.097 1.695.118-.429.47-1.432.302-1.841.173.421-.082 1.21-.183 1.636-.083.354-.039.68-.054 1.04.108-.193.233-.381.329-.58.514-1.072.642-3.423-.249-4.319zm1.264 1.059c-.046.864-.143 1.697-.408 2.527-.09.283-.333.641-.37.932.098.345.131.756.057 1.109.136-.22.271-.422.356-.667.115-.327.114-1.267.341-1.47-.129.116-.136.993-.186 1.181-.061.228-.325.589-.322.808.182.062.206.303.212.46.558-1.29 1.346-3.639.32-4.88zm-.802 13.463c-.565-.09-1.112-.293-1.619-.559-.382-.201-.432-.088-.887-.084.168.147.841.415.907.593-.024-.065-.731-.332-.852-.425.035.218-.076.396-.283.475.566.325 2.463 1.075 2.734 0zm-1.185.98c-.69-.087-1.528-1.057-2.167-.844.218.226.571.381.762.61-.135-.163-.644-.372-.859-.554-.091.127-.128.286-.098.442.179.914 1.831.863 2.362.346zm-1.886.751c.264-.155-1.03-1.484-1.249-.998-.085.187.701.573.683.61-.124.251-.774-.626-.832-.662-.243-.148-.488-.065-.679-.35.034.853 1.225 1.904 2.077 1.4zm-2.402-.5c-.225.436.347 1.048.8.708.048-.036-.529-1.107-.586-1.292-.106.461-.068.444.056.876l-.144-.173-.126-.119zm.181-12.188c-.222 0-.222-.317 0-.317.221-.001.221.317 0 .317zm.364-.458c.359.006-.366-.542-.702-.511-.098.009-1.318.54-1.268.583-.038-.033.198-.219.219-.24-.365.024-.734-.101-1.028-.314-.094.547.437.867.926.871.665.006 1.172-.406 1.853-.389zm-3.695 3.744c.268-.078.501-.297.676-.506-.073.588-.179 1.296.1 1.846.508-.387.334-.98.607-1.424.035-.058.335.086.388.125-.043-.19.11-1.432.191-1.31.102.152.054.32.281.389.036-.255.228-1.088.63-.926.245.098.548.165.805.064-.014.005.503-.311.37-.377-.194-.101-.587.176-.893-.01-.286-.174.218-.472.342-.566.314-.241.658-.6 1.095-.53.264.042.239.206.423.294.21.102-.029-.627-.092-.698-.296-.333-.805-.157-1.139-.004-.198.09-.628.968-.772.215-.383.199-.853.306-1.286.251-.385-.049-.605.333-.944.549.479.262-.587.871-.863.973.608.404-.199 1.125-.697 1.26-.456.127.512.463.778.385zm1.191 1.29c.194-.033.386-.097.547-.213-.105-.119-.189-.26-.245-.411-.054.227-.16.439-.302.624zm-1.936-.104c.438.158.895.25 1.36.186-.14-.422-.178-.85-.144-1.292-.13.297-.349.581-.679.636.228-.122.391-.321.499-.554-.325.195-.734.016-.872.366-.086.228-.496.538-.164.658z"/><path fill="#BA6C29" d="M32.873 19.243c.265-.056.745-.295.71-.599l-.17.22c-.143.165-.384.257-.54.379zm1.084 1.063c.28.048.185-2.393.068-.274.003.097-.02.188-.068.274zm1.016-3.32c-.355.358-.519.791-.593 1.282.122-.078 1.089-.752.971-.821-.146-.086-.503.247-.646.314-.172.081.359-.916.382-.821l-.114.046zm2.925 9.481c-.066.185.514.297.514.281l-.341-.148c-.039-.079-.096-.123-.173-.133zm-.406.967c-.136-.079-.318-.176-.421-.298-.044-.049.212.264.421.298zm3.633-7.51c.083-.082.146-.174.191-.278-.05-.007-.305.348-.291.362l.1-.084zm.439.523c-.055.031-.417.319-.375.36.033.034.262-.226.243-.208l.132-.152zm.072.922c-.008-.007-.546.348-.523.395.08.021.148-.002.205-.073-.032.033.344-.297.318-.322zm-.198 1.103c-.003-.009-.342.028-.342.093.001.086.355-.054.342-.093zm-.694 1.082c-.014.167.537-.003.518-.053l-.261.012c-.094-.022-.18-.009-.257.041zm-.077 1.059c-.151-.011-.664-.129-.734-.061-.029.03.734.201.734.061zm-1.368.635c-.078.097.654.206.678.149.015-.034-.492-.107-.485-.104-.059-.049-.123-.064-.193-.045zm-.269.914c.026-.044-.36-.272-.397-.31-.208-.208.33.421.397.31zm1.23-7.856c-.073-.067-.419.607-.444.606.079.002.211-.253.247-.306.028-.039.234-.266.197-.3zm.543.692c.007.004-.441.55-.429.562.035.036.491-.521.429-.562zm-.221 2.238c-.006-.03-.619.072-.619.112 0 .089.628-.066.619-.112zm-.589-.646c.056.064.357-.187.381-.207.174-.141-.431.149-.381.207zm-.577-.844c-.077.036-.115.092-.117.169.042.024.36-.286.345-.312-.016-.026-.228.144-.228.143zm.345 2.459c-.021.047.432.178.475.101l-.194-.068c-.045-.007-.253-.098-.281-.033zm-.329.742c0 .157.415.125.441.193-.034-.089-.441-.228-.441-.193zm-.277.941c.015-.022-.477-.337-.51-.311-.021.053.002.089.068.109.036.021.395.27.442.202zm-.619.677c-.04.045-.521-.407-.578-.387-.152.05.281.297.209.233.033.029.294.239.369.154zm-1.006.629c-.112.012-.326-.489-.462-.385-.072.057.26.278.289.29l.173.095z"/><path fill="#D4AF3B" d="M34.359 14.654c-.161-.227-.401-.214-.631-.099.104.074.212.179.327.232.103-.02.207-.091.304-.133z"/><path fill="#BA6C29" d="M33.009 14.816c-.401 0-.401-.602 0-.602.402 0 .402.602 0 .602z"/><path fill="#D4AF3B" d="M33.009 14.631c-.242 0-.242-.359 0-.359s.242.359 0 .359zm.757-1.558c-.169.105-.284.23-.291.427l.185-.017c.136-.051.132-.299.106-.41zm-.272.615c-.076-.037-.076-.072 0-.108.077.036.077.071 0 .108zm.502-.024l-.077-.088c-.174-.24-.502.417.077.088zm-.507.115c-.025.471.681.419.964.259-.169-.029-.268-.128-.297-.297-.112.1-.297.213-.454.199-.117-.009-.188-.063-.213-.161zm1.337-.049c.024-.185-.319-.003-.362.013-.192.073.325.243.362-.013zm.416-.4l-.166.08c-.436.317.37.413.166-.08zm-.245.555c-.091-.033-.091-.065 0-.098.09.032.09.065 0 .098zm-.151-.381c.227-.3.611-.278.325-.623-.148-.178.18-.734-.247-.734-.271 0-.155-.332-.334-.443-.219-.136-.269-.146-.488-.146l-.72-.371c.618.398 1.602 1.062 1.428 1.896.002-.006-.067.421.036.421zm-.815-2.071l.149.009c.025-.132-.03-.178-.166-.137l.017.128zm.988.565c.033-.159-.029-.216-.188-.171l.02.16.168.011zm.318.81c-.163 0-.163-.249 0-.249.164 0 .164.249 0 .249zm-2.303-1.089c.57.539.195 1.004.412 1.573.124-.135.249-.264.401-.344 0 .033.059.438-.013.438.539 0 .461-.7.346-1.025-.189-.532-.521-.876-.994-1.167.268.561-.976.012-.208-.12-.117-.065-.24-.115-.369-.149-.659-.14.417.786.425.794zm-.035-.59c-.172 0-.149.227.009.227.158-.001.151-.227-.009-.227zm-.464 2.506c-.406-.397-.56.264-.125.086l.125-.086zm-.363.378c.147.031.323.007.47.007.026 0 .966-.105.749-.261-.059-.039-.314.292-.494.134-.094-.082-.025-.217-.154-.214-.157.003-.423.49-.643.151-.129-.201-.075.152.072.183zm1.196-.528c-.112-.002-.267.041-.366.111.051.116.15.17.272.102.073-.056.104-.127.094-.213z"/><path fill="#BA6C29" d="M33.833 12.812c-.333 0-.333-.511 0-.511s.333.511 0 .511zm-.447-1.141c-.255.171.07.533.302.376.254-.171-.07-.533-.302-.376z"/><path fill="#D4AF3B" d="M33.843 12.667c-.193 0-.193-.286 0-.286.192 0 .192.286 0 .286zm-.166-.81c.068-.108-.113-.178-.185-.158-.212.059.065.347.185.158zm-7.145 19.8c-.425.211-.745.387-1.15.624-.65.383-1.514.276-2.237.249-.348-.013-.788.084-.905.471-.106.352.401.821.643.426.196-.321-.18-.5.383-.457.084.006.927.258.893.281-.098.068-.876-.305-.886-.172-.009.123.113.35.128.489.107-.908.433.405.471.693.185-.119.13-.357.267-.518.104-.122.249.293.252.356.421-.433.775-.922 1.309-1.235.6-.351.599-.552.832-1.207zm-6.365-7.143c-.035-.333-.182-.184-.378-.129-.241.066-.08-.52-.243-.452-.345.147-.307.19-.104.52.102.165-.477.085-.233.5.078.136.301-.294.375-.081.104.301.04.579.397.464.202-.062-.128-.479-.171-.552-.053-.092.325-.253.357-.27zm2.157 9.357c-.032-.183-.234-.848-.383-.726-.471.382.204 1.043.383.726zm.261-.089c-.226.189.172.238.2.365-.038-.175-.057-.28-.2-.365zm.315.878c.042-.064 1.43-.577.602-.75-.285-.06-.531.413-.729.364-1.447-.352-.308.724.127.386zm1.18.116c.127-.085.039-.297-.081-.33-.239-.064-.431.106-.639.191-.178.072-.28.173-.435.27h-.301c-.1.084.418.305.553.209.304-.211.582-.184.903-.34zm0-.443c.215.193.202-.266.093-.39-.069.123-.099.258-.093.39zm-.393-.673c-.009-.101-.039-.195-.087-.283-.061.099-.146.268-.189.375.195.098.181-.005.276-.092zm-.727.269c.267-.058.519-.521.109-.521-.204 0-.259.428-.109.521zm.275-.619c-.009-.105-.055-.188-.136-.248-.075.244.02.204.136.248zm-1.677-3.457c.148-.926-.226-1.51-.654-2.314-.257-.484-.479-1.007-.576-1.55l.049-.892c-.113-.114-.293.256-.31.312-.072.228-.605-.031-.638.17 0 .003.565.471.626.614.18.417.263.865.332 1.312.079.524.322 2.453 1.171 2.348zm.356 1.011c-.436.244.081 1.762.561 1.67.657-.124-.069-1.716-.561-1.67zm.146-.441c0-.446-.75-.385-.603.095.108.355.585.263.603-.095zm2.566 5.107c-.414-.072-.396-.439-.817-.414-.384.023-.07.164-.044.421.002.017-.032.488.012.506.131.056.254-.436.358-.412.206.05.577.12.491-.101zm-.445.294c-.273-.046-.106.295.021.358.11.057-.003-.326-.021-.358z"/><path fill="#1E5F92" d="M43.119 32.157c-.193-.046-.66.108-.712.377-.088.461 1.151-.101.712-.377zm.341-1.2c-.094-.397-.341-.771-.712-.957-.053.187-.355.866-.115.928.278.072.742.3.827.029zm-1.985-.312c.154.027.295-.817.33-.951-.544-.006-1.098.199-1.372.695.34.108.695.176 1.042.256zm-1.02.909l-.213-.046c.194.774 1.409 1.442 1.678.325-.494-.066-.987-.178-1.465-.279z"/><path fill="#D4AF3B" d="M40.351 31.316c.473.11.954.187 1.43.283.581.116.38-.461.638-.509.218-.041.319.753.721.818.338.052.506-.656.102-.75-.198-.046-.926-.08-.866-.369.036-.169.344-.762.272-.898-1.329-.825-.439 1.019-1.296.835-.175-.038-.865-.315-1.009-.231-.198.113-.311.778.008.821zm3.288.754c-.261-.171-.579.737-.929.869-.248.093-.611.04-.541-.302.058-.277.369-.28.493-.489.136-.228-.034-.455-.262-.505-.326-.072-.421.433-.518.632-.236.484-1.187.612-1.479.121-.132-.221-.22-1.076-.514-1.118-.8-.115.154 1.346.197 1.471.23.666-.919-.186-1.018-.257l-.67-.499-.928-.362c.262.647.134.793.769 1.114.576.291 1.566 1.16 2.218 1.025.466-.095 4.044-.913 3.182-1.7zm-1.668-2.992c.145-.019.391-.088.282.145-.187.399.185.579.244.436.036-.086-.056-.595.147-.487.368.209.34-.215.244-.215-.367 0-.301-.057-.147-.302.084-.134-.358-.318-.366-.038-.012.411-.709-.08-.404.461zm.464 2.106c-.051.124-.115.517.162.435.113-.032-.121-.398-.162-.435zm1.019.671c.112.255.321-.146.082-.264-.06-.03-.08.236-.082.264zm-3.549-.677l.139.041.052-.458c-.193-.001-.225.33-.191.417z"/><path fill="#BA6C29" d="M40.601 30.673c.292 0 .292.452 0 .452s-.292-.452 0-.452zm.635.151c.299 0 .299.463 0 .463s-.299-.463 0-.463zm1.853.394c.299 0 .299.464 0 .464-.298 0-.298-.464 0-.464zm-1.215-.243c.299 0 .299.464 0 .464-.3 0-.3-.464 0-.464zm.168-.557c.3 0 .3.464 0 .464-.299 0-.3-.464 0-.464zm.162-.556c.3 0 .299.464 0 .464s-.299-.464 0-.464z"/><path fill="#D4AF3B" d="M40.617 30.764c.146 0 .146.226 0 .226s-.146-.226 0-.226zm.636.153c.15 0 .15.232 0 .232-.149-.001-.149-.232 0-.232zm1.854.394c.149 0 .149.232 0 .232-.15-.001-.15-.232 0-.232zm-1.216-.243c.15 0 .15.232 0 .232-.149 0-.149-.232 0-.232zm.169-.557c.149 0 .149.231 0 .231-.151.001-.151-.231 0-.231zm.162-.557c.149 0 .149.232 0 .232-.15.001-.15-.232 0-.232z"/></svg>