<svg xmlns="http://www.w3.org/2000/svg" width="64" height="48"><g fill="#FFDF00"><path d="M.081.001h63.838v47.999h-63.838zM32 24.001"/></g><path fill="#E40520" d="M64 .003l-25.118 18.837c-.303-.406-.64-.785-1.009-1.131l16.527-17.707-19.202-.001-2.061 15.457c-.373-.049-.751-.084-1.138-.084s-.765.035-1.138.084l-2.06-15.457-19.2-.001 16.527 17.708c-.37.346-.707.724-1.01 1.13l-25.118-18.838v19.201l23.5 3.525c-.062.417-.104.84-.104 1.275s.042.858.104 1.274l-23.5 3.525v19.2l25.118-18.838c.304.406.64.784 1.01 1.131l-16.527 17.707h19.201l2.06-15.457c.373.05.751.084 1.138.084s.765-.034 1.138-.084l2.06 15.457h19.201l-16.526-17.707c.369-.347.705-.725 1.009-1.131l25.118 18.838v-19.2l-23.5-3.524c.062-.417.104-.84.104-1.274 0-.434-.042-.857-.104-1.274l23.5-3.524v-19.201z"/><circle fill="#FFDF00" cx="32" cy="24.001" r="7.209"/></svg>