<svg xmlns="http://www.w3.org/2000/svg" width="64" height="48" viewBox="-31.5 24.5 64 48" enable-background="new -31.5 24.5 64 48"><path fill="#D51224" d="M-31.5 24.5h64v48h-64z"/><path fill="#fff" d="M.5 48.5"/><path fill="#005CA9" d="M-8.5 24.5h18v48h-18z"/><g fill="#FFD500"><path d="M-18.44 53.26c.677 1.977-.536 2.684-1.75 3.022-1.214.338-2.766 1.413-1.411 3.079 1.436 1.767 7.338-1.806 3.161-6.101zm-4.063 5.847c-.677-1.979.592-2.854 1.806-3.192 1.214-.339 2.756-1.215 1.355-2.825-1.722-1.979-7.846 1.78-3.161 6.017zM-28.5 47.213h3.428v17.503h-3.428zM-20.5 44.925c-1.312 0-2.793-.339-3.809-1.991.507 2.033 1.989 3.433 3.809 3.433"/><path d="M-17.156 62.768l-3.344 2.16-3.344-2.16zM-24.098 60.479h7.195v1.355h-7.195zM-24.098 50.137h7.195v1.356h-7.195zM-15.929 47.213h3.429v17.503h-3.429zM-17.368 47.171l-3.132 2.119-3.132-2.119zM-20.5 44.925c1.312 0 2.794-.339 3.81-1.991-.508 2.033-1.989 3.433-3.81 3.433"/><circle cx="-20.5" cy="41.365" r="2.817"/><path d="M-20.425 31.984c-.274.408-.226.869-.15 1.149.076.281.094.433-.207.791-.301.358-.357.792-.075 1.111.282.319.207.848-.132.885-.338.038-.731-.343-.527-.753.113-.227.076-.546.02-.678-.057-.133.019-.34.075-.471.057-.133.057-.302.038-.416-.019-.112-.073-.11-.169.039-.171.264-.208.414-.152.565.057.151-.025.336-.207.583-.621.848-.15 2.523 1.411 2.523s2.033-1.365 1.769-1.92c-.188-.396-.339-.772-.32-1.111.019-.34-.151-.565-.283-.754-.131-.188-.188-.112-.112.15.075.264.094.49 0 .641-.094.152-.076.435.075.642.15.207 0 .659-.376.679-.376.019-.677-.377-.433-.961.244-.584.32-1.337.094-1.676s-.339-.697-.263-.885c.075-.189 0-.244-.076-.133z"/></g><path d="M-15.501 53.624c-1.03 0-1.011 1.425 0 1.425 1.016 0 1.054-1.425 0-1.425zm0 3.869c-1.03 0-1.011 1.425 0 1.425 1.016 0 1.054-1.425 0-1.425z" fill="#EE7335"/></svg>