<svg xmlns="http://www.w3.org/2000/svg" width="64" height="48"><path fill="#0058A2" d="M0 0h64v48h-64z"/><g fill="#fff"><path d="M22.263 18.623c.254.102.51.066.76-.107l.179-.148c.298-.291.21-.722.083-1.033-.286-.703-.972-1.329-1.332-1.354l-.266-.614c-.675-.554-1.13-1.194-1.252-1.792-.279-.022-.527.083-.72.307-.279.326-.319.676-.124 1.101.123.27.341.571.673.931l-.031.134c-.36-.383-.596-.704-.733-.991-.263-.051-.497.042-.695.277-.26.309-.363.774-.283 1.278.08.5.356 1.093.896 1.55l-.049.107c-.558-.463-.854-1.067-.949-1.585-.227.036-.441.184-.637.442-.197.257-.235.606-.112 1.01.123.407.396.834.749 1.202-.585-.252-1.071-.481-1.347-.947-.304-.513-.551-.304-.664-.209-.114.095-.209.114-.379-.038-.171-.151-.342-.171-.494-.151-.152.019-.342-.02-.513-.077-.171-.057-.797.304-.152.513.645.208 1.12.569 1.101.74-.019.171.057.456.208.55-.303.247-.19 1.044.57 1.822l-.01.147c-.285-.228-.482-.458-.596-.714-.183.052-.34.172-.466.362-.22.33-.19.765.083 1.224.262.439.704.841 1.252 1.15l-.034.111c-.553-.309-1.005-.71-1.283-1.15-.083.066-.155.16-.213.28-.115.238-.111.509.01.784.203.46.706.884 1.39 1.188-.041.187-.033.425.024.698.178.832.808 1.883 1.429 2.059l.012.003c.153.04.295.021.421-.06.155-.098.249-.237.278-.415.03-.177-.005-.384-.096-.605l.021.004c.258.038.485-.051.677-.264.206-.229.235-.48.089-.769-.579.171-1.238-.354-1.761-1.022l.067-.098c.513.668 1.16 1.194 1.703.998.13-.048.25-.137.355-.265.161-.195.188-.427.08-.689-.59.138-1.441-.307-2.184-1.121l.069-.094c.731.805 1.585 1.255 2.131 1.093.164-.049.296-.151.394-.303.072-.114.1-.232.083-.357-.172.087-.354.11-.542.065-.368-.087-.729-.432-1.044-.834l.084-.077c.303.389.645.72.986.801.186.044.357.014.526-.091l.18-.143c.245-.238.198-.553.106-.789-.404.042-.83-.193-1.291-.713l.06-.106c.458.524.879.76 1.258.702.209-.032.413-.155.604-.363.24-.262.289-.571.145-.919-.596.193-1.445-.35-1.961-1.209l.087-.079c.499.84 1.342 1.386 1.884 1.164.151-.062.275-.179.368-.35.17-.311.188-.648.056-1.003-.367.037-.761-.126-1.116-.466-.211-.201-.4-.458-.542-.73l.089-.079c.321.627.941 1.254 1.599 1.158.173-.026.341-.102.499-.225.286-.225.387-.479.31-.775-.261.157-.537.184-.803.078-.407-.163-.762-.622-.979-1.244l.105-.047c.21.586.547 1.032.92 1.181zm21.531 10.15c.089.068.198.115.318.133.122.019.34.019.563-.138-.153-.005-.302-.059-.438-.162-.253-.189-.486-.538-.27-1.144-.127.126-.229.25-.299.371-.304.521-.014.83.126.94zm-6.592 3.628c-.233-.083-.48-.065-.735.056-.345.161-.496.351-.489.612.008.374.323.89.803 1.659.415-.133.847-.289 1.286-.486-.626-.821-.904-1.412-.865-1.841zm.885-.575c-.146-.015-.287.016-.422.088-.205.109-.318.26-.347.458-.057.398.224.996.854 1.822.275-.125.552-.267.83-.428-.575-.804-.964-1.434-.915-1.94zm1.349-.579c-.293-.139-.589-.125-.855.039-.219.133-.34.297-.374.5-.079.474.325 1.125.896 1.924.414-.246.833-.535 1.247-.88-.523-.566-.851-1.132-.914-1.583zm2.011.524c-.495-.386-1.005-.891-1.132-1.406-.182-.026-.348.023-.506.148-.209.164-.297.396-.266.688.051.434.372.991.894 1.555.34-.287.676-.614 1.01-.985zm.079-2.536c-.296-.03-.586.083-.861.336-.223.206-.306.452-.248.732.085.406.475.891 1.106 1.382.35-.399.694-.849 1.031-1.356-.5-.388-.846-.754-1.028-1.094zm.582-1.384c-.15.022-.288.11-.412.263-.253.314-.281.655-.083 1.043.168.331.507.692 1.003 1.078.198-.306.394-.633.585-.98-.415-.373-.876-.874-1.093-1.404zm1.141-1.026c-.111.266-.083.521.034.713.083.135.166.228.26.289-.155.291-.158.577-.021.81l-.267.514c-.529-.48-.895-.954-1.058-1.381-.207-.532-.097-.972.325-1.312.084.168.416.411.727.367zm-6.974 11.547c.214.188.493.223.831.101.427-.156.663-.444.703-.856-.283-.358-.442-.845-.493-1.271-.463.184-.952.355-1.473.512-.028.541.085 1.204.432 1.514zm1.638-.809c.227.278.616.559 1.183.312.354-.153.562-.414.623-.773-.438-.326-.669-.971-.696-1.562-.489.271-1.022.525-1.598.76.044.423.202.913.488 1.263zm1.899-.533c.245.17.521.204.824.104.377-.126.578-.451.601-.968-.424-.286-.651-.961-.684-1.608-.43.32-.899.63-1.418.921.016.583.243 1.247.677 1.551zm1.513-.941c.26.161.562.132.893-.088.4-.263.554-.622.467-1.097-.517-.089-.888-.656-1.026-1.286-.302.291-.631.579-.994.856.012.652.232 1.349.66 1.615zm1.414-1.291c.222.025.457-.048.702-.219.316-.221.459-.501.428-.836-.205.042-.405 0-.597-.128-.31-.206-.548-.611-.687-1.023-.246.313-.522.625-.831.932.118.633.479 1.213.985 1.274zm.597-1.277c.182.121.372.154.564.098.12-.034.242-.103.363-.203.266-.221.389-.476.368-.757-.201.057-.395.038-.576-.057-.354-.184-.597-.617-.758-1.05-.182.309-.39.62-.627.931.126.415.359.833.666 1.038zm.773-1.02c.171.09.357.099.553.028.111-.04.227-.106.344-.197.178-.141.286-.302.322-.481-.277.099-.561.07-.826-.085-.336-.198-.618-.6-.768-1.062-.105.235-.225.477-.363.72.193.551.45.928.738 1.077zm1.638-1.496c-.384.166-.651.074-.81-.033-.287-.194-.457-.605-.448-1.079-.146-.111-.255-.252-.33-.417-.083.337-.2.695-.354 1.065.128.489.411.924.756 1.127.26.152.541.167.813.041l.203-.118c.241-.176.336-.394.284-.648l-.114.062zm-.049-1.258c-.238.313-.533.44-.817.349-.101-.031-.193-.074-.278-.125.012.402.159.744.397.906.193.13.436.139.7.023l.161-.097c.242-.195.309-.517.318-.766-.176-.042-.346-.145-.481-.29zm-1.458-.367c.07.178.184.326.339.439.098.071.211.128.336.168.242.078.498-.043.708-.33-.118-.161-.183-.345-.187-.536-.145-.121-.234-.296-.267-.519-.091.067-.188.114-.289.141-.179.178-.402.276-.63.285l-.045.242.035.11zm-26.975.582c.011.422.164.915.801.972.245.022.439-.033.578-.166.177-.169.267-.465.264-.858-.108.061-.238.1-.387.113-.33.032-.596-.059-.792-.271-.103.095-.229.16-.376.194l-.088.016zm1.441-1.091c-.174-.153-.301-.405-.372-.728-.063.183-.186.321-.363.405.1.463.041.864-.164 1.119.172.188.409.27.704.241.17-.017.311-.066.417-.148.187-.142.273-.381.258-.711-.183.001-.345-.06-.48-.178zm-1.551-.372c-.028.448-.275.712-.72.764l-.125.009c.158.31.434.63.89.584l.126-.021c.148-.034.271-.103.364-.204.203-.221.265-.597.173-1.037l-.014.004c-.239.072-.477.038-.694-.099zm2.32-1.835c.351.529.517 1.132.47 1.571-.025.226-.119.52-.423.634-.1.037-.196.059-.286.065-.175.012-.328-.038-.455-.148-.208-.183-.343-.528-.383-.979.156.024.301-.005.434-.089.183-.116.294-.281.33-.492.025-.148.01-.314-.041-.491.112.004.253-.033.354-.071zm-2.672-.996l-.303-.161c-.08.246-.121.536-.117.847.349.532.754 1.367.774 2.008.206.154.428.197.658.127l.067-.025c.333-.135.395-.441.384-.688-.639-.217-1.276-1.265-1.463-2.108zM17.974 24.029l-.025.084.035-.071zM15.716 28.825c.116.201.282.31.508.329l.197-.004c.42-.049.629-.304.623-.759-.008-.626-.418-1.464-.765-1.99-.113-.171-.225-.318-.328-.434-.292.677-.618 2.187-.235 2.858zm11.151 9.469c-.148.187-.388.4-.693.347-.393-.069-.652-.354-.731-.805.333-.298.564-.814.653-1.421.314.132.642.258.983.377-.041.538-.117 1.174-.212 1.502zm-3.103-1.186c.047.477.296.788.706.878.328.071.623-.001.875-.215.332-.282.561-.795.643-1.401-.532-.227-1.028-.469-1.49-.727-.1.648-.363 1.186-.734 1.465zm-1.597-1.114c-.05.641.213 1.087.708 1.194.293.064.561.013.796-.152.37-.262.63-.801.722-1.452-.569-.323-1.084-.669-1.552-1.034-.113.635-.355 1.16-.674 1.444zm-.387-2.382c-.163.692-.515 1.169-.987 1.281-.032.665.249 1.113.756 1.202.18.032.357-.026.526-.172.312-.269.557-.812.664-1.454-.346-.276-.666-.562-.959-.857zm-1.333-.211c-.22.215-.49.314-.782.293-.011.627.28 1.036.785 1.103.096.012.19.011.278-.006.466-.086.811-.566.958-1.274-.288-.298-.551-.604-.79-.916-.101.333-.253.608-.449.8zm-.84.172c.284.045.547-.046.76-.254.199-.194.35-.482.446-.831-.224-.303-.426-.61-.607-.923-.098.273-.233.504-.403.674-.242.244-.546.351-.877.308l-.176-.037c-.023.598.286.976.857 1.063zm-.396-2.108c-.249.269-.564.387-.912.342l-.09-.016c.077.289.251.491.506.588l.223.055c.3.039.563-.054.783-.274.175-.176.312-.427.406-.729-.17-.304-.321-.61-.455-.921-.089.39-.245.721-.461.955zm.039-2.096c.092.316.215.634.342.946-.078.447-.237.824-.466 1.071-.226.244-.499.348-.812.307l-.165-.035c-.306-.092-.573-.373-.583-.763.75.39 1.49.066 1.462-1.081.076-.123.194-.199.222-.445zm.255-.313l-.146.025.135.461.011-.486zm7.755 6.015l-.545-.17-.075-.026c.376-.441.615-.866.701-1.244-.018.453-.049 1.155-.081 1.44zm-2.095-.837c.62-.496 1.111-1.192.92-1.754-.049-.147-.146-.283-.285-.402-.141-.121-.282-.179-.422-.172.036.552-.347 1.25-1.018 1.865.265.167.532.32.8.461l.005.002zm-.904-.526c.682-.617 1.062-1.315.999-1.846-.033-.271-.179-.494-.436-.663-.254-.166-.51-.207-.763-.12.014.535-.301 1.293-.931 1.796.368.308.747.585 1.131.833zm-1.219-.908c.609-.479.936-1.238.904-1.757-.01-.168-.063-.391-.256-.495-.159-.087-.302-.145-.435-.174-.096.536-.541 1.085-1.193 1.482.314.341.642.656.98.944zm-1.059-1.029c.658-.396 1.099-.945 1.167-1.473.042-.314-.06-.575-.294-.753-.262-.199-.529-.321-.775-.357-.215.45-.644.865-1.197 1.159l.335.486c.244.333.499.646.764.938zm-1.161-1.519c.551-.291.976-.704 1.174-1.148.188-.42.156-.822-.087-1.103-.136-.156-.301-.23-.49-.222-.169.548-.586 1.076-1.165 1.481.177.347.368.678.568.992zm-.835-1.577l.215.483c.564-.398.966-.916 1.12-1.448.147-.518.042-.991-.291-1.299-.289-.267-.604-.35-.89-.231-.203.085-.375.265-.503.514.463.701.53 1.486.349 1.981zm-.209 6.18c-.215-.029-.348-.126-.464-.229-.181-.162-.598-.333-.958-.229-.361.105-.57-.048-.702.01-.133.057-.209.085-.313.066-.104-.02-.218.038-.304.114-.085.075-.124.104-.218.104s-.143.029-.228.123c-.086.096-.162.039-.218-.065s.066-.456.171-.56c.104-.105.114-.152.047-.257-.067-.104-.067-.229.028-.229.267 0 .493-.283.579-.437.085-.151.151-.265.408-.369.255-.104.711-.228 1.005-.398l.048.009c-.077.494.132 1.044.901 1.215.058.289.055.622.318.887.024.073.032.162-.1.245zm29.314-5.306c-.189 0-.246-.02-.323-.171-.074-.152-.17-.172-.303-.133-.134.038-.398-.152-.437-.361s-.38-.36-.606-.512c-.229-.152-.247-.304-.267-.627-.019-.322-.151-.342-.304-.512-.151-.171-.228-.418-.189-.551s-.095-.456-.304-.684-.322-.438-.246-.721c.059-.225.048-.343-.043-.579.486-.278.816-.605.949-.952.1-.259.088-.518-.036-.769-.059-.116-.136-.203-.228-.258-.227.385-.604.77-1.107 1.131l-.066-.093c.512-.366.888-.755 1.103-1.143.278-.496.265-.958-.038-1.336-.099-.123-.208-.21-.328-.261-.259.453-.78.927-1.409 1.3l-.035-.111c.623-.373 1.131-.843 1.369-1.287.227-.424.21-.802-.052-1.121-.146-.18-.302-.29-.46-.328-.108.598-.511 1.365-1.136 1.951l-.049-.11c.61-.582.995-1.34 1.082-1.916.053-.347.001-.62-.147-.792-.17-.195-.369-.27-.595-.223-.203.535-.654 1.129-1.219 1.619l-.062-.098c.556-.483.997-1.068 1.187-1.589.179-.488.142-.898-.109-1.22-.188-.238-.365-.365-.544-.385-.158.549-.553 1.128-1.058 1.589l-.047-.112c-.191.177-.397.336-.616.47l-1.168-1.033c-.109.372-.43.748-.841.96-.38.197-.753.209-1.043.04-.059.257.007.493.193.704.265.297.555.436.862.412.38-.029.767-.319 1.057-.778l.093.068c-.303.479-.701.777-1.11.821-.254.4-.419.89-.142 1.092.121.088.244.153.366.192.58.187 1.175-.2 1.631-1.062l.023-.044.062.126c-.472.873-1.09 1.272-1.704 1.102-.113.224-.188.545.033.867.225.324.498.482.812.47.432-.017.926-.351 1.401-.946l.06.106c-.477.586-.978.921-1.426.951-.17.266-.179.49-.023.665l.203.192c.187.138.382.184.578.136.428-.104.807-.618 1.06-1.06l.064.114c-.265.447-.651.947-1.098 1.056-.206.05-.41.013-.603-.109-.037.176.01.343.136.498.096.115.21.192.342.231.575.168 1.423-.392 2.072-1.068l.219-.01c-.538.562-1.581 1.361-2.277 1.198-.092.183-.153.436.019.676.107.153.223.253.348.31.297.132.667-.003 1.146-.425v.15c-.462.385-.835.511-1.149.396-.129.188-.112.393.053.623.222.311.474.431.769.366.208-.045.439-.178.718-.412l.085.076c-.288.244-.533.388-.755.441-.154.239-.175.499-.053.697l.158.198c.109-.158.258-.316.444-.474.105-.202.25-.421.434-.652l.12.122c-.176.223-.313.434-.412.628-.278.553-.233.972.132 1.245.165.124.35.166.533.122.118-.029.233-.093.34-.188.175-.156.319-.39.42-.672l.106.036c-.102.289-.25.532-.43.7.015.191.073.345.172.457l.053-.203.023-.028.743-.441.059.098-.727.432c-.03.087-.047.177-.049.267-.001.237.102.416.188.525.134.164.323.282.51.315.111.02.217.009.307-.031.179-.079.298-.206.356-.376.057-.159.055-.353-.002-.572.232.06.374.062.532.308.171.266.493.151.683.379.19.229.304-.037.552.152.246.19.437.152.645.038.206-.108-.04-.279-.23-.279zm-7.654 6.714c.613.156 1.366-.257 1.425-1.281.198-.029.441-.086.555-.199.113.299.142 1.224-.028 1.537-.172.313-.812 1.267-.285 1.623.526.355.611.498.683.669.072.17-.028.37-.199.228-.17-.143-.342-.199-.568-.199-.229 0-.557-.043-.685-.313-.127-.271-.17-.271-.37-.412-.198-.143-.342-.414-.398-.627s-.257-.144-.13-1.026zm-4.666-23.696c.503-.595.846-1.26.803-1.854.392-.203.768-.216 1.119-.037.525.267.707.708.542 1.31-.142.524-.542 1.143-1.135 1.77l.088.071c.595-.629.998-1.253 1.149-1.788.408-.244.759-.289.937-.12.157.15.267.312.327.484.201.581-.172 1.299-1.082 2.092l.117.049c.906-.799 1.272-1.515 1.086-2.133.363-.199.689-.136.972.187.215.247.308.511.279.783-.048.454-.421.894-.896 1.279l.17.004c.433-.37.768-.789.833-1.225.27-.021.503.106.691.378.113.164.188.331.227.498.051-.062.107-.11.171-.123.285-.057.247-.474.645-.949.398-.474.514.114.362.304-.153.19-.039.551-.21.684-.117.091-.096.417-.019.569.075.152.038.304-.38.512l-.111.056c.171-.011.324.071.454.244.195.256.238.609.13 1.021-.196.738-.846 1.543-1.624 2.022l-1.263-1.118c-.087.357-.399.738-.8.945-.37.191-.729.193-.989.003-.075-.054-.144-.124-.2-.208-.063-.09-.076-.233-.042-.403.377-.081.691-.361.872-.755l-.097-.062c-.169.381-.474.649-.833.713-.219.039-.441.002-.663-.108-.188-.095-.313-.309-.352-.604.366-.268.649-.702.777-1.171l-.085-.13c-.107.494-.399.959-.786 1.229-.312.217-.664.292-1.02.216-.285-.061-.46-.248-.522-.556.351-.13.669-.434.896-.862.15-.282.255-.608.309-.951l-.104-.077c-.123.876-.585 1.606-1.185 1.799-.21.067-.427.065-.64-.006-.279-.093-.467-.348-.529-.718.428-.366.716-1.076.816-2.009l-.11-.039c-.097.935-.382 1.638-.803 1.981-.252.203-.552.284-.895.241-.447-.056-.646-.409-.733-.71.553-.43.558-1.449.503-2.063l-.115-.023c.057.599.063 1.629-.486 2.019-.142.101-.314.152-.513.152-.438 0-.748-.239-.923-.708.251-.34.314-.854.273-1.379l-.109.046c.035.5-.029.98-.273 1.289-.123.156-.287.256-.488.297-.217.044-.424.021-.616-.068.151-.517.054-1.236-.237-1.924l-.105.042c.292.685.383 1.398.22 1.894-.1.302-.283.494-.546.57-.345.1-.651.065-.885-.099-.5-.351-.667-1.248-.474-2.531l-.124.052c-.178 1.261-.004 2.159.496 2.544-.134.345-.386.55-.752.61-.326.054-.61-.023-.846-.228-.32-.278-.541-.783-.624-1.411l-.107.053c.089.624.313 1.131.635 1.424-.027.368-.217.609-.564.714-.237.072-.459.087-.658.042-.683-.151-.987-.933-1.123-1.576l-.107.043c.141.651.454 1.438 1.149 1.629-.075.282-.248.464-.514.543-.457.137-.846-.057-1.091-.243-.41-.311-.728-.838-.851-1.367l-.148-.006c-.195.389-.348.694-.689.864-.28-.302-.585-.507-.789-.521l-.266-.614.094-.069c-.683-.555-1.138-1.195-1.242-1.786-.076-.426.042-.798.339-1.078.262-.246.588-.318.944-.208.169.052.336.142.499.262v-.01c-.086-.712.37-1.196.91-1.167-.142-.484.399-.427.144-.968-.257-.541-.342-.74-.598-.968-.257-.228.113-.512.341-.256.228.256.427.398.598.484.17.09.255.26.312.403.057.143.113.171.341.143.228-.029.484.256.398.427.115-.007.292.029.504.123.072-.334.283-.578.628-.725.386-.164.745-.123 1.064.121-.135.592.197 1.429.959 2.426v.064l.165-.037-.064-.082c-.765-.996-1.09-1.819-.942-2.38.063-.238.213-.431.447-.572.332-.201.718-.168 1.09.091-.123.671.137 1.57.704 2.477l.096-.061c-.562-.898-.814-1.784-.681-2.431.086-.414.322-.685.685-.782.409-.11.834.07 1.165.494.289.369.526.977.536 1.753l.113-.036c-.017-.771-.252-1.38-.54-1.762.223-.613.641-.939 1.124-.875.292.039.531.169.711.388.328.396.453 1.129.194 2.054l.098.007.029-.032c.045-.167.078-.332.1-.493.087-.631-.015-1.177-.285-1.547.187-.064.375-.05.559.044.323.166.54.427.642.774.038.129.06.268.064.415l.115-.014c-.007-.14-.026-.273-.062-.399.288-.27.585-.333.883-.19.472-.427.823-.731.944-1.035.172-.427.627-.313.742-1.053.113-.74.369-.37.454-.028v.74c.113.171-.256.484-.228.883.017.219-.063.515-.209.785l.21.091c.406.221.633.531.673.921.061.581-.286 1.246-.798 1.838l.114.042zm-18.703 10.714l-.069.094.337.337.086-.078c-.12-.107-.239-.225-.354-.353zm1.776-4.328c.355-.883.726-1.381 1.209-1.452-.484.014-.996.684-1.281 1.438l.072.014zm7.245 13.855l-.176-.173c-.213-.159-.461-.207-.705-.137.157.591-.321 1.287-.935 1.793.418.213.837.394 1.25.543.312-.359.531-.706.646-1.022l-.543.396.463-1.4zm8.317.795c.077.608.146 1.005.146 1.474.353-.092.728-.192 1.116-.312-.229-.365-.418-.674-.557-.94l.123.385-.828-.607zm-18.552-9.511c-.276-.417-.835-.465-.199.161l.199-.161zm1.224-.199c-.132.161.276.778.57.598.294-.181-.428-.769-.57-.598zm-.104 1.119c.778.19.721 1.035-.095.219l.095-.219z"/></g><path d="M35.866 36.672c.409-.125.803-.261 1.178-.405-.3-.247-.203-1.015-.047-1.43-.485.16-.948.286-1.376.398.092.52.265.798.245 1.437zm-16.221-6.693c.145.393.315.772.507 1.14.02-.664.004-1.285.012-1.658-.105-.201-.207-.407-.302-.617-.05.061-.112.114-.197.155-.006.402.008.79-.02.98zm.629 1.365c.248.441.53.864.847 1.268-.009-.619-.001-1.256.017-1.599-.308-.415-.588-.852-.842-1.31-.01.524-.005 1.349-.022 1.641zm1.025 1.487c.326.391.687.762 1.08 1.111 0-.513.006-1.201.01-1.504-.398-.385-.766-.797-1.104-1.233-.002.331.001 1.311.014 1.626zm1.23 1.243c.379.325.786.632 1.223.918-.007-.467.012-1.135.017-1.413-.434-.305-.844-.639-1.227-.996l-.013 1.491zm1.389 1.025c.342.218.7.423 1.076.617l.017-1.375c-.374-.198-.739-.417-1.09-.656-.005.414.014 1.147-.003 1.414zm1.223.691c.368.186.751.358 1.15.521.001-.276-.002-1.162.014-1.382-.389-.148-.775-.32-1.152-.515-.013.325-.01 1.089-.012 1.376zm1.297.58l.622.233.055-.374c.028-.359.073-.647.133-.987-.263-.074-.525-.159-.786-.254.002.335-.036 1.204-.024 1.382zm11.832-2.032c-.38.176-.755.321-1.116.446-.114.404-.265 1.151.062 1.416.387-.153.753-.316 1.104-.487-.327-.518-.183-1.068-.05-1.375zm1.208-.66c-.354.228-.708.422-1.058.59-.19.394-.231.946.023 1.385.371-.187.723-.382 1.055-.585-.039-.255-.072-1.016-.02-1.39zm1.376-1.062c-.38.35-.777.664-1.197.946-.051.286-.049.905.005 1.404.456-.289.873-.593 1.253-.906-.126-.182-.137-.989-.061-1.444zm1.285-1.408c-.357.462-.733.884-1.134 1.266-.085.642-.093 1.273.072 1.449.425-.364.8-.742 1.131-1.127-.161-.211-.187-.863-.069-1.588zm.968-1.445c-.258.439-.527.851-.811 1.234-.099.788-.115 1.427.062 1.619.328-.401.607-.81.841-1.218-.097-.275-.191-.975-.092-1.635zm.724-.685c-.025.166-.038.433.098.604.051-.178.092-.354.125-.527l-.223-.077zm-.066-.033l-.19-.13-.3.559c-.088.468-.188 1.295.043 1.711.229-.427.408-.851.54-1.266-.065-.197-.126-.568-.093-.874z" fill="#D48C00"/><path fill="#E73B22" d="M38.293 13.43c.156.455-.185.868-.611 1.096.17.456.725.726.84 1.068.881-.555 1.266-1.039 1.124-1.95-.713.014-.912.128-1.353-.214zm-.229-.384c.172 1.053-.482 1.423-.996 1.565-.654-.313-.47-.569-1.053-1.196.198-.355.298-.498.257-.996.711.115.897.556 1.792.627zm-3.786-1.011c.47-.028 1.124.014 1.48-.185.542.839.328 1.438-.241 1.779-.955.014-.783-.612-1.494-.726-.058-.341.298-.455.255-.868zm-5.019-.176c.646-.816 1.347-.588 1.67-.892.929.759.095 1.48.208 1.993-.512.171-1.31-.266-1.746-.171.077-.493.057-.626-.132-.93zm-2.353.798c.74-.684 1.404-.968 1.878-1.025.74.702.19 1.442.247 1.993-.93.095-1.405-.228-1.86-.19-.114-.209-.133-.626-.265-.778zm-1.728.948c.664-.494.456-.949 1.252-1.082.816.759.532 1.347.437 1.898-.323-.076-.987.475-1.613.171.095-.531.114-.759-.076-.987zm-3.055.456c-.361.095-.437.323-.341.588.095.266.151.456-.02.646.398.171.683.398.664.873.626.019.247-.778 1.063-.816.057-.494-.228-.703-.626-.816-.399-.114-.513-.152-.74-.475zm-2.316 2.733c.816-.589.057-1.348 1.139-1.747.285.228.417.361.816.494.398.133.721.626.323 1.006-.398.38-.626.949-1.139.721-.513-.227-.759-.436-1.139-.474zm.322 2.05c.456-.417.684-.702 1.025-.873.341-.17.113-.474-.361-.588-.475-.114-.741-.133-.892-.379-.57-.019-.532.341-.437.607.095.266.057.664-.095.797.248.094.494.208.76.436zm-.929-.304c.379.399.721.361 1.024.475.095.759-.741 1.329-1.31 1.67 0-.208.057-.398-.132-.607.303-.152.303-.361.247-.721-.058-.361.018-.627.171-.817zm-1.178 7.047c-.042.555-.071 1.224-.128 1.408-.085-.014-.298.086-.37.143-.37-.483-.466-.56-.541-1.038.086-.229.285-.657 1.039-.513zm.271 1.537c-.655.057-.826.37-.982.526.099.327.47.911.797 1.067.228-.128.299-.17.384-.284.028-.684-.156-.826-.142-.968.014-.142.086-.256-.057-.341zm-1.504-2.966c.095.119.095.802.65 1.285.085-.041.157-.113.341-.057.441-.569.014-1.181.27-1.58-.425-.255-.886-.008-1.261.352zm.166-1.903c.058.555.342 1.011.626 1.253.171-.057.228-.114.371-.071 0-.356.284-.427.27-.897-.385.014-.726-.668-1.267-.285z"/><path fill="#ccc" d="M19.958 19.807c.556.968 1.181 1.252 1.979 1.096-.897-.114-1.495-.74-1.751-1.48-.071.157-.099.256-.228.384z"/><path fill="#E73B22" d="M40.771 17.629c.285-.128.611-.313.796-.569.385.143.868.384 1.054.484.228.897.028 1.58-1.139 1.395-.329-.541-.499-.854-.711-1.31zm1.394 1.48l.298 1.424c.57.128 1.438-.071 1.125-1.182-.355-.185-.498-.498-.812-.555-.226.129-.382.257-.611.313zm.949 1.595c.075.503.17.845.293 1.329.542.417 1.054.18 1.168-.569-.38-.275-.39-1.054-.777-1.244-.238.436-.276.399-.684.484zm.73 1.67c.362.541-.028.911.096 1.12.598-.342 1.016.047 1.548-.408-.38-.294-.703-.712-.771-1.319-.161.436-.607.683-.873.607z"/><path d="M31.432 19.408l-1.817 5.645h-5.975l4.853 3.513-1.865 5.641 4.804-3.505 4.803 3.505-1.839-5.688 4.829-3.442h-5.954z"/><path fill="#fff" d="M31.432 20.141l-1.654 5.137h-5.438l4.416 3.199-1.696 5.134 4.372-3.19 4.372 3.19-1.674-5.177 4.394-3.133h-5.418zM31.432 19.407l1.839 5.67h1.06c-.007-.567-.213-.882-.166-1.355.057-.569-.028-.683-.37-.683.455-.797.626-.712.826-.911.198-.199.37-.313.455-.826.085-.512.229-1.082.455-1.423.228-.341.228-.997.228-1.822 0-.825-.057-.74-.341-.769-.285-.028-.427-.057-.712-.256s-.398-.142-.741-.142c-.342 0-.427.057-.739-.228-.313-.285-.37-.285-.854-.143-.485.143-1.196.285-1.566.057-.37-.228-.542-.2-.996 0-.457.199-.883.398-1.424.341s-.655.057-.825.199c-.172.143-.399.114-.598.313-.2.2.028.257-.427.171-.456-.085-.484.029-.37.513s.256.512.057.854-.199.427-.028.541.199.256.171.427c-.028.171.028.655.285.968.257.313.683.683.74.883.058.199.229.227.427.37.199.143.428.313.484.456.057.143.256.399.512.427-.284.17-.256.541-.256.825 0 .269-.152.411-.122 1.188h1.18l1.816-5.645zm-3.937 14.168c-.103 1.277-.209 3.297-.362 3.982-.17.769-.17 1.537-.199 2.05.796.513 1.48.37 2.277.769.797.399 1.622.428 2.277.428.171 0 .512.085.826.198.313.114.77.229 1.195-.057.427-.284.996-.626 1.453-.684.455-.057.824-.142 1.081-.312-.057-2.676-.398-2.307-.37-3.188.028-.883-.341-1.196-.284-1.907.024-.31.033-.772.018-1.251l-3.975-2.9-3.937 2.872z"/><path fill="#ccc" d="M34.331 25.077c-.007-.567-.213-.882-.166-1.355.057-.569-.028-.683-.37-.683.455-.797.626-.712.826-.911.198-.199.37-.313.455-.826.085-.512.229-1.082.455-1.423.228-.341.228-.997.228-1.822 0-.825-.057-.74-.341-.769-.285-.028-.427-.057-.712-.256.285.228.198.342.198.456s-.057.313-.283.228c-.229-.085-.371.085-.313.284.057.2-.143.371-.371.371-.227 0-.483.37-.711.797-.229.427-.484.114-.684-.057-.199-.17-.255-.057-.483.171-.229.228-.285.313-.513.257l-.074-.01 1.8 5.55h1.059zm-5.463-.025l.001-.276c0-.171.028-.428-.085-.541-.114-.114-.086-.2 0-.313.085-.114.142-.171.114-.341-.028-.171.028-.342.228-.342s.313.057.399.285c.085.228.085.171.342.256l.141.055 1.384-4.301c-.2.03-.422.177-.557.289-.171.143-.285-.028-.427-.228s-.313-.256-.541-.199c-.229.057-.114-.398-.057-.626.057-.228-.058-.313-.2-.256-.142.057-.313-.057-.341-.199-.028-.142-.028-.142-.143-.199s.086-.313.285-.541c.4-.458.028-.37-.428-.484-.455-.114-.37.028-.654.228-.285.199-.313.028-.513.057-.199.028-.17.028-.255-.256-.172.143-.399.114-.598.313-.175.175-.021.24-.289.196-.053.089-.224.231-.224.231.513.712.798 1.082.684 1.452-.114.37.143.968.114 1.167.427-.085.455.114.455.256s-.057.626-.342.199c-.285-.427-.398-.256-.426-.142s.007.192-.138.281c.247.27.546.551.593.716.058.199.229.227.427.37.199.143.428.313.484.456.057.143.256.399.512.427-.284.17-.256.541-.256.825 0 .269-.152.411-.122 1.188h.433zm2.564 5.65l-.348.254c.029.516.03.663-.336.936-.456.343-.769.854-.597 1.652.171.797-.171 4.669-.228 5.352-.057.684-.285.798-.313 1.253-.028.456-.199.171-.199-.171 0-.341.085-1.851.028-2.875-.171 1.821-.569 2.306-.826 2.619-.256.312-.313.228-.341.028s-.085-1.195.028-1.509c.114-.313.085-.939.057-1.366-.028-.428.057-.798.256-.968.199-.172.199-.371.171-.627s-.028-.74.085-1.14c.113-.397-.057-.397-.285-.085-.228.313-.37.342-.37.114s0-.455.142-.654c.1-.14.198-.361.211-.724l-1.074.783c-.067.834-.136 1.983-.217 2.872l.453-.74c.114-.199.228-.228.342.342s.028 1.168.085 1.48c.058.313.086.569-.114.797-.199.229-.284.342-.284.712s.079.621-.003.923c.478.126.943.159 1.455.415.797.399 1.622.428 2.277.428.171 0 .512.085.826.198.313.114.77.229 1.195-.057.427-.284.996-.626 1.453-.684.455-.057.824-.142 1.081-.312-.057-2.676-.398-2.307-.37-3.188.028-.883-.341-1.196-.284-1.907.024-.31.033-.772.018-1.25v-.001l-3.974-2.9z"/><path d="M29.183 22.554c0 .285-.143.313-.285.171l-.456-.228c-.114-.142-.313-.37-.456-.456s-.341-.114-.426-.228c-.086-.114-.144-.256-.329-.272.08.094.139.178.157.244.058.199.229.227.427.37.199.143.428.313.484.456.057.143.256.399.512.427-.284.17-.256.541-.256.825.028-.512.256-.683.37-.626.114.057.171.114.313.057.143-.057.341 0 .456.285 0-.256.057-.285.313-.285l.168.012.163-.503c-.329.205-.73-.009-1.155-.249zm3.729 1.196c-.028-.142.144-.341.2-.228 0-.114.142-.114.17 0 .028.114.028.541.171.769-.057-.228-.057-.541-.028-.797.113.085.285-.114.427.057.028.143.113.37.028.598-.085.228-.085.256.028.74.073-.291.208-.417.335.188h.088c-.007-.567-.213-.882-.166-1.355.057-.569-.028-.683-.37-.683.455-.797.626-.712.826-.911.198-.199.37-.313.455-.826.085-.512.229-1.082.455-1.423.228-.341.228-.997.228-1.822-.142.313-.228.484-.513.684-.283.199-.028.455.257.398-.085.968-.257.997-.57 1.053-.312.057-.37.142-.37.313s.028.256-.142.37c-.171.114-.312.057-.369.569.284.285 0 .513-.398.313.057.143.028.398-.144.398-.17 0-.142.285-.341.256-.2-.028-.2 0-.229.17-.193-.193-.306-.038-.521-.133l.377 1.163.116.139zm2.194 9.633l-.03.389c0 .341 0 .427-.144.369-.142-.057-.312-.085-.342-.426-.028.256.059.408.039.54-.019.134.076.171.189.266.113.096.151.266.057.419-.095.151-.189.283-.265.132-.077-.151-.172-.038-.115.209.059.247-.036 1.063-.057 1.252-.019.19 0 .229-.113-.094s-.172-.343-.151-.038l.057.569s-.077.247.019.398c.095.151.189.36.153.683-.039.323.036.229.093-.095.059-.322.172-.38.21-.569s.17-.152.321 0c.153.152.344.267.21.493-.133.228-.114.342-.057.532.057.189.075.512.019.663-.057.153-.076.285-.246.21-.172-.076-.362.057-.38.246-.019.19-.057.323-.152.418-.095.095-.151.152-.171-.152l-.057-1.044c-.039 1.082 0 1.462-.17 1.595-.172.133-.361.285-.514.246-.151-.037-.284.305-.437.02-.151-.285-.303-.551-.55-.322-.247.228-.285.228-.437.171-.152-.057-.38.019-.38-.266v-.702c-.095.512 0 1.043-.218 1.31.171 0 .512.085.826.198.313.114.77.229 1.195-.057.427-.284.996-.626 1.453-.684.455-.057.824-.142 1.081-.312-.057-2.676-.398-2.307-.37-3.188.028-.883-.341-1.196-.284-1.907.024-.31.033-.772.018-1.25v-.001l-.3-.221z"/><path d="M18.156 20.638c.057-.162-.309-.379-.399-.2-.076.152.339.368.399.2zm-.836-.124c.013.149.313.114.276-.076-.038-.19-.285-.038-.276.076zm-.455-.133c.058.18.2.199.133.019-.067-.18-.178-.159-.133-.019zm.446-.123c.18-.007.241-.271-.019-.284-.19-.01-.237.294.019.284zm.75-.256c.256.122.36-.076.123-.2s-.304.115-.123.2zm-.456-.209c.316.037.341-.18.037-.199-.303-.019-.198.18-.037.199zm.703-.133c.195.084.38-.066.104-.2-.275-.132-.323.105-.104.2zm-.608-.294c.198.022.228-.123.019-.151-.209-.029-.19.132-.019.151zm-.531.057c.078.224.37.256.255.009-.113-.246-.322-.199-.255-.009zm-.361.294c.157.118.361-.028.171-.18-.19-.152-.323.066-.171.18zm1.765.56c-.268-.066-.266.181-.067.189.2.01.295-.133.067-.189zm-.028.55c.248.095.143.37-.105.266-.247-.104-.218-.389.105-.266zm-.479-.009c-.129-.01-.214.285-.015.285.2 0 .2-.271.015-.285zm-.527.342c.208.074.285-.242.1-.271-.185-.029-.3.199-.1.271zm-.37-.3c.209-.032.142-.284-.042-.199-.186.086-.143.228.042.199zm-.57-.284c-.182.077-.071.298.17.199.243-.099.029-.285-.17-.199zm-.389-.243c.188.201.361.048.19-.114-.171-.16-.322-.028-.19.114zm.361-.293c.189.129.332-.009.095-.18s-.305.037-.095.18zm.399.977c-.159-.032-.2.171 0 .19.199.019.19-.152 0-.19zm.113.598c-.172-.155-.285.01-.085.152.199.142.18-.067.085-.152zm.181-.114c.172.007.171-.152 0-.17-.171-.02-.228.161 0 .17zm.559-.123c-.189-.02-.209.18-.028.18.18 0 .208-.162.028-.18zm.418.009c.17.021.209-.171.019-.18-.19-.01-.247.152-.019.18zm-.616.437c.038.201.36.133.266-.066-.096-.2-.324-.229-.266.066zm.408.36c.133-.005.294-.094.057-.161-.238-.066-.295.171-.057.161zm.218-.227c.157.04.199-.114.046-.17-.151-.058-.236.122-.046.17zm.465-.067c-.157-.05-.266.152-.039.19.229.038.247-.123.039-.19zm.009.341c-.324-.221-.465.039-.18.19.284.153.389-.047.18-.19zm-.029.437c-.266-.166-.437.114-.114.247.324.133.342-.104.114-.247zm.513-.531c-.232-.126-.389.085-.085.247.303.161.313-.124.085-.247zm-.076-.275c-.23-.043-.209.199-.028.208.18.01.285-.161.028-.208zm-.437-.399c-.227-.026-.17.228.02.208.19-.018.227-.179-.02-.208zm.627-.028c-.259-.173-.484.114-.142.218.341.104.313-.104.142-.218zm-.332-.437c.276.062.36-.114.066-.228s-.322.171-.066.228zm-2.734-1.895c-.214-.178-.227.143-.036.271.193.127.329-.03.036-.271zm.413.17c.141.092.398.085.171-.135-.228-.221-.377 0-.171.135zm.271-.427c-.021.334.248.306.248.071s-.234-.306-.248-.071zm-.32-.391c.156.15.363.007.199-.157-.164-.163-.406-.042-.199.157zm-.179.156c-.14-.165-.456-.021-.199.214s.32-.071.199-.214zm-.448-.17c.113.096.228-.014.107-.085-.121-.072-.199.006-.107.085zm-.398-.122c.133.085.349-.021.157-.156-.193-.135-.314.057-.157.156zm-.399-.17c-.138-.038-.221.192-.021.185.199-.007.178-.143.021-.185zm-.299-.043c.069.093.228.057.121-.036-.106-.092-.221-.099-.121.036zm.783.556c.167.044.292-.093.071-.186-.221-.092-.334.114-.071.186zm.257.156c.074.102.192.1.107-.043-.087-.142-.186-.064-.107.043zm6.678-5.326c-.223-.053-.285.304-.057.37.228.066.294-.314.057-.37zm-.039.455c-.191-.059-.322.294-.065.332.255.038.283-.265.065-.332zm.523-.189c-.279-.066-.247.313-.038.341.209.028.199-.304.038-.341zm.455-.02c-.255-.021-.209.351.039.323.246-.029.198-.303-.039-.323zm-.256.371c-.206-.082-.332.294-.104.36.227.067.369-.256.104-.36zm.37.256c-.133-.161-.376.127-.162.256.143.086.235-.168.162-.256zm.048.342c-.056.202.133.37.218.114.085-.257-.133-.428-.218-.114zm.18-.39c.123.123.247-.085.114-.152s-.323-.056-.114.152zm.294.285c.145.134.313.047.133-.114s-.257 0-.133.114zm-.322.503c-.13.237.142.341.237.133.094-.209-.076-.427-.237-.133zm.38-.057c-.119.197.113.351.236.104.123-.246-.095-.341-.236-.104zm.255-.171c.132.116.389-.076.247-.237-.143-.161-.408.095-.247.237zm.646-.446c-.191-.096-.257.237-.086.313.171.076.237-.237.086-.313zm-.285-.408c-.191-.067-.218.275-.066.322.151.048.312-.236.066-.322zm-.38.057c-.141-.122-.256.095-.085.171s.227-.047.085-.171zm-.322-.294c.162.085.256-.038.104-.133-.152-.095-.285.038-.104.133zm-.342-.256c-.163-.136-.218.095-.085.19.133.094.256-.048.085-.19zm-.531-.124c.154.121.294-.028.124-.123-.172-.095-.257.019-.124.123zm-.228-.094c-.165-.099-.247.133-.085.237.161.104.227-.152.085-.237zm-.066-.133c.125.079.208-.067.104-.133-.104-.067-.256.037-.104.133zm1.489.208c-.147.094.114.475.266.342.152-.133-.057-.475-.266-.342zm.693.218c-.247.124-.076.37.123.304-.009-.114-.094-.246-.123-.304zm-.968-.132c.227.052.285-.266.067-.285s-.276.237-.067.285zm-.427-.171c.134.082.294-.152.133-.228-.162-.075-.304.123-.133.228zm-.608-.522c-.156.104.02.323.162.218.142-.104-.047-.294-.162-.218zm.57-.057c.026-.181-.256-.181-.275-.01-.02.172.247.209.275.01zm-.578-.181c.142.085.247-.189.104-.256s-.294.143-.104.256zm.445-.331c-.131-.055-.17.228-.028.228.142-.001.142-.181.028-.228zm-.426-.181c.12-.097-.039-.417-.181-.294-.143.123.038.408.181.294zm.341-.417c-.156.072-.162.408.095.37.256-.038.028-.427-.095-.37zm.408-.152c-.2-.01-.114.361.095.342.208-.019.085-.332-.095-.342zm.522.085c-.155-.097-.322.218-.162.323.162.104.313-.228.162-.323zm.293.114c-.104.077.095.313.199.218.106-.094-.056-.322-.199-.218zm-.274.295c-.107.102.057.408.228.256.17-.152-.048-.427-.228-.256zm-.38.199c-.244-.09-.351.218-.114.247.237.028.295-.181.114-.247zm-.019.417c-.185-.126-.303.104-.151.199.151.095.331-.075.151-.199zm.18.2c-.171.064.095.465.266.341.171-.123-.114-.399-.266-.341zm.532-.418c-.237.125.057.417.161.322.105-.094 0-.407-.161-.322zm.379-.199c-.157.052.019.427.162.332s.009-.389-.162-.332zm-.332.825c-.117.09.113.351.199.209s-.075-.303-.199-.209zm.513.048c-.218-.101-.322.275-.132.323.188.047.255-.267.132-.323zm-1.718-2.221c-.198-.055-.228.294-.067.342.162.047.238-.294.067-.342zm.38.218c-.167.035-.057.456.114.37.17-.085.066-.407-.114-.37zm.569-.114c-.207-.133-.427.342-.208.371s.341-.285.208-.371zm-.722-.512c-.167.101.058.437.181.313.124-.123.009-.427-.181-.313zm.589-.114c-.267-.04-.228.37-.038.36.19-.008.228-.332.038-.36zm-1.082-.237c-.114.114.19.342.275.247.086-.095-.151-.37-.275-.247zm.427.01c-.115.073.038.237.104.171.067-.067.001-.238-.104-.171zm-.17.332c-.087-.06-.133.19-.039.18.096-.01.134-.114.039-.18zm-.047-.693c-.147.065-.02.361.132.256.151-.104.038-.332-.132-.256zm-.4-.427c.009.106-.162.142-.18-.01-.018-.152.162-.218.18.01zm13.383-1.71c-.113.052-.059.284.085.213.141-.071.005-.256-.085-.213zm.134-.307c-.094.021-.021.277.1.221.12-.057-.008-.242-.1-.221zm.092.491c-.063.028-.051.136.028.114.079-.021.072-.156-.028-.114zm-.148.349c0 .228.227.221.241.014.014-.206-.241-.206-.241-.014zm-.215 0c-.155.019-.129.363.043.328s.078-.342-.043-.328zm-.405.043c-.149.057-.05.377.092.299.143-.079.028-.345-.092-.299zm.377.37c-.099-.099-.193.064-.129.135.065.071.207-.057.129-.135zm.349-.107c-.073-.045-.144.143-.078.192.064.05.191-.121.078-.192zm-.165.292c-.18-.106-.305.349-.12.356.186.007.242-.285.12-.356zm-.483.085c-.12-.09-.363.221-.206.32.156.1.347-.213.206-.32zm-.192-.228c-.09-.119-.39.121-.222.256.107.086.307-.142.222-.256zm-.177.428c-.089-.168-.386.029-.292.178.091.149.382-.001.292-.178zm.597.284c-.16-.138-.313.249-.193.313.122.065.3-.22.193-.313zm-.413.249c-.165-.096-.32.228-.144.342.179.114.314-.242.144-.342zm-.378-.156c-.127-.091-.419.339-.186.413.135.043.314-.321.186-.413zm-.533.156c.106.13.319-.149.199-.242-.121-.092-.293.129-.199.242zm-.135.228c-.144-.127-.278.085-.179.192.1.107.307-.078.179-.192zm.313.178c-.113-.102-.222.071-.135.135.085.064.205-.071.135-.135zm.455.292c-.082-.214-.335-.114-.257.085.078.2.335.121.257-.085zm.79-.441c-.091-.114-.455.128-.306.278.149.148.392-.172.306-.278zm-.611.569c.095.104.234-.064.142-.157-.093-.092-.215.079-.142.157zm-.84-.05c-.073-.225-.292-.036-.242.085.05.122.305.114.242-.085zm.347.193c-.017-.116-.206-.107-.178.042s.2.1.178-.042zm-2.819.522c-.083-.083-.229.036-.118.14.112.103.219-.038.118-.14zm2.92-.209c-.157-.127-.385.313-.192.398.192.085.305-.306.192-.398zm-.962.717c-.013-.202-.491-.066-.421.132.069.199.433.014.421-.132zm-1.735 2.004c.098.177.475-.145.329-.296-.146-.152-.4.167-.329.296zm2.057-2.586c.152-.113-.051-.356-.165-.213-.113.142.008.327.165.213zm-.492-.199c.11-.062-.008-.285-.114-.228-.108.057-.014.299.114.228zm-.463 1.023c.111-.062-.007-.285-.113-.228-.106.057-.015.299.113.228zm.67-1.671c-.092-.107-.229.079-.094.228s.214-.086.094-.228zm-1.867 2.039c-.091-.107-.228.078-.093.228.136.149.215-.086.093-.228zm1.532-2.025c-.111-.023-.106.228 0 .221.107-.007.1-.2 0-.221zm-.115.278c-.104-.124-.283.064-.185.171.1.106.263-.079.185-.171zm-1.76.89c-.104-.124-.284.064-.185.171.1.107.263-.078.185-.171zm-.795.288c-.16.03-.085.279.057.246.141-.034.062-.268-.057-.246zm.608.643c-.105-.124-.232.036-.133.143.099.106.211-.05.133-.143zm1.499-1.928c-.073-.114-.404.043-.284.207.121.163.377-.065.284-.207zm.152.885c-.074-.114-.36.057-.283.206.091.182.376-.064.283-.206zm-2.012 1.063c.114-.074-.056-.361-.205-.286-.182.092.063.378.205.286zm1.054-1.234c-.121-.062-.245.164-.104.256.17.112.255-.178.104-.256zm.105.797c-.075-.114-.361.057-.285.206.092.182.376-.063.285-.206zm-.979-.503c-.055-.124-.365.001-.312.161.063.193.382-.006.312-.161zm-.065 1.338c.079-.11-.116-.277-.228-.152-.137.152.128.29.228.152zm.977.541c.08-.11-.115-.276-.228-.151-.136.15.129.289.228.151zm-1.369-.778c-.098-.094-.289.077-.182.205.132.155.305-.088.182-.205zm1.817-1.81c-.127-.208-.398.064-.235.207.163.141.314-.079.235-.207zm-1.141 2.467c-.126-.207-.398.064-.234.207.163.142.313-.078.234-.207zm.318-1.072c-.126-.208-.398.064-.235.207.164.142.313-.079.235-.207zm-.034.671c-.126-.208-.448.085-.285.228.165.143.364-.1.285-.228zm1.37-1.888c-.076-.126-.356.064-.263.199.091.135.37-.022.263-.199zm-.619.797c-.075-.125-.292.036-.2.171.093.135.306.007.2-.171zm.21-.13c-.146-.026-.188.309-.025.33s.228-.292.025-.33zm.343.78c-.09-.115-.345.108-.236.23s.364-.067.236-.23zm.064.473c.091.115.346-.108.237-.231-.11-.123-.365.068-.237.231zm.407-1.607c-.11-.137-.392.085-.276.228.113.142.397-.079.276-.228zm-2.097.551c-.111-.137-.392.085-.277.228.113.141.398-.08.277-.228zm-.36 1.336c-.111-.137-.392.085-.277.228.113.142.398-.079.277-.228zm1.988-1.118c-.112-.137-.392.085-.278.228.113.142.397-.078.278-.228zm.373.199c-.035-.173-.387-.107-.354.072.035.179.39.117.354-.072zm-1.017.853c-.135.113.094.389.233.272s-.086-.397-.233-.272zm-.085-.519c-.163-.069-.306.259-.138.331.166.073.315-.255.138-.331zm1.361-1.423c-.118.018-.085.312.036.292.121-.022.108-.314-.036-.292zm.239.414c-.105.061.035.323.14.258.105-.064-.017-.33-.14-.258zm-1.475.454c-.12.018-.085.313.035.292.121-.022.107-.314-.035-.292zm-.474.828c-.12.019-.083.269.039.247.12-.021.104-.268-.039-.247zm.542-.299c-.097.073.075.316.17.239.097-.076-.054-.326-.17-.239zm.557.423c-.12-.02-.179.272-.057.289.122.017.199-.266.057-.289zm-.878-1.498c-.12.018-.085.313.037.292.119-.021.106-.313-.037-.292zm.147-.183c-.09.083.066.267.155.182.088-.087-.051-.28-.155-.182zm-.477.294c-.117-.031-.18.241-.066.287.166.065.252-.238.066-.287zm2.289-.106c.1.12.342-.036.207-.178-.136-.142-.313.05-.207.178zm.278.116c-.21-.066-.295.389-.123.417.171.03.331-.35.123-.417zm-.733.653l.292-.007c-.014-.207-.285-.299-.292.007zm-.085.078c0 .064-.021.171-.05.214-.106-.057-.115-.249.05-.214zm6.883 4.451c.161.093.303-.266.198-.341-.158-.117-.332.265-.198.341zm.968-.828c-.073-.083-.219.095-.113.152.104.057.179-.075.113-.152zm1.591-1.445c-.071-.083-.218.095-.113.152s.179-.076.113-.152zm.171-.304c-.042-.103-.237.017-.158.105.08.089.195-.011.158-.105zm.107-.22c-.03-.059-.15.001-.097.053.054.052.123 0 .097-.053zm-.644.505c-.029-.058-.196.048-.145.1.054.051.173-.047.145-.1zm.538-.754c-.071-.083-.218.095-.113.152.106.057.181-.076.113-.152zm-.321.427c-.095-.059-.222.25-.104.275.116.024.189-.222.104-.275zm-.716 1.778c-.072-.083-.219.095-.113.152.104.057.18-.076.113-.152zm-2.751-.224c.104.157.392-.099.333-.214-.09-.176-.416.086-.333.214zm1.018.458c-.028.19.275.218.285.057.01-.162-.263-.201-.285-.057zm-.368-.238c-.028.19.277.218.285.057.01-.162-.263-.201-.285-.057zm.235.313c-.127-.069-.227.228-.095.256.133.029.2-.198.095-.256zm-.139-.849c-.145-.003-.098.307.033.271.132-.036.086-.269-.033-.271zm-.411.831c-.127-.07-.19.199-.057.228.133.028.162-.172.057-.228zm.295.414c-.128-.07-.19.199-.059.227.134.029.163-.17.059-.227zm-.361-.728c.038.179.38.104.331-.057-.047-.161-.37-.123-.331.057zm2.098-.284c.038.179.38.104.331-.057-.047-.162-.371-.124-.331.057zm-1.31 1.528c.036.178.435.102.388-.06-.048-.162-.427-.121-.388.06zm-.474.295c.111.146.389-.068.276-.194-.111-.125-.387.047-.276.194zm-.844-.431c.047.202.396.017.312-.13-.082-.147-.352-.05-.312.13zm.41-.122c-.151.14.184.348.269.203.085-.145-.134-.329-.269-.203zm-.52-.64c-.087.188.301.252.326.085.024-.166-.25-.252-.326-.085zm-.595-.014c-.009.207.376.115.333-.047-.043-.163-.327-.137-.333.047zm.042.367c-.071.194.322.225.332.058.009-.169-.271-.232-.332-.058zm.461.057c-.007.207.378.113.333-.049-.043-.163-.328-.135-.333.049zm2.167.22c-.18.095-.057.342.134.266.19-.076.043-.359-.134-.266zm-1.569-1.981c-.18.095-.057.342.134.266.189-.077.043-.359-.134-.266zm-.786.844c-.182.095-.059.342.132.266.189-.076.045-.359-.132-.266zm-.415-.017c-.18.095-.126.359.134.266.191-.07.043-.359-.134-.266zm.842-.723c-.18.095-.057.342.133.266.19-.077.043-.359-.133-.266zm1.262.665c-.18.094-.057.341.133.266.189-.077.044-.359-.133-.266zm.843-.2c-.18.095-.057.342.134.266.189-.077.043-.359-.134-.266zm-1.867.38c-.182.095-.059.341.131.265.19-.075.046-.358-.131-.265zm1.44.455c.105.076.342-.209.19-.323-.151-.113-.294.247-.19.323zm1.397-.841c-.019.128.345.203.375.016.028-.187-.357-.143-.375-.016zm-.58.603c.105.076.295-.161.142-.275-.152-.113-.247.2-.142.275zm-.01-.708c.066.11.372-.058.275-.222-.107-.183-.355.091-.275.222zm-.503-.506c.104.076.313-.152.161-.266-.151-.114-.264.19-.161.266zm1.44.098c.104.076.313-.151.161-.266-.154-.113-.267.191-.161.266zm-1.208.18c.078.103.385-.106.271-.259-.111-.153-.35.156-.271.259zm.703.143c.076.103.383-.106.271-.259-.113-.154-.349.155-.271.259zm.681-.006c.053.117.396-.022.319-.195-.076-.174-.374.078-.319.195zm-.723-.519c.027.126.332.092.294-.094-.039-.186-.323-.033-.294.094zm-.778 1.696c.074.105.391-.088.284-.245-.108-.156-.357.139-.284.245zm-1.314.65c.053.119.401-.008.326-.183-.073-.175-.378.065-.326.183zm-1.272-1.632c.04.124.401-.008.326-.183-.073-.174-.387-.019-.326.183zm.548.049c.061.114.398-.04.31-.208-.086-.169-.371.095-.31.208zm.585.983c-.162-.095-.236.209-.151.275.085.067.281-.199.151-.275zm2.077-.085c-.161-.095-.236.209-.151.275s.281-.199.151-.275zm-.774.092c-.184-.037-.155.275-.054.31.104.034.2-.281.054-.31zm-1.9-.936c-.16-.095-.244.218-.152.275.152.094.281-.199.152-.275zm1.338-.438c-.161-.095-.215.15-.125.209.134.085.253-.133.125-.209zm.345.331c-.06-.178-.262-.028-.231.076.043.152.278.067.231-.076zm.112-.397c-.002-.188-.24-.105-.242.002-.005.158.243.148.242-.002zm-.733.028c-.092-.068-.151.104-.057.152.095.048.133-.095.057-.152zm-.253.067c-.146-.086-.278.123-.136.227.087.064.264-.15.136-.227zm1.037.487c-.145-.086-.276.123-.135.227.089.064.266-.151.135-.227zm2.699 9.337c-.008-.11-.231-.053-.182.055.051.108.191.046.182-.055zm.644.913c-.011-.11-.233-.054-.184.054.05.108.192.046.184-.054zm.163-.346c-.044-.103-.342-.001-.285.103.059.104.332.01.285-.103zm1.293 1.326c-.042-.102-.342 0-.283.104.057.104.331.01.283-.104zm.437 1.117c.052-.097-.214-.268-.259-.157-.047.11.198.266.259.157zm-.974-1.038c-.028-.106-.341-.001-.283.104.056.104.334.085.283-.104zm-.681.346c.026.107.34.005.284-.1-.056-.104-.333-.089-.284.1zm3.17 2.562c.028.107.235.022.2-.091-.048-.151-.247-.097-.2.091zm-3.712-3.258c-.028-.106-.342-.001-.285.104s.335.085.285-.104zm.741-.429c-.028-.107-.349-.104-.283.103.034.113.332.085.283-.103zm-.073.275c-.075-.081-.356.074-.201.226.085.082.335-.084.201-.226zm-.857-2.563c-.124.134.135.37.238.238.105-.131-.112-.373-.238-.238zm.892.415c-.149.103.049.391.179.286.131-.105-.025-.39-.179-.286zm-1.645.083c-.132.126.109.378.223.253.111-.125-.088-.38-.223-.253zm.678-.042c-.202-.028-.247.318-.049.368s.247-.339.049-.368zm1.283.905c-.202-.029-.247.317-.049.368.198.049.247-.34.049-.368zm.045.686c-.202-.029-.247.318-.049.367.198.05.247-.339.049-.367zm.77 2.171c-.201-.029-.246.317-.048.367s.247-.339.048-.367zm-.508-.873c-.189.074-.057.397.14.343.197-.055.045-.417-.14-.343zm-.389.12c-.202-.029-.236.327-.037.369.2.044.299-.33.037-.369zm.37.965c-.092.015-.042.129.023.136.067.007.083-.153-.023-.136zm-.606-1.606c-.203-.028-.249.318-.051.368s.247-.34.051-.368zm-.521.096c-.201-.029-.246.317-.048.368.198.049.246-.34.048-.368zm.96-.334c-.193-.062-.298.271-.111.354s.301-.291.111-.354zm-1.096-.244c-.2.043-.122.384.081.361.203-.023.114-.405-.081-.361zm.451-2.323c-.202-.029-.247.318-.049.368.199.05.248-.34.049-.368zm-.153.663c-.2.038-.13.381.073.364s.123-.401-.073-.364zm-.36.249c-.176.101.002.402.188.32.187-.082-.014-.419-.188-.32zm-.683.844c.104.077.342-.208.189-.323-.151-.113-.292.248-.189.323zm-.151.02c.128.015.193-.351.005-.374-.189-.025-.134.36-.005.374zm1.593-.677c-.017.128.346.203.374.016s-.357-.144-.374-.016zm-.46.16c-.019.128.345.203.373.015.03-.188-.355-.144-.373-.015zm-.464.126c-.034.124.254.222.309.04s-.272-.164-.309-.04zm.306-1.019c-.097.046.022.312.144.214.11-.087-.048-.261-.144-.214zm-.439 1.622c.075.105.39-.088.283-.244-.106-.158-.358.137-.283.244zm-.581.227c.041.121.399.025.341-.155-.058-.18-.383.032-.341.155zm.602.012c.017.128.387.104.365-.085-.023-.188-.381-.043-.365.085zm1.17 1.76c-.035.124.34.307.418.133.076-.173-.361-.333-.418-.133zm.947.83c-.101.083.106.445.268.347.161-.098-.108-.478-.268-.347zm-.264-.944c-.128.005-.18.255.01.274.188.021.197-.282-.01-.274zm.339-.304c-.105-.075-.299.093-.16.224.136.13.328-.104.16-.224zm1.674 2.172c-.104-.074-.298.094-.16.225.136.13.328-.105.16-.225zm-2.705-3.746c.062-.178-.252-.192-.301-.096-.048.097.252.237.301.096zm-.432.299c.062-.177-.252-.192-.3-.096-.049.097.25.238.3.096zm2.757 3.477c.144-.12-.118-.293-.208-.235-.092.058.093.332.208.235zm-2.535-1.957c.091-.265-.377-.287-.448-.143-.074.146.374.356.448.143zm-.012-2.322c-.17.077.033.315.137.284.102-.03.001-.344-.137-.284zm-.979 1.176c.167-.119-.05-.436-.151-.384s.019.481.151.384zm-.423-1.519c.165.031.22-.21.05-.259-.103-.03-.196.231-.05.259zm3.084 3.508c-.177-.114-.235.256.021.291l-.021-.291zm.641.326c.2.021.207.235-.021.242l.021-.242zm.327.385c-.035.071 0 .199.144.129l-.144-.129zm.47.17c-.092.057-.014.287.185.147-.048-.09-.085-.168-.185-.147zm-1.503-1.256c-.104.057-.066.246.047.284l-.047-.284zm-4.708 8.626c-.178-.168-.483.304-.227.398.255.095.389-.246.227-.398zm.21-.465c-.163-.108-.323.322-.153.351.172.029.295-.257.153-.351zm.293-.179c-.12-.053-.263.214-.1.277.165.066.215-.227.1-.277zm-.17-.085c.125.069.242-.156.142-.242-.1-.085-.27.171-.142.242zm.555-.093c.101-.101-.143-.377-.278-.263-.135.114.143.399.278.263zm-.121.114c-.148-.006-.198.342-.035.363.158.021.207-.356.035-.363zm-.17.456c-.163-.076-.222.178-.101.206.122.028.207-.157.101-.206zm-.243.214c-.106-.093-.271.157-.157.22.115.064.256-.136.157-.22zm-.277 1.109c-.108-.092-.271.157-.157.221.113.064.257-.135.157-.221zm-.799-.817c.237.062.335-.378.107-.413-.226-.036-.32.356-.107.413zm.073.134c-.101-.075-.242.192-.106.213.134.022.191-.148.106-.213zm.255.05c-.171-.007-.178.335.014.342.194.007.156-.335-.014-.342zm.299.257c.138.073.285-.058.156-.172-.127-.113-.276.107-.156.172zm.307-.143c.111.103.263-.107.156-.185-.106-.078-.241.107-.156.185zm.007.477c.114.141.356-.093.256-.235-.1-.143-.376.085-.256.235zm-.327-.036c.085-.142-.135-.249-.206-.127-.073.12.121.269.206.127zm-.42-.093c-.066-.06-.165.129-.071.179.092.05.156-.1.071-.179zm.157.442c.021-.228.206-.114.078.042l-.078-.042zm.548.057c-.083-.041-.156.235-.037.249.122.015.15-.192.037-.249zm.354-.164c-.09-.046-.213.199-.063.228.15.028.179-.171.063-.228zm-.206.435c-.073-.032-.198.12-.078.199.121.078.178-.157.078-.199zm.523.104c-.078.014-.104.243.04.244.143 0 .067-.262-.04-.244zm-.148-.254c-.059.055.028.231.147.154.123-.078-.068-.226-.147-.154zm-.034.392c.105-.061-.085-.335-.176-.292-.093.043-.009.398.176.292zm-.034-1.474c-.164-.014-.113-.434.135-.299l-.135.299zm.307-.598c-.101-.071-.25.063-.101.185l.101-.185zm-.073-1.002c.106.105.313-.179.15-.243-.162-.064-.249.142-.15.243zm-.326-.08c-.057-.037-.179.171-.101.214.08.042.165-.171.101-.214zm-24.473-2.166c.163-.218-.171-.531-.361-.294-.189.238.19.523.361.294zm-.645.133c0 .19-.427.256-.417.01.009-.247.417-.219.417-.01zm.085.199c-.111.181.229.513.447.257.218-.257-.324-.456-.447-.257zm.674-.199c-.13.158.181.39.304.256.123-.132-.17-.417-.304-.256zm.048.608c-.026.294.512.237.494 0-.02-.238-.475-.218-.494 0zm.559-.162c-.103.141.181.275.266.161.086-.114-.161-.303-.266-.161zm-.787.456c.1-.109-.143-.322-.237-.199-.095.123.132.313.237.199zm-.494.028c.147-.119-.095-.322-.199-.237-.104.086.048.36.199.237zm-.151-.398c.087-.131-.209-.257-.275-.162-.067.095.18.304.275.162zm-.968-.095c-.066.139.255.322.37.171s-.285-.352-.37-.171zm.38.285c-.191-.009-.029.36.18.331.208-.028.028-.322-.18-.331zm-.57.35c.019.151.427.199.408-.048-.02-.245-.428-.103-.408.048zm2.648-.217c-.16.13.009.437.228.284.218-.152-.077-.408-.228-.284zm.303.341c-.125.125.171.285.247.2.076-.086-.133-.314-.247-.2z" fill="#CB2686"/><path d="M17.757 20.438c-.038.085.143.171.171.105.045-.105-.133-.19-.171-.105zm-.465-.464c-.103-.016-.114.133.009.133.123-.001.115-.115-.009-.133zm.73-.038c.093.061.218-.01.086-.104-.133-.096-.17.046-.086.104zm-.474-.219c.115.027.105-.047.019-.076-.085-.028-.143.047-.019.076zm.693-.152c.093.051.181-.038.067-.095-.115-.057-.171.038-.067.095zm-.588-.246c.093.025.151-.039.028-.067-.123-.028-.133.038-.028.067zm-.389.104c.076-.047.019-.171-.066-.114-.087.057-.01.161.066.114zm-.418.218c.055.049.161 0 .066-.066-.095-.067-.151-.01-.066.066zm1.518.692c-.008.076.17.152.19.048.019-.104-.18-.133-.19-.048zm.038.58c.118.025.132.143.009.104-.123-.038-.142-.133-.009-.104zm-.777.076c-.083-.021-.128.114-.015.142.114.029.128-.114.015-.142zm-.499-.328c-.075.038-.043.157.099.114.143-.043.043-.185-.099-.114zm-.527-.085c-.095.038-.014.142.085.114.101-.029.057-.171-.085-.114zm-.389-.28c.067.075.209-.019.095-.095-.114-.076-.18 0-.095.095zm.247-.465c-.05.044.047.143.095.076.047-.067-.01-.152-.095-.076zm.513 1.831c.062.044.132-.009.076-.066-.058-.057-.171 0-.076.066zm.692.038c.025.096.17.104.133-.009-.038-.114-.161-.095-.133.009zm1.054.19c-.099-.044-.181.047-.048.104.133.057.152-.056.048-.104zm-.152.341c-.109-.08-.237.067-.077.143.162.076.219-.038.077-.143zm.009.466c-.093-.093-.19.076-.076.133.114.057.143-.067.076-.133zm.456-.418c.124.114.228 0 .104-.095-.123-.094-.227-.018-.104.095zm.075-.399c-.085-.042-.162.076-.038.114.123.039.134-.066.038-.114zm.057-.379c-.129-.083-.151.057-.066.104.086.048.199-.019.066-.104zm-.17-.655c-.113-.057-.218.038-.048.114.171.076.142-.066.048-.114zm-2.854-1.615c.113.077.242-.022.121-.128-.121-.107-.256.035-.121.128zm.491-.043c.068.075.242.064.127-.064-.113-.128-.198-.015-.127.064zm.384-.306c-.013.099.106.121.114.015.007-.108-.1-.122-.114-.015zm-.42-.548c.06.087.228-.007.127-.078-.098-.071-.191-.015-.127.078zm-.399.363c.077.083.235.021.128-.1-.106-.121-.206.014-.128.1zm-.519-.441c.056.044.156.021.064-.057s-.135 0-.064.057zm-.263-.15c-.061-.043-.114.057-.029.085.086.029.1-.035.029-.085zm-.235.093c-.069-.019-.085.078-.014.085.071.007.092-.064.014-.085zm-.449-.057c-.004.077.096.13.1.029.007-.164-.092-.143-.1-.029zm.627.377c-.006.071.079.106.079.021-.001-.085-.072-.099-.079-.021zm.32-.028c-.108-.055-.171.078-.05.128s.193-.057.05-.128zm6.942-4.999c-.099-.033-.162.114-.019.161.142.048.161-.113.019-.161zm-.039.455c-.123-.053-.161.124-.018.152.142.028.151-.095.018-.152zm.523-.189c-.072-.03-.151.085-.019.142.133.057.18-.076.019-.142zm.455-.02c-.151-.016-.151.104.039.143.189.038.141-.123-.039-.143zm-.256.371c-.109-.049-.152.123-.038.17.114.048.209-.094.038-.17zm.474.512c-.04.091.104.218.143.076.038-.142-.066-.247-.143-.076zm.181.522c.058.05.209-.057.095-.142-.114-.086-.171.076-.095.142zm-.418-.674c.089.1.162-.009.086-.095-.077-.085-.162.01-.086.095zm.797.626c.08.065.209-.038.123-.104-.084-.066-.227.019-.123.104zm.294-.351c.045.105.199-.047.123-.104-.075-.057-.179-.029-.123.104zm.523-.313c-.087-.054-.162.086-.057.133.104.047.133-.085.057-.133zm-.285-.408c-.083-.034-.114.094-.009.133.104.038.151-.076.009-.133zm-1.803-.711c-.058-.05-.133.057-.048.114.086.056.114-.057.048-.114zm1.537.265c.083-.058-.019-.228-.114-.162-.095.067-.009.248.114.162zm-.787-.361c.046.058.151.038.066-.057-.086-.095-.143-.037-.066.057zm-.637-.436c-.071.039-.028.18.057.133.086-.048.048-.19-.057-.133zm.4-.123c-.022.078.123.189.17.066.047-.123-.142-.171-.17-.066zm-.304-.37c-.08-.064-.143.085-.039.133.105.047.133-.058.039-.133zm-.266-.551c-.086.066.009.228.104.171.095-.057.019-.266-.104-.171zm.522-.123c-.144.018-.038.237.067.209.104-.029.085-.228-.067-.209zm.446-.076c-.072-.031-.104.114-.009.124.095.008.075-.096.009-.124zm.484.009c-.085-.064-.19.095-.104.143.085.047.179-.085.104-.143zm.293.114c-.096.075.029.218.133.124.105-.095-.047-.19-.133-.124zm-.274.295c-.082.082.028.208.114.123.085-.085-.01-.228-.114-.123zm-.38.199c-.114-.054-.17.066-.065.104.103.038.207-.038.065-.104zm-.019.417c-.111-.092-.161.038-.085.095.075.057.19-.009.085-.095zm.18.2c-.094.025-.028.228.095.152.124-.077.048-.191-.095-.152zm.532-.418c-.12.055-.019.189.057.152.075-.038.047-.199-.057-.152zm.379-.199c-.12.028-.028.199.067.17.095-.028.095-.208-.067-.17zm-.332.825c-.088.073.019.218.113.133.096-.085-.009-.218-.113-.133zm.513.048c-.071-.065-.199.104-.085.142.113.038.18-.057.085-.142zm-1.718-2.221c-.097-.048-.152.152-.048.171.105.019.181-.104.048-.171zm.38.218c-.117.008-.066.218.028.171.095-.047.105-.18-.028-.171zm.417 0c-.073.048.028.189.085.114.058-.076 0-.171-.085-.114zm-.57-.626c-.105.053.02.228.095.161.077-.066.039-.227-.095-.161zm.589-.114c-.115-.049-.17.142-.038.18.133.038.171-.123.038-.18zm-.816-.522c-.077.055.019.152.085.104.067-.047-.018-.151-.085-.104zm-.332.133c.013-.126-.124-.085-.104-.009.019.075.095.104.104.009zm.095-.322c0 .076.133.104.114 0-.019-.105-.114-.095-.114 0zm-.171-.076c.132.066.057.247-.057.142-.114-.104-.038-.19.057-.142zm-.095-.247c-.006.048-.085.047-.076-.01.01-.056.086-.066.076.01zm-.322-.066c-.034.068.038.199.076.114.038-.086-.01-.247-.076-.114zm13.752-1.625c-.061.022-.03.135.041.113.072-.021.072-.156-.041-.113zm.134-.307c-.047.021-.028.156.05.135.078-.021.014-.163-.05-.135zm-.292.641c-.076-.025-.087.127-.008.121.079-.008.093-.093.008-.121zm.477.213c.014-.135-.135-.121-.144-.007-.005.114.129.143.144.007zm-.456-.014c-.092.007-.107.186.028.164.137-.022.065-.171-.028-.164zm-.405.043c-.088.027-.043.206.05.164.091-.043.041-.193-.05-.164zm.377.37c-.065-.077-.085.028-.057.057s.1-.007.057-.057zm.349-.107c-.049-.042-.087.071-.028.093.057.021.098-.029.028-.093zm-.165.292c-.063-.048-.156.121-.063.157.091.035.15-.093.063-.157zm-.483.085c-.057-.052-.178.114-.071.171s.156-.092.071-.171zm-.192-.228c-.085-.106-.215.028-.128.1.085.071.185-.028.128-.1zm-.177.428c-.034-.114-.172-.014-.122.078.049.093.156.043.122-.078zm.597.284c-.097-.128-.179.057-.1.128.079.071.164-.042.1-.128zm-.463.363c-.042-.048-.106.064-.035.121.071.057.114-.028.035-.121zm-.328-.27c-.059-.054-.142.135-.063.178.078.043.163-.086.063-.178zm-.334-.085c-.046-.069-.206.035-.128.106s.185-.021.128-.106zm-.334.469c-.115-.114-.164.071-.107.128.056.057.226-.007.107-.128zm.768.47c-.015-.183-.191-.078-.142.036.05.113.157.142.142-.036zm.79-.441c-.07-.085-.198.028-.136.106.066.079.194-.037.136-.106zm-1.451.519c-.025-.107-.129-.036-.113.036.012.071.141.085.113-.036zm.347.193c-.008-.095-.135-.071-.113.021.022.092.12.05.113-.021zm-2.819.522c-.063-.07-.151.023-.079.084.072.063.127-.031.079-.084zm2.92-.209c-.094-.072-.192.121-.101.164.094.042.194-.093.101-.164zm-.962.717c-.012-.118-.22-.058-.187.039s.199.077.187-.039zm-1.735 2.004c.059.102.225-.04.155-.114s-.214.013-.155.114zm1.978-2.742c-.086.035-.036.17.057.121.092-.051.028-.158-.057-.121zm-.206-.691c-.052-.07-.137.036-.059.107s.116-.029.059-.107zm-1.867 2.039c-.051-.071-.136.035-.057.106.078.072.114-.028.057-.106zm1.554-1.932c-.066-.026-.087.085-.028.107.056.02.098-.079.028-.107zm-.137.185c-.043-.062-.163.021-.098.1.063.078.148-.029.098-.1zm-1.76.89c-.043-.062-.164.021-.099.1.063.078.149-.029.099-.1zm-.795.288c-.076.007-.062.153.038.136.099-.017.048-.143-.038-.136zm.608.643c-.043-.062-.164.022-.099.1.063.078.149-.028.099-.1zm1.499-1.928c-.035-.078-.156.007-.113.078s.16.023.113-.078zm.152.885c-.035-.079-.157.007-.113.078.043.071.159.023.113-.078zm-2.012 1.063c.078-.036-.007-.157-.078-.114-.071.042-.023.159.078.114zm1.054-1.234c-.07-.05-.132.084-.06.125.073.04.149-.06.06-.125zm.105.797c-.037-.079-.157.007-.114.078s.158.023.114-.078zm-.979-.503c-.022-.083-.155-.017-.124.06s.154.047.124-.06zm-.065 1.338c.06-.062-.063-.144-.114-.079-.052.067.035.159.114.079zm.977.541c.06-.061-.063-.143-.113-.078-.052.065.034.158.113.078zm-1.369-.778c-.053-.068-.151.042-.092.102.057.06.16-.014.092-.102zm1.817-1.81c-.04-.087-.142 0-.101.064.045.064.137.014.101-.064zm-1.141 2.467c-.039-.087-.143 0-.099.064.043.065.135.015.099-.064zm.318-1.072c-.039-.087-.142 0-.1.064.043.064.135.014.1-.064zm-.034.671c-.039-.087-.142 0-.099.064.043.064.135.015.099-.064zm1.37-1.888c-.06-.096-.165.014-.1.107.064.092.17.007.1-.107zm-.619.797c-.061-.095-.164.014-.101.107.066.092.172.007.101-.107zm.21-.13c-.112-.018-.099.132.013.146.111.013.12-.123-.013-.146zm.343.78c-.071-.087-.16.035-.085.118.075.084.17-.014.085-.118zm.177.408c.07.087.16-.035.085-.118-.074-.084-.17.014-.085.118zm.294-1.542c-.075-.121-.214.028-.129.121.087.093.186-.028.129-.121zm-2.097.551c-.074-.121-.213.028-.128.121.086.092.185-.029.128-.121zm-.388 1.366c-.075-.122-.214.028-.128.121.086.092.185-.029.128-.121zm2.016-1.148c-.075-.122-.215.028-.129.121.085.093.185-.028.129-.121zm.373.199c-.01-.142-.203-.074-.17.047.031.122.177.061.17-.047zm-1.017.853c-.12.077.032.212.123.125.09-.087-.031-.185-.123-.125zm-.085-.519c-.123-.072-.175.125-.057.167.119.042.151-.111.057-.167zm2.109-.98c-.078-.06-.208.199-.085.218s.209-.122.085-.218zm6.263 4.84c-.072-.083-.219.095-.113.152.104.057.18-.076.113-.152zm2.361-1.931c-.047-.045-.139.051-.071.083.066.03.114-.042.071-.083zm.171-.304c-.028-.058-.148.002-.097.053.053.052.124 0 .097-.053zm-.247-.229c-.028-.058-.148.002-.095.053.052.052.123 0 .095-.053zm.447-.4c-.028-.058-.147.002-.095.054.052.051.122-.001.095-.054zm-.199.16c-.046-.045-.138.051-.071.083.067.03.115-.042.071-.083zm-.321.427c-.059-.03-.12.089-.047.1s.099-.073.047-.1zm-1.689 1.024c-.073-.083-.218.095-.114.152.104.057.181-.075.114-.152zm-1.445.316c-.028-.107-.238-.015-.171.083s.195.015.171-.083zm.267.358c-.013-.088-.18-.085-.151.028.028.115.171.086.151-.028zm2.098-.284c-.015-.089-.18-.085-.151.028s.171.086.151-.028zm-1.253 1.525c-.015-.089-.182-.085-.151.028.028.114.169.085.151-.028zm-.585.161c-.052-.073-.199 0-.125.091.073.091.19.004.125-.091zm-.81-.367c-.035-.083-.194-.043-.142.062.054.104.187.045.142-.062zm.367.211c.055-.072-.061-.19-.124-.091-.064.098.054.182.124.091zm-.462-.758c.021-.087-.13-.152-.151-.037-.02.116.121.149.151.037zm-.588-.146c-.012-.089-.179-.09-.153.024.025.115.168.09.153-.024zm.041.471c.015-.089-.142-.141-.153-.024-.011.117.132.137.153.024zm.424-.047c-.014-.089-.179-.089-.153.025.026.115.17.09.153-.025zm1.985.297c-.092.024-.03.133.036.133s.066-.161-.036-.133zm-1.548-1.964c-.09.025-.028.133.038.133s.066-.161-.038-.133zm-.788.844c-.09.025-.028.133.038.133s.066-.161-.038-.133zm-.413-.017c-.09.024-.099.131.038.133.064.001.064-.161-.038-.133zm.814-.694c-.09.025-.028.133.038.133s.067-.161-.038-.133zm1.213.654c-.09.025-.028.133.036.133.068.001.068-.161-.036-.133zm.901-.189c-.09.024-.028.133.038.133s.066-.161-.038-.133zm-1.876.38c-.09.024-.028.133.038.133s.066-.161-.038-.133zm1.525.056c-.077-.057-.172.105-.085.152.085.048.161-.095.085-.152zm1.492-.498c.016-.094-.171-.102-.173-.004-.002.097.16.097.173.004zm-.725.308c-.074-.057-.17.105-.085.152s.163-.095.085-.152zm.062-.6c-.048-.082-.198.031-.136.108.06.076.185-.026.136-.108zm-.555-.604c-.074-.057-.17.104-.085.151.085.048.162-.095.085-.151zm1.44.098c-.076-.057-.171.104-.086.152.086.047.161-.095.086-.152zm-1.098.186c-.055-.076-.193.051-.125.121s.182-.045.125-.121zm.703.142c-.057-.077-.195.05-.127.121s.182-.044.127-.121zm.73.058c-.038-.087-.2.008-.148.091s.186-.004.148-.091zm-.749-.417c-.019-.093-.197-.036-.165.057.031.091.182.036.165-.057zm-.787 1.545c-.053-.078-.196.044-.13.116.065.073.183-.037.13-.116zm-1.273.712c-.037-.087-.2.004-.15.088.05.084.188 0 .15-.088zm-1.271-1.632c-.036-.087-.199.004-.149.088s.188 0 .149-.088zm.531.024c-.043-.084-.198.02-.142.1.056.08.188-.016.142-.1zm.257 1.219c-.092-.068-.151.104-.057.152s.132-.095.057-.152zm2.078-.085c-.092-.068-.152.105-.057.152.095.048.133-.095.057-.152zm-.765.097c-.11-.034-.11.149-.004.162.106.014.094-.133.004-.162zm-1.911-.941c-.092-.069-.151.104-.057.152s.133-.095.057-.152zm1.357-.466c-.093-.069-.153.104-.059.152.097.048.135-.095.059-.152zm.345.331c-.024-.112-.183-.021-.143.077.04.098.162.016.143-.077zm.112-.397c.012-.114-.169-.076-.16.03.01.105.152.064.16-.03zm-.986.095c-.092-.069-.152.104-.057.152s.133-.095.057-.152zm1.037.487c-.091-.069-.151.104-.057.151.096.048.134-.094.057-.151zm3.088 8.481c.064-.063-.033-.197-.11-.108-.076.089.028.189.11.108zm.833.462c.076-.047.012-.199-.084-.13-.095.069-.014.191.084.13zm-1.601.05c.068-.06-.021-.199-.104-.115-.083.085.017.191.104.115zm.502-.091c-.087-.034-.101.091-.047.129.052.039.148-.091.047-.129zm1.327 1.59c-.086-.033-.1.091-.046.13.053.038.147-.093.046-.13zm.771 2.17c-.087-.032-.1.091-.047.13.054.039.149-.092.047-.13zm-.529-.995c-.094.016-.044.13.023.137.065.007.083-.154-.023-.137zm-.606-.398c-.088-.033-.102.091-.048.131.055.038.149-.092.048-.131zm3.644 2.888c-.086-.033-.1.091-.046.13.053.038.148-.092.046-.13zm-3.307-3.124c-.08-.047-.115.072-.068.12.045.048.162-.064.068-.12zm-.984-.245c-.094 0-.063.12.002.139.062.017.106-.139-.002-.139zm1.276-.058c-.082-.048-.117.071-.07.12.047.047.163-.064.07-.12zm-1.543.635c-.082-.049-.117.071-.07.119.047.047.163-.064.07-.119zm1.926 1.593c-.08-.047-.115.073-.07.12.047.048.163-.064.07-.12zm-1.215-4.494c-.088-.033-.102.091-.048.13.055.039.149-.092.048-.13zm-.092.637c-.093-.002-.064.119-.001.139.064.018.11-.136.001-.139zm-.307.204c-.089.028-.023.133.043.131.066-.002.06-.163-.043-.131zm-.655.389c-.074-.057-.17.105-.085.153.085.047.162-.094.085-.153zm-.336-.031c-.094-.012-.097.175.002.173.097 0 .092-.162-.002-.173zm.972.023c.026-.092-.156-.125-.172-.028-.014.097.144.118.172.028zm.142-.845c.071-.033-.008-.167-.076-.123-.068.044.006.156.076.123zm-.3 1.164c-.054-.078-.195.043-.13.116.067.072.184-.038.13-.116zm.104.398c-.012-.095-.193-.052-.17.043.024.094.179.051.17-.043zm1.222 1.978c.038-.086-.14-.144-.168-.05-.027.093.128.136.168.05zm.796 1.043c.082-.049-.033-.197-.107-.136-.077.062.026.185.107.136zm-.521-1.015c.094.011.094-.177-.005-.174-.098.004-.09.164.005.174zm.169-.356c.068.065.182-.084.102-.141-.079-.057-.173.076-.102.141zm1.673 2.173c.068.064.182-.084.102-.141-.078-.057-.171.075-.102.141zm.682.206c.068.065.182-.084.102-.141-.078-.057-.172.076-.102.141zm-3.259-4.189c.05-.104-.132-.129-.16-.027-.028.102.12.112.16.027zm-.431.3c.049-.104-.133-.129-.159-.026-.029.101.118.111.159.026zm2.767 3.462c.097-.063-.047-.178-.123-.104-.077.072.045.156.123.104zm-2.56-1.949c.052-.121-.139-.15-.167-.031-.03.119.123.13.167.031zm.048-2.271c-.109.034-.003.185.09.135.093-.05-.001-.163-.09-.135zm-1.004 1.101c.106-.058-.009-.257-.099-.181-.092.077.008.228.099.181zm-.411-1.476c.11.034.106-.15.002-.162-.105-.012-.091.135-.002.162zm-1.916 12.157c.087.038.275-.237.132-.285-.141-.047-.285.219-.132.285zm.437-.863c-.082-.057-.238.237-.087.255.152.019.182-.189.087-.255zm.123-.264c.056.043.099-.036.05-.078-.05-.043-.114.028-.05.078zm.555-.093c.072-.067-.034-.234-.135-.164-.1.073.042.249.135.164zm-.157.477c-.1-.017-.065-.163.021-.148.086.013.064.163-.021.148zm-.235.299c.061.03.136-.057.057-.113-.078-.057-.128.078-.057.113zm-.221.107c-.07-.057-.127.1-.079.12.051.023.151-.062.079-.12zm-.249 1.068c-.071-.058-.156.143-.106.163.05.022.179-.107.106-.163zm-.748-.875c.107.045.2-.192.079-.221-.12-.029-.213.164-.079.221zm.342.526c.115.01.108-.221-.007-.207-.113.015-.156.192.007.207zm.599.249c.053.054.234-.05.149-.157-.085-.107-.25.057-.149.157zm-.327-.036c.068-.088-.036-.163-.1-.07-.063.091.028.164.1.07zm.355.876c.043.029.106-.057.058-.093-.05-.035-.121.05-.058.093zm.976.292c.042.028.106-.058.057-.093s-.122.05-.057.093zm-.335-.2c.052.002.062-.081 0-.085-.062-.003-.076.084 0 .085zm.228.05c.05 0 .06-.083 0-.086-.061-.003-.078.085 0 .086zm-.268-.337c.045-.027-.006-.121-.06-.09-.054.03-.005.131.06.09zm-.182.238c.065-.039-.028-.179-.091-.128-.065.05-.015.192.091.128zm.222-3.118c.044.044.157-.042.085-.099-.072-.058-.15.035-.085.099zm-25.182-2.496c-.112.086.048.294.162.189.114-.103-.038-.284-.162-.189zm-.701.437c-.018.084.265.189.294.019.028-.171-.256-.209-.294-.019zm.502.189c-.065.079.133.352.285.162.151-.19-.199-.265-.285-.162zm.674-.199c-.085.078.066.247.17.161.105-.085-.047-.275-.17-.161zm.048.608c-.031.197.38.19.37.048-.01-.143-.342-.228-.37-.048zm-.465.094c-.062.054.019.133.066.096.048-.039 0-.152-.066-.096zm1.024-.256c-.054.054.058.161.124.095s-.048-.171-.124-.095zm-1.404.333c-.058.046.047.171.114.123.067-.047-.028-.19-.114-.123zm-.237-.4c-.067.052.038.143.086.096.047-.047-.01-.153-.086-.096zm-.759.058c-.074.13.162.209.227.096.067-.115-.152-.229-.227-.096zm.38.285c-.104-.019-.048.18.085.18s.075-.152-.085-.18zm-.57.35c.009.086.266.123.247-.028-.02-.151-.256-.066-.247.028zm2.648-.217c-.092.057.019.274.132.18.114-.095.019-.276-.132-.18zm.303.341c-.063.043.047.162.095.105.048-.058-.009-.162-.095-.105z" fill="#E73B22"/><path d="M19.465 20.495c.171-.224.702.379.55.532-.152.151-.74-.285-.55-.532zm.892-1.348c.124-.124.607.494.437.608-.171.114-.646-.399-.437-.608zm.778-1.176c-.295.185.228.873.437.722.209-.153-.285-.817-.437-.722zm.816-1.158c-.228.171.285.759.437.646.152-.115-.209-.817-.437-.646zm-4.906 5.894c-.38-.294-.484-.067-.285.142s.332.124.399.124l-.114-.266zm1.585.493c.105-.038.209-.124.266-.189.379.379.104.663-.266.189zm.74-.769c.076-.085.143-.171.162-.256.246.256.152.588-.162.256zm-.273-3.748c-.035.085-.099.292-.092.427-.427-.285-.441-1.139.092-.427zm.713-1.68c-.039-.475-.606-.667-.274.073.064-.041.169-.075.274-.073zm.708-1.718c.095-.085.229-.17.371-.218-.285-.304-.665-.541-.371.218zm1.605-1.224c-.105.01-.162.028-.256.114-.399-.531-.115-1.034.256-.114zm2.258 1.338c.076-.019.19-.028.275-.104.342.598-.209 1.167-.275.104zm1.443-.171c.095.411.465.522.322-.113-.143-.636-.417-.295-.322.113zm.815-2.989c-.173-.273-.019-.769.275-.218.295.55-.008.636-.275.218zm.693 1.813c.059.557.493.531.342-.057-.152-.589-.389-.399-.342.057zm7.508-.589c-.467.465-.067 1.462.198.095l-.198-.095zm.919-1.613c-.17-.902.901-.845.105.143l-.105-.143zm.95 2.534c-.475.342-.305 1.357.189.142l-.189-.142zm.768-1.471c.19-.702.873-.883.313.085-.105-.019-.2-.028-.313-.085zm.711 2.258c-.561.332-.322 1.433.143.133l-.143-.133zm1.025-1.518c.095-.493.626-.588.433-.009l-.433.009zm.977 1.025c.162-.475.75-.826.295.057-.104-.067-.132-.086-.295-.057zm.922 3.634c-.57.299-.698 1.38.128.256l-.128-.256zm.94-1.067c.142-.769 1.096-.527.227.113l-.227-.113zm1.166 1.836c.213-.84.683-.711.428-.014l-.238.166-.19-.152zm-1.11.199c-.219-.151-.665.646-.39.702.275.058.567-.579.39-.702zm.588 1.367c-.16-.134-.729.422-.465.617.18.132.702-.418.465-.617zm1.924-.171c-.149.135-.336.29-.425.351l-.051-.145c.17-.598.683-.832.476-.206zm-2.085 2.041c.074.195.798-.256.654-.465-.141-.209-.75.218-.654.465zm1.111.588c-.161-.191-.589.389-.408.503s.56-.323.408-.503zm1.075-1.291c.241-.605.946-.534.035.178l-.035-.178zm.533 1.054c.213-.719.84-.47.093.092l-.093-.092zm-16.859-11.151c-.437-.589-.028-1.11.228-.066l-.228.066zm1.851-.503c-.608-.617-.095-1.366.132-.038l-.132.038zm-.893 1.703c-.244.109-.028.854.242.783.271-.071.014-.896-.242-.783zm2.307-2.747c-.28.046-.099.783.128.754.227-.028.127-.796-.128-.754z" fill="#FFED00"/><path d="M19.475 26.664c-.101.038-.242.075-.354.07.524.446.582 1.457.297 1.94.456-.554.255-1.53.057-2.01zm27.245-3.625c.028.427-.27 1.096-.953 1.395.042.029.157.071.214.171.498-.328 1.024-.897.739-1.566zm-7.387-4.854c.583.199 1.281.014 1.438-.555l.099.256c-.343.484-.883.739-1.537.299zm1.978.469l.171.285c-.626.769-1.152.84-1.751.341.683.214 1.096.285 1.58-.626zm1.024 1.338l-.042-.313c-.413.755-1.024 1.481-1.879 1.011.441.526 1.466.37 1.921-.698zm-22.348 8.683c.182-.495.114-1.28-.35-1.981.075-.22.455-.419.768-.021.313.398.256 1.556-.418 2.002zm.479.983l-.212-.397c.51-.356.895-.81 1.094-1.286.641.235.365 1.688-.882 1.683zm.97 1.461c-.191-.245-.375-.503-.551-.771.553-.294.982-.709 1.197-1.159.458.36.137 1.67-.646 1.93zm1.311 1.421c-.235-.215-.464-.442-.686-.684.542-.329.939-.763 1.114-1.207.637.115.178 1.485-.428 1.891zm1.098.887c-.242-.172-.48-.356-.715-.552.473-.377.768-.897.88-1.359.817.063.42 1.574-.165 1.911zm1.315.805c-.268-.141-.535-.294-.8-.461.519-.476.865-1 .979-1.469.36-.087.572 1.233-.179 1.93zm1.754 2.501c-.282-.102-.554-.208-.818-.318-.089.606-.32 1.123-.653 1.421.081.576 1.48.293 1.471-1.103zm-1.54-.638c-.304-.146-.596-.295-.875-.451-.1.647-.363 1.186-.734 1.465.017.166.057.312.122.437.328.267 1.251-.567 1.487-1.451zm-1.617-.896c-.325-.209-.63-.425-.916-.649-.113.635-.355 1.16-.673 1.444-.018.237.006.447.069.624.512.456 1.403-.675 1.52-1.419zm-1.347-1.002c-.223-.191-.433-.386-.63-.585-.143.606-.43 1.047-.815 1.222-.081 1.158 1.077 1 1.445-.637zm-1.129-1.122l-.385-.475c-.102.333-.253.608-.45.801-.204.198-.449.299-.716.297.428.942 1.423.645 1.551-.623zm-.874-1.179l-.202-.331c-.098.273-.233.504-.403.674-.242.244-.546.351-.877.308.55.811 1.318.655 1.482-.651zm-.471-.825c-.094-.187-.183-.374-.263-.562-.09.392-.246.723-.461.956-.203.218-.448.337-.719.35.071.362.837.642 1.443-.744zm-.686-1.702c-.028.246-.146.322-.222.445.023.935-.463 1.322-1.049 1.225-.058.796 1.625.192 1.532-.929-.093-.247-.188-.494-.261-.741zm-1.298-3.028c.588.218.792.56.877 1.024-.057-.768-.488-.996-.849-1.224l-.028.2zm-.086-.684c.527.599.897.954 1.708.697-.512 0-1.438-.299-1.765-1.011l.057.314zm.114-1.266c.419.477.772.966 1.836.883-.711-.171-1.566-.673-1.842-1.244-.022.147-.022.247.006.361zm-1.566.128c-.441-.284-.683-.74-.769-1.267.228.555.684 1.025.869 1.139l-.1.128zm1.95-1.239c.513.641.925.968 1.851.926-.825-.171-1.153-.414-1.637-.997l-.214.071zm-2.547-1.608c.085 1.025.711 1.566 1.338 1.836l.185-.171c-.299-.014-.626-.228-.641-.47-.472-.265-.752-.607-.882-1.195zm3.449 1.035l.104-.162c.19.313.693.702.978.702-.38.019-.883-.151-1.082-.54zm.503-.921c.57.455 1.101.673 1.452.493-.436-.019-1.1-.332-1.375-.693l-.077.2zm-.764-2.591c-.683-.641-.954-1.11-.84-1.879-.285.655.157 2.05.882 2.306l-.042-.427zm.399-1.964c-.441-.484-.669-1.125-.584-1.623-.398.683.341 1.936.683 2.178.014-.185-.171-.299-.099-.555zm1.252 1.096c.313.726.896 1.366 1.822 1.139-.427-.015-1.352-.157-1.566-1.324l-.256.185zm.764-1.068c.028.711.702 1.38 1.485 1.21-.684-.157-1.438-.527-1.11-1.58-.156.128-.232.314-.375.37zm-1.518-3.008c-.095.607.085 1.271.38 1.538l.076-.257c-.219-.284-.475-.541-.456-1.281zm4.84 2.581c-.342-.474-.437-.55-.665-1.31.081 0 .145-.028.251-.092.036.761.534 1.787 1.196 1.722-.134.022-.413.157-.782-.32zm.607-1.67c.057-.067.114-.161.133-.228.124-.076.189-.095.313-.133-.256.863.295 1.623.788 1.755-.789-.141-1.167-.644-1.234-1.394zm1.708-1.291c-.114.864.038 1.566.74 1.974-.578-.417-.806-1.651-.493-2.145-.067.029-.19.105-.247.171zm-1.376-3.316c-.256.769.028 1.637.47 2.036l.384-.1c-.541-.456-.94-1.082-.854-1.936zm1.822-.755c-.299.697-.299 1.423.384 2.135l.329-.143c-.642-.511-.941-1.023-.713-1.992zm1.566-.484c-.441 1.053.086 1.822.47 2.234.114-.085.185-.127.313-.185-.858-.629-.912-1.579-.783-2.049zm.046 3.66c-.047.233-.104.453-.084.649l-.232.016c-.043.771.327 1.426.811 1.811-.455-.442-.633-1.508-.495-2.476zm3.104-2.16c.095-.057.247-.039.322-.019.267-.835.02-1.917-.474-2.145.266.304.551 1.423.152 2.164zm1.253-.703c.151-.019.229-.038.305-.114-.133-.551-.21-.797-.607-.987.302.342.34.798.302 1.101zm2.506 2.164c.608-.531.893-1.442.722-2.145.397.93-.229 2.126-.646 2.581.037-.151-.02-.265-.076-.436zm2.086.769c.342-.427.627-.978.437-1.775.229.74.306 1.708-.416 2.354.019-.228.019-.399-.021-.579zm-3.851 2.647c.91-.702 1.177-1.025 1.043-2.088.095.038.208.057.323 0 .17.798-.285 1.766-1.366 2.088zm-.911-2.201c.17-.019.247-.019.36-.133.114.645-.019 1.613-.646 1.841.38-.38.628-1.082.286-1.708zm3.766 1.119c.219.588-.369 1.5-1.053 1.841.986-.475 1.328-.93 1.404-1.993-.132.096-.207.115-.351.152zm2.591-.816c.021.104.038.247.01.351.655-.522.911-1.148.512-2.012.143.541.038 1.406-.522 1.661zm.855.978c.722-.465 1.138-1.167.845-1.983.389.721.236 1.5-.333 1.926-.104-.076-.333-.067-.512.057zm1.88 2.657l.227.114c.043.157.086.285.086.427 1.182-.655 1.281-1.822.882-2.377.141.74-.001 1.58-1.195 1.836zm.749 3.492c-.418.683-1.157 1.651-2.259 1.215.418.493 1.319.437 2.344-.874l-.085-.341zm.264-1.689c.675-.446 1.196-.977.997-1.812.408.427.189 1.508-.75 2.22-.009-.104-.028-.199-.066-.29l-.181-.118zm.788 1.594c.712-.494 1.196-1.157.986-1.917.429.835-.085 1.604-.824 2.277l-.162-.36zm-.834 1.053l.046.152.162.104c-.693 1.205-1.328 1.518-1.89 1.195.571.087 1.53-.397 1.682-1.451zm.588 1.272c-.028.114-.049.228-.01.342-.835.769-1.538 1.043-1.965.607.476.256 1.338-.038 1.975-.949zm1.23.119c.1-.037.201-.094.309-.185l-.096-.077c.627-.284 1.194-.806 1.158-1.641.218.73-.066 1.538-1.234 2.069l-.137-.166zm-2.872 1.818c.552.35 1.206-.028 1.576-.38-.057.067-.108.224-.113.314-.448.321-1.14.539-1.463.066zm1.671.938l.113.152c-.655.407-1.176.446-1.376.104.246.162.777.219 1.263-.256zm-5.515-10.391c-.07.385-.342 1.139-1.194 1.48.54-.085 1.166-.441 1.409-1.495-.072.029-.1.044-.215.015zm4.503 14.032l.235-.414c-.383-.345-.808-.801-1.041-1.287-.806.011-.259 1.811.806 1.701zm.556-1.031c-.138-.232-.135-.519.021-.81-.094-.062-.177-.154-.26-.289-.117-.191-.146-.447-.034-.713-.142.021-.286-.019-.409-.083-.719.055-.679 1.187.682 1.895zm1.11 4.021c-.201.057-.395.038-.576-.057-.354-.184-.597-.617-.758-1.05l-.321.507c.17 1.058 1.048 1.623 1.655.6zm.422-.751c-.188.01-.373-.037-.552-.142-.336-.198-.618-.6-.768-1.062l-.146.313c.043.933.909 1.588 1.466.891zm.556-.851c-.311.093-.535.01-.673-.084-.287-.194-.457-.605-.448-1.079-.146-.111-.255-.252-.33-.417-.05.2-.11.406-.184.619.424 1.47 1.352 1.887 1.635.961zm-6.015 2.341c.253-.171.504-.359.754-.567-.458-.497-.766-.991-.878-1.41-.822-.211-.595 1.574.124 1.977zm1.093-.86c.255-.232.508-.487.76-.766-.432-.336-.873-.763-1.065-1.208-.865-.08-.262 1.666.305 1.974zm1.303-1.422c.19-.244.379-.506.563-.786-.501-.388-.847-.754-1.028-1.094-.899.081-.163 1.716.465 1.88zm-4.779 3.468c.28-.099.564-.211.854-.341-.526-.692-.807-1.222-.859-1.627-.58-.039-.536 1.528.005 1.968zm1.791-.816c-.425-.595-.75-1.094-.87-1.518-.566-.271-.406 1.404.164 1.889l.706-.371zm-1.359 4.321c.093-.133.148-.29.166-.472-.283-.358-.442-.845-.493-1.271-.249.099-.508.195-.774.287.199 1.125.721 1.701 1.101 1.456zm2.002-.735l.073-.251c-.438-.326-.669-.971-.696-1.562-.298.164-.611.323-.939.475.109 1.173.879 1.873 1.562 1.338zm1.464-1.289c-.343-.324-.528-.927-.557-1.507-.27.201-.557.398-.859.59.093 1.315 1.258 1.873 1.416.917zm1.435-1.197c-.443-.157-.762-.678-.887-1.249-.182.176-.375.351-.578.522.16 1.069 1.232 2.264 1.465.727zm1.199-1.109c-.161.007-.318-.041-.472-.143-.31-.206-.548-.611-.687-1.023-.143.182-.296.363-.459.543.11 1.12 1.292 1.664 1.618.623zm-17.584.936c-.294-.118-.59-.253-.886-.403.493-.405.898-.934.958-1.432.54-.198.502 1.392-.072 1.835zm18.965-13.058c-.062.093-.307.313-.369.356l.057.214c1.089-.762 1.581-1.467 1.131-2.256.221.54-.249 1.21-.819 1.686z" fill="#ccc"/><path fill="#C8D41F" d="M44.855 32.504c-.043.257-.085.599-.356.854.128 1.281.028 2.505-.483 3.203 1.309-1.123 1.451-2.306.839-4.057zm.286-.143c.113-.099.326-.341.397-.512.783 1.367 1.097 1.979.257 3.373.085-.995-.019-2.264-.654-2.861zm-22.241-16.25c.171-.057.475-.285.475-.512.228-.057.455-.114.701-.076.229.759.323.835.665 1.31.341.475 1.1 3.322-.095 4.479.512-3.283-.398-2.847-.531-3.796.038 2.449-1.006 3.018-.912 5.428-.626-.759-.077-2.426.039-3.208.266-1.803.114-2.771-.342-3.625zm-6.111 8.047c-1.651 1.403-1.974 5.314-1.006 7.137-.209-1.993.304-3.416.417-4.385-.019 1.632-.038 3.321.722 4.327-.456-2.315-.285-4.782.417-5.922-.38-.321-.398-.834-.55-1.157zm3.089 10.452c-.176.68-.176 2.705 1.19 3.389-.598-1.296-.854-1.907-.484-3.047-.241-.028-.458-.101-.706-.342zm.992 1.183c.1.199.427.483.726.455-.27.427-.228.712.186 1.025.412.312.91.883.711 1.694-.228-.855-.654-1.068-1.139-1.396-.484-.327-.583-.556-.541-.968.042-.412.085-.526.057-.81zm10.742-22.567c.323.152.607.114.835-.133.418.816.528 1.07.475 1.708-.095 1.139-1.12 3.853-.627 4.346-1.024-1.67.266-3.625 0-4.403-.437 1.12-.911 1.348-1.348 2.145-.437.797-.873 2.145-.815 2.828-.57-1.082.322-3.112.778-4.004.456-.893.778-1.955.702-2.487zm8.068 3.72c.454 1.632.567 1.917.473 2.695s-.019 2.145.095 2.771c.837-2.467.495-3.796.437-4.84-.304-.493-.759-.436-1.005-.626zm-1.159-.892c0 1.841.455 5.447.701 6.168.437-1.803.285-4.612.208-5.466-.415-.436-.623-.55-.909-.702z"/><path d="M44.855 32.504c-.043.257-.085.599-.356.854.085.883.271 1.268.385 1.537.356-.825.213-1.764-.029-2.391zm.683-.654c-.071.171-.284.413-.397.512.441.399.526 1.012.881 1.297.157-.842-.298-1.524-.484-1.809zm.063-8.489c-.113.341.133.778.323 1.063.189.284.246.644.151.929.664.911 1.271 2.24 1.157 5.542 1.005-2.106.493-5.011.075-5.542.475.323.684.685.968.778 0 .797-.151 2.05.077 2.449.569-1.652 1.006-2.525-.115-3.551-1.119-1.023-2.313-1.251-2.636-1.668zm-21.524-7.839c-.247-.038-.474.019-.701.076 0 .185-.201.37-.368.463.215.41.5 1.074.462 1.492-.038.417.133.796.266.227.133-.569.247-.778.19-1.119.399.986.55 1.101.702 1.043.152-.057.209-.304.019-.664-.19-.36-.418-.891-.57-1.518zm-7.155 15.715c-.456-2.315-.285-4.782.417-5.922-.186-.156-.285-.36-.355-.564-.812.081-1.666 2.871-1.548 5.603.087.35.203.668.347.94-.209-1.993.304-3.416.417-4.385.171 1.139.342 1.651.342 2.192 0 .542.19 1.624.38 2.136zm3.663 3.715c-.242-.028-.458-.102-.707-.342-.133.698-.077 1.253.038 1.453.114.199.185.241.213.384.029.143.186.199.186-.171 0-.369.071-.953.27-1.324zm1.01 1.296c-.299.028-.625-.256-.726-.455.085.241.057.754.028.882-.028.129.085.484.356.627.271.142.47.312.271-.043s-.27-.712.071-1.011zm10.852-23.155c-.228.247-.512.285-.835.133.076.532-.246 1.594-.702 2.486-.404.791-1.151 2.478-.918 3.604-.031-1.629.758-2.114 1.089-3.584.171-.759.665-1.746.911-1.917.019.303.303.513.303.93.266.778-1.024 2.733 0 4.403-.118-.118-.149-.363-.126-.683-.025-.703-.044-1.69.278-2.335.228-.456.209-2.031 0-3.037zm7.059 4.991c-.019-.578-.05-1.054-.075-1.328-.341-.358-.543-.499-.761-.622.003 1.135-.039 2.367.836 1.95zm1.295 1.374c-.017-.638-.382-.861-.344-1.298.037-.437-.172-.569-.425-1.061.219.072.465.167.651.472.029.523.129 1.116.118 1.887z" fill="#5FA82C"/><path fill="#C8D41F" d="M48.603 27.867c.416-1.212.583-1.97-.365-2.837-.441-.404-.896-.685-1.303-.901.563.637 1 .939 1.267 1.168.265.229.493.684.416 1.101-.076.417-.184 1.153-.015 1.469z"/><path d="M34.208 12.362c.755.1 1.765.256 2.306-.37-.484.569-1.324.598-1.979.47.712.27 1.937.754 2.734.071-.626.683-1.841.351-3.075-.114l.014-.057zm-.087.143c1.026.313 1.505.731 1.595 1.324-.08-.603-.953-1.167-1.623-1.267l.028-.057zm-7.24.607c.56-.494.993-.74 1.011-1.575.019.769-.332 1.123-.986 1.635l-.025-.06zm.088.277c1.063-.987 1.588-1.103 2.138-.913-.673-.228-1.404.307-2.125.98l-.013-.067zm-1.658.802c1.338-.975 2.32-1.366 3.011-.825-.771-.52-1.708-.043-3.018.932l.007-.107zm-7.668 9.512c-.123-.74-.218-1.519-.986-1.737.513.085.845.551 1.016 1.461-.038-1.167.009-1.599-.73-2.192.873.512.825 1.699.778 2.467l-.078.001zm-.607 1.964c.46.389.684 1.102.674 1.613l.085-.038c.048-1.86-.199-2.277-.902-2.477.703.252.864.722.845 2.135-.152-.711-.437-1.052-.702-1.233zm1.072 3.051c-.248-1.219-.665-2.103-1.67-2.538 1.072.517 1.338 1.451 1.528 2.259-.456-.778-.845-1.281-1.556-1.348.745.047 1.405 1.043 1.604 1.67l.094-.043zm11.06-16.199c.712-.356 1.486-.726 1.495-1.694.028.484-.142 1.068-1.082 1.566.797-.285 1.723-.641 1.936-1.608-.095.669-.498 1.181-2.349 1.878v-.142zm8.717 1.552c.807.208 1.472.446 1.965-.047-.329.472-1.102.341-1.557.247.389.228.788.427 1.461.541-.683-.038-1.271-.294-1.792-.636.56.361 1.043.702 1.032 1.253-.028-.551-.567-.92-1.166-1.262l.057-.096zm3.268 3.202c.642.555 1.495 1.295 2.806.797-1.348.347-1.951-.171-2.449-.669.611.228 1.267.456 1.836-.028-.654.356-.939.313-2.12-.142l-.073.042zm1.239 1.559c.665 1.246.836 2.403.413 2.997.613-.641.062-2.313-.323-3.068l-.09.071zm-23.223 1.687c.412-1.161.534-1.744.334-2.221.17.555-.093 1.388-.263 1.801.042-.812-.012-1.236-.477-1.608.526.355.534 1.316.355 1.993l.051.035zm.581-1.637c.588-1.31.683-1.945.085-2.686.607.74.333 1.5.028 2.259.067-.788-.037-1.367-.541-1.642.722.468.522 1.566.351 2.041l.077.028zm5.556-5.029c1.756-1.099 2.759-2.197 2.434-3.265.257 1.291-.939 2.195-2.458 3.181l.024.084zm18.073 6.538c.419.465.712.92 1.644.883-.542.095-1.026-.114-1.425-.541.352.617.626 1.062 1.481 1.233-.742-.028-1.292-.635-1.757-1.528l.057-.047zm-.113.057c.408.579.599 1.186.322 1.565.238-.408.02-1.043-.37-1.527l.048-.038zm.929 1.708c.352.456.476.702 1.187.778-.503.009-.76-.162-1.017-.484.238.428.257.741.998.94-.541-.048-.873-.399-1.216-1.196l.048-.038zm-26.324 3.398c-.086-.778-.176-1.234.36-1.747-.446.322-.574.845-.427 1.69-.104-.789-.208-1.092-.598-1.244.485.219.485.911.542 1.301h.123zm18.078-12.338c1.48 1.082 2.216 2.32 2.046 3.516.208-1.196-.537-2.419-1.951-3.554.531-.005 1.119-.143 1.68.456-.512-.555-.812-.527-1.736-.513l-.039.095zm-15.35 4.128c.489-1.575 1.096-2.178 1.893-2.334-.839.143-1.357.902-1.499 1.187.427-1.367.318-2.539-.337-3.037.812.731.697 2.192.043 3.573.114-1.637-.243-2.306-.897-2.647.708.384 1.125 1.423.683 3.203l.114.055zm1.623-1.366c.371-1.381.945-2.087 1.652-2.079-.727-.057-1.253.684-1.58 1.566.028-.854-.067-1.272-.527-1.566.576.399.527 1.225.427 1.979l.028.1z"/></svg>