<svg xmlns="http://www.w3.org/2000/svg" width="64" height="48"><path fill="#fff" d="M0 0h32v48h-32z"/><path fill="#E40520" d="M32 0h32v48h-32zM8.015 18.999v-3.649c0-.096.041-.305 0-.396-.251-.119-.896-.969-1.017-.969h-3.813c-.326 0-.185-.332-.185-.621v-4.454c0-.062-.014-.896.012-.896h3.752c.344 0 .213.045.454-.291.234-.325.797-.473.797-.862v-3.812c0-.103 2.83-.049 3.085-.049.31 0 2.886-.125 2.886.106v3.833c0 .25.626.548.796.785.241.335.11.29.454.29h3.752c.026 0 .012.976.012 1.048v4.424c0 .282.119.499-.185.499h-3.813c-.12 0-.768.851-1.018.969-.055.121 0 .396 0 .525 0 .293.009 3.52-.009 3.52h-5.96zm5.65-15.678v3.653c0 .294-.057.239.217.378.176.089.875.982.864.982h3.741c.345 0 .192.386.192.688v4.318c0 .396-.006.324-.41.324h-2.333c-.436 0-1.086-.179-1.288.217-.09.176-.983.875-.983.864v.679c0 .35.096 3.253-.085 3.253h-4.093c-.163 0-1.032.121-1.151 0-.167-.169 0-1.347 0-1.581v-2.072c0-.294.057-.239-.217-.378-.227-.115-.833-.983-.901-.983h-3.785c-.239 0-.11-2.729-.11-3.063v-1.943c0-.446.094-.324.544-.324h3.109c.406 0 .258-.09.517-.44l.842-.677v-3.043c0-.156-.106-.852.085-.852h5.245z"/><path d="M13.319 7.681v-1.974c0-.464.183-1.654-.064-1.973v1.973c-.001.465-.183 1.654.064 1.974zm0 6.734v2.024c0 .362.173 1.618-.064 1.825v-2.024c-.001-.363-.174-1.618.064-1.825zm1.065-1.096h1.973c.463 0 1.656.183 1.973-.065h-1.973c-.463 0-1.656-.183-1.973.065zm-6.756 0h-1.947c-.454 0-1.639.181-1.947-.065h1.947c.455 0 1.639-.181 1.947.065zm10.702-.065v-2.254c0-.48.219-1.936-.064-2.254v2.254c0 .48-.219 1.935.064 2.254zm-9.584 5.075h2.385c.453 0 1.899.212 2.188-.064h-2.385c-.453-.001-1.899-.213-2.188.064z" fill="#B6BBBE" stroke="#B6BBBE" stroke-width=".263"/><path fill="#EAEAEA" stroke="#B6BBBE" stroke-width=".263" d="M18.266 8.745h-3.649c-.312 0-.156-.101-.272-.396-.167-.422-.615-.797-1.089-.771-.184-.269 0-1.307 0-1.625v-2.02c0-.369-.464-.199-.781-.199h-2.254c-.23 0-1.298-.16-1.474 0-.146.132 0 1.239 0 1.432v2.218c0 .312-.101.156-.395.274-.418.167-.799.615-.773 1.087-.27.184-1.306 0-1.625 0h-2.02c-.369 0-.199.464-.199.781v2.254c0 .23-.16 1.298 0 1.474.132.146 1.238 0 1.432 0h2.218c.312 0 .155.101.273.395.168.418.616.798 1.088.773.184.27 0 1.306 0 1.625v2.02c0 .369.464.199.781.199h2.254c.23 0 1.298.16 1.474 0 .146-.132 0-1.239 0-1.432v-2.218c0-.312.101-.156.396-.272.421-.167.797-.616.771-1.089.269-.184 1.307 0 1.625 0h2.02c.369 0 .199-.464.199-.781v-3.729z"/><path d="M8.3 8.299"/><path fill="#EAEAEA" stroke="#B6BBBE" stroke-width=".263" stroke-linejoin="bevel" d="M8.31 7.761c.129.443.795.4.371.839-.024-.275-.361-.586-.604-.676.19.228.312.54.455.799-.287-.109-.822-.122-.721-.49.109.107.239.177.389.209-.023-.118-.168-.391-.319-.384.099-.161.242-.26.429-.297.055.191-.18.014 0 0z"/><path fill="#EAEAEA" stroke="#B6BBBE" stroke-width=".263" d="M8.55 7.769c-.458-.129-1.068.558-.674.953.639.639 1.269-.882.823-.8.048-.08.161-.188.239-.238.588.586-.717 1.432-1.261 1.255-.607-.497.658-1.356 1.069-1.356-.04.061-.126.139-.196.186z"/><path fill="#B6BBBE" d="M7.933 7.933c.213-.213.508-.35.812-.35-.201.241-.563.193-.812.35z"/><path d="M8.302 13.703"/><path fill="#EAEAEA" stroke="#B6BBBE" stroke-width=".263" stroke-linejoin="bevel" d="M7.764 13.693c.44-.13.401-.795.838-.373-.274.024-.585.361-.675.605.228-.19.54-.312.799-.455-.108.284-.124.823-.489.721.105-.109.175-.239.207-.389-.118.023-.392.167-.383.318-.161-.098-.26-.241-.297-.427.191-.056.014.179 0 0z"/><path fill="#EAEAEA" stroke="#B6BBBE" stroke-width=".263" d="M7.772 13.453c-.132.458.559 1.066.952.673.642-.644-.886-1.263-.799-.822-.08-.048-.188-.161-.239-.24.586-.588 1.432.717 1.256 1.261-.496.607-1.357-.658-1.357-1.068.063.039.14.125.187.196z"/><path fill="#B6BBBE" d="M7.936 14.069c-.212-.214-.35-.508-.35-.812.241.2.196.565.35.812z"/><path d="M13.706 13.699"/><path fill="#EAEAEA" stroke="#B6BBBE" stroke-width=".263" stroke-linejoin="bevel" d="M13.696 14.238c-.128-.44-.797-.402-.372-.839.024.274.361.585.605.675-.19-.227-.313-.54-.455-.799.286.109.821.123.721.49-.109-.106-.239-.176-.39-.208.023.118.168.392.319.384-.099.161-.241.26-.428.297-.056-.191.179-.014 0 0z"/><path fill="#EAEAEA" stroke="#B6BBBE" stroke-width=".263" d="M13.456 14.229c.458.129 1.067-.558.673-.953-.638-.638-1.27.882-.822.8-.048.08-.161.188-.24.238-.587-.586.718-1.433 1.262-1.256.606.497-.659 1.356-1.069 1.356.039-.059.126-.138.196-.185z"/><path fill="#B6BBBE" d="M14.072 14.066c-.213.213-.508.35-.812.35.201-.242.564-.193.812-.35z"/><path d="M13.703 8.296"/><path fill="#EAEAEA" stroke="#B6BBBE" stroke-width=".263" stroke-linejoin="bevel" d="M14.241 8.306c-.443.13-.397.793-.839.373.274-.024.586-.361.675-.605-.228.19-.54.312-.799.455.109-.286.123-.823.49-.721-.107.109-.176.239-.208.389.118-.023.392-.167.383-.318.162.098.261.24.298.427-.191.056-.014-.18 0 0z"/><path fill="#EAEAEA" stroke="#B6BBBE" stroke-width=".263" d="M14.233 8.546c.131-.458-.559-1.066-.952-.673-.643.643.886 1.264.799.822.08.048.188.161.239.24-.586.588-1.433-.718-1.256-1.262.497-.606 1.356.659 1.356 1.069-.061-.039-.139-.126-.186-.196z"/><path fill="#B6BBBE" d="M14.07 7.929c.212.214.349.508.349.813-.239-.2-.197-.566-.349-.813z"/><path d="M13.018 9.045v-5.011c-.309.296-.064 2.028-.064 2.505s-.245 2.21.064 2.506zm-3.972 3.973h-2.505c-.478 0-2.209.245-2.505-.064h2.505c.477 0 2.209-.245 2.505.064zm8.983-.064v-1.954c0-.459.181-1.639-.064-1.954v1.954c0 .459-.181 1.638.064 1.954zm-5.011 0v2.505c0 .478.245 2.209-.064 2.505v-2.505c0-.478-.245-2.209.064-2.505zm0 .064h2.505c.478 0 2.209.245 2.505-.064h-2.505c-.477 0-2.209-.245-2.505.064zm-3.972 5.01h1.986c.47 0 1.659.183 1.986-.064h-1.986c-.47 0-1.659-.183-1.986.064z" fill="#B6BBBE" stroke="#B6BBBE" stroke-width=".263"/><path fill="#EAEAEA" stroke="#B6BBBE" stroke-width=".263" d="M9.046 12.954h-5.001c-.021 0-.01-1.283-.01-1.375v-2.126c0-.471-.021-.406.447-.406h4.228c.371 0 .335.035.335-.335v-4.228c0-.468-.064-.447.406-.447.3 0 3.502-.01 3.502.01v3.817c0 .169-.125 1.059 0 1.184.143.143 1.163 0 1.358 0h2.295c.188 0 1.223-.141 1.358 0 .147.153 0 1.169 0 1.375v2.243c0 .387-.062.29-.447.29h-4.228c-.421 0-.335.023-.335.447v4.228c0 .403.003.335-.406.335h-2.311c-.08 0-1.191.011-1.191-.01v-5.002z"/><path d="M11.041 14.348c4.266 0 4.266-6.614 0-6.614-4.265-.001-4.265 6.614 0 6.614zm0-3.307" fill="#B6BBBE" stroke="#B6BBBE" stroke-width=".263"/><path d="M11 14.307c4.265 0 4.265-6.614 0-6.614s-4.265 6.614 0 6.614zm0-3.307 0 2.305c2.973 0 2.973-4.61 0-4.61s-2.973 4.61 0 4.61zm0-2.305" fill="#EAEAEA" stroke="#B6BBBE" stroke-width=".263"/><path fill="#B6BBBE" d="M9.092 12.543c-.229-.06-.576.14-.635.372l-.327-.561.197-.115c-.176.264.006.502.285.255-.061-.106-.138-.088-.235-.1.091-.068.207-.139.312-.182-.039.081-.109.153-.044.263.117-.122.21-.106.26-.253.06.104.147.209.187.321zm-.491-1.089c-.046-.264-.723-.148-.678.116.063.364.626.026.702-.12.081.475-.644.599-.725.124-.087-.497.671-.571.701-.12zm-.359-.874c.071-.418-.607-.123-.071-.014.178.036.315.08.455.004-.002.105-.031.251-.07.349-.171-.182-.527-.26-.724-.13.026-.22.443-.979.464-.417l.406-.18c-.018.242-.263.347-.46.388zm.974-1.196c-.197.215-.564.169-.65-.135-.068-.246.171-.414.302-.561l.176.161c-.507-.105-.474.415-.062.563.257.092.324-.237-.004-.274.055-.088.152-.194.234-.256.132.158.163.328.004.502zm.531-.745l.111-.055-.213-.186.019.281.1.002c-.054.191-.042.07.032.226l-.198.097c.048-.257.009-.544-.007-.816.213.1.44.424.68.485-.088.064-.223.132-.327.161.066-.186-.053-.216-.197-.195zm.965-.774c-.213.338.107 1.066.368.456.025.385-.347.281-.655.312.149-.185.106-.548-.063-.732l.35-.036zm1.059.076c-.315.249-.25 1.04.197.551-.103.371-.42.151-.721.079.202-.125.281-.484.181-.712l.343.082zm.677.792c.017-.015.16.014.146-.217l-.233.158.062.098c-.205.025-.125-.067-.195.131l-.183-.124c.246-.087.475-.264.702-.414.021.233-.146.593-.079.832-.099-.044-.226-.127-.303-.203.237-.037.103-.126.083-.261zm.922.188c.033-.098.126.075.144.143.034.137-.117.443-.154.584.167-.065.285-.195.326-.345l.121.17c-.245.007-.439.214-.646.362.011-.239.106-.518.171-.766-.19.08-.37.239-.422.416l-.127-.178c.229.002.485-.17.587-.386zm-.067 1.246c.201.093.461-.041.693-.107l-.23-.179.203-.059.178.622-.203.058.101-.273c-.232.066-.524.091-.646.274-.031-.108-.086-.224-.096-.336zm.522.933c-.02.465.566.044.157.01-.208-.017-.363-.042-.537.05-.012-.105-.001-.253.025-.355.193.158.556.191.735.037.002.22-.315 1.029-.407.473l-.381.23c-.013-.244.214-.379.408-.445zm-.547 1.07c-.047-.023-.125.037-.14.048.042-.113.097-.25.166-.349.123.292.433.237.739.156-.028.103-.091.235-.152.322-.113-.114-.124-.054-.36-.086.183.16.094.211.292.228l-.106.223c-.092-.245-.191-.426-.439-.542zm-2.516-3.234c.267-.339 2.03.486 1.053.795.135.135.272.318.316.509.337-.288 1.347.121 1.044.467-.12.137-.875-.651-.911-.129.012-.159.568.388.579.402.081.088.173.161.277.22.056.122-.19.227-.007.326.32.174-.393.473-.236.679.171.224-.628.248-.647.247-.322-.01-.908.021-1.183.181l-.29-.242c-.136.088-.427-.176-.487.109-.046.222 1.405.451 1.315.622.001-.002-1.653-.425-1.653-.264 0-.081.342.011.354-.092.017-.151-.903-.211-.807-.397.084-.164.418.195.519.084.118-.131-.034-.234.25-.287-.224-.364-.217-.169-.217-.626 0-.036-.704-.564-.753-.484l.132.417c.001-.024-.057.972-.144.772-.047-.109-.271-.687-.252-.754.078-.287-.3-.417-.044-.677.204-.203.403-.039.544.158.044-.073.482-.713-.012-.647-.148.02-.264.31-.405.275-.146-.036-.145-.425-.044-.5-.043-.309.426-.859.678-1.023.386-.253.649.011 1.031-.141z"/><path d="M9.511 10.121c.055-.058.068-.116.039-.176-.078-.017-.509.186-.506.281-.001-.018.486-.159.467-.105zm-.066.074c.093-.078-.572.279-.341.337.099.024.39-.378.341-.337zm-.241-.32c.054-.032.457-.251.521-.146.029.048-.627.317-.624.271l.103-.125zm.074-.114c.087-.394.655-.188.696-.263-.077.142-.551.182-.696.263zm.852-.522c-.222.173-.381.065-.632.171.082-.089.555-.256.632-.171zm-.514-.027c.094-.072.991-.138.97-.021.018-.097-.912.044-.97.021.172-.132.088.036 0 0zm.422-.246c.165.083.573-.079.68.07l-.053.053c-.086-.087-.877-.029-.627-.123zm-.69 1.931c-.294-.422-.408.234-.199.197.026-.004.176-.229.199-.197zm-.197.251c0-.041-.053.779.152.514.029-.068.031-.138.008-.208-.027-.04-.19.097-.157-.062l.159-.038c.041-.039-.162-.326-.162-.206zm1.654-2.151c.035.08.051.163.048.25 0 .029.202-.055.202-.123l-.25-.127zm.9.248c-.011 0-.169.062-.171.092-.006.076.366.114.368.03-.044-.067-.11-.108-.197-.122zm-.492-.147c-.081.148-.213.644-.174.805-.013-.057.842.063.423-.331-.108-.102-.153-.406.068-.388.066.004-.204-.288-.317-.086zm-.526.136c-.192.192-.384.026-.619.291-.052.059-.76.819-.362.857-.073-.007.189-.467.233-.513.097-.102.286-.249.357-.364.084-.139.232.024.169.072-.014.01-.137-.101-.127.043.001.019.107.001.105.073-.001.037-.195.083-.042.153.041.019.145-.174.209-.089.007.01-.278.383-.112.368-.478.042.289.265.312.282.329.241.431.155.667.553.085.144.061.277.299.233-.145.027-.38-.731-.578-.823.015.007-.288-.102-.268-.132-.086.136-.213-.272-.154-.228-.144-.11.204-.253.13-.393l-.219-.383zm.979.963c-.039-.032-.394-.181-.432-.187l-.185.18c.01.073.371.159.362.121l-.069-.105c.014-.055.378.114.394.134.21.258-.296.228-.145.43.088.118.386.118.5.07.377-.156.428.265.719.232.212-.023-.886-.633-.877-.415-.01-.256.172-.292-.039-.646-.04-.067-.354-.329-.429-.084.013-.038.298.354.201.27zm-.18.156c.03-.009.182.025.192.062.024.077-.222-.052-.192-.062zm.684-.02l.038.158c.553-.484.484.237.88.168.265-.045-.258-.295-.212-.275-.38-.169-.341-.321-.706-.051zm-2.062-.504c-.033.044-.454.458-.169.494.079.013-.02.24.173.093.234-.179.052-.662-.004-.587zm-.34.614zm.127.072c.014.071.335.428.361.31.021-.095-.372-.351-.361-.31zm.23.018c.258-.256 1.938.353.689.426-.541.028.001.137-.365.532-.558.603.307.383.33.823.007.139-.389-.139-.409-.158-.352-.337-.175-.237-.249-.636-.059-.308-.112-.255-.409-.414-.163-.087-.04-.327.132-.403.062.062.425.361.523.25.078-.085-.193-.367-.242-.42.057-.057.062.066 0 0zm.479 1.308c-.09 0-.229-.114-.283-.053.021.088.076.154.165.197l.118-.144zm.127-.496c-.007.021-.374.362-.179.421.157.048.574.063.755.056-.356.013-.679-.179-.576-.477zm-.448.913c-.158.015-.225.095-.202.241l.11.04c-.025-.095.056-.274.092-.281zm2.203-1.246c-.14-.107-.554-.149-.672.013-.116.159.593.798.374.031.003.009.229.04.298-.044zm.115.056c0 .014-.061.206.05.19.053-.065.037-.129-.05-.19zm.219.115c.416.333-.334.377-.454.407.035-.009.193.379.226.409.072.064.22-.102.215-.167l-.146-.015c-.13-.203.298-.112.252-.046.01-.068.042-.118.095-.149.297.163-.525.483-.548.493-.021.055-.018.11.009.165-.262.04-.471.025-.728.015-.356-.015-.16-.1-.339-.164l-.286.299c.083-.016.34-.112.409-.001-.057-.09-.427.116-.517.109-.116-.008.102-.243.077-.298-.006-.014-.417-.163-.464-.18-.133-.051.303-.217.274-.212.104-.018.447.047.55.103.134.072.437.225.589.126.125-.081-.219-.225-.233-.319.366.143.377-.245.399-.242.115.016.727-.247.62-.333zm-.834.32c-.098-.213-.598-.252-.785-.201-.016.005.826.289.785.201zm-.454.002zm.16.11c.022.007.283.06.251.11-.035.058-.356-.145-.251-.11zm-.878-.063c.105-.14.418-.689.654-.347-.032.001-.593 0-.501.192.044.092.787.306.733.453-.041.11-.795-.418-.886-.298zm1.907.684c.09 0-.357.081-.232.156.095.057.274-.156.232-.156zm-3.465-.307c.008.046-.007.167.079.175.154.019-.106-.325-.079-.175z" fill="#EAEAEA"/><path d="M11.227 9.572c-.059.114-.047.192.036.236.12-.037-.015-.312-.036-.236zm-1.025 1.87c-.07.069-.078.124-.022.165.159.037.062-.246.022-.165zm.373-.174c.034-.106-.12-.201-.205-.147-.032.02.184.211.205.147z" fill="#B6BBBE"/><g fill="#EAEAEA" stroke="#B6BBBE" stroke-width=".263"><path d="M10.999 13.806"/><path d="M12.452 13.199c-.262 0-.262.39 0 .39.261-.001.266-.39 0-.39zm-2.907 0c.261 0 .261.39 0 .39-.261-.001-.265-.39 0-.39zm1.295.449c-.119-.311.433-.308.321-.004.31-.119.307.433.003.32.119.312-.433.308-.321.004-.31.121-.306-.431-.003-.32-.122-.318-.311-.114 0 0z"/></g></svg>