<svg xmlns="http://www.w3.org/2000/svg" width="64" height="48"><path fill="#fff" d="M21.333 0h21.333v48h-21.333z"/><path fill="#E40520" d="M43 0h21v48h-21z"/><path fill="#00793E" d="M0 0h21v48h-21z"/><g stroke="#000" stroke-width=".125"><path fill="#0090D3" d="M30.63 28.195c-.657.183-1.103-.278-1.263-.873-.109.514-.181.65-.692.452-.383-.148-.757-.317-1.137-.474-.626-.256.111.346.273.441.514.303.588.515.019.798.653 0 2.49.097 1.218.944 1.081-.118 1.717.602 2.74.598.395-.001 1.442.199 1.657-.245.202-.418 1.397-.555 1.818-.688-1.226-.274-.001-.588.557-.821-.623-.211-1.46.168-2.109.171-.894.004-2.265.106-3.081-.303-.795.221.636.319 0 0z"/><path fill="#FCBE00" d="M33.429 29.688c.431.595.402-.534.413-.6.045-.267.185-1.301-.269-1.185-.837.214-1.881-.085-2.793.099-.419-.582-.415.516-.425.585-.043.271-.159 1.312.281 1.199.828-.211 1.873.255 2.793-.098.115.159-.574.22 0 0z"/><path d="M30.59 29.396c.154-.089.321.109.19.291m0-1.685c.131.182-.036.379-.19.291m3.028 1.103c-.154-.089-.32.109-.189.291m0-1.685c-.131.182.035.379.189.291m-2.785-.301c.574-.034.75 1.899 1.377 1.863m-.997-1.907c.591-.044.856 1.978 1.519 1.881m-1.105-1.898c.592-.044.91 1.951 1.493 1.837" fill="none"/><path d="M27.875 28.265c-.356 0-.356.53 0 .53s.362-.53 0-.53zm1.413-1.165c-.356 0-.356.531 0 .531.357 0 .361-.531 0-.531zm5.845 1.836c-.356 0-.356.532 0 .532s.361-.532 0-.532z" fill="#fff"/><path d="M27.39 27.065c-.312-.157-.796.028-.42.378.439.408 1.013-.08.42-.378zm1.583 2.124c-.557.178-.359.723.199.521.445-.157.255-.664-.199-.521zm6.752-.561c.605-.176.47-.705-.15-.503-.457.148-.324.642.15.503z" fill="#80612D"/></g><g stroke="#000" stroke-width=".125"><path d="M36.38 30.062c.038-.195-.091-.872-.235-.843-.275.056.162.713.012.964.265.01.746.45.854.341.214-.219-.459-.394-.631-.462.02-.105.099.039 0 0zm2.488-2.05c-.025-.197-.366-.797-.493-.722-.245.144.383.62.321.908.254-.076.852.187.917.049.133-.277-.558-.224-.745-.235-.014-.106.108.007 0 0zm1.396-2.749c-.113-.161-.535-.668-.662-.47-.111.175.521.445.596.714.203-.198.882-.103.875-.312-.008-.237-.632-.015-.809.068-.062-.088.096-.045 0 0z" fill="#CF7400"/><g fill="#00793E"><path d="M40.125 25.582c.083-.395.104-.8-.137-1.147-.257-.373.047-.79-.133-1.148.212.223.489.498.592.794.15-.29.41-.767.751-.865-.077.654.126.931-.451 1.448-.32.29-.467.544-.516.993m-.04-.114c.097-.69-.259-2.143.362-2.645.746 1.163-.255 1.574-.362 2.645.142-1.015.037-.362 0 0zm-1.818 2.856c.587-.497.479-.827.521-1.535.029-.49.227-1.1.776-1.211.063.295.092.645.053.944.313-.313.566-.598 1.042-.627-.385.369-.464.952-.788 1.366-.391.498-1.091.662-1.499 1.212m.142-.265c.689-.827.477-2.414 1.611-2.903.248 1.274-.893 2.064-1.611 2.903zm-2.552 1.9c.544-.345.578-.763.935-1.244.195-.266.821-.615.849-.964.075.336.071.766-.097 1.077.256-.214.633-.358.963-.389-.266.531-.144.934-.874 1.085-.686.142-1.189.126-1.802.558"/><path d="M36.086 30.217c.754-.622 1.593-2.065 2.676-2.065-.435 1.258-1.656 1.476-2.676 2.065.406-.335.274-.158 0 0zm-2.648.54c.878-.164 1.095-1.061 2.172-.919-.252.229-.324.619-.635.794.385.065.788.157 1.13.354-.462-.065-.963.359-1.44.377-.51.017-.876-.301-1.227-.606.67-.125.141.123 0 0zm.318.3c.76.468 2.13-.292 2.525-.954-.87-.099-1.512.49-2.328.57-.738.072-1.428-.191-2.18-.017-.425.1-.824.288-1.179.541-.172.107.373.017.446-.028.823-.512 1.867-.636 2.716-.112z"/></g></g><g stroke="#000" stroke-width=".125"><g fill="#CF7400"><path d="M27.823 30.103c-.006-.079-.274-.922-.08-.936.237-.017.135.88.274 1.05m-.269-.719l-.158.006c-.225.269.957.274.158-.006zm.033.659c-.078.016-.961-.013-.922.178.047.231.885-.108 1.085-.021m-.765-.064l-.037-.154c.193-.283.53.838.037.154zm-1.838-2.262c.013-.077-.04-.981.152-.947.219.037-.063.892.029 1.088m-.105-.766l-.155-.033c-.286.209.868.495.155.033zm-.076.656c-.079.002-.96-.154-.955.029.007.217.978.055 1.167.179m-.837-.208l-.01-.157c.243-.249.373.921.01.157zm-.902-2.724c.042-.063.407-.924.556-.825.148.1-.45.96-.486 1.135m.287-.871l-.128-.092c-.343.076.592.802.128.092zm-.434.561c-.068-.038-.751-.62-.838-.458-.104.19.815.541.917.743"/><path d="M23.198 24.978l.07-.141c.34-.093-.149.985-.07.141z"/></g><g fill="#00793E"><path d="M23.956 25.909c-.031-.39-.251-.777-.218-1.171.012-.146.234-.225.068-.352-.207-.157.381-.325.368-.467l-.4-.083c-.047-.092.47-.24.407-.47-.041-.154-.242.016-.321-.056-.049-.044.251-.405.24-.477.012.074-.703-.21-.622.324.076.499-.242.109-.401.153-.301.083.168.531.119.646-.058.134-.381-.237-.4.051-.021.32.494.225.539.512l.283.42c.082.346.211.683.194 1.045m2.042 2.274c-.306-.162-.7-.378-.803-.739-.028-.099.044-.873.08-.862-.107-.033-.37.28-.318-.076.013-.088.193-.704-.112-.663-.175.023-.095.318-.294.318-.156 0 .018-.385-.078-.457-.111-.084-.266.362-.372.087-.058-.149-.29.008-.315.055.002.086.03.164.082.233.007.065-.253-.007-.287.007-.251.104.697.453.701.461.073.137-.442.044-.463.124-.095.363.693.229.782.423.073.159-.311-.016-.328.104-.033.23.578.134.667.252.25.338.621.71 1.02.866m2.457 1.906c-.172-.053-1.322-.994-1.022-1.186-.24.153-.272.107-.306-.26-.015-.168-.021-.372-.195-.461-.183-.094-.134.228-.246.26-.185.055-.034-.839-.287-.711l-.092.305c-.113.039-.166-.324-.301-.279-.096.031.014.315-.014.39l-.291.095c-.048.203.416.184.425.328.017.25-.436-.061-.459.111-.05.373.718.248.843.386.16.177-.569.195-.577.204-.292.302.987.271.948.24.223.175-.083.142.431.122.362-.013.707.443 1.006.598"/><path d="M33.535 31.295c-.46-.33-.981-.593-1.537-.715-.452-.1-1.161.195-1.529.047-.074-.029-.188-.298-.29-.228-.149.103-.221.149-.354-.085-.403-.71-.444.129-.483.131-.196.013-.286-.352-.523-.343-.446.013.031.285-.144.35-.228.085-.515-.494-.682-.019-.021.058-.736.372-.272.438.122.018.724-.174.657.079-.153.569.662-.088.794.04.127.121-.186.229-.085.333.243.25.469-.341.686-.263.021.008-.108.696.224.293.284-.344.513-.41.887-.579.445-.201 1.037-.091 1.473.076.286.109.553.267.789.462.086.086.464.042.389-.017z"/></g></g><g stroke="#000" stroke-width=".125"><path d="M32.204 31.35c.331.251.644.314.396.687-.159-.193-.384-.322-.565-.492l.169-.195c.224.17-.025.049 0 0zm-.596-.317c-.285.272-.737.347-.846.782.372-.135.728-.407 1.056-.716l-.21-.066c-.236.227.048.038 0 0zm.19.066c-.276-.037-.476-.576-.184-.718.499-.242.25.729.184.718z" fill="#0090D3"/><path d="M32.45 31.023c.282.283.744.351.854.792-.258-.092-1.146-.531-.854-.792.233.234-.04.037 0 0zm-.128.063c-.104.456-.583.62-.853.95-.292-.429.471-.795.853-.95-.102.451-.026.011 0 0zm-.165.021c.512-.026.551-.755.009-.765.137-.005.134.791-.009.765.269-.013.12.022 0 0z" fill="#E40520"/><path d="M32.104 31.108c-.12.199-.354.317-.534.45-.322.237-.106.263-.493.212.054-.4.724-.633 1.027-.662-.172.288-.042.004 0 0zm.1.242c.329.249.442.466.787.421-.037-.276-.498-.472-.686-.624l-.101.203c.224.17.027-.03 0 0zm-.047-.243c.026.005.311-.795-.348-.763.135-.006.134.78-.011.754l.359.009z" fill="#fff"/></g><path d="M26.295 24.453c-.303.303-.954-.35-.574-.715.372-.36.898.389.574.715zm-.878-.606c-.256-.201.024-.47.211-.255.202.23.056.464-.211.255zm-.011.155c-.236-.064-.141-.324.071-.221.211.103.181.29-.071.221zm.452-.539c0-.333.378-.291.322 0-.055.29-.322.357-.322 0zm-.389-.494c.088.106.147.255.216.375l-.092.053c-.134-.16-.234-.304-.124-.428zm-.083-.218c-.19 0-.193.301 0 .301.188.001.2-.301 0-.301zm.22.913c-.204-.293.163-.509.296-.214.132.294-.077.531-.296.214z" fill="#E40520" stroke="#000" stroke-width=".125"/><g stroke="#000" stroke-width=".125" fill="none"><path d="M25.897 25.141l-.193-.088M26.825 24.178l.027.265M27.479 25.193l.194-.211M26.701 26.21l.389-.151M26.109 25.856l.327-.071M26.348 25.715l-.318.009M28.114 25.468l-.106-.177M27.487 26.669l.274-.063M28.282 26.969l.194-.151M28.423 27.039l.194-.194M29.994 27.516l.221-.212M30.815 27.666l.247-.256M30.162 26.006l-.353-.177M30.33 25.556l.203.336M30.489 25.538l.123.335M31.292 25.688l.036.318M31.495 25.705l-.008.328M31.548 27.56l.089-.203M31.778 27.33l-.08.301M34.992 27.675c.008.088.079.221.132.273m.601-1.279c-.009-.062.026-.274.062-.345M36.21 26.386l.142-.318M36.254 27.763l.308.133M36.36 27.71l.291.053M36.951 27.348l.354-.044M33.72 27.692l.328.195M33.836 27.675l.395.096"/></g><path d="M27.54 26.147c-.624-.024-2.538-.923-1.402-1.714 1.096-.764 1.138 1.161 1.772 1.255l-.37.459zm2.331.159c-.376-.36-.837-.739-1.358-.856-.485-.109-1.182.276-1.017.851.138.48.734.557 1.157.59.671.052 1.094.085 1.218-.585zm3.002.23c-.704-.281-1.55-.791-2.338-.694-.654.08-1.156.743-.631 1.296.52.549 3.24.48 2.969-.602-1.236-.494.088.354 0 0zm1.907.6c.758.029 1.676-1.603 2.256-.287.28.636-.69 1.001-1.163 1.026-.554.03-1.036-.299-1.57-.376.186-.072.379-.18.477-.363.671.026-.071.133 0 0zm-1.784 1.413c.027-.663.619-.789 1.146-.938.492-.139 1.157-.92.353-1.2-.763-.266-2.023-.034-2.293.812-.139.435-.143.909-.159 1.361 0 .105.967.161.953-.035.054-1.289.009.123 0 0z" fill="#00793E" stroke="#000" stroke-width=".125"/><path d="M36.926 26.377c-.507.308-.148.749.326.468.485-.289.145-.755-.326-.468zm1.146-.511c-.077.114-.205.212-.301.312l-.077-.075c.118-.175.228-.311.378-.237zm.186-.141c-.053-.183-.344-.102-.29.083.053.181.345.109.29-.083zm-1.015.302c.177-.294.487-.111.287.147-.177.23-.473.165-.287-.147zm.403.329c.338-.051.401.302.072.314-.29.013-.43-.258-.072-.314zm-.167-.219c.273-.277.5.134.207.246-.254.098-.475.02-.207-.246z" fill="#E40520" stroke="#000" stroke-width=".125"/><path d="M26.381 24.793c-.17.085-.088.248.082.163.17-.086.091-.25-.082-.163zm.475-.05c-.183.052-.134.227.05.175.184-.052.137-.228-.05-.175zm-.622.493c-.025.19.156.213.18.023.025-.188-.156-.214-.18-.023zm.45-.007c-.103.132-.001.214.102.083s.002-.215-.102-.083zm.553-.116c-.188.036-.153.216.035.179.186-.036.154-.216-.035-.179zm-.071.536c-.119.137-.017.255.102.118.118-.135.018-.255-.102-.118zm-.463.011c-.097.164.061.257.157.092.096-.164-.06-.259-.157-.092zm1.2.333c-.096.165.061.257.158.093.096-.165-.06-.259-.158-.093zm.356-.28c-.123.146.016.263.139.118.123-.145-.014-.266-.139-.118zm-.214.732c-.002.19.18.193.182.003.002-.191-.18-.196-.182-.003zm.462-.164c-.063.179.108.24.172.061.063-.181-.108-.243-.172-.061zm.653.115c-.063.181.109.24.172.062.064-.182-.107-.245-.172-.062zm-.359.269c-.002.19.18.193.183.003s-.18-.195-.183-.003zm1.416-.169c-.096.166.061.257.157.093.096-.165-.06-.259-.157-.093zm.188.542c.05.184.226.138.176-.047-.049-.184-.226-.139-.176.047zm.244-.921c-.096.165.062.257.158.093.096-.165-.06-.26-.158-.093zm.314.46c-.127.143.008.264.136.123.127-.142-.007-.266-.136-.123zm.45-.348c-.127.143.008.264.136.121.127-.141-.007-.265-.136-.121zm-.225.913c.08.174.246.098.166-.076-.08-.173-.247-.1-.166.076zm.42-.395c-.066.179.104.242.171.063.067-.177-.102-.244-.171-.063zm1.168 1.052c-.166-.096-.283.089-.117.184.165.094.284-.088.117-.184zm-.3-.53c-.166-.095-.283.09-.117.185.164.094.284-.089.117-.185zm1.041-.063c-.165-.095-.309.108-.143.203.165.095.312-.106.143-.203zm.193-.553c-.181-.062-.239.111-.059.172.181.062.244-.11.059-.172zm-.766.518c-.143-.068-.189.126-.046.195.141.07.191-.124.046-.195zm1.111.161c-.182-.061-.24.112-.059.174.181.06.241-.11.059-.174zm.284-.514c-.181-.062-.259.131-.078.192.181.062.26-.129.078-.192zm.807.535c-.125-.144-.264-.023-.138.119.126.144.265.027.138-.119zm.673-.079c-.162-.101-.274.088-.112.188.161.102.275-.085.112-.188zm.485.115c-.162-.101-.273.088-.111.189.161.101.276-.087.111-.189zm-.283-.741c-.161-.102-.291.096-.129.196.163.102.294-.094.129-.196zm.372.221c-.162-.102-.292.096-.13.196.162.102.294-.093.13-.196z" fill="#5F9322" stroke="#B8C64A" stroke-width=".063"/><path d="M28.811 25.295c-.509.347-.087 1.24.34.747.277-.321.078-.782-.34-.747zm.3-.54c-.19 0-.193.303 0 .303.188 0 .201-.303 0-.303zm-.197.121c-.201 0-.204.318 0 .318.197 0 .211-.318 0-.318zm.308.067c-.201 0-.203.318 0 .318.198 0 .212-.318 0-.318zm-.124.44c.141.218.391-.043.393-.202-.228.097-.354-.088-.393.202zm-.145-.198c-.126-.01-.212-.074-.256-.193-.185.185.027.469.26.366l-.004-.173zm.026.256c-.134-.044-.164-.342.014-.357.312-.028.255.442-.014.357z" fill="#E40520" stroke="#000" stroke-width=".125"/><g stroke="#000" stroke-width=".125" fill="none"><path d="M26.313 25.243l-.212-.116M26.242 24.665l.159.22M26.842 24.572l.018.26M26.719 25.256l-.163-.146M26.758 25.711l-.22-.133M27.191 25.697l-.194-.176M27.245 25.168l-.063-.257M26.445 24.85l-.017-.247M27.973 26.042l-.221-.106M28.149 25.626l.15.142M27.955 26.491l.176-.025M28.141 26.412l-.239-.088M28.352 26.324l.203.009M28.582 26.289l-.203-.168M29.005 26.368l.283.027M28.864 26.65h-.265M30.012 26.554l.238.026M30.303 26.482l-.203-.158M30.506 26.068l.203.079M31.257 26.174l.194.105M30.719 26.606l.238.072M31.027 26.589l-.167-.168M31.398 26.703l.283.063M31.036 27.181l.23-.071M32.405 27.357l-.027-.255M32.714 27.887v-.274M33.005 27.746l-.238.141M33.438 27.295l.026-.256M33.508 27.304l.3-.158M34.064 27.418l.186-.114M34.32 26.906l.16-.184M33.694 26.748l.167-.221M35.098 27.41l.158-.185M35.786 27.074l-.07.265M35.769 27.374l.175-.149M36.236 27.472l.195-.177M36.307 26.978l.159-.186M35.972 26.757l.096-.283"/></g><path fill="#B16510" stroke="#000" stroke-width=".125" d="M28.617 18.484c-.222-.16.025-.364.159-.459.083-.06.538-.777.475-.766.115-.021.116.48.097.542l.25-.808c.12.056.095.418.079.529.093-.049.46-.712.363-.732.09.019.079.452.079.499.049-.035.354-.417.336-.435.05.122.065.247.045.377.201-.115 1.341.259 1.381.151-.055.078-.127.136-.218.173.311.093.516.347.677.613.21-.844-.52-.896-1.07-1.098-.812-.299.513-.897.595-.979.422-.417 1.588-.082 2.07.051.623.173 1.578 1.033 2.24.735-.112.5-.071.362.395.723.418.323.802.698 1.112 1.127.358.495.555 1.979 1.229 2.088-.324.286-.157.394-.133.88.021.427.008.877-.104 1.292-.055.202-.099 2.418-.335 2.353-.116-.032-.104-1.007-.122-1.153-.087-.713.098-1.682-.331-2.275-.068.837.521 2.318.019 3.055-.035.051-.188-.957-.2-1.033-.083-.52-.185-1.216-.433-1.68.009.548.476 1.984.111 2.439l-.268-1.09c-.151-.479-.207-.945-.484-1.374.028.116.333 1.44.133 1.481-.19.039-.3-.838-.307-.91-.032-.349-.284-.556-.514-.786.051.097.535 1.283.356 1.297-.152.012-.416-.872-.489-.983-.225-.34-.646-.43-.926-.72.076.085.9 1.31.777 1.315-.354.016-.44-.767-.769-.864-.355-.105-.675-.399-.934-.321.298.539.194 1.195.692 1.543.521.365 1.054.716 1.583 1.07.331.222 1.166.583 1.329.963.116.271-.881.266-.974.341-.17.137-.446.17-.628.032-.156.239-.483.172-.663.009-.32.32-.86-.367-1.06-.557.058.133.036.217-.063.253-.061-.062-.104-.134-.129-.217.018.139-.013.26-.093.364-.071-.015-.119-.059-.144-.133-.106.544-.344.289-.532-.025-.127.756-1.041-.689-1.261-.979-.02.208-.113.723-.381.37-.146.069-1.365.49-1.002-.025-1.129-.148-.636-.492.042-.932-.024-.02-.451-.39-.339-.504.162-.03.312.005.451.106-.318-.372-.379-.898-.688-1.212-.283.181-.457-.831-.468-1.048-.012-.236.12-.41.224-.606.241-.455-.057-.081.014-.382.128-.536.396-.645.507-1.185.017-.011-.319-.218-.453-.232-.39-.042-.97-.027-1.305-.268z"/><path d="M29.513 17.985c.133-.06.612-.502.77-.447.411.145-.509.647-.625.659m.818-.834c.344 0 1.426.672.711.618m-.817-.384c.216.068.805.241.878.511.061.222-.896-.156-.989-.21m1.298-.297c.301.277.618.62.733 1.024.176.613-.041.39-.384.344m-.437-1.05c.168.153.638 1.576.261 1.443-.392-.137-.649-.8-.624-1.161m-1.209.062c.089-.03.782-.146.706.133-.055.201-.542-.024-.671 0m.618-.344c-.018.053-.035.132-.132.176m.115.256c.124.221.406.344.583 0m-.097 2.207c-.106.494-.067 1.259.551 1.42.433.113.148-1.421.217-1.614m-.706 1.174c-.048.329-.208.505-.357.157-.171-.399-.298-.837-.084-1.251m-.284-.01c-.229.433-.175.679-.035 1.103.139.421.278.225.27-.184m.728-2.296c-.226.36-.488.872-.389 1.315.142.625.568.043.689-.229m.026-.812c-.045.186-.197 1.119.258 1.074.422-.041.37-1.169.333-1.418m-1.65.326c-.073.218-.363.886-.208 1.125.172.265.528-.317.552-.418m-.468 1.809c.029.036.403.485.474.421.089-.16.125-.333.108-.518m-.273 1.06c-.017.228.164 1.709.609 1.006m.813-3.893c-.006.316.646 2.257-.362 1.43m.397-1.642c-.013.122.334.664.445.462.185-.337.17-.907.063-1.266m-.278 1.996c.56.208.433-.46.212-.732m-3.845-1.908c-.05.457 1.065-.48.441-.455m-.349.314c.022.071.256.181.357-.132m-.282.052c-.103.138.352-.185.133-.124m5.796-1.2c.431.691-.081.358-.39.256m-.268-.552c.133.137.312.355.236.565-.098.268-.377-.113-.482-.185m-.311-.433c.101.085.602.791.107.596-.4-.157-.862-.241-1.29-.265m.552-.362c.419.066.433.526.641.592m.224.494c.219.051 1.871.805 1.572-.043m-.3.476c.08.221.036.53-.177.689m-.979-.486c.524-.027 1.472.641.786 1.139m.662-1.589c.448.417 2.247 2.027 1.955 2.775-.094.24-2.015-1.985-2.211-2.228m-.222.848c.336.39 1.84 2.581 1.739.962m-2.012-.371c.191.195 1.677 1.859 1.572.883m-3.205-.044c.073.099 1.199 1.538.512 1.377m-.46-1.96c.178.238.178.433-.088.468m.187-.344c.237-.009.424-.106.44-.45m-.229-.098c.309.273.661-.221.449-.477m-.194-.035c.311.035.424-.247.203-.618m-.237.018c.379.053.485-.379.149-.76m-.243.062c.383-.321.104-.169.204-.653m-2.547-.265c.221-.062.521-.177.733-.053m-.027.318c.159-.062.423-.097.618.009m-.07.327c.115-.07.564.009.644.309m-.45.168c.141-.08.503.053.539.265m-.495.238c.301-.009.574.229.538.468m-3.019 3.169c.258.322.556.616.842.913.157.163.534.745.624.27m-.768-.856c.315.355 1.315 1.726 1.315.618m-.557-.962c.062.148.816 1.545 1.073 1.22.291-.369-.303-1.281-.472-1.6m-1.157 1.748c.115.124.354.115.239-.124m.247.177c.127.238 1.23 1.668 1.359 1.13m-.768-1.112c.09.164 1.101 1.81 1.143.945m-.621-1.14c.088.216.961 1.951.961.936m-.891-3.222c.211.428 1.055 2.355-.044 1.704m.3-1.951c.115.216 1.009 1.955.222 1.651m.291.044c.043.122.621 1.918.299 1.94-.287.019-.586-1.29-.635-1.472m.574-.98c.178.474.707 1.772.339 2.262-.098.023-.161-.027-.188-.152m-.372-3.064c.388-.212.416-.591-.158-.901m.45.442c.44-.177.724-.53-.08-.918m.476.353c.909-.055.291-.954-.317-.98m.185 2.358c.371.114.662.203.592-.433m-.495-.592c.47.536 1.368 1.246 1.077.053m-6.015-2.537c-.055.184-.713.483-.505.723m.505-.723c.122-.153.226-.224.329-.279m.014.371c.08-.124.154-.303.205-.477m.223-.128l-.022.313m2.244.566c.111.184.595.643.636.806.039.151-.607-.136-.673-.273m-.64-1.146c-.105.054-.235.096-.34.082m-.823-.406c-.015.112-.055.246-.144.388m4.67-.282c.33.29.747.157.982-.126m-.065 4.806c-.212-.212-.483-.486-.519-.724m1.207.937c-.092-.141-.202-.291-.324-.444m.964.469l-.452-.707m1.067.365c-.133-.183-.275-.347-.299-.497m1.078-.492c-.343.057-.857-.141-1.255-.744m-5.616-3.982c-.212.527.556.762.887.94.454.244.504.634.581 1.117.093.599-.016.951-.46 1.36.045.244.521 1.17.088 1.156m1.237.856c.136-.192.019-.555-.274-.82m.004.764l.103.169m.29 2.245c.071-.276.106-.594.087-.928m.963 2.641c-.3-.273-.6-.557-1.094-.998m1.757.989c-.256-.194-1.324-1.157-1.757-1.519m2.489 1.343c-.459-.291-1.774-1.263-2.445-1.863m-.513.653c.133.406.248.707.311.875m-.769.206l-.362-.604m.895.629l-.471-.744m.899.477c-.025-.459-.043-.741-.07-.944m-3.535.552c.181-.261.473-.424.781-.482m.221.507c-.245-.325-.271-.742-.248-1.134m1.173 1.332c.041-.048.073-.165.107-.361m-1.991-.794c.088.073.193.143.314.202m-.705-1.616c.666.698 1.364 1.518 1.731 2m-1.917-2.196c.13-.082.208-.233.247-.377m-.398-1.501c.177.032.351-.085.459-.211m-.15-.596c.256 0 .472-.142.635-.332m-.517-.204c.148-.1.219-.252.195-.436" stroke="#000" stroke-width=".125" fill="none"/><g stroke="#000" stroke-width=".125"><path fill="#F9BA85" d="M28.555 18.431c-.212.016-.521.562-.525.788-.009.431.36.646.755.581-.296-.103-.312-.639-.055-.785.145-.083.31-.006.432.081.472.34.208-.062.691-.091.516-.023.23-.426-.204-.378-.234.025-.944.012-1.094-.196-.115.009.115.159 0 0z"/><path d="M29.853 19.005c.055-.409-.636-.023-.733.057m-.75-.41c0 .07.278.11.283-.146" fill="none"/></g><g stroke="#000" stroke-width=".125"><path fill="#FCBE00" d="M33.394 25.573l-.998.592c0 .357.979 1.109.979.336.321.062.652-.243.964-.044.11.308.609.238.728-.027.154-.35-.289-.335-.472-.379-.344-.084-.596-.358-.783-.643-.056.26-.227.5-.418.165.061.221.176.31 0 0z"/><path d="M32.688 26.491c.041-.136.706-.549.843-.564m-.014-.199c.022.184-.06.387.203.38.373-.008.189-.286.189-.561m-.534.954c.16.004.331-.11.371-.274m-.03.234c.101-.026.222-.105.247-.238m.035.18c.102-.013.182-.079.182-.181m-.862-.189c-.065.048-.022.177.128.237m-.384-.052c-.083.044-.039.278.121.3m1.588-.441c-.133-.009-.331-.014-.362.044" fill="none"/><path fill="#fff" d="M32.678 27.092c-.382-.166-.2-.759.16-.573.33.169-.264.377-.16.573-.344-.15-.115-.216 0 0zm-.56-.521c-.36-.267.159-.78.372-.5.265.352-.44.191-.372.5-.269-.199-.067-.304 0 0zm2.794.42c.3-.035.576-.559.139-.628-.429-.068-.013.481-.139.628.38-.045.103-.12 0 0z"/><path d="M32.802 25.869c.102.026.164.075.168.129" fill="none"/></g><g stroke="#000" stroke-width=".125"><path fill="#FCBE00" d="M30.153 23.94c.375.15.777.246 1.166.354-.405.1-.462.201-.891.122-.416-.077-.534-.07-.896.041-.103-.019-.19-.067-.262-.146-.131-.153-.272-.171-.424-.055-.108.107-.409.244-.53.134-.46-.417.165-1.186.636-1.121.107.014 1.894.011 1.201.671.177.071.199-.19 0 0z"/><path d="M28.264 23.746c-.036.126.229.547.345.593m-.055-.817c-.021.145.101.729.293.734m.758-.122c-.274-.107-.124-.475-.428-.49-.35-.017-.402.38-.137.536m1.113-.24l-.411.367" fill="none"/><path d="M28.864 24.253c.099.185.325.226.499.12-.246-.189-.242-.136-.499-.12.071.133.071-.004 0 0zm-.229.091c.065.182.365.158.49.09-.116-.019-.203-.079-.261-.181-.121-.002-.074.142-.229.091.039.111.074.025 0 0zm-.17.122c.106.103.221.105.342.008-.318-.111-.078.001-.342-.008.033.083.073.002 0 0zm.823-1.289c-.265-.018-.76.542-.395.683.398.151.186-.531.395-.683-.397-.027-.163.118 0 0z" fill="#fff"/></g><path fill="#FCBE00" stroke="#000" stroke-width=".125" d="M27.951 17.518c.146.136.132.487-.014.618.047-.258-.061-.379.014-.618z"/><path fill="#5F9322" stroke="#000" stroke-width=".125" d="M28.032 19.292c-.652.258-.881.002-.99-.571-.063-.332-.272-.623.109-.846.056-.033.812-.581.839-.533.085.155-.188.579-.283.674-.487.487.235.442.512.15.205.516-1.531.453.018.592-.149.143-.22.325-.205.534-.769.305-.02-.274 0 0zm1.375 4.653c.583-.238.807-1 .229-1.42-.366-.266-1.16.083-1.407-.271-.912-1.304 2.368-1.94 1.032-3.079-.203-.173-.557-.323-.69.022-.117.302.508.544.073.867-.653.485-1.443 1.083-1.296 2.004.108.678.528.987 1.184.963.134-.005.892-.075.731.247-.175.347-.017.368.144.667.283-.115-.026-.049 0 0z"/><path fill="#CF7400" stroke="#000" stroke-width=".125" d="M28.103 21.45c-.557.999.73.865 1.197.941.858.141.842 1.254.108 1.553-.161-.299-.319-.32-.146-.667.165-.329-.747-.241-.893-.283-.662-.187-.627-1.097-.266-1.544-.153.274-.371.46 0 0zm.471-2.267c.201-.462.732-.021.907.224.327.458-.166.95-.504 1.22.531-.407.245-1.351-.403-1.444.047-.108.61.088 0 0z"/><path fill="#5F9322" stroke="#000" stroke-width=".125" d="M28.465 24.466c-.413.336-.902.268-1.106-.247-.085-.213-.084-.453-.202-.654-.152-.262-.463-.356-.643-.594-.395-.52.3-1.042.03-1.514-.05-.087-.876-.53-.753-.63.381-.31 1.038.097 1.173.472.164.455-.109.693-.12 1.113-.006.224.221.339.396.407.278.107.359.393.432.651.046.164.097.367.257.461.192.114.275.497.536.535-.577.47-.183-.027 0 0z"/><path d="M25.916 20.784c.273-.212-.393-.318-.493-.028-.022.064.215.389.278.405.277.072.095-.283.215-.377zm.218.057c.273-.213-.394-.317-.494-.028-.022.063.216.389.278.405.28.071.095-.283.216-.377zm.218.055c.272-.211-.392-.318-.493-.028-.022.064.215.389.278.405.277.073.095-.282.215-.377z" fill="#CF7400" stroke="#000" stroke-width=".125"/><path d="M28.573 19.182c.609.088.971 1.015.406 1.448m-.274-.619c-.088.106-.008.614.084.755m-.018.013c-.19-.044-.636-.141-.777-.185m.424-.362c-.053.141-.009.662.035.817m-.127-.737c.137-.018.808.146.865.053m-.393-.553c.005.159.464.535.287.711m-.402-.485c.102.035.579-.115.513-.31m-1.215.875c-.009.15.124.565.181.737m-.476-.423l.75.141m-1.055.401c.044-.124.72-.036.808-.142m-.539-.365c-.069.102.23.471.338.665m-.612-.14c-.035.141.508.397.486.512m-.511.093c-.022-.164.56-.375.644-.486m-.508.923c-.079-.194.354-.49.393-.631m-.517.242c.066-.066.45.062.481.256m.036-.432c.044.026.167-.009.203.052m-.234.195l.38.053m-.332.278c-.026-.098.221-.296.367-.226m-.243.468c-.031-.097.181-.458.313-.428m-.097.597c-.07-.044.142-.552.305-.557m-.035.632c-.08-.009.086-.636.271-.636m-.059.649c-.11-.004.04-.642.251-.656m-.009.665c-.115-.004.004-.667.19-.662m-.026.679c-.106-.031.088-.686.234-.653m-.106.702c-.093-.093.199-.684.305-.627m-.274.68c-.018-.062.419-.601.486-.503m-.495.595c.026-.084.649-.327.671-.229m-.72.309c.053-.07.777-.141.75 0m-.794.062c.049-.053.799.031.729.141m-.768-.057c.154 0 .715.15.649.216m-.641-.102c.243.026.552.172.477.238m-2.11-1.248c.044.084.291-.026.379-.048m-.176.3c.062.057.226.004.314-.044m.758-3.042c-.008-.106.15-.238.261-.27m.128.216c-.088-.026-.419-.11-.49-.199m.084-.251c.062-.066.221-.238.292-.203m-.076.358c.075-.093.221-.27.296-.194m-.172.357c.093-.092.292-.243.349-.167m-.274.317c.124-.097.357-.216.384-.101m-.322.3c.154-.083.344-.194.331-.106m-.327.291c.132-.062.287-.128.251-.062m-.273.221l.159-.04m-1.245-1.461l-.574.635m-.242-.039c-.093-.062.243-.534.441-.556m-.706.132c0-.137.305-.282.485-.265m-.004.018c-.146.031-.296.384-.058.71m.115-.608c-.084.146.234.463.37.53m-.48 5.151c.079.106.556-.137.688-.252m-.233-.264c.088.053-.197.741-.004.746m-.169-.923c.097.26-.366.556-.309.662m.199-.971c.035.128-.397.525-.335.688m.043-1.253c.084.066-.282.512-.194.711m-.295-.318c.097.075.653-.203.737.018m-.332.67c.018.098.42.12.711-.008m-.803-.327c.048.124.34.238.569.101m-.618-.957c-.079-.04-.433.384-.34.45m-.273-.238c-.084-.106.291-.45.375-.375m-.521.087c-.048-.168.419-.327.455-.229m-.446-.133c.04-.158.477-.203.455-.022m-.354-.308c.066-.19.508-.075.455.044m-.379-.278c.022-.142.451-.194.446-.009m-.446-.239c-.026-.146.362-.291.415-.11m-.491-.031c-.106-.132.305-.375.379-.265m-.463.194c-.124-.079.133-.503.239-.423m.64-2.314c-.074-.128.153-.71.221-.715-.021.001-.16.105-.152.002.009-.093.198-.195.157-.051" stroke="#000" stroke-width=".125" fill="none"/></svg>