<svg xmlns="http://www.w3.org/2000/svg" width="64" height="48"><path fill="#fff" d="M0 .005h64v47.99h-64z"/><path fill="#E40520" d="M0 19.201h27.205v-19.201h9.591v19.201h27.204v9.598h-27.204v19.201h-9.591v-19.201h-27.205z"/><g stroke="#000" stroke-width=".283"><path fill="#fff" d="M32 36.573l3.648-6.254h7.209l-3.579-6.319 3.579-6.319h-7.209l-3.648-6.254-3.649 6.254h-7.209l3.58 6.319-3.58 6.319h7.209z"/><path fill="#E40520" d="M33.922 26.999c.277-.279.723-.589.97-1.262.231-.63.734-1.367 1.237-1.856.504-.489 1.18-1.036.69-1.482-.564-.515-1.554.647-1.827.921-.211.212-.51.244-.82.401.173-1.525-.157-2.674-.201-4.919-.018-.95-.259-1.584-.69-1.575-.361.008-.52.272-.576.631 0-.518-.014-1.357-.618-1.357-.734 0-.774 1.33-.694 2.086-.029-.46-.026-1.396-.659-1.396-.662 0-.72 1.065-.633 2.015l.027.638c0-.518-.1-1.329-.603-1.329-.46 0-.518.691-.489 1.295.029.604.072 2.045 0 2.446-.144.806-.072 2.874-.029 3.482.058.806.748 1.094.72 1.641-.029.547 0 1.511 0 1.942 0 .431.365.454 1.122.287 1.237-.273 1.913.273 2.935-.129-.13-1.195.167-2.048.138-2.48z"/><path d="M33.28 24.888c.256-.725.579-1.009.892-1.167m-.488 3.672c.022-.148.112-.267.238-.394m-3.794-7.156c.018.641.03 1.542.03 1.837m2.546-3.822c-.053.336-.016.756.03 1.117.028.23.068.649.028 1.166-.014.187.13.863.015 1.208m-1.384-2.762c.086.748.003 2.144.032 2.863" fill="none"/><path fill="#E40520" d="M32 8.06c.732-.922 2.686-.813 3.282-.244.597.57 2.359-.19 3.064 1.221l-1.112 2.685h-10.469l-1.112-2.685c.705-1.411 2.468-.651 3.065-1.221.597-.569 2.55-.678 3.282.244z"/><path d="M32 7.036c.344 0 .622.159.622-.586s-.278-.586-.622-.586-.622-.159-.622.586.278.586.622.586zm.39-3.265c.294.03.606.159.817.301v-1.383c-.21.143-.522.271-.817.301.03-.294.159-.606.302-.816h-1.384c.143.21.271.522.301.816-.294-.03-.606-.159-.816-.301v1.383c.21-.143.522-.271.816-.301-.03.294-.159 1.068-.301 1.278h1.384c-.143-.21-.272-.983-.302-1.278zm-.39 3.991c.298 0 .697.434.409 1.031.999-.414.8 1.228 0 .705-.066.502.542.94 1.141 1.048.878.159 1.327-.57 1.259-.739-.845.188-.659-1.258.244-.762-.121-.346.058-.685.5-.714.407.177.462.556.23.841 1.018-.163.706 1.261-.026.8-.122.136-.068.692.583.936.538.202 1.071-.136 1.099-.542-.339-.055-.524-.377-.339-.692.189-.325.597-.19.691-.014.014-.501-.149-.773.026-1.18.204.149.611.501.801.651.204.16.061.373-.346.861.237.292-.129.739-.387.63-.136.407-.217.922-.461.936.027.379-.048 1.193-.319 1.654.583.285.089 1.261-.318 1.085-.735-.317-2.942-.487-4.787-.487-1.844 0-4.052.17-4.787.488-.407.176-.902-.8-.319-1.085-.271-.461-.346-1.275-.319-1.654-.244-.014-.325-.529-.461-.936-.258.108-.624-.339-.387-.63-.407-.488-.549-.701-.346-.861.19-.149.597-.501.8-.651.176.407.014.678.027 1.18.095-.176.502-.312.692.014.184.315 0 .637-.339.691.027.407.56.745 1.098.542.651-.244.705-.8.583-.936-.732.461-1.044-.963-.027-.8-.23-.285-.176-.665.23-.841.442.029.622.368.5.714.903-.496 1.089.95.245.762-.069.169.38.897 1.258.739.6-.108 1.208-.546 1.141-1.048-.799.522-.999-1.119 0-.705-.286-.597.113-1.031.411-1.031zm0-.947c-.878 0-.878 1.198 0 1.198s.891-1.198 0-1.198zm0-1.251c2.686 0 5.771 1.668 7.018 2.808.347.332-.142 1.044-.465.752-1.219-1.139-3.931-2.664-6.553-2.664-2.623 0-5.334 1.525-6.553 2.665-.323.292-.811-.42-.465-.752 1.247-1.14 4.333-2.809 7.018-2.809z" fill="#FFED00"/><path d="M28.84 11.489c-.9.158-.732 1.114.167.957s.746-1.116-.167-.957zm3.16.747c.551 0 .997.125.997-.46s-.446-.46-.997-.46-.998-.125-.998.46.447.46.998.46zm-4.706-.026c-.478.513-.737.888-.869.215-.132-.674.276-.401.869-.215zm7.865-.721c.9.158.732 1.114-.167.957-.9-.158-.745-1.116.167-.957zm1.547.721c.478.513.737.888.869.215.132-.674-.276-.401-.869-.215z" fill="#E40520"/><path d="M37.425 11.559c-.841-.353-3.689-.706-5.425-.706-1.736 0-4.584.353-5.425.706m10.53 1.654c-.72-.352-3.261-.569-5.105-.569-1.844 0-4.386.218-5.106.569" fill="none"/><path d="M25.002 7.395c-.926-.007-.936 1.373-.01 1.38.926.006.949-1.374.01-1.38zm1.227-.887c-.926-.006-.937 1.374-.01 1.38s.949-1.373.01-1.38zm1.334-.669c-.926-.006-.937 1.374-.01 1.381s.949-1.374.01-1.381zm1.387-.559c-.926-.007-.936 1.374-.01 1.38.927.007.95-1.373.01-1.38zm1.414-.424c-.926-.007-.936 1.374-.01 1.38.926.008.949-1.373.01-1.38zm1.636-.362c-1.137 0-1.137 1.694 0 1.694s1.153-1.694 0-1.694zm6.998 2.901c.926-.007.937 1.373.01 1.38-.926.006-.949-1.374-.01-1.38zm-1.227-.887c.927-.006.937 1.374.011 1.38-.928.007-.95-1.373-.011-1.38zm-1.333-.669c.926-.006.936 1.374.01 1.381-.927.007-.95-1.374-.01-1.381zm-1.388-.559c.926-.007.936 1.374.01 1.38-.926.007-.95-1.373-.01-1.38zm-1.414-.424c.927-.007.937 1.374.011 1.38-.927.008-.95-1.373-.011-1.38z" fill="#fff"/></g></svg>