<svg xmlns="http://www.w3.org/2000/svg" width="64" height="48"><path fill="#fff" d="M0 0h64v48h-64z"/><path fill="#003361" d="M53 24h-24l23 24h-40v-48z"/><path fill="#DC2F34" d="M45.087 21.648h-21.458l23.371 24.352h-33v-42z"/><g fill="#fff"><path d="M22.316 41.108l1.179-2.701 2.409 1.729-.269-2.913 2.903.269-1.701-2.395 2.668-1.206-2.668-1.206 1.701-2.396-2.903.269.269-2.913-2.409 1.729-1.179-2.701-1.18 2.701-2.409-1.729.268 2.913-2.902-.269 1.7 2.396-2.668 1.206 2.668 1.206-1.7 2.395 2.902-.269-.268 2.913 2.409-1.729zM19.248 17.515l.27-.565-1.659-.714 1.781-.419-1.198-1.31 1.785.317-.545-1.688 1.493 1.006.213-1.762.927 1.512.926-1.512.213 1.762 1.493-1.006-.545 1.688 1.786-.317-1.199 1.31 1.781.419-1.659.714.269.562c1.788-.849 3.172-2.418 3.782-4.333.019.208.027.414.027.626 0 3.811-3.078 6.901-6.875 6.901s-6.875-3.09-6.875-6.901c0-.201.014-.398.031-.595.615 1.902 1.996 3.461 3.778 4.305z"/></g></svg>