<svg xmlns="http://www.w3.org/2000/svg" width="64" height="48"><g fill="#003671"><path d="M0 0h64v48h-64zM31.998 23.996"/></g><path fill="#fff" d="M0 7.997h7.182l-7.182-5.08v-2.917h4.109l10.045 7.06v-7.06h5.656v7.06l10.046-7.06h4.144v2.917l-7.216 5.08h7.216v8.005h-7.216l7.216 5.081v2.917h-4.144l-10.046-7.062v7.062h-5.656v-7.062l-10.045 7.062h-4.109v-2.917l7.182-5.081h-7.182z"/><g fill="#DC2F34"><path d="M31.328 0l-11.349 8.003h2.717l11.304-8.003zM34 24l-11.316-7.998h2.728l8.588 6.092zM11.371 8.003l-11.371-8.003v1.911l8.63 6.092zM11.347 16.002l-11.347 7.998h2.716l11.348-7.998z"/></g><g fill="#fff"><path d="M50.455 11.093l-.714 2.217h-2.345l1.905 1.379-.733 2.215 1.887-1.376 1.886 1.376-.722-2.234 1.896-1.351h-2.337zM41.294 20.297l-.714 2.217h-2.346l1.906 1.379-.733 2.215 1.887-1.376 1.886 1.376-.722-2.233 1.896-1.352h-2.337zM58.34 18.159l-.652 2.028h-2.148l1.743 1.262-.669 2.027 1.726-1.259 1.725 1.259-.66-2.044 1.735-1.236h-2.139zM50.451 34.553l-.798 2.479h-2.624l2.131 1.543-.818 2.478 2.109-1.539 2.111 1.539-.809-2.498 2.12-1.512h-2.613z"/></g><g fill="#E40520"><path d="M50.455 12.177l-.461 1.432h-1.515l1.23.891-.473 1.431 1.219-.889 1.219.889-.467-1.443 1.225-.873h-1.51zM41.294 21.381l-.461 1.432h-1.516l1.231.891-.473 1.431 1.219-.889 1.219.889-.467-1.443 1.225-.873h-1.51zM58.34 19.359l-.389 1.208h-1.277l1.037.751-.399 1.207 1.028-.75 1.027.75-.393-1.217 1.033-.736h-1.274zM50.451 35.719l-.538 1.672h-1.768l1.436 1.04-.552 1.671 1.422-1.039 1.423 1.039-.545-1.685 1.43-1.02h-1.763z"/></g><path fill="#DC2F34" d="M15 0h4v24h-4zM0 10h34v4h-34z"/></svg>