<svg xmlns="http://www.w3.org/2000/svg" width="64" height="48"><path fill="#fff" d="M0 12h64v24h-64z"/><g fill="#E40520"><path d="M0 0h64v12h-64zM0 36h64v12h-64z"/></g><path d="M29.432 26.285l-.896.821c.811.225 1.934-.036 2.381-.821h-1.485zm-7.395.528c.607.597 1.611.527 2.218.149s1.052-.401 1.43-.362c.04.337.13.769.283 1.195h-3.597c-.09-.218-.264-.728-.334-.982zm.608 1.602c.705-.328 1.427-.068 1.739.168.577.438 1.529.319 1.997.071.178.286.395.567.656.783h-3.849c-.156-.249-.495-.859-.543-1.022zm16.951 2.605c.169-.169.398-.447.547-.646-.248-.03-.537-.207-.845-.357-.566-.278-1.108-.278-1.591.05-.716.486-1.61.605-2.307.119-.764-.535-1.472-.418-2.068-.08s-.974.357-1.332.357-.735-.021-1.332-.358-1.305-.455-2.068.08c-.696.486-1.591.367-2.307-.119-.482-.328-1.024-.328-1.591-.05-.308.15-.597.327-.845.357.148.199.377.478.547.646h15.192zm-1.899 1.62c.159-.099.597-.427.815-.596-.239.049-.783-.125-1.064-.269-.815-.418-1.352-.378-1.958-.06-.606.317-1.462.486-2.089.148-.626-.338-1.073-.428-1.401-.428s-.775.09-1.401.428c-.627.338-1.482.169-2.089-.148-.606-.318-1.143-.358-1.958.06-.281.144-.825.317-1.064.269.219.169.656.497.815.596h11.394zm-3.718-3.202c-.169-.09-.366-.298-.547-.565-.288-.428-.745-.666-1.432-.666s-1.144.238-1.432.666c-.181.268-.378.476-.547.565h3.958zm-1.064-1.6c-.07-.119-.219-.497-.269-.696-.159.05-.468.07-.646.07s-.487-.021-.646-.07c-.05.199-.198.577-.269.696h1.83zm1.653-1.553l.896.821c-.811.225-1.934-.036-2.381-.821h1.485zm7.394.528c-.605.597-1.61.527-2.217.149s-1.053-.401-1.43-.362c-.041.337-.13.769-.283 1.195h3.598c.089-.218.263-.728.332-.982zm-.606 1.602c-.706-.328-1.428-.068-1.74.168-.577.438-1.529.319-1.997.071-.178.286-.395.567-.656.783h3.849c.156-.249.494-.859.544-1.022zm-5.449 5.17c-1.205.492-2.524.764-3.907.764-1.384 0-2.702-.271-3.909-.764.258-.03.601-.155.877-.309.447-.248 1.263-.299 1.65-.05s.854.497 1.382.497.994-.248 1.382-.497 1.203-.198 1.65.05c.277.154.617.28.875.309" fill="#004996"/><g fill="#5A4330"><path d="M34.028 13.849c-2.178-.447-4.137-.189-4.137 1.859v5.607c0 .617.013.694.746.865 1.591.37 1.74.407 3.47.806v-5.767c-1.352-.149-1.869-.908-1.869-1.79 0-.854.597-1.411 1.79-1.58zm-5.388 15.718c-1.213 0-2.485-1.054-2.485-3.062v-4.992c0-.452.051-.516-.055-.621-.062-.062.069-.154.158-.244.135-.134.227-.246.045-.428-.182-.181-.104-.229.01-.343.115-.114.159-.229.05-.338-.109-.109-.134-.144-.015-.263s.069-.169-.029-.269c-.1-.099-.147-.171-.021-.298.124-.124.134-.144.278-.144h.597s.142.042.024.159c-.151.151-.196.211-.024.383s.164.229.055.338c-.164.164-.236.276-.069.442.166.167.182.241.055.368-.127.126-.14.238 0 .377.106.107.114.169.114.358v5.096c0 .855.616 1.372 1.789 1.372 1.174 0 1.571-.478 1.909-.795-.219 1.533-.855 2.904-2.386 2.904zm3.36-4.901c.164.05.323.288.323.547h.323c0-.219-.095-.557-.267-.766l-.021-.149c.119-.148.293-.388.288-.616-.003-.145-.174-.139-.194-.024-.016.094-.079.238-.198.288 0-.184-.104-.402-.254-.402s-.254.219-.254.402c-.119-.05-.183-.194-.198-.288-.021-.114-.191-.12-.194.024-.005.229.169.468.288.616l-.021.149c-.172.209-.267.547-.267.766h.323c0-.259.159-.497.323-.547zm-1.671 0c.164.05.324.288.324.547h.322c0-.219-.094-.557-.266-.766l-.022-.149c.119-.148.294-.388.288-.616-.003-.145-.174-.139-.193-.024-.017.094-.08.238-.199.288 0-.184-.104-.402-.254-.402-.148 0-.253.219-.253.402-.119-.05-.183-.194-.199-.288-.02-.114-.19-.12-.193.024-.005.229.169.468.288.616l-.022.149c-.171.209-.266.547-.266.766h.323c0-.259.158-.497.322-.547zm-1.67 0c.164.05.323.288.323.547h.323c0-.219-.095-.557-.266-.766l-.022-.149c.119-.148.293-.388.288-.616-.003-.145-.174-.139-.194-.024-.016.094-.079.238-.198.288 0-.184-.104-.402-.254-.402s-.254.219-.254.402c-.119-.05-.182-.194-.198-.288-.021-.114-.191-.12-.194.024-.005.229.17.468.289.616l-.022.149c-.172.209-.267.547-.267.766h.323c0-.259.159-.497.323-.547zm5.012 0c-.164.05-.324.288-.324.547h-.322c0-.219.094-.557.266-.766l.022-.149c-.119-.148-.294-.388-.288-.616.003-.145.174-.139.193-.024.017.094.08.238.199.288 0-.184.104-.402.254-.402.148 0 .253.219.253.402.119-.05.183-.194.199-.288.02-.114.19-.12.193.024.005.229-.169.468-.288.616l.022.149c.171.209.266.547.266.766h-.323c0-.259-.158-.497-.322-.547zm1.67 0c-.164.05-.323.288-.323.547h-.323c0-.219.095-.557.266-.766l.022-.149c-.119-.148-.293-.388-.288-.616.003-.145.174-.139.194-.024.016.094.079.238.198.288 0-.184.104-.402.254-.402s.254.219.254.402c.119-.05.182-.194.198-.288.021-.114.19-.12.194.024.005.229-.17.468-.289.616l.022.149c.172.209.267.547.267.766h-.323c0-.259-.159-.497-.323-.547zM27.625 25.61h8.75v.398h-8.75zM35.36 29.567c1.213 0 2.486-1.054 2.486-3.062v-4.992c0-.452-.051-.516.055-.621.062-.062-.07-.154-.159-.244-.135-.134-.227-.246-.045-.428.182-.181.104-.229-.01-.343s-.159-.229-.05-.338c.109-.109.134-.144.015-.263s-.069-.169.03-.269c.099-.099.146-.171.02-.298-.124-.124-.135-.144-.278-.144h-.597c-.14 0-.142.042-.025.159.152.151.197.211.025.383s-.164.229-.055.338c.164.164.236.276.069.442-.166.167-.182.241-.055.368.127.126.14.238 0 .377-.106.107-.114.169-.114.358v5.096c0 .855-.616 1.372-1.789 1.372-1.174 0-1.571-.478-1.909-.795.219 1.533.855 2.904 2.386 2.904z"/></g><g fill="#F8AB10"><path d="M32 24m-4.315-1.054l.001-.657 1.749.657h-1.75m-2.029.199l-3.913-.527c.113-.838.328-1.656.638-2.435l3.275 1.3v1.662zm8.094-6.343l.696-2.857c.813.197 1.605.495 2.355.887l-2.244 4.295.008-2.157c-.258.001-.656-.039-.815-.168zm-8.094 6.813l-3.986-.242c-.051.836 0 1.68.153 2.512 0 0 3.833.024 3.833 0v-2.27zm0-2.697c-.129-.169-.049-.259.09-.349.14-.089.119-.159.05-.288-.069-.129-.14-.269-.01-.408.129-.139.079-.199-.021-.298-.099-.1-.109-.209-.02-.289s.069-.139.01-.219-.177-.241-.072-.345l-1.626-1.358c-.537.643-.997 1.352-1.367 2.113l2.966 1.441zm3.779.589l-1.938-1.879c.273-.273.301-.318.106-.512-.211-.211-.219-.233.212-.664.146-.146.064-.249-.145-.249h-1.277s-.195.005-.275.085l-1.546-1.496c.59-.607 1.249-1.137 1.96-1.579l2.903 4.668v1.626zm-1.75.396v-.995c0-.139-.01-.194-.119-.303s-.055-.162.03-.281l1.839 1.532v.899l-1.75-.852zm1.75-2.798v-2.205c0-1.432.08-2.147.289-2.292l-.167-.688c-.816.22-1.608.517-2.358.909l2.236 4.276zm6.88 3.841l-.001-.657-1.749.657h1.75"/><path d="M38.343 23.145l3.914-.527c-.113-.838-.328-1.656-.638-2.435l-3.276 1.3v1.662zm0 .47l3.987-.242c.051.836 0 1.68-.153 2.512 0 0-3.834.024-3.834 0v-2.27zm.001-2.697c.129-.169.05-.259-.09-.349s-.119-.159-.05-.288c.069-.129.139-.269.01-.408s-.079-.199.021-.298c.099-.1.108-.209.02-.289-.09-.08-.069-.139-.01-.219s.177-.241.072-.345l1.626-1.358c.537.643.997 1.352 1.367 2.113l-2.966 1.441zm-3.779.589l1.938-1.879c-.273-.273-.301-.318-.106-.512.211-.211.219-.233-.212-.664-.146-.146-.064-.249.145-.249h1.277s.195.005.275.085l1.546-1.496c-.59-.607-1.249-1.137-1.96-1.579l-2.903 4.668v1.626zm1.75.396v-.995c0-.139.01-.194.119-.303s.055-.162-.03-.281l-1.839 1.532v.899l1.75-.852z"/></g><path d="M26.393 20.908c.069.07.1.139.1.309v5.319c0 1.771 1.073 2.754 2.177 2.754 1.015 0 1.681-.925 2.028-1.998-.447.348-1.104.457-1.729.457-.727 0-1.899-.487-1.899-1.541v-5.16c-.002-.14-.14-.14-.677-.14zm6.457-6.979c-1.387-.14-2.673.148-2.673 2.04v5.025c0 .839-.066.739.646.916 1.29.32 1.437.361 3.001.718v-5.112c-1.336-.146-1.915-1.021-1.915-1.99-.001-.773.34-1.498.941-1.597zm4.757 6.979c-.069.07-.1.139-.1.309v5.319c0 1.771-1.073 2.754-2.177 2.754-1.015 0-1.681-.925-2.028-1.998.447.348 1.104.457 1.729.457.727 0 1.899-.487 1.899-1.541v-5.16c.002-.14.14-.14.677-.14z" fill="#E40520"/></svg>