<svg xmlns="http://www.w3.org/2000/svg" width="64" height="48"><path fill="#13110C" d="M0 0h64v48h-64z"/><path fill="#CC151A" d="M0 0h64v48l-64-48z"/><path fill="#FDD300" d="M39.624 13.946c-.473.61-1.592-.614-2.932-.642-1.34-.028-2.289 1.284-2.68 1.731-.391.446-1.647 2.792-1.619 3.042.027.251.781-.698 1.061-.865.028.335-.307.726-.224.837.084.112.978-.67 1.284-.698.084.223-.167.447-.083.782.111.111.613-.559.949-.698.056.251-.308.726-.112 1.033.14.028.978-.949 1.257-1.061.278-.112-.14.921 0 1.005.251-.167 1.032-1.061 1.284-1.172.251-.111-.028 1.145.083 1.145.308-.223 1.089-1.284 1.173-1.452s-.084 1.619.781 2.568c.866.949 2.178 2.038 2.317 2.038.168-.307-.056-.949.084-.921.391.419 1.116 1.033 1.284 1.033.167 0-.112-.67.111-.67.447.419 1.731 2.066 4.243 2.82-.167-.475-.53-.894-.558-1.117.167.028.753.307.865.279.111-.028-1.229-1.675-1.145-1.898.307-.028.446.167.558.028-.139-.223-1.312-1.535-1.312-1.842s.363.056.475 0c.111-.056-.446-1.229-.335-1.368s1.34.754 1.646.754c.308 0 .084-1.089.224-1.145.14-.056 1.173.586 1.396.586.224 0 .196-.475.279-.418.084.056 2.513 2.484 1.676 5.332-.838 2.038-2.513 3.127-4.97 2.233.14.224 1.452 1.312 2.876.921 1.423-.391 3.154-1.507 2.959-4.299s-1.117-3.183-1.257-3.602c-.14-.418.224.112.53.224.308.112-.056-.586-.139-.894-.084-.307.921.642 1.172.726.251.083-.586-2.289-.837-2.457-.252-.168.251.056.418.111.168.056-1.535-2.596-1.898-2.596-.362 0 .308-.14.503-.14s-1.954-1.731-2.317-1.731c-.362 0 .782-.446.894-.475.195.028-2.484-1.424-4.886.028-.14-.112 1.131-.991 1.173-1.368.014-.098-.419-.307-.446-.418-.028-.112.67-.447.697-.698-.167-.223-.475-.14-.642-.195-.042-.209.586-.726.53-.949-.042-.125-.503-.167-.614-.083-.111.083.293-.586.224-.782-.056-.083-.279-.028-.503.028-.14-.028.727-1.229.559-1.396s-2.513 1.229-3.378 2.792c-.865 1.563-.195 2.819-.307 3.35-.112.53-.252 1.061-.614 1.061-.363 0-1.201-.558-1.479-.837-.279-.279-.335-.475-.727-.586-.391-.111-1.284.224-1.619.251s-1.646-.251-1.73-.167c-.084.083 1.284.586 1.591.754.308.167.336.391.559.53.224.139 2.318.753 1.648 1.618zm8.18 3.936c.67.67 5.192 3.685 5.192 7.37 0 3.686-3.295 3.574-4.244 3.462 1.062.894 5.081.726 5.081-3.462 0-3.685-5.192-7.37-5.862-7.705s-.838-.335-.167.335z"/><g fill="#fff"><path d="M16.035 36.917l.699 2.403h2.419l-1.909 1.469.7 2.336-1.909-1.469-1.909 1.403.7-2.27-1.909-1.469h2.354zM19.309 31.812l.35 1.202h1.209l-.954.734.35 1.169-.955-.734-.955.7.35-1.135-.954-.734h1.178zM16.035 14.875l.699 2.403h2.419l-1.909 1.469.7 2.336-1.909-1.468-1.909 1.402.7-2.27-1.909-1.469h2.354zM23.987 22.942l.699 2.404h2.419l-1.909 1.468.7 2.336-1.909-1.468-1.909 1.402.699-2.27-1.909-1.468h2.355zM7.487 22.359l.699 2.404h2.419l-1.909 1.468.7 2.336-1.909-1.468-1.909 1.402.699-2.27-1.909-1.468h2.355z"/></g></svg>