<svg xmlns="http://www.w3.org/2000/svg" width="64" height="48"><path fill="#003361" d="M0 0h64v24.001h-64z"/><path fill="#D32E3F" d="M0 24.001h64v23.999h-64z"/><path fill="#fff" d="M0 0l40.808 24.001-40.808 23.999z"/><path fill="#FFD139" d="M16.072 19.351c.454.113.896.299 1.309.547l2.479-3.163.716.144-2.811 3.279.297.235 3.409-3.647.593.113.113.593-3.647 3.408.235.297 3.28-2.811.143.716-3.158 2.478c.241.401.43.838.545 1.304l3.99-.483.405.608-4.307.331.044.377 4.988-.169.34.499-.34.5-4.988-.169-.044.376 4.307.332-.405.607-3.996-.492c-.113.455-.299.887-.547 1.298l3.163 2.48-.144.716-3.279-2.811-.235.297 3.647 3.408-.113.593-.594.113-3.407-3.645-.297.235 2.811 3.279-.716.144-2.478-3.159c-.401.241-.839.43-1.305.546l.483 3.99-.608.405-.331-4.306-.376.043.168 4.989-.499.339-.499-.339.168-4.989-.376-.043-.332 4.306-.607-.404.481-3.996c-.454-.113-.896-.3-1.308-.547l-2.48 3.163-.716-.144 2.811-3.279-.297-.236-3.408 3.647-.593-.113-.113-.593 3.646-3.409-.235-.296-3.279 2.811-.144-.717 3.159-2.478c-.241-.4-.43-.838-.546-1.305l-3.99.483-.405-.607 4.307-.332-.043-.376-4.99.168-.339-.499.339-.499 4.989.169.043-.377-4.307-.331.405-.608 3.996.492c.113-.454.3-.886.547-1.297l-3.163-2.48.144-.716 3.279 2.811.235-.297-3.646-3.409.113-.593.593-.113 3.408 3.647.297-.235-2.811-3.28.717-.143 2.478 3.159c.4-.241.838-.43 1.304-.545l-.482-3.99.607-.405.332 4.307.376-.043-.169-4.989.5-.339.499.339-.169 4.989.377.043.331-4.307.608.405-.482 3.995z"/><g fill="#FFD139"><path d="M36.011 24.001l-1.835-.591v-1.942l-1.143 1.577-1.833-.606 1.14 1.562-1.14 1.561 1.849-.597 1.119 1.569v-1.934zM2.41 4.146l.411 1.884-1.678.976 1.937.195.398 1.89.777-1.77 1.923.2-1.447-1.298.795-1.756-1.672.972zM2.41 43.854l.411-1.884-1.678-.976 1.937-.195.398-1.89.777 1.77 1.923-.2-1.447 1.297.795 1.756-1.672-.971z"/></g></svg>