<svg xmlns="http://www.w3.org/2000/svg" width="64" height="48"><path fill="#fff" d="M0 0h64v48h-64z"/><path fill="#009640" d="M16 0v48h48v-48h-48z"/><g fill="#fff"><path d="M44.316 31.85c-6.295 0-11.4-5.104-11.4-11.4 0-6.297 5.105-11.4 11.4-11.4.654 0 1.285.086 1.908.191-1.914-.808-4.018-1.256-6.227-1.256-8.842 0-16.012 7.171-16.012 16.016 0 8.844 7.17 16.016 16.012 16.016 8.846 0 16.016-7.172 16.016-16.016 0-1.108-.113-2.19-.328-3.235-.169 6.145-5.179 11.084-11.369 11.084zM49.221 13.874l-3.352-3.97.428 5.19-4.877 2.034 5.211 1.299.408 5.337 2.723-4.528 5.131 1.252-3.485-4.053 2.707-4.603z"/></g></svg>