<svg xmlns="http://www.w3.org/2000/svg" width="64" height="48"><path fill="#fff" d="M0 16h18.814v16h-18.814z"/><path fill="#010202" d="M18.317 24.083c-.047.059-.1.169-.11.239l-.092.288c-.092.214-.089.395.011.55.124.195.333.192.432-.004.092-.181.067-.436-.057-.627-.109-.166-.124-.317-.053-.491.046-.1-.036-.073-.131.045zm.439 1.17l-.166.118c-.198.269.251.564.577.384.351-.199.361-.203.527-.145.142.048.149.048.121-.011-.057-.111-.146-.162-.489-.284-.392-.136-.407-.136-.57-.062zm-1.353.088c-.163.114-.337.141-.464.07-.1-.056-.11-.022-.028.089.042.056.138.114.223.137l.315.11c.213.093.404.093.549 0 .294-.185.11-.517-.283-.517-.113 0-.198.03-.312.111zm.854.402l-.035.251c-.008.661-.259 1.284-.733 1.823l-.188.232c0 .037.531.026.602-.015.064-.033.071-.022.093.107.028.177.123.347.24.428.074.052.103.056.185.011.142-.069.233-.221.251-.413.018-.144.032-.17.078-.144.032.015.191.033.354.04l.297.015-.155-.191c-.294-.361-.39-.498-.507-.738-.163-.328-.23-.587-.259-.978-.01-.185-.035-.369-.049-.417-.036-.099-.124-.107-.174-.011zm-12.039-1.636c-.046.06-.099.17-.11.24l-.092.288c-.092.214-.088.395.011.55.124.195.333.191.432-.004.092-.181.067-.436-.057-.627-.11-.166-.124-.317-.053-.491.046-.099-.036-.074-.131.044zm.439 1.17l-.167.118c-.198.27.251.564.577.384.351-.199.361-.203.528-.144.142.048.149.048.121-.011-.057-.111-.146-.163-.489-.284-.393-.136-.407-.136-.57-.063zm-1.353.089c-.163.114-.336.141-.464.07-.099-.056-.11-.022-.028.089.042.055.138.114.223.136l.315.111c.212.092.404.092.549 0 .294-.185.11-.517-.283-.517-.114.001-.199.03-.312.111zm.853.403l-.035.251c-.007.66-.259 1.284-.733 1.823l-.188.232c0 .037.531.025.602-.015.064-.033.071-.022.092.106.028.178.124.348.241.429.074.052.103.055.184.011.142-.07.234-.222.251-.413.018-.145.032-.17.078-.145.032.016.191.033.354.041l.297.015-.156-.191c-.294-.362-.39-.499-.506-.738-.163-.329-.23-.587-.259-.979-.01-.185-.035-.369-.049-.417-.035-.099-.123-.106-.173-.01zm6.048-1.676c-.047.06-.1.17-.11.24l-.092.288c-.092.214-.089.395.011.55.124.195.333.191.432-.004.092-.181.067-.436-.057-.628-.109-.166-.124-.317-.053-.49.046-.1-.036-.074-.131.044zm.439 1.17l-.166.118c-.198.27.251.564.577.384.351-.199.361-.203.527-.144.142.048.149.048.121-.012-.057-.11-.146-.162-.489-.284-.393-.137-.407-.137-.57-.062zm-1.353.089c-.163.114-.337.14-.464.07-.1-.056-.11-.022-.028.088.042.056.138.114.223.137l.315.111c.213.092.404.092.549 0 .294-.185.11-.518-.283-.518-.114 0-.199.031-.312.112zm.854.402l-.035.251c-.008.66-.259 1.284-.733 1.823l-.188.232c0 .036.531.025.602-.015.064-.033.071-.022.093.106.028.178.123.347.24.429.074.051.103.055.185.011.142-.07.233-.222.251-.413.018-.145.032-.17.078-.145.032.015.191.033.354.041l.297.015-.155-.192c-.294-.361-.39-.498-.507-.737-.163-.329-.23-.587-.259-.979-.01-.185-.035-.369-.049-.417-.037-.099-.125-.107-.174-.01zm-11.792-1.671c-.046.059-.099.169-.109.239l-.092.288c-.092.214-.088.395.011.55.124.195.333.192.432-.004.092-.181.067-.436-.057-.627-.11-.166-.124-.317-.053-.491.045-.1-.037-.073-.132.045zm.439 1.17l-.167.118c-.198.269.251.564.577.384.351-.199.361-.203.528-.145.142.048.148.048.12-.011-.057-.111-.145-.162-.489-.284-.392-.136-.406-.136-.569-.062zm17.381-9.866l-.036.251c-.007.661-.258 1.284-.732 1.823l-.188.232c0 .037.531.026.602-.015.063-.033.071-.022.092.107.028.177.124.347.241.428.074.052.103.056.185.011.142-.07.233-.221.251-.413.018-.144.032-.17.078-.144.031.015.191.033.354.041l.298.015-.155-.192c-.295-.361-.39-.498-.507-.738-.163-.329-.23-.587-.259-.978-.011-.185-.035-.369-.05-.417-.036-.1-.124-.107-.174-.011zm-12.1.025l-.036.251c-.007.661-.258 1.285-.733 1.823l-.188.232c0 .037.531.026.602-.015.063-.033.071-.022.092.107.028.177.124.347.241.428.075.052.103.055.185.011.142-.07.233-.222.251-.414.018-.144.032-.17.078-.144.032.015.191.033.354.041l.298.015-.156-.192c-.294-.362-.39-.499-.507-.738-.163-.329-.23-.587-.258-.978-.011-.185-.036-.369-.05-.417-.035-.099-.123-.106-.173-.01zm5.988-.015l-.036.251c-.007.661-.258 1.284-.732 1.823l-.188.232c0 .037.531.026.602-.015.063-.033.071-.022.092.107.028.177.124.347.241.428.074.052.103.056.185.011.142-.07.233-.221.251-.413.018-.144.032-.17.078-.144.031.015.191.033.354.041l.298.015-.156-.192c-.293-.362-.389-.498-.506-.738-.163-.329-.23-.587-.259-.978-.011-.185-.035-.369-.05-.417-.037-.1-.125-.107-.174-.011zm-11.788-.01l-.035.251c-.004.33-.095.706-.218 1.012.009.471.022.677-.009 1.136.028.177.124.347.241.428.074.052.103.056.184.011.142-.07.234-.221.251-.413.018-.144.032-.17.078-.144.032.015.191.033.354.041l.297.015-.156-.192c-.294-.361-.39-.498-.506-.738-.163-.329-.23-.587-.259-.978-.011-.185-.035-.369-.049-.417-.035-.101-.123-.108-.173-.012zm15.028 14.049c-.047.059-.1.169-.11.239l-.092.288c-.092.214-.089.395.011.55.124.195.333.192.432-.004.092-.181.067-.436-.057-.627-.109-.166-.124-.317-.053-.491.046-.1-.036-.074-.131.045zm.438 1.169l-.166.118c-.198.269.251.564.577.384.351-.2.361-.203.527-.145.142.048.149.048.121-.011-.057-.111-.146-.162-.489-.284-.392-.136-.407-.136-.57-.062zm-1.352.088c-.163.114-.337.141-.464.07-.1-.056-.11-.022-.028.089.042.055.138.114.223.137l.315.11c.213.092.403.092.549 0 .294-.185.11-.517-.283-.517-.114.001-.199.03-.312.111zm.853.403l-.035.251c-.008.661-.259 1.284-.733 1.823l-.188.232c0 .037.531.026.602-.015.064-.033.071-.022.093.107.028.177.123.347.24.428.074.052.103.056.185.011.142-.069.233-.221.251-.413.018-.144.032-.17.078-.144.032.015.191.033.354.04l.297.015-.155-.191c-.294-.361-.39-.498-.507-.738-.163-.328-.23-.587-.259-.978-.01-.185-.035-.369-.049-.417-.036-.099-.124-.107-.174-.011zm-12.039-1.636c-.046.06-.099.17-.11.24l-.092.288c-.092.214-.088.395.011.55.124.195.333.191.432-.004.092-.181.067-.436-.057-.627-.11-.166-.124-.317-.053-.491.046-.1-.036-.074-.131.044zm.439 1.17l-.167.118c-.198.27.251.564.577.384.351-.199.361-.203.528-.144.142.048.149.048.121-.011-.057-.111-.146-.163-.489-.284-.393-.136-.407-.136-.57-.063zm-1.353.089c-.163.114-.336.141-.464.07-.099-.056-.11-.022-.028.089.042.055.138.114.223.136l.315.111c.212.092.403.092.549 0 .294-.185.11-.517-.283-.517-.113 0-.199.03-.312.111zm.854.402l-.035.251c-.007.66-.259 1.284-.733 1.823l-.188.232c0 .037.531.025.602-.015.064-.033.071-.022.092.106.028.178.124.348.241.429.074.053.102.056.184.012.142-.07.234-.222.251-.413.018-.145.032-.17.078-.145.032.016.191.034.354.041l.297.015-.156-.191c-.294-.362-.39-.499-.506-.738-.163-.329-.23-.587-.259-.979-.01-.185-.035-.369-.049-.417-.035-.1-.124-.107-.173-.011zm6.047-1.676c-.047.06-.1.17-.11.24l-.092.288c-.092.214-.089.395.011.55.124.195.333.191.432-.004.092-.181.067-.436-.057-.628-.109-.166-.124-.317-.053-.49.046-.099-.036-.074-.131.044zm.439 1.17l-.166.118c-.198.27.251.564.577.384.351-.199.361-.203.527-.144.142.048.149.048.121-.012-.057-.11-.146-.162-.489-.284-.392-.135-.407-.135-.57-.062zm-1.353.089c-.163.114-.336.14-.464.07-.099-.056-.11-.022-.028.088.042.056.138.114.223.137l.315.11c.212.093.403.093.549 0 .294-.184.11-.517-.283-.517-.113.001-.198.031-.312.112zm.854.402l-.035.251c-.008.66-.259 1.284-.733 1.823l-.188.232c0 .036.531.025.602-.015.064-.033.071-.022.093.106.028.178.123.347.24.429.074.051.103.055.185.011.142-.07.233-.222.251-.413.018-.145.032-.17.078-.145.032.015.191.033.354.041l.297.015-.155-.192c-.294-.361-.39-.498-.507-.737-.163-.329-.23-.587-.259-.979-.01-.185-.035-.369-.049-.417-.036-.098-.124-.106-.174-.01zm6.153-12.162c-.046.059-.1.17-.11.24l-.092.288c-.092.214-.088.395.011.55.124.196.333.192.432-.003.093-.181.067-.436-.057-.627-.109-.166-.123-.317-.053-.491.046-.101-.035-.075-.131.043zm.44 1.17l-.167.118c-.198.27.252.565.577.384.351-.199.361-.203.528-.144.142.048.148.048.12-.011-.057-.111-.146-.163-.489-.284-.393-.137-.407-.137-.569-.063zm-1.354.089c-.163.114-.336.14-.464.07-.099-.055-.109-.022-.028.089.043.055.139.114.224.136l.314.111c.213.092.404.092.549 0 .295-.185.11-.517-.283-.517-.114 0-.199.029-.312.111zm.854.402l-.035.251c-.007.661-.259 1.284-.733 1.823l-.188.232c0 .037.531.026.603-.015.063-.033.07-.022.092.107.028.177.124.347.24.428.075.052.104.056.185.011.142-.069.233-.221.252-.413.018-.144.031-.17.077-.144.032.015.191.033.354.04l.298.015-.156-.191c-.294-.361-.39-.498-.507-.738-.162-.328-.229-.587-.258-.978-.011-.185-.036-.369-.05-.417-.036-.1-.124-.107-.174-.011zm-12.039-1.636c-.046.059-.099.169-.11.24l-.092.288c-.092.214-.089.395.011.55.124.195.333.192.432-.004.092-.181.067-.436-.057-.627-.109-.166-.124-.317-.053-.491.046-.1-.036-.074-.131.044zm.439 1.17l-.167.118c-.198.269.251.564.577.384.351-.199.361-.203.528-.144.142.048.148.048.12-.011-.057-.111-.145-.162-.489-.284-.392-.137-.406-.137-.569-.063zm-1.353.089c-.163.114-.336.14-.464.07-.099-.056-.11-.022-.028.088.042.056.138.114.223.137l.315.111c.212.092.404.092.549 0 .294-.185.11-.517-.283-.517-.114 0-.199.029-.312.111zm.854.402l-.036.251c-.007.66-.258 1.284-.733 1.823l-.188.232c0 .037.531.025.602-.015.063-.033.071-.022.092.106.028.178.124.348.241.429.075.052.103.056.185.011.142-.07.233-.222.251-.413.018-.144.032-.17.078-.144.032.015.191.033.354.04l.298.015-.156-.191c-.293-.362-.389-.499-.506-.738-.163-.328-.23-.587-.258-.979-.011-.184-.036-.369-.05-.417-.036-.098-.125-.106-.174-.01zm6.047-1.676c-.046.059-.1.17-.11.24l-.092.288c-.092.214-.089.395.011.55.124.196.333.192.432-.003.093-.181.067-.436-.057-.627-.11-.167-.124-.319-.053-.492.046-.1-.035-.074-.131.044zm.439 1.17l-.167.118c-.198.27.252.565.577.384.351-.199.361-.203.528-.144.142.048.148.048.12-.011-.057-.111-.146-.163-.489-.284-.392-.137-.406-.137-.569-.063zm-1.353.089c-.163.114-.336.14-.464.07-.099-.055-.109-.022-.028.089.042.055.138.114.223.136l.315.111c.212.092.404.092.548 0 .294-.185.11-.517-.283-.517-.112 0-.197.029-.311.111zm.853.402l-.035.25c-.007.661-.259 1.285-.733 1.824l-.188.232c0 .037.531.025.603-.015.063-.033.07-.022.092.106.028.178.124.347.24.429.075.052.104.055.185.011.142-.07.233-.222.252-.413.018-.145.031-.17.077-.145.032.015.191.033.354.041l.298.015-.156-.192c-.294-.361-.39-.498-.507-.737-.162-.329-.229-.587-.258-.979-.011-.185-.036-.369-.05-.417-.035-.099-.124-.106-.174-.01zm-8.826 5.153l-.036.251c-.003.33-.094.706-.217 1.012.009.471.022.678-.009 1.137.028.177.124.347.241.428.075.052.103.056.185.011.142-.07.233-.222.251-.413.018-.144.032-.17.078-.144.032.015.191.033.354.04l.298.015-.156-.191c-.294-.362-.39-.498-.507-.738-.163-.328-.23-.587-.258-.979-.011-.185-.036-.369-.05-.417-.036-.101-.124-.108-.174-.012z"/><path fill="#CA1517" d="M0 32h19v16h-19z"/><linearGradient id="a" gradientUnits="userSpaceOnUse" x1="496.731" y1="186.052" x2="496.506" y2="186.099" gradientTransform="matrix(.764 0 0 -1.168 -369.33 263.2)"><stop offset="0" stop-color="#010202"/><stop offset="1" stop-color="#2B4B9B"/></linearGradient><path fill="url(#a)" d="M10.022 45.696c-.055.093.097.504.333.494-.154-.255-.138-.551-.138-.551l-.195.057z"/><linearGradient id="b" gradientUnits="userSpaceOnUse" x1="568.042" y1="168.781" x2="567.718" y2="168.828" gradientTransform="matrix(.667 0 0 -1.338 -369.232 271.567)"><stop offset="0" stop-color="#010202"/><stop offset="1" stop-color="#2B4B9B"/></linearGradient><path fill="url(#b)" d="M9.437 45.25c-.085.014-.29.555.037.748.01-.337.165-.536.165-.536l-.17-.15-.032-.062z"/><linearGradient id="c" gradientUnits="userSpaceOnUse" x1="437.38" y1="204.811" x2="437.011" y2="205.016" gradientTransform="matrix(.867 0 0 -1.03 -369.432 256.457)"><stop offset="0" stop-color="#010202"/><stop offset="1" stop-color="#2B4B9B"/></linearGradient><path fill="url(#c)" d="M9.396 44.928c-.082-.09-.44.171-.425.56.22-.26.479-.239.479-.239l-.054-.321z"/><linearGradient id="d" gradientUnits="userSpaceOnUse" x1="370.792" y1="234.066" x2="369.617" y2="234.435" gradientTransform="matrix(1.026 0 0 -.87 -369.592 248.624)"><stop offset="0" stop-color="#010202"/><stop offset="1" stop-color="#2B4B9B"/></linearGradient><path fill="url(#d)" d="M9.81 44.613c-.006-.122-.316-.263-.479-.019.234.027.368.255.368.255l.111-.236z"/><linearGradient id="e" gradientUnits="userSpaceOnUse" x1="527.191" y1="180.176" x2="526.915" y2="180.233" gradientTransform="matrix(.732 0 0 -1.219 -369.297 265.737)"><stop offset="0" stop-color="#010202"/><stop offset="1" stop-color="#2B4B9B"/></linearGradient><path fill="url(#e)" d="M16.076 45.747c-.006.111.021.15.075.213l.113.249s.171-.49.127-.557c-.042-.065-.304.092-.315.095z"/><linearGradient id="f" gradientUnits="userSpaceOnUse" x1="579.719" y1="167.821" x2="579.324" y2="167.962" gradientTransform="matrix(.664 0 0 -1.345 -369.228 271.891)"><stop offset="0" stop-color="#010202"/><stop offset="1" stop-color="#2B4B9B"/></linearGradient><path fill="url(#f)" d="M15.176 45.544c-.085-.017-.245.389-.112.667.067-.322.25-.463.25-.463l-.138-.204z"/><linearGradient id="g" gradientUnits="userSpaceOnUse" x1="460.234" y1="198.174" x2="460.079" y2="198.513" gradientTransform="matrix(.835 0 0 -1.069 -369.4 258.372)"><stop offset="0" stop-color="#010202"/><stop offset="1" stop-color="#2B4B9B"/></linearGradient><path fill="url(#g)" d="M14.762 45.422c-.066-.078-.351.147-.339.484.176-.225.383-.207.383-.207l-.044-.277z"/><linearGradient id="h" gradientUnits="userSpaceOnUse" x1="376.603" y1="232.262" x2="376.49" y2="232.596" gradientTransform="matrix(1.021 0 0 -.874 -369.587 248.813)"><stop offset="0" stop-color="#010202"/><stop offset="1" stop-color="#2B4B9B"/></linearGradient><path fill="url(#h)" d="M14.979 44.901c-.045-.104-.366-.019-.43.307.216-.134.409-.023.409-.023l.021-.284z"/><linearGradient id="i" gradientUnits="userSpaceOnUse" x1="417.612" y1="210.43" x2="417.216" y2="210.666" gradientTransform="matrix(.894 0 0 -.998 -368.957 254.89)"><stop offset="0" stop-color="#010202"/><stop offset="1" stop-color="#2B4B9B"/></linearGradient><path fill="url(#i)" d="M4.33 44.674c.031-.114-.209-.43-.429-.308.205.167.258.454.258.454l.171-.146z"/><linearGradient id="j" gradientUnits="userSpaceOnUse" x1="465.684" y1="192.313" x2="465.224" y2="192.586" gradientTransform="matrix(.8 0 0 -1.116 -368.863 260.671)"><stop offset="0" stop-color="#010202"/><stop offset="1" stop-color="#2B4B9B"/></linearGradient><path fill="url(#j)" d="M3.411 45.386c-.08-.103-.416.189-.396.632.205-.292.452-.267.452-.267l-.056-.365z"/><linearGradient id="k" gradientUnits="userSpaceOnUse" x1="356.881" y1="237.227" x2="356.45" y2="237.484" gradientTransform="matrix(1.045 0 0 -.854 -369.107 247.853)"><stop offset="0" stop-color="#010202"/><stop offset="1" stop-color="#2B4B9B"/></linearGradient><path fill="url(#k)" d="M3.44 44.76c-.035-.146-.428-.126-.562.273.279-.111.485.085.485.085l.077-.358z"/><linearGradient id="l" gradientUnits="userSpaceOnUse" x1="490.679" y1="184.909" x2="490.307" y2="185.131" gradientTransform="matrix(.761 0 0 -1.174 -368.823 263.5)"><stop offset="0" stop-color="#010202"/><stop offset="1" stop-color="#2B4B9B"/></linearGradient><path fill="url(#l)" d="M3.84 45.941c-.021.107 0 .154.043.23.043.077.075.277.075.277s.237-.431.205-.508l-.323.001z"/><linearGradient id="m" gradientUnits="userSpaceOnUse" x1="361.206" y1="239.186" x2="361.848" y2="239.186" gradientTransform="matrix(1.029 0 0 -.867 -369.594 248.483)"><stop offset="0" stop-color="#010202"/><stop offset="1" stop-color="#2B4B9B"/></linearGradient><path fill="url(#m)" d="M2.865 40.991c0-.154-.376-.314-.594.003.289.021.441.302.441.302l.153-.305z"/><linearGradient id="n" gradientUnits="userSpaceOnUse" x1="464.264" y1="196.035" x2="464.91" y2="196.035" gradientTransform="matrix(.8 0 0 -1.116 -369.365 260.671)"><stop offset="0" stop-color="#010202"/><stop offset="1" stop-color="#2B4B9B"/></linearGradient><path fill="url(#n)" d="M2.474 41.604c-.08-.103-.416.189-.396.632.205-.292.452-.267.452-.267l-.056-.365z"/><linearGradient id="o" gradientUnits="userSpaceOnUse" x1="394.11" y1="223.943" x2="394.775" y2="223.943" gradientTransform="matrix(.946 0 0 -.944 -369.511 252.237)"><stop offset="0" stop-color="#010202"/><stop offset="1" stop-color="#2B4B9B"/></linearGradient><path fill="url(#o)" d="M3.842 40.938c.037-.145-.28-.479-.559-.284.267.16.344.497.344.497l.215-.213z"/><linearGradient id="p" gradientUnits="userSpaceOnUse" x1="520.206" y1="181.449" x2="520.719" y2="181.449" gradientTransform="matrix(.718 0 0 -1.244 -369.282 266.953)"><stop offset="0" stop-color="#010202"/><stop offset="1" stop-color="#2B4B9B"/></linearGradient><path fill="url(#p)" d="M4.289 41.467c.062-.083-.055-.518-.291-.546.132.278.092.569.092.569l.199-.023z"/><path fill="#FFCD07" d="M5.544 41.976c-.237-.284-.003-.802.209-.581-.111-.212.07-.38.153-.273-.038-.173.136-.287.222-.128-.031-.192.228-.305.294-.095.005-.189.257-.338.313-.062.049-.213.331-.241.354.062.082-.176.293-.163.305.093.091-.12.327.061.287.273.146-.033.323.271.146.496.315-.174.389.389.197.644l.195.054c.087.047.246.124.391.157.131 0 .61-.016.709-.031l.393-.125.633-.113c.175-.021 5.106.082 5.249.066s.348-.156.337-.327c-.011-.172-.174-.296-.337-.312s-1.004-.016-1.157.016-.371.108-.48.218l-.212.254c-.069.06-.263.068-.263-.01l-.064.03c-.062.04-.341.051-.328 0 .021-.058-.002-.076-.075-.016-.055.047-.441.063-.512.018.042-.073.043-.069-.073-.009-.073.033-.378.06-.399-.005l-.08-.012c-.345.094-.378-.015-.323-.062.054-.046.137-.313.05-.299l-.819.156s-1.527 0-1.713-.016-.393-.195-.403-.452c-.02-.411.305-.515.501-.577.197-.062.688-.155.885-.155.196 0 .756.071.909.009.153-.062.616-.236.748-.249.193-.019.748.049 1.012.377-.138.064-.202.103-.046.044l.893-.196c.491-.021.362.056.122.118-.081.264-.802.632-1.03.679-.23.047-.716.013-.825-.008-.109-.009-.625-.035-.813-.161-.304-.213-.865-.353-1.11-.348-.231.005-.887.076-.884.312-.004.414.61.437.873.421.262-.016.917-.047 1.102-.125.185-.078.586-.098.805-.098l.636.035c.098-.016.328-.02.436-.097.109-.078.346-.16.587-.16.24 0 2.021-.07 2.261-.055.347-.003.593.39.597.723.002.156-.072.387-.134.422l.467.061c.167.035.438.225.469.398-.127-.08-.333-.2-.517-.213-.037 0-3.925-.007-4.23-.005.831.101 1.465.762 1.625 1.14.142.234.491.141.621.109.131-.031.284-.172.394-.281.108-.108.279-.137.356-.108.169-.016.2.171.135.265-.066.094.011.056.185.056.175 0 .329.066.431.208-.098.094-.148.017-.006.032s.313.284.207.36v.046c.18.016.228.135.251.348v.058c.076.077.188.423-.088.437-.098-.047-.096-.057-.075.05.019.109-.034.371-.187.371-.212.042-.404-.078-.426-.219-.022-.14-.019.271-.319.336-.283.065-.434-.102-.456-.18l-.12-.031c-.11-.016-.247-.017-.306-.203 0-.108.021-.253.216-.272.087-.016.111-.133.046-.148-.066-.016-.011-.249.131-.187.141.062.469.078.545.155.076.078.098-.062-.021-.187-.121-.125-.851-.374-1.047-.281-.458.238-1.223.203-1.353.172-.131-.031-.51.054-.688-.515-.145-.58-.694-.867-.946-.898-1.238-.12-1.17-.027-.368.012-.006.108-.035.33.096.362.218-.03.671-.13.781-.037.11.094.218.172.196.391-.021.218.011.155-.086.249-.099.094-.056.28.098.343.153.062.219.141.316.234.099.094-.043.28-.131.218-.087-.062-.087-.062-.098.062s-.119.361-.304.378l-.023-.128-.094.203c-.037.046-.345.136-.433.089l-.06-.012c-.074.031-.477.089-.297-.109l-.125.118c-.051.033-.29.054-.29-.04-.076.068-.255.068-.283.016l-.158.062c-.099.016-.312-.016-.323-.141l-.098-.031c-.292.2-.436-.078-.436-.171 0-.094-.011-.203.021-.266.033-.062-.203-.081-.131-.204.082-.149.167-.26.327-.232.076.016.065-.031.033-.094-.033-.062.088-.093.229-.031.142.062.241.219.284.359.043.14.382.031.524.047.142.015.153-.234.066-.312l-.426-.452c-.098-.094-.032-.421.054-.499.509-.354.23-.468.044-.437-.185.031-.663.229-.815.399-.153.172-1.339 1.013-1.448 1.106-.109.093-.268.116-.333.007s-.109-.031-.098.125c.086.589-.425.776-.515.769-.062-.007-.152-.042-.217-.098-.064.329-.345.361-.6.329l.02-.084c-.084.113-.343.102-.564.084l.033-.104c-.075.145-.203.118-.411.103l.05-.071c-.09.103-.28.07-.427.073l-.009-.077c-.082.091-.254.105-.42.081l.052-.125h-.076c-.055 0-.131.016-.164-.062l-.045.12c-.032.037-.068.123-.177.154s-.393.062-.437-.078c-.059-.064-.087-.202-.043-.28s-.208.15-.316.172c-.319.063-.36-.452-.218-.499.142-.047.12-.125.044-.188-.077-.062-.121-.312-.022-.39.098-.078.326-.121.469-.031.084.06.264.265.229.109-.024-.096.038-.218.107-.271.061-.057.247-.071.296.052.115.287.197.411.338.405.302-.085.71-.182.831-.182.154-.037.969-.12.969-.198-.489.175-.687-.051-.742-.035-.054.015-.189-.051-.189-.095l-.051-.051c-.104-.009-.198-.014-.285-.127l.163-.421c-.115-.032-.364.178-.446.363-.057-.071-.081-.007-.285.045-.097.043-.253.028-.341-.019-.087-.047-.429-.314-.264-.349l-.126-.045c-.121-.053-.234-.155-.199-.184l-.014-.056c-.065-.016-.227-.138-.185-.185l-.181-.093c-.075-.045-.152-.207-.163-.285-.071.007-.221-.131-.153-.172-.115-.088-.212-.232-.136-.279-.066-.055-.113-.153-.067-.116-.07-.088-.048-.182.007-.182.054 0 .033-.249-.065-.249s-.256.079-.371 0c-.095-.074-.174-.405-.087-.546.087-.141.262-.296.349-.28l.022-.094c-.022-.141.123-.246.218-.28.115-.055.338-.016.403.047.066.062.087.062.087-.047 0-.077.084-.117.159-.137.125-.031.223.006.266.059.068.101.109.218.022.312l.131-.017c.091-.031.256.009.284.11.038.109.066.296-.032.39s-.24.327-.164.405l.371.468c.055.047.12.156.208.141l.262-.047c.303-.062.44-.096.051-.083.087-.127.271-.165.35-.188-.071-.109.187-.338.187-.369z"/><path d="M5.545 43.241c-.209-.034-.738.439-.567 1.027m.599-1.554c-.282 1.844 1.45 1.129 1.462.508m-.1.266c.023.242.037.919-.206 1.092s-.546.193-.783.11m.452-.827c-.023.238-.255.831-.706.75m-2.939-3.3c.236.023.354.216.404.385l.084.265m-.287.72c.101.049.287 0 .287 0m-.188.259c.223.072.446-.048.446-.048m.052.617c.609 0 .868-.887.868-.887m.371.469c-.168.457-.151.457-.371.554l-.219.096m-.1.24c.236-.072.388-.217.388-.217m-.64-2.56c-.135.169-.118.481-.118.481m2.895-.47c.033.312-.101.481-.185.481-.084 0-.179.116-.127.304m.664-.833c-.151.217-.185.457-.135.649l.002.248m-1.666.883c-.27.074-.379.583-.235.856m2.709-1.577h-.185s-.118.265-.32.192h-.017m-.471-.413c.289.008.23.244.017.221.017.288-.318.252-.29.031-.202.006-.285-.286.008-.246m7.087.215c.059-.187.332-.356.332-.356m-.729.346c.119-.221.332-.356.332-.356m-.911.376c.181-.112.231-.156.29-.214l.19-.187m-.984.394l.324-.181c.11-.08.187-.189.187-.189m-.403-.218c-.419-.147-.607-.44-.607-.44m1.306-.184c-.278.119-.843.067-.867.067m-4.161 3.716c.083-.305.239-.373.434-.473l.319-.154c-.19.187-.464.305-.559.373-.095.067-.155.219-.106.288m-.486-1.188c.178.306.068.73-.157.849m.75-1.9c.289.124.299.416.34.588l-.252-.062m-.202-.358c.196.277.271.447.282.544.019.167.02.581-.444.574.043-.123.098-.448.024-.579m.029.297c0 .271-.182.383-.265.417m-.438-1.624c.012.322-.558.56-.546.067m-.002.018c-.012.237-.325.288-.434.084-.084-.136-.132-.203-.192-.22-.061-.018-.054-.215-.066-.244l-.065-.18" fill="none"/><linearGradient id="q" gradientUnits="userSpaceOnUse" x1="500.242" y1="169.648" x2="500.181" y2="169.182" gradientTransform="matrix(.789 0 0 -1.131 -388.423 235.016)"><stop offset="0" stop-color="#010202"/><stop offset="1" stop-color="#2B4B9B"/></linearGradient><path fill="url(#q)" d="M6.053 42.547c.146.263.493.104.583.21.089.104-.087.471-.143.681-.129.181-.418.169-.524.034.058-.251.062-.785.073-.803l.011-.122z"/><path d="M3.441 41.015c.023.152-.012.187-.047.322-.036.136.012.373.012.373m-.027 3.562c.119-.034.368 0 .368 0m.074.401c.072-.136.238-.254.238-.254m1.095.435c.06-.085.06-.356.06-.356m.373.354c.095-.111.1-.35.1-.35m.245.344c.095-.187.079-.402.079-.402m.459.422c.06-.103.06-.34.06-.34m3.787-.198c-.214-.051-.344.254-.344.254m.626-.304c-.023.221-.19.424-.19.424m.526-.442c-.012.187-.202.441-.202.441m.621-.515c-.032.248-.202.434-.202.434m.511-.522c.012.221-.096.56-.167.628m.535-.534c.035.118 0 .288 0 .288m-2.322-.751c.142.034.226.203.226.203m-.47.223c.075-.268.397-.137.437-.065m5.655-1.165c-.118-.017-.297.051-.297.051m.849.183c-.166.067-.356.084-.356.084m.57.307l-.25-.017m.527.386c-.142-.018-.368 0-.368 0m.258.477c-.047-.136-.189-.17-.189-.17m-1.21.485c.037-.203.272-.366.402-.366h.131m-.728-.083c.142-.051.368-.068.368-.068m-9.603-.733c.143-.119.254-.363.254-.363m1.482-2.604l-.154.17m.297.118l-.2.009M6.864 41.668c.141-.053.467-.008.463.115 0 .152-.128.161-.466.018l.003-.111v-.022zm-.443.016c.018-.18-.323-.357-.407-.257-.101.166.186.314.262.314l.029.009m1.129 1.285c.107.216.139.581.017.759m-.103-1.435c-.129.369-.021.707-.021.707m-1.508-.615c-.107.093-.193.062-.193.062m1.42 1.014c.107.062.258.431.237.554l-.022.123m-.258-.522c.064.185.15.461.129.553l-.022.093m-.494-.462c.043.185.022.491-.043.553l-.065.061m0-.584c-.064.216-.129.522-.129.522m-.817-1.844c-.129.185-.301.369-.301.369m.215.369c-.108.092-.259.308-.259.308m.387 0c-.172-.123-.366.092-.366.092m-.704.237c-.043.123-.366.215-.366.215m3.009-2.454l-.021.14m-.864-.391l-.07.212m-.941.873c-.396.216-.464.406-.402.86m3.095-1.48c-.113.054-.096.331-.096.331m-2.318-.718c.122.089.073.354.073.354" fill="none"/><path fill="#330F10" fill-opacity=".599" d="M4.763 45.803c-.009.265-.25.194-.353.195l.09-.173.077-.01.186-.012z"/><path fill="#330F10" fill-opacity=".1" d="M6.88 43.531c.027.128.025.212.015.35-.031.221-.041.228-.128.409l-.097.167-.284-.202.014-.068.056-.211c.006-.099.081-.264.124-.103l.3-.342zm-1.006.828c.065.02.225-.036.294-.052l.1-.146.071-.17-.121-.009c-.015.106-.112.021-.123.034l-.095.035-.021.024-.105.284zm6.272-.657c-.037.212-.088.321-.178.49-.166.247-.32.381-.535.49l-.205.042-.032-.713.089-.015c.106-.051.174-.116.254-.239.064-.123.093-.303.056-.022l.551-.033z"/><path d="M3.792 43.72c.466-.114.726-.756.726-.756m-1.269.182c.472.029.821-.52.821-.52m10.453 1.94l.023-.065c-.051.146-.039.078.139-.066h.348c.144.002.217.032.348.066l.231.165" fill="none"/><path fill="#330F10" fill-opacity=".1" d="M5.45 44.063c-.015.073.168.174.275.179.112-.072.116-.1.193-.22l.012-.056-.238-.235-.057.054-.091.129-.018.032-.041.067-.035.05zm2.09-.011c.066-.075.094-.142.132-.254.049-.192.061-.352.049-.557l-.033-.184-.26.123.015.079c.007.102 0 .173-.025.267l.005.053.117.473zm.177-1.248c.086.01.134.045.209.11.113.126.181.254.247.441l.039.186-.27.107-.016-.081c-.031-.093-.064-.148-.12-.209l-.015-.05-.074-.504zm-.417 1.613c.072-.122.131-.051.152-.202.012-.249-.019-.44-.096-.675l-.101-.197-.332.273.045.085c.04.115.05.202.043.324-.017.107.002.142.082.176l.207.216z"/><path d="M16.167 45.019c.145.003.217.033.348.066l.232.166m-1.259-1.186c.142-.038.217-.028.35-.032l.25.099m-2.851.333l-.227-.047-.153-.137m1.286-1.615l-1.125-.032-1.125-.032m-1.494.461l.222-.078.178.046" fill="none"/><path fill="#330F10" fill-opacity=".1" d="M3.228 42.416l-.117.171c-.08.066-.121.06-.198.052l-.043-.21.042-.126.028.016.105-.039.019.005.164.131z"/><path d="M6.029 42.468c-.014.337-.19.517-.19.517m.012-.674c-.091.368.026.663.026.663m.874-.233c-.021.333.135.541.135.541m.059-.664c.052.377-.094.646-.094.646" fill="none"/><path fill="#330F10" fill-opacity=".1" d="M5.666 45.624c-.012.271-.348.199-.49.199l.04-.07.19-.116.26-.013zm.325-.122c-.011.381-.297.28-.419.281l.035-.101.162-.163.222-.017zm.524.017c-.015.567-.408.417-.575.419l.047-.149.223-.242.305-.028zm.517-.008c-.015.566-.408.416-.575.418l.047-.148.224-.243.304-.027zm-1.874 0c-.012.566-.348.416-.491.418l.041-.148.19-.243.26-.027z"/><path fill="#330F10" fill-opacity=".599" d="M5.41 43.963c-.046.144-.122.255-.11.344l-.071-.033c.056.021-.064-.232-.092-.185l.067-.051.015-.027.034-.018.157-.03z"/><path d="M8.023 42.406c.036.018.126.001.292.073-.068.105-.246.166-.315.135m4.146 2.204l-.263.015-.193-.095m-.582.463c.198.055.312.054.506.072l.393-.073m-3.571-.551c-.204.071-.3.076-.367.013m.595-.19c-.179.072-.281.097-.37.038m.672-.255c-.119.072-.187.097-.246.038m.457-.205c-.146.071-.229.097-.301.038m-5.452-3.111c.024.152-.012.187-.047.322-.036.136.012.373.012.373m.486-.504c-.135.169-.118.481-.118.481m-.982-.407c.241.023.362.216.413.385l.086.265" fill="none"/><g transform="translate(0 -98.596)"><linearGradient id="r" gradientUnits="userSpaceOnUse" x1="496.731" y1="107.397" x2="496.506" y2="107.444" gradientTransform="matrix(.764 0 0 -1.168 -369.33 164.605)"><stop offset="0" stop-color="#010202"/><stop offset="1" stop-color="#2B4B9B"/></linearGradient><path fill="url(#r)" d="M10.022 38.936c-.055.093.097.504.333.494-.154-.255-.138-.551-.138-.551l-.195.057z"/><linearGradient id="s" gradientUnits="userSpaceOnUse" x1="568.042" y1="100.165" x2="567.718" y2="100.212" gradientTransform="matrix(.667 0 0 -1.338 -369.232 172.973)"><stop offset="0" stop-color="#010202"/><stop offset="1" stop-color="#2B4B9B"/></linearGradient><path fill="url(#s)" d="M9.437 38.489c-.085.014-.29.555.037.747.01-.336.165-.535.165-.535l-.17-.15-.032-.062z"/><linearGradient id="t" gradientUnits="userSpaceOnUse" x1="437.381" y1="115.647" x2="437.012" y2="115.851" gradientTransform="matrix(.867 0 0 -1.03 -369.432 157.861)"><stop offset="0" stop-color="#010202"/><stop offset="1" stop-color="#2B4B9B"/></linearGradient><path fill="url(#t)" d="M9.396 38.167c-.082-.09-.44.171-.425.56.22-.26.479-.239.479-.239l-.054-.321z"/><linearGradient id="u" gradientUnits="userSpaceOnUse" x1="370.794" y1="128.517" x2="369.617" y2="128.886" gradientTransform="matrix(1.026 0 0 -.87 -369.592 150.028)"><stop offset="0" stop-color="#010202"/><stop offset="1" stop-color="#2B4B9B"/></linearGradient><path fill="url(#u)" d="M9.81 37.853c-.006-.122-.316-.263-.479-.019.234.027.368.255.368.255l.111-.236z"/><linearGradient id="v" gradientUnits="userSpaceOnUse" x1="527.191" y1="104.861" x2="526.916" y2="104.919" gradientTransform="matrix(.732 0 0 -1.219 -369.297 167.142)"><stop offset="0" stop-color="#010202"/><stop offset="1" stop-color="#2B4B9B"/></linearGradient><path fill="url(#v)" d="M16.076 38.986c-.006.111.021.15.075.213l.113.249s.171-.49.127-.557c-.042-.065-.304.091-.315.095z"/><linearGradient id="w" gradientUnits="userSpaceOnUse" x1="579.719" y1="99.539" x2="579.324" y2="99.68" gradientTransform="matrix(.664 0 0 -1.345 -369.228 173.295)"><stop offset="0" stop-color="#010202"/><stop offset="1" stop-color="#2B4B9B"/></linearGradient><path fill="url(#w)" d="M15.176 38.783c-.085-.017-.245.389-.112.667.067-.322.25-.463.25-.463l-.138-.204z"/><linearGradient id="x" gradientUnits="userSpaceOnUse" x1="460.236" y1="112.272" x2="460.081" y2="112.61" gradientTransform="matrix(.835 0 0 -1.069 -369.4 159.777)"><stop offset="0" stop-color="#010202"/><stop offset="1" stop-color="#2B4B9B"/></linearGradient><path fill="url(#x)" d="M14.762 38.661c-.066-.078-.351.147-.339.484.176-.225.383-.207.383-.207l-.044-.277z"/><linearGradient id="y" gradientUnits="userSpaceOnUse" x1="376.602" y1="127.185" x2="376.488" y2="127.519" gradientTransform="matrix(1.021 0 0 -.874 -369.587 150.218)"><stop offset="0" stop-color="#010202"/><stop offset="1" stop-color="#2B4B9B"/></linearGradient><path fill="url(#y)" d="M14.979 38.141c-.045-.104-.366-.019-.43.307.216-.134.409-.023.409-.023l.021-.284z"/><linearGradient id="z" gradientUnits="userSpaceOnUse" x1="417.611" y1="118.412" x2="417.215" y2="118.648" gradientTransform="matrix(.894 0 0 -.998 -368.957 156.296)"><stop offset="0" stop-color="#010202"/><stop offset="1" stop-color="#2B4B9B"/></linearGradient><path fill="url(#z)" d="M4.33 37.913c.031-.114-.209-.43-.429-.308.205.167.258.453.258.453l.171-.145z"/><linearGradient id="A" gradientUnits="userSpaceOnUse" x1="465.685" y1="110.016" x2="465.225" y2="110.29" gradientTransform="matrix(.8 0 0 -1.116 -368.863 162.073)"><stop offset="0" stop-color="#010202"/><stop offset="1" stop-color="#2B4B9B"/></linearGradient><path fill="url(#A)" d="M3.411 38.625c-.08-.103-.416.189-.396.632.205-.292.452-.267.452-.267l-.056-.365z"/><linearGradient id="B" gradientUnits="userSpaceOnUse" x1="356.881" y1="129.737" x2="356.45" y2="129.994" gradientTransform="matrix(1.045 0 0 -.854 -369.107 149.257)"><stop offset="0" stop-color="#010202"/><stop offset="1" stop-color="#2B4B9B"/></linearGradient><path fill="url(#B)" d="M3.44 37.999c-.035-.146-.428-.126-.562.273.279-.111.485.085.485.085l.077-.358z"/><linearGradient id="C" gradientUnits="userSpaceOnUse" x1="490.678" y1="106.666" x2="490.306" y2="106.887" gradientTransform="matrix(.761 0 0 -1.174 -368.823 164.906)"><stop offset="0" stop-color="#010202"/><stop offset="1" stop-color="#2B4B9B"/></linearGradient><path fill="url(#C)" d="M3.84 39.181c-.021.107 0 .154.043.23.043.077.075.277.075.277s.237-.431.205-.508l-.323.001z"/><linearGradient id="D" gradientUnits="userSpaceOnUse" x1="361.206" y1="133.292" x2="361.848" y2="133.292" gradientTransform="matrix(1.029 0 0 -.867 -369.594 149.887)"><stop offset="0" stop-color="#010202"/><stop offset="1" stop-color="#2B4B9B"/></linearGradient><path fill="url(#D)" d="M2.865 34.23c0-.154-.376-.314-.594.002.289.022.441.302.441.302l.153-.304z"/><linearGradient id="E" gradientUnits="userSpaceOnUse" x1="464.264" y1="113.739" x2="464.91" y2="113.739" gradientTransform="matrix(.8 0 0 -1.116 -369.365 162.073)"><stop offset="0" stop-color="#010202"/><stop offset="1" stop-color="#2B4B9B"/></linearGradient><path fill="url(#E)" d="M2.474 34.843c-.08-.104-.416.189-.396.632.205-.293.452-.267.452-.267l-.056-.365z"/><linearGradient id="F" gradientUnits="userSpaceOnUse" x1="394.11" y1="126.643" x2="394.775" y2="126.643" gradientTransform="matrix(.946 0 0 -.944 -369.511 153.641)"><stop offset="0" stop-color="#010202"/><stop offset="1" stop-color="#2B4B9B"/></linearGradient><path fill="url(#F)" d="M3.842 34.178c.037-.145-.28-.479-.559-.284.267.16.344.497.344.497l.215-.213z"/><linearGradient id="G" gradientUnits="userSpaceOnUse" x1="520.206" y1="107.633" x2="520.719" y2="107.633" gradientTransform="matrix(.718 0 0 -1.244 -369.282 168.356)"><stop offset="0" stop-color="#010202"/><stop offset="1" stop-color="#2B4B9B"/></linearGradient><path fill="url(#G)" d="M4.289 34.706c.062-.083-.055-.518-.291-.546.132.278.092.569.092.569l.199-.023z"/><path fill="#FFCD07" d="M5.544 35.215c-.237-.284-.003-.802.209-.581-.111-.212.07-.38.153-.273-.038-.173.136-.287.222-.128-.031-.192.228-.305.294-.095.005-.189.257-.339.313-.062.049-.213.331-.241.354.062.082-.176.293-.163.305.093.091-.12.327.061.287.273.146-.033.323.271.146.496.315-.174.389.389.197.644l.195.054c.087.047.246.124.391.157.131 0 .61-.016.709-.031l.393-.125.633-.113c.175-.021 5.106.082 5.249.066s.348-.156.337-.327c-.011-.172-.174-.296-.337-.312s-1.004-.016-1.157.016-.371.108-.48.218l-.212.254c-.069.06-.263.068-.263-.01l-.064.03c-.062.04-.341.051-.328 0 .021-.058-.002-.076-.075-.016-.055.047-.441.063-.512.018.042-.073.043-.069-.073-.009-.073.033-.378.059-.399-.005l-.08-.012c-.345.094-.378-.015-.323-.062.054-.047.137-.314.05-.299l-.819.156s-1.527 0-1.713-.016-.393-.195-.403-.452c-.02-.411.305-.515.501-.577.197-.062.688-.155.885-.155.196 0 .756.071.909.009s.616-.236.748-.249c.193-.019.748.049 1.012.377-.138.064-.202.103-.046.044l.893-.196c.491-.022.362.056.122.118-.081.264-.802.632-1.03.679-.23.047-.716.013-.825-.008-.109-.009-.625-.035-.813-.161-.304-.213-.865-.353-1.11-.348-.231.005-.887.076-.884.312-.004.415.61.437.873.422.262-.016.917-.047 1.102-.125.185-.078.586-.098.805-.098l.636.035c.098-.016.328-.02.436-.097.109-.078.346-.16.587-.16.24 0 2.021-.07 2.261-.055.347-.003.593.39.597.723.002.156-.072.387-.134.422l.467.061c.167.034.438.225.469.397-.127-.079-.333-.199-.517-.213-.037.001-3.925-.007-4.23-.004.831.101 1.465.762 1.625 1.14.142.233.491.141.621.109.131-.031.284-.172.394-.281.108-.108.279-.137.356-.108.169-.016.2.171.135.265-.066.094.011.055.185.055.175 0 .329.067.431.209-.098.094-.148.017-.006.032s.313.284.207.36v.045c.18.016.228.136.251.349v.058c.076.077.188.423-.088.437-.098-.047-.096-.057-.075.05.019.109-.034.371-.187.371-.212.042-.404-.078-.426-.219-.022-.141-.019.271-.319.336-.283.064-.434-.102-.456-.18l-.12-.031c-.11-.016-.247-.018-.306-.203 0-.108.021-.253.216-.272.087-.016.111-.133.046-.148-.066-.016-.011-.249.131-.187.141.062.469.078.545.155.076.078.098-.062-.021-.187-.121-.125-.851-.374-1.047-.281-.458.238-1.223.203-1.353.172-.131-.031-.51.054-.688-.515-.145-.58-.694-.867-.946-.898-1.238-.12-1.17-.027-.368.012-.006.108-.035.33.096.362.218-.031.671-.13.781-.037.11.094.218.172.196.391-.021.218.011.155-.086.249-.099.094-.056.28.098.343.153.062.219.141.316.234.099.093-.043.28-.131.218-.087-.062-.087-.062-.098.062s-.119.36-.304.378l-.023-.129-.094.204c-.037.046-.345.136-.433.089l-.06-.012c-.074.031-.477.089-.297-.109l-.125.118c-.051.033-.29.054-.29-.04-.076.068-.255.068-.283.016l-.158.062c-.099.016-.312-.016-.323-.141l-.098-.031c-.292.2-.436-.078-.436-.171 0-.094-.011-.203.021-.266.033-.062-.203-.081-.131-.204.082-.149.167-.26.327-.232.076.016.065-.031.033-.094-.033-.062.088-.093.229-.031.142.062.241.219.284.359.043.14.382.031.524.046.142.016.153-.233.066-.312l-.426-.452c-.098-.094-.032-.421.054-.499.509-.354.23-.468.044-.437-.185.031-.663.229-.815.399-.153.172-1.339 1.013-1.448 1.106-.109.093-.268.116-.333.007s-.109-.031-.098.125c.086.589-.425.776-.515.769-.062-.007-.152-.042-.217-.098-.064.329-.345.361-.6.329l.02-.084c-.084.113-.343.102-.564.084l.033-.104c-.075.145-.203.118-.411.103l.05-.071c-.09.103-.28.07-.427.073l-.009-.078c-.082.091-.254.106-.42.082l.052-.125h-.076c-.055 0-.131.015-.164-.062l-.045.12c-.032.037-.068.123-.177.154s-.393.062-.437-.078c-.059-.064-.087-.202-.043-.28s-.208.15-.316.172c-.319.063-.36-.452-.218-.499.142-.047.12-.125.044-.188-.077-.062-.121-.312-.022-.39.098-.078.326-.121.469-.031.084.06.264.264.229.109-.024-.096.038-.218.107-.271.061-.057.247-.071.296.052.115.287.197.411.338.405.302-.085.71-.182.831-.182.154-.037.969-.12.969-.198-.489.175-.687-.052-.742-.036-.054.016-.189-.05-.189-.094l-.051-.051c-.104-.009-.198-.015-.285-.127l.163-.421c-.115-.031-.364.178-.446.363-.057-.071-.081-.007-.285.045-.097.043-.253.027-.341-.019-.087-.047-.429-.314-.264-.35l-.126-.044c-.121-.053-.234-.155-.199-.184l-.014-.056c-.065-.016-.227-.138-.185-.185l-.181-.093c-.076-.047-.153-.209-.164-.287-.071.007-.221-.131-.153-.172-.115-.088-.212-.232-.136-.279-.066-.055-.113-.154-.067-.116-.07-.088-.048-.182.007-.182.054 0 .033-.249-.065-.249s-.256.078-.371 0c-.095-.074-.174-.405-.087-.546.087-.141.262-.296.349-.28l.022-.094c-.022-.141.123-.246.218-.28.115-.055.338-.016.403.046.066.062.087.062.087-.046 0-.077.084-.117.159-.137.125-.031.223.006.266.059.068.1.109.218.022.312l.131-.017c.091-.031.256.009.284.11.038.109.066.296-.032.39s-.24.327-.164.405l.371.468c.055.047.12.156.208.141l.262-.047c.303-.063.44-.096.051-.083.087-.127.271-.165.35-.188-.07-.106.188-.336.188-.367z"/><path d="M5.545 36.48c-.209-.034-.738.439-.567 1.027m.599-1.554c-.282 1.844 1.45 1.129 1.462.508m-.1.267c.023.242.037.919-.206 1.092s-.546.193-.783.11m.452-.827c-.023.238-.255.831-.706.75m-2.939-3.3c.236.023.354.216.404.385l.084.265m-.287.719c.101.048.287 0 .287 0m-.188.26c.223.072.446-.048.446-.048m.052.616c.609 0 .868-.887.868-.887m.371.469c-.168.457-.151.457-.371.554l-.219.096m-.1.241c.236-.072.388-.217.388-.217m-.64-2.561c-.135.168-.118.481-.118.481m2.895-.47c.033.312-.101.481-.185.481-.084 0-.179.116-.127.304m.664-.833c-.151.216-.185.457-.135.649l.002.248m-1.666.883c-.27.075-.379.584-.235.857m2.709-1.578h-.185s-.118.264-.32.192h-.017m-.471-.413c.289.007.23.244.017.221.017.288-.318.252-.29.03-.202.007-.285-.285.008-.245m7.087.215c.059-.187.332-.356.332-.356m-.729.346c.119-.221.332-.356.332-.356m-.911.377c.181-.112.231-.156.29-.215l.19-.187m-.984.395l.324-.181c.11-.081.187-.189.187-.189m-.403-.219c-.419-.147-.607-.44-.607-.44m1.306-.184c-.278.119-.843.067-.867.067m-4.161 3.716c.083-.305.239-.373.434-.473l.319-.155c-.19.188-.464.306-.559.374-.095.067-.155.219-.106.288m-.486-1.187c.178.306.068.73-.157.849m.75-1.901c.289.124.299.416.34.588l-.252-.062m-.202-.358c.196.277.271.446.282.543.019.168.02.582-.444.575.043-.123.098-.449.024-.579m.029.297c0 .271-.182.383-.265.417m-.438-1.624c.012.322-.558.56-.546.067m-.002.017c-.012.238-.325.289-.434.085-.084-.136-.132-.203-.192-.22-.061-.018-.054-.215-.066-.244l-.065-.18" fill="none"/><linearGradient id="H" gradientUnits="userSpaceOnUse" x1="500.241" y1="88.467" x2="500.18" y2="88" gradientTransform="matrix(.789 0 0 -1.131 -388.423 136.42)"><stop offset="0" stop-color="#010202"/><stop offset="1" stop-color="#2B4B9B"/></linearGradient><path fill="url(#H)" d="M6.053 35.786c.146.262.493.104.583.21.089.104-.087.471-.143.68-.129.182-.418.17-.524.035.058-.251.062-.785.073-.803l.011-.122z"/><path d="M3.441 34.254c.023.152-.012.187-.047.322-.036.136.012.373.012.373m-.027 3.563c.119-.034.368 0 .368 0m.074.4c.072-.136.238-.254.238-.254m1.095.435c.06-.085.06-.356.06-.356m.373.354c.095-.111.1-.351.1-.351m.245.345c.095-.187.079-.402.079-.402m.459.422c.06-.103.06-.34.06-.34m3.787-.198c-.214-.052-.344.254-.344.254m.626-.303c-.023.221-.19.424-.19.424m.526-.443c-.012.187-.202.441-.202.441m.621-.515c-.032.248-.202.434-.202.434m.511-.522c.012.221-.096.56-.167.628m.535-.533c.035.118 0 .288 0 .288m-2.322-.751c.142.034.226.203.226.203m-.47.223c.075-.268.397-.137.437-.065m5.655-1.166c-.118-.017-.297.051-.297.051m.849.183c-.166.067-.356.084-.356.084m.57.307l-.25-.017m.527.385c-.142-.017-.368 0-.368 0m.258.478c-.047-.136-.189-.17-.189-.17m-1.21.485c.037-.203.272-.366.402-.366h.131m-.728-.083c.142-.052.368-.068.368-.068m-9.603-.733c.143-.119.254-.363.254-.363m1.482-2.604l-.154.17m.297.118l-.2.009M6.864 34.907c.141-.053.467-.008.463.115 0 .152-.128.161-.466.018l.003-.111v-.022zm-.443.016c.018-.18-.323-.357-.407-.257-.101.166.186.314.262.314l.029.009m1.129 1.285c.107.216.139.581.017.759m-.103-1.434c-.129.368-.021.707-.021.707m-1.508-.616c-.107.093-.193.062-.193.062m1.42 1.015c.107.062.258.431.237.554l-.022.123m-.258-.523c.064.185.15.461.129.553l-.022.093m-.494-.462c.043.184.022.491-.043.553l-.065.062m0-.584c-.064.215-.129.522-.129.522m-.817-1.845c-.129.185-.301.369-.301.369m.215.37c-.108.092-.259.308-.259.308m.387-.001c-.172-.123-.366.092-.366.092m-.704.237c-.043.123-.366.215-.366.215m3.009-2.454l-.021.139m-.864-.39l-.07.212m-.941.873c-.396.216-.464.406-.402.859m3.095-1.479c-.113.054-.096.331-.096.331m-2.318-.718c.122.089.073.354.073.354" fill="none"/><path fill="#330F10" fill-opacity=".599" d="M4.763 39.042c-.009.265-.25.194-.353.195l.09-.173.077-.01.186-.012z"/><path fill="#330F10" fill-opacity=".1" d="M6.88 36.771c.027.127.025.212.015.35-.031.221-.041.228-.128.409l-.097.167-.284-.202.014-.068.056-.211c.006-.099.081-.264.124-.103l.3-.342zm-1.006.828c.065.02.225-.036.294-.052l.1-.146.071-.17-.121-.009c-.015.106-.112.021-.123.033l-.095.035-.021.023-.105.286zm6.272-.658c-.037.212-.088.321-.178.49-.166.247-.32.38-.535.49l-.205.042-.032-.713.089-.015c.106-.051.174-.116.254-.239.064-.123.093-.303.056-.022l.551-.033z"/><path d="M3.792 36.959c.466-.114.726-.756.726-.756m-1.269.183c.472.029.821-.52.821-.52m10.453 1.94l.023-.066c-.051.146-.039.079.139-.065h.348c.144.002.217.032.348.065l.231.166" fill="none"/><path fill="#330F10" fill-opacity=".1" d="M5.45 37.303c-.015.073.168.174.275.179.112-.072.116-.1.193-.22l.012-.056-.238-.235-.057.054-.091.129-.018.031-.041.068-.035.05zm2.09-.012c.066-.075.094-.142.132-.254.049-.192.061-.352.049-.558l-.033-.183-.26.123.015.079c.007.102 0 .173-.025.267l.005.052.117.474zm.177-1.249c.086.011.134.046.209.111.113.126.181.254.247.441l.039.186-.27.107-.016-.081c-.031-.093-.064-.148-.12-.209l-.015-.05-.074-.505zm-.417 1.614c.072-.122.131-.051.152-.202.012-.249-.019-.44-.096-.675l-.101-.197-.332.273.045.085c.04.114.05.202.043.323-.017.108.002.143.082.176l.207.217z"/><path d="M16.167 38.258c.145.002.217.033.348.066l.232.166m-1.259-1.185c.142-.038.217-.028.35-.032l.25.099m-2.851.332l-.227-.047-.153-.138m1.286-1.614l-1.125-.032-1.125-.032m-1.494.462l.222-.078.178.045" fill="none"/><path fill="#330F10" fill-opacity=".1" d="M3.228 35.654l-.117.172c-.08.066-.121.06-.198.052l-.043-.21.042-.126.028.017.105-.039.019.005.164.129z"/><path d="M6.029 35.707c-.014.337-.19.517-.19.517m.012-.674c-.091.367.026.663.026.663m.874-.233c-.021.333.135.541.135.541m.059-.664c.052.377-.094.646-.094.646" fill="none"/><path fill="#330F10" fill-opacity=".1" d="M5.666 38.863c-.012.271-.348.199-.49.199l.04-.07.19-.116.26-.013zm.325-.122c-.011.381-.297.28-.419.281l.035-.101.162-.163.222-.017zm.524.017c-.015.567-.408.417-.575.419l.047-.149.223-.243.305-.027zm.517-.009c-.015.567-.408.417-.575.419l.047-.149.224-.242.304-.028zm-1.874 0c-.012.567-.348.417-.491.419l.041-.149.19-.242.26-.028z"/><path fill="#330F10" fill-opacity=".599" d="M5.41 37.202c-.046.144-.122.255-.11.344l-.071-.033c.056.021-.064-.232-.092-.185l.067-.051.015-.027.034-.018.157-.03z"/><path d="M8.023 35.645c.036.019.126.002.292.074-.068.104-.246.165-.315.134m4.146 2.205l-.263.015-.193-.095m-.582.462c.198.055.312.053.506.072l.393-.073m-3.571-.551c-.204.072-.3.077-.367.014m.595-.191c-.179.072-.281.097-.37.038m.672-.255c-.119.072-.187.097-.246.038m.457-.205c-.146.071-.229.097-.301.038m-5.452-3.111c.024.152-.012.187-.047.322-.036.136.012.373.012.373m.486-.504c-.135.168-.118.481-.118.481m-.982-.407c.241.024.362.217.413.386l.086.264" fill="none"/></g><path fill="#0193C9" d="M18.909 0h45v48h-45z"/><path fill="#FFD009" d="M42.929 5.269c-.133.139-.178.277-.151.461.036.267.036.267-.317.193-.673-.12-1.93-.055-2.708.147-1.054.276-1.559.258-2.778-.129-.144-.045-.134 0 .088.425.265.507.389.608 1.008.839l.399.147-.717.194c-.39.11-.778.202-.859.202-.291 0-.15.166.266.313.603.212 1.239.185 2.541-.138.92-.221 1.31-.276 1.885-.249.397.01.752.064.787.101.044.038-.169.295-.451.572-.434.405-.593.498-.85.508-.178 0-.451.027-.603.055-.265.056-.274.074-.274.59v.535l-2.053 2.011c-1.132 1.106-2.194 2.084-2.354 2.186-.158.102-.319.249-.363.332-.097.185.018.516.205.59.114.046.043.203-.355.774-.575.83-1.017 1.716-1.362 2.702l-.248.691-.143-.507c-.229-.812-.406-1.991-.406-2.766 0-.71 0-.71.461-1.393.557-.83 1.866-2.25 2.592-2.822.292-.23.788-.544 1.107-.701.708-.341.884-.499.884-.757 0-.304-.212-.452-.547-.378-.196.037-.984-.092-2.329-.378-1.115-.231-2.044-.434-2.053-.434 0-.009.088-.406.212-.885.143-.563.292-.959.435-1.116.264-.295.273-.636.009-.895-.443-.434-1.107-.055-1.01.572l.045.314-.584.064c-.318.037-1.08.203-1.681.378-1.222.351-2.177.406-2.805.175l-.372-.138c-.018 0-.027.102-.027.231 0 .396.24.747.629.95l.372.194-.248.064c-.133.037-.531.037-.894.009s-.655-.028-.655 0c0 .194.434.71.717.857.619.333 1.911.212 3.345-.313.717-.259 1.646-.332 1.584-.13-.035.111-1.284 1.089-3.425 2.684-1.08.803-1.248 1.024-1.08 1.411.088.212.062.295-.204.757-.575 1.014-1.115 2.757-1.115 3.643 0 .443-.026.479-.611 1.125-1.195 1.309-3.531 4.363-4.036 5.275l-.159.285-.168-.22c-.336-.444-1.043-.194-1.043.369 0 .386.23.609.646.609.23 0 .69.183 1.487.607l1.16.6-.222.249c-.424.479-.513.857-.292 1.181.106.147.24.176.735.176.531 0 .708.046 1.318.359.602.312.833.507 1.716 1.467 2.735 2.977 3.408 3.597 5.045 4.646.947.609 2.672 1.494 3.521 1.818 2.762 1.032 5.806 1.225 8.682.553 1.327-.313 2.301-.674 3.575-1.337.708-.379 1.054-.507 1.07-.435l.188.591c.149.507.592 1.281.778 1.356.062.018 1.478-.186 3.159-.453s3.079-.488 3.114-.499c.168-.008.372-1.014.372-1.796 0-.805-.018-.859-.39-1.615-.478-.96-1.203-1.752-1.903-2.084l-.495-.239.213-.286c.982-1.355 2.141-3.303 2.594-4.345l.255-.6.461-.008c.247 0 .479-.038.505-.084.026-.036-.009-.423-.079-.848l-.134-.804.354-.018h.354v-2.093l1.531-3.034c.832-1.669 1.61-3.136 1.725-3.246.276-.286.24-.719-.088-.969-.203-.157-.273-.166-.496-.073-.273.12-.485.479-.406.682.026.074-.044.277-.141.461-.161.286-.231.323-.426.286-.133-.028-1.142-.203-2.248-.397l-1.999-.35-.983 1.844c-.54 1.015-.973 1.854-.964 1.873.018.009 1.044.092 2.283.175s2.274.175 2.292.193c.019.009-.283.59-.664 1.282l-.69 1.245h-2.036c-1.769 0-2.035.018-2.132.147-.089.128-.133-.009-.301-.803-.274-1.337-.54-3.099-.54-3.56 0-.452.391-1.383 1.099-2.638 1.052-1.863 2.557-3.67 3.157-3.791.515-.101.878-.387.878-.691 0-.314-.144-.462-.496-.507-.238-.028-3.363-1.31-3.504-1.439-.089-.074.353-1.66.512-1.854.47-.554-.433-1.347-.938-.821-.194.203-.229.637-.062.821.089.092-.008.101-.469.037-.894-.111-1.743-.065-2.539.148-.885.239-1.576.249-2.354.018-.336-.092-.593-.129-.593-.083 0 .212.381.784.646.968.159.111.443.24.638.277l.346.083-.531.156c-.284.083-.699.203-.921.259l-.397.11.353.166c.532.249 1.461.221 2.594-.074.646-.166 1.203-.239 1.762-.249.698-.01 1.034.055.901.156-1.186.978-5.265 4.196-5.725 4.519-.708.498-.815.646-.815 1.079 0 .24.044.313.258.397l.256.091-.309.507c-.178.277-.452.821-.619 1.208l-.311.701-.159-.323c-.151-.323-.301-.932-.391-1.623-.044-.323 0-.471.372-1.135.523-.95 1.363-2.129 1.842-2.591.203-.194.397-.406.433-.461.071-.129-.194-.461-.371-.461-.133 0-3.301-2.287-3.301-2.379 0-.258.479-1.586.619-1.725.098-.092.177-.286.177-.434-.005-.543-.687-.829-1.075-.422zm1.813 4.14c.655.479 1.195.895 1.204.922 0 .065-2.318.932-2.363.886-.017-.019.106-.332.274-.692.177-.359.319-.709.319-.784 0-.138-.851-.608-1.098-.608-.213 0-.248-.157-.133-.554l.106-.369.248.166c.135.083.78.554 1.443 1.033zm11.116.369c0 .056-3.558 1.208-3.603 1.172-.019-.019.495-1.91.638-2.343.025-.074.521.102 1.495.507.806.342 1.47.636 1.47.664zm-13.761-1.024c-.026.056-.098.103-.15.103s-.053-.057.017-.14c.124-.156.23-.119.133.037zm9.495 1.273c-.194.655-.39 1.217-.425 1.255-.052.064-1.274.479-3.273 1.116-.646.203-.726.212-.532.064l2.347-1.891c1.167-.931 2.15-1.706 2.177-1.706.034-.009-.099.516-.294 1.162zm-16.796-.193c1.858.396 1.894.405 1.549.507l-1.974.581-1.717.499.062-.25c.195-.848.426-1.669.47-1.669.035-.001.751.147 1.61.332zm-2.699.424l-.222.774-.176.664-.691.194c-.372.101-.956.276-1.292.378-.336.092-.584.157-.567.129.072-.065 2.938-2.25 2.966-2.25l-.018.111zm8.354.414c.105-.027.185-.027.185-.009 0 .148-1.636 2.306-1.796 2.371l-1.149.442-.966.36.734-.719c.407-.387 1.178-1.135 1.709-1.66.637-.627.99-.913 1.035-.839.035.064.142.082.248.054zm.796.757l-.265.831-.673.23c-.372.129-.681.231-.69.212-.018-.01.309-.489.718-1.061.592-.821.786-1.032.954-1.032h.221l-.265.82zm1.982-.277l.248.167-.761.276c-.415.157-.743.23-.726.176l.186-.582.151-.489.326.147c.178.074.435.213.576.305zm1.168 5.607l.23.489-.222.756c-.266.941-.451 1.873-.593 3.016-.088.737-.159.95-.46 1.466-.186.332-.389.719-.435.867-.158.471-.247.148-.301-1.125-.061-1.383.054-2.784.328-4.103.187-.876.628-2.306.859-2.767l.132-.277.115.59c.073.332.224.821.347 1.088zm-11.557.01c.009.535.23 1.596.496 2.416.177.544.203.738.133 1.052-.045.203-.124.83-.178 1.374-.168 1.762.105 3.441.832 4.998.223.453.416.932.451 1.052l.062.222-.247-.193c-.734-.543-1.505-1.613-1.929-2.675-.265-.654-.283-.756-.097-.756.115 0 .132-.193.132-1.153v-1.153h-.265c-.23 0-.275-.046-.372-.396-.071-.231-.116-.885-.116-1.632 0-1.365.125-1.937.691-3.255.301-.704.398-.676.407.099zm18.947 1.697c.115.848.459 2.674.655 3.449.115.47.115.553-.044 1.033-.098.286-.152.572-.134.627.027.064-.151.332-.38.6-.417.478-.426.488-.531.286-.426-.84-.584-2.969-.318-4.417.115-.636.565-2.333.62-2.333.017-.002.071.339.132.755zm-25.177 1.705l.124.563-.734 2.804-.743 2.794-.284-.028c-.372-.046-3.009-1.31-3.009-1.446 0-.352 2.522-3.736 3.938-5.294l.531-.582.026.305c.019.174.089.571.151.884zm2.787-.092c0 .046-.115.471-.248.95l-.248.875-.601.029c-.336.018-.647-.009-.699-.064-.124-.13.009-.793.23-1.135.231-.36.868-.719 1.274-.719.16 0 .292.027.292.064zm1.912 1.301c.168.23.301.452.301.489 0 .045-.363.082-.806.082h-.804l.053-.258.195-.738.132-.479.31.25c.177.137.451.432.619.654zm-4.142.507c.159.387.195.663.195 1.43v.94h.575l.017.812c.009.443.098 1.135.195 1.531.177.784.142 1.162-.141 1.162-.08 0-.549-.249-1.044-.555-.486-.304-1.008-.59-1.159-.646l-.265-.101.664-2.527c.363-1.392.69-2.535.716-2.535.035 0 .142.221.247.489zm16.797 3.135c.203 1.07.575 2.076 1.151 3.126.273.499.486.923.468.941-.088.082-.991.231-1.07.185-.124-.084-.62-1.198-.956-2.158-.38-1.08-.726-2.573-.663-2.851.025-.128.221-.59.424-1.023l.364-.784.07.904c.035.498.124 1.244.212 1.66zm6.628-.303c.346.183.443.275.426.433-.019.167.026.203.266.231.469.046.389.268-.346.931-.381.341-.727.618-.779.618-.203 0-1.069-1.097-1.354-1.706l-.291-.646.238-.064c.513-.13 1.38-.037 1.84.203zm-1.195 1.909l.514.535-.23.165c-.31.221-2.345 1.263-2.39 1.227-.017-.019.203-.849.479-1.845l.514-1.816.301.599c.167.332.529.839.812 1.135zm-3.008.6c-.257.82-.495 1.54-.53 1.585-.115.12-.203-.543-.143-1.032.107-.748.319-1.281.691-1.726.194-.229.371-.404.397-.379.017.02-.167.72-.415 1.552zm-9.752-1.385c-.026.064-.213.656-.425 1.32-.204.653-.407 1.234-.442 1.272-.035.045-.222 0-.416-.103-.292-.156-.362-.249-.46-.655-.106-.45-.106-.489.115-.885.283-.497.699-.839 1.167-.958.478-.119.505-.119.461.009zm1.495.129c.16.047.223.186.345.812.106.479.328 1.087.629 1.706l.46.949-.46-.054c-.257-.028-.867-.149-1.354-.25l-.903-.195.213-.71.451-1.51c.229-.802.265-.849.619-.748zm1.956.774l.921.461-.408.48c-.229.268-.478.674-.557.903-.079.231-.168.453-.203.489-.16.185-1.151-2.213-1.151-2.776-.001-.193.327-.081 1.398.443zm1.858 1.025c.973.619 2.273 1.644 2.098 1.661-.045 0-.55.036-1.106.083-.558.036-1.426.054-1.92.025l-.903-.054.054-.286c.079-.442.354-.959.752-1.401.195-.222.371-.407.389-.407.025 0 .309.167.636.379z"/><path fill="#010202" d="M42.936 5.278c-.124.138-.177.295-.15.47l.035.249-.451-.064c-.77-.12-1.823-.064-2.566.147-.867.24-1.513.249-2.291.019-.328-.092-.594-.129-.594-.083 0 .157.247.581.469.793.115.12.407.286.637.378l.435.176-.533.157c-.283.083-.656.175-.814.202-.434.075-.417.167.079.341.638.212 1.08.185 2.487-.138.955-.221 1.39-.276 1.93-.249.38.01.726.064.77.111.035.037-.168.295-.46.572-.39.369-.602.498-.797.498-.141 0-.416.027-.593.055l-.336.065v1.06l-2.018 1.973c-1.107 1.088-2.178 2.093-2.391 2.223-.3.203-.371.305-.371.525 0 .176.062.304.178.369.158.092.142.138-.328.812-.585.849-.832 1.347-1.274 2.508l-.327.876-.186-.646c-.249-.876-.363-1.688-.363-2.619 0-.766 0-.774.391-1.337 1.185-1.715 2.884-3.311 3.964-3.707.468-.166.69-.378.69-.646 0-.258-.274-.433-.566-.35-.16.037-4.275-.738-4.364-.831-.017-.009.08-.414.204-.894.143-.554.311-.95.443-1.107.265-.295.274-.636.009-.895-.442-.434-1.106-.037-1 .59l.052.286-.734.11c-.398.056-1.15.231-1.655.388-1.106.341-2.124.396-2.691.147-.433-.194-.407-.203-.407.11 0 .351.301.729.743.941l.355.166-.248.064c-.133.028-.558.037-.947.019-.381-.028-.699-.009-.699.028 0 .166.583.765.858.876.592.258 1.92.092 3.336-.415.594-.221 1.505-.268 1.452-.083-.027.064-.956.811-2.072 1.65-1.115.849-2.132 1.642-2.265 1.771-.275.259-.318.545-.125.729.106.101.097.156-.053.369-.575.848-1.31 3.098-1.31 4.011 0 .387-.044.461-.778 1.3-1.479 1.688-3.257 4.011-3.77 4.924l-.239.425-.213-.222c-.256-.268-.602-.286-.841-.037-.389.406-.088 1.015.486 1.015.204 0 .699.203 1.47.6l1.15.607-.266.323c-.637.747-.354 1.438.523 1.282.788-.14 2 .627 3.248 2.058 1.982 2.259 3.08 3.272 4.673 4.296.442.286.841.546.886.592.185.154 2.158 1.114 2.77 1.346 2.761 1.032 5.813 1.227 8.681.553 1.327-.313 2.301-.674 3.575-1.337.708-.379 1.053-.507 1.071-.435l.187.591c.149.507.592 1.283.778 1.356.061.018 1.478-.186 3.159-.453 1.681-.266 3.079-.488 3.114-.497.169-.01.372-1.016.372-1.798 0-.803-.018-.859-.39-1.605-.478-.949-1.176-1.724-1.884-2.084-.461-.231-.496-.268-.398-.424l.681-.978c.673-.978 1.69-2.74 2.045-3.57l.266-.608h.485c.461 0 .488-.01.443-.211-.062-.306-.221-1.283-.221-1.375 0-.036.168-.074.371-.074h.362l-.053-.977-.054-.986 1.559-3.1c.857-1.706 1.645-3.2 1.761-3.338.363-.396.23-.876-.284-1.042-.282-.092-.654.258-.654.608 0 .157-.089.424-.186.6-.159.258-.23.304-.425.268-.911-.203-4.106-.71-4.195-.673-.114.046-1.92 3.384-1.92 3.559 0 .056.133.102.292.102.15 0 1.08.064 2.054.139.974.074 1.876.139 2.009.139.229 0 .229.009-.479 1.291l-.717 1.291h-2.053c-2.053 0-2.062 0-2.106.203-.036.111-.071.185-.098.157-.08-.075-.575-2.749-.707-3.818l-.133-1.015.521-1.116c1.062-2.288 3.045-4.906 3.806-5.054.513-.092.885-.378.885-.683 0-.313-.142-.479-.416-.479-.203 0-3.451-1.328-3.593-1.466-.088-.092.327-1.605.514-1.881.186-.286.168-.554-.07-.784-.267-.258-.602-.258-.842.01-.204.221-.265.655-.106.756.203.129.062.203-.238.129-.603-.148-1.965-.102-2.726.102-.895.23-1.734.23-2.426.009-.3-.092-.54-.157-.54-.138l.125.341c.177.434.566.766 1.062.913l.425.129-.646.194c-.363.11-.77.23-.922.258l-.264.074.309.138c.584.267 1.381.249 2.727-.064 1.177-.268 2.018-.342 2.477-.212.178.055-.176.369-2.522 2.241-1.503 1.198-2.929 2.315-3.167 2.481-.549.378-.743.627-.752.931 0 .249.238.544.434.544.07 0 .044.093-.07.259-.23.341-.982 1.899-.982 2.038 0 .056-.035.102-.08.102-.142 0-.434-.868-.54-1.587l-.097-.719.451-.793c.486-.868 1.389-2.112 1.894-2.61.381-.387.407-.618.079-.766-.336-.148-3.31-2.305-3.363-2.425-.052-.167.382-1.485.585-1.762.229-.313.237-.626.007-.866-.238-.249-.654-.24-.884.018zm.708.213c.168.212.027.525-.239.489-.301-.038-.451-.286-.301-.48.15-.185.399-.194.54-.009zm9.734.276c.125.156.044.47-.142.544-.194.074-.478-.101-.478-.295.001-.35.408-.516.62-.249zm-10.727.525c.302.055.567.129.594.166.017.037-.044.323-.142.637-.15.46-.213.562-.336.507-.081-.037-.381-.12-.673-.185-.609-.147-1.203-.083-2.744.286-.529.12-1.131.231-1.327.221l-.353-.008.265-.092c.877-.304 1.196-.47 1.196-.637 0-.147-.071-.175-.417-.175-.469 0-1.053-.24-1.265-.507-.125-.157-.116-.166.044-.102.39.166 1.584.175 2.169.009 1.061-.294 1.831-.331 2.989-.12zm-8.884.277c.116.193-.017.471-.229.516-.143.028-.426-.211-.426-.35s.283-.378.426-.35c.07.018.177.101.229.184zm18.602.175c.282.065.559.139.594.175.079.074-.188 1.199-.284 1.199l-.486-.138c-.655-.213-1.452-.167-2.771.138-.646.147-1.354.276-1.557.268h-.371l.53-.212c.833-.332.851-.351.823-.507-.017-.102-.169-.166-.513-.203-.486-.055-1.001-.267-1.106-.461-.044-.064.062-.074.363-.019.629.101 1.318.056 2.071-.147.76-.203 1.929-.249 2.707-.093zm-19.08.868c0 .027-.079.396-.186.82l-.186.766-.762-.046c-.681-.037-.867-.009-1.61.239-1.61.535-2.628.618-3.159.24l-.248-.175.709-.056c.389-.028.92-.12 1.186-.212l.486-.175-.725-.239c-.646-.222-1.098-.489-.983-.59.018-.019.319.009.656.055.672.102.902.064 2.654-.434.726-.212 2.168-.332 2.168-.193zm9.531.451l-.159.508c-.062.212-.159.378-.222.378-.114 0-.088-.102.187-.904.017-.055.079-.11.142-.11.052 0 .08.055.052.128zm1.682 1.171c.77.554 1.406 1.051 1.425 1.088.025.074-2.283.959-2.345.895-.019-.018.114-.351.301-.747l.336-.71-.204-.166c-.105-.092-.389-.24-.62-.332-.229-.083-.45-.194-.485-.222-.062-.055.098-.831.168-.831.018.001.653.463 1.424 1.025zm8.079-.71c0 .074-.079.387-.168.71-.098.323-.256.886-.354 1.245-.142.498-.23.673-.371.71-.124.037-.168.01-.142-.064.025-.064.212-.673.415-1.355.204-.683.39-1.263.416-1.31.062-.111.204-.074.204.064zm3.275 1.264c0 .055-3.549 1.217-3.593 1.162-.027-.028.485-1.964.619-2.343.035-.074.513.083 1.504.507.806.342 1.47.637 1.47.674zm-13.77-.987c-.026.083-.089.12-.143.092-.044-.028-.035-.111.027-.185.134-.165.196-.119.116.093zm9.514 1.218c-.196.655-.407 1.236-.46 1.291-.098.093-1.071.416-3.143 1.061-.459.139-.806.23-.778.203.114-.121 4.699-3.781 4.717-3.763.017 0-.142.543-.336 1.208zm-10.169-.378c-.07.682-.177.747-.177.11 0-.406-.026-.526-.133-.526-.097 0-.085.113-.103.51l-.065.551-.105-.311c-.027-.249 0-.657-.054-.722-.071-.092-.009-.12.301-.12h.391l-.055.508zm.468-.443c.019.046-.018.323-.07.627l-.105.553-.035-.627c-.027-.433-.01-.618.07-.618l.14.065zm-1.265.581c0 .304-.035.553-.088.553s-.089-.249-.089-.553.036-.554.089-.554.088.25.088.554zm1.789-.397c-.054.092-.115.341-.151.553-.035.221-.097.396-.149.396-.055 0-.072-.11-.036-.286.026-.157.054-.405.054-.553 0-.203.044-.268.176-.268.15.001.166.039.106.158zm1.026.212c.203.092.371.222.371.277s-.105.313-.229.572c-.15.313-.257.434-.319.369-.053-.055-.026-.212.098-.461.106-.211.186-.442.186-.525 0-.276-.186-.129-.372.295-.247.544-.238.525-.292.471-.025-.028.019-.222.089-.443.159-.479.168-.646.019-.646-.062 0-.194.24-.284.525-.186.591-.282.48-.142-.156.044-.221.062-.442.035-.489-.072-.12.354-.01.84.211zm-10.69.074c0 .305-.435 1.798-.55 1.872-.177.12-.185.037-.035-.507l.283-1.024c.133-.488.302-.682.302-.341zm2.079.157c.876.185 1.654.351 1.726.387.071.028-.761.304-1.858.627-1.097.314-2.009.563-2.026.545-.018-.019.026-.268.106-.563.08-.294.187-.709.238-.931.054-.212.124-.387.159-.387.036-.001.779.147 1.655.322zm21.992.267c0 .193-.204.332-.771.507-.283.092-1.708.608-3.168 1.153l-4.505 1.678c-1.39.517-1.938.683-2.212.665-.267-.019-.372-.074-.391-.194-.061-.332.337-.608 1.346-.941 4.248-1.401 9.257-2.987 9.46-2.987.142-.01.241.036.241.119zm-24.886.765c-.097.397-.211.748-.239.784-.052.064-.823.304-2.256.71-.194.056-.31.056-.266.019.125-.12 2.877-2.223 2.912-2.223.017 0-.053.323-.151.71zm5.947-.433c0 .147-.291.258-2.973 1.098-5.717 1.78-6.672 2.056-6.806 2.01-.106-.046-.115-.102-.026-.286.105-.258.15-.276 2.15-.83.637-.175 2.442-.692 4.026-1.153 3.575-1.033 3.478-1.005 3.566-.959l.063.12zm2.646.212c.159-.037.018.203-.646 1.144l-.849 1.199-1.124.424c-.62.23-1.133.415-1.15.406-.009-.019.744-.756 1.672-1.661 1.204-1.162 1.718-1.614 1.788-1.549.061.055.194.065.309.037zm.708.794l-.265.82-.664.249c-.363.138-.682.24-.691.222-.017-.019.292-.498.691-1.07.602-.867.752-1.033.955-1.042h.239l-.265.821zm.761-.711c-.336 1.144-.424 1.365-.548 1.365-.071 0-.116-.056-.098-.12.026-.055.133-.387.239-.738.124-.369.247-.618.327-.618.062.001.106.056.08.111zm4.514-.027c-.053.046-1.124.507-2.39 1.023-1.265.517-3.478 1.42-4.912 2.001-1.433.59-2.751 1.106-2.919 1.144-.363.092-.62.027-.62-.139 0-.157.345-.304 3.098-1.337 1.238-.461 3.39-1.273 4.778-1.798 2.266-.867 3.213-1.143 2.965-.894zm-3.293.461l.249.166-.735.277c-.406.157-.743.277-.752.267-.018-.019.035-.231.115-.479l.177-.572c.034-.129.468.027.946.341zm11.602.489c-2.682 2.933-4.583 7.94-4.204 11.048.054.442.179 1.042.275 1.337l.177.562c0 .009-.194-.064-.425-.175l-.425-.203-.397-1.401c-.213-.766-.399-1.383-.417-1.365-.027.028.372 2.13.478 2.554.035.139-.009.167-.265.167-.346 0-.266.184-.823-1.882-.133-.498-.257-.866-.266-.82-.018.046.089.664.229 1.374.143.701.258 1.283.248 1.301l-.248.073c-.229.055-.229.046-.609-1.337-.213-.756-.391-1.375-.407-1.355-.026.027.327 2.083.451 2.619.035.146-.009.23-.143.313-.247.138-.265.11-.61-1.181-.159-.572-.309-1.024-.327-1.005-.026.018.062.572.187 1.227l.239 1.18-.204.167c-.23.202-.238.193-.514-.831-.115-.424-.222-.747-.239-.728-.018.018.026.405.098.848.178 1.043.178 1.115-.027 1.235-.158.083-.185.047-.326-.462-.186-.708-.258-.654-.115.092.08.453.08.609-.009.795-.16.304-.23.275-.337-.129-.089-.324-.089-.306-.052.165.044.563-.072.885-.24.646-.07-.101-.079-.064-.044.186.027.175 0 .571-.062.875l-.115.545-.319-.682c-.733-1.569-.982-2.769-.991-4.797 0-1.19.045-1.762.196-2.601.521-2.923 1.839-5.792 2.654-5.792.079 0 .097.064.062.202-.044.176-.025.157.124-.063.098-.148.257-.304.362-.342.178-.065.178-.065.036.212-.071.157-.116.304-.09.332.019.028.107-.083.179-.23.326-.655.654-.765.396-.138-.203.507-.167.479.223-.121.15-.24.362-.47.469-.506.195-.075.186-.046-.106.562-.168.359-.3.645-.273.645.018 0 .238-.332.485-.728.258-.397.54-.747.629-.775.143-.037.115.065-.186.682-.186.397-.328.729-.31.729s.238-.332.495-.748c.425-.673.726-1.004.903-1.004.035 0-.143.359-.382.802-.83 1.503-.805 1.521.142.074.382-.581.753-1.061.815-1.061.106 0 .088.064-.045.295-.566.996-1.071 1.918-1.035 1.918.018 0 .398-.553.841-1.235.495-.748.886-1.255 1-1.291l.213-.028c.009.019-.311.562-.708 1.226-1.187 1.928-1.143 1.918.203-.037.787-1.144 1.177-1.586 1.283-1.476.017.019-.292.544-.673 1.181-.823 1.337-.921 1.512-.813 1.448.035-.027.486-.673.999-1.438.682-1.015 1-1.411 1.186-1.485.143-.046.275-.073.302-.055.018.027-.47.812-1.08 1.752-.619.94-1.106 1.715-1.08 1.715.019 0 .637-.839 1.373-1.872l1.326-1.872.558-.193.594-.203c.015-.009-.205.249-.489.563zm-9.39.276c-1.425 1.873-2.451 4.261-2.921 6.834-.22 1.235-.22 4.287.01 5.551.203 1.153.654 2.712 1.062 3.708.167.424.292.765.273.765-.079 0-.885-.664-.937-.774-.037-.055-.391-1.292-.797-2.748-.407-1.457-.754-2.638-.771-2.619-.009.018.248 1.18.583 2.581.337 1.401.594 2.546.575 2.546-.025 0-.149-.063-.282-.146-.213-.131-.31-.388-.895-2.443-.361-1.256-.663-2.279-.682-2.26-.017.009.196.968.461 2.111.266 1.152.487 2.112.487 2.141 0 .025-.115-.011-.257-.093-.283-.146-.283-.139-1.035-2.832-.187-.655-.346-1.162-.363-1.143-.018.018.142.811.363 1.77.212.959.38 1.751.371 1.772-.019.008-.159-.038-.327-.112-.302-.129-.311-.147-.735-1.75-.239-.896-.451-1.605-.468-1.587-.019.009.105.701.274 1.513.31 1.539.301 1.603-.106 1.364-.159-.093-.292-.368-.549-1.17-.381-1.181-.434-1.171-.178.046.098.453.16.839.142.859-.018.019-.168 0-.327-.038-.273-.074-.327-.146-.549-.774-.133-.388-.221-.544-.194-.36l.105.618c.045.277.027.304-.158.304-.302 0-.382-.083-.602-.554-.177-.396-.187-.368-.062.203.054.241.035.26-.248.26-.213 0-.318-.046-.345-.167-.036-.118-.044-.118-.053.038-.009.229-.452.368-.559.193-.044-.074-.07-.064-.07.026 0 .074-.133.231-.293.342-.158.12-.388.378-.503.581-.124.203-.257.368-.293.368-.105 0-.575-1.152-.778-1.927-.265-1.015-.327-2.923-.124-4.159.282-1.789 1.018-3.597 1.965-4.878.461-.618.576-.71 1.133-.95.336-.148.664-.24.727-.221.061.027.114.009.114-.046 0-.083.362-.277.425-.221.008.009-.019.138-.071.286l-.089.268.16-.221c.434-.646.646-.756.459-.239-.149.405-.035.377.168-.038.107-.203.267-.415.364-.47.168-.092.168-.092-.009.332-.248.608-.151.6.177 0 .15-.277.354-.554.452-.609.229-.129.229-.111-.089.655-.142.351-.239.636-.223.636.019 0 .231-.35.479-.774.247-.424.513-.793.583-.831.177-.063.177-.073-.211.821-.196.434-.337.784-.328.784.017 0 .238-.359.504-.802.256-.442.54-.876.628-.969.371-.386.318-.101-.141.803-.275.535-.479.968-.46.968.017 0 .345-.498.716-1.106.594-.959.841-1.263.841-1.051 0 .037-.238.534-.54 1.106-.292.581-.513 1.051-.495 1.051.026 0 .371-.544.77-1.208.619-1.024.99-1.457 1.134-1.328.025.028-.78 1.503-1.381 2.536-.354.6.133-.092.946-1.355.779-1.199 1.098-1.595 1.213-1.485.009.019-.258.526-.602 1.134-1.019 1.826-1.054 1.891-1.01 1.891.018 0 .496-.737 1.054-1.642.832-1.328 1.079-1.66 1.31-1.743.159-.064.301-.111.309-.092.01.009-.309.562-.707 1.217-1.275 2.112-1.469 2.444-1.434 2.444.018 0 .61-.867 1.311-1.937 1.035-1.577 1.318-1.956 1.573-2.066.553-.244.553-.17.03.512zm-9.627-.184c-1.46 1.253-2.778 2.978-3.548 4.638-.61 1.319-.858 2.361-.858 3.67 0 .821-.018.969-.115.885-.071-.055-.125-.295-.133-.535 0-.231-.035-.637-.08-.886-.062-.442-.062-.442-.08.249 0 .397-.026.72-.044.72-.274 0-.318-.138-.328-1.005-.008-.745-.026-.82-.089-.47-.036.231-.071.59-.071.803-.009.295-.035.378-.133.341-.08-.037-.142-.332-.195-.987l-.08-.94-.026.848c-.009.47-.035.857-.062.857-.239 0-.309-.157-.318-.682-.009-.803-.15-1.2-.159-.471-.018.691-.08.968-.239.968-.089 0-.124-.12-.133-.396 0-.212-.035-.554-.072-.756-.07-.314-.079-.259-.087.387-.009.591-.036.766-.133.766-.151 0-.221-.277-.238-.922-.018-.498-.018-.498-.089.184-.088.784-.124.922-.256.922-.045 0-.089-.211-.089-.489 0-.341-.026-.442-.088-.341-.044.074-.088.35-.088.618 0 .258-.035.507-.088.534-.054.037-.089-.064-.089-.249 0-.231-.027-.267-.088-.166-.044.074-.088.249-.088.388 0 .369-.098.581-.187.424-.052-.074-.08.019-.08.267 0 .221-.035.396-.07.396-.195 0-.478-1.355-.522-2.443-.035-.978-.018-1.218.186-2.011.23-.95.867-2.435 1.221-2.85.106-.129.3-.268.417-.304.185-.055.203-.046.15.101-.044.129 0 .111.186-.083.301-.287.567-.36.372-.092-.07.102-.026.083.098-.037.257-.23.708-.433.708-.304 0 .046-.035.111-.088.138-.044.027-.133.148-.186.258-.062.12.088.019.344-.24.664-.646.788-.6.292.12-.168.249-.106.212.31-.193.469-.471.833-.72.833-.582 0 .037-.151.249-.336.489-.62.784-.576.793.141.028.399-.415.761-.756.814-.756.125 0 .08.083-.513.876l-.469.646.779-.848c.663-.72 1.177-1.116 1.177-.904 0 .028-.318.442-.708.913-.389.479-.708.885-.708.913 0 .027.327-.314.726-.747 1.115-1.236 1.16-1.292 1.389-1.355.168-.056.098.083-.361.655-1.062 1.355-1.275 1.678-.594.913 1.292-1.458 1.628-1.79 1.894-1.854.248-.064.257-.064.133.12-.07.11-.566.728-1.097 1.383-1.655 2.029-1.611 2.001.292-.157 1.229-1.402 1.602-1.725 2-1.743.048-.007-.112.168-.359.38zm25.575 2.942c.124.387-.398.609-.54.221-.089-.23.036-.414.266-.414.141-.001.239.063.274.193zm-16.983 2.037l.248.526-.238.812c-.302 1.024-.479 1.927-.594 3.006-.079.664-.149.932-.354 1.264-.133.23-.346.608-.452.848-.114.25-.229.442-.266.442-.106 0-.194-1.761-.142-2.904.089-1.798.443-3.486 1.054-5.018l.283-.701.105.6c.055.332.215.84.356 1.125zm13.832-1.078c1.284.221 2.345.424 2.372.443.035.046-1.169 2.453-1.275 2.563-.053.046-4.194-.203-4.955-.304-.167-.028-.124-.147.576-1.458.778-1.438.902-1.66.928-1.66.01.001 1.071.185 2.354.416zm2.691-.268c.089.093-.106.406-.248.406-.159 0-.159-.046-.044-.286.097-.175.194-.221.292-.12zm-28.079 1.181c0 .664.221 1.863.495 2.647.221.627.221.645.079 1.383-.168.941-.177 2.888-.008 3.791.168.903.345 1.431.822 2.444.222.469.381.903.362.96-.044.129-.716-.453-1.158-1.006-.39-.48-.859-1.338-1.116-2.03-.186-.479-.186-.479-.009-.479.168 0 .177-.064.177-1.153v-1.153h-.265c-.221 0-.274-.046-.363-.35-.052-.185-.124-.821-.141-1.402-.035-.858-.009-1.208.141-1.863.187-.821.77-2.287.903-2.287.045 0 .081.221.081.498zm19.06 2.637c.124.784.328 1.854.452 2.371l.212.941-.168.525c-.097.286-.149.553-.124.6.027.046-.15.304-.397.572l-.443.479-.168-.425c-.575-1.382-.514-3.66.168-5.938.098-.341.195-.599.213-.581.017.008.132.673.255 1.456zm-25.3.922l.124.692-.735 2.767-.734 2.766-.301-.028c-.363-.026-3-1.299-3-1.446 0-.359 2.177-3.311 3.938-5.322.504-.581.531-.599.557-.369.009.138.08.563.151.94zm32.522-1.032c0 .018-.265.581-.593 1.226-.584 1.152-.61 1.189-.885 1.189-.159 0-.293-.027-.293-.055 0-.037.302-.608.673-1.273.61-1.097.699-1.217.887-1.18.114.018.211.065.211.093zm-29.779 1.207c-.026.148-.141.573-.248.951l-.203.673-.682.028c-.655.027-.682.018-.682-.185 0-.941.699-1.725 1.531-1.734.329.001.338.009.284.267zm.69.278c-.3 1.273-.327 1.346-.592 1.375-.212.027-.248 0-.212-.139.477-1.798.433-1.679.654-1.577.168.082.194.147.15.341zm1.311.866c.141.203.257.407.257.452 0 .036-.355.074-.797.074-.434 0-.796-.028-.796-.056 0-.063.257-1.134.31-1.309.061-.166.689.351 1.026.839zm-4.213.36c.186.425.221.627.221 1.476v.996h.593v.71c.009.396.098 1.096.203 1.567.204.905.16 1.227-.159 1.227-.088 0-.54-.23-1-.517-.451-.285-.973-.589-1.151-.674l-.318-.146.672-2.554c.372-1.411.682-2.564.7-2.564.018-.001.124.221.239.479zm30.752.276c0 .167.027.527.054.785l.062.489h-5.416l.221-.673.257-.784c.026-.083.603-.111 2.434-.111h2.389v.294zm-25.663.997v.83h-4.602v-1.66h4.602v.83zm11.601.996c.168 1.493.62 2.941 1.301 4.094.549.951.549.959.019 1.08-.248.055-.505.101-.566.101-.248 0-1.372-2.979-1.646-4.361-.115-.618-.062-.868.434-1.863l.318-.646.019.369c.015.202.068.755.121 1.226zm13.522.212c.054.37.089.673.071.691-.018.028-1.337.028-2.921.018l-2.894-.028.559-.664.548-.664h2.267l2.265-.009.105.656zm-25.885.748c.761 2.434 2.726 4.196 5.496 4.96 1.761.479 3.654.628 5.842.471 4.477-.323 6.538-1.217 9.132-3.946l1.168-1.228h1.682c1.097 0 1.69.037 1.69.093 0 .268-1.159 2.39-2 3.653-.646.968-.814 1.096-2.346 1.731-1.884.785-4.61 1.402-7.425 1.68-1.831.186-6.142.129-7.654-.093-1.982-.304-3.487-.663-5.009-1.217-1.239-.452-1.77-.71-3.221-1.577-1.566-.941-2.478-1.412-3.319-1.733-.805-.306-1.548-.342-1.884-.11-.266.183-.301.092-.106-.304.221-.445.717-.738 1.247-.738.603 0 1 .156 2.08.82 1.017.628 1.301.682 1.576.322.229-.304.229-.387.009-1.346-.098-.425-.177-1.089-.177-1.485v-.71h2.982l.237.757zm.62-.131c.521 1.412 1.549 2.75 2.637 3.413 1.496.922 3.549 1.421 6.372 1.549 4.212.195 8.247-1.291 10.629-3.92.353-.387.664-.654.77-.654.098 0 .177.037.177.093 0 .165-1.813 2.002-2.522 2.545-2.178 1.669-4.814 2.371-8.982 2.371-1.698 0-2.593-.103-3.938-.452-2.991-.774-4.912-2.509-5.655-5.091l-.132-.479h.212c.175-.001.237.1.432.625zm18.619-.129c.381.203.451.277.372.378-.08.101-.053.129.142.157.133.019.283.103.337.186.105.185-.143.496-.896 1.096-.539.444-.602.425-1.221-.304-.327-.396-.93-1.466-.93-1.669 0-.101.409-.138 1.063-.12.513.019.771.083 1.133.276zm-29.468-.11c.168.177.124.424-.072.488-.194.064-.442-.082-.442-.267 0-.137.177-.331.31-.331.052 0 .141.045.204.11zm26.203 2.176l-.549 1.937-.337.093c-.193.046-.345.064-.345.028 0-.028.247-.877.548-1.883.54-1.788.558-1.835.868-2.002.168-.092.318-.155.336-.137.018.009-.22.896-.521 1.964zm1.115-1.402c.133.287.495.803.806 1.145l.565.625-.636.389c-.744.471-1.966 1.034-2.001.932-.009-.036.195-.839.47-1.788.265-.95.487-1.745.487-1.772 0-.138.088.008.309.469zm-24.345.849c.15.046.15.057-.044.157-.186.11-.327.056-1.425-.518-.876-.46-1.204-.674-1.168-.764.036-.103.319 0 1.257.471.663.332 1.282.625 1.38.654zm22.186.941c-.266.913-.523 1.659-.559 1.659-.105 0-.185-.636-.124-1.088.098-.756.318-1.291.734-1.771.222-.249.408-.462.426-.462.01.001-.203.749-.477 1.662zm-9.761-1.366c-.026.064-.213.656-.425 1.32-.204.653-.407 1.234-.442 1.272-.035.045-.23-.01-.426-.11-.301-.167-.362-.249-.459-.646-.089-.398-.08-.491.071-.803.247-.499.637-.858 1.087-1.006.496-.155.638-.164.594-.027zm.796.028c.019.019-.168.692-.424 1.503l-.443 1.484-.265-.091c-.143-.056-.24-.148-.222-.203l.407-1.31c.46-1.502.478-1.549.726-1.466l.221.083zm.921.26c.035.055.071.211.071.34 0 .368.486 1.706.83 2.315.179.313.302.589.276.617-.054.064-1.258-.12-2.071-.313-.435-.093-.629-.186-.602-.258.026-.064.238-.746.468-1.522l.426-1.41.265.055c.151.037.301.109.337.176zm1.478.478c1.309.579 1.247.507.822 1.014-.38.453-.727 1.099-.727 1.366 0 .304-.168.146-.477-.425-.328-.599-.762-1.854-.762-2.176 0-.111.044-.195.098-.195s.523.185 1.046.416zm2.211 1.217c.372.24.982.683 1.372.986l.689.555-.247.083c-.301.101-3.618.139-3.707.046-.036-.028 0-.285.079-.571.105-.36.273-.655.594-1.016.247-.286.477-.515.503-.515.028.001.346.193.717.432zm-16.61.268c.814.304 1.734.785 3.292 1.716 1.877 1.125 3.133 1.66 5.177 2.195 2.381.617 4.505.856 7.487.856 4.638 0 8.398-.729 11.902-2.306.07-.036-.009.121-.186.351-.186.239-.513.507-.796.655-.708.368-2.267.875-3.62 1.181-1.053.24-1.124.268-.575.222 1.159-.093 2.548-.452 3.982-1.006.106-.046.035.083-.212.351-.336.359-.515.46-1.239.71-.469.156-1.646.424-2.62.591-.973.175-1.681.322-1.583.322.425.02 2.901-.378 3.707-.59.478-.129.885-.213.903-.195.026.021-.187.222-.452.453-.514.433-.955.591-2.406.849-.426.074-.575.121-.39.129.167 0 .672-.074 1.106-.167.441-.091.805-.155.823-.146.053.046-1.134.784-2.018 1.245-1.071.562-2.585 1.105-3.895 1.401-1.362.306-4.479.306-5.841 0-2.761-.627-6.15-2.369-8.009-4.121l-.442-.417.575.278c.646.304 1.877.682 2.478.774.249.036.062-.047-.486-.222-1.336-.424-2.929-1.273-3.576-1.898-.3-.286-.54-.556-.54-.592s.451.167 1 .461c1.239.674 2.398 1.116 3.92 1.53 1.442.379 1.93.406.699.038-2.946-.895-5.61-2.232-6.982-3.495-.903-.829-1.69-1.245-2.371-1.254-.275 0-.479-.027-.452-.074.091-.157 1.021-.057 1.64.175zm28.062 2.915l-.425.581-.346.461.549-.545c.61-.618.806-.636.363-.036l-.293.396.399-.378c.434-.433.699-.461.461-.054-.152.249-.152.249.025.082.098-.082.213-.157.248-.157s.282.212.549.471c.566.571 1.061 1.521 1.177 2.277.079.535.071.738-.09 1.505l-.087.414-2.921.479c-2.142.353-2.973.453-3.089.389-.229-.129-.575-.767-.734-1.356l-.133-.471.806-.617c.478-.36 1.39-1.227 2.186-2.076 1.275-1.365 1.568-1.651 1.355-1.365zm-.13-8.365v.415h.795v-.831h-.795v.416zm1.592 0v.415h.797v-.831h-.797v.416zm1.594 0v.415h.795v-.831h-.795v.416zm-3.451 1.752v.415h.795v-.831h-.795v.416zm2.565 0v.415h.797v-.831h-.797v.416zm-2.92 2.029c0 .323 0 .323.398.323s.398 0 .398-.323c0-.322 0-.322-.398-.322s-.398 0-.398.322zm1.859 0c0 .323 0 .323.398.323s.398 0 .398-.323c0-.322 0-.322-.398-.322s-.398 0-.398.322zm-20.443 3.967v.599h.796v-1.201h-.796v.602zm13.451.368v.599h.796v-1.199h-.796v.6zm-6.637.83v.6h.797v-1.2h-.797v.6zm-12.832-8.485v.416h.797v-.831h-.797v.415zm1.593 0v.416h.795v-.831h-.795v.415zm1.593 0v.416h.796v-.831h-.796v.415z"/><path fill="#0091C9" d="M63.631 35.866v12.134h-44.554v-12.879c.043.205.726.459 1.208.664.878.359.944.359 1.8-.309 1.163-.898 1.887-.873 3.204.104 1.976 1.464 2.502 1.49 3.095.205.439-1.002 1.426-1.002 3.116.025.724.438 1.47.771 1.688.771.199 0 .682-.411 1.055-.899.836-1.131 1.316-1.054 3.469.411 1.732 1.207 2.326 1.284 2.502.282.24-1.259.439-1.464 1.449-1.464.613.025 1.535.334 2.479.848.812.462 1.646.822 1.801.822.176 0 .373-.36.461-.797.066-.437.352-.95.592-1.156.592-.437 1.207-.257 3.139.899 1.932 1.131 2.48 1.027 2.48-.488 0-.462.416-.771 1.053-.771.199 0 1.01.462 1.822 1.054 1.756 1.232 2.238 1.232 2.393-.026.154-1.284.877-1.311 2.766-.154 1.404.9 2.982 1.263 2.982.724z"/><path fill="#fff" d="M39.83 38.337c-.535.001-1.23-.399-2.164-1.049-2.18-1.484-2.316-1.301-2.893-.517-.09.116-.842 1.079-1.395 1.079-.413 0-1.387-.521-1.899-.829-1.222-.743-1.821-.776-2.11-.671-.109.039-.27.126-.401.426-.227.493-.526 1.009-1.051 1.163-.663.197-1.456-.262-2.684-1.173-1.168-.868-1.7-.889-2.71-.108-.965.753-1.171.789-2.202.366-.43-.183-1.158-.562-1.267-1.071l.861-.236-.034-.091c.05.071.322.279.749.461.701.287.7.287 1.391-.252 1.307-1.012 2.24-.986 3.7.096.772.573 1.608 1.15 1.973 1.041.092-.026.242-.123.484-.647.204-.466.515-.78.922-.927.674-.241 1.564-.008 2.798.742.74.446 1.355.696 1.492.711.039-.029.383-.305.705-.726 1.1-1.489 1.932-1.121 4.033.31 1.391.968 1.693.934 1.746.896 0 0 .051-.049.092-.282.27-1.404.58-1.868 1.885-1.868.709.029 1.678.356 2.672.897.658.375 1.25.638 1.516.734.039-.077.086-.203.119-.368.078-.512.404-1.145.76-1.445.838-.622 1.635-.329 3.613.857 1.357.794 1.654.725 1.715.685 0-.001.113-.085.113-.731 0-.633.463-1.271 1.496-1.271.492 0 1.904 1.018 2.062 1.134 1.205.846 1.514.871 1.586.838-.002 0 .074-.076.127-.512.078-.653.297-1.074.666-1.286.559-.323 1.332-.108 2.75.761 1.156.74 2.014.931 2.203.865-.049.017-.137.115-.137.242h.888c0 .267-.117.497-.324.632-.621.413-2.037-.211-3.059-.865-1.35-.827-1.783-.822-1.918-.743-.119.067-.168.36-.189.529-.059.474-.182 1.046-.631 1.283-.555.293-1.285-.092-2.436-.899-.818-.597-1.482-.95-1.623-.981-.307.003-.574.122-.574.274 0 .566-.061 1.258-.539 1.586-.566.391-1.377.054-2.588-.653-1.965-1.177-2.344-1.183-2.691-.926-.131.112-.354.516-.4.822-.119.6-.414 1.212-.896 1.212-.35 0-1.5-.59-2-.876-.855-.465-1.738-.771-2.297-.794-.748 0-.793 0-1 1.07-.031.183-.133.765-.604.997-.124.06-.256.088-.401.088z"/><path d="M39.641 37.553c-.441 0-1.057-.312-2.088-1.029-2.195-1.495-2.432-1.351-3.064-.485-.275.358-.891 1.025-1.293 1.025-.361 0-1.296-.485-1.837-.812-1.013-.615-1.758-.846-2.212-.682-.21.076-.363.235-.48.503-.213.462-.492.945-.966 1.085-.614.18-1.38-.267-2.578-1.154-1.215-.901-1.803-.921-2.858-.105-.923.721-1.1.749-2.081.349-.327-.14-1.087-.51-1.184-.968l.604-.162-.301.081.289-.119c.044.077.327.306.808.512.766.312.767.315 1.514-.27 1.268-.979 2.13-.954 3.551.098.97.72 1.692 1.178 2.081 1.062.19-.056.36-.272.568-.725.188-.43.474-.719.845-.853.638-.231 1.495.003 2.695.732.774.468 1.418.724 1.545.729.082-.023.461-.313.816-.778 1.035-1.405 1.793-1.069 3.863.34 1.021.711 1.654 1.018 1.867.905.092-.044.143-.237.17-.392.271-1.421.6-1.746 1.752-1.746.682.028 1.654.358 2.615.883.725.412 1.404.709 1.627.775.051-.066.143-.236.197-.512.07-.476.383-1.081.707-1.357.777-.574 1.547-.283 3.473.868 1.014.594 1.633.828 1.846.681.082-.055.178-.249.178-.859 0-.67.549-1.12 1.363-1.12.369 0 1.465.725 1.99 1.108.35.245 1.426 1.003 1.713.849.051-.027.145-.145.203-.628.072-.602.268-.985.596-1.173.506-.293 1.268-.072 2.627.759 1.287.824 2.166.956 2.314.873l-.053.103h.621c0 .212-.094.396-.258.503-.537.354-1.855-.181-2.928-.866-.396-.243-1.617-.992-2.045-.747-.047.028-.195.113-.26.644-.053.435-.164.96-.555 1.167-.498.262-1.195-.109-2.309-.892-.861-.626-1.535-.979-1.672-1-.344 0-.729.132-.729.421 0 .527-.055 1.169-.477 1.458-.512.352-1.318.008-2.457-.659-1.92-1.148-2.389-1.237-2.826-.917-.162.141-.404.573-.457.922-.102.512-.361 1.088-.766 1.088-.279 0-1.307-.499-1.939-.859-.885-.481-1.766-.786-2.354-.812-.814 0-.912.039-1.133 1.189-.029.166-.121.69-.527.891-.105.05-.221.078-.351.078z"/><path d="M21.21 39.383c-.422.283-.374.305.374.196.631-.087 1.052.021 1.894.522 1.614.979 2.292 1.045 3.368.348 1.286-.805 1.801-.957 2.806-.739.771.152.842.152.538-.131-.654-.631-1.941-.631-3.086 0-1.31.696-1.941.718-3.414.021-1.334-.63-1.826-.674-2.48-.217zm24.132.653c-.889.544-1.871.979-2.199.979-.326 0-1.332-.414-2.221-.914-1.52-.849-1.66-.893-2.361-.632-1.941.74-3.203.979-4.139.74-1.076-.261-1.17-.087-.234.436.912.501 1.707.479 3.484-.108 1.473-.479 1.496-.479 2.221-.065 2.924 1.632 3.766 1.719 5.285.587 1.754-1.306 2.479-1.414 4.98-.652 1.496.457 1.613.457 2.338.131l.771-.37h-.957c-.539-.022-1.686-.262-2.525-.566-.865-.305-1.848-.544-2.199-.544-.373-.001-1.332.412-2.244.978zm13.748-.108c-.279.108-.584.282-.678.413-.188.305-1.402.305-2.057 0-.398-.174-.375-.108.141.326.795.675 1.379.719 2.408.131.725-.436.816-.436 1.637-.108 1.379.521 1.637.369.537-.327s-1.238-.718-1.988-.435zm-4.695 2.829c-.678.479-1.496.87-1.799.87-.281 0-1.17-.305-1.918-.675l-1.402-.696-.889.479c-.492.261-1.17.587-1.521.718-.373.152-.654.349-.654.436 0 .326.748.174 1.777-.392 1.146-.632 1.801-.588 2.922.13 1.545 1.045 2.035 1.002 3.742-.261 1.076-.806 1.824-.827 3.648-.087 1.355.522 1.52.544 2.221.261l.771-.305-.818-.021c-.443-.021-1.496-.326-2.291-.675-.818-.37-1.73-.653-2.012-.653-.279 0-1.1.392-1.777.871zm-19.151.108c-1.1.937-1.801.958-2.947.109-1.052-.784-1.752-.806-3.156-.109-.796.393-.958.545-.655.653.21.087.702-.021 1.099-.196 1.029-.5 1.543-.435 2.853.414.656.413 1.287.762 1.38.762s.607-.305 1.145-.653c1.639-1.109 1.965-1.153 3.555-.544 1.449.588 1.871.544 2.572-.239.305-.349.281-.349-.186-.131-.75.37-1.287.327-2.689-.283-1.613-.697-1.895-.697-2.971.217zm-12.767 1.437c-.28.131-.631.414-.771.653-.281.392-.257.413.164.218.584-.305 1.59-.305 1.777 0 .093.131.584.522 1.099.87 1.215.806 2.221.827 3.46.065.936-.565 1.566-.609 2.923-.195.328.108.28-.022-.234-.414-.888-.718-1.8-.718-3.156 0-1.24.653-1.66.588-3.204-.565-1.286-.937-1.333-.958-2.058-.632zm16.718.979c-.443.305-.98.632-1.168.74-.188.109-.281.239-.211.305.07.087.631-.108 1.238-.413.609-.305 1.287-.545 1.498-.545.234 0 .912.393 1.566.893 1.285.979 1.684 1.002 3.133.065 1.076-.675 1.311-.652 2.596.131 1.332.827 1.871.827 3.461-.021 1.426-.74 1.939-.719 3.367.152.49.282 1.053.522 1.238.522.539 0 1.568-.545 2.105-1.089l.467-.479-.815.458c-1.1.609-1.777.565-3.158-.196-1.473-.805-1.895-.805-3.18 0-1.309.806-1.988.827-3.273 0-1.309-.805-1.988-.827-3.158 0-1.145.806-1.426.806-2.432.044-.957-.74-1.729-1.132-2.15-1.132-.165.021-.678.261-1.124.565z" fill="#fff"/><path fill="#DC2520" d="M.017.016h18.978v15.968h-18.978z"/><path fill="#009643" d="M18.998 2.013l-.017-2.003-2.306.025-16.646 13.903-.009 2.046 2.323-.01 16.655-13.961zm-18.978 0l.018-2.004 2.305.025 16.647 13.904.009 2.046-2.323-.01-16.656-13.961z"/><path fill="#fff" d="M.001 6.398h18.998v3.196h-18.998zM7.962.01h3.15v15.993h-3.15z"/></svg>