<svg xmlns="http://www.w3.org/2000/svg" width="64" height="48"><path fill="#262D62" d="M0 0h64v48h-64z"/><path fill="#fff" d="M32 .02h-3.9l-8.007 5.969v-5.989h-8.184v6.014l-8.041-5.994h-3.868v2.913l6.759 5.071h-6.759v7.99h6.759l-6.759 5.071v2.914h3.868l8.041-5.995v6.014h8.184v-5.989l8.007 5.97h3.9v-2.914l-6.792-5.071h6.792v-7.99h-6.792l6.792-5.071z"/><path fill="#DC2F34" d="M29.485.02l-10.681 7.989h2.557l10.639-7.989zM32 23.979l-10.651-7.985h2.568l8.083 6.081zM10.702 8.009l-10.702-7.989v1.908l8.123 6.081zM10.681 15.994l-10.681 7.985h2.556l10.681-7.985zM32 9.662h-13.655v-9.66h-4.69v9.66h-13.655v4.678h13.655v9.66h4.69v-9.66h13.655z"/><path fill="#FFED00" d="M42.514 29.616c-.702.596-1.373 1.463-1.537 2.247-.463 2.207-1.078 2.698-2.028 2.225 0 1.185 1.041 1.276 1.498.584 0 1.111.404 2.076 1.315 2.898.384.347.457.109.274-.273s-.183-1.622-.549-2.334c.585.42 1.444.183 1.371-.967-.749.438-1.493.421-1.571-.62-.092-1.221.386-2.994 1.227-3.76zm-.889-8.782c.049-.438-.045-.888-.365-1.17-.619-.545-1.228-.364-1.679.074-.677-.365-1.035.929-1.804.71.129.419.33.602.713.456-.401.365 0 .802-.475 1.24.858.273 1.315-.201 1.28-1.021.328.292.84.273 1.113-.055-.457-.146-.458-.543-.273-.912.274-.547 1.562-.526 1.49.678z"/><path fill="#008E5B" d="M43.608 27.177c-.969.511-2.741.291-2.906-.967s1.06-1.823 1.389-1.987c.514-.256.914.201.749.729.566-.201.694-.857.421-1.24.749.054 1.443-.511 1.736-1.313-.264.25-.979.081-1.569.043.183-.201.181-.59.125-.791-.621.638-1.517.346-2.704 2.188.183-.638.529-1.915.731-2.754l.045-.252c.072-1.204-1.214-1.225-1.488-.678.301.338.144.733.035 1.332-.128.711-.401 2.353-.639 2.9-.074-.857-.641-.912-.75-1.332-.165.109-.256.401-.22.602-.2-.219-.896.055-1.151-.273-.273.547.165 1.094.621 1.331-.264.019-.328.338-.621.338.394.456.795.638 1.262.675.466.036.813.21 1.097.774.456.912 2.197 1.504 3.837.675z"/><path fill="#FFED00" d="M46.02 26.064c-.548 1.514-2.046 2.589-2.723 2.753-1.15.279-3.497 1.417-4.128 2.001-.099-.021-.191-.058-.258-.104-.311-.219-.566-.93-.019-1.531 1.719-1.604 3.563-.912 4.716-2.006-.969.511-2.741.291-2.906-.967 1.041.274 2.924.292 4.423-1.312.2.218.785.912.895 1.166z"/><path fill="#008E5B" d="M42.514 29.616c-.867.735-1.318 2.539-1.227 3.76.025.341.121.571.266.712.063-.692.547-2.483 1.781-3.282 1.041-.675 2.668-2.188 3.271-3.921-.109-.311-.292-.528-.639-.747-.598 1.633-2.2 2.419-3.452 3.478zm2.949-4.254c-.312.465-1.015 1.104-1.69 1.358.146-.164.191-.374.201-.547-.859.328-2.577.292-3.271.036 1.041.274 2.924.292 4.423-1.312.145.165.273.31.337.465zm-6.57 3.821c-1.396 1.305-.475 2.443.073 2.698-.146.912.713.803.694 1.568.348-.2.439-.729.384-1.148.439.474 1.554-.055 1.791.82.146-.966-.604-1.933-1.535-1.842.384-.346.165-.911-.2-1.058-.073.712-.878.712-1.188.492-.311-.218-.567-.929-.019-1.53z"/><path fill="#FFED00" d="M41.917 37.479c-.152.087-.141.283-.046.41.192.255-.135.833.485.957.183.037.323-.074.393-.282.192-.574-.421-.639-.475-.911-.055-.273-.229-.247-.357-.174zm.521 1.076c-.204.095-.383.229-.301.886.034.271.018.929-.22.938.146.072.457.15.585-.019.123.205.402.146.512-.108.146.117.348-.083.348-.257.128.082.384-.035.319-.428.155.055.356-.055.43-.155-.229-.046-.804-.355-.941-.602-.138-.246-.494-.364-.732-.255z"/><path d="M39.272 20.113c.092-.137.194-.264.309-.375m3.168 2.789c.161-.092.406-.102.679-.084m-.926 17.917c-.064-.091-.087-.474-.041-.706m.553.598c-.101-.078-.292-.343-.324-.575m.671.318c-.128-.059-.438-.46-.507-.72m.827.292c-.15-.032-.611-.333-.804-.652" fill="none"/><path fill="#DC2F34" d="M50.278 28.142c.146-.438.055-.855-.567-.91-.48-.043-1.003.425-1.622.91h2.189z"/><path fill="#ddd" d="M50.441 27.189c.234.261.312.61.184.952h-.347c.146-.438.055-.855-.567-.91-.929-.081-2.01 1.714-3.636 1.933-.476-.564-.45-1.642.152-2.152-.311-.897-.97-1.883-1.426-2.31-.298-.048-.643-.072-.865-.06.238-.511.915-1.048 1.463-1.267l.273-.366c.055-.702 3.399-.374 4.112.064.001.785.311 3.406.657 4.116z"/><path d="M46.389 27.668c-.08-1.216-.572-2.216-1.264-2.898.328.091 1.004.091 1.462-.237.603-.401 2.174-1.103 2.75-.802.046.1.073.328.037.474-.138-.365-1.654.2-2.084.374-.411.191-.594.447-.448 1.021-.237-.201-.155-.393-.401-.538.101.237.183.666.211 1.012-.093-.246-.257-.774-.613-1.085.312.603.58 2.047.452 2.812.247 0 .791-.241 1.01-.415-.191.274-.745.466-1.101.538-.16.192-.271.685-.261.957-.028-.337.079-1.158.25-1.213zm4.052-.479c-.302-.336-.866-.518-1.589-.323.11-.054.348-.146.558-.182l-.229-1.213.201-.082c.101.492.229 1.058.311 1.285.064.019.21.046.338.11-.055-.192-.366-1.568-.356-1.715l.274-.146c.11.75.283 1.834.492 2.266z"/><path fill="#DC2F34" d="M46.239 24.213c-.273.037-.887-.018-1.197-.118l.091-.258c-.191.127-.557.376-.693.55.438.091 1.343.136 1.799-.174z"/><path d="M46.228 27.012c.102.291.168.572.176.821m-1.005-4.458c-.165.241-.31.5-.357.72.311.1.924.155 1.197.118m-1.437.489l.323.068c.328.091 1.004.091 1.462-.237.457-.328 1.699-1.35 3.106-1.459m-5.254 1.313c.438.091 1.344.136 1.8-.174 1.061-.72 2.083-1.14 3.106-1.194" fill="none"/><path fill="#008E5B" d="M52.105 29.201c1.535 1.057 2.668 2.078 2.997 3.719.329 1.642.95 2.079 1.718 1.642-.184.948-1.134 1.058-1.938.328.073 1.095-.365 2.407-1.498 2.882-.073-.656.361-1.177.238-1.715-.056-.236-.074-.784.237-1.039-.604.201-1.554-.183-1.646-1.076.695.328 1.59.384 1.938-.492.348-.876.203-2.371-2.046-4.249z"/><path fill="#FFED00" d="M52.105 29.201c2.248 1.878 2.394 3.373 2.047 4.248-.183-.82-1.114-2.097-2.083-2.425l.036-1.823z"/><path fill="#008E5B" d="M48.085 28.144h4.167v4.923c0 4.194-2.339 6.674-4.715 7.987-2.376-1.313-4.715-3.793-4.715-7.987v-4.923h2.924c.005.255.027.638.329 1.021.69-.068 1.471-.584 2.01-1.021z"/><path fill="#5291CE" d="M48.085 28.144h4.167v4.923c0 1.267-.214 2.376-.576 3.345l-4.139-7.575-4.139 7.575c-.363-.969-.576-2.078-.576-3.345v-4.923h2.924c-.01.52.183.829.319 1.021.586-.056 1.39-.512 2.02-1.021z"/><path fill="#FFED00" d="M47.696 28.435l4.105 7.613c-.073.223-.206.586-.309.81l-3.956-7.337-3.957 7.337c-.103-.224-.235-.587-.309-.81l3.935-7.29.491-.323zm1.722 10.311l.403.192c.22-.438.255-1.058.183-1.605-.237.602-1.041.584-1.261.948.135.067.261.155.367.234-.274.273-.916.732-1.281.842v-3.911l-.091-.729v-.809s-.037-.446-.201-.446c-.165 0-.201.264-.201.446v.809l-.092.729v3.911c-.2-.583-.987-.384-1.353-.967.143-.035.293-.046.439-.019-.274-.929-1.024-1.002-1.17-1.275 0 .383-.164 1.275.092 1.659.057-.068.144-.139.247-.202.311.675 1.707.677 2.037 1.788.265-.407 1.216-.882 1.882-1.595zm-1.881-3.254l1.653-.102c.093 0 .168-.138.168-.31 0-.17-.075-.31-.168-.31l-1.653-.1-1.654.1c-.093 0-.168.14-.168.31 0 .172.075.31.168.31l1.654.102zm-.201-1.603c-.065-.053-.151-.085-.246-.085-.207 0-.375.153-.375.342s.168.341.375.341c.206 0 .374-.152.374-.341 0-.146.213-.146.213 0 0 .295-.263.535-.587.535s-.588-.24-.588-.535c0-.296.264-.535.588-.535.097 0 .188.021.269.06l-.023.218z"/><path d="M45.883 35.391c.093 0 .168-.138.168-.31 0-.17-.075-.31-.168-.31m.138.62c.093 0 .168-.138.168-.31 0-.17-.075-.31-.168-.31m.903.683c.111 0 .202-.166.202-.373 0-.205-.091-.372-.202-.372m.209.762c.117 0 .212-.174.212-.39 0-.215-.095-.39-.212-.39m.701.786c.119 0 .214-.177.214-.396 0-.217-.095-.394-.214-.394m.222.777c.117 0 .212-.172.212-.383s-.095-.381-.212-.381m.982.696c.094 0 .171-.141.171-.315 0-.174-.077-.315-.171-.315m-3.538 3.788c.113-.069.247-.129.392-.163m3.327.201l-.108-.076m.307.23c.256-.274.47-.584.586-.938" fill="none"/><path fill="#fff" d="M46.7 31.624c0-.089.072-.128.159-.191.103-.077.144-.114.237-.114h1.199c.088 0 .109.023.109.105v1.627c0 .082-.021.104-.109.104h-1.595v-1.548"/><path fill="#E6E6E6" d="M47.998 33.297c.158 0 .13-.003.24-.114.116-.114.104-.104.104-.21v-1.488c0-.076-.019-.099-.102-.099h-1.109c-.087 0-.125.034-.22.107-.08.061-.146.096-.146.179v1.625h1.233z"/><path fill="#fff" d="M48.117 33.263c0 .082-.021.104-.11.104h-1.199c-.088 0-.107-.022-.107-.104v-1.627c0-.082.02-.105.107-.105h1.199c.09 0 .11.023.11.105v1.627z"/><path fill="#008E5B" d="M54.042 20.667c.476-1.24 1.719-1.112 2.139-.583 1.225-.693 1.39.875 2.431.565-.019.292-.365.565-.749.547.402.365-.165.912.693 1.24-.73.365-1.754-.018-2.028-1.021-.237.474-1.096.474-1.443.091.749-.201.695-.894.274-1.167-.424-.276-1.171-.164-1.317.328zm-3.706 2.73c.341 1.098 1.046 2.118 1.806 2.812.878.803 2.202.603 2.942-.164.019 1.527-1.566 1.646-2.448 1.167-.389-.211-.703-.1-.329.237.566.511 1.806.891 3.271 1.203 2.56.548 1.646 2.571.896 2.553.215-.004.391-.229.082-.505-2.221-1.993-6.734-1.208-6.661-5.658-.476 1.167-2.431.712-1.517-.674.292.237.804.255.95-.11.113-.283.039-.777-.474-1.201.085-.007.266 0 .247-.209.023.124.135.306.423.244.082.13.169.215.285.168.023-.009.092-.043.063-.173.024.242.313.329.464.31z"/><path fill="#FFED00" d="M52.636 27.213c1.06.693 2.258.692 3.362-.583.348-.401.896-.748 1.279-.785.384-.035.365-.4.658-.473-.184-.056-.256-.274-.53-.247.686-.237.483-.784.822-1.048-.274.1-.704-.311-1.097.209.101-.237-.036-.52-.137-.629.037.274-.539.329-.648 1.021-.062.389-.274.364-.312-.237-.026-.44-.237-1.66-.492-2.279-.257-.62-.315-1.471.032-1.599-.053-.088-.125-.167-.216-.225-.424-.276-1.17-.164-1.316.328-.475 1.24.859 1.951.75 3.3-.201-1.003-1.828-1.258-1.81-2.243-.53.237-.456.675-.256 1.021-.329-.51-1.078.328-1.717-.365-.074.912.729 1.258 1.388 1.294-.328.583.11 1.076.548 1.24.019-1.021 2.117-.602 2.139 1.149.02 1.498-1.589 1.626-2.447 1.151zm2.941 1.44c2.56.548 1.646 2.571.896 2.553-.478-.011-.932-.41-.96-.756-.548.292-.401.865.019 1.094-1.151-.137-1.636.62-1.663 1.45.21-.384.85-.411 1.087-.329.238.082.851.128 1.097-.146-.201.173.128.574-.155.885.96-.037 1.38-.931 1.215-1.322 1.242-1.131 1.005-2.973-1.536-3.429zm-1.948 8.664c.168.104.146.322.034.46-.226.277.114.938-.583 1.048-.205.032-.357-.098-.426-.333-.189-.649.497-.693.57-.996s.266-.266.405-.179zm-.627 1.179c.224.114.418.271.297 1-.05.302-.061 1.037.204 1.059-.166.074-.517.146-.651-.046-.147.223-.456.146-.567-.146-.168.127-.383-.105-.376-.3-.146.086-.427-.057-.338-.492-.176.055-.396-.076-.473-.191.257-.041.913-.361 1.076-.631.164-.269.567-.386.828-.253z"/><path d="M52.852 40.509c.075-.1.117-.525.076-.788m-.644.642c.116-.082.342-.368.388-.626m-.764.326c.146-.061.51-.494.598-.781m-.936.289c.169-.029.697-.345.926-.692" fill="none"/><path fill="#FFED00" d="M49.895 25.043c-.031 1.87.748 2.815 1.826 3.431-.401-.239-.228-1.06-.767-1.324.128-.009.329.173.648.101-.155-.348-.411-.876-1.005-.948.156-.019.493.036.713-.046-.31-.476-1.132-.248-1.415-1.214zm-.196-1.777c-.064-.022-.121-.088-.175-.174-.288.062-.399-.121-.423-.244.019.21-.163.202-.248.208.515.425.588.918.475 1.202-.146.365-.658.347-.95.11-.037.775.968 1.03 1.333.055l.266.365c.261-.419.064-1.021-.278-1.522z"/><path fill="#00A083" d="M48.094 19.563c-.457-.419-.666-1.122-.648-1.522.019-.401.183-.839.768-.656l-.246.401c.155.055.365-.073.393-.155.036.128.273.091.292.237.092-.073-.009-.428-.146-.501.1-.054.155-.337.109-.474-.092.019-.229.146-.256.329.046-.146-.01-.511-.266-.565-.072.1-.091.347.01.483-.237-.054-.585.101-.667.301.019-.242.051-.586.2-.802.051-.073-.072-.201-.169-.028-.178-.346-.653-.529-.863-.355s-.493-.082-.666.191c-.175.274-.762.303-.731.593.019.173-.023.441-.109.538-.211.237.1.41.155.62-.037-.693 1.068-2.043 2.175-1.514-.101.173-.188.519-.221.939-.045.62.047 1.495.649 2.006l.237-.066z"/><path fill="#DC2F34" d="M48.424 17.394c-.007-.164.278-.377.661-.374l1.188.383s.188.164.11.219c-.078.055-.124.137-.097.237.027.101-.02.166-.169.073-.329-.205-.658.082-1.092-.077-.375-.139-.592-.215-.601-.461z"/><path fill="#ddd" d="M46.541 21.697c-.183-.574-.877-1.204-1.216-1.35l-.019-.31c.184-.073.622-.42.822-.611 1.371.657 3.235-.273 4.094-1.24l.329.201-.164.219-.174-.091c-.21.255-.995.992-1.232 1.147.319.081.756.136.876.129.768-.547 1.371-1.04 1.663-1.076l.247.328-.219.155-.175-.1c-.822.675-1.754 2.152-2.12 3.137-.51-.11-2.337-.037-2.712-.538z"/><path d="M48.981 19.662l-.284-.099c-.146.137-.512.256-.978.273m-1.105 1.661c-.124-.679.072-1.432.42-1.66.759.502 2.057.502 2.823-.045m-3.243 1.349c.585-.018 1.854.082 2.165.127.312.045.832.173.758.328" fill="none"/><path fill="none" d="M47.06 20.874l-.168.168-.168-.168.168-.168z"/><path fill="#00A083" d="M47.281 17.649c-.211-.292-.789-.384-.914.009-.055.173-.137.355-.273.438-.138.082-.105.331-.046.438.146.265.018.52.302.693 0-.21.31-.429.575-.483.265-.055.667-.292.722-.556.054-.266.146-.484-.366-.539z"/><path fill="#ddd" d="M45.966 20.274h.072l.002.499.043.023.431-.248.037.063-.433.25.002.049.431.249-.037.063-.434-.248-.042.026v.496h-.072l-.002-.499-.043-.023-.431.248-.037-.063.433-.25-.002-.049-.431-.249.037-.063.433.248.042-.026.001-.496zm.65 1.221c-.156.158-.374.255-.614.255-.479 0-.866-.387-.866-.864s.388-.864.866-.864c.28 0 .53.133.689.34-.046.108-.098.353-.101.463-.031-.297-.282-.53-.589-.53-.327 0-.592.265-.592.591 0 .326.265.59.592.59.272 0 .51-.191.578-.442.001.108.003.369.037.461z"/><path fill="#00A083" d="M45.637 22.317c-.056-.064-.156-.237-.146-.365.082-.009.237.045.311.118-.009-.091-.046-.292-.027-.383.101.037.311.155.384.292-.019-.091-.055-.328-.019-.474.109.064.292.237.329.355.009-.183.073-.483.128-.557.082.083.21.155.293.265.018-.146.091-.319.2-.365.083.091.211.301.238.538.082-.027.191-.164.237-.237.046.073.091.2.063.355.101-.091.22-.219.247-.329.073.055.21.192.247.338-.019-.119-.01-.329-.046-.447.137.073.246.2.273.337.037-.127.119-.355.192-.41.073.146.146.319.138.465.045-.091.118-.255.191-.292.063.1.055.319.036.438.064-.091.184-.201.256-.237.009.055.019.164 0 .246.083-.045.22-.292.265-.419.128.064.256.283.266.392.092-.037.273-.201.329-.292 0 .063.027.237-.01.374l.138-.21c.036.091.009.31-.027.429.082-.073.201-.119.273-.119.01.155-.1.429-.2.629-.878-.243-2.715-.335-4.559-.435z"/><path fill="#FFED00" d="M48.695 17.487c-.004-.067.146-.219.415-.218l.88.222c.26-.017.132.067.077.09-.055.022-.087.056-.067.097s-.015.068-.118.03c-.23-.084-.461.034-.765-.032-.263-.057-.415-.088-.422-.189zm-2.775 5.377c-.274.328-.549.273-.604.063l.073-.492c-.073-.182.119-.264.21-.182.092.082.384-.183.512.091s.229.465.155.575-.292.055-.346-.055zm1.178-.492c-.051-.12.233-.352.38-.187.146.164.374-.178.502.082l.233.542c.064.146-.347.223-.475.096.018.086-.355.154-.457-.091l-.183-.442zm1.9.15c-.068-.127.266-.31.439-.077.046-.096.374-.114.397.164l.041.552c.009.109-.201.209-.352-.068-.271.054-.393-.096-.425-.255l-.1-.316z"/><path d="M46.098 22.34c-.041-.091.233-.273.42-.137.188.137.447-.118.558.128.225.497.237.533.169.629s-.361.059-.434-.073c-.015.091-.266.076-.397.005-.151-.082-.257-.388-.316-.552zm1.923.023c-.064-.142.365-.264.553-.019.096-.086.306-.091.424.178.119.269.138.42.051.488-.062.048-.282.087-.356-.036-.1.064-.411.009-.479-.164l-.193-.447zm1.818.269c-.009-.127.225-.187.312 0s.364.019.389.328c.004.059-.033.287-.12.397-.086.109-.511 0-.539-.233l-.042-.492z" fill="#008E5B"/><path d="M45.92 22.864c-.101-.137-.237-.355-.411-.119m1.302.142c-.06-.077-.137-.205-.165-.305m1.092.323c-.064-.045-.16-.137-.211-.232m.128-.247c.16.019.271.169.32.237s.155.191.237.206m.48.105l-.123-.228m.005-.402l.128.214m.822.534c-.073-.137-.188-.269-.283-.314m.246-.187c.01.269.37.287.384.479m.279-.438c.036.068.05.137.055.25" fill="none"/></svg>