<svg xmlns="http://www.w3.org/2000/svg" width="64" height="48"><path fill="#E40520" d="M26 0h38v48h-38z"/><path fill="#2D8D2D" d="M0 0h26v48h-26z"/><g stroke="#000" stroke-width=".125"><path d="M19.866 23.954l-4.682-3.828c.209-.273.556-.696.759-.929l4.682 3.829-.759.928zm.158-.194l-4.682-3.828-.324.396 4.681 3.829.325-.397zm.802-.98l-4.682-3.829-.324.396 4.682 3.828.324-.395zm14.913-3.072l-6.446 2.92c-.134-.264-.327-.691-.426-.938l6.447-2.92.425.938zm-.089-.195l-6.446 2.92.181.4 6.447-2.92-.182-.4zm-.448-.991l-6.447 2.92.182.4 6.446-2.92-.181-.4zm1.285 6.715l-6.802 1.954c-.094-.28-.224-.731-.285-.989l6.803-1.955.284.99zm-.059-.206l-6.802 1.954.121.422 6.802-1.954-.121-.422zm-.3-1.046l-6.803 1.954.122.423 6.802-1.955-.121-.422zm-15.295 4.079l-6.399-3.021c.115-.272.315-.697.439-.931l6.399 3.022-.439.93zm.092-.194l-6.399-3.021-.188.397c.229.107 6.399 3.021 6.399 3.021l.188-.397zm.465-.983l-6.4-3.021-.188.397c.229.109 6.4 3.022 6.4 3.022l.188-.398zm12.444 4.462h-16.918c-.029-.37-.029-.958 0-1.291h16.918v1.291zm0-.19h-16.918v.55h16.918v-.55zm0-1.442h-16.918v.55h16.918v-.55z" fill="#FFED00"/><g fill="#FFED00"><path d="M25.491 24.038m0 0"/><path d="M25.491 34.006c-5.505 0-9.968-4.463-9.968-9.968s4.463-9.967 9.968-9.967 9.968 4.462 9.968 9.967-4.463 9.968-9.968 9.968v1.7c6.443 0 11.668-5.225 11.668-11.668 0-6.444-5.225-11.667-11.668-11.667s-11.667 5.224-11.667 11.667 5.224 11.668 11.667 11.668v-1.7z"/></g><g fill="none"><circle cx="25.491" cy="24.038" r="11.282"/><path d="M25.491 24.038"/></g><g fill="none"><circle cx="25.491" cy="24.038" r="10.356"/><path d="M25.491 24.038"/></g><path d="M24.634 18.454v-6.308c.389-.03 1.007-.04 1.355-.01v6.337m-1.733.035v-6.147c0-.468.578-.449.578 0v6.128m.937.019v-6.147c0-.468.578-.449.578 0v6.128m-4.919 1.43l-5.77-2.123c-.439-.162-.222-.697.199-.542l5.751 2.115m-.045.285l-5.979-2.152c-.349.508-.867 1.455-1.036 1.913l5.858 2.212m-.044.225l-5.77-2.123c-.44-.162-.222-.697.199-.542l5.751 2.116m-.991.424l-5.923 1.955c-.019.383-.003.946.034 1.432l6.148-2.052m-.222-1.122l-5.832 1.946c-.444.148-.608-.406-.183-.548l5.813-1.939m.361 1.997l-5.832 1.946c-.444.146-.608-.407-.183-.549l5.813-1.939m5.087 6.769v6.307c.389.03 1.007.04 1.355.011v-6.338m-1.733-.035v6.147c0 .469.578.448.578 0v-6.128m.937-.019v6.147c0 .469.578.448.578 0v-6.128m4.906-4.36l4.867 4.085c-.265.558-.822 1.481-1.133 1.858l-4.858-3.952m.963-1.741l4.736 3.92c.36.299.714-.159.368-.444l-4.721-3.907m-1.518 2.324l4.736 3.92c.361.299.714-.159.368-.445l-4.721-3.906m1.088-5.212l5.923 1.955c.019.383.004.946-.034 1.432l-6.147-2.052m.221-1.122l5.832 1.946c.444.148.607-.406.183-.548l-5.813-1.939m-.363 1.997l5.832 1.946c.444.146.608-.407.184-.549l-5.813-1.939m-9.95 5.349l-5.801 2.547c-.213-.3-.52-.796-.663-1.094l5.707-2.529m.172.26l-5.681 2.35c-.433.179-.623-.333-.208-.505l5.663-2.341m.864 1.612l-5.682 2.35c-.433.179-.623-.333-.208-.505l5.663-2.341m10.501-11.096l3.871 1.018c.186.296.483.845.6 1.137l-4.535-1.16m.077-1.328l3.716.935c.455.114.309.612-.126.503l-3.604-.906m-.062.669l4.41 1.109c.454.114.309.612-.126.503l-4.302-1.082" fill="#FFED00"/></g><path d="M18.402 25.414c0 3.906 3.197 7.073 7.104 7.073s7.064-3.167 7.064-7.073v-9.148h-14.168v9.148zm7.084-1.037" fill="#E40520" stroke="#000" stroke-width=".75"/><path d="M18.402 25.414c0 3.906 3.197 7.073 7.104 7.073s7.064-3.167 7.064-7.073v-9.148h-14.168v9.148zm7.084-1.037" fill="#E40520" stroke="#fff" stroke-width=".25"/><path d="M21.684 25.006c0 2.306 1.716 4.174 3.813 4.174 2.097 0 3.792-1.868 3.792-4.174v-5.396h-7.605v5.396zm3.802-.611" fill="#fff" stroke="#000" stroke-width=".125"/><g fill="#FFED00" stroke="#000" stroke-width=".063"><path d="M20.652 16.838h.415v1.005h-.415zM19.823 16.838h.415v1.005h-.415zM18.995 16.838h.414v1.005h-.414zM19.726 16.729h.611v.233h-.611zM18.995 17.296h2.072v1.706h-2.072zM18.892 17.67h2.279v.228h-2.279zM18.892 19.003h2.279v.228h-2.279zM19.5 19.002v-.402c0-.283.237-.513.531-.513.293 0 .53.229.53.513v.402h-1.061zm.212 0v-.31c0-.218.143-.395.319-.395.176 0 .318.177.318.395v.31h-.637zM20.548 16.729h.611v.233h-.611zM18.903 16.729h.611v.233h-.611zM20.031 17.98"/><path d="M31.533 16.821h.414v1.005h-.414zM30.705 16.821h.414v1.005h-.414zM29.876 16.821h.414v1.005h-.414zM30.605 16.712h.612v.233h-.612zM29.876 17.279h2.071v1.706h-2.071zM29.772 17.653h2.278v.228h-2.278zM29.772 18.986h2.278v.228h-2.278zM30.381 18.985v-.402c0-.283.237-.513.531-.513.293 0 .53.229.53.513v.402h-1.061zm.212 0v-.31c0-.218.143-.395.319-.395.176 0 .318.177.318.395v.31h-.637zM31.428 16.712h.612v.233h-.612zM29.783 16.712h.612v.233h-.612zM30.912 17.963"/><path d="M26.112 16.84h.415v1.005h-.415zM25.284 16.84h.414v1.005h-.414zM24.455 16.84h.415v1.005h-.415zM25.186 16.731h.611v.233h-.611zM24.455 17.298h2.072v1.706h-2.072zM24.352 17.672h2.279v.228h-2.279zM24.352 19.005h2.279v.228h-2.279zM24.96 19.004v-.402c0-.283.238-.513.531-.513s.531.229.531.513v.402h-1.062zm.213 0v-.31c0-.218.143-.395.318-.395s.318.177.318.395v.31h-.636zM26.008 16.731h.611v.233h-.611zM24.363 16.731h.611v.233h-.611zM25.491 17.982"/><path d="M20.652 23.257h.415v1.005h-.415zM19.823 23.257h.415v1.005h-.415zM18.995 23.257h.414v1.005h-.414zM19.726 23.148h.611v.233h-.611zM18.995 23.715h2.072v1.705h-2.072zM18.892 24.089h2.279v.227h-2.279zM18.892 25.422h2.279v.228h-2.279zM19.5 25.42v-.4c0-.284.237-.514.531-.514.293 0 .53.23.53.514v.4h-1.061zm.212 0v-.309c0-.219.143-.396.319-.396.176 0 .318.177.318.396v.309h-.637zM20.548 23.148h.611v.233h-.611zM18.903 23.148h.611v.233h-.611zM20.031 24.399"/><path d="M29.916 23.257h.414v1.005h-.414zM30.744 23.257h.414v1.005h-.414zM31.573 23.257h.414v1.005h-.414zM30.646 23.148h.612v.233h-.612zM29.916 23.715h2.071v1.705h-2.071zM29.812 24.089h2.278v.227h-2.278zM29.812 25.422h2.278v.228h-2.278zM31.482 25.42v-.4c0-.284-.237-.514-.531-.514-.293 0-.531.23-.531.514v.4h1.062zm-.211 0v-.309c0-.219-.144-.396-.319-.396s-.318.177-.318.396v.309h.637zM29.823 23.148h.612v.233h-.612zM31.468 23.148h.612v.233h-.612zM30.951 24.399"/><path d="M22.219 28.403l.837.556-.229.345-.837-.556zM21.783 29.102l.837.554-.229.345-.837-.554zM21.284 29.785l.837.556-.229.345-.837-.556zM21.709 28.952l.194.129-.338.51-.194-.129zM22.622 28.664l1.423.942-1.143 1.727-1.423-.942zM22.965 28.795l.19.125-1.256 1.903-.19-.125zM24.08 29.534l.19.126-1.263 1.898-.19-.126zM23.155 30.909l-.335-.222c-.235-.156-.296-.481-.134-.726.162-.245.484-.316.721-.16l.335.223-.587.885zm.117-.177l-.258-.171c-.182-.121-.251-.338-.153-.484.097-.146.323-.168.506-.047l.258.171-.353.531zM22.164 28.265l.194.129-.338.51-.194-.129zM21.255 29.636l.194.129-.338.51-.194-.129zM22.597 29.902"/><path d="M28.978 28.774l-.837.556-.229-.345.837-.556zM29.433 29.417l-.837.554-.229-.345.837-.554zM29.893 30.156l-.837.556-.229-.345.837-.556zM29.581 29.482l-.194.129-.338-.51.194-.129zM29.509 30.362l-1.423.942-1.143-1.727 1.423-.942zM29.236 30.681l-.19.125-1.256-1.903.19-.125zM28.136 31.425l-.19.126-1.258-1.901.19-.126zM27.809 30.909l.335-.222c.235-.156.296-.481.134-.726-.162-.245-.484-.316-.721-.16l-.335.223.587.885zm-.118-.177l.258-.171c.182-.121.251-.338.153-.484-.097-.146-.323-.168-.505-.047l-.259.171.353.531zM29.128 28.796l-.194.129-.338-.51.194-.129zM30.037 30.168l-.194.129-.338-.51.194-.129zM28.367 29.902"/></g><path d="M24.566 21.555c0 .54.414.979.921.979.506 0 .915-.438.915-.979v-1.265h-1.836v1.265zm0 2.937c0 .541.414.979.921.979.506 0 .915-.438.915-.979v-1.265h-1.836v1.265zm0 2.937c0 .54.414.979.921.979.506 0 .915-.438.915-.979v-1.266h-1.836v1.266zm-2.374-2.937c0 .541.414.979.92.979.507 0 .916-.438.916-.979v-1.265h-1.836v1.265zm6.585 0c0 .541-.414.979-.921.979-.506 0-.916-.438-.916-.979v-1.265h1.837v1.265z" fill="#0072BB" stroke="#000" stroke-width=".063"/><g fill="#fff"><circle cx="25.484" cy="21.251" r=".171"/><circle cx="25.049" cy="20.683" r=".171"/><circle cx="25.921" cy="20.683" r=".171"/><circle cx="25.049" cy="21.82" r=".171"/><circle cx="25.921" cy="21.82" r=".171"/><circle cx="25.484" cy="24.188" r=".171"/><circle cx="25.049" cy="23.62" r=".171"/><circle cx="25.921" cy="23.62" r=".171"/><circle cx="25.049" cy="24.757" r=".171"/><circle cx="25.921" cy="24.757" r=".171"/><circle cx="25.484" cy="27.125" r=".171"/><circle cx="25.049" cy="26.557" r=".171"/><circle cx="25.921" cy="26.557" r=".171"/><circle cx="25.049" cy="27.693" r=".171"/><circle cx="25.921" cy="27.693" r=".171"/><circle cx="23.11" cy="24.188" r=".171"/><circle cx="22.674" cy="23.62" r=".171"/><circle cx="23.546" cy="23.62" r=".171"/><circle cx="22.674" cy="24.757" r=".171"/><circle cx="23.546" cy="24.757" r=".171"/><circle cx="27.859" cy="24.188" r=".171"/><circle cx="28.295" cy="23.62" r=".171"/><circle cx="27.423" cy="23.62" r=".171"/><circle cx="28.295" cy="24.757" r=".171"/><circle cx="27.423" cy="24.757" r=".171"/></g></svg>