<svg xmlns="http://www.w3.org/2000/svg" width="64" height="48"><path fill="#fff" d="M0 0h64v48h-64z"/><path fill="#2D2A6C" d="M0 0h28.8v48h-28.8z"/><path fill="#E3151A" stroke="#fff" stroke-width=".142" d="M4.607 9.138c0 2.005 1.613 3.712 3.609 3.853 2.099.148 3.981-1.474 4.129-3.577.074-1.047.01-2.118.01-3.167 0-.411.273-2.105-.224-2.105h-7.135c-.142 0-.389-.081-.389.088v4.908z"/><path fill="#fff" d="M6.402 8.915c0 2.904 4.159 2.91 4.159 0 .021-.385.101-2.947-.103-2.947h-3.953c-.218 0-.103 2.558-.103 2.947z"/><path fill="#FFD219" stroke="#13120D" stroke-width=".063" d="M5.838 5.003c0-1.233.487.078 0 0zm-.453 0c0-1.234.488.079 0 0zm-.453 0c0-1.233.486.078 0 0zm.734-.481c-.102-.316-.656.051 0 0zm.398 1.114c0-.129.044-.931-.039-.931-.172 0-.991-.113-1.093 0-.073.081.006.931.039.931h1.093zm.057-.603c-.03-.153-1.145-.272-1.246-.124-.116.17 1.079.124 1.246.124zm0 .728c-.031-.152-1.146-.271-1.246-.124-.115.17 1.079.124 1.246.124zm-.913-.125c-.092-.47.581-.7.581-.219 0 .353-.266.219-.581.219zm.115 0c-.104-.893.821.248 0 0zm.792-1.114c-.101-.316-.656.051 0 0zm-1.234 0c.101-.316.656.051 0 0zm6.907.472c0-1.233.49.077 0 0zm-.454 0c0-1.233.49.077 0 0zm-.452 0c0-1.233.49.077 0 0zm.733-.481c-.101-.315-.655.05 0 0zm.4 1.114c0-.13.044-.931-.039-.931-.172 0-.992-.113-1.094 0-.073.081.006.931.039.931h1.094zm.056-.603c-.03-.153-1.144-.272-1.246-.125-.117.171 1.079.125 1.246.125zm0 .728c-.03-.153-1.144-.272-1.246-.125-.117.171 1.079.125 1.246.125zm-.914-.125c-.092-.47.582-.701.582-.22 0 .354-.265.22-.582.22zm.117 0c-.105-.894.821.248 0 0zm.791-1.114c-.101-.315-.655.05 0 0zm-1.234 0c.101-.315.656.05 0 0zm-2.007.491c0-1.232.488.077 0 0zm-.453 0c0-1.233.489.078 0 0zm-.454 0c0-1.233.49.078 0 0zm.734-.481c-.101-.315-.655.051 0 0zm.399 1.114c0-.13.044-.931-.039-.931-.172 0-.992-.113-1.094 0-.073.081.006.931.039.931h1.094zm.057-.603c-.03-.153-1.145-.272-1.246-.124-.116.17 1.079.124 1.246.124zm0 .728c-.03-.152-1.146-.271-1.246-.124-.115.17 1.079.124 1.246.124zm-.914-.125c-.092-.471.582-.7.582-.219 0 .353-.265.219-.582.219zm.117 0c-.106-.894.819.249 0 0zm.791-1.114c-.101-.315-.655.051 0 0zm-1.234 0c.101-.315.655.051 0 0zm-2.029 3.986c0-1.234.487.076 0 0zm-.453 0c0-1.235.488.077 0 0zm-.453 0c0-1.234.486.076 0 0zm.734-.482c-.102-.314-.655.051 0 0zm.398 1.114c0-.13.044-.931-.039-.931-.172 0-.991-.113-1.093 0-.073.081.006.931.039.931h1.093zm.057-.603c-.03-.153-1.144-.272-1.246-.125-.117.171 1.079.125 1.246.125zm0 .728c-.03-.152-1.145-.271-1.246-.124-.116.17 1.079.124 1.246.124zm-.913-.125c-.092-.47.581-.7.581-.219 0 .353-.265.219-.581.219zm.115 0c-.105-.893.821.249 0 0zm.792-1.114c-.101-.314-.655.051 0 0zm-1.234 0c.101-.314.655.051 0 0zm6.249.482c0-1.235-.49.077 0 0zm.453 0c0-1.235-.488.077 0 0zm.453 0c0-1.235-.488.077 0 0zm-.733-.482c.101-.314.655.051 0 0zm-.4 1.114c0-.13-.044-.931.039-.931.172 0 .992-.113 1.094 0 .073.081-.006.931-.039.931h-1.094zm-.056-.603c.03-.153 1.144-.272 1.246-.125.117.171-1.079.125-1.246.125zm0 .728c.03-.152 1.145-.271 1.246-.124.116.17-1.079.124-1.246.124zm.913-.125c.092-.469-.58-.7-.58-.219 0 .353.263.219.58.219zm-.116 0c.105-.893-.82.249 0 0zm-.79-1.114c.101-.314.654.051 0 0zm1.233 0c-.101-.314-.655.051 0 0zm-5.061 3.237l-.458-.303c.15-.326.359-.034.583.115l-.125.188zm-.25.378l-.458-.304c.15-.326.359-.034.583.115l-.125.189zm-.25.377c-.224-.148-.575-.227-.333-.492.224.148.575.226.333.492zm.003-.877c-.148-.042-.223-.01-.291.208.166.102.199-.041.291-.208zm1.152.283c-.108-.072-.753-.551-.799-.482l-.604.911c.108.072.752.551.798.482l.605-.911zm-.473-.38l-.104-.069-.689 1.038c.254.103.63-.723.793-.969zm.608.402l-.104-.069-.689 1.038c.253.104.63-.723.793-.969zm-.609.691c-.582-.239-.128-.925.321-.483l-.321.483zm.064-.096c-.415-.21-.164-.591.192-.29-.059.088-.111.222-.192.29zm-.493-1.274c-.149-.042-.224-.011-.291.208.166.102.199-.041.291-.208zm-.681 1.027l-.106-.07c.115-.206.115-.258.292-.208l-.186.278zm3.834-.531l.458-.303c-.15-.326-.359-.034-.583.115l.125.188zm.25.378c.224-.149.575-.227.333-.492-.223.148-.575.226-.333.492zm.25.377l.459-.303c-.153-.334-.705.032-.459.303zm-.003-.877c.149-.042.224-.011.291.208-.165.102-.198-.041-.291-.208zm-1.15.283c.108-.072.752-.551.798-.482l.604.911c-.108.072-.752.551-.798.482l-.604-.911zm.472-.38l.103-.069.689 1.038c-.251.102-.629-.724-.792-.969zm-.608.402l.104-.069c.163.246.778.915.584 1.106l-.688-1.037zm.609.691c.582-.239.128-.925-.321-.483l.321.483zm-.063-.096c.802-.408-.662-.546 0 0zm.491-1.274c.2-.057.314.116.186.278l-.186-.278zm.682 1.027l.106-.07c-.115-.206-.115-.258-.291-.208l.185.278z"/><path fill="#2D2A6C" d="M7.978 8.634c0 .55.755.739.965.208.052-.13.125-.814.04-.899-.105-.104-.799 0-.962 0-.092 0-.043.578-.043.691zm0 1.604c0 .55.755.739.965.208.052-.131.125-.814.04-.899-.105-.104-.799 0-.962 0-.092 0-.043.578-.043.691zm-1.299-1.604c0 .549.755.739.965.208.051-.13.125-.814.039-.899-.105-.104-.799 0-.961 0-.092 0-.043.578-.043.691zm1.299-1.604c0 .55.755.739.965.208.052-.131.125-.814.04-.899-.105-.104-.799 0-.962 0-.092 0-.043.579-.043.691zm2.302 1.604c0 .55-.753.739-.964.208-.052-.13-.125-.814-.04-.899.105-.104.799 0 .962 0 .094 0 .043.581.042.691z"/><path fill="#fff" d="M8.48 8.562l.094-.094c-.062-.125-.125-.125-.188 0l.094.094zm-.238-.311l.094-.093c-.062-.125-.125-.125-.188 0l.094.093zm.477 0l-.094-.093c.062-.125.125-.125.188 0l-.094.093zm-.477.434l.094.093c-.062.125-.125.125-.188 0l.094-.093zm.477 0l-.094.093c.062.125.125.125.188 0l-.094-.093zm-.239 1.481l.094-.093c-.062-.125-.125-.125-.188 0l.094.093zm-.238-.311l.094-.094c-.062-.125-.125-.125-.188 0l.094.094zm.477 0l-.094-.094c.062-.125.125-.125.188 0l-.094.094zm-.477.434l.094.093c-.062.125-.125.125-.188 0l.094-.093zm.477 0l-.094.093c.062.125.125.125.188 0l-.094-.093zm-.239-3.331l.094-.094c-.062-.125-.125-.125-.188 0l.094.094zm-.238-.311l.094-.093c-.062-.125-.125-.125-.188 0l.094.093zm.477 0l-.094-.093c.062-.125.125-.125.188 0l-.094.093zm-.477.435l.094.093c-.063.125-.125.125-.188 0l.094-.093zm.477 0l-.094.093c.063.125.125.125.188 0l-.094-.093zm-1.537 1.48l.093-.094c0-.274-.366.094-.093.094zm-.239-.311l.094-.093c0-.275-.368.093-.094.093zm.477 0l-.094-.093c.062-.125.125-.125.188 0l-.094.093zm-.477.434l.094.093c0 .276-.367-.093-.094-.093zm.477 0l-.094.093c.062.125.125.125.188 0l-.094-.093zm2.359-.123l-.093-.094c0-.274.366.094.093.094zm.239-.311l-.094-.093c0-.274.368.093.094.093zm-.477 0c.273 0-.094-.368-.094-.094l.094.094zm.477.434c-.125.062-.125.125 0 .187.124-.062.124-.125 0-.187zm-.477 0c.273 0-.094.369-.094.093l.094-.093z"/><path d="M28.801 10.719c-.065.202-.151.85-.313.965-.162.119-.81 0-1.022 0 .173.126.77.41.832.601.061.191-.252.767-.32.968.173-.126.623-.601.824-.601l.821.601c-.065-.202-.378-.785-.313-.976.061-.191.655-.468.824-.59-.212 0-.857.119-1.019 0-.162-.115-.248-.767-.313-.968zm4.439.537c-.112.18-.346.788-.533.864-.187.076-.788-.194-.994-.245.137.162.648.583.662.781.014.198-.428.684-.54.864.194-.079.749-.436.943-.389.194.047.518.616.655.778-.014-.212-.18-.85-.076-1.019.108-.169.749-.299.943-.374-.205-.05-.86-.09-.99-.241-.126-.155-.054-.806-.072-1.019zm4.187 1.573c-.151.148-.522.684-.72.713-.198.029-.72-.374-.907-.472.094.191.493.72.457.918-.032.198-.576.562-.727.709.209-.032.828-.245 1.004-.151l.454.911c.036-.209.029-.871.169-1.008.144-.14.796-.112 1.004-.14-.187-.097-.814-.292-.904-.472-.09-.18.133-.796.169-1.008zm3.69 2.527c-.18.108-.673.54-.871.522-.202-.018-.608-.533-.767-.673.047.209.31.817.227 1.001-.079.184-.695.407-.878.515.212.018.864-.04 1.015.09.151.133.176.788.223.994.083-.194.234-.839.407-.94.173-.101.799.079 1.008.101-.158-.14-.72-.475-.767-.67-.043-.198.32-.745.403-.94zm2.988 3.33c-.202.061-.778.364-.968.299-.191-.065-.464-.662-.587-.839-.004.212.104.864-.014 1.026-.126.158-.774.234-.979.295.202.068.846.166.961.331.115.166-.014.806-.018 1.019.13-.169.425-.76.616-.817l.958.338c-.122-.173-.587-.634-.583-.835.004-.205.486-.648.616-.817zm-19.746-7.43c.112.18.346.788.533.864.187.076.788-.194.994-.245-.137.162-.648.583-.662.785-.014.198.428.684.54.864-.198-.083-.749-.439-.943-.392-.194.047-.518.619-.655.781.014-.212.18-.85.076-1.019-.108-.173-.749-.302-.947-.378.205-.05.86-.09.99-.241.133-.155.061-.806.076-1.019zm-4.183 1.573c.151.148.526.684.72.713.198.029.72-.374.907-.472-.094.191-.493.72-.457.918.032.198.576.562.727.709-.209-.032-.828-.245-1.004-.151-.18.09-.36.72-.454.911-.036-.209-.029-.871-.169-1.008-.144-.14-.796-.112-1.004-.14.187-.097.814-.292.904-.472.09-.18-.137-.796-.169-1.008zm-3.694 2.527c.18.108.67.54.871.522.202-.018.608-.533.77-.673-.047.205-.31.814-.23.997.079.184.695.407.878.515-.212.022-.864-.04-1.015.094-.148.13-.176.785-.223.99-.083-.194-.23-.835-.403-.94-.173-.101-.799.083-1.012.104.158-.14.72-.475.767-.67.043-.198-.32-.745-.403-.94zm-2.984 3.33c.202.061.781.364.968.299.191-.065.464-.662.587-.839.004.212-.104.864.018 1.026.119.158.77.234.972.295-.198.065-.846.162-.961.328-.115.166.014.806.018 1.019-.126-.169-.425-.76-.616-.817-.191-.058-.756.27-.958.338.122-.173.587-.634.583-.835-.004-.202-.486-.644-.612-.814z" fill="#FFD219"/><g stroke="#13120D" stroke-width=".057"><path fill="#FFD219" d="M27.704 25.382c.251-.656.714-1.116 1.291-1.495.396-.26.911-.875 1.361-.966.375-.075 1.363-.304 1.503.191.125.44.886.091.717.834-.12-.48-.628.097-.691.131-.458.247-.654.208-.67.829.955.022 1.545-.982 2.185-1.529.646-.553 1.473-.823 2.314-.872 1.868-.11 3.767.133 5.644.054.715-.03 1.453-.06 2.151-.227.278-.067 1.913-.363 1.194.416-.121.125-.256.233-.405.324.087.188-.047.414-.165.548-.126.139-.275.242-.45.311.127.154.051.333-.067.461-.129.13-.275.236-.44.316-.48.252-.185.127-.423.477-.304.447-.939.641-1.449.688.37.9-2.198.965-2.574.939.252.364-.727.582-.891.582.204.238-.302.429-.439.466-.366.098-.066.102-.365.248-.248.122-.542.177-.815.195-.406.028-.493.177-.891.236-.179.029-.356.025-.533-.012-.064.109-.162.164-.293.166-.162.019-.312-.016-.451-.102-.097.264-.502.127-.648.032-.132.119-.282.151-.452.098-.137-.195-.26-.195-.37-.001-.169.061-.311.018-.425-.129-.172.225-.418.111-.566-.064-.126.74-.888-.502-.929-.647-.062.422-.397.922-.317 1.315.121.593.025 1.203.141 1.789.114.572.283 1.134.455 1.691.055.179.216.495.107.681-.247.424-.151-.518-.308.311-.273-.364-.309-.149-.494.049-.322-.408-.867-.613-1.101.065-.18-.375.002-.165-.375-.162-.292.003-.232-.222-.32.104-.268-.395-.3-.167-.496.026-.311-.433-.904-.517-1.138.078-.07-.169-.067-.336.011-.503-.127-.007-.186-.073-.175-.2-.127.221-.364.457-.644.354-.369-.137-.154-.075-.561-.018-.984.139.152-1.312.303-1.578.295-.521.552-1.057.751-1.622.253-.717.217-1.458.441-2.171-.086.151-.749 1.054-1.021.664-.184.23-1.031.242-1.214.032-.163.125-1.166.233-1.295 0-.258.219-1.042.206-1.004-.275-.857.401-1.1-.097-1.711-.221-.383-.078-.29-.316-.645-.396-.265-.061-.503-.288-.43-.58-.95.089-2.15-.01-3.011-.447-.155-.079-.329-.188-.401-.355-.125-.293-.125-.218-.485-.34-.259-.088-1.371-.516-.992-.963-.653-.179-.75-.757-1.208-.975-.16-.076-.671-.542-.331-.725-.38-.127-.735-.732-.113-.784.568-.048 1.245.2 1.82.249 1.618.138 3.253.12 4.875.073 1.312-.038 2.875-.386 4.039.384.638.422 1.204.95 1.83 1.39.671.471 1.31.412 2.059.562.535-1.396-.427-.085 0 0z"/><path d="M30.22 33.111c.083.079.148.209.14.342m.378-.097c-.133-.5-.961-.032-.781-.821.151-.648.457-1.116.482-1.807m-1.35 2.808c.004-.468.504-.302.616-.598.097-.263-.054-.565-.194-.774-.461-.688-.72-1.31-.72-2.164m.986-.305c.112-.277.374-.45.515-.698m-2.589-3.615c.151.029.259.086.324.216m-.086 7.513c.083.086.144.227.133.371m.403.047c.004-.587-.616-.209-.749-.565-.119-.313.079-.774.209-1.055.418-.893.684-1.652.576-2.668m-1.688 4.086c.169-.299.565-.112.583-.515.014-.284-.356-.684-.45-.965-.216-.637-.464-1.555-.241-2.218m4.496-4.722c-.004.529-.133.907-.342 1.386-.227.504-.133 1.051-.209 1.588m-2.782-1.991c-.871-.036-1.775-.158-2.563-.551-.85-.421-1.22-1.328-2.048-1.742-.9-.45-1.933-.31-2.898-.234-1.13.09-2.272.065-3.402-.032m1.77.085c-.097.274.22.788 2.65.529m-2.426-.129c.065.551 1.31.94 2.912.598m-2.12.01c-.684.025.382.594.637.612.616.047 1.289.072 1.89-.086m-2.124.065c-.464.374.277.616.562.662.702.112 1.48.04 2.16-.158m-1.729.201c-.446.295.403.54.58.54.529 0 1.105-.068 1.588-.306m-1.588.306c-.378.511.626.526.857.468.364-.086.824-.245 1.116-.486m-1.051.472c-.18.112-.198.371.029.443.403.13.994-.346 1.249-.605m-.792.536c-.238.706 1.076-.194 1.231-.439m-.684.648c-.047.212.198.551 1.037-.403m-.63.565c-.065.259.324.421.94-.371m-.501.501c.162.259.403.241.972-.374m-.569.489c-.032.241.374.306.824-.194m-.32.273c-.032.245.468.13.806-.292m-.356.31c.13.194.551.209.828-.263m-.083.116c-.259.338.162.468.486.13m-.176.309c.565-.439.306-1.375.727-1.375m-14.472-3.208c1.051.389 3.902.63 5.81.468m-5.23.342c1.199.338 4.039.439 5.789.392m-4.832.497c.842.194 3.658.616 5.472.306m-4.017.778c.713.18 3.578.41 5.116-.108m-1.682 1.13c.454-.018 1.577-.288 2.174-.644m-1.479 1.242c.662-.097 1.616-.382 2.214-.868m-1.534 1.257c.468-.018 1.699-.526 2.232-.932m-.824 1.14c.468-.194 1.069-.59 1.505-.979m-.501 1.257c.439-.306.81-.76 1.148-1.148m-.417 1.18c.338-.194.594-.572.868-.961m-.303.929c.274-.194.616-.58.81-.886m-.277.918c.259-.212.551-.569.727-.94m-.047.875c.227-.194.443-.457.637-.893m-.781 5.426c.338-.583.745-1.278 1.037-1.944m-.165 1.782c.194-.292.328-.634.475-.893m1.227.878c-.007-.349-.072-1.458-.05-2.002m.835 2.107c.007-.41-.169-1.328-.162-1.991m1.458 1.879c-.047-.202-.202-.868-.234-1.166m1.019-6.34c1.552-.029 2.372-2.135 3.874-2.538 1.166-.317 2.542-.068 3.733-.011 1.001.047 2.016.122 3.013.025m-5.198.515c1.717.13 2.43-.13 2.412-.533m-2.718 1.052c1.084.144 2.164.245 2.124-.565m-2.61 1.101c.875.18 2.2.407 2.167-.5m-2.815 1.018c1.246.356 2.444.486 2.365-.407m-2.851.991c1.084.421 2.268.464 2.138-.313m-2.657.651c.972.63 1.793.547 1.793-.036m-2.246.342c.842.598 1.44.648 1.523.112m-1.815.1c.551.616 1.037.601 1.148.245m-1.537-.198c.356.565.922.778.972.403m-1.271-.255c.356.565.875.796.922.421m-1.249-.292c.32.587.799.788.871.421m-1.235-.356c.223.655.698.842.806.461m-1.195-.529c.097.688.533.958.706.601m-1.004-.465c.101.684.425.846.626.562m-1.022-.518c.097.684.425.842.626.562m-.461-.051c-.097.137-.259.259-.464.047m13.611-4.59c-.875.601-4.68.745-5.861.695m5.246.165c-1.199.533-3.611.713-5.796.616m4.968.306c-.922.436-4.241.468-5.425.371m3.873.648c-1.004.18-3.24.112-4.565-.014m1.988.953c-.778-.018-2.041-.223-2.869-.432m1.979 1.015c-.5.065-1.984-.259-2.729-.598m2.067 1.102c-.439.083-1.912-.18-2.689-.875m1.31 1.261c-.648-.065-1.476-.544-1.93-1.044m.929 1.288c-.565-.112-1.019-.63-1.393-1.148m.648 1.213c-.292-.212-.832-.673-1.102-1.102m.454 1.135c-.371-.187-.673-.605-.817-.986m.155.939c-.212-.245-.421-.544-.551-.9m-.032.914c-.169-.22-.299-.414-.468-.868m-.101.803c-.176-.194-.295-.425-.475-.871m.914-3.845c-.176.011-.353.004-.432.036m.302-.525l-.09.166m-1.184-.181c.173-.054.799-.011.979.083m-.695-.068c-.047.256.421.288.403.022" fill="none"/></g></svg>