<svg xmlns="http://www.w3.org/2000/svg" width="64" height="48"><path fill="#DC2F34" d="M0 0h64v16h-64z"/><path fill="#0058A2" d="M0 32h64v16h-64z"/><path fill="#fff" d="M0 16h64v16h-64z"/><circle fill="#fff" stroke="#000" stroke-width=".25" stroke-linecap="round" stroke-linejoin="round" cx="32" cy="24" r="7.051"/><circle fill="#E40520" cx="32" cy="24" r="6.378"/><g fill="#FFED00"><path d="M27.879 27.714l-.189-.235c-.043-.054-.131-.058-.211.006-.077.063-.084.151-.033.215l.178.22.255-.206.172-.139.372-.3.14.174-.958.773-.385-.475c-.095-.121-.017-.303.119-.414.138-.111.305-.088.343-.04-.049-.061-.029-.181.089-.276l.269-.218.136.169-.225.181c-.116.095-.107.168-.038.254l.139.172-.173.139zm8.737-6.691l.151.261c.034.06.122.078.21.027.086-.051.105-.137.065-.207l-.143-.246-.283.165-.19.111-.413.239-.111-.193 1.065-.619.307.529c.077.133-.027.301-.18.389-.153.089-.315.041-.346-.011.038.066.002.183-.131.259l-.298.172-.109-.187.252-.145c.128-.075.131-.148.074-.244l-.11-.19.19-.11zM26.62 26.341l.245.494.246-.12-.22-.446.204-.1.218.446.292-.143-.243-.496.18-.088.344.699-1.107.543-.344-.699zM26.768 25.595l-.377.093-.051-.208c-.021-.088.016-.182.131-.21s.221.017.246.117l.051.208.188-.046-.063-.256c-.047-.192-.277-.264-.469-.217-.215.053-.342.223-.297.405l.111.455 1.198-.295-.05-.199-.431.106-.187.047zm7.971-6.27l.212-.325.179.117c.076.049.111.143.048.243-.065.1-.175.139-.261.083l-.178-.118-.106.161.221.144c.165.108.383.003.49-.162.12-.184.098-.395-.059-.498l-.392-.256-.675 1.031.171.112.243-.371.107-.161zm-7.751 4.913c-.004-.154-.115-.192-.22-.189l-.813.019-.005-.216.81-.018c.198-.004.424.084.431.4.008.314-.214.415-.412.42l-.811.018-.005-.216.813-.018c.104-.003.214-.047.212-.2zm-.667-.866l.477.1.046-.217-.146-.031.061-.287c.016-.073.083-.107.182-.086.1.021.152.083.136.153l-.062.288-.171-.037-.046.217.385.082.101-.481c.058-.273-.134-.387-.282-.418-.148-.031-.231.003-.314.06-.054-.083-.142-.144-.234-.163-.204-.043-.344.121-.388.328l-.089.42.344.072.046-.217-.14-.029.058-.269c.016-.08.106-.104.161-.093.033.006.124.05.104.149l-.057.268-.125-.027-.047.218zM26.41 21.728l.918.416.206-.454.204.094-.298.656-1.123-.508zM26.958 20.737l1.029.677-.123.186-1.029-.677zM28.023 20.064c-.055-.051-.189-.103-.308.024-.119.126-.059.293.119.46.176.164.368.202.47.092.102-.109.062-.254-.007-.319l.132-.141c.188.175.192.427.017.614-.177.189-.479.151-.749-.102-.272-.254-.327-.552-.14-.751.188-.201.458-.15.598-.018l-.132.141zm1.018-.383l-.104.068-.156-.497.391.342-.131.087.111.173.185-.121.195.172.175-.115-.974-.835-.207.136.378 1.226.175-.115-.079-.249.15-.099-.109-.173zm6.692.642l-.087-.089.459-.246-.263.448-.109-.113-.149.141.152.158-.132.225.145.151.64-1.112-.172-.179-1.134.601.146.15.23-.124.125.13.149-.141zm1.288 2.115l-.036-.118.52-.009-.438.279-.046-.152-.197.058.064.21-.222.139.061.201 1.077-.696-.072-.238-1.281.015.061.201.26-.005.053.173.196-.058zm-.19 3.714l.051-.113.397.337-.514-.08.066-.144-.187-.087-.09.2-.258-.042-.087.191 1.269.188.104-.226-.974-.835-.087.191.199.167-.076.165.187.088zm-5.992-7.007c.068-.014.254-.086.177-.468-.071-.35-.263-.341-.331-.327l-.181.037.161.794.174-.036.114.198-.448.092-.245-1.208.41-.083c.134-.027.441-.046.549.48.065.326-.013.669-.266.72l-.114-.199zM32.482 18.215l-.552-.016-.009.275.498.014-.006.226-.498-.014-.009.325.552.016-.006.2-.779-.023.035-1.231.78.022zM33.225 18.119l-.236.979.484.116-.052.219-.702-.168.288-1.199zM37.653 23.954c.12-.05.189-.136.185-.249-.009-.167-.177-.268-.423-.256-.245.011-.413.129-.401.298.008.142.109.231.269.235l-.009-.218.192-.009.019.403-.628.029-.005-.13.138-.025c-.107-.056-.17-.155-.185-.279-.026-.258.238-.489.602-.505.365-.017.616.157.629.45.011.23-.148.427-.373.437l-.01-.181zm-.713.961c-.028.151.072.211.176.231l.799.153-.041.212-.796-.153c-.195-.038-.396-.172-.338-.482.059-.309.297-.36.492-.323l.796.153-.04.211-.799-.153c-.103-.018-.219.001-.249.151zM35.88 26.896l.344.272.839.219-.146.184-.562-.166.292.508-.145.185-.408-.765-.345-.271z"/></g><circle fill="#fff" cx="32" cy="24" r="4.531"/><circle fill="#0077BE" cx="32" cy="24" r="2.126"/><path fill="#00885B" stroke="#000" stroke-width=".063" stroke-linecap="round" stroke-linejoin="round" d="M33.964 21.201c.192.156.181.321.296.476l.181.095c-.156-.197-.223-.386-.296-.682-.074-.296-.296-.206-.387-.427-.09-.222-.106-.083-.136.004-.023.073-.013.212.031.331.1.052.208.12.311.203zm-1.985 5.947c-.131-.025-.304-.041-.369.008.271.257.653.441.956.3-.228-.173-.476-.283-.587-.308zm0 0c.353.098.771.392.915.672.083.158.547.127.423-.05-.29-.406-.931-.874-1.338-.622zm1.338.623c.124.175-.341.208-.423.05-.039-.081.314-.202.423-.05zm-1.707-.615c-.61-.181-1.398-.384-2.181-.365-.088.003-.062.094-.033.14l.044.139c.005.079.068.091.251.119.427.071 1.386.198 2.188.173-.096-.058-.188-.129-.269-.206zm-.218.204c-.219.099-.461.231-.578.318-.234.173.476.271.546.173.037-.054.161-.403.411-.487l-.379-.004zm-.032.492c-.07.098-.78 0-.546-.173.069-.05.615.023.546.173zm.25-.696c-.487-.249-1.256-.692-1.639-1.419-.057-.107-.153-.228-.167.074-.01.269.17.715.466 1.034.488.072.95.196 1.34.311zm-1.639-1.419c.08.15.175.289.283.416.165.08.375.161.555.189.118.019.14-.028.005-.086-.136-.058-.415-.3-.67-.521-.167-.145-.255-.17-.3-.104.037-.039.091.037.127.106z"/><g fill="#00885B" stroke="#000" stroke-width=".063" stroke-linecap="round" stroke-linejoin="round"><path d="M30.12 27.252l-.428-.063c-.156-.024-.225-.036-.245-.089.021.085.072.126.22.188.165.069.407.2.498.27.09.071.267.058.147-.098l-.192-.208zM29.437 27.062l.004.007v-.006z"/></g><path d="M30.336 26.856l.051.008-.051-.008zm-.065-.01c-.084-.09-.159-.192-.223-.297-.457-.372-1.067-.777-1.371-.867-.143-.041-.13-.018-.142.148-.013.166-.158.261.185.424.261.126.646.327.941.538.213.007.427.027.636.06l-.026-.006zm-1.55-.592c-.268-.128-.238-.213-.206-.324l-.001-.002c-.038.152-.054.173.085.342.14.168.263.435.292.554s.111.135.123-.008c.009-.108 0-.292-.012-.42l-.281-.142zm1.376.369l.002.006-.002-.006zm.049.071l.008.013-.008-.013zm.054.071l.012.015-.012-.015zm-.152-.216c-.161-.262-.251-.545-.244-.737l.015-.123c-.17-.326-.367-.844-.336-1.514.004-.091-.047-.229-.213.164-.134.312-.155.914-.008 1.643.259.164.544.371.786.567zm-.7-.512l.018.012-.018-.012zm-.086-.056l-.069-.428c-.335-.59-1.029-1.094-1.172-1.437-.055-.132-.129-.265-.123.041.015.736.548 1.154.776 1.522l.004.001c.144.042.356.156.588.303l-.004-.002zm-.534-1.033c.132-1.038-.224-2.258-.305-2.522-.081-.271-.097-.179-.156.065-.148.614-.213 1.286.182 2.164l.279.293zm.477.708l.001.008-.001-.008zm.015.092l.004.028-.004-.028zm-.492-.8c.033-.257.035-.536.02-.798.181-.636.73-.885.831-1.13.115-.279.105-.056.083.042-.139.62-.538 1.194-.487 1.715-.02.218-.023.482.019.777-.141-.243-.343-.474-.466-.606zm.294-3.61c-.256.303-.414.806-.513 1.393.048.184.105.428.152.704.335-.388.461-1.328.473-2.028.003-.192-.047-.145-.112-.069zm-.377 2.007l-.004-.023.004.023zm.096.718c.122-.828.914-1.246 1.212-1.714.118-.184.037-.216-.091-.104-.118.101-.621.299-.905.553-.072.263-.169.49-.296.637.027.16.059.357.08.628zm1.298-3.587c-.268.159-.692.721-.913 1.147-.01.201-.028.413-.059.621.694-.561.872-1.035 1.04-1.62.062-.216.016-.198-.068-.148zm-1.017.862c-.256.303-.414.806-.513 1.393.048.184.105.428.152.704.335-.388.461-1.328.473-2.028.003-.192-.047-.145-.112-.069zm1.017-.862c-.268.159-.692.721-.913 1.147-.01.201-.028.413-.059.621.694-.561.872-1.035 1.04-1.62.062-.216.016-.198-.068-.148zm-.695 2.056c.327-.452 1.031-.559 1.298-.892.101-.125.173-.32-.148-.117-.22.14-.459.03-.861.149-.115.166-.4.444-.565.572-.02.149-.065.382-.111.554.119-.098.248-.19.387-.266zm.689-.923c.395-.572.592-.433.851-.753.041-.05.083-.127-.062-.062-.144.066-.616.048-.839.221-.081.201-.216.495-.35.657.129-.041.258-.067.4-.063zm3.573 4.972c.004-.263.119-.459.205-.55.087-.091.049-.094-.021-.054-.069.041-.312.062-.607.229-.296.169-.414.696-.598.952.311-.277.637-.482 1.021-.577zm-.508.936c.252.049.582.037.762-.086.178-.123.362-.185.448-.171.087.012.094-.02.025-.118-.068-.098-.334-.211-.562-.223-.218.192-.488.393-.903.406l.23.192zm1.001-.979c.081-.209.05-.425-.005-.578-.057-.155-.007-.321.073-.444.079-.123.086-.234.111-.32.024-.087.079-.16.159.024.081.185.111.438.012.702-.098.266-.178.457-.301.609l-.049.007zm-.154.037c.166-.049.456-.185.604-.376.148-.191.604-.406.937-.438.24-.022.234-.03.074.173-.161.203-.346.492-.672.511-.325.019-.659.013-.899.204l-.044-.074zm-1.36.584c.394-.353.811-.591 1.34-.628.104-.006.223-.008.081.148-.32.353-.655.643-1.139.646-.098-.068-.172-.125-.282-.166zm1.928-1.595c.098-.091.252-.161.321-.19.079-.032.099-.028.058.058l-.066.257c-.15.1-.362.3-.451.433.081-.194.127-.265.138-.558zm.448-.56c-.029-.237-.048-.527.046-.683l-.26-.333c-.111-.129-.142-.049-.123.068.018.117 0 .246-.038.48-.065.419.24.493.397.83l-.022-.362zm.98-.825c-.135.262-.395.267-.544.454-.019.222-.088.4-.158.531l-.135.235c.139-.135.361-.208.485-.266.161-.074.331-.217.37-.623l.056-.327c.018-.084-.009-.131-.074-.004zm-.546.171c.046-.123.172-.315.249-.361.078-.045.144-.123.115.005l-.041.414c-.107.062-.259.139-.32.225l-.003-.283zm.352-1.206c-.042-.103-.107-.148-.075-.378.033-.23.004-.267-.102-.168-.099.09-.219.278-.258.509.082.302-.032.448-.056.73l.032.077.043.131c.05-.163.193-.359.319-.515.155-.189.137-.284.097-.386zm-.888-.14c-.104-.007-.257-.066-.354-.163-.116-.117-.137-.086-.074.019s.062.203.081.351c.028.232.21.533.574.518-.16-.245-.234-.444-.227-.725zm-.476-1.207c-.26-.189-.177-.399-.419-.596-.242-.197-.518-.309-.624-.329-.107-.021-.223-.043-.099.086.209.217.17.424.427.558.283.148.559.177.701.361l.014-.08zm.513.883c.025-.136.044-.179.062-.166l-.058-.214c-.066-.271-.313-.462-.505-.585s-.16-.049-.116.031c.043.08.091.16.116.333.023.162.116.414.496.633l.005-.032zm.099-.095l.061.094c-.012-.105.012-.232.061-.503.067-.375-.217-.419-.26-.677-.03-.182-.104-.124-.171-.031-.057.077-.088.234-.05.427.119.108.224.242.264.404l.058.214.037.072zm.258 1.396c-.017-.431.199-.556.012-1.01-.073-.181-.232-.284-.27-.386-.038-.102-.06-.121-.1.095-.098.55-.004.792.31 1.215l.048.086zm-.34 1.689c.092-.16.08-.425.048-.666-.029-.24-.048-.536.05-.69.099-.154.155-.327.167-.419s.021-.222.111.019c.214.573.086.999-.05 1.25-.135.254-.196.309-.246.475l-.08.031zm-.364.529c.11-.142.392-.297.664-.381.021-.131.062-.269.112-.357.062-.111 0-.093-.086-.025l-.296.185c-.327.164-.636.545-.799.878.146-.07.307-.173.405-.3zm-.154-4.121c-.156-.063-.406-.042-.488-.063-.091-.025-.122 0-.012.078.139.099.272.436.542.489l.269.003c-.227-.186-.293-.376-.311-.507zm-.727-.561c-.134-.069-.188-.159-.237-.259l-.312.017c-.082-.021-.076.046-.004.123.196.213.397.329.615.345l.32-.067-.382-.159z" fill="#00885B" stroke="#000" stroke-width=".063" stroke-linecap="round" stroke-linejoin="round"/><path d="M33.007 26.835c.288-.204.337-.574.632-.746m-.874 1.079c.341-.041.784-.127 1.17-.546m-.329-.041c.185-.127.288-.242.345-.32m.353.588c-.094-.033-.246-.025-.394.086m-.924.426c.378.141 1.064-.292 1.335-.147m-.222-.676c.218-.131 1.089-.535 1.335-.622m-.258-.369c-.078.106-.292.337-.453.492m.091-.566c-.092.14-.32.488-.428.611m1.209-.677c-.07.008-.205.045-.288.09m-.953-.229c.029.356 0 .878-.222 1.244m.444-.998c.049-.087.139-.214.073-.35m1.283-.841c-.141.386-.256.707-.769.998m.07-1.336c.099.457.08.97-.204 1.463m-.343-1.411c.073.123.196.363.252.58m-.032-.734c.068.086.118.191.13.382m.615-.518c-.099.086-.228.271-.276.5m.253-1.627c-.093.277-.18.887-.296 1.219m-.13-.067c-.013-.48-.23-.84-.224-1.068m.354-.17c-.019.142-.019.253.012.438m-.665-.185l.185.135m-.345.018c.123.197.276.462.461.628m-.997-1.488c.223.099.466.263.579.368m-.201-.676c.328.338.453.694.545.817m-.111-1.195c-.066.259.185.758.173 1.103m-.573-.419c-.123-.129-.16-.16-.259-.209m.339-.438c.031.111.081.185.143.271m-1.3-.756c.277.161.757.515.96.799m-1.189-.443c.185.136.518.345.85.345m-.264-1.066c-.014.123.109.395.196.548" stroke="#000" stroke-width=".063" stroke-linecap="round" stroke-linejoin="round" fill="none"/><path d="M34.452 21.197c-.12-.006-.095.287.038.283.131-.004.144-.275-.038-.283zm-.279.718c.024-.112-.255-.213-.304-.073-.05.139.279.188.304.073zm.584.929c.068-.074-.157-.254-.23-.172-.075.081.122.286.23.172zm.657-.501c-.116-.075-.215.189-.1.263.116.074.239-.173.1-.263zm.181 1.446c.081.133.279-.083.214-.156-.068-.074-.281.049-.214.156zm-.634.164c.095-.049-.09-.222-.171-.156-.083.065.016.238.171.156zm-.312 1.289c.129-.064.008-.279-.107-.222-.115.058.01.272.107.222zm.864.156c-.011.167.296.115.278-.017-.016-.13-.27-.122-.278.017zm-1.611.887c.101.068.221-.172.098-.238s-.221.156-.098.238zm.354.55c-.01.148.221.141.221.01 0-.133-.214-.133-.221-.01z" fill="#00885B" stroke="#000" stroke-width=".063" stroke-linecap="round" stroke-linejoin="round"/><path fill="#FFED00" d="M32.004 22.269l.415 1.191 1.261.026-1.004.763.365 1.207-1.037-.719-1.035.719.364-1.207-1.004-.763 1.26-.026z"/></svg>