<svg xmlns="http://www.w3.org/2000/svg" width="64" height="48" viewBox="-11.5 9.5 64 48" enable-background="new -11.5 9.5 64 48"><path fill="#0FA0DC" d="M-11.5 9.5h64v24h-64z"/><path fill="#FAD303" d="M-11.5 33.5h64v12h-64z"/><path fill="#22613E" d="M-11.5 45.5h64v12h-64z"/><path fill="#E5BF09" d="M42.287 22.394l6.053-.354-6.053-.354 5.755-1.908-5.938 1.225 5.065-3.333-5.419 2.721 4.029-4.531-4.53 4.03 2.722-5.419-3.332 5.065 1.222-5.938-1.908 5.755-.353-6.053-.353 6.053-1.909-5.755 1.224 5.938-3.332-5.065 2.72 5.419-4.53-4.03 4.03 4.531-5.421-2.721 5.069 3.333-5.94-1.225 5.755 1.908-6.054.354 6.054.354-5.755 1.908 5.94-1.225-5.069 3.333 5.421-2.72-4.03 4.531 4.53-4.031-2.72 5.419 3.332-5.065-1.224 5.938 1.909-5.755.353 6.052.353-6.052 1.908 5.755-1.222-5.938 3.332 5.065-2.722-5.419 4.53 4.031-4.029-4.531 5.419 2.72-5.065-3.333 5.938 1.225z"/><circle fill="#E5BF09" cx="39.6" cy="22.04" r="2.582"/><path fill="#0FA0DC" d="M39.6 24.764c-1.502 0-2.724-1.222-2.724-2.724s1.222-2.724 2.724-2.724 2.726 1.222 2.726 2.724-1.224 2.724-2.726 2.724zm0-5.164c-1.346 0-2.439 1.095-2.439 2.44s1.095 2.44 2.439 2.44c1.346 0 2.441-1.095 2.441-2.44s-1.096-2.44-2.441-2.44z"/></svg>