<svg xmlns="http://www.w3.org/2000/svg" width="64" height="48"><path fill="#0072BB" d="M0 0h64v48h-64zM64 0h-64v48z"/><path fill="#00684E" d="M0 48h64v-48z"/><path fill="#FFE247" d="M64 2.411l-60.737 45.589h-3.263v-2.427l60.715-45.573h3.285z"/><g fill="#fff"><path d="M15.843 9.044l-.944 2.935h-3.105l2.521 1.826-.968 2.931 2.496-1.821 2.497 1.821-.956-2.956 2.509-1.789h-3.093zM6.864 15.56l-.944 2.934h-3.106l2.522 1.826-.968 2.931 2.496-1.821 2.497 1.821-.956-2.957 2.509-1.788h-3.093zM6.864 2.436l-.944 2.934h-3.106l2.522 1.826-.968 2.932 2.496-1.822 2.497 1.822-.956-2.957 2.509-1.789h-3.093zM24.823 15.56l.944 2.934h3.105l-2.521 1.826.968 2.931-2.496-1.821-2.497 1.821.956-2.957-2.509-1.788h3.093zM24.823 2.436l.944 2.934h3.105l-2.521 1.826.968 2.932-2.496-1.822-2.497 1.822.956-2.957-2.509-1.789h3.093z"/></g></svg>