<svg xmlns="http://www.w3.org/2000/svg" width="64" height="48"><path fill="#fff" d="M0 0h64v48h-64z"/><path fill="#E30613" d="M0 0h64v24h-64z"/><g fill="#fff"><path d="M24.689 15.214h-1.586l-.525-1.414-.551 1.414h-1.536l1.169.946-.589 1.513 1.484-.765 1.485.835-.581-1.566zM18.844 15.191h-1.586l-.524-1.414-.551 1.414h-1.537l1.169.946-.589 1.513 1.485-.765 1.484.834-.58-1.565zM16.943 9.602h-1.587l-.524-1.414-.551 1.414h-1.536l1.168.945-.589 1.514 1.485-.766 1.484.835-.58-1.566zM26.544 9.648h-1.586l-.524-1.414-.551 1.414h-1.537l1.169.946-.589 1.513 1.485-.766 1.484.836-.581-1.566zM22 5.998h-1.443l-.477-1.429-.501 1.429h-1.398l1.063.954-.536 1.528 1.351-.772 1.35.843-.528-1.581zM16.003 20.642c-13.428 1.241-13.22-18.554 0-17.51 0 0-6.03 2.783-5.914 9.045 0 0-.464 5.334 5.914 8.465z"/></g></svg>