<svg xmlns="http://www.w3.org/2000/svg" width="64" height="48"><path fill-rule="evenodd" clip-rule="evenodd" fill="#fff" d="M0 0h64v16.048h-64v-16.048z"/><path fill-rule="evenodd" clip-rule="evenodd" fill="#E30613" d="M.001 48h63.999v-22.65h-63.999v22.65z"/><path fill-rule="evenodd" clip-rule="evenodd" fill="#0069B4" d="M.001 32h63.999v-16h-64l.001 16z"/><path fill-rule="evenodd" clip-rule="evenodd" fill="#E40520" d="M16.284 4.994c2.356 0 5.798.604 8.275 1.812l-.482 7.792c-.242 4.47-2.115 8.156-7.793 9.966-5.738-1.812-7.55-5.497-7.852-9.966l-.484-7.792c2.476-1.208 5.92-1.812 8.336-1.812z"/><path stroke="#000" stroke-width=".214" stroke-miterlimit="2.613" d="M16.284 4.994c2.356 0 5.798.604 8.275 1.812l-.482 7.792c-.242 4.47-2.115 8.156-7.793 9.966-5.738-1.812-7.55-5.497-7.852-9.966l-.484-7.792c2.476-1.208 5.92-1.812 8.336-1.812z" fill="none"/><path fill-rule="evenodd" clip-rule="evenodd" fill="#0062AE" d="M16.284 4.994c2.175 0 5.256.544 7.61 1.511 0 0 .061-.062-.483 7.974-.241 4.409-1.933 7.729-7.127 9.362-5.195-1.632-6.946-4.953-7.188-9.362-.484-8.036-.484-7.975-.484-7.975 2.356-.967 5.436-1.51 7.672-1.51z"/><path stroke="#000" stroke-width=".214" stroke-miterlimit="2.613" d="M16.284 4.994c2.175 0 5.256.544 7.61 1.511 0 0 .061-.062-.483 7.974-.241 4.409-1.933 7.729-7.127 9.362-5.195-1.632-6.946-4.953-7.188-9.362-.484-8.036-.484-7.975-.484-7.975 2.356-.967 5.436-1.51 7.672-1.51z" fill="none"/><path fill-rule="evenodd" clip-rule="evenodd" fill="#fff" d="M16.284 19.974c1.027 0 1.027-.543 1.993-.543l2.054.543c.363 0 .604-.059.847-.182.181-.241.301-.484.481-.785-.421.183-.604.423-1.328.423l-2.054-.543c-.966 0-.966.543-1.993.543s-1.027-.543-2.053-.543l-2.053.543c-.666 0-.907-.241-1.269-.423.12.301.3.544.482.785.182.123.423.182.787.182l2.053-.543 2.053.543zm0 3.201c1.932-.664 3.323-1.569 4.349-2.659h-.302l-2.054-.542c-.966 0-.966.542-1.993.542s-1.027-.542-2.053-.542l-2.053.542h-.242c.965 1.088 2.354 1.995 4.348 2.659zm0-4.288c1.027 0 1.027-.544 1.993-.544l2.054.544c.543 0 1.087-.242 1.389-.544.483-.483.605-.907.727-1.511l-3.083-3.746-1.267 1.511-1.812-3.443-1.872 3.443-1.268-1.511-3.082 3.746c.122.604.241 1.027.726 1.511.301.302.845.544 1.39.544l2.053-.544 2.052.544z"/><path fill-rule="evenodd" clip-rule="evenodd" fill="#FFED00" d="M18.458 7.531l.241-.484.544.06-.301-.422.301-.483-.544.06-.241-.485-.242.485-.483-.06.302.483-.302.422.483-.06.242.484zM14.048 7.531l-.24-.484-.544.06.302-.422-.302-.483.544.06.24-.485.242.485.545-.06-.303.483.303.422-.545-.06-.242.484zM16.284 10.188l-.241-.422h-.544l.302-.424-.302-.483.544.06.241-.483.24.483.485-.06-.302.483.302.424h-.485l-.24.422z"/></svg>