<svg xmlns="http://www.w3.org/2000/svg" width="64" height="48"><path fill="#E30613" d="M0 0h64v48h-64z"/><path fill="#164194" d="M2 2h60v44h-60z"/><path fill="#E30613" d="M0 23h64v2h-64zM31 0h2v48h-2zM51 24l-19 12.667-19-12.667 19-12.666z"/><path fill="#fff" d="M47 24.333l-15 10.001-15-10.001 15-10z"/><path fill="#008337" d="M38.498 23.521c-.32.134-.625.168-.896.066-.22-.083-.677-.152-1.017-.152-.573 0-.777.152-2.759 2.218l-2.114 2.216-1.777-.1c-3.114-.171-3.436-.257-4.129-1.085-.576-.66-.678-.709-1.438-.709-.729 0-.863.065-1.185.523-.203.271-.473.473-.593.423-.269-.103-.59.22-.59.591 0 .204.576.593 1.777 1.235l1.776.95 6.296.15 6.295.153 2.929-1.538c1.606-.864 2.911-1.593 2.928-1.644 0-.102-2.98-2.453-3.962-3.113-.727-.489-.83-.507-1.541-.184z"/><path fill="#FFED00" d="M32 16l-.859 2.67h-2.827l2.295 1.662-.881 2.668 2.272-1.658 2.272 1.658-.87-2.69 2.284-1.628h-2.816z"/></svg>