<svg xmlns="http://www.w3.org/2000/svg" width="64" height="48"><path fill="#0058A2" d="M0 16h64v15.999h-64z"/><path fill="#E40520" d="M0 32h64v16h-64z"/><path fill="#fff" d="M34.779 16c.106 1.834.647 7.667-.552 10.958-1.67 4.58-4.717 7.896-9.748 9.779-5.031-1.883-8.079-5.199-9.748-9.779-1.2-3.292-.658-9.125-.552-10.958h-14.179v-16h64v16h-29.221z"/><path fill="#E40520" d="M33.868 11.989c.173 3.526.476 8.935.346 11.617-.094 1.945-1.385 9.043-9.734 12.417-8.351-3.374-9.642-10.472-9.735-12.417-.13-2.682.173-8.09.347-11.617h18.776z"/><path fill="#fff" d="M24.479 13.005c.324 0 1.081.011 1.362-.065-.26.844-.476 2.445-.476 3.635.974.259 3.331-.216 4.045-.541-.086.822-.151 2.336.13 3.007-.93-.346-2.249-.562-4.175-.562v2.466c1.601.195 4.392-.281 5.17-.541-.194.866-.194 2.271-.064 2.942-1.168-.498-3.483-.671-5.105-.671v3.937c-.228-.097-.562-.205-.887-.205-.325 0-.66.108-.888.205v-3.937c-1.622 0-3.937.173-5.105.671.13-.671.13-2.077-.064-2.942.779.26 3.569.736 5.17.541v-2.466c-1.925 0-3.244.216-4.175.562.281-.67.216-2.185.13-3.007.714.325 3.072.8 4.045.541 0-1.19-.216-2.791-.476-3.635.281.077 1.038.065 1.363.065z"/><path fill="#0058A2" d="M24.479 36.022c3.889-1.571 6.245-3.949 7.664-6.238-.417-1.042-1.271-1.885-2.43-1.885-1.157 0-1.827.855-2.228 1.363-.552-1.655-1.73-2.845-3.007-2.845s-2.456 1.189-3.007 2.845c-.4-.508-1.071-1.363-2.229-1.363s-2.013.843-2.429 1.885c1.42 2.289 3.778 4.667 7.666 6.238z"/></svg>