<svg xmlns="http://www.w3.org/2000/svg" width="64" height="48" viewBox="-31.5 24.5 64 48" enable-background="new -31.5 24.5 64 48"><desc/><path fill="#c00" d="M-31.5 24.5h64v48h-64v-48z"/><desc/><path fill="#FFD700" d="M-17.457 30.557h-2.153l1.739 1.276-.654 2.042 1.739-1.26 1.739 1.26-.654-2.042 1.739-1.276h-2.153l-.672-2.057-.67 2.057m.67-.782l.383 1.181h1.229l-.989.718.376 1.172-.999-.726-.999.726.376-1.172-.989-.718h1.229l.383-1.181"/><desc/><desc/><path fill="#FFD700" d="M-11.734 45.244l-1.44-1.412c1.927-2.087 1.914-6.074-3.706-9.363 3.777 4.196 3.811 6.919 2.586 8.258-1.337-1.325-2.616-2.602-4.232-4.188l1.534-1.543-2.461-.278-2.71 2.582 1.445 1.445 1.249-1.257 3.959 4.02c-1.222.423-2.738.165-3.669-.753l-.131-.108-.318.357c-.201-.19-.513-.246-.61.078-.395-.026-.627.192-.731.604-.736.487-1.533.914-1.99 1.68-.262.811.255 1.162.841 1.096.959-.398 1.256-1.26 1.77-1.971.362-.116.67-.271.727-.602l.078.071c1.672 1.552 3.702 1.603 5.232.764l1.519 1.542c.65.673 1.783-.245 1.058-1.022z"/></svg>