<svg xmlns="http://www.w3.org/2000/svg" width="64" height="48"><path fill="#fff" d="M0 0h64v48h-64z"/><path fill="#2B2F85" d="M0 0h64v16h-64zM0 32h64v16h-64z"/><path fill="#27612B" d="M30.465 30.097c.396.066.453-.23.753-.373.584-.277 1.175-.39 1.79-.567 1.107-.319 2.528-.968 3.196-1.954.604-.885.959-2.489.91-3.542-.061-1.311-.615-2.422-1.433-3.439.483.754 1.056 1.561 1.244 2.449.293 1.387-.009 2.73-.586 4.009-.526 1.171-2.022 1.948-3.193 2.304-.926.282-2.006.335-2.681 1.113zm5.664-2.88c-.071-.324-.219-.541-.279-.878-.048-.268.195-.384.29-.604.135.456.158 1.033-.011 1.482zm.035-.126c.218-.245.177-.556.337-.783.281-.417-.197-.566-.236-.931-.14.468.171 1.311-.101 1.714zm-3.184 1.939c.256-.013.553-.048.773-.19.053-.033.47-.543.432-.551-.533-.11-.834.491-1.205.741zm-.326.176c.629-.278 1.199-.628 1.524-1.256.028-.052-.649.112-.687.138-.422.283-.472.769-.837 1.118zm-.325.075c.578-.161 1.438-.902 1.406-1.571-.032-.292-.854.695-.866.716-.198.338-.302.537-.54.855zm.794-.165c.181-.082.391-.134.562-.232.296-.171.604.095.866-.028-.218.116-.183.365-.558.321-.268-.023-.606-.079-.87-.061zm-.286 0c.658-.177 1.36.169 1.961.011-.271.058-.37.449-.83.329-.354-.092-.772-.301-1.131-.34zm-.387.197c.839-.331 1.44.265 2.223.218.04-.003-.323.229-.312.224-.225.097-.635.056-.884.06-.437.008-.646-.395-1.027-.502zm2.523-1.084c.129-.16.278-.305.442-.428.177-.134.614-.28.728-.427-.149.19-.003.402-.361.533-.25.091-.583.193-.809.322zm-.257.125c.214-.151.425-.325.672-.417.229-.083.741-.18.913-.313-.06.049-.057.478-.305.523-.379.07-.926.083-1.28.207zm-.112.086c.28-.154.604-.192.909-.272.176-.054.894.112.968.033-.206.217-.547.395-.827.471-.406.11-.67-.227-1.05-.232zm-.039-.096c-.153-.552.501-1.141.347-1.574.386.335.087 1.854-.347 1.574zm.039.096c.337-.162.638-.35.872-.641.208-.261.333-.906-.081-1.095-.132.454-.346 1.499-.791 1.736zm1.525-1.223c.026-.116.671-.013.759-.101.296-.3.421-.742.769-.983-.597-.126-1.428.479-1.528 1.084zm0 0c.253-.193.57-.229.775-.489.193-.245.31-.803.541-.967-.969.238-.873.67-1.316 1.456zm.608-1.693c.224-.357-.456-1.066-.262-1.539.506.379.636.986.262 1.539zm-.01.05c-.075-.308-.512-.682-.351-1.066.423.104.524.729.351 1.066zm.357-1.9c.039-.309-.128-.76-.422-.909-.077.329.087.795.422.909zm0 .197c.034-.495-.518-.574-.634-.941-.059.482.186.815.634.941zm-.282 1.692c.069-.339 1.398-.348 1.151-1.195-.539.112-1.063.671-1.151 1.195zm.021-.1c.484-.41.928-.818.833-1.527-.116.229-.454.266-.522.522-.082.345-.343.626-.311 1.005zm.261-1.37c-.035-.354 1.14-.667.72-1.406-.483.237-.752.905-.72 1.406zm-.004-.1c.235-.49.759-.965.369-1.556-.288.458-.615.977-.369 1.556zm-.192-1.499c-.14-.34-.7-.411-.77-.895.442.035.843.434.77.895zm.01-.111c.067-.35-.024-.917-.473-.98-.101.323.139.855.473.98zm.064.111c-.046-.083.137-.287.157-.358.091-.317-.253-.522-.207-.772-.261.386-.154.778.05 1.13zm-.658-1.281c-.39-.01-.708-.569-.919-.569.433-.019.72.204.919.569zm-.039-.025c-.109.329-.762-.989-.583-.87.263.182.726.472.583.87zm.075 0c-.307-.146-.496-.625-.337-.931.262.248.42.569.337.931z"/><path fill="#DE0B15" d="M34.4 28.187c-.101-.05-.101-.1 0-.147.097.047.097.097 0 .147zm.423.521c-.101-.05-.101-.101 0-.15.095.049.095.1 0 .15zm.98-1.639c-.101-.05-.101-.101 0-.15.1.05.1.101 0 .15zm.608.305c-.109-.055-.109-.109 0-.165.11.056.11.11 0 .165zm.111-1.839c-.109-.055-.109-.109 0-.165.11.056.11.11 0 .165zm.512.151c-.11-.056-.11-.11 0-.165.11.054.11.109 0 .165zm-.262-1.64c-.109-.055-.109-.109 0-.165.111.056.111.111 0 .165zm.458-1.506c-.109-.052-.109-.106 0-.161.111.055.111.109 0 .161zm-.583.15c-.109-.055-.109-.109 0-.165.11.056.11.111 0 .165zm-.572-1.255c-.109-.055-.109-.108 0-.161.11.052.11.106 0 .161zm.437-.348c-.109-.055-.109-.109 0-.165.109.056.109.111 0 .165zm-.869-.844c-.11-.055-.11-.109 0-.165.109.056.109.11 0 .165zm1.77 3.814c-.104-.052-.104-.105 0-.157.106.052.106.105 0 .157z"/><path d="M34.329 28.494c.062-.135.06-.27-.015-.372m.112.472c.117-.019.284-.007.336.101m1.105-1.282c.046-.207-.042-.276-.15-.411m.387.311c.13-.045.186.029.272.064m.064-1.889c.062.118.204.201.246.361.1-.094.236-.164.372-.164m.402-1.664c-.285.195-.475.273-.748 0m.473-1.527c-.082.125-.187.155-.187.347-.134-.15-.258-.103-.396-.172m-.026-1.603c-.069.071-.279.126-.15.336l-.372.021m-.347-1.252s.035.086-.111.061m-2 8.784s.819-.01.895-.11m-1.368.21c.468.128 1.229.265 1.675.011m-2.222.186c.59.104 1.474.547 2.061.25m-.508-1.23c-.18.097-.542.533-.733.533m.733-.92c-.433.375-.927.724-1.292 1.17m.855-1.366c-.517.404-.662 1.099-1.217 1.441m3.629-1.753s-.447.375-.565.447m.751-.21c-.456.317-.889.505-1.442.583m-.172.175c.577-.042 1.136-.023 1.7-.2m-.941-1.478c.045.271-.163 1.214-.411 1.367m-.101-1.317c.144.331-.073 1.277-.322 1.528m2.98-2.161c-.248.078-.448.222-.608.422m-.855-.794c-.127.427.151.933.046 1.291m.115-1.628c.061.311.196.904.075 1.206m1.016-.869c-.456.379-.71.921-1.142 1.291m1.69-2.683c-.199.186-.342.492-.572.633m-.946-.497c.104.199.372.645.351.869m-.25-1.392c.096.402.343.859.275 1.281m.856-1.291c-.116.45-.555.923-.744 1.366m.869-2.633c-.031.219-.111.543-.286.694m-.784-.633c.05.209.145.414.236.608m-.458-.436c.035.246.63.744.608.873m.362-1.356c.025.285-.138 1.084-.312 1.292m-.97-2.137c.167.19.626.521.67.769m-.372-.955l.286.608m.161-.622c-.018.328-.005.661.05.984m-1.488-1.753s.396.236.458.297m-.226-.608c.117.168.237.332.336.511m-.024-.547c.081.257.165.516.286.759" fill="none"/><path fill="#DE0B15" d="M29.46 28.187c.1-.05.1-.1 0-.147-.1.047-.1.097 0 .147zm-.423.521c.1-.05.1-.101 0-.15-.1.049-.1.1 0 .15zm-.98-1.639c.1-.05.1-.101 0-.15-.099.05-.099.101 0 .15zm-.608.305c.109-.055.109-.109 0-.165-.111.056-.111.11 0 .165zm-.111-1.839c.109-.055.109-.109 0-.165-.109.056-.109.11 0 .165zm-.512.151c.109-.056.109-.11 0-.165-.109.054-.109.109 0 .165zm.262-1.64c.109-.055.109-.109 0-.165-.111.056-.111.111 0 .165zm-.458-1.506c.109-.052.109-.106 0-.161-.111.055-.111.109 0 .161zm.583.15c.109-.055.109-.109 0-.165-.109.056-.109.111 0 .165zm.572-1.255c.109-.055.109-.108 0-.161-.109.052-.109.106 0 .161zm-.436-.348c.109-.055.109-.109 0-.165-.11.056-.11.111 0 .165zm.869-.844c.111-.055.111-.109 0-.165-.11.056-.11.11 0 .165zm-1.775 3.814c.109-.052.109-.105 0-.157-.104.052-.104.105 0 .157z"/><path d="M29.531 28.494c-.063-.134-.065-.272.015-.372m-.115.472c-.117-.019-.281-.006-.332.101m-1.106-1.282c-.045-.207.046-.272.146-.411m-.382.311c-.131-.045-.187.031-.275.064m-.062-1.889c-.062.118-.205.201-.246.361-.101-.096-.238-.164-.376-.164m-.398-1.664c.287.198.472.271.748 0m-.472-1.527c.046.141.187.141.187.347.134-.15.258-.103.396-.172m.025-1.603c.068.071.281.127.146.336l.376.021m.347-1.252s-.039.086.111.061" fill="none"/><path fill="#27612B" d="M33.396 30.097c-.396.066-.453-.23-.753-.373-.585-.277-1.176-.39-1.791-.567-1.107-.319-2.528-.969-3.195-1.954-.604-.886-.96-2.488-.911-3.542.061-1.312.615-2.421 1.434-3.439-.482.753-1.062 1.562-1.246 2.449-.289 1.392.007 2.726.588 4.009.526 1.171 2.022 1.948 3.192 2.304.937.286 1.986.343 2.682 1.113zm-5.665-2.88c.071-.322.217-.543.279-.878.048-.263-.186-.393-.293-.604-.134.458-.155 1.031.014 1.482zm-.039-.126c-.214-.245-.174-.557-.333-.783-.282-.418.197-.567.236-.931.135.473-.168 1.304.097 1.714zm3.185 1.939c-.255-.013-.551-.049-.771-.19-.051-.033-.475-.542-.432-.551.535-.11.832.492 1.203.741zm.329.176c-.636-.281-1.19-.63-1.528-1.256-.031-.061.657.115.69.138.424.278.475.769.838 1.118zm.325.075c-.545-.15-1.479-.914-1.406-1.571.032-.291.854.695.866.716.198.338.302.537.54.855zm-.794-.165c-.21-.095-.437-.209-.658-.275-.228-.056-.574.106-.77.015.219.116.179.365.558.321.257-.023.619-.078.87-.061zm.286 0c-.664-.178-1.356.164-1.965.011.274.06.374.449.834.329.354-.092.772-.301 1.131-.34zm.386.197c-.839-.332-1.44.264-2.222.218-.04-.003.324.229.313.224.224.097.635.056.884.06.436.008.645-.395 1.025-.502zm-2.521-1.084c-.13-.159-.279-.304-.443-.428-.187-.143-.602-.271-.731-.427.148.203.009.404.365.533.25.092.581.193.809.322zm.257.125c-.214-.151-.424-.325-.672-.417-.229-.083-.74-.18-.913-.313.053.042.061.478.303.523.382.072.925.082 1.282.207zm.111.086c-.28-.154-.603-.192-.909-.272-.176-.054-.893.112-.968.033.206.217.546.395.826.471.405.11.671-.227 1.051-.232zm.039-.096c.153-.552-.501-1.141-.347-1.574-.386.335-.087 1.854.347 1.574zm-.039.096c-.337-.163-.638-.349-.872-.641-.207-.258-.336-.911.081-1.095.122.457.336 1.493.791 1.736zm-1.525-1.223c-.018-.104-.679-.021-.759-.101-.295-.299-.422-.743-.769-.983.626-.132 1.393.486 1.528 1.084zm0 0c-.253-.193-.571-.229-.776-.489-.194-.247-.31-.797-.541-.967.969.237.875.671 1.317 1.456zm-.608-1.693c-.225-.36.457-1.065.262-1.539-.507.378-.636.986-.262 1.539zm.011.05c.075-.307.513-.684.348-1.066-.421.106-.522.73-.348 1.066zm-.362-1.9c-.039-.306.133-.76.423-.909.079.328-.087.799-.423.909zm0 .197c-.03-.493.529-.574.637-.941.062.48-.188.82-.637.941zm.287 1.692c-.054-.262-.555-.146-.758-.351-.19-.19-.462-.542-.397-.845.54.11 1.067.671 1.155 1.196zm-.025-.1c-.483-.409-.924-.82-.83-1.527.114.231.454.267.522.522.083.344.345.627.308 1.005zm-.258-1.37c.036-.355-1.141-.665-.72-1.406.487.259.745.891.72 1.406zm.003-.1c-.234-.493-.757-.964-.368-1.556.287.456.616.98.368 1.556zm.194-1.499c.094-.311.693-.443.77-.895-.442.035-.845.434-.77.895zm-.011-.111c-.066-.352.019-.913.469-.98.106.322-.136.855-.469.98zm-.065.111c.046-.079-.137-.29-.156-.358-.09-.316.252-.524.207-.772.26.386.156.78-.051 1.13zm.66-1.281c.39-.01.708-.569.919-.569-.434-.019-.722.204-.919.569zm.039-.025c.108.326.761-.988.583-.87-.269.172-.727.481-.583.87zm-.075 0c.308-.147.493-.623.336-.931-.261.248-.42.57-.336.931z"/><path d="M30.265 29.016s-.819-.01-.895-.11m1.367.21c-.469.128-1.23.265-1.679.011m2.226.186c-.602.105-1.462.539-2.064.25m.511-1.23c.181.097.54.533.733.533m-.733-.92c.432.374.928.725 1.292 1.17m-.859-1.366c.517.404.666 1.099 1.221 1.441m-3.628-1.753s.443.375.565.447m-.752-.21c.455.316.887.505 1.438.583m.177.175c-.581-.042-1.134-.032-1.703-.2m.944-1.478c-.044.271.163 1.214.411 1.367m.101-1.317c-.145.335.071 1.275.321 1.528m-2.98-2.161c.248.078.448.223.608.422m.855-.794c.133.449-.135.896-.05 1.291m-.111-1.628c-.061.312-.197.903-.075 1.206m-1.016-.869c.456.379.71.921 1.142 1.291m-1.69-2.683c.199.186.342.492.572.633m.942-.497c-.102.201-.369.645-.347.869m.25-1.392c-.095.403-.343.858-.275 1.281m-.855-1.291c.107.446.557.928.744 1.366m-.869-2.633c.031.218.111.543.286.694m.784-.633c-.05.209-.146.413-.236.608m.458-.436c-.035.246-.63.744-.608.873m-.362-1.356c-.025.286.138 1.082.311 1.292m.969-2.137c-.174.199-.614.513-.672.769m.375-.955l-.286.608m-.161-.622c.018.328.004.661-.05.984m1.488-1.753s-.396.236-.458.297m.222-.608c-.115.168-.234.333-.332.511m.024-.547c-.082.257-.164.518-.286.759" fill="none"/><path fill="#2B2F85" d="M31.503 20c-.223-.544.113-1.408.407-1.864.314.522-.132 1.411-.407 1.864z"/><path fill="#fff" d="M31.929 19.295c.247-.083.124-.555.086-.819-.032.243-.351.907-.251 1.095l.165-.276z"/><path fill="#2B2F85" d="M31.968 19.338c.084-.09.117-.245.118-.365.051.206-.028.419 0 .594l-.118-.229z"/><path d="M32.086 19.567c-.069-.437.083-1-.176-1.431-.294.456-.63 1.321-.407 1.864" fill="none"/><path fill="#FFCE00" d="M31.929 18.204c.059-.077.06-.112.239.097-.035.066-.089.105-.161.118-.037-.012-.081-.191-.078-.215z"/><path d="M31.932 18.14l.215.171m-.165-.118c.102.166.152.211.15.136" fill="none"/><path fill="#FFCE00" d="M31.854 18.146c.089.013.139-.062.038.169-.092.21-.328-.091-.038-.169z"/><path d="M31.918 18.125l-.086.265m.05-.197c-.125.129-.149.193-.071.189" fill="none"/><path fill="#FFCE00" d="M31.964 18.097c.051-.062.303-.136.24.032-.045.09-.202-.015-.262-.015.395.27.274-.35.022-.017zm-.046 0c-.055-.071-.312-.117-.236.032.04.089.205-.015.261-.015-.367.25-.313-.315-.025-.017zm.018-.036c-.188-.06.225.129 0 0zm-.004-.498c.18.241.052.304-.003.504-.146-.15-.139-.317.003-.504z"/><path d="M31.932 17.563c.18.241.052.304-.003.504-.204-.21-.044-.24.003-.501" fill="none"/><path d="M31.929 17.767v.201c-.095-.102-.009-.086 0-.201z" fill="none"/><path fill="#fff" d="M34.211 23.105c.315-.786.245-1.609.172-2.433-.438.501-.526.617-.619 1.251-.072.484.195.757.447 1.182z"/><path fill="#2B2F85" d="M33.696 22.236c.106-.264.1-.598.082-.873-.383.424-.385.389-.082.873zm1.538.569c.079-1.002-.062-1.972-.101-2.97-.479.534-.746.684-.71 1.408.02.382.058.766-.017 1.143-.064.326-.322.708-.039.984l.867-.565z"/><path fill="#FFCE00" d="M33.353 21.725l1.76-1.957c-.087.313-1.49 2.009-1.76 1.957zm1.746-1.957c-.004-.089-.194-.275-.211-.111-.02.098.173.106.222.14-.441-.001-.081-.445-.011-.029zm.039.024c.082-.023.328.086.176.165-.077.044-.169-.124-.204-.161.132.487.452-.18.028-.004zm.007-.035zm.339-.351c-.294.054-.248.198-.34.365.305-.027.165-.16.34-.365z"/><path d="M35.349 19.549l-.136.143c.138-.008.058-.056.136-.143z" fill="none"/><path fill="#FFCE00" d="M35.17 19.917c-.104-.02-.137-.003-.082.247.063.016.121.004.175-.036-.01-.079-.041-.149-.093-.211z"/><path d="M35.116 19.878l-.011.275m.022-.203c.066.172.066.24 0 .204m.011-.079l.036.086" fill="none"/><path fill="#fff" d="M31.929 27.31c-.373 0-.024-.91.003-1.069.038.164.363 1.069-.003 1.069z"/><path fill="#2B2F85" d="M31.929 26.232c.072.321.188.685.153.998.592-.126.169-.917-.153-.998zm0 0c-.042.202-.283.803-.15 1.002v-.004c-.654 0-.111-.931.15-.998z"/><path d="M31.632 26.537c-.326.415.025.901.45.697.399-.093.375-.405.146-.697" fill="none"/><path fill="#2B2F85" d="M34.705 23.939c.131-.216.133-.536.125-.776-.479.314-.405.288-.125.776z"/><path fill="#FFCE00" d="M34.368 23.37c.412-.269 1.611-1.332 2.008-1.234-.361.24-1.702 1.385-2.008 1.234z"/><path fill="#2B2F85" d="M35.893 25.921c.255-.154.415-.999.422-1.273.031-.842.079-1.644.043-2.494l-.808.527c-.142.093.003 1.205-.032 1.416-.064.396-.321.662-.112 1.01l.487.814z"/><path d="M35.893 25.921c.255-.154.415-.999.422-1.273.031-.842.079-1.644.043-2.494l-1.942 1.285" fill="none"/><path fill="#FFCE00" d="M36.372 22.061c.017-.086-.095-.306-.183-.157-.042.102.146.132.183.189-.453-.144.069-.413 0-.032zm.028.036c.083-.004.302.158.137.2-.099.029-.122-.159-.165-.204.175.482.335-.056.028.004zm.019-.033zm.415-.261c-.296-.019-.3.116-.419.275.304.042.193-.121.419-.275z"/><path d="M36.665 21.907l-.168.111c.14.022.07-.042.168-.111z" fill="none"/><path fill="#FFCE00" d="M36.404 22.226c-.196-.089-.156.327.039.229.009-.08-.005-.157-.039-.229z"/><path d="M36.365 22.171l-.079.269m.061-.179l-.039.186m.043-.111c-.045.067-.041.11.011.128" fill="none"/><path fill="#2B2F85" d="M34.49 26.232c-.819.748-1.68.315-2.43 0-.118.371.799.567 1.006.598.951.15 1.664-.096 2.462-.598h-1.038z"/><path fill="#fff" d="M33.355 26.232c-.265.138-.444.292-.775.279.66.149 1.336.245 1.91-.279h-1.135z"/><path fill="#2B2F85" d="M33.355 26.232h-1.145c.001.583.964.082 1.145 0z"/><path fill="#FFCE00" d="M28.662 29.678c.226.081.271.288.232.526.044-.223.139-.358.332-.24l-.411.802c-.318-.125-.576-.787-.09-.63-.018-.139-.008-.33-.063-.458zm-.716.419l.11-.165-.243-.16c.176-.077.353.104.462-.165-.265-.146-.169-.11-.165-.297.362.245.452.196.204.564-.307.455-.246.49-.704.184.103-.184.187-.079.336.039zm-.165-1.049c.281.199-.274.599-.447.802-.196-.142-.573-.672-.055-.694.282-.013.305.313.502-.108zm-1.105.219c-.311-.334.618-.472.34-.776-.28-.31-.503.602-.805.261.216-.196.606-.701.916-.364.308.34-.235.682-.451.879zm-.687-.805c-.142-.132-.299-.41-.086-.555.138-.103.419-.545.665-.189.359.345-.301.553-.579.744zm.078-1.271c-.059-.16-.197-.22.011-.301.076.097.177.269.212.387-.237.129-.743.59-.881.269l.658-.355zm-.135-.636c.168.304-.505.422-.751.529-.167-.304.506-.422.751-.529zm-.923-.623c-.465.698 1.211.25.4-.132.475-.173.396.573.015.701-.388.126-.909-.43-.415-.569zm.346-.586c.152.06.246.019.236.232-.188-.038-.952-.084-.985-.267-.033-.18.669-.483.832-.582.029.271-.24.305-.083.617zm-.847-1.621c-.005-.71.976-.926.916-.186-.05.44-.519.217-.916.186zm.297-1.17c.2.078.268-.029.254-.244.133.134.039.368.329.365.036-.296.043-.193.208-.265l-.097.476c-.626-.132-.92.009-.783-.658.209.026.143.143.089.326zm.343-1.181c.185.11.269.014.29-.201.109.149.167.062.035.329.247.158.29-.099.479-.139-.247.637-.417.357-1.016.125.087-.221.077-.478.321-.397l-.109.283zm.856-.462c.099-.139.068-.288.254-.161-.038.118-.123.298-.201.394-.237-.122-.904-.282-.719-.573l.666.34zm.25-1.41c-.146.015-.19.089-.133.222.148.108.322-.226.537-.064.285.215.046.582-.251.554.012-.019.359-.516.044-.406-.541.189-.71-.386-.248-.446l.051.14zm.762-.106c.041.158.13.209-.05.325-.079-.174-.491-.825-.361-.955.131-.131.782.261.959.336-.204.179-.389-.015-.548.294zm.73-.634c.146-.087.179-.235.297-.043-.082.093-.233.223-.344.279l-.565-.701c.243-.23.447.261.612.465zm.566-.576c-.06-.275-.266-.579.021-.73.032.168.272.917.141 1.002-.129.083-.705-.458-.842-.558.258-.191.452.113.68.286zm.744-.297c-.021.163.042.246-.168.286-.009-.194-.152-.942.018-1.021.166-.078.631.533.766.667-.257.092-.354-.16-.616.068zm.525-.984c.663-.259 1.213.581.498.791-.428.107-.387-.408-.498-.791zm1.027.179c-.087-.605.838-.726.916-.122.077.604-.838.728-.916.122zm1.811.333c-.24.028-.374-.14-.447-.368.063.222.037.38-.187.361l.011-.902c.342-.03.858.456.361.526.079.115.156.292.262.383zm1.288-.548c-.108.25.153.202.196.412l-.282-.072c-.105.222-.01.315.235.312-.052.165-.396.199-.508.029-.071-.108.183-.73.219-.873.231.058.485.013.433.268l-.293-.076zm.683.004c.245.145.263.535.344.815l.229-.562c.333.099-.07.668-.171.919-.252-.124-.27-.552-.348-.816-.099.234-.11.628-.396.501l.342-.857zm1.199 1.431l.218.136c-.119.189-.298.049-.454-.104l.479-.762c.294.155-.104.509-.243.73zm.551.336c-.154.055-.197.15-.329-.021.169-.095.775-.559.921-.442.144.116-.192.804-.252.986-.207-.185-.015-.385-.34-.523zm1.237 1.253c-.162.011-.229.088-.311-.107.188-.048.889-.34 1.002-.189.11.146-.394.728-.498.887-.143-.233.085-.38-.193-.591zm1.092 1.102c-.709.076-.687.081-.218-.433-.239.08-.507.297-.619.015.695-.214 1.239-.476.529.311 1.057-.115.51.175-.075.59-.158-.259.175-.341.383-.483zm.44.601c-.212.035-.216.16-.094.336l-.146.05-.093-.275c-.294.037-.156.261-.279.415-.138-.416-.239-.433.182-.574.521-.175.493-.238.674.284l-.146.05-.098-.286zm-.412 1.374c-.08-.227.053-.393.262-.515l-.358.075c-.097-.317.42-.275.667-.328.594-.126-.034 1-.255.432-.096.101-.251.213-.316.336zm.036.361l-.021-.179c.265-.031.907-.268.916.075l-.895.104zm.697.869c.66-.535-1.09-.586-.422.007-.503.025-.208-.667.193-.673.409-.005.745.678.229.666zm-.503.458c-.127-.102-.229-.09-.157-.29.17.092.886.358.863.543-.022.185-.781.263-.968.309.051-.27.321-.212.262-.562zm-.126 2.29c.811-.306-.781-.918-.39-.157-.479-.164.059-.7.433-.548.382.148.428.907-.043.705zm-.147.483c-.214-.165-.239.098-.447.09.165-.176.153-.304-.078-.372l-.144.269c-.217-.137-.016-.292.097-.501.564.307.886.254.562.855-.196-.087-.098-.18.01-.341zm-.175.662c-.176.218-.604.122-.877.136.21.151.584.258.383.505-.785-.577-.914-.64.136-.676-.209-.153-.586-.264-.386-.509l.744.544zm-1.599.508l.125-.132c.128.122.473.59.607.451.237-.246-.1.32-.214.439-.021-.295-.19-.442-.518-.758zm-.751.67c.163-.175.371-.135.576-.008l-.233-.282c.238-.233.44.243.603.439.383.462-.898.439-.502-.028-.135-.037-.307-.121-.444-.121zm-.204.364c-.001-.163-.076-.235.129-.304.034.189.275.915.119 1.015-.153.098-.698-.442-.85-.557.24-.127.372.107.602-.154zm-.859.44c-.486.146-.227-.142.096-.219l.387.816c-.289.161-.371-.361-.483-.597z"/><path fill="#fff" d="M29.649 23.105c-.315-.786-.246-1.609-.172-2.433.438.5.527.617.619 1.251.071.484-.194.756-.447 1.182z"/><path fill="#2B2F85" d="M30.164 22.236c-.106-.264-.098-.597-.082-.873.384.424.386.389.082.873zm-1.538.569c-.079-1.002.063-1.971.101-2.97.479.534.747.684.709 1.408-.019.382-.057.766.017 1.143.064.326.322.708.039.984l-.866-.565z"/><path fill="#FFCE00" d="M30.508 21.725l-1.76-1.957c.071.305 1.492 2.008 1.76 1.957zm-1.746-1.957c.004-.083.169-.283.211-.111.02.098-.173.106-.222.14.436-.001.08-.446.011-.029zm-.039.024c-.082-.023-.328.086-.176.165.077.044.169-.124.204-.161-.134.491-.455-.181-.028-.004zm-.007-.035zm-.34-.351c.294.054.248.198.34.365-.304-.027-.165-.16-.34-.365z"/><path d="M28.512 19.549l.136.143c-.146-.004-.057-.055-.136-.143z" fill="none"/><path fill="#FFCE00" d="M28.69 19.917c.102-.019.137-.003.082.247-.063.017-.122.004-.175-.036.01-.079.041-.149.093-.211z"/><path d="M28.74 19.878l.015.275m-.022-.203c-.066.172-.066.24 0 .204m-.01-.079l-.036.086" fill="none"/><path fill="#fff" d="M31.929 27.31c.366 0 .041-.904.003-1.069-.028.158-.376 1.069-.003 1.069z"/><path fill="#2B2F85" d="M31.929 26.232c-.042.202-.283.803-.15 1.002v-.004c-.654 0-.111-.931.15-.998zm0 0c.072.321.188.685.153.998.592-.126.169-.917-.153-.998z"/><path d="M32.229 26.537c.229.292.252.604-.146.697-.425.204-.776-.282-.45-.697" fill="none"/><path fill="#2B2F85" d="M29.152 23.939c-.131-.211-.129-.54-.122-.776.48.314.405.289.122.776z"/><path fill="#FFCE00" d="M29.492 23.37c-.412-.269-1.612-1.332-2.008-1.234.362.24 1.703 1.385 2.008 1.234z"/><path fill="#2B2F85" d="M27.968 25.921c-.257-.155-.415-.997-.422-1.273-.032-.842-.079-1.644-.043-2.494l.808.527c.14.091-.002 1.207.03 1.416.061.398.321.662.112 1.01l-.485.814z"/><path d="M27.968 25.921c-.257-.155-.415-.997-.422-1.273-.032-.842-.079-1.644-.043-2.494l1.942 1.285" fill="none"/><path fill="#FFCE00" d="M27.488 22.061c-.017-.086.095-.306.183-.157.042.102-.146.132-.183.189.451-.144-.069-.415 0-.032zm-.032.036c-.085-.004-.294.158-.133.2.099.029.123-.159.165-.204-.173.475-.338-.045-.032.004zm-.015-.033zm-.415-.261c.301-.019.293.126.419.275-.301.043-.197-.119-.419-.275z"/><path d="M27.195 21.907l.168.111c-.139.022-.07-.042-.168-.111z" fill="none"/><path fill="#FFCE00" d="M27.456 22.226c.194-.087.161.326-.043.229-.008-.081.006-.157.043-.229z"/><path d="M27.495 22.171l.079.269m-.06-.179l.039.186m-.043-.111c.043.066.04.109-.011.128" fill="none"/><path fill="#2B2F85" d="M29.37 26.232c.818.747 1.68.315 2.43 0 .118.369-.803.569-1.009.598-.946.154-1.666-.096-2.458-.598h1.037z"/><path fill="#fff" d="M30.504 26.232c.267.137.445.292.777.279-.661.148-1.336.245-1.911-.279h1.134z"/><path fill="#2B2F85" d="M30.504 26.232h1.146c-.04.582-.938.094-1.146 0z"/><path fill="#FFCE00" d="M36.079 26.232c-1.384-2.312-2.767-4.625-4.15-6.938l-4.147 6.938h8.297z"/><path fill="#fff" d="M35.675 26.007l-3.746-6.261-3.743 6.261h7.489z"/><path fill="#007B94" d="M29.295 24.146l-1.109 1.86h7.489l-1.021-1.707c-.182-.303-.743-.153-1.067-.153h-4.292z"/><path d="M32.129 25.234c.325.085.524-.136.833-.107.291.029.497.195.804.088.439-.154.697.084 1.122.052m-5.647.236c.239-.186.531-.09.788-.028.315.076.489-.09.787-.09.209 0 .369.072.569.111.295.06.568-.145.876-.115.264.024.331.19.634.107.456-.133.605.018 1.048.018.236 0 .429-.167.665-.147.255.021.452.178.716.155m-6.505-.223c.246-.161.53-.08.787-.021.309.07.494-.082.787-.082.206 0 .37.067.568.101.296.047.571-.125.877-.104.55.055 1.128.121 1.682.111.234 0 .431-.15.664-.131.252.021.457.161.717.139m-6.468.599c.241-.199.529-.101.788-.028.367.101.648-.16 1.009-.081.468.104 1.008-.175 1.428.035.25.124.43.054.67-.04.325-.126.498.121.809.121.239 0 .422-.19.661-.166.256.026.449.2.716.174m-5.981-.365c.401-.268.87.102 1.299-.043m-.165-.322c.204-.061.839.085.974-.05m2.619.847c.395-.071.563-.08.955-.018.2.041.392.017.572-.071.313-.1.501.097.809.097m-1.875-.834c.232 0 .429-.15.661-.131.251.021.459.161.717.138m-6.656.759c.25-.159.529-.081.791-.022.357.081.656-.129 1.008-.064.537.097.994-.063 1.525.069m-2.851-.255c.246-.164.531-.079.79-.024.303.065.496-.085.784-.08.208 0 .372.064.572.101.301.047.567-.135.877-.104.555.054 1.125.11 1.682.11.233 0 .429-.149.661-.132.251.02.458.159.716.136" fill="none"/><path fill="#fff" d="M31.929 22.895c.646 0 .647-1.005 0-1.005-.652-.001-.651 1.005 0 1.005z"/><path fill="#DE0B15" d="M31.152 22.715l-.107.14-.094-.05.201-.09zm-.154-.06c-.25-.17.375-.096.079.018-.044-.016.093-.149-.043-.114-.128.032.035.095 0 .114l-.146-.1.11.082zm-.058-.401c-.06.028-.066.064-.018.107l.114-.132c.091.006.08.192-.024.175.003-.021.122-.137.028-.146l-.114.132c-.233-.025.075-.204.014-.136zm.219-.208l-.05.158c-.195-.123-.222-.032-.137-.215l-.043.125.064.021.04-.118-.015.125.071.025.07-.121zm.032-.049l-.208-.093c.026-.033.062-.16.14-.111l.068.204zm-.086-.28l.125-.132.09.232c-.098-.136-.151-.073-.215-.1zm.333-.003c-.03-.033-.133-.102-.136-.179l.136.179zm.183-.108l-.147.079-.104-.2.146-.075-.107.086.032.061.111-.057-.097.083.032.064.134-.041zm.203-.05l-.039-.182-.05.204-.104-.172.014.19-.05-.218.146.165.064-.211.019.224zm.075-.229c.199.08.199.16-.011.226l.011-.226zm.219.247l.032-.226c.09.131.133.073.118.269-.072-.2-.122-.034-.15-.043zm.315.14c-.101-.109-.203-.107-.032-.276l.129.107-.114-.068-.036.057.107.064-.121-.039-.036.064.103.091zm.254-.072c.067.215.019.284-.172.143l.172-.143zm.036.458l-.075-.146c.223-.048.177-.133.251.057l-.058-.118-.064.032.032.122-.054-.111-.068.032.036.132zm.039.193l.165-.104.054.072-.219.032zm.122.186c-.053.054-.094.04-.122-.043 0-.129.229-.045.226.007-.028.072-.063.084-.104.036zm.014.079l.061.093c-.058.193-.147-.086-.179-.096l-.029.118.011-.154.126.154c.078.041.004-.107.01-.115zm-.218.215h.197l.003.093-.2-.093zm-.458-.147c-.163-.069-.348-.061-.501.021.157.095.348.081.501-.021zm-.487-.075c.012-.111.047-.216.104-.315-.022.013-.061.175-.136.083-.078-.078.455-.326.519.308-.115-.05-.61.016-.487-.076z"/><path d="M31.735 22.551c.099-.028.385-.08.469.004" fill="none"/><path fill="#FFCE00" d="M31.918 23.338c0-.12-.065-.796.082-.741 0 .065.023 1.296-.043 1.292-.094 0-.039-.538-.039-.551z"/><path d="M35.675 26.007l-3.746-6.261-3.743 6.261h7.489z" fill="none"/><path fill="#FFCE00" d="M29.016 24.612c.15.03.681-.51.752-.605.2-.275.582-.738.944-.469.24.19.683.483.955.619.398.3.7.651 1.127.916-1.345.051-2.703.012-4.05 0l.272-.461zm3.739.437c-.553-.355-1.003-.851-1.517-1.26.629-.409 1.684.972 2.161 1.249-.205.01-.439.013-.644.011zm-.848-1.16c.841.203.995 1.154 1.989 1.117-.404-.243-1.461-1.554-1.989-1.117zm.873.204c.266.313.693.652 1.041.866l.622-.007c-.402-.254-1.16-1.277-1.663-.859zm1.62.83c-.322-.233-.663-.515-.94-.78.389-.31 1.078.598 1.385.769l-.445.011z"/><path fill="#fff" d="M31.929 28.036c.369 0 .767-.099 1.11-.224.369-.133.746-.499 1.15-.485-.53-.564-1.601.219-2.239.219-.667.002-1.724-.778-2.283-.219.337-.013.609.246.902.382.409.188.905.327 1.36.327z"/><path fill="#13110C" d="M30.347 27.209c.199.147.153.286-.1.251l.1-.251zm.143.354c.015-.047.041-.199.11-.247l-.11.247zm.34 0c-.072.169-.322.062-.247-.104.074-.166.316-.063.247.104zm.175-.021c-.014-.085-.23.331-.171.093.049-.009.071.163.125.04l-.064-.161c.034-.094.19-.014.11.028zm.197.015c-.005.044-.099.224-.007.25.095.028.109-.178.128-.218-.002.01.031.3-.136.246-.169-.041.015-.277.015-.278zm.196.039l.147.243.039-.193-.021.283-.15-.247-.039.196c-.024-.06.006-.18.024-.282zm.262.333l.004-.272c.028.06.006.172-.004.272zm.329-.118c-.009.182-.277.172-.269-.011.01-.178.279-.168.269.011zm.029-.147l.208.192-.015-.196.054.275-.208-.193.015.2c-.047-.057-.045-.171-.054-.278zm.443.196l-.028.036-.018-.269.046.233zm.147 0c-.012-.032-.089-.16-.094-.254.057.045.068.152.094.254zm-.01-.271c.111.101.28.086.071.257l-.071-.257zm.178-.054l.133-.047-.094.064.025.071.097-.032-.086.062.032.097.11-.004c-.189.081-.144-.057-.217-.211zm.422.129c-.052.017-.124-.027-.161-.058l.04.107c-.034-.04-.102-.144-.129-.24.149-.009.173.059.25.191zm.101-.047l-.197-.207.14-.062c-.061.098.054.131.057.269zm.097-.118c-.06.019-.042.06-.047-.218.079.044.177.125.236.193l-.189.025zm.082-.275c.242-.071.317.053.14.232l-.14-.232z"/><path fill="#2B2F85" d="M31.893 29.091c.179-.099.243.035.263.249.018.183-.384.128-.263-.249zm.161-.05c.009-.161.023-.336.071-.49.059-.188.488-.223.529.006.051.286-.378 1.164-.54.635.447.002.524-.567.101-.647-.044.16-.127.455-.161.496zm-.172.372c-.261.151-.416.461-.25.744-.074-.006-.133-.042-.176-.11-.051.087-.055.179-.011.275-.374-.377-.044-.95.422-1.034l.015.125zm0-.247c-.164-.09-.533-.008-.569-.139-.063-.231-.116-.418.008-.608-.56.43.349 1.35.561.747zm0 0c-.147-.244-.319-.628-.584-.753.157.074.369-.186.52.095.163.297.085.413.064.658z"/><path fill="#191E25" d="M31.882 29.166c-.419-.085-.316-.747-.562-.747-.17 0-.045.449-.042.468.072.364.285.115.604.279z"/><path fill="#2B2F85" d="M32.153 29.413c.229.223.086.733.387.884l.086-.164c.055.07.121.128.197.175-.059-.157-.471-1.278-.67-.895z"/><path fill="#191E25" d="M32.215 28.544c-.057.226-.137.424-.101.647.132-.181.278-.538.101-.647z"/><path fill="#192333" d="M31.875 29.353c-.129.094-.254.098-.337.265.062-.153.221-.264.337-.265zm.286 0c.086.034.157.09.211.168-.082-.033-.171-.136-.211-.168zm-.286-.144c-.143.019-.318.075-.462.043.143.023.402-.014.462-.043zm.615-.229l.071.179c.098-.045.188-.65-.018-.626-.134.01-.068.382-.053.447zm-.411.097c.014.056.159.342.035.361-.034.005-.124-.604-.035-.361z"/><path d="M31.893 29.091c.179-.099.243.035.263.249.018.183-.384.128-.263-.249zm.161-.05c.009-.161.023-.336.071-.49.059-.188.488-.223.529.006.051.286-.378 1.164-.54.635.447.002.524-.567.101-.647-.044.16-.127.455-.161.496z" fill="none"/><path fill="#fff" d="M26.183 28.101c-.126-.003-.24-.141-.176.121l.176-.121zm2.647 2.221c-.232-.027-.276.048-.114.218l.114-.218zm-1.374-.905c-.223-.102-.298-.012-.161.189l.161-.189zm-.959-1.535c-.188-.161-.281-.111-.189.129l.189-.129zm-1.256-4.297c-.023-.407-.458-.442-.54-.043l.54.043zm1.557-4.615c.021.09.097.193.146.279l.14-.146c-.09-.042-.189-.115-.286-.133zm2.207-1.553c-.013.097.024.214.036.312l.186-.083c-.07-.073-.138-.177-.222-.229zm.963.128c.375-.167.251-.589-.15-.519l.15.519zm.847-.497c.053.348.538.285.498-.064-.047-.338-.533-.275-.498.064zm1.164-.132c.219-.08.223-.168.004-.247l-.004.247zm4.565 1.478c-.092.032-.18.118-.262.172l.158.125c.033-.094.095-.2.104-.297zm1.288 1.363c-.097.006-.204.066-.297.096l.118.165c.057-.082.144-.169.179-.261zm1.059 2.676c.122.197.208.181.24-.05l-.24.05zm.261 2.437c-.073-.06-.193-.094-.283-.133l-.024.201.307-.068zm-2.565 4.5c-.113.202-.061.271.157.189l-.157-.189zm-.763.734c.001-.089-.049-.207-.075-.3l-.171.106.246.194zm-10.959-4.831c.095.039.233.035.341.047l-.04-.219c-.095.054-.223.098-.301.172zm5.428 2.162c.065-.067.254.007.075-.175l-.075.175zm.498.114l-.047-.129c-.137.012-.163.072-.079.183l.126-.054zm1.155.262l-.09-.104c-.126.062-.129.129-.007.2l.097-.096zm.716-.123zm.032.115zm.332-.229zm.359-.221l.045.088-.045-.088zm.243.049c-.017-.092.154-.201-.097-.161l.097.161z"/><path fill="#FCD8BB" d="M31.084 21.925c.007.036.05-.214-.028-.086l.028.086zm.845-.501z"/><path fill="#FDEAD7" d="M31.925 21.524c-.03.025.23-.068.058-.068l-.058.068z"/><path fill="#FCD8BB" d="M32.157 21.456c-.049.025.237-.011.086-.046l-.086.046zm.408.336c.07-.022.19.103.118-.1l-.118.1zm.269.605zm.096.082c.151 0-.169-.037 0 0z"/></svg>