<svg xmlns="http://www.w3.org/2000/svg" width="64" height="48"><path fill="#5291CE" d="M0 0h64v48h-64z"/><path fill="#FFD139" d="M0 9h64v30h-64z"/><path fill="#B61F51" d="M0 12h64v24h-64z"/><g fill="#DFE4E0"><path d="M52.625 20.467l1.853.881 2.821-1.362-2.821-1.362-1.853.881zM50.175 23.024l1.851.881 2.822-1.362-2.822-1.361-1.851.88z"/></g><path d="M3.265 25.623c-.15 0-.325-.229-.321-.6.005-.381.197-.623.321-.623h57.469c.124 0 .313.241.318.623.005.371-.168.6-.318.6h-57.469zm7.551-5.156c-.109 0-.236-.18-.233-.473.003-.299.143-.489.233-.489h41.809c.09 0 .229.189.231.489.004.292-.122.473-.231.473h-41.809zm-2.45 2.557c-.109 0-.237-.18-.233-.472.003-.299.144-.489.233-.489h41.809c.09 0 .228.19.231.489.003.292-.123.472-.231.472h-41.809z" fill="#FFD139"/><path d="M52.18 19.505c.09 0 .229.189.231.489.004.292-.122.473-.231.473m-.513-.962c.09 0 .229.189.231.489.003.292-.122.473-.231.473m-.514-.962c.091 0 .229.189.232.489.003.292-.123.473-.232.473m-1.424 1.595c.09 0 .228.19.231.489.003.292-.123.472-.231.472m-.513-.961c.09 0 .229.19.231.489.004.292-.122.472-.231.472m-.513-.961c.09 0 .228.19.231.489.004.292-.122.472-.231.472" fill="none"/><path fill="#fff" d="M48.949 24.012c-.884.77-1.89 2.016-3.392 3.705-3.448 3.876-8.23 7.238-13.879 7.238s-10.43-3.362-13.878-7.238c-1.503-1.689-2.508-2.936-3.392-3.705.884-.77 1.889-2.016 3.392-3.705 3.448-3.876 8.229-7.239 13.878-7.239s10.431 3.363 13.879 7.239c1.503 1.689 2.508 2.935 3.392 3.705z"/><path d="M33.531 34.834c-.606.079-1.224.121-1.853.121-5.648 0-10.43-3.362-13.878-7.238-1.503-1.689-2.508-2.936-3.392-3.705.884-.77 1.889-2.016 3.392-3.705 3.448-3.876 8.229-7.239 13.878-7.239l.577.01c-.854.684-1.956 1.682-1.317 2.726.312.513.598.712.598 1.567 0 .642.129.841.3.841s.299.1.299.413.2.399.442.399.525.027.441.798c-.143 1.311-.272 2.665.798 3.334.684.428.77.912.285 1.454-.484.542-1.582.884-1.582 1.938 0 .884-.156 1.383-.641 1.682-.485.299-.855.642-.855.983s.1.556.556.884c.456.327.635.979-.028.997-1.111.028-2.009.527-1.254 1.111.625.483 2.778 1.318 3.234 2.629z"/><g fill="#fff"><path d="M21.08 25.457h.773v2.98h-.773zM22.744 25.457h.773v2.98h-.773zM24.408 25.457h.773v2.98h-.773zM26.071 25.457h.774v2.98h-.774zM27.735 25.457h.773v2.98h-.773zM29.399 25.457h.773v2.98h-.773zM21.08 19.586h.773v2.981h-.773zM22.744 19.586h.773v2.981h-.773zM24.408 19.586h.773v2.981h-.773zM26.071 19.586h.774v2.981h-.774zM27.735 19.586h.773v2.981h-.773zM29.399 19.586h.773v2.981h-.773z"/></g><path d="M41.504 25.457h.774v2.98h-.774zM39.841 25.457h.773v2.98h-.773zM38.177 25.457h.773v2.98h-.773zM36.513 25.457h.773v2.98h-.773zM34.849 25.457h.773v2.98h-.773zM33.185 25.457h.774v2.98h-.774zM41.504 19.586h.774v2.981h-.774zM39.841 19.586h.773v2.981h-.773zM38.177 19.586h.773v2.981h-.773zM36.513 19.586h.773v2.981h-.773zM34.849 19.586h.773v2.981h-.773zM33.185 19.586h.774v2.981h-.774z"/><path d="M25.865 15.833c-1.104.602-2.18 1.596-2.223 2.978.171-.085.385-.299.527-.442-.214.969.342 2.166.199 2.536.271-.157.441-.57.484-.854.086.627.955.755 1.055 1.411.128-.1.214-.428.186-.627.1.527.911.94 1.097 1.425.057-.157.129-.499.1-.698.214.556.983.855 1.768 1.054-.67-.883.07-1.781-.242-2.266.199.342.484.542.826.584-.242-.1-.129-1.183-.499-1.667.257.085.399.384.927.441-.271-.499-.086-1.211-.484-1.752.142.085.412.014.569-.029-.356-.313-.152-.961-1.154-1.639-.484-.328-1.268-.513-1.924-.527.101-.057.343-.2.542-.171-.5-.156-1.283-.014-1.754.243zm-17.668 8.563c.883.256.171.797-.599.427-.028.114-.028.542.057.771-.371-.457-1.409-.252-1.995.883-.883 1.71-.028 2.564-.228 3.077.2-.057.371-.256.428-.484-.143.456.427 1.197.484 1.625.114-.2.285-.599.285-.884.057.684.741.854.969 1.481.085-.199.1-.697.042-.926.186.727.898 1.553 1.81 1.781-.186-.143-.228-.499-.285-.67.214.471 1.097.271 1.097.514.641-.399.356-1.197.655-1.426-.057.114.071.499.171.599.085-.641.997-1.481.897-2.037.071.185.328.37.527.498-.242-1.097.499-1.71.114-2.607.214.1.499.1.77.071-.186-.769-.784-.798-1.111-1.554-.328-.754-1.439-.94-1.995-.769-.654.2-1.025-.398-2.093-.37zm47.62-.028c.17 0 .283.346-.229.541-.599.228-1.539.912-1.596 1.539-1.083 1.026-.428 1.768-.741 2.423.199-.086.513-.313.655-.627-.342 1.511.855 2.109.798 2.85l.627-.854c.313 1.339 1.226 1.254 1.425 2.08.086-.171.456-.541.485-.826.113.143.171.627.171.741.143-.2.427-.599.456-.827.085.171.113.313.085.513.514-.284.514-1.311.826-1.624 0 .342.086.599.2.798.057-.513.741-1.254.599-1.938.199.199.284.484.312.826.285-.484.029-1.396.2-1.824.057.172.171.484.398.685-.199-.229.028-1.197-.342-1.881.143.057.484.313.57.484-.143-1.025-.456-2.337-1.539-2.537-1.083-.199-1.909.115-2.251-.484-.34-.6-.824-.913-1.109-.058z" fill="#5291CE"/><path d="M25.324 17.144c-.642.385-.129 1.269-.428 1.582.442-.172.941-1.212.428-1.582zm.612 1.559c-.28.561.42 1.17.247 1.677.345-.552.365-1.581-.247-1.677zm.543-2.115c.342-.299 1.268.313 1.98.143-.413.227-1.383.47-1.98-.143zm.989 1.209c.607.252.637.821 1.087 1.06-.426-.046-1.171-.496-1.087-1.06zm-.078 1.712c-.113.527.557.798.456 1.467.2-.37.157-1.638-.456-1.467zm-20.162 6.996c-.912.114-.542 1.226-.94 1.682.626-.172 1.338-1.226.94-1.682zm1.025.37c-.285.456 0 1.368-.171 1.738.314-.313.798-1.509.171-1.738zm.007 2.477c-.069.694.798 1.215.763 1.77.278-.625-.173-1.666-.763-1.77zm1.98 1.274c-.228-1.011.587-1.271.392-1.826.717.228-.066 1.076-.392 1.826zm-.733-4.919c.912-.057 1.653.884 2.366.912-.684.142-2.537-.371-2.366-.912zm.571 1.196c.228.57 1.083.456 1.311 1.34-.2-.142-1.853-.713-1.311-1.34zm45.397-1.083c-.558-.041-.868 1.39-1.303 1.603.568-.076 1.614-1.104 1.303-1.603zm.94 2.338c-.504.255-.193 1.317-.57 1.732.35-.333.976-1.417.57-1.732zm.969.778c-.513.876.367 1.359.257 1.872.146-.604.183-1.329-.257-1.872zm.029-3.401c.678-.121.953.748 1.641.797-.739.068-1.725-.221-1.641-.797zm.456 1.398c.796.308.485 1.419 1.088 1.799-.672-.175-1.672-1.238-1.088-1.799zm-1.425-.4c-.627.058-.685 1.71-1.34 1.881.627-.085 1.682-1.425 1.34-1.881z" fill="#B61F51"/></svg>