<svg xmlns="http://www.w3.org/2000/svg" width="64" height="48"><path fill="#1B3F92" d="M0 0h64v48h-64z"/><path fill="#E40520" d="M0 0h64v24h-64z"/><path fill="#fff" d="M35 24l-35 24v-48z"/><path fill="#F3E600" d="M15.605 18.471l.01-.334s-.183-.286.028-.591c0 0-.451-.234-.346-.599 0 0-.407-.103-.377-.542 0 0-.439-.03-.485-.398 0 0-.44.071-.634-.286 0 0-.429.082-.551-.212 0 0-.416.141-.664-.205 0 0-.44.174-.626-.153-.181.326-.622.153-.622.153-.243.345-.664.202-.664.202-.117.295-.545.211-.545.211-.193.357-.632.287-.632.287-.043.367-.482.397-.482.397.035.44-.372.541-.372.541.108.366-.343.599-.343.599.218.307.036.591.036.591l-.01.307 7.28.033"/><path fill="#F9D911" d="M15.605 18.471l.01-.334s-.183-.286.028-.591c0 0-.451-.234-.346-.599 0 0-.407-.103-.377-.542 0 0-.439-.03-.485-.398 0 0-.44.071-.634-.286 0 0-.429.082-.551-.212 0 0-.416.141-.664-.205 0 0-.44.174-.626-.153-.181.326-.622.153-.622.153-.243.345-.664.202-.664.202-.117.295-.545.211-.545.211-.193.357-.632.287-.632.287-.043.367-.482.397-.482.397.035.44-.372.541-.372.541.108.366-.343.599-.343.599.218.307.036.591.036.591l-.01.307 7.28.033h-.001v-.001z"/><path fill="#DC1A1F" d="M15.436 18.054c-1.144-.112-2.461-.379-3.478.182-.681-.393-1.629-.369-2.437-.293-.439.078-.955.078-1.413.151l-.073.01c-.832.054-1.587-.186-2.309-.502.229 1.276.484 2.583.61 3.92.272 1.98-.956 3.64-.453 5.597.301.938 1.354 1.482 2.317 1.591.933.052 1.899.203 2.763.387.163.033.358.11.472.156.238.098.412.24.566.395.52-.531 1.284-.68 2.038-.757 1.359-.156 3.034-.07 3.865-1.277v-.068c.452-.668.392-1.685.197-2.441-.014-.264-.085-.496-.125-.746-.83-2.149-.119-4.564.239-6.729-.435.235-.922.344-1.408.461-.388.05-.82.028-1.211.008l-.16-.044"/><path fill="#64AFE1" d="M17.142 24.218c-.005.142.074.252.102.384.158.938.312 2.181-.674 2.765-1.092.68-2.522.389-3.785.748-.253.068-.6.297-.777.457-.114-.075-.228-.187-.375-.252-1.04-.543-2.391-.362-3.563-.655-.59-.181-1.205-.63-1.352-1.222-.384-1.55.534-2.871.426-4.409-.07-1.174-.272-2.301-.548-3.402.916.418 1.979.487 3.009.287.763-.104 1.652-.107 2.368.209.393-.166.855-.24 1.28-.287.807.078 1.675.222 2.508.214.555-.028 1.06-.185 1.543-.395-.285 1.819-.837 3.725-.161 5.556"/><path fill="#fff" d="M15.493 24.58l-.009-1.711h.216l-2.669-1.69-.005-.877h.258l-1.335-.937-1.329.936h.258l.004.877-2.655 1.687.212.002.01 1.709 7.044.004"/><path d="M15.493 24.58l-.009-1.711h.216l-2.669-1.69-.005-.877h.258l-1.335-.937-1.329.936h.258l.004.877-2.655 1.687.212.002.01 1.709 7.044.004z" fill="none"/><path fill="#fff" d="M16.315 26.828v.535l-8.599-.01-.002-.533 8.601.008"/><path d="M16.315 26.828v.535l-8.599-.01-.002-.533 8.601.008z" fill="none"/><path fill="#fff" d="M8.287 26.797l-.008-1.814h.349l-.019 1.834.021-1.818-.502-.016v-.388l7.686.009.003.385h-.474l.009 1.834-.016-1.834h.353l.007 1.814"/><path d="M8.287 26.797l-.008-1.814h.349l-.019 1.834.021-1.818-.502-.016v-.388l7.686.009.003.385h-.474l.009 1.834-.016-1.834h.353l.007 1.814m-5.757-.453l-.006-1.263h-1.031l.006 1.263h1.031m-.756-1l.002.734h.472l-.002-.734h-.472m5.801 1.003l-.006-1.262-1.028-.002.004 1.263h1.03m-.756-.998l.004.732h.473l-.004-.732h-.473m.747-1.059l-.006-1.263h-1.029l.004 1.263h1.031zm-.755-.997l.002.733h.472v-.733h-.474m-4.29.993l-.007-1.262-1.029-.002.005 1.262 1.031.002zm-.755-.999l.002.732.473.001-.004-.733h-.471m2.623 1l-.004-1.261-1.031-.002.005 1.262h1.03m-.755-.997l.002.731.473.003-.002-.734h-.473m2.194 1.001l-.007-1.263-1.029-.002.004 1.262 1.032.003m-.756-1l.003.735h.473l-.002-.735h-.474" fill="none"/><path fill="#fff" d="M13.493 23.908l.01 2.911-2.986-.004-.011-2.91 2.987.003"/><path d="M13.493 23.908l.01 2.911-2.986-.004-.011-2.91 2.987.003zm-3.004.83l3.007.003m-2.632 2.079l-.011-2.059m2.288 2.059l-.011-2.056m1.453-2.096l-1.682-1.203-1.889-.002-1.669 1.2 5.241.005m-3.427-2.202l.002.734h1.591l-.003-.734h-1.59m.431.182l.003.366h.729l-.001-.366h-.731m.361-1.018l.883.612-1.761-.002.878-.61" fill="none"/><path fill="#fff" d="M15.523 19.216c.251-.006.317 1.013.317 1.518.217.059.694.354.906.62l-2.426-.002c.21-.263.683-.559.898-.618-.002-.506.051-1.525.305-1.518"/><path d="M15.523 19.216c.251-.006.317 1.013.317 1.518.217.059.694.354.906.62l-2.426-.002c.21-.263.683-.559.898-.618-.002-.506.051-1.525.305-1.518m-4.876 4.773h.218l-.064.115s.106.132.002.283l.057.105h-.21l.056-.099s-.107-.175.005-.289l-.066-.115m.445 0h.218l-.064.115s.106.128.001.283l.056.105h-.209l.055-.099s-.105-.175.005-.289l-.064-.115m.486 0h.217l-.065.115s.107.132.003.283l.056.108-.208-.003.055-.099s-.107-.175.004-.289l-.064-.115zm.545.002h.219l-.064.115s.105.13.001.282l.058.107h-.211l.056-.1s-.105-.176.007-.289l-.068-.115zm.486 0h.217l-.065.115s.105.13.002.281l.057.108h-.209l.054-.1s-.105-.175.008-.289l-.066-.115m.484.001l.218-.001-.066.115s.107.13.003.282l.055.107h-.21l.056-.1s-.105-.175.007-.289l-.065-.114" fill="none"/><path fill="#F9D911" d="M12.014 30.555c1.119.002 2.495-.221 3.138-.547l1.414-.123.029 1.691c-1.199.649-3.966.786-4.575.783-.61.004-3.411-.137-4.616-.786l.016-1.693 1.418.125c.644.324 2.061.551 3.178.551h-.003m-8.251-7.217l1.247.39-.376 1.977-1.18.179s-.199-1.038.309-2.546"/><path fill="#FAB715" d="M4.632 25.683l-1.179.201.747-1.038.432.837"/><path fill="#F9D911" d="M3.017 24.764l1.203.084c.026.998.149 4.805 4.789 5.012l-.144 1.385c-5.648.058-6.077-4.668-5.847-6.48"/><path d="M7.427 31.529l1.416-.304" fill="none"/><path fill="#F9D911" d="M20.168 23.353l-1.242.387.394 1.974 1.182.185c-.001 0 .188-1.039-.335-2.546z"/><path fill="#FAB715" d="M19.319 25.691l1.182.208-.756-1.04-.426.832"/><path fill="#F9D911" d="M20.926 24.78l-1.203.081c-.018.996-.107 4.805-4.747 5.008l.158 1.385c5.647.061 6.035-4.663 5.791-6.473"/><path d="M16.577 31.535l-1.419-.304" fill="none"/><path d="M11.262 31.389l-.124.023-.224-.012.018-.275.223.012.101.023c.045.023.065.066.06.125l-.054.104m-.377.431l.023-.335.261.017c.084.008.147-.014.191-.056.043-.041.067-.096.07-.156.006-.07-.012-.129-.056-.172-.041-.041-.099-.062-.173-.07l-.374-.023-.05.786.111.008m.812-.659l.273.004.093.019.062.113-.046.11-.123.029-.262-.004.003-.271m-.006.699l.002-.337.257.004.103.016.058.102.006.133.005.064.01.025h.137l-.002-.017-.032-.047-.009-.068-.001-.106-.03-.098-.072-.05.087-.07.03-.119c0-.09-.037-.152-.114-.185l-.156-.027-.386-.006-.003.79h.112m.854-.17c-.048-.058-.076-.131-.082-.219-.005-.11.016-.193.067-.25.051-.06.119-.09.206-.096.087-.004.159.025.213.079.054.052.086.127.091.217.003.09-.013.168-.054.237-.04.068-.108.11-.209.112-.104.005-.181-.021-.231-.08m-.132-.495c-.052.079-.074.168-.068.277.007.117.045.214.115.289.078.073.18.11.308.104.135-.006.238-.056.307-.148.056-.084.084-.183.079-.303-.008-.108-.041-.195-.1-.26-.076-.088-.184-.127-.333-.121-.14.008-.243.058-.309.162m3.784-1.136l.207.01c.089.027.149.094.188.193l-.112.014-.104-.111-.165-.014c-.076.012-.137.048-.178.108-.042.062-.054.148-.035.256.014.09.048.164.104.214.049.052.125.07.224.056.073-.012.132-.039.173-.09.042-.047.055-.119.041-.21l-.258.041-.013-.088.36-.054.07.418-.071.01-.044-.096-.087.096-.179.068c-.098.014-.186-.002-.267-.052-.088-.064-.145-.16-.165-.291-.024-.131-.003-.242.058-.328.057-.086.142-.135.256-.15m.81-.062l.258-.092.092-.014c.047.004.083.031.102.086l-.002.117-.107.07-.242.084-.101-.251m.258.653l-.127-.316.24-.084.099-.019.097.079.054.121.03.056.016.023.13-.047-.007-.017-.05-.031-.034-.058-.042-.1-.061-.086-.086-.023.052-.094-.013-.121c-.033-.084-.094-.131-.179-.137l-.155.027-.362.127.291.742.107-.039m.943-.394l-.46-.658.504-.314.055.08-.413.258.142.201.382-.24.051.077-.381.24.156.223.42-.264.055.077-.513.321m.404-1.163l.131-.143c.062-.062.127-.092.198-.084.072.006.143.043.22.11l.059.058.066.117-.009.131-.055.075-.132.141-.477-.406m.696.31c.094-.102.114-.208.059-.332-.031-.066-.08-.131-.147-.187-.084-.075-.172-.112-.265-.119-.104-.008-.192.029-.268.112l-.224.237.619.529.224-.237m.481-.616l-.715-.41.059-.09.714.408-.058.094m.28-.479l-.77-.301.227-.531.094.033-.185.439.233.09.173-.404.089.037-.171.402.258.104.191-.443.094.035-.231.539m.351-.927l-.81-.175.026-.121.75-.248-.658-.143.023-.096.81.17-.025.121-.749.252.657.139-.024.101m-.064-1.008l.011-.1.116-.021c.059-.031.094-.09.103-.177l-.008-.11c-.018-.068-.055-.104-.116-.11l-.101.029-.059.125-.037.104-.071.141c-.038.05-.093.066-.161.062-.074-.008-.133-.037-.175-.092-.043-.05-.061-.123-.05-.21.007-.082.034-.152.084-.207.045-.05.116-.075.207-.064l-.009.1-.105.025c-.046.025-.073.079-.081.156l.028.141.094.048.093-.039.059-.137.037-.111.065-.115c.045-.045.104-.064.177-.06.09.01.154.047.187.113.032.068.044.141.037.227-.011.096-.043.17-.101.221-.061.053-.134.07-.224.062m-16.796-.047l.018.098-.108.048c-.047.045-.064.11-.047.197l.038.106c.035.058.083.084.142.075l.087-.054.026-.135.005-.112.028-.152c.024-.054.07-.088.138-.098.075-.014.139.002.196.043.055.039.094.106.107.193.017.08.009.152-.023.217-.03.064-.091.104-.182.119l-.017-.1.095-.05c.036-.039.047-.096.033-.174l-.067-.125-.102-.027-.08.062-.019.148-.006.113-.029.129c-.029.056-.079.092-.151.104-.092.016-.162-.006-.213-.062-.051-.058-.084-.125-.1-.208-.017-.1-.005-.177.035-.241.041-.062.107-.099.196-.113m-.05 1.039l.792-.235.184.547-.096.031-.151-.451-.241.073.14.414-.093.029-.138-.416-.269.079.153.459-.095.027-.187-.557m.352.947l.729-.379.078.133-.501.52.732-.123.075.133-.727.377-.052-.088.429-.221.075-.041.11-.054-.728.121-.053-.092.497-.52-.023.014-.079.041-.081.043-.428.225-.052-.09m1.357 1.054l-.107-.066-.155-.154.208-.185.154.154.059.082c.014.045 0 .088-.044.127l-.115.043m-.586.073l.255-.231.18.181c.058.056.117.084.178.082.065-.002.118-.025.167-.07.053-.047.08-.104.08-.162-.001-.056-.028-.111-.079-.162l-.259-.258-.603.541.08.08m.728.63l.437-.67.516.306-.053.081-.424-.248-.132.203.391.231-.051.079-.39-.231-.148.229.429.252-.051.079-.523-.31m1.292-.13l.262.082.083.041.023.129-.08.092-.127-.01-.248-.079.087-.255m-.227.66l.11-.32.245.079.091.043.023.113-.036.127-.015.062.001.025.129.043.006-.019-.02-.052.015-.066.032-.102.006-.102-.052-.07.106-.041.066-.106c.029-.084.014-.154-.051-.208l-.139-.077-.367-.11-.255.748.107.033" fill="#253776"/><path fill="#BC7260" d="M7.547 16.991c.095-.224.972-.834 3.851-.567 0 0 .486.291.772.254.163-.021-.096.009-.308-.163-.218-.173-.264-.528.233-.52.493.013 2.339.115 2.374.278.032.164-.976.233-1.351.224-.377-.011-.333.176.042.161 1.171-.04 2.45-.445 3.803.491.16.113-.407.132-.848-.051 0 0-1.192.06-1.707-.022 0 0-.397.315-.913.285.067.164-.19.775-1.811.315-.268.081-1.245.241-1.139-.043-.256 0-.708.082-.774-.061-.066-.142.793-.355.943-.508 0 0-1.815.017-2.159-.105 0 0-1.07.236-1.007.031"/><path fill="#068938" d="M8.129 19.48c.038-.05.054-.144.137-.142.18.047.302.369.524.16l.173.101c.041.177.188-.037.297-.024.235-.103.524-.127.802-.077.008.175-.132.37-.307.469l.164.468c-.028.066-.005.17-.108.191-.13-.022-.259-.036-.366-.108l-.051-.03c-.013.058.082.118.119.178-.066.109-.174.009-.265.01-.027.062 0 .142-.067.182-.115-.003-.138-.127-.209-.187-.073.078.05.123.069.184-.044.231-.038.457-.274.608l-.159.078-.045-.415c-.094.15-.166.28-.303.406-.16-.051-.254-.238-.289-.391-.067-.179-.029-.393.115-.524-.048-.094-.218-.073-.241-.205l-.555.051c-.052-.215.011-.482.168-.642-.035-.088-.152-.064-.223-.116-.158-.132-.388-.272-.376-.511.433-.156.953-.039 1.27.284"/><path fill="#F9D911" d="M8.354 19.456c-.011.194.134.052.241.172-.084-.033-.144.142-.227.041l-.051.048c.029.067.089.077.028.15-.09.033-.109-.078-.15-.121l-.019-.068c-.05.043-.104.058-.174.05l-.018-.116c.069-.091.175.032.228-.031.008-.056-.042-.126.023-.164l.12.038m.537.161l.03.117c.065-.034.135-.008.172.054l-.035.097-.101-.019-.038-.05-.105.044.07.107-.156-.023-.054-.136-.135.082c-.038-.042-.076-.1-.034-.146.044-.029.121-.022.158.016.067-.073.074-.346.229-.142m-.671.282l.046.214c.087-.161.171.034.275.019l.016.135c-.128.033-.283.074-.398-.028l-.031.036c.068.062.132.132.078.235-.096.02-.246.023-.294-.074-.024-.082.059-.139-.029-.203-.064.079-.061.182-.196.112-.082-.044-.108-.137-.066-.214.087-.134.238.004.331-.062.013-.113-.029-.213.078-.277.093-.016.135.052.191.108"/><path fill="#fff" d="M8.587 19.969c-.043.194-.193-.01-.262-.018.093-.164.152.052.262.018m.467.213c-.104.028-.088-.1-.138-.149l.039-.036.099.185"/><path fill="#F9D911" d="M8.913 20.141c.03.067-.068.122.016.171l.072-.064c.072.021.154.032.204.103.053.144-.095.14-.178.179l-.084-.003-.049-.085-.093.033c.018.092.132.161.016.243-.1-.006-.253.032-.243-.102-.037-.077.101-.192-.047-.197-.048.102-.101.2-.228.105l.016-.146c.121.004.264.024.319-.109.034-.097-.061-.185.024-.261.123-.028.194.053.256.133"/><path fill="#010202" d="M8.825 20.361c.03.071-.053.077-.093.112l-.123-.05c-.024-.088.042-.097.094-.131.058-.024.084.043.122.069"/><path fill="#fff" d="M8.752 20.408l-.051.016-.019-.087c.04.003.092.015.071.07"/></svg>