<svg xmlns="http://www.w3.org/2000/svg" width="64" height="48"><path fill="#262D62" d="M0 0h64v48h-64z"/><path fill="#fff" d="M32 .02h-3.9l-8.007 5.969v-5.989h-8.184v6.014l-8.042-5.994h-3.867v2.913l6.759 5.071h-6.759v7.99h6.759l-6.759 5.071v2.914h3.867l8.042-5.995v6.014h8.184v-5.989l8.007 5.97h3.9v-2.914l-6.792-5.071h6.792v-7.99h-6.792l6.792-5.071z"/><path fill="#DC2F34" d="M29.485.02l-10.68 7.989h2.556l10.639-7.989zM32 23.979l-10.65-7.985h2.567l8.083 6.081zM10.702 8.009l-10.702-7.989v1.908l8.123 6.081zM10.68 15.994l-10.68 7.985h2.556l10.681-7.985zM32 9.662h-13.655v-9.66h-4.69v9.66h-13.655v4.678h13.655v9.66h4.69v-9.66h13.655z"/><path fill="#FFE000" d="M57 18v7.814c0 6.416-2.395 12.289-9.501 15.858-7.105-3.568-9.499-9.442-9.499-15.858v-7.814h19z"/><path fill="#F8AE4C" d="M43.075 21.425c-.137-.109-.285-.175-.492-.181.045-.531-.321-.76-.585-.856-.263-.097-.355-.205-.4-.422-.046-.217-.184-.35-.424-.422-.241-.072-.448-.325-.539-.446-.092-.121-.127-.097-.195.109-.067.205-.344.59-.091.603-.184.157-.287.338-.173.579-.125.109-.218.265-.046.326.173.061.219.108.229.156-.154 0-.194.326.172.399-.08.012-.114.277.035.277-.207 0-.38.326-.643.326-.264 0-.401.061-.413.181-.01.12-.148.265-.217.325.193.024.32 0 .425-.084.102-.084.274-.108.388-.012.115.096.355.145.471.121-.252.181-.436.422-.458.651-.023.229-.172.495-.344.567-.173.072-.401.265-.481.494.217.567.526.707.836.856.551.266.894.458 1.124.723.229.266.32.072.664.531.344.458.665 1.327 1.008 1.472.345.145.781.048 1.033-.41.252-.461.411-5.092-.884-5.863zm.585-1.93c-.32.362-.734.724-.665 1.375.069.652.138 1.713-.436 2.075-.572.362-.848 1.278-.16 1.809.688.53.71 1.182.824 1.785.116.604.414 1.086.871.675.46.073.712-.12.712-.506s.022-.604.367-.724c.343-.12.435-.241.596-.567.16-.325.252-.47.16-.663-.093-.193-.126-.591-.058-.88.068-.29-.091-.446-.184-.627-.091-.181-.126-.337-.08-.579.046-.241-.068-.398-.229-.519-.161-.12-.229-.241-.195-.434.034-.192-.115-.313-.286-.458-.172-.145-.298-.338-.298-.627.002-.291-.527-.966-.939-1.135z"/><path fill="#F6B7C4" d="M43.786 27.37c.769-.205.699-1.531.584-2.087-.113-.554-.408-1.349-.183-1.977.321-.893-.391-1.737-.206-2.075.183-.337.16-.519.137-.627-.023-.108-.194-.192-.206.036-.011.229-.069.314-.205.458-.139.145-.104.458 0 .808.103.35.321.88-.023 1.58-.344.699-.203 1.011-.069 1.338.205.508.697 2.269.171 2.546z"/><path d="M40.349 19.809c.085 0 .252-.036.252.084m-.425.495c.104-.079.286.012.471-.103m-.288.585c.138 0 .321-.005.493-.15m-.321.549c.126 0 .361-.085.419-.26m-.384.536c.245-.012.573.084.618-.006m-.607.863c.172-.169.579-.284.671-.458m-.235-2.232c.287.097.168.284.311.399.251.205.021.434.229.494.205.061.202.097.148.338-.063.284.195.296.104.482m.778-.181c-.114 0-.452.012-.596.332m-1.851 3.147c.133.024.198-.055.236-.133.04-.084.056-.145.176-.15.122-.006.305-.042.345-.139.04-.097.184-.006.304-.259.119-.253.2-.555.521-.664" fill="none"/><path d="M51.305 27.003c-.676.314-1.271.756-.929 1.146.355.404.78-.453 1.078-.958l-.149-.188zm1.444 0c.676.314 1.271.756.929 1.146-.355.404-.78-.453-1.078-.958l.149-.188zm-1.283.185c-.524.564-.935 1.215-.484 1.44.465.234.637-.747.747-1.336l-.263-.104zm1.121 0c.525.564.935 1.215.485 1.44-.466.234-.637-.747-.748-1.336l.263-.104zm-.561.149c0 .624.161 1.62-.404 1.458-.479-.138-.275-.825.124-1.503l.28.045zm.001 0c0 .624-.161 1.62.404 1.458.479-.138.276-.825-.124-1.503l-.28.045zm0-6.057c-.517-.772-1.573-.912-2.018-.411-.619.7-.552 1.831-.391 3.233.206 1.784.434 4.167.229 5.45-.046.289-.083.768.138.121.321-.941.275-3.209.16-5.282-.113-2.074-.107-2.751.242-3.088.274-.265.818-.253 1.242.193.068.042.659.127.797 0 .51-.495.963-.458 1.238-.193.348.336.354 1.014.24 3.088-.114 2.073-.161 4.341.16 5.282.221.646.184.168.138-.121-.203-1.283.023-3.666.229-5.45.163-1.402.23-2.533-.389-3.233-.442-.501-1.501-.361-2.015.411zm-2.557 2.616c-.62.006-1.346.072-1.672.291.103-.241.171-.458.367-.603.176-.131.342-.282 1.249-.237l.056.549zm.8.271l.715.369-.104-.591-.626-.336.015.558zm-.892-1.326c-.645-.143-1.535-.375-1.981-.415l.436-.169c.238-.076.485-.123 1.548.056l-.003.528zm.845.388l.612.378.022-.482-.63-.425-.004.529zm-.808-1.385c-.549-.233-1.196-.504-1.583-.624l.458-.075c.237-.024.394-.116 1.259.199-.056.117-.111.364-.134.5zm.816.529l.627.606.114-.469-.674-.703c-.025.125-.072.44-.067.566zm-.021-1.815c-.286-.372-.643-.872-.831-1.087-.263-.301-.572-.482-.768-.554.011.229.253.554.505.916.169.243.493.676.732 1.001.063-.108.246-.227.362-.276zm.518.718c.148.27.311.585.416.8-.046.109-.159.29-.171.434l-.602-.916c.051-.127.207-.31.357-.318zm.478-.791c.045-.382.055-.91-.004-1.123-.396.466-.518.795-.532 1.068.153-.018.422.007.536.055zm.684.404c.045-.097.057-.2.045-.272-.225-1.423-.31-1.628-.813-1.893.146.285.223 1.058.25 1.821.139.059.408.217.518.344zm-.319.72c-.119.098-.323.279-.428.466-.069-.138-.227-.485-.332-.819.133-.006.363.041.472.12l.091.362.006-.295.191.166zm3.011 2.287c.62.006 1.348.072 1.674.291-.104-.241-.171-.458-.367-.603-.177-.131-.344-.282-1.249-.237l-.058.549zm-.8.271l-.712.369.103-.591.624-.336-.015.558zm.894-1.326c.645-.143 1.534-.375 1.981-.415l-.437-.169c-.238-.076-.485-.123-1.548.056l.004.528zm-.845.388l-.612.378-.023-.482.629-.425.006.529zm.808-1.385c.549-.233 1.195-.504 1.582-.624l-.458-.075c-.236-.024-.394-.116-1.26.199.057.117.111.364.136.5zm-.818.529l-.626.606-.114-.469.672-.703c.026.125.076.44.068.566zm.022-1.815c.287-.372.644-.872.831-1.087.264-.301.573-.482.769-.554-.012.229-.252.554-.505.916-.17.243-.493.676-.733 1.001-.064-.108-.245-.227-.362-.276zm-.516.718c-.15.27-.312.585-.419.8.047.109.162.29.173.434l.603-.916c-.052-.127-.208-.31-.357-.318zm-.479-.791c-.046-.382-.055-.91.004-1.123.396.466.518.795.532 1.068-.155-.018-.422.007-.536.055zm-.684.404c-.046-.097-.057-.2-.046-.272.226-1.423.31-1.628.813-1.893-.146.285-.222 1.058-.25 1.821-.14.059-.409.217-.517.344zm.316.72c.122.098.324.279.428.466.07-.138.228-.485.334-.819-.133-.006-.363.041-.472.12l-.091.362-.007-.295-.192.166zm-.453 5.725c.469 0 .756-.217.756-.362 0-.796.229-1.76.436-3.111.206-1.351-.391-2.46-1.191-2.46-.803 0-1.398 1.109-1.192 2.46.205 1.351.436 2.315.436 3.111-.001.145.286.362.755.362" fill="#003671"/><g fill="none"><path d="M52.875 21.919c.114.181-.114.434-.848.434-.735 0-.964-.253-.849-.434m1.949.531c.061.208-.315.434-1.1.434-.785 0-1.162-.226-1.101-.434m2.31.53c.022.266-.476.434-1.209.434-.735 0-1.232-.168-1.21-.434m2.425.531c-.023.265-.481.434-1.215.434-.735 0-1.192-.169-1.216-.434m2.373.531c-.033.214-.423.434-1.156.434-.735 0-1.124-.219-1.158-.434m2.224.53c-.038.214-.333.434-1.066.434-.735 0-1.03-.219-1.066-.434m2.047.532c-.037.207-.248.434-.981.434-.735 0-.946-.227-.983-.434m1.885.485c-.034.214-.169.435-.902.435-.735 0-.87-.221-.904-.435m1.728.485c-.03.215-.091.434-.824.434-.735 0-.797-.219-.825-.434m1.598.486c-.021.217-.04.434-.773.434-.735 0-.755-.217-.774-.434M52.027 21.28v6.054"/></g><path fill="#086" d="M49.229 29.993c.129.197-.005.412.215.498.258.1.032.457.337.583.271.111.002.452.294.605.26.138-.044.458.304.641s-.065.595.195.755c.262.159-.087.571.217.73l.152.71.219.777c.281.206-.174.48.107.777.218.229-.078.452.087.8.109.229-.108 1.144-.716 1.053-.219.389-1.066.73-1.37.616-.304.229-1.281.55-1.781.046-.501.504-1.479.184-1.782-.046-.304.114-1.151-.228-1.368-.616-.609.091-.826-.824-.717-1.053.164-.348-.131-.571.087-.8.281-.297-.175-.571.108-.777l.217-.777.152-.71c.305-.159-.044-.571.217-.73.261-.16-.151-.572.195-.755.348-.183.045-.503.304-.641.292-.153.023-.494.295-.605.304-.126.078-.483.337-.583.222-.088.08-.308.221-.508.646.268 2.649.46 3.474.01z"/><path d="M46.016 31.189c.001.102-.001.204-.093.331-.195.273.087.411-.13.708-.216.298.043.48-.195.731l-.195.755-.196.709-.195.777s.043.571-.217.869c-.261.297.043.526-.174.754-.218.229-.022.457-.174.618.261-.206.261-.526.455-.687.196-.159-.064-.389.044-.503s.022-.595.218-.822c.195-.229.022-.687.195-.847.175-.16.044-.641.262-.8.216-.161 0-.55.173-.756l.174-.777c.174-.251.009-.479.131-.685.052-.089.052-.753-.083-.375zm.625.286c-.151.298.107.366-.087.663-.195.297.108.525-.109.822-.217.298.109.457-.086.755-.196.297.086.458-.087.686-.174.229.13.459-.087.732-.218.274.087.48-.087.731-.175.251.064.526-.088.732-.151.205.109.502-.107.776-.218.275.043.458-.087.641.26-.091.162-.469.26-.548.098-.081-.031-.606.12-.744l.043-.743c.239-.309.033-.515.174-.754.142-.24-.053-.548.055-.709.185-.274-.082-.522.054-.72.196-.287-.037-.521.098-.71.208-.285-.021-.571.065-.721.086-.146.227-.788-.044-.889zm.847.25c-.152.397.108.557.021.876-.086.318.107.558-.021.903-.13.345.174.61 0 1.062-.174.452.111.564 0 1.009-.13.519.217.793 0 1.159-.217.365.249.486.021.868-.108.184.011.651.185.092.174-.561-.13-.628.021-.857.152-.229-.054-.834.011-1.154.065-.32-.152-.755-.011-1.098s-.217-.708-.076-1.006c.142-.298-.065-.663.065-.903s-.097-.561-.043-.698c.055-.137-.053-.645-.173-.253z" fill="#FFE000"/><path fill="#DC2F34" d="M49.118 30.263c0-2.584-.348-3.476-1.63-3.476-1.283 0-1.63.892-1.63 3.476h3.26z"/><path d="M46.337 30.057l-.196.732c-.238.297-.021.457-.218.731-.195.273.087.411-.13.708-.216.298.043.48-.195.731l-.195.755-.196.709-.195.777s.043.571-.217.869c-.261.297.043.526-.174.754-.218.229-.022.457-.174.618-.152.159-.175.383-.108.48m2.453-7.774c-.216.298.109.436-.087.687-.194.252.087.344-.064.641-.151.298.107.366-.087.663-.195.297.108.525-.109.822-.217.298.109.457-.086.755-.196.297.086.458-.087.686-.174.229.13.459-.087.732-.218.274.087.48-.087.731-.175.251.064.526-.088.732-.151.205.109.502-.107.776-.218.275.043.458-.087.641-.131.184-.234.451-.109.525m1.781-8.116c-.109.479.151.903 0 1.303-.152.397.108.557.021.876-.086.318.107.558-.021.903-.13.345.174.61 0 1.062-.174.452.111.564 0 1.009-.13.519.217.793 0 1.159-.217.365.194.457.021.868-.174.412.107.572-.021.983m1.152-8.528l.196.732c.239.297.021.457.217.731.195.273-.087.411.13.708.217.298-.043.48.195.731l.195.755.196.709.195.777c.24.251-.043.571.218.869.261.297-.043.526.173.754.218.229.022.457.175.618.152.159.174.383.109.48m-2.455-7.774c.218.298-.109.436.087.687.195.252-.087.344.065.641.151.298-.108.366.087.663.194.297-.109.525.108.822.218.298-.108.457.086.755.196.297-.086.458.087.686.175.229-.13.459.088.732.217.274-.088.48.087.731.174.251-.065.526.087.732.152.205-.109.502.109.776.217.275-.044.458.087.641.13.184.232.451.107.525" fill="none"/><path d="M45.858 30.263c0-2.584.347-3.476 1.63-3.476-.587 0-.945.479-1.044.8-.097.32-.043.297.088.172.13-.125.064.148-.043.297-.109.148-.218.572-.065.436.152-.138.271.021.108.263-.164.239-.305.799-.142.606.163-.196.196.125.099.284-.099.161-.088.297 0 .229.087-.068.075.264-.012.389h-.619zm3.01-.149c0-2.023-.239-2.63-.717-2.836-.271-.116-.279-.092-.149.092.129.183.109.445-.01.264-.12-.184-.159-.218-.208-.138-.051.079.138.457.277.801.111.275.04.41-.129.137-.169-.274-.169-.026-.021.206.191.297.186 1.199.186 1.577l.771-.103z"/><path fill="#DC2F34" d="M47.488 30.64c.511 0 1.069-.095 1.445-.249.444-.182.469-.342.314-.546-.108-.144-.348-.058-.575.048-.229.105-.858.173-1.185.173s-.956-.067-1.185-.173-.468-.191-.576-.048c-.154.204-.13.364.316.546.376.154.937.249 1.446.249z"/></svg>