<svg xmlns="http://www.w3.org/2000/svg" width="64" height="48"><path fill="#fff" d="M0 0h64v48h-64z"/><path fill="#CC1417" d="M0 0h64v14h-64z"/><path fill="#0C682F" d="M0 34h64v14h-64z"/><g fill="#F4C800"><path d="M32.005 15.18l-.264.945h-1.007l.845.53-.357.938.783-.628.783.628-.353-.945.84-.523h-1.004zM27.399 16.456l-.262.945h-1.008l.845.53-.358.938.783-.628.784.628-.354-.945.841-.523h-1.004zM24.11 19.922l-.263.945h-1.007l.844.53-.357.937.783-.627.783.627-.354-.944.841-.523h-1.004zM23.077 24.587l-.264.945h-1.006l.844.53-.357.938.783-.628.783.628-.354-.944.842-.524h-1.004zM32.005 30.515c.5 0 .843-.412 1.001-.465.157-.053.184-.132-.009-.193-.102-.032-.448-.053-.623 0 .008-.219-.22-.754-.369-.991-.149.237-.377.772-.369.991-.175-.053-.521-.032-.623 0-.193.062-.166.141-.009.193.158.053.501.465 1.001.465zm-3.901.473c.495-.073.772-.531.922-.606.148-.075.163-.157-.037-.19-.104-.017-.451.014-.616.092-.024-.219-.328-.714-.511-.927-.112.257-.26.819-.219 1.035-.182-.026-.521.045-.616.091-.183.09-.145.164.02.193.164.028.562.386 1.057.312zm3.901-4.59c.474 2.317 2.545 3.914 4.388 1.352.492 2.738 3.09 2.703 3.896 1.001-1.403.772-3.036.387-3.861-1.281-1.123 1.229-3.106.579-3.773-.562-.667-1.142-.526-3.353-.229-3.862.299-.509 1.053-.491 1.422-.035.176-1.316-.685-2.176-1.843-2.176s-2.019.86-1.843 2.176c.368-.456 1.123-.474 1.421.035.299.51.439 2.721-.228 3.862s-2.65 1.79-3.773.562c-.825 1.668-2.458 2.054-3.862 1.281.808 1.702 3.405 1.737 3.897-1.001 1.843 2.562 3.914.966 4.388-1.352zm0 4.792c1.948 0 5.072.492 6.302.896l-.176.753c-1.329-.392-4.265-.841-6.126-.841s-4.797.449-6.126.841l-.176-.753c1.23-.403 4.354-.896 6.302-.896zM36.61 16.456l.263.945h1.007l-.844.53.358.938-.784-.628-.783.628.354-.945-.841-.523h1.004zM39.899 19.922l.264.945h1.007l-.845.53.358.937-.784-.627-.782.627.354-.944-.841-.523h1.003zM40.933 24.587l.263.945h1.007l-.845.53.358.938-.783-.628-.784.628.354-.944-.841-.524h1.004zM35.905 30.988c-.495-.073-.773-.531-.922-.606s-.163-.157.037-.19c.104-.017.45.014.616.092.023-.219.328-.714.511-.927.112.257.26.819.219 1.035.182-.026.521.045.616.091.183.09.145.164-.02.193-.163.028-.563.386-1.057.312z"/></g></svg>