<svg xmlns="http://www.w3.org/2000/svg" width="64" height="48"><path fill="#26225B" d="M0 0h64v48h-64z"/><path fill="#FFCE00" d="M0 48c20.543-15.37 29.145-34.414 51.259-48-6.002 11.393-4.763 37.174 12.741 47.848l-64 .152z"/><path fill="#26225B" d="M0 42h64v3h-64z"/><path d="M11.379 5.174h1.965l.607-1.868.606 1.868h1.965l-1.589 1.155.607 1.868-1.589-1.154-1.589 1.154.607-1.868-1.59-1.155zm-7.855 7.903h1.965l.606-1.868.607 1.868h1.965l-1.589 1.155.607 1.868-1.59-1.155-1.589 1.155.607-1.868-1.589-1.155zm14.873-1.961h1.748l.54-1.662.54 1.662h1.747l-1.414 1.027.54 1.663-1.414-1.028-1.414 1.028.54-1.663-1.414-1.027zm-7.3 14.366h2.181l.674-2.077.674 2.077h2.181l-1.764 1.284.674 2.077-1.764-1.283-1.764 1.283.674-2.077-1.763-1.284z" fill="#fff"/></svg>