<svg xmlns="http://www.w3.org/2000/svg" width="64" height="48"><path fill="#008E5B" d="M0 0h64v48h-64z"/><path fill="#90185A" d="M5 0h16v48h-16z"/><path fill="#F49800" d="M13 10.872l.34.365.465-.24v1.694h.141v-.73h1.079v1.097l.097.099v-.678h1.143v1.019h.096v-.456h1.246v.66h.413l-.297.547.297.547h-.413v.66h-1.246v-.456h-.096v1.019h-1.143v-.678l-.097.098v1.098h-1.079v-.73h-.141v1.695l-.465-.241-.34.365-.339-.365-.466.241v-1.695h-.14v.73h-1.08v-1.098l-.096-.098v.678h-1.143v-1.019h-.096v.456h-1.247v-.66h-.412l.296-.547-.296-.547h.412v-.66h1.247v.456h.096v-1.019h1.143v.678l.096-.099v-1.097h1.08v.73h.14v-1.694l.466.24z"/><path fill="#fff" d="M8.597 14.571h-.241l.166-.322-.166-.322h.241zM17.403 14.571h.242l-.166-.322.166-.322h-.242z"/><path d="M8.597 15.245h.839v-.456h.504v1.019h.735v-.974l.505.518v.974h.671v-.73h.548v1.567l.303-.161.297.319.298-.319.303.161v-1.567h.548v.73h.671v-.974l.504-.518v.974h.736v-1.019h.504v.456h.838v-1.99h-.838v.455h-.504v-1.019h-.736v.974l-.504-.518v-.973h-.671v.73h-.548v-1.567l-.303.161-.298-.32-.297.32-.303-.161v1.567h-.548v-.73h-.671v.973l-.505.518v-.974h-.735v1.019h-.504v-.455h-.839z"/><g fill="#F49800"><path d="M11.516 12.774l.209-.31h-.418zM11.516 15.725l.209.31h-.418zM14.482 12.774l-.209-.31h.418zM14.482 15.725l-.209.31h.418z"/></g><g fill="#fff"><path d="M9.037 14.789h.903v1.019h.735v-.974l-.166-.158h-.367v-.202h-.773v-.449h.773v-.202h.367l.166-.158v-.974h-.735v1.019h-.903zM16.961 14.789h-.902v1.019h-.736v-.974l.166-.158h.368v-.202h.772v-.449h-.772v-.202h-.368l-.166-.158v-.974h.736v1.019h.902zM13.297 13.098v-.475l.155.081v-1.021l-.155.081-.298-.319-.297.319-.155-.081v1.021l.155-.081v.475zM13.297 15.401v.476l.155-.082v1.022l-.155-.081-.298.319-.297-.319-.155.081v-1.022l.155.082v-.476z"/></g><g fill="#90185A"><path d="M10.308 13.291l.209-.31h-.418zM10.308 15.209l.209.31h-.418zM15.691 13.291l-.209-.31h.418zM15.691 15.209l-.209.31h.418zM12.999 12.252l-.208-.31h.417zM12.999 16.248l-.208.31h.417z"/></g><path fill="#F49800" d="M15.633 14.396h-.487l-.001.317-.66.687h-2.969l-.66-.687-.001-.317h-.487v-.293h.487l.001-.318.66-.687h2.969l.66.687.001.318h.487z"/><path fill="#90185A" d="M14.943 14.618l-.545.568h-2.796l-.544-.568v-.738l.544-.567h2.796l.545.567z"/><g fill="#F49800"><path d="M11.843 13.526l.488.691-.532.758h.325l.369-.526.182.259-.187.267h.324l.187-.267-.323-.46.323-.459-.184-.263h-.327l.164.233-.159.227-.326-.46zM14.155 13.526l-.487.691.532.758h-.325l-.369-.526-.182.259.187.267h-.324l-.188-.267.323-.46-.323-.459.185-.263h.327l-.165.233.16.227.325-.46z"/></g><g fill="#fff"><path d="M11.966 14.25l-.326-.459v.917zM14.033 14.25l.326-.459v.917zM12.999 14.708l.323-.46-.323-.459-.323.459z"/></g><path fill="#F49800" d="M14.154 24.508l1.376-.68v-.184h1.082v-.846h.87v-2.251h-.87v-.845h-1.082v-.184l-1.376-.682h-2.309l-1.376.682v.184h-1.082v.845h-.87v2.251h.87v.846h1.082v.184l1.376.68z"/><path d="M14.109 24.301l1.22-.605v-.26h1.083v-.846h.869v-1.834h-.869v-.845h-1.083v-.261l-1.22-.605h-2.219l-1.221.605v.261h-1.082v.845h-.87v1.834h.87v.846h1.082v.26l1.221.605z"/><path fill="#90185A" d="M14.062 24.092l1.065-.528v-.291h1.083v-.892h.869v-1.416h-.869v-.893h-1.083v-.29l-1.065-.528h-2.126l-1.066.528v.29h-1.084v.893h-.869v1.416h.869v.892h1.084v.291l1.066.528z"/><path d="M12.999 23.616l1.585-.792h1.243v-2.302h-1.243l-1.585-.792-1.587.792h-1.244v2.302h1.244z"/><path fill="#F49800" d="M8.917 21.673v-.708h.869v-.443h.382v1.046h-.755l.174-.118v-.25zM9.993 20.244h.673v.177h-.673zM13 19.962v1.71h2.353v-.936h-.805zM13 23.383v-1.711h-2.354v.938h.805z"/><path fill="#90185A" d="M13 19.962v1.71h-2.354v-.936h.805zM13 23.383v-1.711h2.353v.938h-.805z"/><path fill="#fff" d="M14.282 21.671l.516.287-.426.211-.223-.121.2-.098-.294-.16-.826.41.293.159.206-.104.222.121-.432.217-.518-.281-.518.281-.431-.217.222-.121.205.104.294-.159-.827-.41-.293.16.2.098-.223.121-.426-.211.516-.287-.516-.287.426-.211.223.121-.2.099.293.159.827-.409-.294-.16-.205.103-.222-.121.431-.215.518.28.518-.28.432.215-.222.121-.206-.103-.293.16.826.409.294-.159-.2-.099.223-.121.426.211z"/><path fill="#F49800" d="M13 22.124l.831-.452h-.831zM13 21.261l-.832.411h.832z"/><path d="M13 22.124l-.832-.452h.832zM13 21.261l.831.411h-.831z"/><path fill="#fff" d="M11.329 19.761v.761h.083l1.588-.792v-.476h-1.064v.356h.183v-.198h.726v.21l-.896.454z"/><path fill="#F49800" d="M11.483 20.001v.249l.244-.121zM11.329 20.522v-.761l.62.315.896-.454v-.21h-.726v.198h-.183v-.356l-1.065.528v.74z"/><path fill="#fff" d="M14.669 23.585v-.761h-.084l-1.586.792v.476h1.063v-.356h-.183v.198h-.726v-.209l.897-.455z"/><path fill="#F49800" d="M14.515 23.345v-.249l-.244.12zM14.669 22.824v.761l-.619-.315-.897.455v.209h.726v-.198h.183v.356l1.064-.528v-.74z"/><path fill="#90185A" d="M14.668 19.761v.761h-.084l-1.586-.792v-.476h1.064v.356h-.184v-.198h-.726v.21l.897.454z"/><path fill="#fff" d="M14.514 20.001v.249l-.244-.121zM14.668 20.522v-.761l-.619.315-.897-.454v-.21h.726v.198h.184v-.356l1.063.528v.74z"/><path fill="#90185A" d="M11.329 23.585v-.761h.083l1.588.792v.476h-1.064v-.356h.183v.198h.726v-.209l-.896-.455z"/><path fill="#fff" d="M11.483 23.345v-.249l.244.12zM11.329 22.824v.761l.62-.315.896.455v.209h-.726v-.198h-.183v.356l-1.065-.528v-.74zM8.917 21.673v.708h.869v.443h.382v-1.047h-.758l.174.119v.25zM9.99 22.924h.673v.177h-.673z"/><path fill="#F49800" d="M17.079 21.674v.707h-.869v.443h-.383v-1.046h.756l-.175.118v.25zM15.329 22.925h.673v.177h-.673z"/><path fill="#fff" d="M17.079 21.673v-.708h-.869v-.442h-.383v1.046h.757l-.174-.119v-.249zM15.332 20.245h.673v.177h-.673z"/><path fill="#F49800" d="M12.999 32.594l.36-.436.407.225v-.479l.404.225v-.682h1.838l.081-.084.246.256.116-.265h.341v-.356l.257-.121-.247-.256.196-.205v-.498h.449l-.188-.211h.551l-.223-.25.434-.367-.434-.369.223-.25h-.551l.188-.211h-.449v-.494l-.196-.204.247-.255-.257-.123v-.354h-.341l-.116-.268-.246.258-.081-.084h-1.838v-.681l-.404.222v-.478l-.407.224-.36-.435-.36.435-.407-.224v.478l-.404-.222v.681h-1.837l-.082.084-.246-.258-.116.268h-.341v.354l-.256.123.247.255-.197.204v.494h-.449l.188.211h-.551l.224.25-.434.369.434.367-.224.25h.551l-.188.211h.449v.498l.197.205-.247.256.256.121v.356h.341l.116.265.246-.256.082.084h1.837v.682l.404-.225v.479l.407-.225z"/><path d="M12.999 25.91l.313.379.251-.139v.477l.405-.223v.541h1.955l.87.907v2.478l-.87.906h-1.955v.541l-.405-.222v.476l-.251-.138-.313.378-.312-.378-.252.138v-.476l-.405.222v-.541h-1.955l-.87-.906v-2.478l.87-.907h1.955v-.541l.405.223v-.477l.252.139z"/><path fill="#F49800" d="M15.841 27.156l.747.78v2.316l-.747.779h-5.684l-.747-.779v-2.316l.747-.78z"/><path d="M15.673 30.609l.478-.498v-2.035l-.478-.498h-5.348l-.478.498v2.035l.478.498zM15.673 30.609l.478-.498M16.151 28.076l-.478-.498"/><path fill="#90185A" d="M10.797 27.289h.541v.156h-.541zM12.729 27.289h.542v.156h-.542zM9.553 28.811h.151v.562h-.151zM10.797 30.742h.541v.156h-.541zM12.729 30.742h.542v.156h-.542zM14.66 27.289h.542v.156h-.542zM16.294 28.811h.151v.562h-.151zM14.66 30.742h.542v.156h-.542z"/><path fill="#fff" d="M11.763 27.289h.542v.156h-.542zM9.824 27.908l.383-.398-.107-.112-.383.399zM11.763 30.742h.542v.156h-.542zM9.824 30.279l.383.399-.107.111-.383-.398zM13.694 27.289h.542v.156h-.542zM16.174 27.908l-.382-.398.107-.112.382.399zM13.694 30.742h.542v.156h-.542zM16.174 30.279l-.382.399.107.111.382-.398z"/><path fill="#F49800" d="M12.999 28.201h2.213l.302.315v.576h-2.515z"/><path fill="#90185A" d="M12.999 28.201h-2.213l-.302.315v.576h2.515z"/><path fill="#F49800" d="M12.034 28.059l-.271-.299h.541zM10.482 27.797l.013.412-.395-.014zM12.034 30.129l-.271.299h.541zM10.482 30.391l.013-.411-.395.012zM13.965 28.059l.27-.299h-.541zM15.516 27.797l-.012.412.395-.014zM13.965 30.129l.27.299h-.541zM15.516 30.391l-.012-.411.395.012z"/><path fill="#fff" d="M11.338 27.76l-.27.299-.271-.299zM13.27 27.76l-.271.299-.27-.299zM10.005 28.811l.288.281-.288.281zM11.338 30.428l-.27-.299-.271.299zM13.27 30.428l-.271-.299-.27.299zM14.66 27.76l.27.299.271-.299zM15.993 28.811l-.288.281.288.281zM14.66 30.428l.27-.299.271.299zM9.205 28.471h-.19l.163.183h-.551l.188.211h-.261l-.261.225.261.222h.261l-.188.213h.551l-.163.182h.19zM9.909 27.117l-.185-.193-.06.115h-.256v.268l-.111.062.186.193zM9.909 31.07l-.185.194-.06-.118h-.256v-.265l-.111-.063.186-.193zM16.793 28.471h.19l-.163.183h.551l-.188.211h.261l.261.225-.261.222h-.261l.188.213h-.551l.163.182h-.19zM16.089 27.117l.185-.193.06.115h.256v.268l.111.062-.185.193zM16.089 31.07l.185.194.06-.118h.256v-.265l.111-.063-.185-.193zM13.819 26.947v-.285l-.404.223v-.477l-.23.127v-.16l-.186-.225-.187.225v.16l-.229-.127v.477l-.405-.223v.285zM13.819 31.24v.285l-.404-.222v.476l-.23-.125v.158l-.186.225-.187-.225v-.158l-.229.125v-.476l-.405.222v-.285z"/><path fill="#F49800" d="M12.999 29.982h-2.213l-.302-.316v-.574h2.515z"/><path fill="#90185A" d="M12.999 29.982h2.213l.302-.316v-.574h-2.515z"/><path fill="#fff" d="M14.789 29.09l.292.326-.365.33h-.217l.382-.346-.183-.203h-1.595v.221l.252.15.161-.156h.204l-.347.348-.373-.223-.372.223-.348-.348h.205l.161.156.252-.15v-.221h-1.596l-.182.203.382.346h-.218l-.365-.33.293-.326-.293-.324.365-.33h.218l-.382.345.182.201h1.596v-.218l-.252-.151-.161.157h-.205l.348-.348.372.223.373-.223.347.348h-.204l-.161-.157-.252.151v.218h1.595l.183-.201-.382-.345h.217l.365.33z"/><path d="M7.262 13.205l.462-.318h-.286v-.446l1.068-.709-.444-.349-.05.032v.403l-.145.097v-.585l.708-.475h.894l-.227.152h-.548l.415.327 1.194-.796-1.194-.796-.415.327h.548l.227.152h-.894l-.708-.474v-.585l.145.096v.404l.05.032.444-.351-1.068-.708v-.446h.286l-.462-.317z"/><path fill="#F49800" d="M10.303 10.538l-1.194.796-.415-.327h.548l.227-.152h-.894l-.708.475v.585l.145-.097v-.403l.05-.032.444.349-1.068.709v.446h.285l-.461.318v.238l.961-.725h-.641v-.194l1.183-.783-.572-.445.34-.224.57.445 1.478-.979-1.478-.978-.57.445-.34-.225.572-.444-1.183-.783v-.195h.641l-.961-.725v.239l.461.317h-.285v.446l1.068.708-.444.351-.05-.032v-.404l-.145-.096v.585l.708.474h.894l-.227-.152h-.548l.415-.327zM7.437 9.266v-.384l.225.144v.24z"/><path fill="#90185A" d="M7.437 9.398h.225v.401h-.225z"/><path fill="#F49800" d="M7.437 11.811v.383l.225-.144v-.239z"/><path fill="#90185A" d="M7.437 11.277h.225v.401h-.225z"/><path fill="#F49800" d="M7.375 11.065l.477-.001.548-.351v-.35l-.548-.352h-.477zM9.587 10.778l.35-.24-.35-.24z"/><path fill="#90185A" d="M8.576 10.376h.869v.325h-.869z"/><path d="M7.261 3v2.819l.462-.318h-.285v-.445l1.067-.709-.444-.35-.049.032v.404l-.145.096v-.585l.708-.475h.893l-.227.153h-.548l.415.327 1.425-.949z"/><path fill="#F49800" d="M10.531 3l-1.423.949-.415-.327h.548l.227-.153h-.893l-.708.475v.585l.145-.096v-.404l.049-.032.444.35-1.067.709v.445h.284l-.461.318v.239l.961-.725h-.64v-.195l1.182-.783-.572-.444.34-.225.57.445 1.707-1.131zM7.437 4.425v.384l.224-.144v-.24z"/><path fill="#90185A" d="M7.437 3.892h.224v.401h-.224z"/><path fill="#F49800" d="M7.374 3.156v.524l.477-.001.549-.352v-.171zM9.586 3.156v.237l.35-.237z"/><path fill="#90185A" d="M8.575 3.156h.869v.159h-.869z"/><path d="M18.738 13.205l-.462-.318h.286v-.446l-1.068-.709.445-.349.049.032v.403l.146.097v-.585l-.709-.475h-.894l.228.152h.548l-.416.327-1.194-.796 1.194-.796.416.327h-.548l-.228.152h.894l.709-.474v-.585l-.146.096v.404l-.049.032-.445-.351 1.068-.708v-.446h-.286l.462-.317z"/><path fill="#F49800" d="M15.697 10.538l1.194.796.416-.327h-.548l-.228-.152h.894l.709.475v.585l-.146-.097v-.403l-.049-.032-.445.349 1.068.709v.446h-.285l.461.318v.238l-.96-.725h.64v-.194l-1.183-.783.572-.445-.339-.224-.57.445-1.478-.979 1.478-.978.57.445.339-.225-.572-.444 1.183-.783v-.195h-.64l.96-.725v.239l-.461.317h.285v.446l-1.068.708.445.351.049-.032v-.404l.146-.096v.585l-.709.474h-.894l.228-.152h.548l-.416-.327zM18.563 9.266v-.384l-.224.144v.24z"/><path fill="#90185A" d="M18.339 9.398h.225v.401h-.225z"/><path fill="#F49800" d="M18.563 11.811v.383l-.224-.144v-.239z"/><path fill="#90185A" d="M18.339 11.277h.225v.401h-.225z"/><path fill="#F49800" d="M18.626 11.065l-.478-.001-.548-.351v-.35l.548-.352h.478zM16.414 10.778l-.351-.24.351-.24z"/><path fill="#90185A" d="M16.555 10.376h.869v.325h-.869z"/><path d="M18.739 3v2.819l-.462-.318h.286v-.445l-1.068-.709.445-.35.048.032v.404l.146.096v-.585l-.709-.475h-.893l.227.153h.549l-.416.327-1.425-.949z"/><path fill="#F49800" d="M15.469 3l1.423.949.416-.327h-.549l-.227-.153h.893l.709.475v.585l-.146-.096v-.404l-.048-.032-.445.35 1.068.709v.445h-.285l.461.318v.239l-.96-.725h.639v-.195l-1.182-.783.572-.444-.34-.225-.57.445-1.706-1.131zM18.564 4.425v.384l-.225-.144v-.24z"/><path fill="#90185A" d="M18.339 3.892h.225v.401h-.225z"/><path fill="#F49800" d="M18.627 3.156v.524l-.478-.001-.548-.352v-.171zM16.414 3.156v.237l-.35-.237z"/><path fill="#90185A" d="M16.556 3.156h.869v.159h-.869z"/><path d="M7.262 30.137l.462.318h-.286v.445l1.068.709-.444.35-.05-.031v-.405l-.145-.095v.584l.708.474h.894l-.227-.15h-.548l.415-.328 1.194.797-1.194.795-.415-.327h.548l.227-.152h-.894l-.708.475v.584l.145-.096v-.404l.05-.032.444.35-1.068.709v.445h.286l-.462.317z"/><path fill="#F49800" d="M10.303 32.805l-1.194-.797-.415.328h.548l.227.15h-.894l-.708-.474v-.584l.145.095v.405l.05.031.444-.35-1.068-.709v-.445h.285l-.461-.318v-.239l.961.725h-.641v.195l1.183.784-.572.445.34.223.57-.446 1.478.981-1.478.978-.57-.445-.34.223.572.445-1.183.783v.195h.641l-.961.725v-.24l.461-.317h-.285v-.445l1.068-.709-.444-.35-.05.032v.404l-.145.096v-.584l.708-.475h.894l-.227.152h-.548l.415.327zM7.437 34.076v.383l.225-.143v-.24z"/><path fill="#90185A" d="M7.437 33.543h.225v.402h-.225z"/><path fill="#F49800" d="M7.437 31.531v-.385l.225.145v.24z"/><path fill="#90185A" d="M7.437 31.664h.225v.4h-.225z"/><path fill="#F49800" d="M7.375 32.277h.477l.548.352v.35l-.548.351-.477.002zM9.587 32.564l.35.241-.35.238z"/><path fill="#90185A" d="M8.576 32.641h.869v.326h-.869z"/><path d="M18.738 30.137l-.462.318h.286v.445l-1.068.709.445.35.049-.031v-.405l.146-.095v.584l-.709.474h-.894l.228-.15h.548l-.416-.328-1.194.797 1.194.795.416-.327h-.548l-.228-.152h.894l.709.475v.584l-.146-.096v-.404l-.049-.032-.445.35 1.068.709v.445h-.286l.462.317z"/><path fill="#F49800" d="M15.697 32.805l1.194-.797.416.328h-.548l-.228.15h.894l.709-.474v-.584l-.146.095v.405l-.049.031-.445-.35 1.068-.709v-.445h-.285l.461-.318v-.239l-.96.725h.64v.195l-1.183.784.572.445-.339.223-.57-.446-1.478.981 1.478.978.57-.445.339.223-.572.445 1.183.783v.195h-.64l.96.725v-.24l-.461-.317h.285v-.445l-1.068-.709.445-.35.049.032v.404l.146.096v-.584l-.709-.475h-.894l.228.152h.548l-.416.327zM18.563 34.076v.383l-.224-.143v-.24z"/><path fill="#90185A" d="M18.339 33.543h.225v.402h-.225z"/><path fill="#F49800" d="M18.563 31.531v-.385l-.224.145v.24z"/><path fill="#90185A" d="M18.339 31.664h.225v.4h-.225z"/><path fill="#F49800" d="M18.626 32.277h-.478l-.548.352v.35l.548.351.478.002zM16.414 32.564l-.351.241.351.238z"/><path fill="#90185A" d="M16.555 32.641h.869v.326h-.869z"/><path d="M7.262 20.626l.462-.317h-.286v-.445l1.068-.709-.444-.35-.05.032v.403l-.145.097v-.585l.708-.475h.894l-.227.152h-.548l.415.327 1.194-.796-1.194-.795-.415.327h.548l.227.152h-.894l-.708-.475v-.585l.145.096v.403l.05.033.444-.35-1.068-.709v-.446h.286l-.462-.317z"/><path fill="#F49800" d="M10.303 17.96l-1.194.796-.415-.327h.548l.227-.152h-.894l-.708.475v.585l.145-.097v-.403l.05-.032.444.35-1.068.709v.445h.285l-.461.317v.24l.961-.725h-.641v-.196l1.183-.782-.572-.445.34-.224.57.445 1.478-.979-1.478-.979-.57.446-.34-.224.572-.445-1.183-.783v-.195h.641l-.961-.725v.239l.461.317h-.285v.446l1.068.709-.444.35-.05-.033v-.403l-.145-.096v.585l.708.475h.894l-.227-.152h-.548l.415-.327zM7.437 16.688v-.384l.225.144v.24z"/><path fill="#90185A" d="M7.437 16.82h.225v.401h-.225z"/><path fill="#F49800" d="M7.437 19.233v.384l.225-.145v-.239z"/><path fill="#90185A" d="M7.437 18.699h.225v.401h-.225z"/><path fill="#F49800" d="M7.375 18.487l.477-.001.548-.351v-.35l-.548-.352-.477-.001zM9.587 18.2l.35-.24-.35-.24z"/><path fill="#90185A" d="M8.576 17.798h.869v.325h-.869z"/><path d="M18.738 20.626l-.462-.317h.286v-.445l-1.068-.709.445-.35.049.032v.403l.146.097v-.585l-.709-.475h-.894l.228.152h.548l-.416.327-1.194-.796 1.194-.795.416.327h-.548l-.228.152h.894l.709-.475v-.585l-.146.096v.403l-.049.033-.445-.35 1.068-.709v-.446h-.286l.462-.317z"/><path fill="#F49800" d="M15.697 17.96l1.194.796.416-.327h-.548l-.228-.152h.894l.709.475v.585l-.146-.097v-.403l-.049-.032-.445.35 1.068.709v.445h-.285l.461.317v.24l-.96-.725h.64v-.196l-1.183-.782.572-.445-.339-.224-.57.445-1.478-.979 1.478-.979.57.446.339-.224-.572-.445 1.183-.783v-.195h-.64l.96-.725v.239l-.461.317h.285v.446l-1.068.709.445.35.049-.033v-.403l.146-.096v.585l-.709.475h-.894l.228-.152h.548l-.416-.327zM18.563 16.688v-.384l-.224.144v.24z"/><path fill="#90185A" d="M18.339 16.82h.225v.401h-.225z"/><path fill="#F49800" d="M18.563 19.233v.384l-.224-.145v-.239z"/><path fill="#90185A" d="M18.339 18.699h.225v.401h-.225z"/><path fill="#F49800" d="M18.626 18.487l-.478-.001-.548-.351v-.35l.548-.352.478-.001zM16.414 18.2l-.351-.24.351-.24z"/><path fill="#90185A" d="M16.555 17.798h.869v.325h-.869z"/><path d="M7.262 28.051l.462-.319h-.286v-.445l1.068-.709-.444-.349-.05.033v.402l-.145.096v-.584l.708-.475h.894l-.227.151h-.548l.415.328 1.194-.797-1.194-.795-.415.327h.548l.227.151h-.894l-.708-.474v-.585l.145.097v.404l.05.032.444-.35-1.068-.71v-.445h.286l-.462-.317z"/><path fill="#F49800" d="M10.303 25.383l-1.194.797-.415-.328h.548l.227-.151h-.894l-.708.475v.584l.145-.096v-.402l.05-.033.444.349-1.068.709v.445h.285l-.461.319v.238l.961-.725h-.641v-.195l1.183-.783-.572-.443.34-.225.57.445 1.478-.98-1.478-.977-.57.444-.34-.223.572-.446-1.183-.782v-.195h.641l-.961-.725v.239l.461.317h-.285v.445l1.068.71-.444.35-.05-.032v-.404l-.145-.097v.585l.708.474h.894l-.227-.151h-.548l.415-.327zM7.437 24.112v-.383l.225.143v.24z"/><path fill="#90185A" d="M7.437 24.245h.225v.4h-.225z"/><path fill="#F49800" d="M7.437 26.656v.383l.225-.143v-.24z"/><path fill="#90185A" d="M7.437 26.123h.225v.4h-.225z"/><path fill="#F49800" d="M7.375 25.91h.477l.548-.351v-.35l-.548-.351-.477-.002zM9.587 25.623l.35-.24-.35-.238z"/><path fill="#90185A" d="M8.576 25.223h.869v.324h-.869z"/><path d="M18.738 28.051l-.462-.319h.286v-.445l-1.068-.709.445-.349.049.033v.402l.146.096v-.584l-.709-.475h-.894l.228.151h.548l-.416.328-1.194-.797 1.194-.795.416.327h-.548l-.228.151h.894l.709-.474v-.585l-.146.097v.404l-.049.032-.445-.35 1.068-.71v-.445h-.286l.462-.317z"/><path fill="#F49800" d="M15.697 25.383l1.194.797.416-.328h-.548l-.228-.151h.894l.709.475v.584l-.146-.096v-.402l-.049-.033-.445.349 1.068.709v.445h-.285l.461.319v.238l-.96-.725h.64v-.195l-1.183-.783.572-.443-.339-.225-.57.445-1.478-.98 1.478-.977.57.444.339-.223-.572-.446 1.183-.782v-.195h-.64l.96-.725v.239l-.461.317h.285v.445l-1.068.71.445.35.049-.032v-.404l.146-.097v.585l-.709.474h-.894l.228-.151h.548l-.416-.327zM18.563 24.112v-.383l-.224.143v.24z"/><path fill="#90185A" d="M18.339 24.245h.225v.4h-.225z"/><path fill="#F49800" d="M18.563 26.656v.383l-.224-.143v-.24z"/><path fill="#90185A" d="M18.339 26.123h.225v.4h-.225z"/><path fill="#F49800" d="M18.626 25.91h-.478l-.548-.351v-.35l.548-.351.478-.002zM16.414 25.623l-.351-.24.351-.238z"/><path fill="#90185A" d="M16.555 25.223h.869v.324h-.869z"/><path fill="#F49800" d="M16.041 39.381l1.442-1.502v-2.733l-1.442-1.501h-6.084l-1.442 1.501v2.733l1.442 1.502z"/><path d="M15.957 39.168l1.322-1.377v-2.559l-1.322-1.375h-5.916l-1.323 1.375v2.559l1.323 1.377z"/><path fill="#fff" d="M11.746 38.957h-1.621l-1.204-1.254v-1.191h1.767v1.242h1.484l.498.381v.609h-.238v-.279l-.686.492zm2.506-4.889h1.621l1.203 1.254v1.189h-1.766v-1.24h-1.484l-.498-.381v-.609h.238v.279l.686-.492z"/><path fill="#F49800" d="M11.746 34.068h-1.621l-1.204 1.254v1.189h1.767v-1.24h1.484l.498-.381v-.609h-.238v.279l-.686-.492zm2.506 4.889h1.621l1.203-1.254v-1.191h-1.766v1.242h-1.484l-.498.381v.609h.238v-.279l.686.492z"/><path fill="#fff" d="M10.689 36.512v-1.24h1.484l.498-.381v-.609h-.238v.279l-.687-.492h1.254v.834l-.759.58h-1.346v1.029h-.206zm4.621 0v1.242h-1.485l-.498.381v.609h.238v-.279l.686.492h-1.251v-.834l.757-.582h1.349v-1.029h.204z"/><path fill="#F49800" d="M13 34.902l-.76.58h-1.346v1.03h.313v-.362l.911-.455h.882zM13 38.123l.757-.582h1.348v-1.029h-.311v.363l-.915.455h-.879z"/><g fill="#90185A"><path d="M9.998 35.926v.342h.348v-.942h-.348v.342h-.356v-.342h-.349v.942h.349v-.342zM11.167 34.77v.341h.348v-.941h-.348v.342h-.356v-.342h-.349v.941h.349v-.341zM9.998 37.1v-.342h.348v.941h-.348v-.342h-.356v.342h-.349v-.941h.349v.342zM11.167 38.256v-.342h.348v.941h-.348v-.341h-.356v.341h-.349v-.941h.349v.342zM16 35.926v.342h-.349v-.942h.349v.342h.356v-.342h.348v.942h-.348v-.342zM14.831 34.77v.341h-.349v-.941h.349v.342h.356v-.342h.348v.941h-.348v-.341zM16 37.1v-.342h-.349v.941h.349v-.342h.356v.342h.348v-.941h-.348v.342zM14.831 38.256v-.342h-.349v.941h.349v-.341h.356v.341h.348v-.941h-.348v.342z"/></g><g fill="#fff"><path d="M9.505 35.115h.585v-.607zM16.492 37.908h-.584v.61z"/></g><g fill="#F49800"><path d="M9.505 37.908h.585v.61zM16.492 35.115h-.584v-.607z"/></g><path fill="#90185A" d="M13 34.902l.76.58h1.345v1.03h-.311v-.362l-.912-.455h-.882zM13 38.123l-.756-.582h-1.35v-1.029h.313v.363l.914.455h.879z"/><path fill="#F49800" d="M14.666 36.793l-.815.404h-.616v-.217l.255-.193v.252l.361-.178-.361-.279-.49.373-.49-.373-.362.279.362.178v-.252l.254.193v.217h-.616l-.814-.404v-.561l.814-.404h.616v.217l-.254.193v-.254l-.362.18.362.279.49-.373.49.373.361-.279-.361-.18v.254l-.255-.193v-.217h.616l.815.404z"/><path fill="#fff" d="M13.316 36.512l-.316-.241-.318.241.318.242zM11.921 36.754l.368-.242-.368-.241zM14.078 36.754l-.368-.242.368-.241z"/><path fill="#F49800" d="M17.482 7.795l-.681.468v.339l-1.137.78-.305-.128-.679.468h-3.359l-.68-.468-.305.128-1.137-.78v-.339l-.68-.468v-1.939l.68-.467v-.339l1.137-.78.305.128.68-.468h3.359l.679.468.305-.128 1.137.78v.339l.681.467z"/><path d="M17.258 7.727l-.639.436v.337l-.976.671-.305-.129-.635.442h-3.405l-.635-.442-.306.129-.976-.671v-.337l-.639-.436v-1.802l.639-.435v-.339l.976-.671.306.129.635-.441h3.405l.635.441.305-.129.976.671v.339l.639.435z"/><path fill="#90185A" d="M17.179 7.67l-.651.443v.337l-.896.615-.303-.128-.647.45h-3.363l-.648-.45-.303.128-.895-.615v-.337l-.651-.443v-1.689l.651-.442v-.337l.895-.616.303.129.648-.45h3.363l.647.45.303-.129.896.616v.337l.651.442z"/><path d="M17.031 7.541l-.685.47.001.34-.736.505-.305-.131-.685.471h-3.242l-.684-.471-.305.131-.737-.505.002-.34-.685-.47v-1.43l.685-.47-.002-.339.737-.506.305.131.684-.471h3.242l.685.471.305-.131.736.506-.001.339.685.47z"/><path fill="#90185A" d="M16.944 7.49l-.689.475v.338l-.651.447-.305-.128-.691.473h-3.216l-.69-.473-.305.128-.651-.447v-.338l-.69-.475v-1.328l.69-.475v-.338l.651-.447.305.129.69-.474h3.216l.691.474.305-.129.651.447v.338l.689.475z"/><path d="M12.833 6.517l-.314.312h-1.164l.421-.414v-.474h.784l.273-.253z"/><path fill="#fff" d="M13 6.431l-.396.398h.396z"/><path fill="#90185A" d="M12.577 6.582l-.07-.071h-.208l.101-.102-.039-.146.145.039.101-.102v.21l.07.071.097-.095v-.567l-.19.171h-.74v.447l-.263.258.884-.001.112-.112z"/><path d="M13.167 6.517l.315.312h1.164l-.422-.414v-.474h-.783l-.274-.253z"/><path fill="#90185A" d="M13.324 6.481l.071-.07v-.21l.1.101.145-.039-.039.146.101.102h-.208l-.071.071z"/><path d="M13.167 7.142l.314-.313h1.165l-.422.414v.474h-.783l-.274.254z"/><path fill="#fff" d="M13 7.227l.396-.398h-.396z"/><path fill="#90185A" d="M13.423 7.076l.07.071h.208l-.101.102.039.146-.144-.04-.101.102v-.21l-.07-.071-.097.095v.568l.189-.171h.74v-.448l.262-.258h-.884l-.111.114z"/><path d="M12.833 7.142l-.314-.313h-1.164l.421.414v.474h.784l.273.254z"/><path fill="#90185A" d="M12.676 7.176l-.071.071v.211l-.1-.103-.145.04.039-.146-.1-.102h.207l.071-.071z"/><path fill="#fff" d="M11.99 5.604l.39.258h-.507l-.667-.441-.073-.22-.115.094-.152-.099h-.324l.329.22-.16.131h.36l.617.408v.36l-.3-.199-.073-.22-.116.095-.151-.1h-.324l.329.22-.16.132h.36l.344.228-.218.22h-1.674l-.11-.115.109-.114h.338v-.216h-.542l-.444.442v-.526l.69-.475v-.338l.651-.447.305.129.69-.474h1.438l-.133.251h-.822l.572.508v-.256h.381v.52l-.226.213-.477-.315-.073-.22-.115.096-.151-.101h-.326l.331.22-.161.131z"/><path fill="#F49800" d="M15.459 5.196l-.329.22.16.131h-.36l-.617.408v.36l.299-.199.074-.22.115.095.151-.1h.325l-.33.22.16.132h-.359l-.345.228.219.22h1.674l.109-.115-.108-.114h-.339v-.216h.542l.444.442v-.526l-.689-.475v-.338l-.651-.447-.305.129-.691-.474h-1.437l.133.251h.821l-.571.508v-.256h-.382v.52l.227.213.476-.315.073-.22.116.096.151-.101h.326l-.331.22.161.131h-.361l-.39.258h.508l.666-.441.074-.22.115.094.151-.099z"/><path fill="#fff" d="M15.459 8.462l-.324-.223.155-.129h-.36l-.617-.414v-.359l.299.198.074.221.115-.095.151.099h.325l-.33-.219.16-.132h-.359l-.345-.228.219-.22h1.674l.109.115-.108.113h-.339v.217h.542l.444-.442v.526l-.689.475v.338l-.651.447-.305-.128-.691.473-1.437-.001.133-.25h.821l-.571-.508v.256h-.382v-.52l.227-.214.476.321.073.221.116-.095.151.1h.326l-.331-.22.161-.132-.361-.006-.39-.257h.508l.666.447.074.221.115-.096.151.1z"/><path fill="none" d="M16.975 6.719l-.475-.473h-.542v.216h.339l.108.114-.109.115h-1.674l-.309-.312.001-.517h-.84l-.302-.282v-.52h.382v.256l.571-.508h-.821l-.163-.308"/><path fill="#F49800" d="M10.542 8.462l.329-.219-.16-.133h.36l.617-.414v-.359l-.3.198-.073.221-.116-.095-.151.099h-.324l.329-.219-.16-.132h.36l.344-.228-.218-.22h-1.674l-.11.115.109.113h.338v.217h-.542l-.444-.442v.526l.69.475v.338l.651.447.305-.128.69.473 1.438-.001-.133-.25h-.822l.572-.508v.256h.381v-.52l-.226-.214-.477.321-.073.221-.115-.095-.151.1h-.326l.331-.22-.161-.132h.36l.39-.263h-.507l-.667.447-.073.221-.115-.096-.152.1z"/><path fill="none" d="M9.026 6.933l.474.473h.542v-.217h-.338l-.109-.113.11-.115h1.674l.309.312-.001.516h.84l.301.283v.52h-.381v-.256l-.572.508h.822l.148.281"/><path d="M13 9.095h1.608l.691-.473.305.128.651-.447v-.338l.689-.475v-1.328l-.689-.475v-.338l-.651-.447-.305.129-.691-.474h-3.216l-.69.474-.305-.129-.651.447v.338l-.69.475v1.328l.69.475v.338l.651.447.305-.128.69.473h1.608v.101h-1.621l-.684-.471-.305.131-.737-.505.002-.34-.685-.47v-1.43l.685-.47-.002-.339.737-.506.305.131.684-.471h3.242l.685.471.305-.131.736.506-.001.339.685.47v1.43l-.685.47.001.34-.736.505-.305-.131-.685.471h-1.621z"/><path d="M15.117 43.129c.321-.211.461-.5.535-.91.074-.41.345-.809.757-1.135.116-.092.171-.09.142.109-.086.576-.234 1.383-.77 1.762.547-.25 1.317-.27 1.945-.77.092-.072.201-.141.086.104-.548 1.16-1.847 1.486-2.684.941-.077-.05-.06-.07-.011-.101zm1.428-.654c-.01-.936.102-1.824.59-2.545.047-.066.126-.113.129.078.013.781-.104 1.428-.348 1.906-.058.113-.097.211-.185.25.105.041.206-.062.288-.227.436-.873 1.254-1.295 1.396-1.572.033-.062.134-.127.124.045-.068 1.064-1.126 2.109-1.902 2.135-.049.002-.092-.014-.092-.07zm.928-1.561c.051-.424-.019-.629-.069-.846-.129-.553-.083-1.172.125-1.602.038-.078.071-.066.088.01.171.793.342 1.486.055 1.842.102-.016.25-.15.295-.381.046-.23.3-.605.457-.754.157-.148.341-.404.369-.477.027-.072.074-.064.092.078.092.734-.613 1.816-1.329 2.148l-.083-.018zm.424-1.398c.033-.188-.019-.582-.079-.875-.061-.293-.028-.639.032-.871.06-.23.065-.375.055-.461-.009-.086.073-.074.111.033.166.477.194 1.375.079 1.582-.04.07-.065.145-.019.174.046.027.088-.045.097-.105.032-.227.138-.439.277-.635.138-.197.212-.404.263-.598.036-.135.166-.283.207-.354.046-.08.08.018.079.1-.009.914-.424 1.428-.738 1.707-.077.068-.185.25-.226.322s-.161.11-.138-.019zm.391-1.243c-.021-.705-.064-1.398.25-1.947.056-.098.082-.15.11.021.104.637.091 1.342-.243 1.908-.061.102-.114.093-.117.018zm-1.614 5.487c-.424.096-1.08-.174-1.467-.336-.657-.278-1.427-.188-2.207.174-.78-.361-1.549-.451-2.206-.174-.388.162-1.043.432-1.467.336-.276-.062-.212.086-.139.145.923.73 1.93.471 2.539.076.288-.186.564-.369 1.022-.258-.452.242-.903.57-1.335.971l.003.078.067.18c.028.07.04.055.08.01.333-.365.93-.922 1.363-1.125l.074-.029.074.029c.434.203 1.031.76 1.363 1.125.041.045.052.061.081-.01l.067-.18.003-.078c-.433-.4-.884-.729-1.335-.971.458-.111.734.072 1.022.258.609.395 1.615.654 2.538-.076.072-.059.136-.208-.14-.145zm-5.791-.631c-.321-.211-.461-.5-.536-.91-.074-.41-.344-.809-.757-1.135-.115-.092-.171-.09-.142.109.086.576.234 1.383.769 1.762-.547-.25-1.316-.27-1.944-.77-.092-.072-.201-.141-.086.104.548 1.16 1.847 1.486 2.684.941.079-.05.062-.07.012-.101zm-1.427-.654c.009-.936-.102-1.824-.591-2.545-.046-.066-.126-.113-.129.078-.013.781.104 1.428.348 1.906.058.113.097.211.184.25-.104.041-.206-.062-.287-.227-.436-.873-1.254-1.295-1.396-1.572-.033-.062-.134-.127-.124.045.068 1.064 1.126 2.109 1.902 2.135.05.002.092-.014.093-.07zm-.928-1.561c-.05-.424.019-.629.069-.846.129-.553.083-1.172-.125-1.602-.038-.078-.071-.066-.087.01-.171.793-.342 1.486-.055 1.842-.102-.016-.25-.15-.295-.381-.046-.23-.3-.605-.457-.754-.157-.148-.341-.404-.369-.477s-.074-.064-.092.078c-.092.734.613 1.816 1.329 2.148l.082-.018zm-.425-1.398c-.033-.188.019-.582.079-.875.061-.293.028-.639-.032-.871-.06-.23-.065-.375-.055-.461.009-.086-.073-.074-.111.033-.166.477-.194 1.375-.079 1.582.04.07.065.145.019.174-.046.027-.088-.045-.097-.105-.032-.227-.138-.439-.276-.635-.139-.197-.212-.404-.264-.598-.036-.135-.166-.283-.207-.354-.047-.08-.08.018-.08.1.009.914.424 1.428.738 1.707.077.068.185.25.226.322s.162.11.139-.019zm-.391-1.243c.021-.705.064-1.398-.25-1.947-.056-.098-.083-.15-.11.021-.104.637-.091 1.342.243 1.908.061.102.115.093.117.018z" fill="#F49800"/><path fill="#fff" d="M41.996 13.245c1.07-3.323-.669-9.094-6.857-9.11 6.791-2.244 12.422 4.21 10.469 10.276-1.95 6.066-10.281 8.014-14.487 2.221 5.033 3.604 9.808-.064 10.875-3.387zM28.757 3l-.47 1.463h-1.547l1.256.911-.483 1.462 1.244-.909 1.243.909-.477-1.474 1.249-.892h-1.539zM34.277 4.782l-.469 1.463h-1.546l1.255.911-.483 1.462 1.243-.909 1.244.909-.476-1.474 1.248-.893h-1.538zM25.279 13.807l.472-1.463-1.255-.904 1.55-.005.461-1.469.479 1.465 1.539-.011-1.246.919.494 1.454-1.25-.9zM30.87 8.841l1.538-.005-1.246.905.485 1.465-1.247-.904-1.242.911.476-1.463-1.255-.907 1.548-.003.466-1.466zM30.801 15.589l.47-1.462-1.254-.905 1.549-.005.46-1.469.481 1.465 1.538-.011-1.245.919.494 1.455-1.25-.901z"/></svg>