<svg xmlns="http://www.w3.org/2000/svg" width="64" height="48"><path fill="#E40520" d="M0 0h64v48h-64z"/><circle fill="#fff" cx="32" cy="24" r="12.017"/><path fill="#E40520" d="M33.583 18.92l-.15 3.827-3.717 1.037 3.628 1.343-.18 3.833 2.379-3.015 3.597 1.347-2.132-3.219 2.405-2.979-3.701 1.033zM35.532 31.159l-.532.022c-3.966 0-7.182-3.215-7.182-7.182 0-3.966 3.216-7.182 7.182-7.182l.518.018c-1.06-.521-2.257-.813-3.518-.813-4.406 0-7.979 3.572-7.979 7.978s3.572 7.979 7.979 7.979c1.296 0 2.468-.293 3.532-.82z"/></svg>