<svg xmlns="http://www.w3.org/2000/svg" width="64" height="48" viewBox="0 8 64 48" enable-background="new 0 8 64 48"><path fill="#E81C23" d="M0 8h64v48h-64z"/><g fill="#fff"><path d="M31.426 38.259c-2.097 3.34-5.827 5.556-10.071 5.556-6.552 0-11.864-5.29-11.864-11.815 0-6.526 5.312-11.815 11.864-11.815 4.246 0 7.975 2.217 10.071 5.555-1.65-1.708-3.967-2.775-6.535-2.775-5.01 0-9.072 4.046-9.072 9.034 0 4.989 4.062 9.034 9.072 9.034 2.568.001 4.882-1.066 6.535-2.774zM34.789 26.705l-.181 4.216-4.105 1.145 4 1.478-.214 4.223 2.637-3.322 3.964 1.481-2.339-3.545 2.666-3.285-4.09 1.141z"/></g></svg>