<svg xmlns="http://www.w3.org/2000/svg" width="64" height="48"><path fill="#D81016" d="M0 0h64v48h-64z"/><path fill="#009339" d="M0 18h64v12h-64z"/><path fill="#FFD800" d="M12.002 2.36l-.15.463-.386 1.188h-1.736l.394.287 1.012.733-.386 1.182-.15.463.394-.287 1.007-.729 1.007.729.394.287-.15-.463-.386-1.187 1.007-.729.394-.287h-1.731l-.386-1.187-.148-.463zm0 1.025l.27.832.035.111h.986l-.703.51-.094.068.039.111.27.832-.708-.515-.094-.068-.094.068-.708.515.27-.832.035-.111-.09-.068-.703-.51h.986l.035-.111.268-.832zm.008 3.775c1.7 1.31 3.04 2.468 3.225 4.5.211.857-.021 1.665-.51 2.265l-4.16-4.09 1.26-1.125-1.835-.5-2.11 2.095 1.12 1.125.9-.94 3.985 4.12c-1.062.561-2.543.458-3.825-.9l-.315.325-.235-.04-.265.27-.3-.025c-.16.732-1.127 1.001-1.54 1.595-.534.661.208 1.237.705.695.444-.348 1.028-1.588 1.595-1.535l-.05-.315.185-.135c1.5 1.719 3.479 1.839 4.87.92l1.255 1.295c.449-.102.691-.275.835-.795l-1.27-1.25c.543-.678.883-1.584.875-2.655-.013-1.659-1.705-3.928-4.395-4.9z"/></svg>