<svg xmlns="http://www.w3.org/2000/svg" width="64" height="48" viewBox="-11.5 9.5 64 48" enable-background="new -11.5 9.5 64 48"><path fill="#5C97B1" d="M-11.5 9.5h64v48h-64z"/><path fill="#FFCE05" d="M45.121 16.508l.834-2.582.836 2.582 2.709-.002-2.193 1.595.838 2.581-2.19-1.598-2.189 1.598.839-2.582-2.195-1.594zM37.188 39.07l.835-2.582.832 2.582 2.711-.002-2.193 1.594.838 2.582-2.19-1.598-2.191 1.598.84-2.582-2.193-1.594zM45.121 33.963l.834-2.583.836 2.583 2.709-.002-2.193 1.594.838 2.582-2.19-1.598-2.189 1.598.839-2.582-2.195-1.594zM11.004 50.326l.836-2.582.834 2.582 2.711-.002-2.195 1.594.839 2.582-2.189-1.598-2.192 1.598.84-2.582-2.193-1.594zM23.316 40.812l-.836 2.584-.835-2.584-2.709.002 2.193-1.591-.84-2.582 2.191 1.597 2.192-1.597-.84 2.582 2.191 1.593zM32.711 27.818l-.836 2.582-.834-2.582-2.709.002 2.193-1.593-.839-2.581 2.191 1.597 2.191-1.597-.841 2.583 2.195 1.591zM40.609 25.12l-.836 2.583-.835-2.583-2.709.002 2.193-1.595-.84-2.581 2.191 1.599 2.192-1.598-.84 2.581 2.193 1.595zM32.711 47.611l-.836 2.582-.834-2.582-2.709.002 2.193-1.593-.839-2.582 2.191 1.597 2.191-1.597-.841 2.582 2.195 1.593zM23.316 49.91l-.836 2.584-.835-2.584-2.709.002 2.193-1.594-.84-2.582 2.191 1.598 2.192-1.598-.84 2.582 2.191 1.594z"/><path fill="#262D62" d="M-11.5 9.5h32v24h-32z"/><path fill="#fff" d="M20.5 9.52h-3.9l-8.007 5.969v-5.989h-8.184v6.014l-8.042-5.994h-3.867v2.913l6.759 5.071h-6.759v7.99h6.759l-6.759 5.07v2.915h3.867l8.042-5.995v6.014h8.184v-5.989l8.007 5.97h3.9v-2.915l-6.792-5.07h6.792v-7.99h-6.792l6.792-5.071z"/><path fill="#DC2F34" d="M17.985 9.52l-10.68 7.989h2.556l10.639-7.989zM20.5 33.479l-10.65-7.985h2.567l8.083 6.08zM-.798 17.509l-10.702-7.989v1.908l8.123 6.081zM-.82 25.494l-10.68 7.985h2.556l10.681-7.985zM-11.5 19.5h32v4h-32zM2.5 9.5h4v24h-4z"/></svg>