<svg xmlns="http://www.w3.org/2000/svg" width="64" height="48" viewBox="-31.5 24.5 64 48" enable-background="new -31.5 24.5 64 48"><path fill="#FE0000" d="M-31.5 24.5h64v48h-64z"/><path fill="#000095" d="M-31.5 24.5h32v24h-32z"/><path d="M-15.5 31.4c.367 0 .725.039 1.07.113l-1.07-4.013-1.07 4.014c.345-.075.703-.114 1.07-.114zm3.42 1.317l1.08-4.011-2.934 2.94c.695.224 1.325.592 1.854 1.071zm1.434 2.217l2.94-2.934-4.011 1.08c.478.528.847 1.158 1.071 1.854zm4.146 1.566l-4.014-1.07c.074.346.114.703.114 1.07s-.04.725-.114 1.07l4.014-1.07zm-12.783-3.42l-4.011-1.08 2.94 2.934c.224-.696.593-1.326 1.071-1.854zm2.217-1.434l-2.934-2.94 1.08 4.011c.529-.479 1.159-.847 1.854-1.071zm3.132 9.708l2.934 2.94-1.08-4.011c-.529.479-1.159.847-1.854 1.071zm-1.566.246c-.367 0-.725-.039-1.07-.113l1.07 4.014 1.07-4.014c-.345.074-.703.113-1.07.113zm-5.1-5.1c0-.367.04-.725.113-1.07l-4.013 1.07 4.013 1.07c-.074-.345-.113-.703-.113-1.07zm8.883 3.42l4.011 1.08-2.941-2.934c-.223.696-.592 1.326-1.07 1.854zm-7.203.363l-1.08 4.011 2.934-2.94c-.695-.224-1.325-.592-1.854-1.071zm-1.434-2.217l-2.94 2.934 4.011-1.08c-.478-.528-.847-1.158-1.071-1.854z" fill="#fff"/><circle fill="#fff" cx="-15.5" cy="36.5" r="4.5"/></svg>