<svg xmlns="http://www.w3.org/2000/svg" width="64" height="48"><g fill="#FFE000"><path d="M0 32h64v8.001h-64zM0 8h64v8h-64z"/></g><path d="M0 0h64v8h-64zM0 24h64v8h-64z"/><g fill="#E95123"><path d="M0 16h64v8h-64zM0 40.001h64v7.999h-64z"/></g><circle fill="#fff" cx="32" cy="24" r="7.459"/><path fill="#E95123" d="M30.739 18.414l-.51-.981c.917-.637 2.738-.331 3.07 1.249l-.867.191-1.693-.459z"/><path fill="#FFE000" d="M32.057 18.771l-.931-.252.081-1.395c.549-.025 1.138.153 1.56.563l-.71 1.084z"/><path d="M31.835 25.573c.395 1.287.012 1.631.203 2.408.146.59.102 1.504.09 1.962-.701-.089-1.466.013-1.81.331.356-.076.854-.051 1.172.013-.268.063-.561.396-.561.79.497-.522 1.593-.993 2.777-.803-.089-.203-.662-.42-1.185-.344-.038-.331-.218-1.319-.115-1.796.141-.65-.051-1.631.077-1.976.127-.344.318-.561.331-.904m1.938-1.502c1.941.647 1.605 1.937 1.096 2.14-1.228.491-3.103.188-4.688-.458-.688-.28-1.58-1.096-1.376-1.81.204-.713 1.656-1.35 2.522-.917.866.434 2.064.917 2.446 1.045zm-3.274.356c-.331.446-.229 1.58.369 1.886.519.265.79.484 1.02.866s.306.639-.242.586c-1.338-.127-2.866-.264-3.312.166-.331.318-.331.726-.229 1.172.178-.229.051-.662.306-.815-.077.179-.052.548.127.765 0-.242.051-.828.217-.904.165.114.019.465.204.675.121-.197.006-.401.235-.618.21-.197.528-.312 1.191-.261.662.051 1.121.089 1.427.076s.42-.063.573 0 .293 0 .344-.102c.051-.103.153-.28-.038-.472s-.565-.777-.306-1.223c.179-.307.102-.752-.025-.943"/><path d="M29.63 19.649c.064.127.414.07 1.064-.044.013.115.312.264.185.427-.561.713-1.3 1.5-1.528 2.625-.128.624.063 1.465.637 1.975l-.025-.548.229.217.064-.396.344.141c0-.103-.051-.344-.076-.407l.306.152-.204-.472.255.191c-.063-.089-.076-.383-.102-.446l.395.204c-.063-.102-.089-.395-.114-.445l.382.19c-.076-.102 0-.28-.051-.331.114.038.344-.076.548.013-.166-.217-.421-.331-.472-.599-.147-.776.079-1.729.484-2.013.726-.509.841-1.631-.217-2-.62-.217-1.414.255-1.159 1.172-.739.127-1.141.217-1.103.459l.158-.065z"/><path fill="#C9CECB" d="M31.414 22.555c-.17.678.127 1.707 1.427 2.19 1.3.484 2.268 1.479 1.987 2.294.204-.077.663-.676.382-1.173.408.586-.044 1.506-.611 1.86-.203.128-.025.229.153.166-.153.063-.28.229-.141.229.141 0 .497-.153.638-.293-.103.102-.344.216-.217.331.127.114.344-.052.586-.293-.127.152-.318.395-.459.496-.14.103-.133.364.103.204.599-.407 1.286-1.006 1.427-1.694.13-.64.407-2.128-1.223-2.892-1.631-.765-2.421-.994-2.905-1.3s-1.02-.636-1.147-.125z"/><path fill="#fff" d="M34.676 23.917c-.357-.089-1.351-.407-1.784-.675-.433-.268-.955-.229-.917.204.038.433 1.02.573 1.248 1.006.229.434 1.173.472 1.504.522s1.401-.356-.051-1.057z"/><path fill="#E95123" d="M33.465 24.81c.345.216.688.306 1.083.854.312.434.417.978.28 1.376.204-.077.663-.676.382-1.173.408.586-.044 1.506-.611 1.86-.203.128-.025.229.153.166-.153.063-.28.229-.141.229.141 0 .497-.153.638-.293-.103.102-.344.216-.217.331.127.114.344-.052.586-.293-.127.152-.318.395-.459.496-.14.103-.133.364.103.204.599-.407 1.286-1.006 1.427-1.694.13-.64.433-2.063-1.223-2.892-.281-.141-1.058-.307-1.236-.344.356.14.79.738.917.865-.229-.127-.993-.496-1.21-.534.166.152.331.255.484.573-.268-.141-.841-.229-.994-.242.204.076.356.293.459.407-.255-.164-.744-.101-.421.104zm-2.771-5.205c-.262.172-.484.478-.325.72s.584-.006.649-.178c.141-.37-.33-.364-.324-.542z"/><path fill="#C9CECB" d="M31.121 20.248c-.803.93-1.108 2.051-1.134 2.777-.013.357.152.561.306.714.025-.09-.013-.345-.051-.434l.28.179c-.013-.09-.103-.331-.128-.369.052.063.224-.007.249.031l-.108-.248.382.07-.178-.293.382.057c-.153-.152-.573-.599.076-2.28.112-.287.101-.409-.076-.204zm.586 4.09c-.191.421-.076.942.025 1.108-.076-.191.535-.356.968.025-.178-.242-.942-.815-.993-1.133z"/><path fill="#fff" d="M31.063 18.938c-.2 0-.204.307 0 .307s.205-.307 0-.307z"/><path d="M29.63 19.649c.37-.146.759-.076 1.02-.236l-.076-.159" fill="none"/><path fill="#C9CECB" d="M31.796 18.668c.115.433-.076.65-.306.726-.265.088-.246.45.128.382.637-.115.675-.701.356-1.223-.079-.131-.231-.085-.178.115z"/></svg>