<svg xmlns="http://www.w3.org/2000/svg" width="64" height="48"><path fill="#C3002F" d="M0 0h64v48h-64z"/><path fill="#022169" d="M0 0h33v26h-33z"/><path fill="#fff" d="M4.228 1.989h-1.161l-.331-.995-.332.995h-1.16l.912.663-.332 1.161.912-.746.912.662-.332-1.077.912-.663M9.7 1.989h-1.078l-.414-.995-.333.995h-1.077l.912.663-.415 1.161.913-.746.912.662-.332-1.077.912-.663M15.171 1.989h-1.078l-.331-.995-.415.995h-1.077l.912.663-.415 1.161.995-.746.912.662-.415-1.077.912-.663M20.643 1.989h-1.078l-.332-.995-.331.995h-1.161l.912.663-.415 1.161.995-.746.913.662-.332-1.077.829-.663M26.197 1.989h-1.16l-.332-.995-.331.995h-1.161l.912.663-.332 1.161.912-.746.912.662-.332-1.077.912-.663M31.669 1.989h-1.077l-.415-.995-.332.995h-1.078l.913.663-.415 1.161.912-.746.912.662-.332-1.077.912-.663M4.228 7.378h-1.161l-.331-1.078-.332 1.078h-1.16l.912.663-.332 1.078.912-.663.912.663-.332-1.078.912-.663M9.7 7.378h-1.078l-.414-1.078-.333 1.078h-1.077l.912.663-.415 1.078.913-.663.912.663-.332-1.078.912-.663M15.171 7.378h-1.078l-.331-1.078-.415 1.078h-1.077l.912.663-.415 1.078.995-.663.912.663-.415-1.078.912-.663M20.643 7.378h-1.078l-.332-1.078-.331 1.078h-1.161l.912.663-.415 1.078.995-.663.913.663-.332-1.078.829-.663M26.197 7.378h-1.16l-.332-1.078-.331 1.078h-1.161l.912.663-.332 1.078.912-.663.912.663-.332-1.078.912-.663M31.669 7.378h-1.077l-.415-1.078-.332 1.078h-1.078l.913.663-.415 1.078.912-.663.912.663-.332-1.078.912-.663M4.228 12.684h-1.161l-.331-1.079-.332 1.079h-1.16l.912.664-.332 1.077.912-.663.912.663-.332-1.077.912-.664M9.7 12.684h-1.078l-.414-1.079-.333 1.079h-1.077l.912.664-.415 1.077.913-.663.912.663-.332-1.077.912-.664M15.171 12.684h-1.078l-.331-1.079-.415 1.079h-1.077l.912.664-.415 1.077.995-.663.912.663-.415-1.077.912-.664M20.643 12.684h-1.078l-.332-1.079-.331 1.079h-1.161l.912.664-.415 1.077.995-.663.913.663-.332-1.077.829-.664M26.197 12.684h-1.16l-.332-1.079-.331 1.079h-1.161l.912.664-.332 1.077.912-.663.912.663-.332-1.077.912-.664M31.669 12.684h-1.077l-.415-1.079-.332 1.079h-1.078l.913.664-.415 1.077.912-.663.912.663-.332-1.077.912-.664M4.228 17.989h-1.161l-.331-.994-.332.994h-1.16l.912.664-.332 1.077.912-.663.912.663-.332-1.077.912-.664M9.7 17.989h-1.078l-.414-.994-.333.994h-1.077l.912.664-.415 1.077.913-.663.912.663-.332-1.077.912-.664M15.171 17.989h-1.078l-.331-.994-.415.994h-1.077l.912.664-.415 1.077.995-.663.912.663-.415-1.077.912-.664M20.643 17.989h-1.078l-.332-.994-.331.994h-1.161l.912.664-.415 1.077.995-.663.913.663-.332-1.077.829-.664M26.197 17.989h-1.16l-.332-.994-.331.994h-1.161l.912.664-.332 1.077.912-.663.912.663-.332-1.077.912-.664M31.669 17.989h-1.077l-.415-.994-.332.994h-1.078l.913.664-.415 1.077.912-.663.912.663-.332-1.077.912-.664M6.798 4.642h-1.077l-.332-.995-.332.995h-1.161l.913.664-.415 1.16.995-.746.912.746-.415-1.16.912-.664M12.353 4.642h-1.161l-.332-.995-.331.995h-1.161l.912.664-.332 1.16.912-.746.912.746-.332-1.16.913-.664M17.824 4.642h-1.16l-.332-.995-.332.995h-1.161l.912.664-.332 1.16.913-.746.912.746-.332-1.16.912-.664M23.296 4.642h-1.078l-.415-.995-.331.995h-1.078l.912.664-.414 1.16.911-.746.912.746-.331-1.16.912-.664M28.767 4.642h-1.077l-.332-.995-.331.995h-1.161l.912.664-.415 1.16.995-.746.912.746-.415-1.16.912-.664M6.798 10.031h-1.077l-.332-1.078-.332 1.078h-1.161l.913.662-.415 1.078.995-.662.912.662-.415-1.078.912-.662M12.353 10.031h-1.161l-.332-1.078-.331 1.078h-1.161l.912.662-.332 1.078.912-.662.912.662-.332-1.078.913-.662M17.824 10.031h-1.16l-.332-1.078-.332 1.078h-1.161l.912.662-.332 1.078.913-.662.912.662-.332-1.078.912-.662M23.296 10.031h-1.078l-.415-1.078-.331 1.078h-1.078l.912.662-.414 1.078.911-.662.912.662-.331-1.078.912-.662M28.767 10.031h-1.077l-.332-1.078-.331 1.078h-1.161l.912.662-.415 1.078.995-.662.912.662-.415-1.078.912-.662M6.798 15.337h-1.077l-.332-.995-.332.995h-1.161l.913.663-.415 1.077.995-.662.912.662-.415-1.077.912-.663M12.353 15.337h-1.161l-.332-.995-.331.995h-1.161l.912.663-.332 1.077.912-.662.912.662-.332-1.077.913-.663M17.824 15.337h-1.16l-.332-.995-.332.995h-1.161l.912.663-.332 1.077.913-.662.912.662-.332-1.077.912-.663M23.296 15.337h-1.078l-.415-.995-.331.995h-1.078l.912.663-.414 1.077.911-.662.912.662-.331-1.077.912-.663M28.767 15.337h-1.077l-.332-.995-.331.995h-1.161l.912.663-.415 1.077.995-.662.912.662-.415-1.077.912-.663M6.798 20.643h-1.077l-.332-.996-.332.996h-1.161l.913.663-.415 1.161.995-.746.912.662-.415-1.077.912-.663M12.353 20.643h-1.161l-.332-.996-.331.996h-1.161l.912.663-.332 1.161.912-.746.912.662-.332-1.077.913-.663M17.824 20.643h-1.16l-.332-.996-.332.996h-1.161l.912.663-.332 1.161.913-.746.912.662-.332-1.077.912-.663M23.296 20.643h-1.078l-.415-.996-.331.996h-1.078l.912.663-.414 1.161.911-.746.912.662-.331-1.077.912-.663M28.767 20.643h-1.077l-.332-.996-.331.996h-1.161l.912.663-.415 1.161.995-.746.912.662-.415-1.077.912-.663M4.228 23.295h-1.161l-.331-.994-.332.994h-1.16l.912.664-.332 1.16.912-.746.912.746-.332-1.16.912-.664M9.7 23.295h-1.078l-.414-.994-.333.994h-1.077l.912.664-.415 1.16.913-.746.912.746-.332-1.16.912-.664M15.171 23.295h-1.078l-.331-.994-.415.994h-1.077l.912.664-.415 1.16.995-.746.912.746-.415-1.16.912-.664M20.643 23.295h-1.078l-.332-.994-.331.994h-1.161l.912.664-.415 1.16.995-.746.913.746-.332-1.16.829-.664M26.197 23.295h-1.16l-.332-.994-.331.994h-1.161l.912.664-.332 1.16.912-.746.912.746-.332-1.16.912-.664M31.669 23.295h-1.077l-.415-.994-.332.994h-1.078l.913.664-.415 1.16.912-.746.912.746-.332-1.16.912-.664"/><path fill="#fff" d="M33 3h31v4h-31zM33 10.6h31v4h-31zM33 18.2h31v4h-31zM0 26h64v4h-64zM0 33.4h64v4h-64zM0 41h64v4h-64z"/></svg>