<svg xmlns="http://www.w3.org/2000/svg" width="64" height="48"><path fill="#fff" d="M0 0h64v48h-64z"/><path fill="#004F9F" d="M27 16h37v5h-37zM27 5h37v5h-37zM0 27h64v5h-64zM0 38h64v5h-64z"/><path fill="#FDC300" stroke="#000" stroke-width=".283" d="M16.477 16.615c1.695 1.034 3.935.288 4.207.131.271-.156 1.597-.317 1.981.307.368-.801-1.732-1.656-2.017-1.686-1.263-.129-2.496-1.617-2.826-2.114 1.93-.465 3.078-2.492 3.16-2.794.082-.302.905-1.353 1.619-1.183-.306-.826-2.398.053-2.62.232-.984.8-3.017.61-3.602.492 1.035-1.693.305-3.947.149-4.218-.156-.271-.318-1.595.307-1.979-.801-.368-1.658 1.731-1.688 2.015-.129 1.262-1.674 2.572-2.172 2.901-.467-1.928-2.55-2.995-2.853-3.077-.302-.08-1.353-.903-1.183-1.616-.827.306.052 2.395.232 2.617.802.982.655 2.898.536 3.484-1.695-1.036-3.906-.419-4.178-.264-.272.156-1.597.318-1.981-.306-.368.799 1.732 1.657 2.016 1.685 1.263.129 2.568 1.659 2.898 2.156-1.931.466-3.006 2.535-3.088 2.836-.082.302-.905 1.352-1.619 1.183.307.826 2.398-.051 2.62-.232.984-.801 2.926-.646 3.511-.527-1.035 1.694-.396 3.911-.24 4.182.156.271.318 1.595-.307 1.979.801.368 1.658-1.73 1.687-2.015.129-1.261 1.667-2.51 2.165-2.84.467 1.929 2.542 3.057 2.845 3.139.302.082 1.354.903 1.184 1.616.827-.306-.052-2.395-.232-2.616-.802-.984-.626-3.031-.508-3.615"/><path fill="#FDC300" stroke="#000" stroke-width=".283" d="M13.897 11.345l6.676-5.685-5.454 6.862 8.746.695-8.716 1.001 5.693 6.667-6.872-5.447-.695 8.735-1.003-8.705-6.676 5.685 5.454-6.862-8.746-.695 8.716-1.001-5.692-6.668 6.872 5.447.695-8.733z"/><circle fill="#FDC300" stroke="#000" stroke-width=".283" cx="13.118" cy="13.367" r="3.682"/><g stroke="#000" stroke-width=".283"><path fill="#FDC300" d="M11.85 16.181c.352-.562 1.832-.774 2.465-.07m-3.381-4.503c.211-.211 1.127-.352 1.549.07"/><path fill="#FDC300" d="M11.075 12.312c-.391-.079.775-.564 1.198-.212.422.353.281.07.281.07-.281.212-.211.422-.704.493-.493.071-.423-.281-.775-.351z"/><circle cx="11.709" cy="12.311" r=".199"/><path fill="#FDC300" d="M15.05 11.608c-.211-.211-1.127-.352-1.55.07m.422 1.969c.141.212.071.422-.141.352-.211-.07-.453 0-.453 0l-.267.035s-.227-.105-.719-.035c-.221.031-.282-.14-.141-.352"/><path fill="#FDC300" d="M15.05 12.312c.39-.079-.775-.564-1.198-.212-.422.353-.281.07-.281.07.281.212.211.422.704.493.493.071.422-.281.775-.351z"/><circle cx="14.416" cy="12.311" r=".199"/><path fill="#FDC300" d="M13.077 14.632l.353-.21s.704 0 .845.21c.141.211.493.141.493.141-.211.07-.79.493-1.706.422-.916.07-1.494-.352-1.706-.422 0 0 .352.07.493-.141.141-.21.845-.21.845-.21l.353.21M11.004 14.773l2.043.071 1.902-.071"/></g></svg>