<svg xmlns="http://www.w3.org/2000/svg" width="64" height="48"><path fill="#fff" d="M0 0h64v48h-64z"/><path fill="#FFED00" d="M0 0h32v48h-32z"/><g stroke="#000" stroke-width=".063"><path fill="#E40520" d="M43.269 30.436c1.3.007 2.279-.738 2.799-1.9.249-.557.398-1.154.501-1.754.113-.661.033-.843.616-1.169-.288 2.37-1.048 5.239-3.926 5.241.003-.126-.028-.299.01-.418z"/><path d="M43.479 30.433l.697.325m-.098-.417l.774.183m-.229-.371c.162-.077.479.231.678.089m-.244-.355c.213-.146.549.118.762-.145m-.377-.222c.177-.208.571-.018.712-.258m-.381-.17c.158-.267.532-.093.66-.365m-.424-.069c.118-.251.556-.241.629-.452m-.423-.05c.113-.318.521-.254.59-.502m-.405-.083c.064-.255.476-.205.535-.438m-.42-.032c.04-.175.477-.27.526-.485m-.437-.071c.045-.248.484-.25.523-.474" fill="none"/></g><g stroke="#000" stroke-width=".063"><path fill="#E40520" d="M50.749 30.436c-1.3.007-2.279-.738-2.799-1.9-.249-.557-.398-1.154-.501-1.754-.113-.661-.033-.843-.616-1.169.287 2.37 1.047 5.239 3.926 5.241-.003-.126.027-.299-.01-.418z"/><path d="M50.538 30.433l-.697.325m.098-.417l-.774.183m.23-.371c-.162-.077-.479.231-.679.089m.245-.355c-.213-.146-.55.118-.762-.145m.376-.222c-.177-.208-.571-.018-.712-.258m.381-.17c-.158-.267-.532-.093-.661-.365m.426-.069c-.118-.251-.556-.241-.629-.452m.423-.05c-.113-.318-.521-.254-.59-.502m.404-.083c-.064-.255-.476-.205-.535-.438m.421-.032c-.04-.175-.477-.27-.526-.485m.437-.071c-.045-.248-.484-.25-.524-.474" fill="none"/></g><g stroke="#000" stroke-width=".063" stroke-linecap="round"><path fill="#FFE466" d="M47.141 12.844c.137-.01.269.012.395.066.026-.103.026-.292 0-.395-.126.054-.258.076-.395.066-.01-.137.012-.269.065-.395-.103-.026-.292-.026-.395 0 .054.126.075.258.065.395-.137.01-.269-.012-.395-.066-.026.103-.026.292 0 .395.126-.054.258-.076.395-.066.009.155-.014.306-.065.452.101.027.294.027.395 0-.052-.146-.074-.296-.065-.452.143 0 0 .144 0 0zm-.132 1.07c.47 0 .47-.728 0-.728s-.47.728 0 .728z"/><path fill="#fff" d="M47.008 20.943c.677 0 1.723.085 2.248-.453.457-.468.45-1.332.531-1.935.301-2.229-.408-4.301-2.779-4.965-2.368.663-3.067 2.737-2.782 4.963.077.604.068 1.464.527 1.933.529.539 1.574.457 2.255.457z"/><path fill="#FFE466" d="M44.903 17.612c.304-.115.488-.385.491-.708.104.297.479.66.771.407l-.886-.496c-.004.346-.453.659-.376.797zm-.682-.271c-.332-.23-.081-.51-.359-.742.432-.034.664.249.442.646.171-.273.444-.323.611-.012-.062-.088-.388.4-.658.191.665.352-.729.587-.036-.083-.467-.323-.347.335 0 0zm5.576 0c.332-.23.081-.51.359-.742-.432-.034-.664.248-.443.646-.17-.273-.443-.323-.61-.012.062-.088.388.4.658.191-.665.352.728.587.036-.083.467-.323.347.335 0 0zm-.683.271c-.304-.115-.489-.384-.492-.708-.103.297-.479.66-.77.407l.886-.496c.004.346.452.659.376.797zm-2.106.402c.258 0 2.863-.071 2.771.613.597.01-.447-.609-.584-.647-.704-.195-1.461-.206-2.187-.206-.643 0-1.298.015-1.93.144-.24.049-.479.117-.699.226-.127.063-.57.49-.141.482-.092-.683 2.512-.612 2.77-.612zm.001-1.068c0-.172.323-.144.323-.395 0-.225-.323-.262-.323-.539 0 .276-.323.314-.323.539 0 .251.323.222.323.395zm0 0c-.173 0-.144-.323-.395-.323-.225 0-.263.323-.539.323.276 0 .314.323.539.323.251 0 .222-.323.395-.323zm0 0c.173 0 .144-.323.395-.323.225 0 .263.323.539.323-.276 0-.314.323-.539.323-.252 0-.222-.323-.395-.323zm0 .195c.251 0 .251-.389 0-.389s-.251.389 0 .389zm-.001.382c.27 0 2.916-.051 2.836.649.57.059-.454-.618-.604-.663-.718-.213-1.489-.25-2.232-.25-.656 0-1.324.034-1.967.181-.246.056-.491.13-.718.244-.117.06-.588.533-.15.487-.08-.699 2.565-.648 2.835-.648zm.001 1.206c0-.173.323-.144.323-.395 0-.225-.323-.262-.323-.538 0 .276-.323.313-.323.538 0 .251.323.222.323.395zm0 0c-.173 0-.144-.323-.395-.323-.225 0-.263.323-.539.323.276 0 .314.323.539.323.251 0 .222-.323.395-.323zm0 0c.173 0 .144-.323.395-.323.225 0 .263.323.539.323-.276 0-.314.323-.539.323-.252 0-.222-.323-.395-.323zm0 .195c.251 0 .251-.389 0-.389s-.251.389 0 .389zm-1.936.54c.293-.14.455-.423.432-.746.127.288.531.62.801.344-.351.017-.658-.488-.826-.446-.166.042-.197.62-.499.772l.092.076zm-.681-.179c-.375-.151-.191-.48-.514-.645.413-.128.702.097.574.533.106-.304.362-.412.593-.146-.077-.07-.292.475-.601.332.728.195-.584.732-.052-.074-.527-.212-.266.403 0 0zm4.552.179c-.294-.14-.455-.423-.432-.746-.127.288-.531.62-.801.344.351.017.657-.488.826-.446.166.042.197.62.499.772l-.092.076zm.682-.179c.375-.151.191-.48.514-.645-.414-.128-.702.097-.574.533-.106-.304-.361-.413-.593-.146.077-.07.292.475.601.332-.729.196.583.732.052-.074.526-.212.266.403 0 0zm-2.618.001c.292 0 2.777.004 2.478.861.641.068-.199-.791-.399-.871-.647-.256-1.391-.272-2.078-.272-.613 0-1.25.021-1.844.192-.22.064-.438.152-.621.291-.147.11-.437.705-.012.66-.301-.857 2.184-.861 2.476-.861zm.001-4.314c0-.153.271-.108.271-.332 0-.188-.271-.22-.271-.452 0 .196-.115.232-.229.352-.219.23.229.292.229.432zm0 0c-.154 0-.107-.271-.332-.271-.188 0-.22.271-.452.271.196 0 .232.116.352.229.23.218.292-.229.432-.229zm0 0c.154 0 .107-.271.332-.271.188 0 .22.271.452.271-.196 0-.232.116-.352.229-.23.218-.293-.229-.432-.229zm-1.573.585c.271-.071.449-.282.482-.557.066.286.336.575.617.417-.336-.047-.466-.603-.707-.503-.042.339-.393.463-.392.643zm-.765-.241c-.246-.251.021-.422-.177-.666.36.041.506.308.261.601.184-.198.414-.2.503.087-.036-.079-.382.267-.57.053.493.396-.694.366-.017-.075-.332-.339-.338.22 0 0zm3.911.241c-.27-.071-.45-.281-.482-.557-.066.286-.336.575-.617.417.336-.047.466-.603.707-.503.041.339.393.463.392.643zm.765-.241c.246-.251-.021-.422.177-.666-.36.041-.506.308-.261.601-.184-.197-.414-.2-.503.087.036-.079.382.267.57.053-.493.396.693.366.017-.075.332-.339.338.22 0 0zm-5.141 2.209c.205-.048.114-.441-.091-.393-.206.049-.114.442.091.393zm1.169-.528c.252 0 .252-.389 0-.389-.251 0-.251.389 0 .389zm4.436.528c-.206-.048-.114-.441.092-.393.204.049.114.441-.092.393zm-1.169-.528c-.251 0-.251-.389 0-.389.252 0 .252.389 0 .389zm-3.149 1.815c.25-.021.219-.408-.032-.388-.25.021-.219.409.032.388zm-1.075.656c.19-.092.015-.455-.176-.363-.189.093-.014.455.176.363zm4.106-.656c-.251-.021-.219-.408.032-.388.251.021.219.409-.032.388zm1.076.656c-.19-.092-.015-.455.176-.363.189.093.014.456-.176.363zm-2.591-4.333c.211 0 .211-.327 0-.327s-.211.327 0 .327zm-1.116-.058c.214.024.25-.308.036-.331-.214-.023-.25.308-.036.331zm-1.263.388c.177-.007.164-.343-.013-.337-.177.007-.163.343.013.337zm3.495-.388c-.214.024-.25-.308-.036-.331.214-.023.25.308.036.331zm1.263.388c-.177-.007-.164-.343.013-.337.176.007.162.343-.013.337zm-2.38.677c.656 0 2.312-.158 2.804.484.038.051.056.212.167.054.192-.271-.361-.48-.519-.537-.771-.276-1.646-.271-2.452-.271s-1.682-.005-2.451.271c-.157.057-.711.265-.52.537.11.157.129-.004.168-.054.492-.642 2.145-.484 2.803-.484zm0-.545c.502-.002 2.479-.2 2.716.535.228.076.078-.34 0-.389-.187-.116-.398-.187-.611-.237-.683-.161-1.407-.147-2.104-.149-.618-.001-1.246-.004-1.856.098-.231.039-.464.095-.679.192-.137.062-.458.578-.181.484.235-.722 2.219-.532 2.715-.534zm.001 5.429c.403 0 2.326-.011 2.326-.719 0-.709-1.922-.72-2.326-.72s-2.326.011-2.326.72 1.922.719 2.326.719z"/><path fill="#E40520" d="M47.009 20.972c.318 0 2.039.006 2.039-.571 0-.578-1.72-.571-2.039-.571s-2.039-.006-2.039.571c0 .578 1.72.571 2.039.571z"/></g><g stroke="#000" stroke-width=".063" stroke-linecap="round"><path fill="#fff" d="M48.995 20.529c.333 1.1.923 2.136 2.226 2.07-.422.894-1.313 1.655-2.243.901-.746-.605-1.028-1.697-1.299-2.577.358-.025 1.081-.075 1.316-.394.312 1.03-.168.228 0 0z"/><path d="M48.883 23.117c-.461-.614-.78-1.657-.953-2.217" fill="none"/><path fill="#FFE466" d="M48.002 20.882c.2-.036.42.443.484.569h-.383c.064.179.113.38.203.55.095-.098.2-.182.317-.251.179.346.344.731.401 1.119l.431-.354c-.263-.218-.512-.531-.641-.85l.304-.109c-.07-.117-.13-.238-.181-.364l-.261.181c-.227-.649.067-.578-.674-.491z"/><path d="M48.746 20.696c.214.61.493 1.241.996 1.613" fill="none"/></g><g stroke="#000" stroke-width=".063" stroke-linecap="round"><path fill="#fff" d="M46.339 20.924c-.271.88-.554 1.97-1.3 2.577-.929.754-1.821-.007-2.242-.901 1.303.065 1.893-.971 2.226-2.07.271.301.94.369 1.316.394-.192.623-.449-.029 0 0z"/><path d="M45.135 23.117c.461-.614.78-1.657.953-2.217" fill="none"/><path fill="#FFE466" d="M46.016 20.882c-.2-.036-.42.443-.484.569h.383c-.064.179-.113.38-.203.55-.095-.098-.2-.182-.317-.251-.18.346-.344.731-.401 1.119l-.431-.354c.263-.219.512-.531.641-.85l-.304-.109c.07-.117.13-.238.181-.364l.261.181c.226-.649-.068-.578.674-.491z"/><path d="M45.271 20.696c-.214.61-.493 1.241-.997 1.613" fill="none"/></g><g fill="#EAEAEA" stroke="#000" stroke-width=".063"><path d="M51.437 30.275c.53-.085.184-.66.148-.523-.64-1.779 3.1-2.213 2.885-.332-.065-.125-.273.513.263.477.193-1.372-.511-2.17-1.92-2.044-.608.055-1.26.328-1.64.823-.37.48-.176.954.412 1.076"/><path d="M51.306 27.695l.127-.151c-.392.003-.994 1.198-1.117 1.475-.423.952-.202 2.061.496 2.825 1.512 1.653 4.366.831 4.753-1.38-.65 1.296-2.302 2.407-3.721 1.553-1.561-.941-1.819-3.04-.538-4.322z"/></g><g stroke="#000" stroke-width=".063" stroke-linejoin="round"><path fill="#EAEAEA" d="M39.604 22.034c.002-.344-.124-.541-.422-.709l.306-.38c.026.094.293.859.491.614.264-.326.072-.476.227-.775l.651.539-.043.057c-.566-.672-.876.392-.231.757-.049.088-.145.226-.227.282.022-.247-.284-.869-.526-.572l-.562.688-.399.281c-.334.754 1.005 1.469 1.42 1.807.28-.347.914-.905.294-1.274l.065-.084c.503.409.436.375.842-.125.241-.296.461-.665.015-.928l.065-.09.448.365c.245-.307.555-.65.16-.968l-1.788-1.446-1.312-1.061c-.019-.014-.387.402-.371.505.05.308.093.44.385.606l-.065.084c-.563-.45-.504-.522-.956.043-.322.402-.393.747.13 1.045-.349.812-1.319-.949-1.133.39.099.708 1.003 1.137 1.54 1.573.404-.374.636-.779.996-1.224zm2.349.045l-.448-.356c-.339.236-.185.336.05.527.236.193.051.252-.131.476-.071.087-.346.533-.444.454-.263-.209-.452-.476-.636-.017l.442.353c-.068.121-.194.282-.299.374l-.036-.229c-.216.525-.638-.078-.9-.291-.267-.215-.945-.5-.47-.823.383.202.495-.765.844-.816.605-.09-.048.693.305.847.21-.261.94-.813.455-1.035l-.149.186c-.592-.323-.154-.862.279-.348.522-.358-.383-.77-.675-1.005-.098.068-.259.243-.162.325.23.193.119.205-.063.432-.187.232-.39-.563-.486-.607-.104.129-.712.72-.682.855.064.29.296.123.388.012.091-.11.32.114.402.215l-.781.96-.051-.316-.212.263-1.475-1.193c.206-.324.269-.108.474-.36.109-.134.488.288.614.39.449-.313-.001-.491-.275-.715-.088-.071.464-.664.55-.77.229-.287.396.362.647.342.632-.051-.244-.686-.329-.754.18-.218.263-.536.511-.336l1.033.835 2.076 1.679-.366.446z"/><g fill="none"><path d="M42.019 22.486l-.066-.407M41.505 21.723l.065.398M41.025 23.216l.07.404M40.583 22.863l.065.401M39.081 22.546l1.37 1.113M38.704 22.25l-1.472-1.191M39.428 20.523l.06.422M39.871 21.182l.066.43M40.206 20.784l-.066-.398M39.59 21.337l-.072-.431M38.492 22.507l.122.745M40.235 23.916l.054.7M40.535 21.72l.065.394"/></g></g><path fill="#EAEAEA" stroke="#000" stroke-width=".063" d="M38.393 17.574l-.46-.37c-.08-.064-.362.239-.354.328.008.082.361.292.43.348.104.085.3-.219.384-.306z"/><path fill="#FFE466" stroke="#000" stroke-width=".063" d="M37.857 17.445c-.118.15-.015.392-.294.267-.26-.117-.521-.47-.301-.742.178-.221.475-.141.664.012.347.279.085.271-.069.463z"/><path fill="#EAEAEA" stroke="#000" stroke-width=".063" stroke-linejoin="round" d="M38.211 18.323l5.528 4.449 1.269 1.021c.171.137.311.231.304.476-.005.199.952.779 1.136.96.698.686 2.741 3.698 3.821 2.357.082-.102.387-.366.402-.499-.163-.494-.434-.941-.812-1.298-.662-.622-1.541-.946-2.311-1.407-.407-.244-.793-.523-1.135-.854-.289-.279-.483-.126-.775-.362l-1.2-.97-5.661-4.575"/><path fill="#EAEAEA" stroke="#000" stroke-width=".063" stroke-linejoin="round" d="M50.206 28.289l-.4-.301.595-.729c.303-.371.265-.305.654-.012l-.849 1.042z"/><g fill="#FFE466" stroke="#000" stroke-width=".063"><path d="M55.074 27.534c-.547 0-.547-.847 0-.847.546.001.546.847 0 .847zm-1.027-.241l.314-.401c.331.26 1.229.667.928 1.051-.3.383-.911-.39-1.242-.65zm1.202 4.473c0-.546.847-.546.847 0s-.847.546-.847 0zm-.51.072l.704-1.135.4.313-.695.888c-.181.233-.596.39-.409-.066"/><path d="M50.573 31.709c-.04.389.778.795 1.072 1.026.038-.393-.775-.794-1.072-1.026zm.277.352c.546 0 .546.847 0 .847s-.546-.847 0-.847zm1.123.098l-.759-.595c-.388-.304-.332-.248-.641.145.297.232 1.109.633 1.072 1.026.173-.148.278-.352.328-.576zm-1.427-3.189c-.379-.298-.665-.309-.353-.707l.983-1.255c.379.298.665.309.353.707l-.983 1.255zM54.993 32.103l-.4-.315M51.659 32.56l.314-.401M55.182 27.996l-1.135-.703.314-.401c.281.221 1.545.878.952 1.248l-.131-.144M55.446 27.742l-.313.401"/></g><path fill="#EAEAEA" stroke="#000" stroke-width=".063" d="M46.596 24.484c-.367.026-.781-.205-.962-.772.593.055.908.407.962.772zm.081-.134c-.41-.051-.41-.799-.284-1.235-.018.585.706.771.284 1.235zm-.198.246c-.137-.39-.867-.23-1.268-.015.569-.143.905.525 1.268.015zm-1.188-1.133c-.185.22-.329.539-.176.816.033.061.247.315.338.174-.339-.215.477-1.407.844-1.04.095-.094-.096-.233-.151-.262-.319-.163-.657.075-.855.312z"/><path fill="#FFE466" stroke="#000" stroke-width=".063" d="M43.335 21.852c-.159.181-.328.55-.049.72.239.146.161-.188.225-.309.089-.173.562-.412.559-.485-.024-.449-.626-.05-.735.074zm-.625-.499c-.159.181-.328.55-.049.719.24.146.161-.188.224-.31.09-.173.564-.41.56-.485-.024-.448-.626-.048-.735.076zm-4.613-3.722c-.159.181-.328.55-.049.719.239.145.161-.188.225-.309.09-.172.562-.411.559-.485-.024-.449-.626-.049-.735.075zm3.946 2.504c-.304-.25-.704-.365-1.09-.395-.208-.356-.356-.789-.688-1.054-.159-.127-.831-.838-1.022-.687.41.459.781.974 1.077 1.514-.531-.182-1.185-.419-1.615-.79-.184.18 1.191 1.074 1.44 1.155.692.225 1.243 1.166 1.874 1.681.112-.385-.653-1.054-.825-1.436.318.067.681.188.945.383-.032-.121-.045-.258-.096-.371zm-3.438-2.092c-.159.181-.328.55-.049.719.24.146.161-.188.224-.309.09-.173.564-.41.56-.485-.024-.447-.625-.049-.735.075z"/><path d="M48.564 26.028c.15.461.549 1.261 1.149 1.204.569-.054-.017-.744-.221-.858-.263-.146-2.203-.789-1.3-1.059-.506-.146-1.043-.38-1.46-.705m2.024 1.511c.745.26 1.199 1.059.557.996" stroke="#000" stroke-width=".063" fill="none"/><path fill="#EAEAEA" stroke="#000" stroke-width=".063" stroke-linejoin="round" d="M53.04 29.695"/><path fill="#EAEAEA" stroke="#000" stroke-width=".063" d="M52.741 31.388c.424-.021.058-.348.458-.397.431-.054.092.375.579.267.451-.1 1.467-1.369.781-1.483-.263-.044-.309-.416-.064-.522.283-.123.04-.576-.13-.789-.237-.298-.607-.471-.987-.46-.498.013-.067.346-.498.399-.43.054-.092-.375-.579-.267-.371.082-.688.339-.846.685-.113.249-.24.747.064.798.263.044.31.416.064.522-.644.28.681 1.276 1.158 1.247.131.156.047.84.059 1.056-1.708-.146-2.889-1.877-2.408-3.522.476-1.629 2.378-2.455 3.894-1.688 1.513.767 1.979 2.78.951 4.131-.463.608-1.17 1.005-1.931 1.077-.744.071-.531-.435-.565-1.054zm.299-1.693"/><path d="M52.096 31.819c.347.143.94-.035 1.172-.322.296.22.914.242 1.214.018-.676.52-1.603.673-2.386.304.304.125.8.377 0 0zm-1.179-3.067c-.143.347.034.939.322 1.171-.221.296-.243.915-.019 1.215-.52-.676-.673-1.604-.303-2.386-.125.305-.378.8 0 0zm3.066-1.18c-.347-.143-.94.035-1.171.322-.296-.22-.915-.242-1.215-.018.676-.52 1.604-.673 2.386-.304-.303-.125-.799-.377 0 0zm1.18 3.068c.143-.347-.034-.94-.322-1.172.22-.295.242-.915.018-1.214.52.676.673 1.602.304 2.386.125-.305.378-.801 0 0z" fill="#EAEAEA" stroke="#000" stroke-width=".063"/><g stroke="#000" stroke-linecap="round"><path d="M40.128 19.264c.521-.138.958-.485 1.065-.897m-1.264.668c.547-.143.95-.499 1.065-.884m-1.234.681c.573-.148.943-.514 1.064-.87m-1.233.667c.6-.153.937-.528 1.064-.856m-1.234.654c.627-.158.931-.542 1.065-.843m-1.234.64c.653-.163.923-.557 1.065-.829m-1.234.627c.679-.168.916-.572 1.064-.815m-1.233.612c.705-.174.909-.586 1.064-.802" fill="none"/><path fill="#fff" d="M41.163 18.526c.119-.403.341-.793.604-1.12.285.884.325 1.788.177 2.701-.122.749-.358 1.526-.121 2.278.355 1.125 1.926 1.897 3.002 1.261-.458-.079-.98-.004-1.341-.398-.379-.413-.348-1.072-.308-1.59.115-1.488.721-3.264.108-4.707-.511-1.204-2.2-1.34-3.017-.386-.479.56-.404.551.05 1.043l.846.918z"/><path d="M44.735 23.688c-2.097.156-1.863-1.948-1.608-3.397.168-.956.446-4.915-1.359-2.885m.188-.194c.349 1.133.319 2.25.107 3.402-.165.892-.407 2.06.404 2.715" fill="none"/><path fill="#FFE466" d="M43.03 19.213c-.086.199-.146.421-.186.634.127-.002.251-.024.371-.066l-.096.532c-.105-.048-.215-.084-.329-.107-.061.404-.104.812-.061 1.22l-.508-.048c.149-.379.245-.79.28-1.196-.125-.013-.25-.005-.373.024l.068-.494c.118.043.24.074.365.093.017-.202.013-.403-.012-.604l.481.012c-.072.168-.143-.005 0 0z"/><path fill="none" d="M41.265 18.208l-1.269-1.304M43.419 17.395c-.299-1.077-1.28-1.388-2.357.598m1.58-1.798c-.715-.381-1.714-.38-2.549.811"/><path fill="#FFE466" d="M41.779 16.042l.509.383c-.321 0-.732.171-.963.395.146.049.285.113.418.192-.178.169-.308.38-.448.58-.018-.185-.084-.351-.197-.497-.144.17-.271.352-.383.544l-.381-.392.458-.38c-.127-.107-.273-.171-.439-.191.172-.192.38-.372.61-.491.018.15.071.286.161.407.198-.2.416-.397.655-.55.15.108-.197.126 0 0z"/></g><g fill="#FFE466" stroke="#000" stroke-width=".063"><path d="M42.581 30.275c-.531-.085-.184-.66-.148-.523.64-1.779-3.101-2.213-2.885-.332.065-.125.272.513-.264.477-.192-1.372.512-2.17 1.921-2.044.608.055 1.26.328 1.64.823.37.48.176.954-.412 1.076"/><path d="M42.712 27.695l-.128-.151c.392.003.995 1.198 1.118 1.475.423.952.202 2.061-.496 2.825-1.512 1.653-4.366.831-4.753-1.38.65 1.296 2.302 2.407 3.721 1.553 1.56-.941 1.818-3.04.538-4.322z"/></g><g stroke="#000" stroke-width=".063" stroke-linejoin="round"><path fill="#FFE466" d="M54.413 22.034c-.002-.344.124-.541.422-.709l-.306-.38c-.026.092-.293.859-.491.614-.264-.326-.074-.474-.227-.775l-.652.539.044.057c.198-.235.718-.387.638.11-.064.396-.584.648-.18.929-.022-.247.284-.869.526-.572l.562.688.399.281c.335.754-1.005 1.469-1.421 1.807-.279-.348-.912-.905-.293-1.274l-.065-.084c-.503.409-.436.375-.842-.125-.241-.296-.461-.665-.015-.928l-.065-.09-.448.365c-.245-.307-.555-.65-.16-.968l1.788-1.446 1.312-1.061c.019-.014.387.402.371.505-.05.309-.093.44-.386.606l.066.084c.563-.45.504-.522.956.043.322.402.393.748-.131 1.045.35.811 1.32-.949 1.134.39-.099.708-1.003 1.137-1.54 1.573-.402-.374-.637-.779-.996-1.224zm-2.349.045l.448-.356c.339.236.185.336-.05.527-.236.193-.051.252.131.476.071.087.346.533.444.454.263-.209.452-.476.636-.017l-.442.353c.068.121.194.282.299.374l.036-.229c.215.525.637-.079.9-.291.266-.215.943-.499.47-.823-.383.202-.495-.765-.844-.816-.605-.09.046.693-.305.847-.21-.261-.94-.813-.455-1.035l.149.186c.592-.323.154-.862-.279-.348-.521-.358.383-.77.674-1.005.099.068.26.243.163.325-.23.193-.119.205.063.432.186.232.389-.563.486-.607.104.129.712.72.682.855-.064.29-.296.123-.388.012-.091-.11-.32.114-.402.215l.781.96.051-.316.212.263 1.475-1.193c-.206-.324-.269-.108-.474-.36-.109-.134-.489.288-.615.39-.448-.313.002-.491.276-.715.088-.071-.464-.664-.55-.77-.229-.287-.396.362-.647.342-.632-.051.244-.686.329-.754-.18-.218-.263-.536-.511-.336l-1.033.835-2.076 1.679.366.446z"/><g fill="none"><path d="M51.999 22.486l.065-.407M52.513 21.723l-.066.398M52.992 23.216l-.069.404M53.435 22.863l-.066.401M54.937 22.546l-1.371 1.113M55.313 22.25l1.472-1.191M54.59 20.523l-.061.422M54.146 21.182l-.065.43M53.812 20.784l.065-.398M54.428 21.337l.072-.431M55.525 22.507l-.122.745M53.781 23.916l-.053.7M53.482 21.72l-.064.394"/></g></g><path fill="#FFE466" stroke="#000" stroke-width=".063" d="M55.624 17.574l.461-.37c.08-.064.361.239.353.328-.008.082-.36.292-.429.348-.105.085-.301-.219-.385-.306z"/><path fill="#EAEAEA" stroke="#000" stroke-width=".063" d="M56.16 17.445c.118.15.015.392.294.267.26-.117.521-.47.301-.742-.178-.221-.475-.141-.664.012-.347.279-.084.271.069.463z"/><path fill="#FFE466" stroke="#000" stroke-width=".063" stroke-linejoin="round" d="M55.807 18.323l-5.528 4.449-1.269 1.021c-.171.137-.311.231-.304.476.005.199-.952.779-1.136.96-.698.686-2.741 3.698-3.821 2.357-.082-.102-.387-.366-.402-.499.163-.494.434-.941.812-1.298.662-.622 1.541-.946 2.311-1.407.407-.244.793-.523 1.135-.854.289-.279.483-.126.775-.362l1.2-.97 5.661-4.575"/><path fill="#FFE466" stroke="#000" stroke-width=".063" stroke-linejoin="round" d="M43.812 28.289l.399-.301-.594-.729c-.303-.371-.265-.305-.654-.012l.849 1.042z"/><g fill="#EAEAEA" stroke="#000" stroke-width=".063"><path d="M38.943 27.534c.546 0 .546-.847 0-.847s-.546.847 0 .847zm1.028-.241l-.314-.401c-.331.26-1.229.667-.928 1.051.299.383.911-.39 1.242-.65zm-1.202 4.473c0-.546-.847-.546-.847 0s.847.546.847 0zm.509.072l-.704-1.135-.4.313.695.888c.182.233.597.39.409-.066"/><path d="M43.444 31.709c.04.389-.778.795-1.072 1.026-.037-.393.775-.794 1.072-1.026zm-.276.352c-.547 0-.547.847 0 .847.546-.001.546-.847 0-.847zm-1.123.098l.759-.595c.388-.304.332-.248.641.145-.297.232-1.109.633-1.072 1.026-.174-.148-.278-.352-.328-.576zm1.427-3.189c.671-.526.543-.465.024-1.125l-.64-.817c-.033-.041-.504.363-.578.421l1.194 1.521zM39.024 32.103l.401-.315M42.358 32.56l-.313-.401M38.836 27.996l1.135-.703-.314-.401c-.281.221-1.545.878-.952 1.248l.131-.144M38.571 27.742l.314.401"/></g><path fill="#FFE466" stroke="#000" stroke-width=".063" d="M47.422 24.484c.367.026.781-.205.961-.772-.592.055-.907.407-.961.772zm-.081-.134c.41-.051.41-.799.284-1.235.018.585-.706.771-.284 1.235zm.197.246c.138-.39.868-.23 1.268-.015-.569-.143-.905.525-1.268.015zm1.189-1.133c.185.22.329.539.176.816-.033.061-.247.315-.338.174.338-.215-.477-1.407-.844-1.04-.095-.094.095-.233.15-.262.319-.163.657.075.856.312z"/><path fill="#EAEAEA" stroke="#000" stroke-width=".063" d="M50.683 21.852c.159.181.328.55.049.72-.239.146-.161-.188-.225-.309-.089-.173-.562-.411-.56-.485.025-.45.626-.05.736.074zm.625-.499c.159.181.328.55.049.719-.24.146-.161-.188-.224-.31-.09-.173-.564-.41-.56-.485.024-.448.625-.048.735.076zm4.612-3.722c.159.181.329.549.05.719-.239.145-.161-.188-.225-.309-.09-.172-.562-.411-.559-.485.024-.449.625-.049.734.075zm-3.945 2.504c.304-.25.703-.365 1.089-.395.208-.356.357-.789.689-1.054.156-.125.834-.84 1.021-.687-.409.459-.781.973-1.076 1.514.531-.182 1.185-.419 1.615-.79.183.186-1.19 1.074-1.44 1.155-.692.225-1.243 1.165-1.874 1.681-.112-.385.653-1.054.825-1.436-.318.067-.681.188-.945.383.031-.121.045-.258.096-.371zm3.437-2.092c.159.181.328.55.049.719-.239.146-.161-.188-.225-.309-.089-.173-.562-.41-.559-.485.024-.447.626-.049.735.075z"/><path d="M45.453 26.028c-.15.461-.549 1.261-1.149 1.204-.569-.054.017-.744.22-.858.263-.146 2.204-.789 1.301-1.059.506-.146 1.043-.38 1.46-.705m-2.023 1.511c-.745.26-1.2 1.059-.557.996" stroke="#000" stroke-width=".063" fill="none"/><path fill="#FFE466" stroke="#000" stroke-width=".063" stroke-linejoin="round" d="M40.978 29.695"/><path fill="#FFE466" stroke="#000" stroke-width=".063" d="M41.276 31.388c-.424-.021-.058-.348-.458-.397-.431-.054-.092.375-.579.267-.451-.1-1.468-1.369-.781-1.483.264-.044.309-.416.063-.522-.283-.123-.04-.575.131-.789.237-.298.607-.471.987-.46.499.013.067.346.498.399.43.054.092-.375.579-.267.371.082.688.339.846.685.113.249.24.747-.064.798-.263.044-.309.416-.064.522.644.28-.68 1.276-1.158 1.247-.131.156-.047.84-.059 1.056 1.708-.146 2.889-1.877 2.408-3.522-.476-1.629-2.378-2.455-3.894-1.688-1.513.767-1.979 2.78-.951 4.131.463.608 1.17 1.005 1.931 1.077.745.071.531-.435.565-1.054zm-.298-1.693"/><path d="M41.922 31.819c-.347.143-.94-.035-1.172-.322-.296.22-.914.242-1.214.018.676.52 1.604.673 2.386.304-.305.125-.8.377 0 0zm1.179-3.067c.143.347-.034.939-.322 1.171.221.296.243.915.019 1.215.519-.676.673-1.604.303-2.386.125.305.378.8 0 0zm-3.067-1.18c.347-.143.94.035 1.171.322.296-.22.915-.242 1.215-.018-.676-.52-1.603-.673-2.386-.304.304-.125.8-.377 0 0zm-1.18 3.068c-.143-.347.034-.94.322-1.172-.22-.295-.243-.915-.018-1.214-.519.676-.673 1.602-.304 2.386-.125-.305-.377-.801 0 0z" fill="#FFE466" stroke="#000" stroke-width=".063"/><g stroke="#000" stroke-linecap="round"><path d="M53.89 19.264c-.521-.138-.958-.485-1.065-.897m1.264.668c-.547-.143-.95-.499-1.065-.884m1.234.681c-.573-.148-.943-.514-1.064-.87m1.233.667c-.6-.153-.937-.528-1.064-.856m1.233.654c-.626-.158-.93-.542-1.064-.843m1.234.64c-.653-.163-.923-.557-1.065-.829m1.234.627c-.68-.168-.916-.572-1.064-.815m1.233.612c-.705-.174-.909-.586-1.064-.802" fill="none"/><path fill="#fff" d="M52.854 18.526c-.119-.403-.341-.793-.604-1.12-.285.884-.325 1.788-.177 2.701.122.749.358 1.526.121 2.278-.355 1.125-1.926 1.897-3.002 1.261.458-.079.98-.004 1.341-.398.379-.413.348-1.072.308-1.59-.115-1.488-.721-3.264-.108-4.707.511-1.203 2.201-1.34 3.017-.386.479.56.403.551-.051 1.043l-.845.918z"/><path d="M49.282 23.688c2.097.156 1.863-1.948 1.608-3.397-.168-.956-.446-4.915 1.359-2.885m-.187-.194c-.349 1.133-.319 2.25-.107 3.402.165.892.407 2.06-.404 2.715" fill="none"/><path fill="#FFE466" d="M50.987 19.213c.086.199.146.421.186.634-.127-.002-.251-.024-.371-.066l.096.532c.105-.048.215-.084.329-.107.061.404.104.812.06 1.22l.509-.048c-.149-.379-.244-.79-.281-1.196.126-.013.25-.005.374.024l-.068-.494c-.118.043-.24.074-.365.093-.017-.202-.013-.403.012-.604l-.481.012c.073.168.144-.005 0 0z"/><path fill="none" d="M52.752 18.208l1.269-1.304M50.599 17.395c.299-1.077 1.28-1.388 2.357.598m-1.58-1.798c.715-.381 1.714-.38 2.549.811"/><path fill="#FFE466" d="M52.237 16.042l-.508.383c.321 0 .732.171.963.395-.146.049-.286.113-.419.192.179.169.309.38.449.58.018-.185.084-.351.197-.497.144.17.271.352.383.544l.38-.392-.457-.38c.127-.107.273-.171.439-.191-.172-.192-.38-.372-.61-.491-.018.15-.071.286-.161.407-.199-.2-.416-.398-.656-.55-.149.108.199.126 0 0z"/></g><g stroke="#000" stroke-width=".063"><path fill="#E40520" d="M47.009 32.78c1.371 0 2.9-.052 4.17-.637.626-.289 1.698-1.62.299-1.706.162.719.365.919-.473 1.305-1.213.559-2.686.612-3.996.612-1.27 0-2.647-.062-3.84-.545-.275-.111-.585-.257-.77-.5-.243-.32.067-.547.141-.872-1.27.078-.468 1.312.154 1.635 1.282.666 2.908.708 4.315.708z"/><path d="M42.326 30.474c-.239.094.062.25-.021.506m-.401-.188c-.12.442.333.197.479.489m-.411.167c.104.166.469-.042.683.094m-.277.338c.167.109.417-.213.787-.078m-.256.375c.261.127.526-.26.787-.197m-.146.421c.24.062.49-.328.709-.281m-.141.411c.242.05.5-.359.719-.312m-.141.417c.245.033.479-.375.708-.354m-.051.432c.247.021.469-.396.703-.381m-.017.426c.247.01.468-.411.703-.408m.026.423c.248.01.465-.423.703-.427m.013.428l.692-.459m.051.43c.248-.017.449-.47.685-.495m.035.432c.248-.03.409-.492.646-.53m.031.436c.247-.038.377-.525.61-.578m.009.45c.246-.065.307-.542.531-.621m-.004.46c.255-.092.19-.539.414-.647m.145.415c.244-.134.087-.562.258-.724m.12-.219c-.034.144.292.453.146.578m-.174-.82c.08.2.497.227.442.395m-.567-.617c.051.104.376-.125.49.016" fill="none"/></g><path d="M46.751 35.151l-.037 1.529m.171-1.516c-.099.492.069 1.041-.036 1.525m.155-1.513l-.036 1.525m.382-1.382l-.01 1.397m-.123-1.487l-.027 1.479m-.591-1.555c-.102.486.071 1.032-.036 1.521m-.313-1.473c-.095.463.082.991-.021 1.454m-.08-1.419c-.097.448.077.962-.012 1.408m.961-1.456l-.035 1.513m-.593-1.565l-.038 1.53m-.071-1.507l-.032 1.5" stroke="#E40520" stroke-width=".25" stroke-linecap="round" fill="none"/><path d="M46.783 23.881c-.053 3.419-.124 6.839-.188 10.258.68.212.437-.685.444-1.115l.066-3.492.07-3.797.023-1.39.006-.404c.005-.295-.415-.377-.421-.06zm-.005 10.7c-.397-.021-.363-.635.033-.614.397.022.364.635-.033.614zm-.632.444c.041-.782 1.255-.716 1.212.066l-1.212-.066zm.597.202c-.209-.012-.62-.038-.637.26-.16-.009-.25-.194-.196-.334.115-.299.604-.291.853-.277s.734.059.817.368c.038.145-.071.319-.231.311.016-.299-.398-.318-.606-.328z" fill="#E40520" stroke="#000" stroke-width=".063"/><path d="M47.029 33.491c-.004.183-.426.215-.431.469m.44-.902c-.005.191-.419.2-.431.415m.44-.889c-.006.197-.412.243-.432.476m.44-.924c-.005.203-.423.212-.432.475m.439-.924c-.005.204-.423.213-.432.476m.441-.925c-.005.204-.423.212-.432.476m.44-.924c-.005.203-.423.212-.432.476m.441-.924c-.006.203-.424.212-.432.476m.44-.925c-.005.204-.423.213-.432.476m.44-.925c-.005.204-.423.212-.432.476m.44-.924c-.005.203-.423.212-.432.476m.44-.924c-.005.203-.423.212-.432.476m.441-.924c-.006.203-.424.212-.432.475m.44-.925c-.005.204-.423.213-.432.476m.44-.924c-.005.204-.423.213-.432.476m.44-.924c-.005.203-.423.212-.432.476m.44-.924c-.005.203-.423.212-.432.476m.441-.926c-.006.204-.423.213-.432.476m.44-.924c-.005.204-.423.212-.432.476m.441-.924c-.006.203-.423.212-.432.476m.439-.924c-.005.203-.423.212-.432.476m.441-.925c-.006.203-.424.212-.432.475m.351-.822c-.124.091-.336.149-.342.336" stroke="#000" stroke-width=".063" fill="none"/><path d="M47.244 35.151l.036 1.529m-.171-1.516l.036 1.525m-.154-1.513c.093.495-.063 1.043.036 1.525m-.382-1.382l.01 1.397m.122-1.487l.027 1.479m.592-1.555c.102.486-.071 1.032.036 1.521m.312-1.473l.021 1.454m.08-1.419c.097.448-.077.962.012 1.408m-.96-1.456l.034 1.513m.593-1.565l.038 1.53m.071-1.507l.032 1.5" stroke="#E40520" stroke-width=".25" stroke-linecap="round" fill="none"/><path d="M47.211 23.881c.056 3.419.125 6.839.188 10.258-.68.212-.437-.685-.444-1.115l-.066-3.492-.069-3.797-.024-1.39-.005-.404c-.005-.295.414-.377.42-.06zm.005 10.7c.397-.021.363-.635-.033-.614-.397.022-.364.635.033.614zm.632.444c-.041-.782-1.253-.716-1.212.066l1.212-.066zm-.597.202c.208-.012.621-.038.638.26.16-.009.249-.194.195-.334-.115-.299-.604-.291-.852-.277s-.735.059-.817.368c-.038.145.07.319.23.311-.016-.299.398-.318.606-.328z" fill="#E40520" stroke="#000" stroke-width=".063"/><path d="M46.965 33.491c.004.183.427.215.432.469m-.44-.902c.004.191.418.2.43.415m-.439-.889c.005.197.411.243.432.476m-.441-.924c.006.203.423.212.432.475m-.439-.924c.005.204.423.213.432.476m-.441-.925c.006.204.423.212.432.476m-.44-.924c.005.203.423.212.432.476m-.441-.924c.006.203.424.212.432.476m-.44-.925c.006.204.423.213.432.476m-.439-.925c.005.204.423.212.432.476m-.441-.924c.006.203.423.212.432.476m-.44-.924c.005.203.423.212.432.476m-.441-.924c.006.203.424.212.432.475m-.44-.925c.005.204.423.213.432.476m-.439-.924c.005.204.423.213.432.476m-.441-.924c.005.203.423.212.432.476m-.44-.924c.005.203.423.212.432.476m-.441-.926c.006.204.424.213.432.476m-.44-.924c.005.204.423.212.432.476m-.439-.924c.005.203.423.212.432.476m-.441-.924c.005.203.423.212.432.476m-.44-.925c.005.203.423.212.432.475m-.352-.822c.125.091.336.149.343.336" stroke="#000" stroke-width=".063" fill="none"/><g stroke="#000" stroke-width=".063"><path fill="#E40520" d="M48.418 24.616c.724 1.039-3.525 1.084-2.833-.006.695.474 2.14.496 2.833.006.195.28-.293.207 0 0z"/><path d="M46.024 24.819c-.206-.053-.316.341-.11.405m.574-.327c-.185-.013-.216.436-.052.457m.262-.44c.162.006.114.48.354.478m.078-.47c.149 0 .138.474.346.447m.138-.472c.166-.024.136.438.367.375m.066-.468c.178-.066.369.255.223.339" fill="none"/></g></svg>