<svg xmlns="http://www.w3.org/2000/svg" width="64" height="48"><path fill="#0072BB" d="M0 16h64v16h-64z"/><path fill="#FFED00" d="M0 0h64v16h-64z"/><path fill="#E40520" d="M0 32h64v16h-64z"/><g fill="#fff"><path d="M32.013 17.969l-.468 1.482h-1.537l1.248.924-.479 1.481 1.236-.921 1.236.921-.473-1.494 1.243-.904h-1.532zM25.881 19.063l-.469 1.483h-1.537l1.25.923-.481 1.481 1.237-.921 1.236.921-.474-1.494 1.243-.903h-1.532zM20.507 22.224l-.469 1.483h-1.538l1.25.922-.48 1.482 1.237-.92 1.235.92-.473-1.494 1.243-.903h-1.532zM16.505 27.081l-.467 1.483h-1.538l1.249.923-.48 1.482 1.236-.921 1.237.921-.474-1.495 1.243-.906h-1.532zM38.119 19.063l.468 1.483h1.538l-1.249.923.48 1.481-1.237-.921-1.237.921.474-1.494-1.243-.903h1.533zM43.493 22.224l.468 1.483h1.538l-1.248.922.479 1.482-1.237-.92-1.237.92.474-1.494-1.243-.903h1.533zM47.494 27.081l.468 1.483h1.538l-1.249.923.48 1.482-1.237-.921-1.235.921.472-1.495-1.241-.906h1.531z"/></g><path fill="#fff" d="M11.172 4.351c-.136.003-.191-.087-.21-.167-.065.003-.106-.074-.122-.114-.09.016-.151-.047-.175-.095-.089.025-.191-.044-.201-.11-.125.011-.22-.061-.22-.164-.067-.005-.133-.071-.133-.146-.1-.029-.106-.156-.076-.222-.027-.033-.014-.115.005-.134-.059-.05-.04-.156.005-.177-.001-.051.012-.123.095-.14 0-.08.059-.13.112-.13.016-.089.09-.145.165-.116.052-.082.135-.092.201-.042.042-.037.136-.035.172.021.096-.037.192.05.114.153-.04.053-.114.056-.146.013l-.111-.011c-.002.035-.076.04-.102.008 0 .042-.065.074-.094.064l-.055.087c.016.026 0 .103-.035.106l-.011.077.016.105c.072.013.125.069.141.129.074-.008.098.047.104.087.066-.026.159-.002.191.061.087-.032.204.024.241.076.103-.068.251-.013.293.056.102-.032.269.019.239.117.141-.029.271.052.281.124.146-.008.212.071.241.156.117.002.228.172.196.262-.25.735-1.214.412-1.121.066z"/><path d="M12.097 4.023c-.393-.045-.79.357-.939.331m.697-.486c-.332-.016-.703.338-.894.317m.613-.441l-.15.05m-.278.172c-.102.062-.205.11-.305.105m.494-.444l-.151.084m-.201.143c-.099.063-.206.117-.318.122m.377-.405l-.152.106m-.178.114c-.085.046-.172.079-.248.074m.337-.37l-.133.074m-.217.117c-.064.022-.134.032-.207.015m.366-.267l-.082.04m-.252.103l-.165-.021m.395-.209l-.108.018m-.241.038c-.054-.002-.099-.021-.122-.069m.331-.116l-.074-.004m-.162.014l-.09-.029m.31-.087l-.101-.021m-.154-.01l-.05-.059m.316.014l-.072-.043m-.117-.058l-.032-.053m.256.048l-.042-.04m-.092-.078l-.01-.059m.199.09l-.02-.051m-.036-.097l.022-.059m.128.143l.007-.058m.01-.048l.055-.079m.141.188c-.029-.029-.031-.139.032-.167m-.117.09l-.026.066" fill="none"/><path fill="#fff" d="M10.793 4.351c.135.003.191-.087.209-.167.067.003.106-.074.122-.114.091.016.151-.047.175-.095.091.025.191-.044.202-.11.125.011.221-.061.221-.164.065-.005.131-.071.131-.146.101-.029.106-.156.077-.222l-.005-.135c.058-.05.039-.156-.005-.177.002-.051-.011-.123-.096-.14 0-.08-.058-.13-.111-.13-.017-.089-.091-.145-.165-.116-.053-.082-.135-.092-.202-.042-.042-.037-.135-.035-.172.021-.096-.037-.192.05-.114.153.04.053.114.056.146.013l.112-.011c.002.035.076.04.102.008 0 .042.065.074.094.064l.056.087c-.017.026 0 .103.034.106l.01.077-.016.105c-.072.013-.125.069-.141.129-.074-.008-.098.047-.103.087-.067-.026-.16-.002-.191.061-.087-.032-.204.024-.241.076-.104-.068-.251-.013-.294.056-.1-.032-.268.019-.238.117-.14-.028-.27.054-.28.126-.146-.009-.213.071-.241.155-.117.003-.228.172-.197.262.249.735 1.215.412 1.121.066z"/><path d="M9.869 4.023c.392-.045.79.357.938.331m-.697-.486c.331-.016.702.338.893.317m-.612-.441l.149.05m.28.172c.101.062.204.11.304.105m-.495-.444l.151.084m.202.143c.098.063.206.117.317.122m-.376-.405l.151.106m.179.114c.084.046.172.079.248.074m-.336-.37l.132.074m.216.117c.065.022.134.032.208.015m-.366-.267l.082.04m.252.103l.164-.021m-.395-.209l.109.018m.242.038c.054-.002.099-.021.122-.069m-.332-.116l.075-.004m.161.014l.09-.029m-.31-.087l.101-.021m.154-.01l.05-.059m-.316.014l.073-.043m.115-.058l.032-.053m-.254.048l.042-.04m.091-.078l.011-.059m-.2.09l.02-.051m.037-.097l-.022-.059m-.129.143l-.007-.058m-.011-.048l-.055-.079m-.14.188c.03-.029.03-.139-.031-.167m.116.09l.026.066" fill="none"/><path fill="#00A083" d="M13.308 4.808c.175-.143.279.013.361-.01-.112.141-.309-.02-.361.01z"/><path fill="#D32E3F" d="M10.211 4.148c-.235-.141-.637-.014-.697.215.149.176.718.136.697-.215zm1.448.693c-.339-.142-.914-.015-1 .215.214.175 1.03.136 1-.215zm1.516 0c-.236-.142-.637-.015-.698.215.15.175.719.136.698-.215z"/><path fill="#E40520" d="M12.565 4.841c-.235-.141-.637-.014-.697.215.149.175.719.136.697-.215z"/><path fill="#00A083" d="M12.105 4.203c-.236-.141-.637-.014-.697.215.149.176.719.136.697-.215z"/><path fill="#E40520" d="M11.904 4.334c-.097.156.071.26.167.105.097-.155-.07-.263-.167-.105z"/><path fill="#00A083" d="M12.069 4.507c-.015-.225.172-.219.2-.299.052.173-.193.239-.2.299zm-.019-.21c-.016-.225.172-.219.2-.299.051.174-.194.24-.2.299z"/><path fill="#086" d="M12.442 4.579c.156-.169.41-.145.485-.135l.17-.079.115-.065c.045.005.021-.134.105-.109l.125-.06c.041.025.01.115.09.04.08-.074.135-.084.135-.035s0 .135.05.13l.01.1.041.089s.14.089.02.115l-.1-.035h-.095l-.041.11-.104.044c-.12.02-.214.06-.25.08l-.094.134-.229.016c-.056-.031-.551-.095-.651-.045-.102.049-.061.008.218-.295zm-1.203.073c-.142-.113-.355-.167-.466-.066.078.114.341.178.466.066zm-1.101-.532c-.16 0-.312.091-.372.256.164-.006.356-.102.372-.256zm0 0c-.148-.06-.324-.035-.443.093.154.058.368.042.443-.093z"/><path d="M8.284 4.28c.135.035.432-.011.66.08.075.03.265-.077.497-.002m-1.097 1.421c-.015-.359-.046-.846.559-1.061-.18.045-.67.205-.875.195" fill="none"/><path fill="#00A083" d="M10.941 4.452c-.235-.141-.637-.014-.698.215.15.176.719.136.698-.215z"/><path fill="#D32E3F" d="M10.816 4.841c-.236-.141-.637-.014-.697.215.149.175.719.136.697-.215z"/><path fill="#E40520" d="M9.292 4.841c-.237-.141-.637-.014-.697.215.149.175.718.136.697-.215zm.569 0c-.236-.141-.636-.014-.697.215.149.175.719.136.697-.215zm.517-.083c-.25-.114-.635.055-.67.289.225.104.649.065.67-.289zm-.155-.249c-.25-.114-.634.055-.67.289.225.104.65.065.67-.289z"/><path fill="#00A083" d="M10.438 4.579c-.17-.065-.39-.05-.465.08.11.084.38.065.465-.08zm-1.295.054c-.175.016-.253.046-.299.2.157-.012.257-.053.299-.2zm-.739.544c-.06.085-.105.174-.07.318.094-.089.14-.228.07-.318zm-.361-.275c-.16 0-.26.035-.33.145.125.025.266-.04.33-.145zm.205-.015c-.159.012-.256.054-.318.168.126.016.261-.058.318-.168zm0 0c-.136-.083-.239-.106-.356-.049.093.086.246.104.356.049zm.365-.074c-.154.043-.24.103-.279.228.128-.01.245-.11.279-.228zm.011.015c-.104-.121-.196-.174-.325-.156.062.111.202.174.325.156zm-.34-.548c-.161 0-.26.035-.33.145.125.024.265-.041.33-.145zm.045.014c-.128-.095-.229-.127-.351-.08.085.094.236.126.351.08zm.255.016c-.037-.156-.094-.245-.217-.287.004.127.099.248.217.287zm.4.199c-.16.018-.255.062-.313.179.127.011.258-.068.313-.179zm-.303-.43c.22.048.163.226.232.275-.181.001-.177-.252-.232-.275zm-.073.461c.07-.214.242-.139.298-.203-.018.18-.27.15-.298.203zm-.305-.05c.07-.214.243-.139.298-.203-.018.18-.27.151-.298.203zm.585.319c-.154.042-.241.102-.279.227.128-.01.245-.11.279-.227zm.32-.266c-.175.016-.253.046-.3.2.157-.012.258-.053.3-.2zm.62-.069c-.174-.07-.369-.03-.434.08.109.059.359.054.434-.08z"/><path fill="#086" d="M9.389 4.564c-.175.015-.253.045-.3.199.156-.012.257-.054.3-.199z"/><path fill="#00A083" d="M9.447 4.501c-.17-.046-.254-.044-.351.084.152.043.26.039.351-.084zm-1.02.642c-.154.043-.24.104-.278.228.126-.01.244-.109.278-.228zm0 0c-.051.151-.05.257.032.358.065-.11.047-.263-.032-.358zm-.085.587c-.06.148-.064.302.011.408.07-.106.062-.308-.011-.408z"/><path fill="#E40520" d="M11.734 4.25c-.096.155.072.261.168.105.096-.156-.07-.264-.168-.105z"/><path fill="#00ABE5" d="M9.023 4.101c.101-.106-.047-.135-.039-.225-.028.002-.06.061-.036.101-.024-.04-.091-.04-.107-.014.084.034.041.177.182.138z"/><path fill="#FFED00" d="M10.383 4.195c.002.044.035.12.078.139-.033.017-.07.085-.067.135l.12-.08.032.145.055-.142.127-.067-.115-.025c.005-.029.003-.119-.034-.151l-.058.134c-.021-.043-.078-.073-.138-.088z"/><path fill="#00A083" d="M10.478 4.449c-.17-.065-.39-.05-.465.08.11.084.38.065.465-.08z"/><path fill="#FFED00" d="M10.743 4.464c.109.098.134-.051.224-.045-.002-.03-.062-.06-.102-.033.04-.026.037-.092.011-.107-.032.084-.178.046-.133.185z"/><path fill="#E40520" d="M8.553 4.622c-.052.051-.083.001-.083-.056 0-.058.031-.109.083-.058-.052-.051-.002-.081.055-.081.059 0 .109.03.058.081.051-.051.082 0 .082.058 0 .057-.03.107-.082.056.051.051.001.082-.058.082-.057-.001-.107-.031-.055-.082z"/><path fill="#00A083" d="M9.383 4.318c.007-.159-.023-.261-.13-.336-.031.123.028.266.13.336zm-.321-.081c.203-.098.268.077.354.073-.143.112-.296-.089-.354-.073zm.566-.256c.097.174-.055.24-.047.315-.107-.119.064-.265.047-.315z"/><path fill="#E40520" d="M9.463 4.763c-.26-.085-.495.005-.59.174.176.17.54.08.59-.174zm.45-.065c-.25-.114-.635.055-.67.289.225.105.65.065.67-.289zm.598.284l-.023-.154c.005-.065-.115-.215-.279-.115-.165.101-.16.234-.04.254.119.02.177.058.189.077l.113.022.04-.084z"/><path fill="#086" d="M10.905 4.761c-.182.01-.376.112-.392.261.134.033.374-.094.392-.261z"/><path fill="#E40520" d="M9.876 4.923c-.087 0-.087.13 0 .13.088.001.089-.13 0-.13zm.146.004c-.087 0-.087.13 0 .13.088 0 .089-.13 0-.13z"/><path fill="#086" d="M11.021 4.918c-.174-.054-.393-.025-.458.109.115.077.383.041.458-.109z"/><path fill="#FFED00" d="M8.836 4.998c-.032.032-.082.013-.082-.037l.082-.036c-.032-.032-.013-.082.037-.082l.036.083c.033-.033.083-.014.083.036l-.084.036c.033.032.014.082-.035.082l-.037-.082z"/><path fill="#D32E3F" d="M9.803 4.096c-.032.033-.082.014-.082-.035l.083-.036c-.033-.033-.014-.083.035-.083.05 0 .069.049.036.083.033-.033.082-.014.082.036l-.082.035c.033.033.015.083-.036.083-.049 0-.068-.05-.036-.083z"/><path fill="#00A083" d="M9.528 4.188c.199.022.164.185.23.221-.16.017-.179-.206-.23-.221z"/><path fill="#E40520" d="M8.537 5.411c-.033.032-.083.013-.083-.036l.083-.036c-.033-.032-.014-.082.035-.082l.036.082c.033-.032.083-.013.083.036l-.083.036c.033.033.013.082-.036.082l-.035-.082zm-.185-.124c-.087 0-.087.13 0 .13s.089-.13 0-.13zm-.005.419c-.087 0-.087.13 0 .13s.089-.13 0-.13z"/><path fill="#00A083" d="M8.334 5.51c-.07.075-.151.14-.105.324.079-.07.16-.159.105-.324zm0 0c-.031.125.034.244.089.329.035-.104.056-.23-.089-.329zm.763-1.191c-.05-.152-.114-.236-.24-.268.015.127.12.239.24.268zm0 0c.048-.152.044-.258-.04-.357-.06.111-.04.264.04.357zm1.001.304c-.136-.083-.24-.106-.357-.049.093.086.246.104.357.049zm.115.036c-.158.024-.252.073-.305.192.128.006.256-.08.305-.192zm.17-.459c-.092-.131-.177-.193-.308-.187.051.117.185.194.308.187z"/><path fill="#00ABE5" d="M9.953 4.534c.102-.106-.046-.135-.038-.224-.03.002-.062.06-.037.1-.025-.04-.091-.04-.106-.014.083.034.04.178.181.138z"/><path fill="#00A083" d="M8.828 4.535c.07-.214.243-.139.298-.203-.018.18-.271.15-.298.203z"/><path fill="#E40520" d="M9.085 4.467c-.044.045-.072.001-.072-.049s.027-.094.072-.049c-.044-.044-.002-.07.048-.07.051 0 .095.026.05.07.044-.044.071-.001.071.049s-.026.094-.07.049c.044.045.001.071-.05.071-.051 0-.093-.026-.049-.071z"/><path fill="#086" d="M10.757 4.569c-.146-.066-.251-.076-.36-.005.103.075.257.073.36.005z"/><path fill="#00A083" d="M10.729 4.9c-.127-.186.038-.275.021-.359.132.124-.045.305-.021.359zm-.179-.059c-.015-.226.172-.22.201-.3.051.173-.194.24-.201.3zm.048-.208c-.146-.066-.251-.075-.36-.004.102.074.257.073.36.004zm.014-.214c.199.021.165.184.23.221-.159.017-.178-.206-.23-.221z"/><path fill="#E40520" d="M9.467 4.216c-.087 0-.087.13 0 .13s.089-.13 0-.13zm-.08.135c-.087 0-.087.13 0 .13.087-.001.089-.13 0-.13zm.152.089c-.033.033-.083.014-.083-.036l.083-.036c-.033-.032-.014-.082.035-.082l.036.083c.032-.033.083-.014.083.036l-.083.035c.032.032.013.082-.036.082l-.035-.082z"/><path fill="#00A083" d="M9.593 4.524c-.158.023-.251.074-.304.192.128.006.256-.079.304-.192zm-.849.329c-.154.043-.242.104-.279.228.127-.01.244-.11.279-.228zm.109 0c-.104-.121-.195-.175-.324-.157.062.112.202.176.324.157z"/><path fill="#E40520" d="M10.032 4.007c-.088 0-.088.13 0 .13.087 0 .088-.13 0-.13z"/><path fill="#00A083" d="M10.413 4.146c-.155.038-.244.096-.286.219.128-.006.248-.102.286-.219zm-.176.039c-.151.049-.269.182-.275.357.154-.056.308-.206.275-.357zm.207.137c-.158-.022-.262-.001-.346.097.12.042.267-.002.346-.097z"/><path fill="#086" d="M10.773 4.469c.198.022.164.184.229.221-.159.017-.179-.206-.229-.221z"/><path fill="#00A083" d="M10.752 4.554c.199.021.165.184.229.22-.158.018-.178-.205-.229-.22zm-.974-.04c-.157.024-.251.074-.304.193.128.005.256-.08.304-.193z"/><path fill="#FFED00" d="M9.371 4.649c-.033.032-.082.013-.082-.036 0-.05.049-.068.082-.036-.033-.033-.013-.082.036-.082l.036.083c.032-.033.083-.014.083.036 0 .049-.05.068-.083.036.032.032.013.082-.036.082l-.036-.083z"/><path fill="#00A083" d="M9.026 4.521c-.151.053-.234.119-.264.246.126-.018.238-.125.264-.246z"/><path fill="#086" d="M12.522 4.509c.26-.214-.16-.478.065-.637.139-.099.185.094.28.02l-.2.095c-.02.11.23.224.065.508m-.64-.036c.165.06.312-.015.405-.16.255-.398.584-.104.675-.199-.085.125-.385.024-.53.224-.145.199-.291.429-.819.339m.069.16c.476 0 .515-.364.43-.469-.084-.104-.14-.309-.045-.444 0 .19.186.212.22.409.03.174.06.608-.535.667m.305-.143c.375-.104.669-.07.775.04.105.11.214.195.52.13-.185-.005-.348-.112-.45-.219-.165-.175-.545-.229-1.029-.064"/><path fill="#00A083" d="M11.215 4.695c-.18-.022-.39.044-.432.188.127.055.384-.028.432-.188zm.415-.24c-.203-.184-.035-.335-.078-.43.192.11.034.373.078.43zm2.131.866c-.272-.031-.224-.252-.313-.304.218-.022.243.283.313.304zm-.339.618c-.161-.22.035-.336.011-.437.165.146-.043.373-.011.437zm-3.039-1.739c-.028-.157-.079-.25-.2-.299-.003.127.085.253.2.299zm.915.394c-.248-.118-.13-.312-.198-.389.213.049.138.347.198.389zm0 0c-.267.062-.297-.163-.399-.181.198-.095.326.185.399.181zm.439.019c-.204-.183-.034-.335-.078-.429.192.109.034.373.078.429zm-.45-.459c.273-.019.267.208.364.242-.211.062-.292-.235-.364-.242zm-.06.144c.273-.018.267.209.364.242-.211.062-.292-.234-.364-.242zm.698-.065c-.016-.225.172-.219.201-.299.05.173-.195.239-.201.299zm-.054.011c-.1-.202.075-.268.07-.354.114.141-.087.296-.07.354z"/><path fill="#E40520" d="M12.022 4.332c-.029.064-.075.029-.094-.024-.02-.053-.009-.108.055-.079-.063-.029-.028-.073.025-.093.053-.02.109-.009.08.055.03-.063.073-.028.093.025.02.052.009.107-.055.078.064.029.028.074-.024.093-.053.02-.109.009-.08-.055z"/><path fill="#F49800" d="M11.222 4.779c-.038.059-.077.018-.09-.036-.011-.055.007-.109.066-.072-.059-.038-.018-.076.036-.088.055-.012.109.006.072.065.038-.059.076-.018.089.037.012.054-.006.108-.065.07.059.038.017.077-.037.089-.055.012-.109-.006-.071-.065z"/><path fill="#E40520" d="M11.098 4.97c-.058.04-.078-.013-.068-.068.011-.055.048-.098.088-.04-.04-.059.013-.077.068-.067.055.011.099.048.04.088.059-.04.078.013.067.068s-.047.097-.088.039c.041.059-.014.078-.069.068-.054-.011-.096-.049-.038-.088zm1.304.007c-.05.05-.079.001-.079-.054 0-.056.029-.104.079-.055-.05-.049-.002-.079.055-.079.056 0 .105.03.055.079.05-.049.079-.001.079.055s-.029.104-.079.054c.05.05 0 .08-.055.08-.057 0-.105-.03-.055-.08z"/><path fill="#F49800" d="M12.66 4.957c-.104.066-.166.002-.166-.072 0-.075.062-.14.166-.073-.104-.066-.003-.104.113-.104.117 0 .219.038.115.104.104-.066.165-.001.165.073s-.061.138-.165.072c.104.066.002.105-.115.105-.116 0-.217-.039-.113-.105z"/><path fill="#00A083" d="M13.701 4.8c.113-.196.266-.088.333-.139-.054.173-.295.093-.333.139zm-.529-.012c.14-.177.274-.047.35-.089-.08.163-.306.05-.35.089zm0 0c.215-.07.256.113.34.12-.156.092-.281-.128-.34-.12zm.366.656c-.208-.178-.044-.335-.091-.427.194.103.044.371.091.427zm-.717-.795c.14-.178.275-.048.351-.089-.079.163-.305.048-.351.089zm-.15-.22c.14-.177.276-.048.351-.088-.079.162-.305.048-.351.088zm.011.13c.094-.205.256-.111.32-.168-.039.177-.286.118-.32.168z"/><path fill="#FFED00" d="M11.364 4.958c-.119.036-.16-.042-.14-.114.021-.072.097-.118.18-.025-.083-.092.026-.102.138-.07.112.031.201.096.082.131.119-.035.159.043.138.115s-.096.117-.178.025c.082.091-.027.102-.14.07-.111-.031-.199-.096-.08-.132z"/><path fill="#FFD139" d="M11.843 4.649c-.119.036-.16-.043-.139-.115.02-.071.097-.117.179-.025-.082-.092.026-.102.138-.07.113.032.201.096.082.132.119-.036.159.043.138.115-.021.071-.095.117-.178.025.083.092-.027.102-.139.07-.112-.031-.199-.096-.081-.132z"/><path fill="#E40520" d="M11.556 4.684c-.056.036-.119-.005-.105-.074.014-.069.089-.081.126-.026-.037-.055.004-.119.073-.105.07.014.082.089.027.125.055-.036.119.005.105.073-.014.07-.089.081-.126.027.037.054-.005.119-.074.104-.069-.013-.082-.088-.026-.124zm.689-.155c-.047.046-.119.019-.119-.051 0-.071.072-.098.119-.051-.047-.047-.02-.118.051-.118.07 0 .098.071.051.118.047-.047.118-.02.118.051 0 .07-.071.098-.118.051.047.046.02.117-.051.117s-.098-.07-.051-.117z"/><path fill="#D32E3F" d="M13.641 4.885c-.011.054-.05.036-.075 0-.025-.035-.027-.08.026-.07v-.074l.07.026.075.001-.026.069c.054.01.036.05 0 .075l-.07-.027z"/><path fill="#FFED00" d="M13.379 5.354l-.039-.063c.018-.039.055-.064.074-.013l.064-.038.012.073.038.064-.073.013-.064.037c-.039-.017-.064-.053-.012-.073z"/><path fill="#F49800" d="M13.395 5.526l-.055-.049c.005-.043.033-.078.066-.035l.05-.055.034.066.056.05-.066.034-.05.055-.035-.066z"/><path fill="#E40520" d="M12.152 4.918c-.049.049-.079 0-.079-.055 0-.057.03-.105.079-.055-.049-.05-.001-.079.055-.079s.105.029.055.079c.05-.05.079-.002.079.055 0 .055-.029.104-.079.055.05.049.001.079-.055.079s-.104-.03-.055-.079z"/><path fill="#FFED00" d="M11.799 4.992c-.108.059-.165-.01-.16-.084.005-.074.071-.135.17-.062-.1-.073.004-.104.121-.096.117.008.216.053.107.112.109-.059.165.011.16.085-.005.074-.07.134-.169.061.1.073-.006.105-.122.097-.117-.009-.215-.055-.107-.113z"/><path fill="#00A083" d="M9.686 4.099c.155.126.037.244.072.31-.143-.072-.037-.27-.072-.31z"/><path fill="#F49800" d="M9.313 3.926c.002.044.035.12.078.139-.033.018-.07.085-.068.135l.12-.08.032.145.055-.143.128-.066-.115-.025c.005-.03.002-.12-.035-.152l-.057.134-.138-.087z"/><path d="M7.104 11.753c.075.08.4-.052.69-.173.491-.207 1.122-.322 1.704-.285.143-.067.277-.181.188-.228l-.258-.016c-.249-.024-.594.026-.943.096-.33.089-1.105.353-1.33.517l-.051.089zm7.747 0c-.075.08-.399-.052-.689-.173-.491-.207-1.122-.322-1.705-.285-.143-.067-.277-.181-.188-.228l.257-.016c.249-.024.594.026.943.096.331.089 1.106.353 1.331.517l.051.089z" fill="#FFED00"/><path d="M9.943 11.215l-.164.111-.281-.031c.143-.067.277-.181.188-.228.18.013.344.042.257.148m2.069 0l.165.111.281-.031c-.143-.067-.277-.181-.188-.228-.181.013-.345.042-.258.148" fill="#E40520"/><path d="M7.277 6.292c.043-.104.2-.02.364-.095l-.044-.02.203-.05-.056-.017.183-.077-.077-.003c.071-.016.179-.097.209-.15l-.045.002c.062-.017.101-.108.102-.149l-.162.074.033-.045c-.313-.04-.671.286-.722.467l.012.063zm.007.016c.022-.16-.11-.389-.108-.501l-.021.047c-.008-.09-.063-.172-.106-.214l-.003.053-.1-.1-.006.13-.08-.02c.089.211.329.545.424.605zm3.844 5.554c-1.177-.514-2.371-.632-3.295-2.042-.449-.688-.549-1.704-.534-2.586.008-.468.01-.717-.015-.926-.023-.194-.093-.357-.15-.419l-.013.09-.124-.205-.007.08c-.06-.095-.106-.149-.158-.182l.028.097-.196-.146.021.114c-.05-.073-.13-.162-.288-.157l.14.147-.064-.01c.097.197.217.162.314.271.098.109.209.224.382.257.053.01.072.044.083.182.01.137.02.573.002.857-.06.942.066 1.862.49 2.556.853 1.4 2.294 1.748 3.314 2.166l.07-.144zm-3.858-5.679c.042-.192-.028-.461-.115-.579-.068-.087-.078-.161-.073-.248l.05.057-.002-.207.047.055c-.015-.067-.018-.134.012-.207l.045.073c-.03-.097.015-.16.017-.217l.028.062.003-.172.038.054.008-.158.053.147.017-.043c.023.07.033.179.012.223l.036-.036c.013.062.009.188-.012.25l.053-.063c.016.112-.008.26-.057.32l.05-.009-.081.18.036-.02-.099.304c-.01.124.004.185-.06.321l-.006-.087zm-.013.067l.115-.463.026.06.055-.156.025.066c.032-.077.088-.155.161-.22l.009.045.108-.078-.003.08c.041-.056.138-.112.216-.13l-.015.041.15-.059c-.028.059-.075.132-.125.156l.064-.014c-.012.057-.049.125-.104.169l.063-.018-.122.125.064-.002c-.048.076-.129.151-.232.186l.05.002c-.041.048-.114.083-.186.104l.062.01c-.101.115-.269.06-.327.106l-.033.11m.726.371c.065-.03.232-.074.317-.069l-.029.039c.046-.02.186.017.277-.036-.003.033-.057.104-.128.136l.059.015c-.064.071-.145.102-.233.125l.052.01c-.06.055-.1.072-.167.082l.058.013c-.053.034-.15.06-.236.061l.062.012c-.092.057-.337.059-.46-.019.063-.06.38-.337.428-.369zm-.747.648l.109-.342c.003-.074.011-.176.068-.227l-.003.073c.087-.112.208-.199.337-.252l-.018.058.129-.072-.01.05c.058-.05.142-.109.247-.12l-.031.04.182-.02c-.056.069-.136.156-.219.202l.073-.022c-.03.061-.11.123-.16.143l.06-.015c-.027.057-.075.127-.151.148l.077-.021c-.028.048-.135.083-.193.077l.075.021-.385.085c-.075.074-.152.052-.152.221m-.665-.844c-.045-.065-.083-.193-.083-.261l.057.037c-.034-.076-.117-.146-.101-.256.055.022.14.076.178.146v-.056l.109.127.002-.055c.053.038.101.092.139.201l.003-.081c.053.042.118.115.15.19l.018-.049c.195.224.167.468.167.688-.114-.09-.611-.601-.639-.631zm.66.727c0-.157-.077-.204-.097-.339-.021-.134-.081-.259-.178-.329v.077c-.027-.073-.086-.116-.142-.136l.01.066c-.022-.064-.087-.133-.133-.158l.005.062c-.021-.053-.108-.126-.15-.146l.002.082c-.013-.061-.129-.125-.177-.138l.027.067c-.037-.05-.15-.078-.227-.065.053.023.127.103.155.173l-.049-.021c.022.059.05.126.138.204l-.066.001c.082.157.22.286.372.329l-.063.015c.138.082.349.002.455.141.033.043.075.048.083.242m-.799.44c-.064-.046-.142-.153-.165-.219l.065.017c-.057-.06-.159-.098-.181-.207.058.003.157.025.216.078l-.019-.053.146.083-.015-.053c.062.019.125.054.198.143l-.024-.078c.063.023.149.07.204.13l-.003-.087c.077.043.207.17.239.264l-.01-.085c.11.118.155.222.195.531-.2-.214-.741-.49-.846-.464zm.867.463c-.052-.147-.142-.166-.205-.286-.065-.12-.163-.217-.279-.249l.026.07c-.049-.059-.12-.081-.18-.08l.032.059c-.042-.052-.127-.094-.178-.104l.025.057c-.036-.043-.144-.084-.191-.088l.03.077c-.031-.053-.164-.075-.213-.07l.049.054c-.052-.034-.168-.022-.236.016.057.003.154.053.203.109l-.053-.003c.042.048.09.102.198.146l-.061.023c.131.12.304.196.461.185l-.052.037c.156.029.329-.115.476-.021.044.029.086.02.159.2m.408-.756c.047-.042.185-.122.279-.144l-.005.054c.043-.032.146-.085.268-.079l-.033.064c.06-.037.19-.042.313-.01-.03.036-.167.097-.21.104l.077.002c-.082.084-.197.144-.257.163h.083l-.165.112.075.005c-.108.093-.237.126-.292.126l.07.017c-.056.034-.138.052-.253.062s-.317.064-.328.142c.033-.221.28-.615.378-.618zm-.42.675c.025-.144.04-.25.021-.398-.021-.149.007-.362.072-.436l.032.069c.03-.097.093-.169.165-.224l.005.052c.042-.077.125-.144.18-.179l-.005.057c.078-.121.222-.099.259-.147.006.125-.097.29-.162.364l.06-.025c-.022.13-.115.229-.152.259l.068-.02c-.05.095-.125.207-.203.257l.078-.018-.335.26c-.023.052-.055.114-.041.227m.882.525l.24-.233.005.071.118-.134.007.067.11-.092c.002.069-.007.231-.081.321l.049-.022c0 .077-.048.172-.105.216l.057-.027c-.035.114-.157.192-.234.227l.082-.005c-.038.047-.15.117-.224.132-.076.015-.434.227-.386.383-.147-.176.292-.889.362-.904zm-.374 1.007c-.13-.195-.043-.441-.161-.636l.073.05c-.027-.117-.034-.303-.022-.361l.053.075c-.007-.12.024-.219.045-.279l.044.067.031-.19.035.06c.004-.074.042-.176.096-.239l.008.07c.018-.102.114-.189.167-.229l-.005.067c.021-.034.081-.109.157-.131l-.049.169.053-.033c-.003.052-.018.177-.075.269l.052-.034c.003.117-.005.241-.065.358l.06-.038c-.005.082-.077.23-.107.267l.037-.015-.118.155.055-.025c-.014.072-.077.124-.154.172-.078.046-.248.247-.165.376m-.56-.585c-.058-.195-.2-.367-.3-.434v.119c-.029-.092-.145-.239-.209-.29l.002.098-.138-.169.01.107c-.037-.087-.157-.144-.222-.179l.03.077c-.058-.065-.152-.115-.218-.127l.043.085c-.053-.047-.178-.073-.252-.065l.14.145-.055-.007.12.12-.078-.017c.037.06.135.127.22.14l-.078.01c.027.042.14.112.215.114l-.1.007c.051.086.615.577.87.266zm.4.331c-.135-.344-.335-.357-.385-.501l-.017.097c-.05-.072-.25-.142-.375-.152l.075.052c-.085-.042-.293-.08-.432-.007l.082.038c-.082-.003-.21.029-.255.092l.07.029c-.078.018-.185.075-.23.13l.062.035c-.1.044-.172.114-.199.266.103-.007.262-.04.357-.147l-.007.082c.074-.005.224-.047.282-.114v.097c.065-.027.205-.073.275-.152l-.05.087c.065-.008.19-.069.215-.12l-.053.107c.075-.015.223-.032.272-.072l-.07.072c.075.008.228-.042.35.165m.125.122c-.097-.164-.247-.211-.37-.192l.032.067c-.067-.021-.212-.024-.277-.014l.083.058c-.055-.033-.172-.058-.237-.016l.09.062c-.058-.035-.21-.04-.26.005l.077.035c-.172-.057-.364.157-.455.14.05.055.183.06.298-.01l-.038.062.18-.01-.083.057c.055.021.183.022.265.01l-.065.041.245-.025-.078.052c.075.022.22.008.292-.02l-.021.042c.131.01.203-.057.24-.124.038-.068.083-.135.127-.065m2.547 1.085c.002-.096.037-.258.057-.313l.033.053.044-.18c.045.083.062.183.048.227l.033-.054-.01.199.042-.06-.01.212.04-.06-.033.197.047-.062c-.023.124-.05.207-.077.246l-.058.125c-.203-.083-.201-.444-.156-.53zm-.201-.509c-.02.044-.035.194-.029.238l-.06-.089c-.015.05.005.195.021.234l-.086-.049.053.136-.065-.024.07.167-.055-.012c.023.067.159.248.235.306.075.058.193.16.252.075.06-.085.071-.207.071-.271l-.043.059c.018-.059.025-.159.002-.224l-.06.072c.015-.043.01-.155-.02-.215l-.02.08-.045-.137-.007.077-.043-.144-.005.06-.053-.169-.038.074c.008-.068-.016-.19-.075-.244zm-1.262-.121l.007-.137.025.052-.001-.118.08.118v-.049l.064.113.005-.063.05.094-.23-.01zm-.391.031l-.067-.225.087.06-.038-.199.062.052c-.025-.055-.053-.165-.03-.239l.112.197-.005-.073c.033.027.075.092.087.167l.025-.07.085.172.018-.065.084.192c-.138.001-.318.009-.42.031zm-.76.169l-.022-.023h.061l-.128-.121c.047.002.153.031.188.067l-.026-.073.219.075-.292.075zm3.803.867c.035-.12-.11-.379-.214-.494.179.015.344.319.369.468.135-.169.065-.478-.08-.822.174.099.304.399.28.708m2.239-1.783c.46-1.176.76-2.71-.22-4.464.48 1.454.62 3.208.08 4.464m.06-.12c.49-.957 1.21-2.042 1.859-2.511-1.019.518-1.639 1.435-1.859 2.511zm-.06.12c.46-.777.26-2.591 1.6-3.847-1.18 1.555-.96 3.368-1.6 3.847zm.11-.06c.52-1.863.23-3.188-.829-3.647 1.179.897 1 2.81.689 3.698m-.195.522c.295-1.086 1.064-1.869 2.034-1.908-.91.328-1.679 1.354-1.989 2.028m.141-.135c.58-1.384.239-2.81-.84-3.377.726.777 1.308 1.631.64 3.488m-.701 1.125c1.04-1.136.78-2.91.12-3.787.84.777 1.14 2.631.08 3.827m-.189.039c.54-.508 1.089-1.704.22-2.541.419.728.25 1.714-.46 2.412m.45.129c.629-.429 1.06-2.262 2.519-2.571-1.529.867-1.56 2.222-2.29 2.611m-.289-.069c.39-.758.629-2.342 2.259-2.272-1.62.14-1.77 2.073-2.119 2.302m-1.11-.1c.339-.269.9-.906.929-1.315.01.399-.299 1.037-.64 1.306.27-.219.62-.688.729-1.046-.04.329-.239.758-.539 1.056m.63-.52c.54-.727 1.17-1.216 2.159-1.216-.739.22-1.609.508-1.998 1.266m-.071-.01c.36-.29.96-.678 1.43-.757-.7.07-1.1.239-1.679.787m.504-.104c.2-.174.385-.259.635-.344-.101.129-.315.344-.46.483m.09-.125c.235-.229.549-.363.884-.349-.179.075-.535.225-.735.419" fill="#086"/><path d="M10.898 11.933c-.645.294-2.432.199-2.534.555l-.083-.042c-.194-.102-.038-.195.048-.224.85-.305 1.499-.12 2.569-.389v.1zm.16 0c.645.294 2.431.199 2.534.555l.082-.042c.194-.102.038-.195-.047-.224-.85-.305-1.5-.12-2.569-.389v.1zm-1.243-1.07l-.033-.106c-.004-.075-.078-.123-.205-.16-.954-.279-1.844.25-2.433.239-.59-.01-.888-.117-.814-.224-.034.046-.025.091.019.177l.022.053c.035.114.348.221.882.164.924-.1 1.289-.389 2.009-.3.161.021.481.028.553.157zm-3.484-.251c-.058.084.113.167.474.205v-.162s-.005-.147-.193-.147c-.068 0-.202.025-.26.08l-.021.024zm4.332 1.062c-.7-.538-2.004-.459-2.869-.095-.29.122-.615.253-.69.173l.075.08.04.044c.065.07.294.012.57-.089.665-.245 1.974-.543 2.884-.045l-.01-.068zm.315 1.355c.992 0 2.023-.229 2.695-.583.194-.102.038-.195-.047-.224.097.034.17.07.17.119l-.014.135c-.017.082-.057.13-.173.189-.473.239-1.458.583-2.631.583-1.175 0-2.16-.343-2.632-.583-.117-.06-.157-.108-.174-.189l-.014-.135c0-.049.072-.085.17-.119-.086.029-.242.122-.048.224.673.354 1.705.583 2.698.583zm1.162-2.166l.032-.106c.005-.075.077-.123.205-.16.955-.279 1.844.25 2.434.239.59-.01.888-.117.814-.224.033.046.024.091-.019.177l-.023.053c-.036.114-.348.221-.882.164-.925-.1-1.29-.389-2.009-.3-.16.021-.48.028-.552.157zm3.485-.251c.058.084-.113.167-.474.205v-.162s.005-.147.193-.147c.067 0 .202.025.26.08l.021.024zm-4.332 1.062c.699-.538 2.004-.459 2.869-.095.29.122.614.253.689.173l-.075.08-.04.044c-.065.07-.294.012-.57-.089-.665-.245-1.975-.543-2.884-.045l.011-.068z" fill="#FFED00"/><path d="M10.898 11.933c-.645.294-2.432.199-2.534.555l.224.1c.403-.331 1.715-.212 2.31-.555v-.1zm.16 0c.645.294 2.431.199 2.534.555l-.225.1c-.402-.331-1.714-.212-2.309-.555v-.1zm-4.639-.924c.03.112.282.191.567.191.978 0 1.492-.374 2.197-.328.42.026.656.043.696.108l-.064-.118c-.072-.129-.393-.136-.552-.156-.72-.089-1.085.2-2.009.3-.535.057-.847-.05-.882-.164l.047.167zm4.253.734c-.91-.498-2.219-.199-2.884.045-.276.101-.505.159-.57.089l.129.135c.065.07.183.054.361-.015.561-.214 1.934-.613 2.984-.154l-.02-.1zm.306 1.505c1.174 0 2.158-.343 2.631-.583.116-.06.156-.108.173-.189l-.063.238c-.02.114-.066.143-.212.21-.47.219-1.599.519-2.528.519-.93 0-2.059-.299-2.529-.519-.146-.068-.193-.097-.212-.21l-.064-.238c.017.082.057.13.174.189.47.24 1.455.583 2.63.583zm4.557-2.239c-.03.112-.282.191-.567.191-.977 0-1.492-.374-2.196-.328-.421.026-.656.043-.697.108l.065-.118c.072-.129.392-.136.552-.156.719-.089 1.084.2 2.009.3.534.057.846-.05.882-.164l-.048.167zm-4.253.734c.91-.498 2.219-.199 2.884.045.275.101.505.159.57.089l-.129.135c-.064.07-.183.054-.361-.015-.56-.214-1.934-.613-2.984-.154l.02-.1z" fill="#0072BB"/><path d="M10.898 12.033c-.595.343-1.907.225-2.31.555l.238.091c.645-.249 1.577-.168 2.072-.498v-.148zm.16 0c.595.343 1.907.225 2.309.555l-.238.091c-.644-.249-1.577-.168-2.071-.498v-.148zm-4.639-1.024c.03.112.282.191.567.191.978 0 1.492-.374 2.197-.328.42.026.656.043.696.108l.063.096c.04.055.033.1 0 .139.13-.159-.307-.144-.515-.164-.508-.05-1.414.214-1.954.304-.471.078-.83.05-.96-.109-.046-.059-.071-.148-.094-.237zm4.273.835c-1.05-.459-2.423-.06-2.984.154-.178.068-.296.084-.361.015l.062.07c.055.07.104.137.335.065.729-.225 2.029-.562 2.979-.154l-.031-.15zm.286 1.793c.799 0 1.843-.189 2.479-.483.164-.076.238-.105.245-.27l.017-.17c-.02.114-.066.143-.212.21-.47.219-1.599.519-2.528.519-.93 0-2.059-.299-2.529-.519-.146-.068-.193-.097-.212-.21l.017.17c.007.165.081.193.245.27.633.294 1.677.483 2.478.483zm4.557-2.628c-.03.112-.282.191-.567.191-.977 0-1.492-.374-2.196-.328-.421.026-.656.043-.697.108l-.063.096c-.039.055-.032.1 0 .139-.13-.159.307-.144.515-.164.508-.05 1.414.214 1.955.304.47.078.829.05.959-.109.046-.059.071-.148.094-.237zm-4.273.835c1.05-.459 2.424-.06 2.984.154.179.068.297.084.361.015l-.061.07c-.055.07-.104.137-.335.065-.729-.225-2.029-.562-2.979-.154l.03-.15z" fill="#E40520"/><path fill="#086" d="M13.094 10.059c-.149.266-.432.459-.942.459-.969 0-.919-.023-1.171.229-.252-.252-.198-.229-1.168-.229-.51 0-.794-.194-.942-.459h4.223z"/><path fill="#0072BB" d="M10.981 7.449c.995 0 1.716.194 2.261.463v1.48c0 .229-.037.468-.147.667h-4.224c-.111-.199-.147-.437-.147-.667v-1.48c.545-.269 1.262-.463 2.257-.463z"/><path fill="#FFED00" d="M10.981 7.449c.995 0 1.716.194 2.261.463v-2.013c0-.337-.033-.601.19-.822h-2.451v2.372z"/><path fill="#E40520" d="M10.981 5.077h-2.447c.222.222.19.485.19.822v2.013c.545-.269 1.263-.463 2.257-.463v-2.372z"/><path fill="#fff" d="M11.25 8.238l.203.016.074-.004c-.04.07-.196.071-.249.191-.03.067-.147.049-.169.179l.072-.06-.067.138c-.109.005-.22-.013-.311-.053-.082-.037-.174-.032-.263-.008-.265-.086-.544-.027-.687.052-.215.12-.614.069-.905.364.06.01.26-.055.34-.104-.145.069-.239.149-.265.214.095-.015.255-.065.32-.114l-.315.234c.075 0 .165-.036.21-.06l-.161.124c.135.01.335-.084.504-.169l-.112.09c.18-.017.359-.16.43-.281.061-.107.202-.281.475-.284-.078.027-.178.136-.188.242l-.105.274c0 .119-.028.223-.12.271l-.068.1c.002.089-.04.256-.065.327l-.032.126.01.053-.025.039.01.099c.039.032.115.073.097-.036l-.019-.153.054-.174.04-.157.057-.076.121-.125c.125-.047.274-.118.389-.225.025-.02.104.006.129.051l.03.167-.007.134c-.025.033-.041.075.018.11.057.034.267.22.298.271l.086.087.048.059.095.05c.068 0 .07-.02.018-.067l-.095-.074-.07-.067-.075-.073-.092-.104c-.05-.04-.112-.115-.115-.165-.003-.065.135-.073.16-.28l.108.023c.152.018.192.008.268-.012-.002.042.01.07.084.104s.245.126.275.197l.113.157c.047.042.149.198.16.25l.057.074.052.083c0 .04.043.058.108.058l.015-.065-.106-.112-.054-.09c-.067-.079-.157-.22-.172-.281l-.233-.389.127-.033.243.021s.17.011.208.05l.142.077.153.107.112.125.067.055c.011.041.06.058.12.036.06-.023.062-.072-.037-.098l-.07-.059c-.023-.01-.168-.102-.221-.177-.052-.075-.125-.13-.215-.162-.089-.033-.228-.109-.275-.186l.008-.048-.001-.262c.06.072.207-.012.208-.132-.082.064-.117-.002-.062-.072.049-.062.044-.192.031-.249l-.108-.225c-.06-.174-.132-.1-.19-.231-.069-.159-.228-.143-.288-.136l-.052-.051-.033.006.003.036-.068-.039.025.058c-.245-.108-.3.08-.24.137l.067-.087-.027.137-.11.05-.073.025-.055.055v.067c-.01.032.062.054.12.031l-.049.059.067.018.09-.049z"/><path d="M10.375 8.702l.165-.066m1.432.163c-.12-.065-.13-.145-.07-.201.06-.058.117-.073.083-.186m-.358-.243c.02-.033.09-.033.128-.005m-1.226 1.125c.067-.062.132-.074.216-.004.045.038.113.08.209.104m.572-1.139l.101-.081-.136.316c-.029.083-.075.152-.219.189l-.159.024m.878.133c-.025-.03-.066-.102-.004-.177m-.23.7c.098-.043.197-.121.227-.212m-.724-1.161l.03-.022c.033-.037.132-.107.192-.107m.108.07c-.098-.045-.09-.104-.087-.146m.079.01l.018.073m-.26.148l.1.015-.033.009m-.051-.034h.039m-.253.213l.061-.01-.042.049-.061.009m.001-.115l.02-.054m-.433.834c-.081.087.022.237-.183.387m1.124.076l.116-.167" fill="none"/><g fill="#fff"><path d="M11.355 5.44l1.429 1.939-.039.028-1.429-1.939zM11.354 5.442l-.029-.114-.129-.061.019.14.101.063z"/></g><path fill="#E40520" d="M12.105 7.365l-.123.041c.025-.066.114-.661.133-.932.007.287-.003.613-.01.891z"/><path fill="#0072BB" d="M12.116 6.474c.006.287-.003.613-.01.891l.152.031c-.039-.108-.122-.72-.142-.922z"/><g fill="#fff"><path d="M12.916 5.468l-1.429 1.939-.039-.028 1.429-1.939zM12.876 5.442l.03-.114.129-.061-.019.14-.101.063z"/></g><g fill="#fff"><path d="M12.091 5.411h.048v2.038h-.048zM12.091 5.411l-.043-.109.068-.125.068.125-.045.109z"/></g><path fill="#F4F4F4" d="M11.761 7.434c.355-.663.46-1.335.545-1.674-.01-.065.022-.244.092-.298-.047-.06.018-.133.06-.122.054.012.05.097-.005.129.005.092-.005.219-.082.293-.105.549-.27 1.288-.61 1.672z"/><path fill="#FFED00" d="M12.27 5.924c-.055-.072-.044-.166.065-.182.226-.032.2-.16.11-.202-.114-.054-.135-.113-.062-.14-.007.06.034.067.108.102.11.053.165.177.027.254-.138.078-.232.073-.248.168z"/><path fill="#F4F4F4" d="M11.856 5.735c-.055-.06-.093-.21-.062-.259-.031-.021-.049-.092.003-.104l.05.092c.05.029.084.181.062.259.141.558.336 1.458.446 1.836-.145-.205-.359-1.226-.499-1.824z"/><path fill="#FFED00" d="M11.723 5.766c-.054-.06-.093-.21-.062-.259.05.03.084.181.062.259zm.111-.282l-.006-.027-.153.036.006.027.153-.036zm.061.254l-.006-.027-.153.036.007.027.152-.036zm.721.934c.144-.034.261-.132.261-.29v-.941l-.261.351v.88z"/><path fill="#E40520" d="M12.335 6.173l-.219.298c.047.091.128.152.219.185v-.483z"/><path fill="#0072BB" d="M12.335 6.173l.281-.38v.879c-.09.021-.19.017-.281-.016v-.483z"/><path fill="#FFED00" d="M12.856 6.716c-.06.289-.71.199-.74-.07v-.174c.167.327.761.266.761-.089l-.021.333z"/><path fill="#0072BB" d="M12.116 6.746v-.1c.03.269.68.359.74.07l-.053.229c-.074.205-.687.155-.687-.199z"/><path fill="#E40520" d="M12.803 6.945c-.074.205-.687.155-.687-.199v.096c.05.194.195.358.385.363.116.003.23-.06.302-.26z"/><path fill="#FFED00" d="M11.615 6.672c-.145-.034-.261-.132-.261-.29v-.941l.261.351v.88z"/><path fill="#E40520" d="M11.896 6.173l.22.298c-.047.091-.128.152-.22.185v-.483z"/><path fill="#0072BB" d="M11.896 6.173l-.281-.38v.879c.09.021.19.017.281-.016v-.483z"/><path fill="#FFED00" d="M11.375 6.716c.06.289.71.199.741-.07v-.174c-.168.327-.761.266-.761-.089l.02.333z"/><path fill="#0072BB" d="M12.116 6.746v-.1c-.031.269-.681.359-.741.07l.053.229c.074.205.688.155.688-.199z"/><path fill="#E40520" d="M11.428 6.945c.074.206.688.155.688-.199v.096c-.051.193-.196.358-.386.363-.115.003-.23-.06-.302-.26z"/><path fill="#FFED00" d="M12.116 6.472c-.045-.142-.108-.441-.022-.62.075-.157.064-.317-.002-.438 0 .207-.059.332-.085.516-.031.214.008.39.109.542z"/><path fill="#0072BB" d="M12.116 6.472c-.048-.167-.108-.441-.022-.62.075-.157.064-.317-.002-.438.078.106.111.337.044.483-.073.159.017.428-.02.575z"/><path fill="#E40520" d="M12.116 6.472c.038-.146-.053-.416.02-.575.066-.146.034-.377-.044-.483.162.096.145.392.08.525-.064.129.051.351-.056.533z"/><path fill="#FFED00" d="M11.959 7.24l.09.005c.038-.181.069-.757.067-.771-.053.269-.121.65-.157.766z"/><path fill="#E40520" d="M11.959 7.24c.036-.116.104-.497.157-.766-.065.264-.157.637-.232.787l.075-.021zm.157-.766c.024.167.165.716.188.777l-.13-.016-.058-.761z"/><path fill="#0072BB" d="M12.116 6.474c.002.065-.042.673-.067.771l.124-.01-.057-.761z"/><path fill="#086" d="M12.089 6.295l-.067.062-.059.053-.041.087-.018.097.04.085.076.071c.021.025.114.031.107 0l.059-.064.008-.092.003-.087-.008-.087-.023-.07-.027-.045-.05-.01z"/><g fill="none"><path d="M9.839 5.579v1.854M10.367 6.676c-.354-.147-.308.066-.067.672m.184-.817c-.413-.135-.503.193-.219.831m.276-.971c-.477-.042-.602.281-.309.985m.325-1.145c-.463.061-.649.378-.357 1.159m.339-1.29c-.424.139-.66.493-.372 1.304m-.153-1.8c-.119.253-.2 1.43-.116 1.825m.271-1.787c-.23.281-.326 1.392-.212 1.785m.347-1.711c-.263.239-.472 1.128-.288 1.708m.39-1.613c-.379.281-.54.89-.332 1.61m.43-1.476c-.445.232-.64.69-.37 1.473m-.285-1.84l.052-.053m-.048-.001l.054-.049m-.05-.001l.051-.052m-.053.002l.052-.052m-.055.005l.048-.056m-.064-.046l.002.068m-.009.235l-.052-.053m.047-.001l-.052-.049m.048-.001l-.05-.052m.053.002l-.051-.052m.055.005l-.049-.056m.248.279l.065-.033m-.045-.017l.067-.029m-.046-.017l.066-.033m-.052-.014l.066-.033m-.054-.013l.064-.038m-.046-.063l-.02.065m-.085.218l-.031-.066m.045.015l-.035-.064m.047.015l-.032-.066m.05.019l-.031-.066m.05.023l-.027-.069m.138.304l.07-.021m-.041-.023l.071-.017m-.043-.025l.07-.021m-.047-.023l.071-.021m-.052-.022l.07-.026m-.034-.071l-.031.061m-.122.199l-.019-.071m.042.023l-.023-.069m.044.023l-.02-.07m.045.028l-.019-.071m.046.032l-.015-.073m.072.336l.073-.007m-.034-.032l.072-.004m-.038-.032l.073-.007m-.042-.032l.072-.008m-.046-.032l.074-.012m-.019-.075l-.043.054m-.157.174l-.006-.073m.037.029l-.009-.073m.038.032l-.006-.073m.04.036l-.005-.073m.038.039v-.074m-.012.339l.074-.004m-.033-.033h.072m-.036-.034l.074-.003m-.042-.034l.073-.003m-.043-.034l.074-.009m-.016-.076l-.045.051m-.167.165l-.002-.073m.036.031l-.005-.072m.036.032l-.001-.073m.036.038l-.001-.073m.037.042l.003-.075m-.015.368l.072.017m-.024-.041l.07.02m-.024-.043l.07.017m-.029-.043l.071.017m-.033-.045l.073.011m.006-.078l-.057.037m-.205.114l.018-.071m.026.04l.015-.071m.025.041l.018-.07m.025.047l.019-.072m.024.05l.024-.071m-.148.356l.068.026m-.017-.044l.067.03m-.019-.045l.068.026m-.023-.047l.068.026m-.026-.049l.071.022m.017-.076l-.062.029m-.22.084l.028-.068m.02.042l.024-.067m.02.044l.029-.067m.018.049l.028-.067m.017.052l.033-.067m-.203.303l.059.044m-.005-.046l.056.046m-.006-.049l.059.044m-.01-.052l.059.044m-.012-.054l.063.041m.037-.07l-.068.011m-.235.021l.046-.057m.008.046l.042-.059m.006.048l.046-.057m.004.053l.045-.058m.003.057l.05-.055m-.267.266l.048.056m.006-.047l.044.057m.005-.049l.047.056m.003-.053l.048.056m0-.055l.053.053m.05-.059l-.068-.005m-.234-.03l.057-.046m-.002.046l.054-.048m-.004.049l.057-.046m-.008.053l.057-.046m-.01.054l.061-.042m-.317.188l.036.063m.015-.044l.032.065m.015-.047l.035.063m.013-.05l.037.063m.01-.054l.041.062m.062-.047l-.066-.018m-.223-.075l.064-.035m-.012.046l.062-.037m-.013.047l.065-.034m-.017.05l.065-.035m-.022.053l.069-.031m-.393.138l.028.067m.02-.042l.024.068m.02-.044l.027.067m.02-.049l.027.067m.018-.052l.033.067m.067-.039l-.063-.026m-.213-.103l.069-.025m-.018.043l.067-.029m-.019.046l.069-.026m-.023.047l.068-.025m-.027.048l.072-.021m-1.323-.053c.354-.147.308.066.068.672m-.185-.817c.412-.135.502.193.218.831m-.275-.971c.478-.042.602.281.309.985m-.324-1.145c.462.061.648.378.356 1.159m-.339-1.29c.424.139.661.493.372 1.304m.153-1.8c.119.253.2 1.43.116 1.825m-.271-1.787c.229.281.326 1.392.211 1.785m-.345-1.711c.262.239.472 1.128.288 1.708m-.391-1.613c.379.281.54.89.331 1.61m-.428-1.476c.444.232.64.69.369 1.473m.108-1.818l-.065-.033m.044-.017l-.067-.029m.047-.017l-.066-.033m.052-.014l-.065-.033m.054-.013l-.065-.038m.046-.063l.021.065m.084.218l.032-.066m-.046.015l.035-.064m-.047.015l.032-.066m-.05.019l.031-.066m-.05.023l.028-.069m-.138.304l-.071-.02m.04-.024l-.07-.017m.042-.025l-.07-.021m.048-.023l-.07-.021m.051-.022l-.07-.026m.033-.071l.031.061m.123.199l.02-.071m-.042.023l.022-.069m-.043.023l.019-.07m-.045.028l.02-.071m-.047.032l.014-.073m-.071.336l-.073-.008m.035-.031l-.072-.004m.037-.032l-.074-.008m.043-.031l-.073-.008m.046-.032l-.073-.012m.02-.075l.042.053m.157.175l.006-.074m-.037.03l.009-.073m-.038.032l.006-.074m-.039.037l.006-.073m-.04.039l.001-.074m.011.339l-.074-.004m.034-.033h-.072m.035-.034l-.073-.003m.04-.034l-.073-.004m.045-.033l-.075-.01m.016-.075l.045.051m.166.165l.003-.073m-.036.031l.006-.072m-.037.032l.002-.072m-.037.037l.002-.073m-.037.042l-.004-.075m.015.368l-.071.017m.022-.041l-.069.019m.025-.042l-.072.017m.03-.043l-.071.017m.033-.045l-.074.011m-.006-.078l.058.037m.206.114l-.018-.071m-.027.04l-.014-.071m-.026.041l-.018-.07m-.026.047l-.018-.072m-.024.05l-.023-.07m.148.355l-.07.026m.018-.044l-.066.03m.018-.045l-.068.026m.024-.047l-.069.026m.027-.049l-.072.023m-.016-.077l.062.029m.219.084l-.028-.068m-.02.042l-.024-.067m-.02.044l-.028-.067m-.018.049l-.029-.067m-.017.052l-.033-.067m.203.303l-.059.044m.005-.046l-.056.046m.006-.049l-.059.044m.01-.052l-.059.044m.012-.054l-.062.041m-.038-.07l.068.011m.235.021l-.045-.057m-.008.046l-.043-.059m-.006.048l-.046-.056m-.004.052l-.046-.057m-.001.056l-.05-.055m.266.266l-.048.056m-.006-.047l-.043.057m-.006-.049l-.048.057m-.002-.054l-.047.056m0-.055l-.053.053m-.051-.059l.068-.005m.234-.03l-.057-.047m.003.047l-.055-.048m.005.049l-.057-.046m.007.053l-.057-.046m.01.054l-.061-.043m.317.189l-.036.063m-.015-.044l-.032.065m-.015-.047l-.036.064m-.012-.051l-.036.063m-.01-.054l-.041.062m-.062-.047l.066-.018m.223-.075l-.065-.035m.012.046l-.063-.037m.014.047l-.065-.034m.018.05l-.065-.034m.02.052l-.068-.031m.393.138l-.028.067m-.02-.042l-.023.068m-.021-.044l-.028.068m-.019-.05l-.027.068m-.018-.053l-.032.067m-.068-.039l.064-.027m.211-.102l-.068-.025m.017.043l-.066-.029m.019.046l-.069-.026m.024.047l-.069-.026m.028.049l-.072-.021"/></g><path d="M9.839 5.324c-.041 0-.041.283 0 .283s.042-.283 0-.283zm.259.033c-.039-.014-.13.254-.092.268.04.013.132-.255.092-.268zm.197.055c-.037-.021-.175.227-.138.247.036.021.174-.226.138-.247zm.175.102c-.031-.026-.213.191-.181.217.031.027.214-.189.181-.217zm.111.106c-.03-.029-.224.178-.193.207.03.028.224-.18.193-.207zm.155.183c-.021-.035-.263.112-.242.147s.264-.111.242-.147zm.054.193c-.016-.038-.276.073-.261.111.016.038.278-.072.261-.111zm.027.203c-.006-.041-.287-.005-.281.036.005.041.286.006.281-.036zm-.016.219c.003-.042-.279-.068-.283-.026-.003.041.279.068.283.026zm-.061.191c.012-.039-.26-.12-.272-.08-.012.04.261.12.272.08zm-.135.174c.018-.038-.243-.152-.259-.114-.016.037.243.151.259.114zm-1.025-1.426c.04-.014.131.254.091.268-.038.013-.13-.255-.091-.268zm-.197.055c.037-.02.175.227.138.247-.036.021-.174-.226-.138-.247zm-.175.102c.032-.026.213.191.181.217-.032.027-.214-.189-.181-.217zm-.111.106c.03-.029.224.178.193.207-.03.028-.224-.18-.193-.207zm-.155.183c.021-.035.264.112.243.147s-.265-.111-.243-.147zm-.054.193c.017-.038.277.073.261.111-.016.038-.277-.072-.261-.111zm-.027.203c.005-.041.286-.005.281.036s-.287.006-.281-.036zm.016.219c-.003-.041.279-.067.283-.026.004.041-.279.068-.283.026zm.061.191c-.012-.039.26-.12.272-.08.012.04-.26.12-.272.08zm.135.174c-.017-.038.243-.153.26-.115.016.038-.243.152-.26.115z" fill="#FFE000"/><path fill="#FFED00" d="M9.839 6.903c-.116 0-.235-.01-.291-.046l.007-.18c.027.027.227.033.284.033s.257-.007.282-.034l.007.18c-.054.037-.173.047-.289.047z"/><path d="M6.612 10.508c.087 0 .118.045.118.084 0 .045-.045.055-.202.055v.124m8.816-.263c-.088 0-.118.045-.118.084 0 .045.044.055.202.055v.124" fill="none"/><path d="M11.059 12.006c.33.135.616.277.823.465.184.166.49.239.8.069-.085.011-.194-.011-.285-.085l-.425-.129c-.278-.193-.561-.341-.844-.464l-.069.144zm-.152 0c-.331.135-.616.277-.825.465-.183.166-.489.239-.799.069.084.011.195-.011.285-.085l.425-.129c.277-.193.56-.341.844-.464l.07.144zm-1.144.086l-.102.229.072-.015-.065.107c.05 0 .16-.062.195-.1l-.021.053c.075-.013.172-.083.203-.12l-.021.087c.06-.025.165-.097.192-.145l-.033.075c.078-.008.113-.037.186-.15l-.003.083c.086-.058.141-.16.136-.285l-.155-.042c-.211.097-.499.141-.584.223zm.656-.201c-.04.055-.12.136-.217.191l.02-.095c-.025.05-.12.13-.174.16l.01-.084c-.041.059-.175.135-.25.16l.017-.101c-.082.072-.172.095-.255.108l.033-.053-.183.048.043-.053c-.053.035-.195.055-.24.048l.04-.058c-.072.039-.262.055-.344-.065.114 0 .232-.03.274-.047l-.081-.033c.17-.017.241-.128.319-.209.275-.017.722-.005.988.083zm-.735-.578c-.493-.062-1.036-.004-1.51.133l-.182-.029.124-.118-.084.002.107-.084c.369-.08.767-.16 1.08-.172.239.051.3.215.465.268zm1.774.6c.274.101 1.169-.015 1.474.22-.13-.16-.299-.264-.514-.329-.241-.001-.666-.006-.96.109zm.974-.105c.145.05.41.194.914.119-.254-.059-.654-.124-.914-.119z" fill="#086"/><path d="M12.223 12.629c.141.025.299-.002.459-.089-.085.011-.196-.009-.285-.085-.066-.056-.275-.099-.307.023-.029.107.057.139.133.151zm-2.48 0c-.141.025-.3-.002-.46-.089.084.011.196-.009.285-.085.066-.056.275-.099.308.023.028.107-.058.139-.133.151zm.875-.985c.06.05.165.613.05.653.255-.115.354-.538-.05-.653zm.597.286c.038-.1.09-.251.161-.318-.195-.013-.321.179-.361.264-.04.085-.169.322-.242.349.159.013.365-.092.442-.295z" fill="#FFED00"/><path fill="#0072BB" d="M10.899 12.212c.123.037.358.042.469-.165.091-.172.15-.463.239-.558-.25.072-.278.152-.387.428-.09.228-.245.269-.321.295zm-.126-.493c.102-.042.249.038.287.077-.075.13-.195.386-.287.429.095-.105.21-.327 0-.506z"/><path d="M7.191 6.259c-.106 0-.106.159 0 .159.107 0 .109-.159 0-.159zm.115.02c-.107 0-.107.159 0 .159s.109-.159 0-.159zm.041.996c-.107 0-.107.159 0 .159s.108-.159 0-.159zm-.14-.044c-.107 0-.107.159 0 .159.106 0 .107-.159 0-.159zm.187 1.065c-.106 0-.106.159 0 .159s.108-.159 0-.159zm-.04.06c-.107 0-.107.159 0 .159s.109-.159 0-.159zm-.081.015c-.106 0-.106.159 0 .159.107 0 .109-.159 0-.159zm.671 1.435c-.107 0-.107.159 0 .159.106 0 .108-.159 0-.159zm-.085.095c-.107 0-.107.158 0 .158.106 0 .108-.158 0-.158zm1.554 1.22c-.107 0-.107.159 0 .159s.108-.159 0-.159zm-.13-.005c-.106 0-.106.159 0 .159.107 0 .109-.159 0-.159z" fill="#E40520"/></svg>