<svg xmlns="http://www.w3.org/2000/svg" width="64" height="48" viewBox="-31.5 24.5 64 48" enable-background="new -31.5 24.5 64 48"><desc/><path fill="#262D62" d="M-31.5 24.5h64v48h-64v-48z"/><desc/><path fill="#fff" d="M8.835 41.557l15.34-.057-.028 13.66s.541 2.076-6.433 5.236c2.504-.256 5.236-2.933 5.236-2.933s1.108-1.422 1.649-.626c.541.797 1.053 1.195 1.451 1.51.398.312.713 1.166.114 1.793-.599.625-1.537.711-1.793-.058-.397.199-2.847 3.158-7.854 3.301-5.095-.086-7.883-3.329-7.883-3.329s-.684 1.081-1.65.229c-.938-1.11-.229-1.822-.229-1.822s.797-.455 1.023-.768c.371-.428.484-.996 1.111-.996.738.057 1.023.654 1.023.654s2.562 2.703 5.32 3.045c-6.231-2.988-6.459-4.838-6.432-5.293l.035-13.546z"/><desc/><path fill="#07622D" d="M9.205 41.927l14.628-.085v13.148c.028 1.708-2.847 3.443-7.342 5.662-4.64-2.391-7.314-3.842-7.343-5.69l.057-13.035z"/><desc/><path d="M10.963 56.414l.865-1.268.867 1.27" fill="none"/><desc/><path fill="#F7C603" d="M12.002 55.939c0 .096-.077.172-.172.172-.094 0-.172-.076-.172-.172 0-.095.076-.172.172-.172s.172.079.172.172z"/><desc/><path fill="#F7C603" d="M11.127 57.351l1.338.004s.021-.173-.141-.279c.701-.097.52-.715 1.106-.75.114.018-.308.263-.308.263s-.354.251-.193.378c.129.103.186-.061.203-.184.018-.124.568-.201.49-.552-.131-.29-.902.193-.902.193l-.549-.004c-.036-.061-.188-.309-.343-.311-.185.008-.315.314-.315.314h-1.245s-.041.319.589.381c.143.186.252.236.375.285-.083.067-.107.149-.105.262z"/><desc/><path d="M11.223 57.079l1.115-.004" fill="none"/><desc/><path d="M10.712 56.422s.089.521.501.645" fill="none"/><desc/><linearGradient id="a" gradientUnits="userSpaceOnUse" x1="399.492" y1="-280.269" x2="398.685" y2="-279.66" gradientTransform="matrix(1 0 0 -1 -389 -224.5)"><stop offset="0" stop-color="#E52620"/><stop offset="1" stop-color="#F3E600"/></linearGradient><path fill="url(#a)" d="M10.644 56.414l.199-.487c.014-.247-.199-.22-.138-.378.111-.172.056-.337-.15-.467.041.227-.268.439-.268.625 0 .184.156.143.137.425l-.055.282h.275z"/><desc/><path fill="#F7C603" d="M11.987 55.178c0 .088-.07.158-.157.158-.088 0-.158-.07-.158-.158 0-.086.07-.157.158-.157.087 0 .157.071.157.157z"/><desc/><path d="M10.916 53.804l.863-1.269.867 1.271" fill="none"/><desc/><path fill="#F7C603" d="M11.953 53.33c0 .095-.077.172-.173.172-.095 0-.173-.077-.173-.172 0-.096.078-.172.173-.172.096 0 .173.076.173.172z"/><desc/><path fill="#F7C603" d="M11.078 54.74l1.339.003s.021-.173-.14-.279c.699-.095.519-.714 1.105-.749.115.018-.307.264-.307.264s-.354.249-.192.377c.128.1.184-.062.202-.185.018-.122.568-.202.49-.552-.133-.29-.903.191-.903.191l-.55-.002c-.034-.062-.187-.31-.343-.311-.185.006-.315.312-.315.312h-1.244s-.043.32.588.381c.142.185.251.237.375.285-.081.071-.105.154-.105.265z"/><desc/><path d="M11.176 54.469l1.114-.004" fill="none"/><desc/><path d="M10.664 53.811s.09.521.501.646" fill="none"/><desc/><linearGradient id="b" gradientUnits="userSpaceOnUse" x1="399.445" y1="-277.664" x2="398.635" y2="-277.053" gradientTransform="matrix(1 0 0 -1 -389 -224.5)"><stop offset="0" stop-color="#E52620"/><stop offset="1" stop-color="#F3E600"/></linearGradient><path fill="url(#b)" d="M10.596 53.805l.198-.486c.015-.247-.198-.221-.138-.378.11-.171.055-.336-.15-.466.041.226-.268.438-.268.625 0 .186.158.145.137.425l-.055.282h.275v-.002z"/><desc/><path fill="#F7C603" d="M11.939 52.568c.001.086-.07.158-.158.158-.086 0-.158-.072-.158-.158 0-.088.072-.158.158-.158.088 0 .158.07.158.158z"/><desc/><path d="M20.088 51.432l.863-1.269.867 1.271" fill="none"/><desc/><path fill="#F7C603" d="M21.125 50.957c0 .094-.075.172-.171.172-.095 0-.173-.076-.173-.172 0-.094.077-.172.173-.172.095 0 .171.078.171.172z"/><desc/><path fill="#F7C603" d="M20.251 52.367l1.339.004s.02-.174-.141-.279c.7-.096.52-.715 1.105-.75.114.018-.307.265-.307.265s-.355.25-.194.377c.128.101.185-.062.202-.185.018-.122.569-.201.491-.553-.131-.289-.901.193-.901.193l-.551-.003c-.035-.062-.186-.309-.342-.312-.186.007-.316.314-.316.314h-1.243s-.041.318.589.381c.143.185.252.237.375.285-.084.07-.107.152-.106.263z"/><desc/><path d="M20.347 52.096l1.114-.004" fill="none"/><desc/><path d="M19.837 51.439s.089.52.499.645" fill="none"/><desc/><linearGradient id="c" gradientUnits="userSpaceOnUse" x1="408.56" y1="-275.245" x2="407.752" y2="-274.635" gradientTransform="matrix(1 0 0 -1 -389 -224.5)"><stop offset="0" stop-color="#E52620"/><stop offset="1" stop-color="#F3E600"/></linearGradient><path fill="url(#c)" d="M19.768 51.432l.199-.487c.014-.248-.199-.22-.137-.378.109-.172.053-.337-.152-.467.042.227-.268.439-.268.625 0 .185.158.145.138.425l-.054.282h.274z"/><desc/><path fill="#F7C603" d="M21.111 50.195c0 .088-.07.158-.157.158-.088 0-.158-.07-.158-.158 0-.086.07-.158.158-.158.087 0 .157.072.157.158z"/><desc/><path d="M11.129 48.895l.864-1.268.867 1.27" fill="none"/><desc/><path fill="#F7C603" d="M12.166 48.42c0 .095-.077.172-.172.172-.094 0-.172-.077-.172-.172 0-.094.076-.172.172-.172s.172.076.172.172z"/><desc/><path fill="#F7C603" d="M11.293 49.83l1.337.003s.021-.173-.14-.279c.701-.095.52-.714 1.105-.749.115.018-.307.262-.307.262s-.355.251-.193.378c.128.101.185-.062.202-.184s.569-.201.491-.552c-.131-.29-.902.191-.902.191l-.55-.002c-.035-.062-.187-.31-.343-.311-.186.006-.316.312-.316.312h-1.244s-.042.32.59.382c.142.185.252.237.375.286-.084.07-.107.152-.105.263z"/><desc/><path d="M11.389 49.559l1.114-.004" fill="none"/><desc/><path d="M10.877 48.9s.09.521.501.646" fill="none"/><desc/><linearGradient id="d" gradientUnits="userSpaceOnUse" x1="399.664" y1="-272.757" x2="398.856" y2="-272.148" gradientTransform="matrix(1 0 0 -1 -389 -224.5)"><stop offset="0" stop-color="#E52620"/><stop offset="1" stop-color="#F3E600"/></linearGradient><path fill="url(#d)" d="M10.809 48.895l.198-.486c.014-.247-.198-.219-.138-.378.111-.171.056-.336-.15-.467.041.227-.268.438-.268.624s.156.144.137.426l-.055.281h.276z"/><desc/><path fill="#F7C603" d="M12.152 47.658c0 .086-.071.156-.158.156-.088 0-.158-.07-.158-.156 0-.088.07-.158.158-.158s.158.07.158.158z"/><desc/><path d="M11.148 46.4l.863-1.269.868 1.271" fill="none"/><desc/><path fill="#F7C603" d="M12.186 45.926c0 .095-.076.172-.172.172s-.172-.076-.172-.172.077-.171.172-.171c.093 0 .172.077.172.171z"/><desc/><path fill="#F7C603" d="M11.311 47.336l1.338.004s.021-.174-.14-.279c.701-.096.519-.715 1.106-.75.113.018-.307.264-.307.264s-.355.25-.194.377c.128.102.185-.062.202-.184s.57-.201.491-.553c-.131-.289-.902.193-.902.193l-.552-.003c-.033-.062-.185-.31-.342-.311-.186.007-.316.313-.316.313h-1.244s-.042.319.588.381c.143.186.254.238.377.285-.082.07-.105.153-.105.263z"/><desc/><path d="M11.406 47.064l1.115-.004" fill="none"/><desc/><path d="M10.896 46.408s.089.521.5.645" fill="none"/><desc/><linearGradient id="e" gradientUnits="userSpaceOnUse" x1="399.685" y1="-270.265" x2="398.878" y2="-269.656" gradientTransform="matrix(1 0 0 -1 -389 -224.5)"><stop offset="0" stop-color="#E52620"/><stop offset="1" stop-color="#F3E600"/></linearGradient><path fill="url(#e)" d="M10.828 46.4l.199-.486c.014-.247-.199-.221-.138-.378.11-.171.054-.336-.151-.467.042.226-.268.438-.268.624s.157.143.137.426l-.054.281h.275z"/><desc/><path fill="#F7C603" d="M12.172 45.165c0 .087-.07.157-.158.157s-.158-.07-.158-.157.07-.159.158-.159.158.07.158.159z"/><desc/><path d="M11.196 43.869l.863-1.268.866 1.271" fill="none"/><desc/><path fill="#F7C603" d="M12.232 43.396c.002.095-.076.173-.17.173-.096 0-.173-.077-.173-.173s.077-.171.173-.171.17.076.17.171z"/><desc/><path fill="#F7C603" d="M11.358 44.807l1.339.004s.02-.174-.141-.279c.701-.096.52-.715 1.105-.75.115.018-.307.264-.307.264s-.354.25-.193.377c.129.101.185-.062.202-.184s.569-.201.491-.553c-.133-.289-.904.193-.904.193l-.55-.003c-.034-.062-.187-.31-.342-.311-.185.006-.315.313-.315.313h-1.245s-.042.319.589.381c.143.186.252.238.377.285-.083.067-.106.151-.106.263z"/><desc/><path d="M11.455 44.535l1.115-.004" fill="none"/><desc/><path d="M10.945 43.877s.088.521.5.646" fill="none"/><desc/><linearGradient id="f" gradientUnits="userSpaceOnUse" x1="399.735" y1="-267.736" x2="398.928" y2="-267.127" gradientTransform="matrix(1 0 0 -1 -389 -224.5)"><stop offset="0" stop-color="#E52620"/><stop offset="1" stop-color="#F3E600"/></linearGradient><path fill="url(#f)" d="M10.875 43.871l.199-.487c.014-.247-.199-.22-.137-.377.109-.171.054-.337-.151-.467.042.226-.269.438-.269.624 0 .185.159.145.138.425l-.056.282h.276z"/><desc/><path fill="#F7C603" d="M12.219 42.635c0 .086-.07.156-.156.156-.088 0-.159-.07-.159-.156 0-.088.071-.159.159-.159.085 0 .156.071.156.159z"/><desc/><path d="M20.158 43.911l.862-1.269.867 1.271" fill="none"/><desc/><path fill="#F7C603" d="M21.194 43.438c0 .094-.077.17-.173.17-.094 0-.172-.076-.172-.17 0-.095.076-.173.172-.173s.173.078.173.173z"/><desc/><path fill="#F7C603" d="M20.32 44.848l1.338.004s.021-.174-.139-.279c.7-.098.518-.715 1.105-.75.114.018-.307.263-.307.263s-.354.251-.193.378c.129.1.184-.062.201-.184.018-.123.57-.202.491-.553-.132-.289-.903.192-.903.192l-.55-.003c-.034-.062-.185-.309-.343-.311-.186.006-.316.313-.316.313h-1.244s-.042.319.588.382c.143.185.252.237.377.285-.083.069-.105.151-.105.263z"/><desc/><path d="M20.416 44.576l1.114-.004" fill="none"/><desc/><path d="M19.904 43.919s.09.521.501.646" fill="none"/><desc/><linearGradient id="g" gradientUnits="userSpaceOnUse" x1="408.637" y1="-267.731" x2="407.828" y2="-267.122" gradientTransform="matrix(1 0 0 -1 -389 -224.5)"><stop offset="0" stop-color="#E52620"/><stop offset="1" stop-color="#F3E600"/></linearGradient><path fill="url(#g)" d="M19.837 43.911l.198-.487c.014-.246-.198-.219-.137-.377.109-.172.055-.336-.15-.467.041.227-.269.439-.269.624s.159.144.138.425l-.057.282h.277z"/><desc/><path fill="#F7C603" d="M21.18 42.676c0 .087-.07.157-.158.157-.086 0-.158-.07-.158-.157s.072-.157.158-.157c.087 0 .158.069.158.157z"/><desc/><path d="M20.074 46.395l.864-1.268.867 1.27" fill="none"/><desc/><path fill="#F7C603" d="M21.111 45.92c0 .095-.076.172-.172.172s-.172-.077-.172-.172c0-.094.076-.172.172-.172s.172.078.172.172z"/><desc/><path fill="#F7C603" d="M20.238 47.332l1.337.004s.021-.174-.14-.279c.701-.098.52-.715 1.105-.75.115.018-.307.263-.307.263s-.354.251-.193.378c.128.101.185-.062.202-.184.018-.123.569-.201.491-.553-.131-.289-.902.192-.902.192l-.55-.003c-.035-.061-.187-.309-.343-.311-.185.007-.315.313-.315.313h-1.243s-.043.319.589.382c.143.185.252.237.375.285-.084.068-.108.152-.106.263z"/><desc/><path d="M20.334 47.059l1.114-.004" fill="none"/><desc/><path d="M19.822 46.402s.09.521.501.646" fill="none"/><desc/><linearGradient id="h" gradientUnits="userSpaceOnUse" x1="408.553" y1="-270.214" x2="407.743" y2="-269.603" gradientTransform="matrix(1 0 0 -1 -389 -224.5)"><stop offset="0" stop-color="#E52620"/><stop offset="1" stop-color="#F3E600"/></linearGradient><path fill="url(#h)" d="M19.754 46.396l.198-.487c.015-.247-.198-.22-.138-.378.111-.172.057-.336-.15-.467.041.227-.268.439-.268.625 0 .185.158.143.137.425l-.055.282h.276z"/><desc/><path fill="#F7C603" d="M21.098 45.159c0 .087-.07.157-.158.157s-.158-.07-.158-.157.07-.157.158-.157.158.07.158.157z"/><desc/><path d="M19.965 48.934l.863-1.268.868 1.271" fill="none"/><desc/><path fill="#F7C603" d="M21.002 48.459c0 .095-.077.172-.173.172-.095 0-.171-.077-.171-.172 0-.094.076-.17.171-.17.096 0 .173.076.173.17z"/><desc/><path fill="#F7C603" d="M20.127 49.87l1.339.003s.021-.173-.14-.279c.701-.096.519-.714 1.105-.749.113.018-.308.263-.308.263s-.354.249-.192.377c.128.102.185-.062.201-.185.018-.122.57-.201.49-.552-.132-.29-.902.191-.902.191l-.551-.002c-.033-.062-.185-.31-.342-.311-.186.006-.316.312-.316.312h-1.244s-.043.32.588.382c.143.187.252.237.376.286-.081.07-.104.154-.104.264z"/><desc/><path d="M20.225 49.598l1.114-.004" fill="none"/><desc/><path d="M19.713 48.941s.09.521.501.646" fill="none"/><desc/><linearGradient id="i" gradientUnits="userSpaceOnUse" x1="408.441" y1="-272.75" x2="407.632" y2="-272.14" gradientTransform="matrix(1 0 0 -1 -389 -224.5)"><stop offset="0" stop-color="#E52620"/><stop offset="1" stop-color="#F3E600"/></linearGradient><path fill="url(#i)" d="M19.645 48.934l.198-.486c.014-.247-.198-.221-.138-.378.11-.171.055-.336-.15-.467.041.227-.268.439-.268.624 0 .186.158.144.137.426l-.055.281h.276z"/><desc/><path fill="#F7C603" d="M20.988 47.698c0 .087-.072.157-.159.157s-.157-.07-.157-.157.07-.157.157-.157.159.07.159.157z"/><desc/><path d="M20.074 56.439l.863-1.269.867 1.271" fill="none"/><desc/><path fill="#F7C603" d="M21.111 55.966c0 .095-.076.171-.172.171-.094 0-.172-.076-.172-.171s.078-.171.172-.171c.096 0 .172.076.172.171z"/><desc/><path fill="#F7C603" d="M20.236 57.377l1.339.004s.021-.174-.14-.279c.7-.098.52-.715 1.105-.75.113.019-.307.264-.307.264s-.354.249-.193.376c.128.102.186-.062.202-.185s.569-.201.489-.552c-.131-.29-.901.192-.901.192l-.55-.004c-.035-.062-.188-.31-.344-.311-.186.008-.315.312-.315.312h-1.245s-.043.32.589.382c.142.187.252.237.375.284-.08.072-.104.156-.104.267z"/><desc/><path d="M20.333 57.105l1.115-.004" fill="none"/><desc/><path d="M19.822 56.447s.09.521.501.645" fill="none"/><desc/><linearGradient id="j" gradientUnits="userSpaceOnUse" x1="408.535" y1="-280.246" x2="407.894" y2="-279.762" gradientTransform="matrix(1 0 0 -1 -389 -224.5)"><stop offset="0" stop-color="#E52620"/><stop offset="1" stop-color="#F3E600"/></linearGradient><path fill="url(#j)" d="M19.754 56.439l.199-.486c.014-.246-.199-.219-.139-.377.11-.172.057-.336-.149-.467.041.227-.269.438-.269.625 0 .186.158.144.138.425l-.056.28h.276z"/><desc/><path fill="#F7C603" d="M21.098 55.204c0 .087-.07.157-.156.157-.088 0-.158-.07-.158-.157s.07-.157.158-.157c.085 0 .156.07.156.157z"/><desc/><path d="M20.061 53.929l.863-1.269.867 1.272" fill="none"/><desc/><path fill="#F7C603" d="M21.098 53.455c0 .094-.076.17-.171.17-.096 0-.173-.076-.173-.17 0-.096.077-.173.173-.173.093.001.171.077.171.173z"/><desc/><path fill="#F7C603" d="M20.224 54.865l1.337.004s.021-.174-.139-.279c.7-.098.52-.715 1.105-.75.114.018-.307.263-.307.263s-.355.251-.194.378c.128.1.185-.062.202-.186.018-.122.569-.201.491-.551-.131-.291-.902.191-.902.191l-.55-.003c-.035-.063-.186-.312-.342-.312-.187.007-.317.312-.317.312h-1.244s-.043.321.589.381c.141.186.252.238.375.286-.082.072-.105.155-.104.266z"/><desc/><path d="M20.319 54.594l1.114-.004" fill="none"/><desc/><path d="M19.809 53.936s.089.521.5.645" fill="none"/><desc/><linearGradient id="k" gradientUnits="userSpaceOnUse" x1="408.529" y1="-277.742" x2="407.721" y2="-277.132" gradientTransform="matrix(1 0 0 -1 -389 -224.5)"><stop offset="0" stop-color="#E52620"/><stop offset="1" stop-color="#F3E600"/></linearGradient><path fill="url(#k)" d="M19.74 53.93l.199-.486c.014-.247-.199-.221-.138-.377.11-.173.056-.337-.151-.467.042.226-.268.438-.268.625 0 .186.157.145.137.425l-.053.282h.273v-.002z"/><desc/><path fill="#F7C603" d="M21.084 52.693c0 .086-.07.157-.157.157-.088 0-.158-.071-.158-.157 0-.088.07-.158.158-.158.087 0 .157.07.157.158z"/><desc/><path d="M12.766 51.596l.863-1.269.867 1.272" fill="none"/><desc/><path fill="#F7C603" d="M13.803 51.121c0 .094-.076.171-.172.171s-.171-.077-.171-.171c0-.096.077-.172.171-.172s.172.076.172.172z"/><desc/><path fill="#F7C603" d="M12.928 52.531l1.338.004s.021-.174-.139-.279c.701-.098.52-.715 1.105-.75.113.018-.307.264-.307.264s-.355.25-.193.377c.128.101.185-.062.202-.186.018-.121.568-.201.491-.552-.131-.29-.902.192-.902.192l-.551-.001c-.034-.063-.185-.312-.342-.312-.187.007-.317.312-.317.312h-1.243s-.042.321.588.382c.142.185.253.237.376.286-.083.068-.106.152-.106.263z"/><desc/><path d="M13.024 52.26l1.114-.004" fill="none"/><desc/><path d="M12.514 51.602s.09.521.501.646" fill="none"/><desc/><linearGradient id="l" gradientUnits="userSpaceOnUse" x1="401.286" y1="-275.444" x2="400.478" y2="-274.835" gradientTransform="matrix(1 0 0 -1 -389 -224.5)"><stop offset="0" stop-color="#E52620"/><stop offset="1" stop-color="#F3E600"/></linearGradient><path fill="url(#l)" d="M12.445 51.596l.199-.488c.014-.247-.199-.219-.137-.378.11-.173.054-.336-.151-.467.042.227-.269.439-.269.626 0 .185.158.145.138.425l-.054.282h.274z"/><desc/><path fill="#F7C603" d="M13.789 50.359c0 .086-.07.158-.158.158-.087 0-.157-.072-.157-.158 0-.088.07-.158.157-.158.088 0 .158.07.158.158z"/><desc/><path fill="#F7C603" d="M17.387 57.621s.35.806.748.312c.398-.495.252-.708.252-.708l-.893-.486-.262.553.155.329z"/><desc/><path fill="#F9C4B5" d="M18.152 57.515s.06.011.107-.077l-.175-.224-.078.155.146.146z"/><desc/><path fill="#F9C4B5" d="M16.135 57.301l-.787.428s-.389.078-.416 0c-.029-.078.01-.146.213-.154.203-.01.758-.516.758-.516l.232.242z"/><desc/><path fill="#F9C4B5" d="M16.145 43.338l.029.281-.164.291c-.01-.01-.088.01-.078.067l.126.078s-.048.204 0 .214c.05.01-.126.262 0 .33.126.067.34.154.437.136.099-.021 0 .378 0 .378l-.271.583 1.494-.155-.311-.495s-.146-.097-.106-.379l-.021-1.552-1.066-.146-.069.369z"/><desc/><path fill="#F9C4B5" d="M15.871 45.551s-.484.223-.465.825c-.126.583-.193 1.163-.193 1.163s-.574.651-.748.884c-.175.233-.438.708-.535.835-.096.125-.475.543-.465.697.01.155-.087.845.291.923.098.038.407-.797.407-.797s.021-.36-.089-.427c-.106-.067.233-.301.233-.301s.649-.475.796-.591c.146-.116.543-.562.543-.562l.225-2.649z"/><desc/><path fill="#fff" d="M16.427 45.094s.126.34.407.281c.282-.059.611-.32.611-.32s.262-.01.301.029.709.688.689.892-.311.146-.418.282c-.106.136-.281.476-.232.729.049.252.193.582.175.708l-.126.233c0 .067.088.185.088.311 0 .125-.116.311-.098.437.021.127.027.495.027.495l-.027 1.708s.098.058.107.155c.01.096.66 2.92.66 2.92s-.029.088-.098.078l.271.562s.34 1.115.33 1.252c-.011.137-.059.438-.088.446-.028.009.213.62.176.717-.039.099-.438.089-.438.089l-.106-.021s.011.126-.067.136l-.65-.029s-.166.252-.262.242l-.254-.155.06.241c-.028.05-.524.155-.622-.076-.097-.234.06-.175.029-.225-.029-.047-.252-.174-.32-.135s.174.098.164.193c-.01.097-.213.241-.29.241-.078 0-.263-.358-.535-.319-.271.037-.446.105-.446.105s-.321.137-.455.107c-.137-.029-.194-.137-.194-.194s.097-.311.087-.388l-.087-.271.223-.515-.011-1.786s-.203 0-.212-.125c-.011-.127.31-2.824.358-3 .049-.174.175-.796.175-.796s-.146.067-.154 0c-.011-.067.437-1.61.437-1.61s.078-.767.078-.971c0-.203-.039-.485-.039-.485s-.398-.169-.408-.428c-.036-.41.379-.64.428-.776l.194-.543s.211-.363.562-.421z"/><desc/><path fill="#F7C603" d="M16.28 57.418s-.94.494-1.077.533c-.136.039-.224-.164-.088-.202.137-.039.35-.06.35-.06s-.32-.252-.311-.262l.447-.164c.01 0 .135.251.224.233.087-.021.339-.214.339-.214l.116.136z"/><desc/><path fill="#F9C4B5" d="M17.606 57.689c.089.115.124.314.327.197.204-.115-.104-.332-.104-.332l-.223.135z"/><desc/><path fill="#F9C4B5" d="M17.979 57.67s.098.078.184-.011c.089-.087-.173-.271-.173-.271l-.127.146.116.136z"/><desc/><path d="M17.688 45.473s-.865.553-.845.747" fill="none"/><desc/><path d="M17.881 45.569l-.203.214" fill="none"/><desc/><path d="M18.145 45.803s-.428.348-.36.572" fill="none"/><desc/><path d="M16.125 45.425s-.127.262-.099.349c.028.086.243.418.272.621.028.204 0 .35 0 .35" fill="none"/><desc/><path d="M15.902 45.909s.039.311.098.368c.058.059.213.321.232.427" fill="none"/><desc/><path d="M15.824 47.2s.251.126.485-.36" fill="none"/><desc/><path d="M16.688 46.502c-.01 0-.184.476.127.65s.543.154.679.107l.282-.137" fill="none"/><desc/><path d="M16.553 47.083s.02.641.961 1.272" fill="none"/><desc/><path d="M16.592 47.686s-.011.562.357.815" fill="none"/><desc/><path d="M16.396 47.025s-.282.834-.505.922" fill="none"/><desc/><path d="M16.31 47.637s-.011.602-.089.815" fill="none"/><desc/><path d="M16.145 48.597s.193.243.408.224l.446-.232s.282.154.622.125" fill="none"/><desc/><path d="M17.134 48.967s0 .494.088.543c.087.049.048.504.048.504" fill="none"/><desc/><path d="M15.951 48.734s-.01.465-.068.63c-.058.166-.174.446-.154.689" fill="none"/><desc/><path d="M15.358 50.324l.212-.164" fill="none"/><desc/><path d="M15.659 50.266s-.418 1.786-.301 2.854" fill="none"/><desc/><path d="M15.756 50.354s-.213 1.34-.115 1.592" fill="none"/><desc/><path d="M15.648 50.314l.816.059" fill="none"/><desc/><path d="M16.581 50.266s.223.116.534.098" fill="none"/><desc/><path d="M16.482 50.916s-.037 2.291-.096 2.794" fill="none"/><desc/><path d="M17.678 51.439s.252 2.01.398 2.192" fill="none"/><desc/><path d="M17.193 51.693s.154 1.775.24 1.93" fill="none"/><desc/><path d="M14.99 54.244s.3-.096.572-.387c.311.416.786.02.786.02s.737.505 1.067-.058c.504.329.757-.049.757-.049s.185.282.321.251" fill="none"/><desc/><path d="M17.688 54.216s.377 1.775.939 2.28" fill="none"/><desc/><path d="M15.736 54.031s.05 1.484.137 2.532" fill="none"/><desc/><path d="M15.669 55.711s-.049.97-.106 1.037" fill="none"/><desc/><path d="M15.097 56.846s.106.416.64.029c.534-.39.543.145.562.202.02.059.107.476.312.126" fill="none"/><desc/><path d="M17.037 56.631s-.088.865.678.234c.766-.63.893-.01.912.184" fill="none"/><desc/><path fill="#9C5316" d="M16.115 43.279s.213.029.33-.039c.115-.068.252-.097.349.039.099.137.165.127.165.127s-.146.359 0 .398c.146.039.214.039.224.086l-.088.204.116.146-.059.242c.029.039.115.193.175.193.058 0 .021.243.194.184.174-.058.164-.213.164-.213s.184-.029.233-.194c.049-.165.165-.204.165-.204s.232-.125-.078-.319c0-1.358-.893-1.213-.893-1.213s-.107-.243-.281-.214l-.311.214c-.127-.021-.155-.106-.166-.097-.01.01-.115.203-.115.252s-.34-.067-.311.185c.031.251.197.244.187.223z"/><desc/><path d="M17.047 42.949s-.068.428.387.389c-.057.232.117.311.117.311" fill="none"/><desc/><path d="M17.891 43.911c.01 0 .204.126-.01.282" fill="none"/><desc/><path d="M17.231 44.25s.097.117.202.086c.107-.028.283.107.283.107l.164.02" fill="none"/><desc/><path d="M16.639 44.619s.33.126.544-.397" fill="none"/><desc/><path d="M16.027 44.066l.193.01" fill="none"/><desc/><path d="M16.057 44.26h.175l-.155.068" fill="none"/><desc/><path d="M16.299 43.716l.155-.009c.021.029-.116.048-.155.009z" fill="none"/><desc/><path fill="#F9C4B5" d="M18.396 46.022c.011 0 .321.96.358 1.202.039.243.165 1.213.117 1.35-.049.136-.543.786-.602.951-.059.163-.407.795-.407.795s-.087.621-.126.65.101.182.088.232c-.02.06-.281.33-.398.301-.116-.028-.301-.163-.311-.29-.011-.125.01-.544.098-.651.087-.105.543-1.182.572-1.25s.416-.912.427-1.059c.01-.146-.12-.481-.258-.605-.306-.898-.186-1.441.442-1.626z"/><desc/><path d="M13.875 50.186l.015.426" fill="none"/><desc/><path d="M13.477 50.154s.272.455.25.698" fill="none"/><desc/><path d="M17.13 51.106s.204-.021.198.319c.13-.424.396-.434.396-.434" fill="none"/><desc/><path fill="#F7C603" d="M16.434 60.823c4.1-.114 6.746-3.073 6.717-3.103-.027-.027.541-.824.996-.712.455.113 1.109 1.451 1.906 1.736.398.626-.113 1.194-.283 1.31-.172.113-.939.428-1.054-.029-.114-.455-.342-.369-.342-.369s-3.644 3.558-7.854 3.416c-4.354.028-7.94-3.416-7.94-3.416l-.312.342s-.342.37-.513.342c-.171-.029-.909-.513-.968-.996-.057-.484.456-.797.456-.797s1.252-.968 1.396-1.48c.283-.283.824.199.824.199s3.301 3.785 6.971 3.557z"/><desc/><path d="M7.156 58.622s.339-.091.463.051c.125.142.977.978.977.978" fill="none"/><desc/><path d="M7.93 59.018l-.339.254s.853.17.661.729" fill="none"/><desc/><path d="M25.748 58.594s-.17-.09-.436.107l-.938.947" fill="none"/><desc/><path d="M24.984 58.994l.367.283s-.768.051-.599.777" fill="none"/><desc/><path fill="#010202" d="M11.494 59.525l-.023.035-.177-.016-.272.137-1.129.657-.031-.021.284-1.317.047-.29-.071-.11.024-.035.607.435-.023.033-.021-.015-.127-.06-.053.026-.021.045-.036.158-.181.823.651-.383.152-.099.053-.051.021-.061-.021-.064-.096-.092.024-.035.419.3m.406 1.959l-.021.037-.715-.392.021-.037.045.025.107.03.066-.025.08-.121.492-.898.061-.138-.021-.069-.08-.069-.045-.024.021-.037.714.392-.021.036-.045-.024-.107-.03-.067.025-.081.12-.49.899-.062.137.021.07.08.07.047.023m2.61-.611l-.185.518-.04-.015c.002-.159-.032-.292-.104-.399-.07-.108-.162-.184-.277-.225-.109-.039-.211-.04-.307-.004-.096.035-.178.104-.246.203-.069.099-.125.207-.166.322-.052.141-.078.271-.082.389-.006.117.021.215.076.291.057.076.135.132.236.168l.111.027.127.008.109-.305.027-.117-.033-.062-.083-.053-.038-.014.016-.041.713.254-.014.041-.123-.019-.067.037-.046.099-.108.305c-.108.009-.218.006-.327-.01l-.326-.08c-.14-.049-.248-.109-.326-.181-.078-.069-.143-.149-.19-.235-.048-.088-.078-.176-.09-.269-.017-.116-.001-.237.043-.36.079-.222.224-.379.433-.478.209-.097.432-.104.666-.021l.191.088.136.104.112.086.062-.002.078-.067.042.017m1.099 1.766l-.008.041-.805-.121.006-.043.053.008.11-.008.054-.047.035-.142.152-1.013.01-.149-.043-.06-.099-.037-.052-.008.006-.043.806.123-.006.041-.052-.009-.111.009-.055.047-.034.143-.153 1.012-.01.15.043.06.102.038.051.008m2.09-.508l-.03.549-1.382.07-.002-.043.052-.002.106-.03.043-.058.007-.145-.054-1.023-.02-.148-.055-.049-.104-.018-.052.002-.002-.043.829-.041.003.041-.068.004-.106.029-.044.059-.006.145.051.992.021.151.058.046.14.002.129-.006c.083-.004.151-.022.204-.055.055-.031.1-.08.136-.146.037-.065.071-.159.101-.283h.045m1.511-.263l-.526.157-.021.164.006.129.078.078.153-.019.013.041-.496.147-.013-.041.111-.104.062-.264.178-1.351.021-.008.904 1.062c.086.102.149.162.191.182l.117.009.013.04-.724.217-.012-.041.029-.01.115-.061.009-.059-.019-.037-.059-.074-.13-.157m-.062-.07l-.375-.448-.075.584.45-.136m1.991-2.028l.2.371-.037.021-.171-.146-.156-.033-.145.056-.104.055.569 1.06.082.125.07.021.104-.029.046-.025.021.038-.718.384-.021-.037.046-.023.084-.073.017-.07-.059-.134-.567-1.061-.1.053c-.092.05-.147.104-.17.167-.028.086-.024.185.015.294l-.037.021-.2-.371 1.231-.664m.934-.554l.382.507.023-.02c.08-.061.117-.127.115-.203s-.033-.167-.097-.271l.034-.025.49.65-.035.026-.178-.14-.149-.028-.153.078.264.351.104.118.062.015.088-.045.074-.056c.116-.088.188-.187.219-.291.029-.106.019-.228-.034-.358l.034-.026.242.438-1.076.811-.024-.034.042-.03.072-.084.003-.072-.076-.123-.617-.818-.083-.1-.07-.023-.114.046-.042.03-.025-.033 1.041-.785.277.367-.035.027c-.085-.077-.159-.123-.221-.137-.062-.017-.129-.011-.201.016l-.205.129-.131.093"/><desc/><path d="M8.98 59.643c5.09 4.129 10.078 4.205 14.961 0" fill="none"/><path fill="#fff" d="M.5 24.52h-3.9l-8.1 5.98v-6h-7.958l-.042 6-8.133-5.98h-3.867v2.913l6.759 5.071h-6.759v7.99h6.759l-6.759 5.07v2.915h3.867l8.133-5.979v6h8v-6l8.1 5.979h3.9v-2.915l-6.792-5.07h6.792v-7.99h-6.792l6.792-5.071z"/><path fill="#DB2F34" d="M-2.015 24.52l-10.68 7.99h2.556l10.639-7.99zM.5 48.479l-10.65-7.985h2.567l8.083 6.08zM-20.798 32.51l-10.702-7.99v1.908l8.123 6.082zM-20.82 40.494l-10.68 7.985h2.556l10.681-7.985zM.5 34.5h-14v-10h-3.958l-.042 10h-14v4h14v10h4v-10h14z"/></svg>