<svg xmlns="http://www.w3.org/2000/svg" width="64" height="48"><path fill="#fff" d="M0 0h64v48h-64z"/><path fill="#FFD700" stroke="#13110C" stroke-width=".142" d="M36.959 18.8c0-1.074-1.375-1.293-.149-2.187-.318-.146-.621-.249-.972-.204-.343.043-.498.224-.608-.142-.198-.661-.048-1.395.555-.551.054-.21.037-.418-.021-.628-.088-.327-.257-.63-.447-.907-.273-.396-.144-.621-.2-1.081-.125-1.016-.912-1.738-1.871-1.993-.984-.262-1.918.313-2.531 1.018-.278.319-.085.34-.475.49-.478.184-.882.553-.959 1.08.465-.384.678-.164 1.082.057.168.092.963.406.951.547-.025.302-1.35 1.965-1.392 1.902.238.367.834.318.194.747-.13.087-1.287.685-1.205.862.091-.028.643-.157.735-.029.048.341-.045.838-.378 1.021 2.562-.002 5.127-.002 7.691-.002z"/><path fill="#FFD700" stroke="#13110C" stroke-width=".142" stroke-linecap="round" stroke-linejoin="round" d="M36.537 29.468c.026.393.007.921-.29 1.218 1.055.066 2.26.981 2.484 2.057.097.459-.448.595-.463.999-.008.214-.102.415-.3.516l-.481.684c-.254.139-.349.45-.653.547-.456.144-.532.782-1.197.811-.123.006-.459.686-.692.777-.386.151-.39-.219-.651.16-.209.302-.546.503-.918.498-.566-.008-.864-.763-1.249-.7-.188.03-.377.031-.541-.083-.115-.086-.205-.195-.268-.326-.23-.438-.16-.157-.547-.331-.378-.17-.409-.69-.735-.792-.251-.077-.453-.261-.548-.508-.295-.059-.478-.282-.485-.578-.007-.316-.571-.406-.56-.916-.283-.167-.496-.534-.395-.863.336-1.09 1.348-1.791 2.439-1.979-.324-.465-.588-1.174.076-1.176l2.213-.005 3.761-.01z"/><g stroke="#13110C" stroke-width=".142" stroke-linejoin="round"><path fill="#FFD700" d="M26.461 19.648c-.306.316-.78.715-1.254.647-.697-.101-.76-.994-.215-1.313.242-.141.527-.166.755-.329.592-.423.792-1.384.638-2.055-.323-1.403-1.851-2.077-3.142-2.138-.889-.042-1.571-.156-2.442-.377-2.182-.552-4.271-1.417-6.449-1.92-1.194-.276-2.396-.515-3.601-.74-1.098-.205-1.162 1.233-.151 1.414-.955.77-.224 1.918.903 1.789-.049.665.404 1.139.975 1.395.134.059.892.194.908.307.061.414.215.831.46 1.172.177.248.411.451.69.576.197.089.411.135.626.147.383.021.263.138.448.442.328.537.912.85 1.516.97.466.093.553.313.966.599.372.26.806.442 1.261.47.156.386.398.751.755.975.377.234.85.289 1.276.172-.034.377.037 1.007.539 1.007-.199.693.261 1.182.954 1.165.31-.007.352-.162.528.105.197.298.504.503.874.478.18-.016.35-.065.51-.148.142.212.338.384.579.473.264.098.561.092.829.013.304-.088.565.788 1.181.356.595-.42-.086-2.472-.211-2.995-.138-.589-.294-1.175-.457-1.757-.034-.138-.319-.763-.249-.901zm-3.544-4.203s1.268.138 1.111 2.101m-5.94-4.133s-2.431 1.668 2.12 2.188m-1.425-.226c-.463.966-.266 1.54.938 1.771-.745.706.236 1.135.869 1.251-.089.26-.095.568.046.81.144.246.414.377.682.441-.082.228-.117.509.055.708.214.249.608.11.78.266.138.125.16.616.331.807.166.187.389.31.63.372.541.138.347.024.593.476.221.407.592.271.878.484.298.221.267.601.754.682.168.024.334.01.497-.04.019.153.086.279.197.381.153.129.377.16.567.125"/><path fill="#F7E800" d="M26.322 24.93s.052-.887-.156-1.061m-1.424.574c.018-.018.418-.817.279-.955m-1.739.451l1.077-1.059m-2.431.017c.018-.018 1.633-1.025 1.633-1.025m-2.207 0c.018-.018.92-.399.955-.73"/><path fill="#FFD700" d="M19.357 20.708s2.188.469 2.571-.034m-4.394-1.008c.086 0 3.282.349 3.578-.052m-5.698-1.39c.052-.018 3.786.694 4.847.156m-6.637-2.085c.086 0 4.968 1.181 5.697.816m-7.555-2.517c.036 0 5.818 1.355 6.548.798m-7.295-2.45c.018 0 5.541 1.807 6.01 1.356"/></g><g stroke="#13110C" stroke-width=".142" stroke-linejoin="round"><path fill="#FFD700" d="M40.326 19.689c.306.316.78.715 1.252.647.696-.099.761-.994.217-1.313-.242-.141-.527-.166-.755-.328-.592-.421-.791-1.384-.636-2.056.322-1.403 1.85-2.077 3.139-2.138.89-.042 1.573-.157 2.442-.377 2.182-.552 4.271-1.417 6.449-1.92 1.193-.276 2.396-.515 3.601-.74 1.096-.205 1.162 1.233.15 1.414.955.77.221 1.918-.905 1.789.049.665-.404 1.139-.975 1.395-.134.059-.892.194-.908.307-.061.414-.215.831-.46 1.172-.177.246-.409.451-.688.576-.197.088-.411.135-.626.145-.384.021-.263.138-.448.442-.329.537-.914.85-1.519.97-.442.089-.488.246-.872.534-.32.24-.688.427-1.084.504-.467.09-.579.73-1.025 1.009-.377.234-.85.288-1.276.172.034.377-.036 1.007-.537 1.007.199.694-.264 1.182-.955 1.165-.31-.007-.352-.162-.527.104-.199.298-.504.503-.874.478-.18-.016-.35-.067-.51-.15-.142.212-.338.384-.579.473-.264.098-.562.09-.829.013-.304-.088-.565.788-1.181.356-.596-.417.086-2.472.209-2.994.139-.589.295-1.175.458-1.758.04-.138.325-.761.254-.899zm3.544-4.205s-1.268.139-1.111 2.102m5.94-4.134s2.431 1.668-2.118 2.188m1.424-.226c.487.961.246 1.544-.938 1.771.745.706-.234 1.135-.868 1.251.09.26.095.568-.047.81-.144.248-.415.377-.684.441.082.228.117.509-.053.708-.214.251-.608.11-.78.266-.138.125-.159.616-.329.806-.166.187-.389.31-.629.372-.541.138-.347.024-.593.476-.223.407-.593.27-.878.482-.298.221-.266.602-.754.684-.168.024-.334.01-.497-.04-.019.153-.085.279-.197.38-.153.128-.378.159-.568.123"/><path fill="#F7E800" d="M40.465 24.969s-.052-.886.156-1.059m1.424.572c-.018-.018-.415-.816-.277-.955m1.737.452l-1.076-1.061"/><path fill="#FFD700" d="M44.861 22.936c-.019-.018-1.633-1.025-1.633-1.025"/><path fill="#F7E800" d="M45.432 21.911c-.018-.018-.92-.399-.955-.728"/><path fill="#FFD700" d="M47.429 20.748s-2.188.47-2.568-.034m4.394-1.009c-.088 0-3.283.347-3.578-.052m5.697-1.389c-.053-.018-3.787.696-4.847.156m6.636-2.083c-.088 0-4.968 1.181-5.697.816m7.556-2.521c-.034 0-5.818 1.356-6.548.8m7.294-2.449c-.019 0-5.539 1.807-6.008 1.355"/></g><path fill="#48BED5" stroke="#13110C" stroke-width=".142" d="M46.964 21.793l-.165 2.327c-.017.242-.362 2.401-.191 2.515-.27-.158-.508-.604-.708-.847l-2.082 6.527c-.112.351.144.744.258 1.079.169.492.183.566.036 1.049l-1.092 3.576c-.207-.263-.721-1.224-1.024-1.301-.34-.086-1.312.527-1.656.666l1.051-3.398c.083-.268.128-.788.368-.961.281-.201 1.05-.549 1.16-.877l2.189-6.535-1.227.153 3.083-3.973zm4.72 2.002l-1.24 1.977c-.135.215-1.451 1.932-1.352 2.13-.153-.292-.16-.756-.227-1.081-2.956 2.741-5.876 5.51-8.776 8.31-.003-.223.118-.885-.129-.916l-1.436-.177c.793-.606 1.578-1.491 2.577-1.655.823-.136 1.291-.782 1.906-1.339l5.241-4.751-1.156-.44 4.592-2.058z"/><path stroke="#13110C" stroke-width=".142" d="M40.093 34.223c.027-.06 2.355-2.048 2.355-2.048" fill="none"/><path fill="#48BED5" stroke="#13110C" stroke-width=".142" d="M50.304 20.308l-.607 2.252c-.064.236-.817 2.284-.67 2.432-.232-.232-.375-.678-.533-.968l-4.411 7.578-.668 1.148c-.189.325.115 1.195.167 1.567.052.375-.691 1.303-.867 1.626l-.967 1.771c-.153-.297-.474-1.339-.758-1.473-.317-.149-1.388.267-1.753.337l1.939-3.52c.218-.396 1.178-.303 1.402-.68l.589-.987 4.584-7.691-1.235-.083 3.788-3.309zm-44.044-.884l3.086.014c-.136.327-.344.605-.256.952l.431 1.705.863 3.417 1.043-3.409.521-1.7c.118-.386-.283-.672-.512-.979h3.212c-1.167 1.263-1.484 3.033-2.045 4.645l-1.103 3.167c-.255.734.034.873.497 1.544h-3.086c.46-.668.751-.81.501-1.542l-1.079-3.156-1.106-3.236c-.225-.654-.467-.904-.967-1.422zm47.34.181h2.931c-.417.58-.475.687-.476 1.368l-.007 3.268-.007 3.072c-.001.768.11.832.658 1.439h-3.1c.451-.576.617-.706.616-1.394l-.006-3.039-.005-3.191c-.001-.821-.028-.879-.604-1.523z"/><path stroke="#13110C" stroke-width=".142" d="M30.488 12.592c.344.438 2.206 1.273.84 1.6m-.219-2.3l.688.657c.182.174.191.439.416.595.176.122.928.164.864-.194-.049-.273-1.015-.399-1.207-.358" fill="none"/><path fill="#1B8135" stroke="#13110C" stroke-width=".142" stroke-linejoin="round" d="M26.312 35.589c.121-.101 1.079-.827 1.039-.894-.158-.261-.481-.389-.77-.428-.492-.065-.812-.414-1.189-.74-.354-.308-1.1-.761-1.268-1.216l-.644-1.747c.696-.223.857-.921.629-1.568-.219-.622-1.035.704-1.119.844-.365.605-.734-.012-.38-.481.164-.219.387-.51.284-.797-.067-.188-.309-.812-.518-.881-.004-.001-.215.926-.251 1.009-.242.549-1.072.465-.666-.096.503-.692.643-1.099.151-1.981-.162.422-.448.705-.713 1.05-.171.221-.435.086-.424-.188.007-.208.163-.299.282-.436.324-.371.843-.607.688-1.22-.11-.438-.477-.812-.812-1.096-.021.371-.028.866-.24 1.184-.398.599-1.113.173-.653-.444.554-.742 1.189-1.217.894-2.236-.317.197-.685.406-.834.762-.09.213-.197.48-.396.617-.379.263-.371-.312-.271-.516.184-.377.666-.652.42-1.101-.34-.622-.766-.817-.808-1.562-.487.565-.425 1.305-.356 2.013.044.446-.431-.114-.417-.389l.077-1.545c.02-.397-1.207-1.041-1.495-1.147.429.629.228.913.014 1.529-.238.684.572 1.514 1.056 1.892-.454-.491-1.048-.779-1.704-.878-.353-.053-.862.025-1.182-.156.216.256.824.972.712 1.336-.082.266.841.619 1.02.697.273.12.777.025 1.074.03.232.004.914.675.776.732-.28.118-.849-.551-1.195-.533-.43.021-.876-.063-1.3-.125.453.427.502.885.839 1.36.265.373 1.232.684 1.664.479.605-.286.252.531-.342.484-.661-.053-.989-.601-1.68-.685-.044.364.143 1.498.641 1.468.598-.037 1.237-.075 1.825.055.701.155.263.532-.242.512-.113-.004-1.487-.182-1.438-.352-.129.447.343 1.232.764 1.351.624.175 1.267-.179 1.841-.032.644.165-.722.479-.812.492-.142.021-1.327.254-1.404.105.635 1.271 1.671.649 2.714.507.744-.101.583.46-.036.474-.251.005-1.369.165-1.521-.037.611.818 1.399 1.28 2.322.502.618-.521 1.76.457 2.185.817 1.13.963 2.124 2.149 3.169 3.206z"/><path stroke="#13110C" stroke-width=".142" stroke-linecap="round" stroke-linejoin="round" d="M17.121 21.517s-.036 1.71.819 2.226m.979-.872s.57.873-.392 1.193m-2.565-.606s-.071.979 1.657.908m2.618-.053s-.285.695-.979.66m1.621.907c0 .09.124 1.035-.785 1.017m-3.561-1.408s1.14.713 1.656.659m-1.407 1.069s.535.57 1.514.428m3.188-.037c0 .071-.177.624-.57.695m-3.241.571s.427.552 1.549.25m3.331-.482s-.178.873-.641.891m1.728.054s-.356 1.051-1.264.89m-2.922.979s.356.32 1.229-.071m-2.209-.997c.072 0 .517.374 1.586-.196" fill="none"/><path fill="#FFD700" stroke="#13110C" stroke-width=".142" d="M39.384 25.527c.353.34.644.613.774 1.084.195.704.781.865 1.22 1.403.449.55 1.046 2.407 1.784 2.591.483.121 1.471-.129 1.721.462.149.353.18.757.175 1.136-.002.153-.21.476-.399.264-.062-.069-.385.407-.444.449-.32.223-.526-.384-.736-.551-.411-.329-.975-.438-1.49-.388.313-.993-1.896-.834-2.403-1.151-.659-.415-.73-1.157-1.255-1.613-.15-.131-.884-.595-.904-.785-.017-.154.425-.628.508-.752l1.449-2.149zm-1.119 2.882l.867.405-.069-.741m.434.225l.797.392-.321-.645m-.518-.797l.783.42-.364-.812m.825 4.24c-.127-.167-.717-1.177-.881-1.177.49 0 1.042.201 1.524.295l-.559-1.203 1.385.364m1.105 1.901s.882.197.854 1.666m-.392-1.889s.951-.056.896 1.428"/><path fill="#FFD700" stroke="#13110C" stroke-width=".142" d="M27.329 25.708c-.587.567-.847 1.274-1.435 1.812-.65.595-.929 1.374-1.438 2.071-.243.333-.52.726-.88.938-.5.294-1.183.033-1.63.539-.779.879.64 2.234 1.448 1.746-.625-.797.273-1.016.815-.496.107-.36.372-.657.674-.872.71-.505 1.447-.162 2.197-.525.46-.224.794-.63 1.007-1.087.297-.636.752-.777 1.322-1.16l-2.08-2.966z"/><path stroke="#13110C" stroke-width=".142" stroke-linecap="round" stroke-linejoin="round" d="M28.482 28.421l-.901.474.069-.639m-.366.037l-.847.391.388-.66m.486-.765l-.733.319.261-.54m-.791 4.052c.08-.161.649-1.124.812-1.124-.456 0-.976.201-1.423.294l.458-1.187-1.232.246m-1.165 1.952s-1.07.195-.651 1.52" fill="none"/><path stroke="#13110C" stroke-width=".142" d="M23.036 31.09s-1.169.031-.765 1.485" fill="none"/><path stroke="#13110C" stroke-width=".142" stroke-linecap="round" stroke-linejoin="round" d="M35.914 30.019c0 .475.251 1.016-.45 1.161 1.413-.105 2.421 1.037 2.77 2.306m-2.814-3.105c.091.419-.051.865-.435 1.089 1.394.303 2.441 1.483 2.784 2.842m-2.827-3.597c0 .437.081.97-.494 1.088 1.368-.366 2.471 2.24 2.872 3.19m-3.06-3.872c.181.356.113.777-.305.914 1.332.137 1.564 3.288 1.668 4.277m-1.799-4.945c.095.4-.028.851-.449 1.001 1.193-.629 1.099 4.052 1.073 4.671m-1.493-5.628c-.117.354-.104.857.332.973-1.177-.327-.998 3.999-.971 4.655m.073-5.946c-.093.462.13.901.551 1.115-1.157-.734-1.671 3.53-1.74 4.164m3.146-4.599s2.249 2.161 2.235 3.758m-5.788-5.499c0 .016-.276 1.161.522 1.19m.044-.769c0 .029-.217.973.421 1.017m.087-.741s-.392.944.565 1.074m-.073.013c-.015 0-1.872 1.728-2.161 3.729m1.813-3.903c-.014 0-2.363 1.467-2.523 3.338m2.002-3.584s-2.612 1.523-2.496 2.901m1.871-3.234s-1.943.362-2.421 2.451" fill="none"/><path stroke="#13110C" stroke-width=".142" d="M26.767 17.698c.905.485 1.946.933 2.983.981 1.203.056 2.496-.455 3.588-.916.127-.054.743.337.873.39.75.303 1.586.549 2.402.47 1.188-.114 2.369-.501 3.479-.925.557 2.78.291 5.718-.969 8.276-.593 1.204-1.393 2.303-2.354 3.238-.636.619-2.778 2.656-3.677 2.221-5.008-2.431-7.957-8.304-6.325-13.735z" fill="none"/><path fill="#fff" stroke="#13110C" stroke-width=".211" d="M26.767 17.698c.905.487 1.946.933 2.983.982 1.203.055 2.495-.454 3.589-.915.128-.053.743.337.872.39.751.303 1.586.549 2.402.47 1.187-.114 2.369-.503 3.479-.926.556 2.78.291 5.718-.969 8.277-.593 1.205-1.393 2.303-2.353 3.239-.635.617-2.777 2.654-3.676 2.219-5.01-2.432-7.959-8.305-6.327-13.737z"/><path fill="#C41630" d="M27.459 22.076v3.213c0 .906.61 1.58 1.068 2.353v-5.424c0-.312-.806-.142-1.068-.142zm2.137 0v6.641c0 .452.754.878 1.068 1.171v-7.419c0-.653-.464-.392-1.068-.392zm2.136 0v8.168c0 .688.461.708 1.067 1.043v-8.6c0-.846-.194-.611-1.067-.611zm7.474 0v3.213c0 .909-.611 1.592-1.067 2.368v-5.438c0-.312.806-.142 1.067-.142zm-2.136 0v6.671c0 .45-.752.865-1.067 1.153v-7.433c0-.651.461-.392 1.067-.392zm-2.135 0v8.154c0 .69-.472.73-1.067 1.085v-8.626c-.001-.847.193-.613 1.067-.613z"/><path fill="#283071" stroke="#13110C" stroke-width=".211" d="M26.767 17.698c1.123.602 2.431 1.129 3.724.932.693-.105 1.369-.315 2.028-.55.126-.046.737-.38.86-.313 2.265 1.234 4.408.813 6.714-.068.059.356.619 4.378.168 4.378h-13.853c-.089 0-.119-1.573-.116-1.754.019-.896.225-1.767.475-2.624z"/><path stroke="#13110C" stroke-width=".142" d="M26.767 17.698c.905.485 1.946.933 2.983.981 1.203.056 2.496-.455 3.588-.916.127-.054.743.337.873.39.75.303 1.586.549 2.402.47 1.188-.114 2.369-.501 3.479-.925.557 2.78.291 5.718-.969 8.276-.593 1.204-1.393 2.303-2.354 3.238-.636.619-2.778 2.656-3.677 2.221-5.008-2.431-7.957-8.304-6.325-13.735z" fill="none"/></svg>