<svg xmlns="http://www.w3.org/2000/svg" width="64" height="48"><path fill="#65B32E" d="M0 24h64v24h-64z"/><path fill="#CA0538" d="M0 0h64v24h-64z"/><path d="M0 0l38.428 20.581v6.867l-38.428 20.552zM36.375 20h27.625v8h-27.625z"/><path fill="#FFE247" d="M38.068 22.868h-.223l-37.845-20.199v2.589l35.141 18.757-35.141 18.756v2.59l37.845-20.2h.223zM37.375 23h26.625v2h-26.625z"/><path fill="#FFE247" stroke="#000" stroke-width=".125" d="M9.009 29.437c3.393-.191 5.212-3.261 5.052-5.909-.159-2.648-2.44-4.759-5.052-4.557-2.479.191-4.105 2.425-3.946 4.658.16 2.234 1.979 3.446 3.946 3.574 1.943.126 3.84-1.148 4.095-3.676.638 2.872-1.755 5.163-4.212 5.08-2.808-.096-5.365-1.725-5.775-4.946-.447-3.51 2.199-6.826 6.031-7.116 4.212-.319 7.335 3.259 7.595 6.956.255 3.639-1.755 8.521-7.733 8.936v-3z"/><path d="M7.739 21.348c-.223-.419-.58-.743-.976-.787.086.428.58.743.976.787zm3.781 3.909c.202-.43.247-.91.045-1.254-.293.326-.248.91-.045 1.254zm-.271-.467c.169-.442.178-.926-.049-1.253-.267.348-.179.926.049 1.253zm.315.571c-.323-.347-.753-.567-1.146-.508.194.393.752.569 1.146.508zm-.225-.435c-.327-.344-.759-.56-1.152-.496.198.39.759.559 1.152.496zm-.391-.541c.136-.455.108-.938-.142-1.246-.24.365-.109.936.142 1.246zm.12.165c-.288-.377-.693-.639-1.091-.618.155.409.693.638 1.091.618zm-.481-.616c.111-.462.057-.941-.21-1.236-.22.377-.058.94.21 1.236zm.045.059c-.306-.362-.723-.604-1.12-.564.175.401.724.604 1.12.564zm-.406-.496c.081-.468-.002-.942-.289-1.221-.194.393.003.944.289 1.221zm-.06-.045c-.316-.354-.742-.582-1.136-.53.186.395.741.582 1.136.53zm-.301-.331c.037-.473-.092-.938-.403-1.188-.156.409.093.939.403 1.188zm-.24-.225c-.339-.332-.778-.533-1.168-.455.211.382.777.533 1.168.455zm-.105-.135c-.001-.475-.167-.929-.497-1.152-.124.419.167.928.497 1.152zm-.467-.437c-.001-.475-.167-.928-.497-1.151-.123.42.168.928.497 1.151zm.062.098c-.36-.309-.812-.479-1.196-.376.237.368.811.479 1.196.376zm-.406-.376c-.36-.309-.812-.479-1.196-.376.237.368.812.479 1.196.376zm.029.038c-.056-.472-.273-.903-.626-1.087-.075.431.272.902.626 1.087zm-.465-.384c-.36-.309-.812-.479-1.196-.376.237.367.812.48 1.196.376zm-.511-.315c-.36-.309-.812-.48-1.196-.377.237.368.811.48 1.196.377zm.498.306c-.089-.466-.335-.881-.701-1.04-.044.436.335.881.701 1.04zm-.286-.195c-.151-.449-.451-.828-.835-.936.015.438.451.828.835.936zm-.402-.252c1.805.983 3.623 3.05 4.265 4.442l-.125.042c-.642-1.392-2.392-3.415-4.14-4.484zm3.367.104c.222-.419.58-.743.976-.787-.086.428-.58.743-.976.787zm-3.78 3.909c-.202-.43-.247-.91-.045-1.254.292.326.247.91.045 1.254zm.27-.467c-.169-.442-.178-.926.05-1.253.266.348.178.926-.05 1.253zm-.315.571c.323-.347.752-.567 1.146-.508-.194.393-.753.569-1.146.508zm.225-.435c.327-.344.759-.56 1.152-.496-.198.39-.759.559-1.152.496zm.391-.541c-.136-.455-.109-.938.142-1.246.24.365.109.936-.142 1.246zm-.12.165c.288-.377.693-.639 1.091-.618-.155.409-.693.638-1.091.618zm.481-.616c-.11-.462-.057-.941.21-1.236.22.377.057.94-.21 1.236zm-.045.059c.305-.362.723-.604 1.12-.564-.175.401-.724.604-1.12.564zm.406-.496c-.081-.468.003-.942.289-1.221.195.393-.003.944-.289 1.221zm.06-.045c.317-.354.742-.582 1.137-.53-.187.395-.742.582-1.137.53zm.3-.331c-.036-.473.092-.938.403-1.188.158.409-.091.939-.403 1.188zm.241-.225c.339-.332.778-.533 1.168-.455-.211.382-.777.533-1.168.455zm.106-.135c.001-.475.167-.929.497-1.152.123.419-.168.928-.497 1.152zm.466-.437c.001-.475.167-.928.497-1.151.123.42-.167.928-.497 1.151zm-.063.098c.36-.309.812-.479 1.197-.376-.237.368-.811.479-1.197.376zm.407-.376c.36-.309.812-.479 1.196-.376-.237.368-.811.479-1.196.376zm-.029.038c.056-.472.273-.903.626-1.087.075.431-.273.902-.626 1.087zm.465-.384c.36-.309.812-.479 1.196-.376-.237.367-.811.48-1.196.376zm.511-.315c.36-.309.812-.48 1.196-.377-.237.368-.811.48-1.196.377zm-.498.306c.089-.466.335-.881.701-1.04.045.436-.335.881-.701 1.04zm.286-.195c.151-.449.452-.828.835-.936-.015.438-.452.828-.835.936zm.402-.252c-1.771.983-3.602 3.008-4.245 4.4l.104.084c.643-1.392 2.392-3.415 4.141-4.484z" fill="#FFE247" stroke="#000" stroke-width=".03"/></svg>