<svg xmlns="http://www.w3.org/2000/svg" width="64" height="48"><path fill-rule="evenodd" clip-rule="evenodd" fill="#fff" d="M0 0h64v48h-64v-48z"/><path fill-rule="evenodd" clip-rule="evenodd" fill="#26A737" d="M0 24h64v24h-64v-24z"/><g stroke="#000" stroke-width=".283" stroke-linecap="round" stroke-linejoin="round" stroke-miterlimit="2.613"><path fill-rule="evenodd" clip-rule="evenodd" fill="#E30613" d="M9.668 24.286c-.958 1.013-1.164 2.57-1.76 3.479-.026-.807-.026-1.221-.233-1.87.466-.778.879-1.635 1.216-2.44-.802-1.271-.491-3.244-1.242-4.542.544 0 .88-.182 1.216-.727-.052 1.012.285 2.025.802 2.414.207-.96.518-1.973-.077-2.985.595.078 1.035.052 1.526-.415-.543 1.583.181 1.558-.129 3.141.208-.934.958-1.038.88-1.869.155.571.466.908.958.986-.492.805-1.061 1.323-1.916 1.947.44 1.168.983 2.414 1.035 3.634 1.294.727 2.691 1.479 3.623 2.673.568-.051-.543-1.635.362-2.388-.336-.441-.181-1.608.466-1.765-.259-.545-.207-1.895.673-2.311-.31-.545.207-1.895.957-1.973-.154-.778.311-1.661.777-1.843-.13-.727.052-1.557.854-2.077-.362-.155-.621-.311-.958.026-.44.363-.647.778-.906 1.401-.336-.208-.647-.623-.621-1.116-.362.727-.751 1.791-.751 2.311-.466-.779-.75-1.973-.44-2.933 1.397-.13 2.769-1.013 4.063-1.09-.026-.857-1.087-1.791-1.941-1.765-.543.156-.905.623-1.476.856-.31.208-.724.39-1.034.234-.544-.493-.879-.856-1.061-1.376h-3.545c1.243-.96 3.778-1.869 6.004-1.947.103-.416.181-.597.776-.727 1.449-.286 2.769-.052 4.166.156-.103-1.116 1.812-1.583 2.951-2.31.31.389-.026.831-.078 1.35.699-.13 1.19-.493 1.63-.909.699.545-.415 1.298-.207 1.688.052.389.699.156.466.674-1.811.649-1.319.935-1.811 1.662.698.155 2.044.908 2.251 1.895-.621-.39-1.423-.727-1.812-.493.077.363.052.701.052.908.982.259 1.655 1.324 1.992 2.103-1.269-1.143-1.527-.208-1.992-.494-.052.234-.026.597-.182 1.116.879.104 1.734 1.324 2.07 2.051-1.19-1.039-1.888-.156-2.38-.649-.104.337-.156.779-.285 1.194.542.156 1.241.467 1.966 1.479-.958-.441-1.293.337-1.966.467.207.494.232.752.388 1.194.879.57 3.338-.286 3.985-1.402.802-1.609.569-3.53 1.345-5.217 2.018-3.089 8.642-5.477 11.645-7.554-1.294 5.814.751 3.66 9.03 1.064-1.217 1.557-6.521 4.335-1.889 5.606-2.769.96-6.858 3.868-3.287 7.06-1.966-.285-2.924.442-4.242 1.039 2.173.441 3.726 1.428 6.417 1.662 1.294.052 2.044-.39 2.819-.856-1.293.285-2.613-.027-3.441-.832-.828-.804-.854-1.479-.699-2.492.312-.804.983-1.661 2.097-1.999 1.604-.285 3.286 0 4.399 1.194.337-.545.466-1.609.389-2.388-.906.233-1.761.623-2.744.363 2.045-1.999 3.727-4.075 5.305-6.438-.103 2.83.129 5.789 1.062 8.254-.725-.493-1.604-1.09-2.045-1.972-.103 1.09-.336 2.361-.828 3.374.88 1.61-.103 3.816-1.138 5.036-1.269 1.506-4.503 2.597-6.366 2.778 1.527 1.091 3.752 1.479 5.306 3.244-.597-.312-1.321-.805-2.019-.961.182 1.428.232 3.141-.182 4.491-.207.934-.802 1.998-.647 2.959.492.909 1.501 1.246 2.433 1.636.622.052.776.363.854.701-.544-.286-1.112-.494-1.553-.286-1.139.674-2.304-1.142-3.364-1.584-1.345 1.817-2.819 1.479-4.27 2.051.207-.311.077-.467-.13-.805.674 0 1.346-.232 1.89-.39-.025-.233-.207-.285-.439-.337-.803.156-1.89.13-2.77 0 .466-.156.129-.7-.051-1.142.827.155 1.76.7 2.588.493-.57-.416-1.347-.7-2.123-.908.285-.261.362-.676.312-1.143.983.752 2.019 1.583 3.26 1.635.389-.883.905-1.661 1.579-2.388.387-.83.103-1.636-.182-2.543-.414-.728-1.062-1.195-2.045-1.377-1.165-.181-2.38.026-3.57-.285-1.346-.104-2.718-.571-3.338-1.453-1.269-.261-2.847-1.298-3.364-2.259-.181.623-.596 1.168-1.139 1.454.492.286.725.674.828 1.143.569.207 1.242.57 1.449 1.142.466.207.854.83.828 1.246 1.346.39 2.872 1.011 3.752 1.972v-.104c-.596-.259-1.216-.285-1.785-.077-.673.753-1.372 1.349-2.227 1.895-1.06.752-2.768 1.816-3.57 2.129.699.44 1.553.596 2.587.648-.465.182-.619.598-.412.882-.958-.545-2.097-1.142-3.184-1.037-.673.077-1.345.025-2.07.233-.647.052-1.319.233-1.889.493-.233-.338-.828-.468-1.371-.493.13-.494 3.08-.494 3.312-1.013-1.06.13-2.509.13-3.545.026.156-.39-.025-.623-.44-.909.958-.259 2.2.648 3.183.415-.569-.493-1.372-.856-2.277-1.038.415-.155.467-.545.311-1.245.673.7 1.397 1.324 2.381 1.713.647-.261 1.242-.338 1.966-.156 1.062-.312 2.019-.986 2.666-1.739-.362-.52-1.941-.596-2.769-1.038-.699-.441-1.294-1.063-1.372-1.816-.052-.572.854-1.116 1.061-1.792-1.708-.078-5.228 1.246-7.66 2.052-.026.519 0 .985-.259 1.557-.207-.441-.336-.882-.725-.986.155-.363.285-.7.415-1.064-.492-.467-.983.026-1.32.494-1.138 2.205-2.303 3.503-4.036 5.32.75.649 1.526.623 2.51.935-.233.182 2.69 2.232.026.856-1.527-.154-2.433-.648-3.054-1.453-.104.519-.492.7-.958.805-.854 0-1.035.182-1.449.13-.466.96-1.682.286-2.276.752.155-.519-.129-.57-.44-.804 1.139 0 1.656-.131 2.692-.494.232-.182.128-.337-.285-.492-.777 0-1.708.311-2.381 0-.362.025-.492.182-.621.492.025-.492-.13-.804-.492-1.219.983.18 1.992.337 3.001.415-.621-.598-1.5-.831-2.588-.909.647-.155 1.035-.467 1.035-.986.699.597 1.475 1.012 2.303 1.48.673-.053 1.113-.233 1.708-.572.052-.753.596-1.349 1.32-1.479-.156-.624-.104-1.09.414-1.376-.232-.52-.181-.753.388-1.143-.44-.492-.336-.778.233-1.401-.699.519-1.604.675-2.432.232.155.547-.026.91-.259 1.3-.285.959-.906 1.53-1.63 1.713.465-.701.646-1.325.413-2.103-2.663-3.112-4.215-4.564-5.173-8.64zm42.309-2.985c.155-.727-.155-.856-1.087-1.324-.983-.208-1.785.026-2.303.519-.312.571-.13.909.415 1.272.904.416 2.146.727 2.975-.467zm-8.876 18.819c.206.26.259.468.104.701-.336-.208-.775-.155-1.087.13.154-.493.465-.779.983-.831zm-1.423-1.738c.285.311.361.596.078.856-.44-.261-.907-.157-1.371.181.18-.623.542-1.012 1.293-1.037zm.829-1.636c.129.259-.078.675-.261.908-.387-.286-.775-.208-1.293-.129.518-.493.957-.753 1.554-.779zm-15.32-.908c.155.337.129.727-.129.96-.465-.39-1.164-.494-1.759-.39.465-.389 1.215-.623 1.888-.57zm-1.113 1.921c.26.18.363.388.285.674-.518-.182-1.06-.078-1.474.156.232-.443.568-.779 1.189-.83zm.802 1.893c.439-.025.828.157 1.164.339-.776-.053-1.268.103-1.759.311.001-.364.233-.519.595-.65zm-14.931 0c.285.053.336.235.311.676-.699-.156-1.01-.078-1.76.312.285-.546.648-.83 1.449-.988zm-.854-.778c-.621-.285-1.139-.363-1.94.026.31-.701.802-.934 1.552-1.038.388.389.595.649.388 1.012zm1.139-2.699c-.182.493-.543.857-.984.882-.465-.104-.776-.104-1.32.233.545-.726 1.321-1.063 2.304-1.115zm-.155-17.833c.026.571.336.753.776.934.285-.908.104-1.843-.854-2.543.285.571.259 1.116.078 1.609zm-1.113-1.194c.025-.727-.492-1.297-1.786-1.453 1.061.467 1.009 1.194.595 1.765.415.103.803-.078 1.191-.312zm-2.252.961c-.025-.727-.879-1.039-1.888-.883 1.009.337 1.086.779.905 1.402.285.182.544-.13.983-.519zm9.213-5.425c.75-.208 1.474.805.725 1.22-1.889 1.013-4.632.96-6.987.545-.259.493-.129.856.284 1.35-1.811-1.142-3.208-2.544-3.751-4.387.569.571 3.286 1.35 4.037 1.324-.104.389-.208.649-.078.727 1.397.44 3.933.207 5.77-.779z"/><path d="M14.533 11.905c.285-.441 1.449-.104 1.76-.649m-.104-.934c.414.389.259.96.052 1.427m.414-1.375c1.604.104 5.693.623 4.891.129m-3.778 0c0 .649.596 1.194 1.32 1.246.621.052 1.034-.519 1.034-1.064l-2.354-.182zm2.613 4.127c.129.467.155.986.518 1.116.414.052.518-.597.466-1.116.129.441.414 1.142.854 1.09.259-.052.155-.804-.104-1.297.389.312.881.779 1.373.571.129-.156-.363-.883-.725-1.35.31.259.725.493.983.337-.129-.416-.389-.856-.906-1.246.336.26.828.337 1.19.181-.259-.493-.699-.778-1.397-1.012.492.104.879 0 1.216-.39-.311-.363-.699-.467-1.293-.363.621-.493 1.655-.078 2.432-.571.595-.545 1.035-1.168 1.086-2.025-.906 0-1.474.441-1.94 1.064.362-.467.466-1.246.285-1.817-.57 0-1.139.312-1.604.675-.311.286-.569.597-.518 1.09m-.415 6.231c-1.216 3.842-3.234 8.332-1.863 11.888m-.75-11.991c.595.467 1.475.649 2.484.545m-2.924 1.194c.595.337 1.32.675 2.251.675m-3.054 1.167c.622.416 1.424.779 2.407.779m-3.364 1.194c.905.494 1.837.675 2.847.779m-3.494 1.532c.854.493 2.044.493 3.183.234m-3.675 1.558c1.243 1.92 2.769 1.037 3.649.518m.466 1.868c-.725 1.714-2.614 1.324-3.727 1.142m-5.537-3.97c.958 2.127 2.743 3.92 4.994 4.516m-3.856-4.387c-.258.156-.673.234-.932.078m2.485.83c-.439.391-.931.571-1.527.52m2.588.285c-.336.598-.725 1.014-1.63 1.063m41.61-12.769c-.155.805-.492 1.661-1.009 2.154m1.681-1.843c-.181.649-.232 1.428-.052 2.077m-4.321 6.255c1.139-.856 1.579-1.297 1.242-2.569m-34.028 15.444c1.941-2.232 3.158-4.725 3.779-7.398m-4.012 6.309c.104.285.311.337.647.311m-.284-1.454c.465-.155.802.415 1.086.286m-.569-2.051c.311.363.75.518 1.32.467m-1.035-1.999c.388.364 1.061.649 1.734.675m-1.242-2.181c.363.545.931.728 1.682.779m10.868 7.605c1.967-.388 3.803-1.582 4.942-3.011m-4.968 2.337c-.078.286.052.467.285.623m.595-1.09c0 .284.207.492.491.648m.388-1.245c.078.363.389.649.725.7m2.458-1.999c-.776.599-1.889 1.064-2.613.649m1.5-1.219c.104.624-.284 1.064-.957 1.402m-.413-1.843c-.182.518-.674.907-1.32 1.141m.077-2.283c-.647.727-1.579.985-2.459 1.115m-.128-2.05c.932-.883 1.604-.857 2.562-.597m4.864 3.166c-2.641-1.194-5.978-1.037-4.037-4.127m-7.814-.57c.233.883.233 1.868-.233 2.518m2.665-3.012c.491.623.439 1.377 0 2.155m-8.488-4.517c-.077.233-.052.52.104.857.492-.441 1.242-.675 1.915-.779.363.884.363 1.948.104 2.933.439-1.089.958-1.999 1.992-2.595.311.908.232 2.076.156 3.141.31-1.012 1.034-1.48 1.837-1.973.595.492 1.086 1.22 1.112 2.103.414-1.194 1.087-1.895 2.227-2.336.878.13 1.37.908 1.707 1.479.414-.857 1.165-1.791 2.018-2.076.751-.234 1.631.154 2.381.648.39-.727 1.14-1.583 2.07-2.051.777-.416 2.097-.233 2.897.13-.31-1.09-.18-2.751.934-3.322m-1.658 3.607c.699 1.714 5.562 2.57 8.074 3.894.957.598 1.526 4.205.646 6.671m-8.824-9.604c-.983.883-2.277 1.453-3.441 1.817m4.554-.598c-.646.807-1.5 1.507-2.562 1.48m4.064-.623c-.208.831-.673 1.428-1.295 2.025m3.286-1.61c.053.753-.361 1.377-.983 1.869m2.692-1.453c-.026.648-.362 1.116-.855 1.582m2.692-.958c-.337.623-1.165.959-1.786 1.194m2.536.077c-.362.415-1.165.598-1.76.468m1.863 1.193c-.491.233-.854.26-1.294.13m1.217 1.401c-.414.13-.75-.078-1.088-.312m.907 1.636c-.517.026-1.086-.076-1.578-.44m-24.195-19.079l-2.2 2.466m2.64-1.22l-3.287 3.53m3.08-1.842l-3.312 3.452m3.467-2.337l-3.545 4.568m2.872-9.992l-1.113 1.219m.467-1.246l1.319 7.242m-1.941-5.399l1.165 5.763m-1.734-4.102l1.061 4.646m-1.657-2.621l.622 3.998m-1.165-1.298l.621 2.44m4.089.753l-3.002 3.867m3.183-2.907l-3.598 3.868m3.573-2.156l-3.908 3.193m.75-2.024l.259 1.193m.13-2.413l.491 1.921m.465-2.7l.234 2.129m.362-3.245l.362 2.622m.492-3.348l.232 2.855m16.432-6.152l5.201 5.555m-5.408-4.284l2.949 3.452m-3.673-2.724l1.708 1.842m-.337-3.374l-.465 2.908m1.087-2.259l-.44 2.674m1.06-1.999l-.208 2.388m.829-1.713l-.025 2.051m.517-1.48l-.026 1.66m.725-.935v1.195m.776-.364l-.052.598m-4.347-4.802l4.244 4.75m-19.744-6.853c-2.692.52-4.218 2.596-4.891 4.542 2.044-2.985 3.286-3.919 6.236-3.737-1.01.856-1.01 2.647-.906 3.814.466-2.595 1.19-3.814 2.665-2.983-1.01 2.076-.879 3.556-.75 6.438.284-3.843.982-6.438 2.406-7.113.803 0 1.371 2.777 1.449 6.308.362-3.427-.026-5.632-.388-7.423.414-.494 4.269 3.011 4.683 5.867.232-2.441-2.432-4.932-4.243-6.594.568-2.726 6.65 1.142 9.211 4.698-1.345-2.726-4.916-5.763-8.487-6.515.621-1.116 9.289-.26 13.715 2.206-2.924-2.258-9.135-3.218-13.353-3.167 2.276-1.479 10.3-2.959 16.588-3.841-5.306.389-11.335 1.375-16.329 2.595 2.716-1.895 7.012-4.127 12.421-6.204-1.89.545-9.575 3.452-12.007 4.594-2.407 1.117-1.812 1.999-3.545 3.868.646-3.011 1.216-4.361 1.992-4.802 2.536-1.765 8.384-5.14 10.505-6.671-1.447.778-4.425 2.31-7.813 4.153" fill="none"/></g></svg>