<svg xmlns="http://www.w3.org/2000/svg" width="64" height="48"><path fill="#304194" d="M0 0h64v48h-64z"/><path fill="#D7AB45" d="M24.968 22.768c.388-.114 2.462-.163 2.57-.954.061-.444-1.412-.596-.421-1.433.423-.357 1.514-.629 1.91-1.077.199-.225.927-1.543.729-1.761-.25-.273-1.556-1.553-1.436-1.708.105-.135 1.357-.274 1.594-.403.515-.287.643-.587 1.374-.28.105-1.167 1.112.161 1.334.696-.026-.062-.605-.145-.664.041.025-.079-.184.555-.184.473 0 .241 1.751.5 1.751.997 0-.546 1.921.649 2.055-.112.111-.59 1.153 1.443.839 1.209.248.181.413 1.045.462 1.232.044.154.912-.92.912-.078 0 .566.316 1.115.316 1.602 0 .402 1.918.983 2.344.921.848-.124-.532 2.222-.41 2.382.221.292 1.932-.086 2.237.336-.089-.122 1.289.695 1.131.671.945.151.211.464 1.179.083 1.156-.455 1.607.9.852 1.43-.179.124-.173.987-.072 1.019-.597-.186-.62.634-.62.896 0-.03-.688.53-.767.739-.046.122-.672.339-.498.537.02.022.378.659.377.661-.271.572-1.772.821-1.775.84-.106.586 1.118 1.952.684 2.131-.783.31-1.178-1.025-1.882-.471-.181.142.16.75.019.869-.292.245-1.188-.531-1.642.528-.493.985-.128 1.008-.128 1.767-.061.069-.137.112-.228.129.002-.091-.027-.17-.089-.238-.258 0-.681.66-1.167.351-.368-.239-.341-1.634-.82-1.924-.924-.523-1.942.57-2.685 1.075-.192.145-2.925 1.145-2.925 1.19-1.041.94-.113 2.005.027 2.939.014.081-1.268 1.311-1.508 1.193-.844-.405-1.083.418-1.599-1.115 1.128-.303.489-1.205.325-1.968l-.614-1.171c-.058-.582.193-.855-.167-1.447-.507-.784-.568-1.414-1.265-2.111-.258-.226-1.864-1.105-2.004-.978-1.064.979-1.46-2.113-1.88-2.46-.049-.041-.224-.735-.375-.905l-1.056-.77-.281-1.138c-.213-.423.618-.833.513-1.024-1.184-.7-2.139-.415-1.846-1.66.22-.604 1.328-.72 1.751-.482.799.437 1.292-.098 1.685-.014l-.079-.333c.175-.669 1.667-.79 2.117-.922z"/><g fill="#fff"><path d="M48.229 10.074l-.699 2.174h-2.301l1.869 1.353-.718 2.171 1.849-1.349 1.85 1.349-.708-2.19 1.858-1.325h-2.291zM41.939 7.784l-.699 2.174h-2.302l1.87 1.353-.718 2.172 1.849-1.35 1.85 1.35-.708-2.191 1.857-1.325h-2.291zM35.348 6.622l-.7 2.174h-2.301l1.869 1.352-.718 2.172 1.85-1.349 1.849 1.349-.708-2.19 1.858-1.325h-2.291zM28.654 6.622l-.699 2.174h-2.302l1.869 1.352-.717 2.172 1.849-1.349 1.85 1.349-.708-2.19 1.857-1.325h-2.291zM22.062 7.784l-.699 2.174h-2.301l1.869 1.353-.718 2.172 1.849-1.35 1.85 1.35-.708-2.191 1.858-1.325h-2.291zM15.772 10.074l-.699 2.174h-2.302l1.87 1.353-.718 2.171 1.849-1.349 1.85 1.349-.708-2.19 1.857-1.325h-2.291z"/></g></svg>