<svg xmlns="http://www.w3.org/2000/svg" width="64" height="48"><path fill="#E9511D" d="M0 0h64v24h-64z"/><path fill="#004996" d="M0 24h64v24h-64z"/><path fill="#fff" d="M64 16h-25.576l-24-16h-5.771l28.801 19.201h26.546zM64 32h-25.576l-24 16h-5.771l28.801-19.201h26.546z"/><path fill="#00885B" d="M27.348 24l-27.348 18.231v5.769h8.653l28.801-19.201h26.546v-9.598h-26.546l-28.801-19.201h-8.653v5.769z"/><path fill="#FCC24F" d="M27.348 24l-27.348 18.231v-3.844l21.582-14.387-21.582-14.387v-3.844z"/><path d="M0 38.387l21.582-14.387-21.582-14.387z"/></svg>