<svg xmlns="http://www.w3.org/2000/svg" width="64" height="48"><path fill="#009E59" d="M0 0h64v48h-64z"/><path fill="#F3912D" d="M56 17h8v31h-8z"/><path d="M48 17h8v31h-8z"/><path fill="#E63027" d="M40 17h8v31h-8z"/><path d="M51.843 5.25c-.18.005-.311-.057-.357-.161.291-.17.488-.132.732.085.047-.17 0-.359-.104-.472-.103-.113-.188-.113-.328-.123l-.376-.047c-.138-.302-.482-.174-.814-.05-.538.201-1.022.567-1.239.932l-.173.328.078-.025c-.037.416-.087.8-.013 1.045-.094.359-.019.585.095.699.112.113.159.16.179.292.019.132.074.255.169.331.094.076.149.189.159.255.01.066.3.351.423.425l.112.161c-.122.718.367 1.436.254 2.144.085.01.197 0 .311-.028.094.604.15.897-.376 1.077-.526.18-.813.356-.667.558.104.142.317.018.451-.104.103-.095.225-.18.319-.208.094-.028.112 0 .065.123s-.301.387-.311.52c-.009.132.104.227.282.123s.335-.376.376-.538c.028-.114.075-.189.065 0-.009.189-.122.529.132.585s.329-.246.244-.52c-.084-.274-.112-.425-.075-.52.038-.094.075-.151.169-.123s.282-.01.272-.161c-.009-.151-.141-.274-.291-.189s-.263.072-.197-.113c.047-.132.132-.293.141-.397.104.151.687.17.921.028.057.284.207.539-.122.803-.329.264-.592.519-.583.708.01.189.085.302.254.208s.272-.227.311-.35c.037-.123.112-.123.075.028-.038.151-.104.369-.075.501.027.132.234.142.319.019.084-.123.065-.283.047-.444s.009-.331.047-.396c.038-.066.112-.161.188.019.075.18.113.321.264.369.15.047.263-.019.234-.199-.028-.179-.226-.377-.423-.529-.197-.151-.131-.227-.122-.368.01-.142-.019-.397-.028-.51.179.132.376.113.47.113.095 0 .249-.029.095-.17-.311-.283-.207-.454-.423-.661-.216-.208-.413-.529-.479-.803-.065-.274-.211-.775-.498-1.03-.159-.142-.206-.529-.169-.973.038-.444.047-.935-.356-1.162-.404-.227-.395-.416-.264-.614.132-.198.301-.392.517-.406l.207-.045-.114-.04zm-2.628 1.021c-.01.192-.005.361.034.491-.094.359-.019.585.095.699.112.113.159.16.179.292.019.132.074.255.169.331.094.076.149.189.159.255.01.066.3.351.423.425l.112.161c-.051.298.003.596.076.894-.664.554-1.318.293-1.043-.274-.552.441-1.504.428-1.29 0-.864.302-1.128.05-1.015-.227-.727.29-1.103.013-1.002-.189-.602.164-.99.063-1.053-.038-.062-.101.088-.328.226-.441-.275.101-.538.101-.789.063s-.188-.113-.138-.227c.05-.114.116-.293.316-.469-.479.094-1.08.161-1.503.019-.08-.027-.216-.057-.132-.142.085-.085.338-.292.648-.425-.705.104-2.039.179-2.414-.246.366.076.836-.076 1.137-.198-1.184-.132-2.8-.945-2.818-1.738.338.548.92.737 1.503.907-.789-.463-1.118-1.02-1.146-1.388.451.435 1.137.925 1.813 1.039-.479-.255-1.1-1.001-1.269-1.521.348.312 1.24.812 1.851.973-.423-.331-1.108-1.115-1.07-1.549.159.161.554.463 1.361.935.809.472 1.246.438 1.914.58-.123-.164-.232-.381-.241-.438.197.028.385.104.948.454.564.35 1.796.457 2.499.765.517.227 1.254.085 1.46.227zm4.252 4.851c.03-.024.03-.067-.046-.138-.311-.283-.207-.454-.423-.661-.216-.208-.413-.529-.479-.803-.065-.274-.211-.775-.498-1.03-.159-.142-.206-.529-.169-.973.032-.38.044-.794-.207-1.048.47-.132.902-.161 1.053-.01.779-.198 1.456-.258 2.12-.302.764-.05 2.204-.378 3.231-1.07-.062.251-.413.629-.727.818 1.039-.252 2.292-.718 3.356-1.511-.013.554-.463.97-.727 1.196.727-.403 1.791-.907 2.154-1.536.16.645-.927 1.489-1.516 1.955.602-.29 1.378-.557 1.679-.985-.006.522-.688 1.171-1.34 1.549.663-.252 1.402-.516 1.828-.907.05.526-1.985 1.735-2.993 2.065.877-.214 2.017-.504 2.518-.806-.025.107-.229.257-.378.367-.613.451-1.553.693-2.127.805.075.315-.025.491-.376.517-.351.025-1.199-.11-1.625-.325-.062.038-.138.051-.223.06.413.312.555.539.47.67-.085.132-.38.109-.605.062.178.5-.419.468-.916.184.197.255.226.473-.047.529s-.489.038-.752-.132c-.019.189-.2.315-.441.252.827.5.779.683.639.872s-.634.151-.897-.019c-.112.387-.562.389-.896.081-.004.153-.324.46-.64.274z" fill="#F3912D"/><path d="M44.54 5.257c.112.164.47.479.708.542m-.007-.095c-.013.246.125.611.545.737s.783.088 1.009.019m-.008-.001c-.383.086-.838.321-.95.529-.113.208-.031.283.149.334.608.17 1.297-.013 1.785-.365m-.999-.582c-.013.261.529.563 1.432.418m-.833.006c-.194.101-.451.233-.915.29m1.303-.264c-.088.283.551.498 1.447.277m-1.071.056c-.238.139-.646.347-1.046.473m-.488-.246c-.082.12-.126.511.219.554.701.088 1.672-.384 2.055-.775m-1.41.712c-.179.302-.094.633.301.68.395.047 1.08-.274 1.69-.964m-.216-.292c-.423.264-.883.623-1.362.803m.508.312c-.16.227-.197.359-.095.491.104.132.311.038.592-.113.282-.151.667-.463.884-.633m-.189-.237c-.197.132-.789.567-.939.718m.76-.207c-.122.321.01.482.188.548s.46.104.724-.151m-2.189.708c.395-.151 1.043-.585 1.25-.755m.197.188c-.16.16-.536.416-.893.566m.743.01c.319-.189.77-.51.92-.69m.019.312c-.085.113-.301.368-.441.52m-1.297-.774c-.311.16-.695.34-.977.453m-.544-.057c.244-.085.92-.444 1.137-.567m-1.523.369c.536-.114.958-.435 1.193-.557m-1.794.566c.45-.094 1.108-.52 1.371-.689m-.112-.293c-.348.208-.921.548-1.476.689m-.61-.179c.366-.094 1.1-.416 1.644-.718m-.367-.18c-.403.18-1.099.416-1.55.548m-.337-.283c.517-.076 1.184-.435 1.512-.652m-3.851-2.078c.275.227.761.331 1.089.387m-1.528-1.224c.432.409 1.108.882 1.897.976m-.344-.07c-.088.158-.106.592.558.504m-.32 0c-.106.227.068.611.889.359m-.162-.283c.131.491.745.598 1.064.34m-1.819-.242c-.395-.076-.827-.142-.978-.076-.149.066-.2.212-.009.359.629.481 2.921.491 3.532.359m-3.372-.265c-.225.076-.211.317.16.463.555.217 2.104.34 2.79.274m-2.977-.378c-.123.123-.068.275.056.387.529.477 1.824.413 2.922.029m-3.373-.161c.094-.038.244-.062.333-.052m-1.648-.779c.432.274.968.397 1.606.454m-.939-.803c.328.094.517.132.789.236m14.77-.164c-.426.151-1.428.529-1.879.604m-3.591.807c.329.179.893.246.958-.189m-.038.122c.338.199 1.023.076 1.005-.302m-.047.151c.348.132.854.142.939-.321m-.103.227c.451.085.978-.292.854-.614m-2.714.056c-.206.057-.328.132-.45.208m2.974.17c.376.076 1.052.277 1.29.479s.313.403-.113.479c-.426.076-.639.038-1.039-.038m.101-.863c.45-.265 1.202-.387 1.7-.274s.413.387.263.529-.498.236-.874.198m-.639-.321c.282-.047.893-.113 1.222-.113m2.818-1.323c-.395.387-1.616.869-2.584 1.096m.705-.198c.338.085.108.533-.038.652-.338.274-.732.5-1.381.567m.104-.01c.329.142.977.217 1.25.038.271-.18.234-.454.019-.586m-.48 1.2c-.254-.217-1.484-.472-1.889-.548m2.111.488c.138-.044.335-.318.21-.532m-4.969-.41c.423.378 1.306.85 1.869.936.563.085 1.006-.019.714-.34-.291-.321-1.042-.624-1.428-.755m3.246 1.893c-.611-.142-1.292-.562-1.771-.864m.009-.209c.507.199 1.428.633 1.869.747m-1.023.51c-.357-.17-1.043-.604-1.438-.954m.357-.01c.254.208 1.015.595 1.381.793m-3.279-1.813c.451.255 1.1.567 1.569.737m-.78-.86c.658.057 1.24.208 1.897.359m-3.728 1.852c.074.151.216.35.441.435s.375-.104.385-.302-.012-.304-.04-.379m-1.18-1.7c.065.567.554 1.351.967 1.596.414.246.742.151.827.028.085-.123.081-.477-.395-.736-.353-.193-.789-.586-.986-.86m-.207.01c.075.227.657.982.958 1.171m-1.418-.869c.216.283.873 1.228.986 1.501m-.15-1.869c.15.17.779.68 1.108.812m.01.321c.179.085.31.104.432.114.122.009.197-.057.15-.208-.047-.151-.15-.302-.244-.396m-.26 1.022c.231.334 1.026.781 1.39.85m.451-.245c-.344-.17-1.127-.837-1.346-1.07m.643 2.172c-.3-.17-1.338-1.133-1.714-1.587m.817 1.667c-.291-.227-.78-.874-.93-1.072m.611-1.228c.3.274 1.005.774 1.277.963m-1.991.302c.112.236.188.435.178.51-.009.076-.027.151-.15.123m7.49-4.439c-.789.403-1.465.895-2.529 1.121m.187-.416c.752-.277 1.916-.706 2.918-1.499m-2.968 2.205c1.114-.277 2.305-.73 3.118-1.398m-.387.554c-.627.252-1.115.819-2.806 1.058m1.638.094c-.451.208-1.325.198-1.738.161m1.747.208c-.488.104-1.428.066-1.784-.019m-8.728-2.357c.179-.094.203-.018.334-.151.366-.373.925-.751 1.211-.864.287-.113.409-.175.611-.17m-.641.182c.085-.038.09.188.313.107.166-.061.075-.268.146-.274m.252.542c-.122.062-.202.151-.264.255m-1.615.586c-.047.161-.057.368-.047.5m.029.265c-.038.16 0 .51.037.661m.066.359c.037.104.159.227.226.292m-.02-1.067c-.019.236.113.689.244.84.028.217.179.595.461.878m-.77-2.388c-.019.104-.01.265.009.397m.357-1.342c-.094.236-.122.68-.104.812.02.132-.094.425.057.869m.338-1.473c-.094.387-.084 1.096 0 1.379m-.112.123c-.047.208-.047.463.019.661m.347-2.022c-.01.293.122.708.385 1.001m-.45.038c-.028.35-.01.68.056.869.066.189.056.577.216.803m.047-1.152c.037.142.094.34.027.491m.217-.765c.075.246.112.52.104.633m.009.623c.019.208.104.444.179.576m-.489-.009c.065.198.197.463.328.566m.555-.472c.16.227.216.397.272.567m-1.813-.519c.179.019.264-.028.386.236s.479.689.648.765c.169.076.488.236.535.51.085-.189.188-.406.075-.652.234.293.498.558.535.737.038.18.185.406.298.529m-1.917-.012c.088-.019.244-.132.32-.214.105.057.318.164.356.397m.039.011c.074-.277-.007-.85-.276-1.322m-.689-.34c.068.208.131.479.138.642m.332-.22c.081.227.156.548.163.667m.727-.081c.062.151.1.384.087.523m.326.081c-.05-.233-.062-.787-.088-.963" fill="none"/><path d="M49.632 13.021c.014-.12.024-.258.125-.346.1-.088.163-.164.25-.076.088.088.031.17-.087.208-.119.038-.2.145-.22.214-.018.069-.081.107-.068 0zm.682.579c-.062-.198-.031-.453.037-.529.069-.076.157-.126.238-.05s.112.183-.038.246c-.133.056-.144.195-.15.296-.005.1-.049.157-.087.037zm.876-.51c-.048.081.013.409.176.491.115.058.169.044.101-.063-.069-.107-.044-.208-.007-.265.038-.057.031-.157-.05-.208-.081-.049-.181-.018-.22.045zm.708-.296c-.103-.078-.2.016-.237.082-.076.132-.02.321.1.428.119.107.101-.038.062-.101-.037-.063-.044-.189.038-.202.081-.011.138-.131.037-.207zm.589.214c-.101-.03-.2.076-.188.202.009.094.019.214.112.277.062.042.106.069.075-.044s.019-.208.075-.239.033-.164-.074-.196zm.833-.535c-.073.051-.069.17 0 .214.069.044.169.107.15.214s.037.145.088.025c.05-.12.056-.296 0-.378-.056-.081-.175-.119-.238-.075z"/></svg>