<svg xmlns="http://www.w3.org/2000/svg" width="64" height="48"><path fill="#086" d="M0 0h64v48h-64z"/><path fill="#FFED00" d="M0 7h64v34h-64z"/><path fill="#E40520" d="M0 14h64v20h-64z"/><path d="M0 21h64v6h-64zM0 0h2.48l33.52 24-33.52 24h-2.48z"/><path fill="#fff" d="M0 48v-48l32.076 24z"/><path fill="#E40520" d="M12.148 10.979l-2.647 8.222h-8.702l7.068 5.117-2.716 8.215 6.997-5.104 6.996 5.104-2.679-8.284 7.031-5.014h-8.668z"/><path fill="#FFED00" stroke="#000" stroke-width=".375" d="M9.08 30.643c2.771-.118 5.978-.035 8.367.275l1.669-6.94-7.286-2.525-5.965 4.949.819 4.062c.792.075 1.298.108 2.396.179z"/><path stroke="#000" stroke-width=".25" d="M6.033 26.44c.172-.097 2.202-.201 2.202-.201 2.193.102 7.52.438 10.107.89m-9.788-2.435c2.192.103 7.52.438 10.106.891M9.079 30.614l-.675-4.37" fill="none"/><circle cx="11.885" cy="25.677" r=".394"/><circle cx="13.637" cy="25.816" r=".394"/><path stroke="#000" stroke-width=".25" stroke-linejoin="round" fill="none" d="M8.679 26.271l.971 1.085.962-.942.855 1.024.984-.88.863.965.947-.868.904 1.032.965-.838.943 1.029.857-.805"/><path stroke="#000" stroke-width=".25" d="M8.734 28.374c2.613-.004 6.824.272 9.161.633" fill="none"/><path stroke="#000" stroke-width=".25" stroke-linejoin="round" fill="none" d="M8.555 27.275l.971 1.086.97-.867.847.948.984-.879.863.965.948-.846.904.991.965-.845.947 1.031 1.289-1.191"/><path fill="#FFED00" stroke="#000" stroke-width=".375" d="M12.278 22.879c-.564 1.3-2.29 1.876-3.389 2.434-.681.345-.649.773-.654.926-.009.286-.226.474-.757.457-.506-.016-.7-.292-.778-.505.019.202-.057.479-.605.462-.321-.01-.467-.191-.454-.604.017-.541.498-1.869.783-2.367.797-1.389 1.07-3.953.666-6.161-.301-1.649-1.02-1.941-2.338-1.915.177-.265.387-.511.972-.831.364-1.914 2.355-2.134 3.659-.325.971 1.348 1.315 2.237 1.468 2.749 2.82 1.642 6.089 4.042 9.079 6.736.482.435-.182.354-1.087.203-2.509-.417-4.875-.727-6.565-1.259z"/><path stroke="#000" stroke-width=".375" d="M12.278 22.879c-1.686-.53-2.698-1.279-2.506-2.572m-1.259 1.38c-.075 2.396-1.729 2.345-1.813 4.505" fill="none"/><path stroke="#000" stroke-width=".25" d="M11.104 24.183c.91.333 1.426.028 2.093-1.049m-.97 1.067c.851.312 1.357.065 1.964-.848m-6.963-4.882c.036.474 1.149-.015 3.621-1.272" fill="none"/><circle cx="7.117" cy="14.448" r=".31"/></svg>